G04*
G04 #@! TF.GenerationSoftware,Altium Limited,Altium Designer,21.6.4 (81)*
G04*
G04 Layer_Color=255*
%FSLAX43Y43*%
%MOMM*%
G71*
G04*
G04 #@! TF.SameCoordinates,D99C284B-08BF-42AF-8A75-C17E97AEF409*
G04*
G04*
G04 #@! TF.FilePolarity,Positive*
G04*
G01*
G75*
G04:AMPARAMS|DCode=23|XSize=1.607mm|YSize=0.762mm|CornerRadius=0.381mm|HoleSize=0mm|Usage=FLASHONLY|Rotation=0.000|XOffset=0mm|YOffset=0mm|HoleType=Round|Shape=RoundedRectangle|*
%AMROUNDEDRECTD23*
21,1,1.607,0.000,0,0,0.0*
21,1,0.845,0.762,0,0,0.0*
1,1,0.762,0.422,0.000*
1,1,0.762,-0.422,0.000*
1,1,0.762,-0.422,0.000*
1,1,0.762,0.422,0.000*
%
%ADD23ROUNDEDRECTD23*%
%ADD24R,1.607X0.762*%
%ADD25R,1.207X1.508*%
%ADD26R,1.505X1.556*%
%ADD27R,1.508X1.207*%
%ADD28R,1.556X1.505*%
%ADD53R,1.200X1.200*%
%ADD54C,1.200*%
%ADD55R,1.200X1.200*%
%ADD58R,2.050X2.050*%
%ADD59C,2.050*%
%ADD61C,1.575*%
%ADD62R,1.575X1.575*%
%ADD63R,2.057X2.057*%
%ADD64C,2.057*%
%ADD65R,2.057X2.057*%
%ADD74O,2.000X1.000*%
%ADD75O,2.000X1.000*%
%ADD76C,1.524*%
G04:AMPARAMS|DCode=77|XSize=1.95mm|YSize=1.95mm|CornerRadius=0.488mm|HoleSize=0mm|Usage=FLASHONLY|Rotation=270.000|XOffset=0mm|YOffset=0mm|HoleType=Round|Shape=RoundedRectangle|*
%AMROUNDEDRECTD77*
21,1,1.950,0.975,0,0,270.0*
21,1,0.975,1.950,0,0,270.0*
1,1,0.975,-0.488,-0.488*
1,1,0.975,-0.488,0.488*
1,1,0.975,0.488,0.488*
1,1,0.975,0.488,-0.488*
%
%ADD77ROUNDEDRECTD77*%
%ADD78C,1.950*%
%ADD79R,1.500X1.500*%
%ADD80C,1.500*%
%ADD81C,2.000*%
%ADD83R,2.000X4.100*%
%ADD84R,7.500X3.000*%
%ADD85R,0.500X1.000*%
%ADD86R,1.200X1.100*%
%ADD87R,1.100X1.200*%
D23*
X197460Y134925D02*
D03*
X197409Y138379D02*
D03*
Y141681D02*
D03*
D24*
X194109Y134925D02*
D03*
X194058Y138379D02*
D03*
Y141681D02*
D03*
D25*
X177479Y132537D02*
D03*
X175378D02*
D03*
X208518Y124841D02*
D03*
X206416D02*
D03*
X206366Y128499D02*
D03*
X208467D02*
D03*
X206391Y120726D02*
D03*
X208493D02*
D03*
D26*
X206033Y142138D02*
D03*
X207835D02*
D03*
X206084Y149860D02*
D03*
X207885D02*
D03*
X205945Y145821D02*
D03*
X207747D02*
D03*
D27*
X150774Y96901D02*
D03*
Y99003D02*
D03*
X167132Y78527D02*
D03*
Y80629D02*
D03*
X167030Y74965D02*
D03*
Y72863D02*
D03*
Y69936D02*
D03*
Y67834D02*
D03*
Y62348D02*
D03*
Y64449D02*
D03*
X166954Y96561D02*
D03*
Y98663D02*
D03*
X166980Y104353D02*
D03*
Y102251D02*
D03*
X166802Y118447D02*
D03*
Y120548D02*
D03*
Y123765D02*
D03*
Y125866D02*
D03*
X210160Y142104D02*
D03*
Y144205D02*
D03*
X178613Y116738D02*
D03*
Y114637D02*
D03*
X182194D02*
D03*
Y116738D02*
D03*
X178537Y106188D02*
D03*
Y108290D02*
D03*
X178867Y72025D02*
D03*
Y74127D02*
D03*
X178816Y81721D02*
D03*
Y79620D02*
D03*
X182245Y108299D02*
D03*
Y106197D02*
D03*
X210058Y152054D02*
D03*
Y149952D02*
D03*
X210109Y145863D02*
D03*
Y147964D02*
D03*
X166802Y131013D02*
D03*
Y134458D02*
D03*
X166751Y145202D02*
D03*
Y147304D02*
D03*
X182270Y72076D02*
D03*
Y74177D02*
D03*
X182245Y81747D02*
D03*
Y79645D02*
D03*
X151257Y66862D02*
D03*
Y64761D02*
D03*
X167132Y85566D02*
D03*
Y83464D02*
D03*
X167183Y91256D02*
D03*
Y89154D02*
D03*
X166827Y115519D02*
D03*
Y113418D02*
D03*
X166802Y107829D02*
D03*
Y109931D02*
D03*
X166751Y155810D02*
D03*
Y157912D02*
D03*
X166726Y150130D02*
D03*
Y152232D02*
D03*
X166802Y136560D02*
D03*
Y128911D02*
D03*
X178359Y138040D02*
D03*
Y140141D02*
D03*
X182169Y138192D02*
D03*
Y140294D02*
D03*
X178359Y146387D02*
D03*
Y148488D02*
D03*
X182093Y148447D02*
D03*
Y146345D02*
D03*
X166776Y139538D02*
D03*
Y141640D02*
D03*
X150597Y132013D02*
D03*
Y129912D02*
D03*
D28*
X148539Y86106D02*
D03*
Y87908D02*
D03*
X159131Y76593D02*
D03*
Y74791D02*
D03*
X147930Y118948D02*
D03*
Y120750D02*
D03*
X158369Y111250D02*
D03*
Y109449D02*
D03*
X158445Y145427D02*
D03*
Y143625D02*
D03*
X148158Y155282D02*
D03*
X163805Y137822D02*
D03*
X163119Y105982D02*
D03*
X164008Y72935D02*
D03*
Y71134D02*
D03*
X163119Y107784D02*
D03*
X163805Y139624D02*
D03*
X210795Y124753D02*
D03*
Y126555D02*
D03*
Y128487D02*
D03*
Y130288D02*
D03*
X210896Y120689D02*
D03*
Y122491D02*
D03*
X148158Y153480D02*
D03*
D53*
X171425Y63602D02*
D03*
X171379Y79299D02*
D03*
X171425Y84785D02*
D03*
X171526Y97892D02*
D03*
Y114249D02*
D03*
Y119939D02*
D03*
X171648Y130124D02*
D03*
X171755Y145974D02*
D03*
X171679Y151511D02*
D03*
X212776Y94793D02*
D03*
D54*
X171425Y66142D02*
D03*
Y68682D02*
D03*
X171379Y74219D02*
D03*
Y76759D02*
D03*
X171425Y89865D02*
D03*
Y87325D02*
D03*
X171526Y102972D02*
D03*
Y100432D02*
D03*
Y109169D02*
D03*
Y111709D02*
D03*
Y125019D02*
D03*
Y122479D02*
D03*
X171648Y135204D02*
D03*
Y132664D02*
D03*
X171755Y140894D02*
D03*
Y143434D02*
D03*
X171679Y156591D02*
D03*
Y154051D02*
D03*
X123698Y73279D02*
D03*
X126238D02*
D03*
X125679Y107066D02*
D03*
X123139D02*
D03*
X212776Y89713D02*
D03*
Y92253D02*
D03*
X125578Y141757D02*
D03*
X123038D02*
D03*
D55*
X121158Y73279D02*
D03*
X120599Y107066D02*
D03*
X120498Y141757D02*
D03*
D58*
X238252Y116185D02*
D03*
X238354Y140442D02*
D03*
D59*
X238252Y118720D02*
D03*
Y121260D02*
D03*
X238354Y145517D02*
D03*
Y142977D02*
D03*
D61*
X94158Y153035D02*
D03*
X93574Y117983D02*
D03*
X93955Y84176D02*
D03*
D62*
X122860Y153035D02*
D03*
X122276Y117983D02*
D03*
X122657Y84176D02*
D03*
D63*
X241808Y105359D02*
D03*
D64*
Y83464D02*
D03*
X232842Y68986D02*
D03*
D65*
X210947D02*
D03*
D74*
X89611Y170307D02*
D03*
Y167767D02*
D03*
X119990Y170205D02*
D03*
Y167665D02*
D03*
X150470Y169951D02*
D03*
Y167411D02*
D03*
X180873Y169697D02*
D03*
Y167157D02*
D03*
X242976Y169545D02*
D03*
Y167005D02*
D03*
X211455Y169240D02*
D03*
Y166700D02*
D03*
D75*
X89611Y169037D02*
D03*
X119990Y168935D02*
D03*
X150470Y168681D02*
D03*
X180873Y168427D02*
D03*
X242976Y168275D02*
D03*
X211455Y167970D02*
D03*
D76*
X162966Y113360D02*
D03*
X238862Y110211D02*
D03*
X178435Y143434D02*
D03*
X152476Y86944D02*
D03*
X156769Y156185D02*
D03*
X151943Y120548D02*
D03*
X154407Y123165D02*
D03*
X97434Y66827D02*
D03*
X97130Y100482D02*
D03*
X97542Y134468D02*
D03*
X107671Y142164D02*
D03*
X107594Y107620D02*
D03*
X123673Y98476D02*
D03*
X107671Y73558D02*
D03*
X124663Y64465D02*
D03*
X141122Y68656D02*
D03*
X141275Y76378D02*
D03*
X137973Y82804D02*
D03*
X145517Y83947D02*
D03*
X140538Y96850D02*
D03*
X140589Y110820D02*
D03*
X137693Y116967D02*
D03*
X145288Y116865D02*
D03*
X143485Y129591D02*
D03*
X140564Y144653D02*
D03*
X152197Y154635D02*
D03*
X159791Y138201D02*
D03*
X156312Y129946D02*
D03*
X160147Y105334D02*
D03*
X156769Y97384D02*
D03*
X155194Y89560D02*
D03*
X156261Y65151D02*
D03*
X161595Y70841D02*
D03*
X164313Y67793D02*
D03*
X163754Y78486D02*
D03*
X164186Y100482D02*
D03*
X163144Y132867D02*
D03*
X163627Y144907D02*
D03*
X186106Y143281D02*
D03*
X236245Y149073D02*
D03*
X218999Y154711D02*
D03*
X241732Y130886D02*
D03*
X218186Y92075D02*
D03*
X218211Y95529D02*
D03*
X178841Y76886D02*
D03*
X178537Y111531D02*
D03*
X185965D02*
D03*
X186035Y76601D02*
D03*
X145202Y153390D02*
D03*
X123426Y132296D02*
D03*
X137262Y153721D02*
D03*
X153391Y64124D02*
D03*
Y66624D02*
D03*
X153467Y99198D02*
D03*
Y96698D02*
D03*
Y129794D02*
D03*
Y132294D02*
D03*
X114630Y74447D02*
D03*
X117130D02*
D03*
X114111Y108255D02*
D03*
X116611D02*
D03*
X113919Y143002D02*
D03*
X116419D02*
D03*
D77*
X67412Y109750D02*
D03*
X239124Y71668D02*
D03*
X67251Y143750D02*
D03*
X67581Y75881D02*
D03*
D78*
X67412Y104750D02*
D03*
X239124Y76668D02*
D03*
X67251Y138750D02*
D03*
X67581Y70881D02*
D03*
D79*
X181961Y156642D02*
D03*
X202941Y127356D02*
D03*
X182143Y135052D02*
D03*
X182118Y124943D02*
D03*
X182296Y69012D02*
D03*
X182194Y89865D02*
D03*
X182296Y102997D02*
D03*
X202844Y148412D02*
D03*
X64922Y171171D02*
D03*
X96515Y171120D02*
D03*
X126944Y170891D02*
D03*
X157475Y171450D02*
D03*
X218821Y170993D02*
D03*
X188285Y170790D02*
D03*
D80*
X181961Y154102D02*
D03*
Y151562D02*
D03*
X202941Y109576D02*
D03*
Y112116D02*
D03*
Y117196D02*
D03*
Y122276D02*
D03*
Y124816D02*
D03*
Y119736D02*
D03*
Y114656D02*
D03*
X182143Y132512D02*
D03*
Y129972D02*
D03*
X182118Y122403D02*
D03*
Y119863D02*
D03*
X182296Y66472D02*
D03*
Y63932D02*
D03*
X182194Y87325D02*
D03*
Y84785D02*
D03*
X182296Y100457D02*
D03*
Y97917D02*
D03*
X202844Y135712D02*
D03*
Y140792D02*
D03*
Y145872D02*
D03*
Y143332D02*
D03*
Y138252D02*
D03*
Y133172D02*
D03*
Y130632D02*
D03*
X64922Y166091D02*
D03*
Y168631D02*
D03*
X96515Y166040D02*
D03*
Y168580D02*
D03*
X126944Y165811D02*
D03*
Y168351D02*
D03*
X157475Y166370D02*
D03*
Y168910D02*
D03*
X218821Y165913D02*
D03*
Y168453D02*
D03*
X188285Y165710D02*
D03*
Y168250D02*
D03*
D81*
X242743Y142660D02*
D03*
X242468Y118643D02*
D03*
D83*
X151206Y80125D02*
D03*
Y71425D02*
D03*
X150673Y148800D02*
D03*
Y140100D02*
D03*
X150571Y114821D02*
D03*
Y106121D02*
D03*
X228575Y74879D02*
D03*
Y83579D02*
D03*
X228219Y106870D02*
D03*
Y115570D02*
D03*
X228295Y122320D02*
D03*
Y131020D02*
D03*
X228346Y137966D02*
D03*
Y146666D02*
D03*
D84*
X216738Y106872D02*
D03*
Y111872D02*
D03*
X217653Y151003D02*
D03*
Y146003D02*
D03*
X228549Y157262D02*
D03*
Y152262D02*
D03*
D85*
X223164Y151200D02*
D03*
Y153600D02*
D03*
D86*
X128981Y143874D02*
D03*
Y141774D02*
D03*
X144323Y65142D02*
D03*
Y67242D02*
D03*
X130150Y75497D02*
D03*
Y73397D02*
D03*
X129565Y109152D02*
D03*
Y107052D02*
D03*
D87*
X139429Y101803D02*
D03*
X141529D02*
D03*
X139209Y136906D02*
D03*
X141309D02*
D03*
M02*
