G04*
G04 #@! TF.GenerationSoftware,Altium Limited,Altium Designer,21.6.4 (81)*
G04*
G04 Layer_Color=2752767*
%FSLAX43Y43*%
%MOMM*%
G71*
G04*
G04 #@! TF.SameCoordinates,F52DD1F2-FE9F-4456-8C2D-F0E8507D2AE0*
G04*
G04*
G04 #@! TF.FilePolarity,Positive*
G04*
G01*
G75*
%ADD96C,0.051*%
%ADD97C,0.068*%
%ADD98C,0.034*%
D96*
X137770Y82601D02*
Y83007D01*
X138176D01*
Y82601D01*
X137770D01*
X137490Y116764D02*
Y117170D01*
X137897D01*
Y116764D01*
X137490D01*
X137058Y153518D02*
Y153924D01*
X137465D01*
Y153518D01*
X137058D01*
X178638Y76683D02*
Y77089D01*
X179045D01*
Y76683D01*
X178638D01*
X161392Y70637D02*
Y71044D01*
X161798D01*
Y70637D01*
X161392D01*
X156058Y64948D02*
Y65354D01*
X156464D01*
Y64948D01*
X156058D01*
X140919Y68453D02*
Y68859D01*
X141326D01*
Y68453D01*
X140919D01*
X141072Y76175D02*
Y76581D01*
X141478D01*
Y76175D01*
X141072D01*
X163551Y78283D02*
Y78689D01*
X163957D01*
Y78283D01*
X163551D01*
X164109Y67589D02*
Y67996D01*
X164516D01*
Y67589D01*
X164109D01*
X107467Y73355D02*
Y73762D01*
X107874D01*
Y73355D01*
X107467D01*
X97231Y66624D02*
Y67031D01*
X97638D01*
Y66624D01*
X97231D01*
X124460Y64262D02*
Y64668D01*
X124866D01*
Y64262D01*
X124460D01*
X152273Y86741D02*
Y87147D01*
X152679D01*
Y86741D01*
X152273D01*
X145313Y83744D02*
Y84150D01*
X145720D01*
Y83744D01*
X145313D01*
X154991Y89357D02*
Y89764D01*
X155397D01*
Y89357D01*
X154991D01*
X185832Y76398D02*
Y76804D01*
X186238D01*
Y76398D01*
X185832D01*
X218796Y154508D02*
Y154915D01*
X219202D01*
Y154508D01*
X218796D01*
X178333Y111328D02*
Y111735D01*
X178740D01*
Y111328D01*
X178333D01*
X159944Y105131D02*
Y105537D01*
X160350D01*
Y105131D01*
X159944D01*
X156566Y97180D02*
Y97587D01*
X156972D01*
Y97180D01*
X156566D01*
X140335Y96647D02*
Y97053D01*
X140741D01*
Y96647D01*
X140335D01*
X140386Y110617D02*
Y111023D01*
X140792D01*
Y110617D01*
X140386D01*
X162763Y113157D02*
Y113563D01*
X163170D01*
Y113157D01*
X162763D01*
X163982Y100279D02*
Y100686D01*
X164389D01*
Y100279D01*
X163982D01*
X107391Y107417D02*
Y107823D01*
X107798D01*
Y107417D01*
X107391D01*
X96926Y100279D02*
Y100686D01*
X97333D01*
Y100279D01*
X96926D01*
X123469Y98273D02*
Y98679D01*
X123876D01*
Y98273D01*
X123469D01*
X151740Y120345D02*
Y120752D01*
X152146D01*
Y120345D01*
X151740D01*
X145085Y116662D02*
Y117069D01*
X145491D01*
Y116662D01*
X145085D01*
X154203Y122961D02*
Y123368D01*
X154610D01*
Y122961D01*
X154203D01*
X185761Y111328D02*
Y111735D01*
X186168D01*
Y111328D01*
X185761D01*
X217983Y91872D02*
Y92278D01*
X218389D01*
Y91872D01*
X217983D01*
X218008Y95326D02*
Y95733D01*
X218415D01*
Y95326D01*
X218008D01*
X159588Y137998D02*
Y138405D01*
X159995D01*
Y137998D01*
X159588D01*
X156108Y129743D02*
Y130150D01*
X156515D01*
Y129743D01*
X156108D01*
X140360Y144450D02*
Y144856D01*
X140767D01*
Y144450D01*
X140360D01*
X163424Y144704D02*
Y145110D01*
X163830D01*
Y144704D01*
X163424D01*
X162941Y132664D02*
Y133071D01*
X163347D01*
Y132664D01*
X162941D01*
X123223Y132093D02*
Y132499D01*
X123629D01*
Y132093D01*
X123223D01*
X97339Y134264D02*
Y134671D01*
X97745D01*
Y134264D01*
X97339D01*
X151994Y154432D02*
Y154838D01*
X152400D01*
Y154432D01*
X151994D01*
X156566Y155981D02*
Y156388D01*
X156972D01*
Y155981D01*
X156566D01*
X144999Y153187D02*
Y153594D01*
X145406D01*
Y153187D01*
X144999D01*
X185903Y143078D02*
Y143485D01*
X186309D01*
Y143078D01*
X185903D01*
X178232Y143231D02*
Y143637D01*
X178638D01*
Y143231D01*
X178232D01*
X241529Y130683D02*
Y131089D01*
X241935D01*
Y130683D01*
X241529D01*
X238658Y110007D02*
Y110414D01*
X239065D01*
Y110007D01*
X238658D01*
X143281Y129388D02*
Y129794D01*
X143688D01*
Y129388D01*
X143281D01*
X107467Y141961D02*
Y142367D01*
X107874D01*
Y141961D01*
X107467D01*
X236042Y148869D02*
Y149276D01*
X236449D01*
Y148869D01*
X236042D01*
X157475Y171247D02*
X157272Y171653D01*
X157678D01*
X157475Y171247D01*
Y168707D02*
X157272Y169113D01*
X157678D01*
X157475Y168707D01*
Y166167D02*
X157272Y166573D01*
X157678D01*
X157475Y166167D01*
X218821Y170790D02*
X218618Y171196D01*
X219024D01*
X218821Y170790D01*
Y168250D02*
X218618Y168656D01*
X219024D01*
X218821Y168250D01*
Y165710D02*
X218618Y166116D01*
X219024D01*
X218821Y165710D01*
X188285Y170586D02*
X188082Y170993D01*
X188489D01*
X188285Y170586D01*
Y168046D02*
X188082Y168453D01*
X188489D01*
X188285Y168046D01*
Y165506D02*
X188082Y165913D01*
X188489D01*
X188285Y165506D01*
X126944Y170688D02*
X126741Y171094D01*
X127148D01*
X126944Y170688D01*
Y168148D02*
X126741Y168554D01*
X127148D01*
X126944Y168148D01*
Y165608D02*
X126741Y166014D01*
X127148D01*
X126944Y165608D01*
X64922Y170967D02*
X64719Y171374D01*
X65126D01*
X64922Y170967D01*
Y168427D02*
X64719Y168834D01*
X65126D01*
X64922Y168427D01*
Y165887D02*
X64719Y166294D01*
X65126D01*
X64922Y165887D01*
X96515Y170917D02*
X96312Y171323D01*
X96718D01*
X96515Y170917D01*
Y168377D02*
X96312Y168783D01*
X96718D01*
X96515Y168377D01*
Y165837D02*
X96312Y166243D01*
X96718D01*
X96515Y165837D01*
X202941Y109372D02*
X202738Y109779D01*
X203144D01*
X202941Y109372D01*
Y111912D02*
X202738Y112319D01*
X203144D01*
X202941Y111912D01*
Y116992D02*
X202738Y117399D01*
X203144D01*
X202941Y116992D01*
Y122072D02*
X202738Y122479D01*
X203144D01*
X202941Y122072D01*
Y127152D02*
X202738Y127559D01*
X203144D01*
X202941Y127152D01*
Y124612D02*
X202738Y125019D01*
X203144D01*
X202941Y124612D01*
Y119532D02*
X202738Y119939D01*
X203144D01*
X202941Y119532D01*
Y114452D02*
X202738Y114859D01*
X203144D01*
X202941Y114452D01*
X202844Y130429D02*
X202641Y130835D01*
X203048D01*
X202844Y130429D01*
Y132969D02*
X202641Y133375D01*
X203048D01*
X202844Y132969D01*
Y138049D02*
X202641Y138455D01*
X203048D01*
X202844Y138049D01*
Y143129D02*
X202641Y143535D01*
X203048D01*
X202844Y143129D01*
Y148209D02*
X202641Y148615D01*
X203048D01*
X202844Y148209D01*
Y145669D02*
X202641Y146075D01*
X203048D01*
X202844Y145669D01*
Y140589D02*
X202641Y140995D01*
X203048D01*
X202844Y140589D01*
Y135509D02*
X202641Y135915D01*
X203048D01*
X202844Y135509D01*
X182296Y68809D02*
X182093Y69215D01*
X182499D01*
X182296Y68809D01*
Y66269D02*
X182093Y66675D01*
X182499D01*
X182296Y66269D01*
Y63729D02*
X182093Y64135D01*
X182499D01*
X182296Y63729D01*
X182194Y89662D02*
X181991Y90068D01*
X182397D01*
X182194Y89662D01*
Y87122D02*
X181991Y87528D01*
X182397D01*
X182194Y87122D01*
Y84582D02*
X181991Y84988D01*
X182397D01*
X182194Y84582D01*
X182296Y102794D02*
X182093Y103200D01*
X182499D01*
X182296Y102794D01*
Y100254D02*
X182093Y100660D01*
X182499D01*
X182296Y100254D01*
Y97714D02*
X182093Y98120D01*
X182499D01*
X182296Y97714D01*
X182118Y124739D02*
X181915Y125146D01*
X182321D01*
X182118Y124739D01*
Y122199D02*
X181915Y122606D01*
X182321D01*
X182118Y122199D01*
Y119659D02*
X181915Y120066D01*
X182321D01*
X182118Y119659D01*
X182143Y134849D02*
X181940Y135255D01*
X182347D01*
X182143Y134849D01*
Y132309D02*
X181940Y132715D01*
X182347D01*
X182143Y132309D01*
Y129769D02*
X181940Y130175D01*
X182347D01*
X182143Y129769D01*
X181961Y156439D02*
X181758Y156845D01*
X182164D01*
X181961Y156439D01*
Y153899D02*
X181758Y154305D01*
X182164D01*
X181961Y153899D01*
Y151359D02*
X181758Y151765D01*
X182164D01*
X181961Y151359D01*
X117130Y74244D02*
X117232Y74346D01*
X117333D01*
X117232Y74447D01*
X117333Y74549D01*
X117232D01*
X117130Y74651D01*
X117029Y74549D01*
X116927D01*
X117029Y74447D01*
X116927Y74346D01*
X117029D01*
X117130Y74244D01*
X114630D02*
X114732Y74346D01*
X114833D01*
X114732Y74447D01*
X114833Y74549D01*
X114732D01*
X114630Y74651D01*
X114529Y74549D01*
X114427D01*
X114529Y74447D01*
X114427Y74346D01*
X114529D01*
X114630Y74244D01*
X116611Y108052D02*
X116713Y108153D01*
X116815D01*
X116713Y108255D01*
X116815Y108356D01*
X116713D01*
X116611Y108458D01*
X116510Y108356D01*
X116408D01*
X116510Y108255D01*
X116408Y108153D01*
X116510D01*
X116611Y108052D01*
X114111D02*
X114213Y108153D01*
X114315D01*
X114213Y108255D01*
X114315Y108356D01*
X114213D01*
X114111Y108458D01*
X114010Y108356D01*
X113908D01*
X114010Y108255D01*
X113908Y108153D01*
X114010D01*
X114111Y108052D01*
X116419Y142799D02*
X116521Y142900D01*
X116622D01*
X116521Y143002D01*
X116622Y143104D01*
X116521D01*
X116419Y143205D01*
X116317Y143104D01*
X116216D01*
X116317Y143002D01*
X116216Y142900D01*
X116317D01*
X116419Y142799D01*
X113919D02*
X114021Y142900D01*
X114122D01*
X114021Y143002D01*
X114122Y143104D01*
X114021D01*
X113919Y143205D01*
X113817Y143104D01*
X113716D01*
X113817Y143002D01*
X113716Y142900D01*
X113817D01*
X113919Y142799D01*
X153391Y63921D02*
X153492Y64023D01*
X153594D01*
X153492Y64124D01*
X153594Y64226D01*
X153492D01*
X153391Y64327D01*
X153289Y64226D01*
X153187D01*
X153289Y64124D01*
X153187Y64023D01*
X153289D01*
X153391Y63921D01*
Y66421D02*
X153492Y66523D01*
X153594D01*
X153492Y66624D01*
X153594Y66726D01*
X153492D01*
X153391Y66827D01*
X153289Y66726D01*
X153187D01*
X153289Y66624D01*
X153187Y66523D01*
X153289D01*
X153391Y66421D01*
X153467Y129591D02*
X153568Y129692D01*
X153670D01*
X153568Y129794D01*
X153670Y129896D01*
X153568D01*
X153467Y129997D01*
X153365Y129896D01*
X153264D01*
X153365Y129794D01*
X153264Y129692D01*
X153365D01*
X153467Y129591D01*
Y132091D02*
X153568Y132192D01*
X153670D01*
X153568Y132294D01*
X153670Y132396D01*
X153568D01*
X153467Y132497D01*
X153365Y132396D01*
X153264D01*
X153365Y132294D01*
X153264Y132192D01*
X153365D01*
X153467Y132091D01*
X67378Y75678D02*
X67480Y75881D01*
X67378Y76084D01*
X67581Y75982D01*
X67785Y76084D01*
X67683Y75881D01*
X67785Y75678D01*
X67581Y75779D01*
X67378Y75678D01*
Y70678D02*
X67480Y70881D01*
X67378Y71084D01*
X67581Y70982D01*
X67785Y71084D01*
X67683Y70881D01*
X67785Y70678D01*
X67581Y70779D01*
X67378Y70678D01*
X67048Y143546D02*
X67150Y143750D01*
X67048Y143953D01*
X67251Y143851D01*
X67454Y143953D01*
X67353Y143750D01*
X67454Y143546D01*
X67251Y143648D01*
X67048Y143546D01*
Y138546D02*
X67150Y138750D01*
X67048Y138953D01*
X67251Y138851D01*
X67454Y138953D01*
X67353Y138750D01*
X67454Y138546D01*
X67251Y138648D01*
X67048Y138546D01*
X153467Y96495D02*
X153568Y96596D01*
X153670D01*
X153568Y96698D01*
X153670Y96799D01*
X153568D01*
X153467Y96901D01*
X153365Y96799D01*
X153264D01*
X153365Y96698D01*
X153264Y96596D01*
X153365D01*
X153467Y96495D01*
Y98995D02*
X153568Y99096D01*
X153670D01*
X153568Y99198D01*
X153670Y99299D01*
X153568D01*
X153467Y99401D01*
X153365Y99299D01*
X153264D01*
X153365Y99198D01*
X153264Y99096D01*
X153365D01*
X153467Y98995D01*
X67208Y109546D02*
X67310Y109750D01*
X67208Y109953D01*
X67412Y109851D01*
X67615Y109953D01*
X67513Y109750D01*
X67615Y109546D01*
X67412Y109648D01*
X67208Y109546D01*
Y104546D02*
X67310Y104750D01*
X67208Y104953D01*
X67412Y104851D01*
X67615Y104953D01*
X67513Y104750D01*
X67615Y104546D01*
X67412Y104648D01*
X67208Y104546D01*
X238920Y71465D02*
X239022Y71668D01*
X238920Y71871D01*
X239124Y71769D01*
X239327Y71871D01*
X239225Y71668D01*
X239327Y71465D01*
X239124Y71566D01*
X238920Y71465D01*
Y76465D02*
X239022Y76668D01*
X238920Y76871D01*
X239124Y76769D01*
X239327Y76871D01*
X239225Y76668D01*
X239327Y76465D01*
X239124Y76566D01*
X238920Y76465D01*
X179019Y167818D02*
Y167716D01*
X179222D01*
Y167818D01*
X179324D01*
Y168021D01*
X179222D01*
Y168123D01*
X179019D01*
Y168021D01*
X178918D01*
Y167818D01*
X179019D01*
Y169088D02*
Y168986D01*
X179222D01*
Y169088D01*
X179324D01*
Y169291D01*
X179222D01*
Y169393D01*
X179019D01*
Y169291D01*
X178918D01*
Y169088D01*
X179019D01*
Y170358D02*
Y170256D01*
X179222D01*
Y170358D01*
X179324D01*
Y170561D01*
X179222D01*
Y170663D01*
X179019D01*
Y170561D01*
X178918D01*
Y170358D01*
X179019D01*
X240436Y167919D02*
Y167818D01*
X240640D01*
Y167919D01*
X240741D01*
Y168123D01*
X240640D01*
Y168224D01*
X240436D01*
Y168123D01*
X240335D01*
Y167919D01*
X240436D01*
Y169189D02*
Y169088D01*
X240640D01*
Y169189D01*
X240741D01*
Y169393D01*
X240640D01*
Y169494D01*
X240436D01*
Y169393D01*
X240335D01*
Y169189D01*
X240436D01*
Y170459D02*
Y170358D01*
X240640D01*
Y170459D01*
X240741D01*
Y170663D01*
X240640D01*
Y170764D01*
X240436D01*
Y170663D01*
X240335D01*
Y170459D01*
X240436D01*
X208712Y167462D02*
Y167361D01*
X208915D01*
Y167462D01*
X209017D01*
Y167665D01*
X208915D01*
Y167767D01*
X208712D01*
Y167665D01*
X208610D01*
Y167462D01*
X208712D01*
Y168732D02*
Y168631D01*
X208915D01*
Y168732D01*
X209017D01*
Y168935D01*
X208915D01*
Y169037D01*
X208712D01*
Y168935D01*
X208610D01*
Y168732D01*
X208712D01*
Y170002D02*
Y169901D01*
X208915D01*
Y170002D01*
X209017D01*
Y170205D01*
X208915D01*
Y170307D01*
X208712D01*
Y170205D01*
X208610D01*
Y170002D01*
X208712D01*
X148158Y167411D02*
Y167310D01*
X148361D01*
Y167411D01*
X148463D01*
Y167615D01*
X148361D01*
Y167716D01*
X148158D01*
Y167615D01*
X148057D01*
Y167411D01*
X148158D01*
Y168681D02*
Y168580D01*
X148361D01*
Y168681D01*
X148463D01*
Y168885D01*
X148361D01*
Y168986D01*
X148158D01*
Y168885D01*
X148057D01*
Y168681D01*
X148158D01*
Y169951D02*
Y169850D01*
X148361D01*
Y169951D01*
X148463D01*
Y170155D01*
X148361D01*
Y170256D01*
X148158D01*
Y170155D01*
X148057D01*
Y169951D01*
X148158D01*
X87605Y167919D02*
Y167818D01*
X87808D01*
Y167919D01*
X87909D01*
Y168123D01*
X87808D01*
Y168224D01*
X87605D01*
Y168123D01*
X87503D01*
Y167919D01*
X87605D01*
Y169189D02*
Y169088D01*
X87808D01*
Y169189D01*
X87909D01*
Y169393D01*
X87808D01*
Y169494D01*
X87605D01*
Y169393D01*
X87503D01*
Y169189D01*
X87605D01*
Y170459D02*
Y170358D01*
X87808D01*
Y170459D01*
X87909D01*
Y170663D01*
X87808D01*
Y170764D01*
X87605D01*
Y170663D01*
X87503D01*
Y170459D01*
X87605D01*
X117932Y167564D02*
Y167462D01*
X118135D01*
Y167564D01*
X118237D01*
Y167767D01*
X118135D01*
Y167869D01*
X117932D01*
Y167767D01*
X117831D01*
Y167564D01*
X117932D01*
Y168834D02*
Y168732D01*
X118135D01*
Y168834D01*
X118237D01*
Y169037D01*
X118135D01*
Y169139D01*
X117932D01*
Y169037D01*
X117831D01*
Y168834D01*
X117932D01*
Y170104D02*
Y170002D01*
X118135D01*
Y170104D01*
X118237D01*
Y170307D01*
X118135D01*
Y170409D01*
X117932D01*
Y170307D01*
X117831D01*
Y170104D01*
X117932D01*
X232639Y68783D02*
X232740D01*
X232842Y68885D01*
X232943Y68783D01*
X233045D01*
Y68885D01*
X232943Y68986D01*
X233045Y69088D01*
Y69190D01*
X232943D01*
X232842Y69088D01*
X232740Y69190D01*
X232639D01*
Y69088D01*
X232740Y68986D01*
X232639Y68885D01*
Y68783D01*
X210744D02*
X210845D01*
X210947Y68885D01*
X211049Y68783D01*
X211150D01*
Y68885D01*
X211049Y68986D01*
X211150Y69088D01*
Y69190D01*
X211049D01*
X210947Y69088D01*
X210845Y69190D01*
X210744D01*
Y69088D01*
X210845Y68986D01*
X210744Y68885D01*
Y68783D01*
X241605Y83261D02*
X241706D01*
X241808Y83363D01*
X241910Y83261D01*
X242011D01*
Y83363D01*
X241910Y83464D01*
X242011Y83566D01*
Y83668D01*
X241910D01*
X241808Y83566D01*
X241706Y83668D01*
X241605D01*
Y83566D01*
X241706Y83464D01*
X241605Y83363D01*
Y83261D01*
Y105156D02*
X241706D01*
X241808Y105258D01*
X241910Y105156D01*
X242011D01*
Y105258D01*
X241910Y105359D01*
X242011Y105461D01*
Y105562D01*
X241910D01*
X241808Y105461D01*
X241706Y105562D01*
X241605D01*
Y105461D01*
X241706Y105359D01*
X241605Y105258D01*
Y105156D01*
X238049Y116185D02*
X238252Y116388D01*
X238455Y116185D01*
X238252Y115981D01*
X238049Y116185D01*
Y118720D02*
X238252Y118923D01*
X238455Y118720D01*
X238252Y118516D01*
X238049Y118720D01*
Y121260D02*
X238252Y121463D01*
X238455Y121260D01*
X238252Y121056D01*
X238049Y121260D01*
X238150Y145517D02*
X238354Y145720D01*
X238557Y145517D01*
X238354Y145313D01*
X238150Y145517D01*
Y142977D02*
X238354Y143180D01*
X238557Y142977D01*
X238354Y142773D01*
X238150Y142977D01*
Y140442D02*
X238354Y140645D01*
X238557Y140442D01*
X238354Y140238D01*
X238150Y140442D01*
X242743Y142457D02*
X242540Y142864D01*
X242946D01*
X242743Y142457D01*
X242468Y118440D02*
X242265Y118847D01*
X242672D01*
X242468Y118440D01*
X93955Y152832D02*
Y153238D01*
X94361D01*
Y152832D01*
X93955D01*
X94056Y152933D02*
Y153137D01*
X94259D01*
Y152933D01*
X94056D01*
X122657Y152832D02*
Y153238D01*
X123063D01*
Y152832D01*
X122657D01*
X122758Y152933D02*
Y153137D01*
X122961D01*
Y152933D01*
X122758D01*
X122072Y117780D02*
Y118186D01*
X122479D01*
Y117780D01*
X122072D01*
X122174Y117881D02*
Y118085D01*
X122377D01*
Y117881D01*
X122174D01*
X93370Y117780D02*
Y118186D01*
X93777D01*
Y117780D01*
X93370D01*
X93472Y117881D02*
Y118085D01*
X93675D01*
Y117881D01*
X93472D01*
X122453Y83972D02*
Y84379D01*
X122860D01*
Y83972D01*
X122453D01*
X122555Y84074D02*
Y84277D01*
X122758D01*
Y84074D01*
X122555D01*
X93751Y83972D02*
Y84379D01*
X94158D01*
Y83972D01*
X93751D01*
X93853Y84074D02*
Y84277D01*
X94056D01*
Y84074D01*
X93853D01*
D97*
X171582Y74219D02*
G03*
X171582Y74219I-203J0D01*
G01*
Y76759D02*
G03*
X171582Y76759I-203J0D01*
G01*
Y79299D02*
G03*
X171582Y79299I-203J0D01*
G01*
X126441Y73279D02*
G03*
X126441Y73279I-203J0D01*
G01*
X123901D02*
G03*
X123901Y73279I-203J0D01*
G01*
X121361D02*
G03*
X121361Y73279I-203J0D01*
G01*
X171628Y68682D02*
G03*
X171628Y68682I-203J0D01*
G01*
Y66142D02*
G03*
X171628Y66142I-203J0D01*
G01*
Y63602D02*
G03*
X171628Y63602I-203J0D01*
G01*
X171628Y89865D02*
G03*
X171628Y89865I-203J0D01*
G01*
Y87325D02*
G03*
X171628Y87325I-203J0D01*
G01*
Y84785D02*
G03*
X171628Y84785I-203J0D01*
G01*
X171729Y109169D02*
G03*
X171729Y109169I-203J0D01*
G01*
Y111709D02*
G03*
X171729Y111709I-203J0D01*
G01*
Y114249D02*
G03*
X171729Y114249I-203J0D01*
G01*
X125882Y107066D02*
G03*
X125882Y107066I-203J0D01*
G01*
X123342D02*
G03*
X123342Y107066I-203J0D01*
G01*
X120802D02*
G03*
X120802Y107066I-203J0D01*
G01*
X171729Y102972D02*
G03*
X171729Y102972I-203J0D01*
G01*
Y100432D02*
G03*
X171729Y100432I-203J0D01*
G01*
Y97892D02*
G03*
X171729Y97892I-203J0D01*
G01*
Y125019D02*
G03*
X171729Y125019I-203J0D01*
G01*
Y122479D02*
G03*
X171729Y122479I-203J0D01*
G01*
Y119939D02*
G03*
X171729Y119939I-203J0D01*
G01*
X212979Y89713D02*
G03*
X212979Y89713I-203J0D01*
G01*
Y92253D02*
G03*
X212979Y92253I-203J0D01*
G01*
Y94793D02*
G03*
X212979Y94793I-203J0D01*
G01*
X171958Y140894D02*
G03*
X171958Y140894I-203J0D01*
G01*
Y143434D02*
G03*
X171958Y143434I-203J0D01*
G01*
Y145974D02*
G03*
X171958Y145974I-203J0D01*
G01*
X125781Y141757D02*
G03*
X125781Y141757I-203J0D01*
G01*
X123241D02*
G03*
X123241Y141757I-203J0D01*
G01*
X120701D02*
G03*
X120701Y141757I-203J0D01*
G01*
X171851Y135204D02*
G03*
X171851Y135204I-203J0D01*
G01*
Y132664D02*
G03*
X171851Y132664I-203J0D01*
G01*
Y130124D02*
G03*
X171851Y130124I-203J0D01*
G01*
X171882Y156591D02*
G03*
X171882Y156591I-203J0D01*
G01*
Y154051D02*
G03*
X171882Y154051I-203J0D01*
G01*
Y151511D02*
G03*
X171882Y151511I-203J0D01*
G01*
X225196Y170561D02*
G03*
X225196Y170561I-203J0D01*
G01*
X194386Y170205D02*
G03*
X194386Y170205I-203J0D01*
G01*
X163734Y170505D02*
G03*
X163734Y170505I-203J0D01*
G01*
X133579Y170053D02*
G03*
X133579Y170053I-203J0D01*
G01*
X72212Y170561D02*
G03*
X72212Y170561I-203J0D01*
G01*
X103449Y170146D02*
G03*
X103449Y170146I-203J0D01*
G01*
X151257Y83998D02*
G03*
X151257Y83998I-203J0D01*
G01*
X188519Y91999D02*
G03*
X188519Y91999I-203J0D01*
G01*
X144526Y69113D02*
G03*
X144526Y69113I-203J0D01*
G01*
X130404Y77978D02*
G03*
X130404Y77978I-203J0D01*
G01*
X143643Y101721D02*
G03*
X143643Y101721I-203J0D01*
G01*
X129769Y111379D02*
G03*
X129769Y111379I-203J0D01*
G01*
X134645Y99746D02*
G03*
X134645Y99746I-203J0D01*
G01*
X129210Y146634D02*
G03*
X129210Y146634I-203J0D01*
G01*
X143612Y136906D02*
G03*
X143612Y136906I-203J0D01*
G01*
X223418Y156947D02*
G03*
X223418Y156947I-203J0D01*
G01*
X198374Y59715D02*
G03*
X198374Y59715I-203J0D01*
G01*
X200203Y58268D02*
G03*
X200203Y58268I-203J0D01*
G01*
X196647Y56744D02*
G03*
X196647Y56744I-203J0D01*
G01*
X141239Y56693D02*
G03*
X141239Y56693I-203J0D01*
G01*
X138646Y58141D02*
G03*
X138646Y58141I-203J0D01*
G01*
X135575Y59665D02*
G03*
X135575Y59665I-203J0D01*
G01*
X134671Y91084D02*
G03*
X134671Y91084I-203J0D01*
G01*
X103480Y84150D02*
G03*
X103480Y84150I-203J0D01*
G01*
X103378Y118034D02*
G03*
X103378Y118034I-203J0D01*
G01*
X103810Y153060D02*
G03*
X103810Y153060I-203J0D01*
G01*
X222834Y122809D02*
G03*
X222834Y122809I-203J0D01*
G01*
X222860Y127457D02*
G03*
X222860Y127457I-203J0D01*
G01*
X216383Y130226D02*
G03*
X216383Y130226I-203J0D01*
G01*
Y123114D02*
G03*
X216383Y123114I-203J0D01*
G01*
X189179Y141859D02*
G03*
X189179Y141859I-203J0D01*
G01*
X188646Y127559D02*
G03*
X188646Y127559I-203J0D01*
G01*
X182334Y143320D02*
G03*
X182334Y143320I-203J0D01*
G01*
X151384Y68377D02*
G03*
X151384Y68377I-203J0D01*
G01*
X159664Y69444D02*
G03*
X159664Y69444I-203J0D01*
G01*
X158725Y125603D02*
G03*
X158725Y125603I-203J0D01*
G01*
X162712Y128930D02*
G03*
X162712Y128930I-203J0D01*
G01*
X162636Y121869D02*
G03*
X162636Y121869I-203J0D01*
G01*
X179349Y127483D02*
G03*
X179349Y127483I-203J0D01*
G01*
X162535Y90653D02*
G03*
X162535Y90653I-203J0D01*
G01*
X160172Y101295D02*
G03*
X160172Y101295I-203J0D01*
G01*
X144450Y76581D02*
G03*
X144450Y76581I-203J0D01*
G01*
X141567Y85230D02*
G03*
X141567Y85230I-203J0D01*
G01*
X148971Y68986D02*
G03*
X148971Y68986I-203J0D01*
G01*
X182461Y76911D02*
G03*
X182461Y76911I-203J0D01*
G01*
X150571Y118288D02*
G03*
X150571Y118288I-203J0D01*
G01*
X143637Y111415D02*
G03*
X143637Y111415I-203J0D01*
G01*
X148158Y103556D02*
G03*
X148158Y103556I-203J0D01*
G01*
X130302Y64364D02*
G03*
X130302Y64364I-203J0D01*
G01*
X129756Y98539D02*
G03*
X129756Y98539I-203J0D01*
G01*
X129083Y132131D02*
G03*
X129083Y132131I-203J0D01*
G01*
X150673Y152095D02*
G03*
X150673Y152095I-203J0D01*
G01*
X158598Y134457D02*
G03*
X158598Y134457I-203J0D01*
G01*
X150531Y135103D02*
G03*
X150531Y135103I-203J0D01*
G01*
X150419Y101737D02*
G03*
X150419Y101737I-203J0D01*
G01*
X148311Y137084D02*
G03*
X148311Y137084I-203J0D01*
G01*
X182423Y111468D02*
G03*
X182423Y111468I-203J0D01*
G01*
X140792Y118999D02*
G03*
X140792Y118999I-203J0D01*
G01*
Y110820D02*
G03*
X140792Y110820I-203J0D01*
G01*
X140614Y152756D02*
G03*
X140614Y152756I-203J0D01*
G01*
X143840Y144551D02*
G03*
X143840Y144551I-203J0D01*
G01*
D98*
X225095Y170561D02*
G03*
X225095Y170561I-102J0D01*
G01*
X194285Y170205D02*
G03*
X194285Y170205I-102J0D01*
G01*
X163632Y170505D02*
G03*
X163632Y170505I-102J0D01*
G01*
X133477Y170053D02*
G03*
X133477Y170053I-102J0D01*
G01*
X72111Y170561D02*
G03*
X72111Y170561I-102J0D01*
G01*
X103347Y170146D02*
G03*
X103347Y170146I-102J0D01*
G01*
X151155Y83998D02*
G03*
X151155Y83998I-102J0D01*
G01*
X188417Y91999D02*
G03*
X188417Y91999I-102J0D01*
G01*
X144424Y69113D02*
G03*
X144424Y69113I-102J0D01*
G01*
X130302Y77978D02*
G03*
X130302Y77978I-102J0D01*
G01*
X143542Y101721D02*
G03*
X143542Y101721I-102J0D01*
G01*
X129667Y111379D02*
G03*
X129667Y111379I-102J0D01*
G01*
X134544Y99746D02*
G03*
X134544Y99746I-102J0D01*
G01*
X129108Y146634D02*
G03*
X129108Y146634I-102J0D01*
G01*
X143510Y136906D02*
G03*
X143510Y136906I-102J0D01*
G01*
X223317Y156947D02*
G03*
X223317Y156947I-102J0D01*
G01*
X198272Y59715D02*
G03*
X198272Y59715I-102J0D01*
G01*
X200101Y58268D02*
G03*
X200101Y58268I-102J0D01*
G01*
X196545Y56744D02*
G03*
X196545Y56744I-102J0D01*
G01*
X141137Y56693D02*
G03*
X141137Y56693I-102J0D01*
G01*
X138544Y58141D02*
G03*
X138544Y58141I-102J0D01*
G01*
X135473Y59665D02*
G03*
X135473Y59665I-102J0D01*
G01*
X134569Y91084D02*
G03*
X134569Y91084I-102J0D01*
G01*
X103378Y84150D02*
G03*
X103378Y84150I-102J0D01*
G01*
X103276Y118034D02*
G03*
X103276Y118034I-102J0D01*
G01*
X103708Y153060D02*
G03*
X103708Y153060I-102J0D01*
G01*
X222733Y122809D02*
G03*
X222733Y122809I-102J0D01*
G01*
X222758Y127457D02*
G03*
X222758Y127457I-102J0D01*
G01*
X216281Y130226D02*
G03*
X216281Y130226I-102J0D01*
G01*
Y123114D02*
G03*
X216281Y123114I-102J0D01*
G01*
X189078Y141859D02*
G03*
X189078Y141859I-102J0D01*
G01*
X188544Y127559D02*
G03*
X188544Y127559I-102J0D01*
G01*
X182232Y143320D02*
G03*
X182232Y143320I-102J0D01*
G01*
X151282Y68377D02*
G03*
X151282Y68377I-102J0D01*
G01*
X159563Y69444D02*
G03*
X159563Y69444I-102J0D01*
G01*
X158623Y125603D02*
G03*
X158623Y125603I-102J0D01*
G01*
X162611Y128930D02*
G03*
X162611Y128930I-102J0D01*
G01*
X162535Y121869D02*
G03*
X162535Y121869I-102J0D01*
G01*
X179248Y127483D02*
G03*
X179248Y127483I-102J0D01*
G01*
X162433Y90653D02*
G03*
X162433Y90653I-102J0D01*
G01*
X160071Y101295D02*
G03*
X160071Y101295I-102J0D01*
G01*
X144348Y76581D02*
G03*
X144348Y76581I-102J0D01*
G01*
X141465Y85230D02*
G03*
X141465Y85230I-102J0D01*
G01*
X148869Y68986D02*
G03*
X148869Y68986I-102J0D01*
G01*
X182359Y76911D02*
G03*
X182359Y76911I-102J0D01*
G01*
X150470Y118288D02*
G03*
X150470Y118288I-102J0D01*
G01*
X143535Y111415D02*
G03*
X143535Y111415I-102J0D01*
G01*
X148057Y103556D02*
G03*
X148057Y103556I-102J0D01*
G01*
X130200Y64364D02*
G03*
X130200Y64364I-102J0D01*
G01*
X129654Y98539D02*
G03*
X129654Y98539I-102J0D01*
G01*
X128981Y132131D02*
G03*
X128981Y132131I-102J0D01*
G01*
X150571Y152095D02*
G03*
X150571Y152095I-102J0D01*
G01*
X158496Y134457D02*
G03*
X158496Y134457I-102J0D01*
G01*
X150429Y135103D02*
G03*
X150429Y135103I-102J0D01*
G01*
X150317Y101737D02*
G03*
X150317Y101737I-102J0D01*
G01*
X148209Y137084D02*
G03*
X148209Y137084I-102J0D01*
G01*
X182321Y111468D02*
G03*
X182321Y111468I-102J0D01*
G01*
X140691Y118999D02*
G03*
X140691Y118999I-102J0D01*
G01*
Y110820D02*
G03*
X140691Y110820I-102J0D01*
G01*
X140513Y152756D02*
G03*
X140513Y152756I-102J0D01*
G01*
X143739Y144551D02*
G03*
X143739Y144551I-102J0D01*
G01*
M02*
