M48
;Layer_Color=9474304
;FILE_FORMAT=4:3
METRIC,LZ
;TYPE=PLATED
T1F00S00C0.700
T2F00S00C0.711
T3F00S00C0.762
T4F00S00C0.900
T5F00S00C1.000
T6F00S00C1.067
T7F00S00C1.300
T8F00S00C1.350
T9F00S00C1.549
%
T01
X0171425Y0063602
Y0066142
Y0068682
X0171379Y0074219
Y0076759
Y0079299
X0126238Y0073279
X0123698
X0121158
X0120599Y0107066
X0123139
X0125679
X0171526Y0109169
Y0111709
Y0114249
Y0102972
Y0100432
Y0097892
X0171425Y0089865
Y0087325
Y0084785
X0212776Y0089713
Y0092253
Y0094793
X0171526Y0119939
Y0122479
Y0125019
X0171648Y0130124
Y0132664
Y0135204
X0171755Y0140894
Y0143434
Y0145974
X0171679Y0151511
Y0154051
Y0156591
X0125578Y0141757
X0123038
X0120498
T02
X02Y0058268
X0198171Y0059715
X0196444Y0056744
X0186035Y0076601
X0182258Y0076911
X0178841Y0076886
X0163754Y0078486
X0161595Y0070841
X0159461Y0069444
X0164313Y0067793
X0156261Y0065151
X0151181Y0068377
X0148768Y0068986
X0144323Y0069113
X0141122Y0068656
X0141275Y0076378
X0144247Y0076581
X01302Y0077978
X0130099Y0064364
X0124663Y0064465
X0135372Y0059665
X0138442Y0058141
X0141036Y0056693
X0107671Y0073558
X0097434Y0066827
X0103276Y008415
X0103175Y0118034
X0129565Y0111379
X0140589Y011082
X0143434Y0111415
X0145288Y0116865
X0150368Y0118288
X0140589Y0118999
X0137693Y0116967
X0134442Y0099746
X0129553Y0098539
X0134468Y0091084
X0137973Y0082804
X0141364Y008523
X0145517Y0083947
X0151054Y0083998
X0152476Y0086944
X0155194Y008956
X0156769Y0097384
X0150216Y0101737
X0147955Y0103556
X014344Y0101721
X0140538Y009685
X0159969Y0101295
X0160147Y0105334
X0164186Y0100482
X0162331Y0090653
X0162966Y011336
X0178537Y0111531
X018222Y0111468
X0185965Y0111531
X0188316Y0091999
X0216179Y0123114
X0222631Y0122809
X0222656Y0127457
X0216179Y0130226
X0218999Y0154711
X0223215Y0156947
X0188976Y0141859
X0186106Y0143281
X0182131Y014332
X0178435Y0143434
X0163627Y0144907
X0159791Y0138201
X0163144Y0132867
X0162509Y012893
X0162433Y0121869
X0179146Y0127483
X0188443Y0127559
X0158521Y0125603
X0154407Y0123165
X0151943Y0120548
X0156312Y0129946
X0158394Y0134457
X0150328Y0135103
X0148107Y0137084
X0143408Y0136906
X0143485Y0129591
X0143637Y0144551
X0140564Y0144653
X0140411Y0152756
X0137262Y0153721
X015047Y0152095
X0152197Y0154635
X0156769Y0156185
X0129007Y0146634
X012888Y0132131
X0103607Y015306
T03
X0164313Y0067793
X0161595Y0070841
X0163754Y0078486
X0178841Y0076886
X0186035Y0076601
X0156261Y0065151
X0153391Y0064124
Y0066624
X0141122Y0068656
X0141275Y0076378
X0124663Y0064465
X011713Y0074447
X011463
X0107671Y0073558
X0097434Y0066827
X009713Y0100482
X0107594Y010762
X0114111Y0108255
X0116611
X0123673Y0098476
X0140538Y009685
X0153467Y0096698
Y0099198
X0156769Y0097384
X0155194Y008956
X0152476Y0086944
X0145517Y0083947
X0137973Y0082804
X0140589Y011082
X0137693Y0116967
X0145288Y0116865
X0162966Y011336
X0160147Y0105334
X0164186Y0100482
X0178537Y0111531
X0185965
X0218211Y0095529
X0218186Y0092075
X0238862Y0110211
X0241732Y0130886
X0236245Y0149073
X0218999Y0154711
X0186106Y0143281
X0178435Y0143434
X0163627Y0144907
X0159791Y0138201
X0163144Y0132867
X0156312Y0129946
X0153467Y0129794
Y0132294
X0154407Y0123165
X0151943Y0120548
X0143485Y0129591
X0140564Y0144653
X0137262Y0153721
X0145202Y015339
X0152197Y0154635
X0156769Y0156185
X0123426Y0132296
X0116419Y0143002
X0113919
X0107671Y0142164
X0097542Y0134468
T04
X0089611Y0167767
Y0169037
Y0170307
X011999Y0170205
Y0168935
Y0167665
X015047Y0167411
Y0168681
Y0169951
X0180873Y0169697
Y0168427
Y0167157
X0211455Y01667
Y016797
Y016924
X0242976Y0169545
Y0168275
Y0167005
T05
X0182296Y0063932
Y0066472
Y0069012
X0182194Y0084785
Y0087325
Y0089865
X0182296Y0097917
Y0100457
Y0102997
X0202941Y0109576
Y0112116
Y0114656
Y0117196
X0242468Y0118643
X0242743Y014266
X0202844Y0143332
Y0140792
Y0138252
Y0135712
Y0133172
Y0130632
X0202941Y0127356
Y0124816
Y0122276
Y0119736
X0202844Y0145872
Y0148412
X0181961Y0151562
Y0154102
Y0156642
X0182143Y0135052
Y0132512
Y0129972
X0182118Y0124943
Y0122403
Y0119863
X0064922Y0166091
Y0168631
Y0171171
X0096515Y017112
Y016858
Y016604
X0126944Y0165811
Y0168351
Y0170891
X0157475Y017145
Y016891
Y016637
X0188285Y016571
Y016825
Y017079
X0218821Y0170993
Y0168453
Y0165913
T06
X0093955Y0084176
X0093574Y0117983
X0122276
X0122657Y0084176
X012286Y0153035
X0094158
T07
X0239124Y0071668
Y0076668
X0067581Y0075881
Y0070881
X0067412Y010475
Y010975
X0067251Y013875
Y014375
T08
X0238252Y0116185
Y011872
Y012126
X0238354Y0140442
Y0142977
Y0145517
T09
X0210947Y0068986
X0232842
X0241808Y0083464
Y0105359
M30
