G04*
G04 #@! TF.GenerationSoftware,Altium Limited,Altium Designer,21.6.4 (81)*
G04*
G04 Layer_Color=16711935*
%FSLAX43Y43*%
%MOMM*%
G71*
G04*
G04 #@! TF.SameCoordinates,D99C284B-08BF-42AF-8A75-C17E97AEF409*
G04*
G04*
G04 #@! TF.FilePolarity,Positive*
G04*
G01*
G75*
%ADD13C,0.254*%
%ADD94C,0.013*%
%ADD95C,1.300*%
%ADD96C,1.200*%
D13*
X243138Y163957D02*
G03*
X243138Y163957I-1000J0D01*
G01*
X243169Y174205D02*
G03*
X243169Y174205I-1000J0D01*
G01*
X211998Y163855D02*
G03*
X211998Y163855I-1000J0D01*
G01*
X212029Y174103D02*
G03*
X212029Y174103I-1000J0D01*
G01*
X181340Y164033D02*
G03*
X181340Y164033I-1000J0D01*
G01*
X181371Y174281D02*
G03*
X181371Y174281I-1000J0D01*
G01*
X150809Y164186D02*
G03*
X150809Y164186I-1000J0D01*
G01*
X150840Y174433D02*
G03*
X150840Y174433I-1000J0D01*
G01*
X120329Y163982D02*
G03*
X120329Y163982I-1000J0D01*
G01*
X120360Y174230D02*
G03*
X120360Y174230I-1000J0D01*
G01*
X89829Y174357D02*
G03*
X89829Y174357I-1000J0D01*
G01*
X89798Y164109D02*
G03*
X89798Y164109I-1000J0D01*
G01*
X242900Y155931D02*
G03*
X242900Y155931I-2540J0D01*
G01*
X241960Y59207D02*
G03*
X241960Y59207I-2540J0D01*
G01*
X80716Y85065D02*
G03*
X80716Y85065I-1092J0D01*
G01*
X80775Y67020D02*
G03*
X80775Y67020I-1092J0D01*
G01*
X80776Y101063D02*
G03*
X80776Y101063I-1092J0D01*
G01*
X80721Y119101D02*
G03*
X80721Y119101I-1092J0D01*
G01*
X69139Y156007D02*
G03*
X69139Y156007I-2540J0D01*
G01*
X71018Y60503D02*
G03*
X71018Y60503I-2540J0D01*
G01*
X80506Y136327D02*
G03*
X80506Y136327I-1092J0D01*
G01*
X80434Y154584D02*
G03*
X80434Y154584I-1092J0D01*
G01*
X61341Y53162D02*
X245237D01*
X61341Y177317D02*
X245237D01*
Y53162D02*
Y177317D01*
X61341Y53162D02*
Y177317D01*
D94*
X213594Y162453D02*
G03*
X215041Y162453I723J0D01*
G01*
X215040Y175157D02*
G03*
X213593Y175159I-723J2D01*
G01*
X182937Y162479D02*
G03*
X184383Y162479I723J0D01*
G01*
X184382Y175182D02*
G03*
X182936Y175184I-723J2D01*
G01*
X152355Y162453D02*
G03*
X153801Y162453I723J0D01*
G01*
X153800Y175157D02*
G03*
X152354Y175159I-723J2D01*
G01*
X121825Y162479D02*
G03*
X123271Y162479I723J0D01*
G01*
X123270Y175182D02*
G03*
X121824Y175184I-723J2D01*
G01*
X120879Y160491D02*
G03*
X120879Y161937I0J723D01*
G01*
X93748Y161937D02*
G03*
X93746Y160491I-2J-723D01*
G01*
X243561Y160541D02*
G03*
X243561Y161988I0J723D01*
G01*
X216430Y161988D02*
G03*
X216428Y160541I-2J-723D01*
G01*
X212674Y160440D02*
G03*
X212674Y161886I0J723D01*
G01*
X185544Y161886D02*
G03*
X185541Y160440I-2J-723D01*
G01*
X181813Y160414D02*
G03*
X181813Y161861I0J723D01*
G01*
X154683Y161861D02*
G03*
X154680Y160414I-2J-723D01*
G01*
X151511Y160414D02*
G03*
X151511Y161861I0J723D01*
G01*
X124381Y161861D02*
G03*
X124378Y160414I-2J-723D01*
G01*
X62435Y161899D02*
G03*
X62433Y160453I-2J-723D01*
G01*
X89566Y160453D02*
G03*
X89566Y161899I0J723D01*
G01*
X92751Y175157D02*
G03*
X91305Y175159I-723J2D01*
G01*
X91306Y162453D02*
G03*
X92752Y162453I723J0D01*
G01*
X215040Y175157D02*
X215041Y162453D01*
X213593Y175159D02*
X213594Y162453D01*
X184382Y175182D02*
X184383Y162479D01*
X182936Y175184D02*
X182937Y162479D01*
X153800Y175157D02*
X153801Y162453D01*
X152354Y175159D02*
X152355Y162453D01*
X123270Y175182D02*
X123271Y162479D01*
X121824Y175184D02*
X121825Y162479D01*
X93746Y160488D02*
X120879Y160491D01*
X93748Y161937D02*
X120879Y161937D01*
X216428Y160539D02*
X243561Y160541D01*
X216430Y161988D02*
X243561Y161988D01*
X185541Y160437D02*
X212674Y160440D01*
X185544Y161886D02*
X212674Y161886D01*
X154680Y160412D02*
X181813Y160414D01*
X154683Y161861D02*
X181813Y161861D01*
X124378Y160412D02*
X151511Y160414D01*
X124381Y161861D02*
X151511Y161861D01*
X62435Y161899D02*
X89566Y161899D01*
X62433Y160450D02*
X89566Y160453D01*
X91305Y175159D02*
X91306Y162453D01*
X92751Y175157D02*
X92752Y162453D01*
D95*
X61341Y53061D02*
X245517D01*
X61341Y177546D02*
X245517D01*
Y53061D02*
Y177546D01*
X61341Y53061D02*
Y177546D01*
D96*
X61341Y53213D02*
X61341Y177546D01*
X245237Y53467D02*
X245237Y177546D01*
M02*
