G04*
G04 #@! TF.GenerationSoftware,Altium Limited,Altium Designer,21.6.4 (81)*
G04*
G04 Layer_Color=128*
%FSLAX43Y43*%
%MOMM*%
G71*
G04*
G04 #@! TF.SameCoordinates,D99C284B-08BF-42AF-8A75-C17E97AEF409*
G04*
G04*
G04 #@! TF.FilePolarity,Positive*
G04*
G01*
G75*
%ADD18C,0.762*%
%ADD19C,0.762*%
G04:AMPARAMS|DCode=23|XSize=1.607mm|YSize=0.762mm|CornerRadius=0.381mm|HoleSize=0mm|Usage=FLASHONLY|Rotation=0.000|XOffset=0mm|YOffset=0mm|HoleType=Round|Shape=RoundedRectangle|*
%AMROUNDEDRECTD23*
21,1,1.607,0.000,0,0,0.0*
21,1,0.845,0.762,0,0,0.0*
1,1,0.762,0.422,0.000*
1,1,0.762,-0.422,0.000*
1,1,0.762,-0.422,0.000*
1,1,0.762,0.422,0.000*
%
%ADD23ROUNDEDRECTD23*%
%ADD24R,1.607X0.762*%
%ADD25R,1.207X1.508*%
%ADD26R,1.505X1.556*%
%ADD27R,1.508X1.207*%
%ADD28R,1.556X1.505*%
%ADD83R,2.000X4.100*%
%ADD84R,7.500X3.000*%
%ADD85R,0.500X1.000*%
%ADD86R,1.200X1.100*%
%ADD87R,1.100X1.200*%
D18*
X238149Y110542D02*
G03*
X238076Y110211I712J-331D01*
G01*
X238306Y110766D02*
G03*
X238149Y110542I555J-555D01*
G01*
X238076Y110211D02*
G03*
X238306Y110766I786J0D01*
G01*
X179221Y143434D02*
G03*
X179221Y143434I-786J0D01*
G01*
X151691Y86944D02*
G03*
X152476Y86159I786J0D01*
G01*
D02*
G03*
X151691Y86944I0J786D01*
G01*
X157324Y155629D02*
G03*
X157554Y156185I-555J555D01*
G01*
D02*
G03*
X157549Y156273I-786J0D01*
G01*
X156743Y155399D02*
G03*
X156756Y155399I25J785D01*
G01*
X156769Y155399D02*
G03*
X157324Y155629I0J786D01*
G01*
X157549Y156273D02*
G03*
X157294Y156769I-780J-89D01*
G01*
D02*
G03*
X156915Y156956I-525J-584D01*
G01*
X156756Y155399D02*
G03*
X156769Y155399I13J785D01*
G01*
X156667Y155406D02*
G03*
X156743Y155399I102J779D01*
G01*
X155983Y156185D02*
G03*
X156667Y155406I786J0D01*
G01*
X156915Y156956D02*
G03*
X155983Y156185I-146J-772D01*
G01*
X151157Y120548D02*
G03*
X151374Y120007I786J0D01*
G01*
X151994Y119765D02*
G03*
X151157Y120548I-51J784D01*
G01*
X151374Y120007D02*
G03*
X151994Y119765I569J542D01*
G01*
X153621Y123165D02*
G03*
X153656Y122931I786J0D01*
G01*
X154407Y122379D02*
G03*
X155192Y123165I0J786D01*
G01*
D02*
G03*
X154407Y123950I-786J0D01*
G01*
D02*
G03*
X153621Y123165I0J-786D01*
G01*
X153656Y122931D02*
G03*
X154407Y122379I750J233D01*
G01*
X97536Y67606D02*
G03*
X96674Y67025I-102J-779D01*
G01*
D02*
G03*
X96649Y66840I760J-197D01*
G01*
Y66840D02*
G03*
X96649Y66827I785J-13D01*
G01*
X98216Y66907D02*
G03*
X97536Y67606I-781J-80D01*
G01*
X98220Y66827D02*
G03*
X98216Y66907I-786J0D01*
G01*
X96650Y66789D02*
G03*
X98220Y66827I785J38D01*
G01*
X96649D02*
G03*
X96650Y66789I786J0D01*
G01*
X96346Y100533D02*
G03*
X96344Y100482I784J-51D01*
G01*
X97231Y101261D02*
G03*
X96801Y101196I-102J-779D01*
G01*
D02*
G03*
X96346Y100533I329J-713D01*
G01*
X96344Y100482D02*
G03*
X97909Y100584I786J0D01*
G01*
X97861Y100768D02*
G03*
X97231Y101261I-732J-286D01*
G01*
X97909Y100584D02*
G03*
X97861Y100768I-779J-102D01*
G01*
X96820Y134506D02*
G03*
X96824Y134468I1781J167D01*
G01*
X96733Y134483D02*
G03*
X96735Y134468I1161J140D01*
G01*
D02*
G03*
X96741Y134431I1159J155D01*
G01*
X96824Y134468D02*
G03*
X96829Y134431I1777J205D01*
G01*
X96741Y134431D02*
G03*
X96831Y134137I1153J192D01*
G01*
X96829Y134431D02*
G03*
X96831Y134418I1773J241D01*
G01*
X96965Y133934D02*
G03*
X96978Y133921I577J533D01*
G01*
X96965Y133934D02*
G03*
X96978Y133921I577J533D01*
G01*
X96965Y133934D02*
G03*
X96978Y133921I577J533D01*
G01*
X96965Y133934D02*
G03*
X96978Y133921I577J533D01*
G01*
X96973Y133931D02*
G03*
X96978Y133921I1628J742D01*
G01*
X96973Y133931D02*
G03*
X96978Y133921I1628J742D01*
G01*
X96973Y133931D02*
G03*
X96978Y133921I1628J742D01*
G01*
X96973Y133931D02*
G03*
X96978Y133921I1628J742D01*
G01*
D02*
G03*
X96978Y133920I564J547D01*
G01*
X96978Y133921D02*
G03*
X96978Y133920I564J547D01*
G01*
X96978Y133921D02*
G03*
X96978Y133920I564J547D01*
G01*
X96978Y133921D02*
G03*
X96978Y133920I564J547D01*
G01*
X96978Y133921D02*
G03*
X96979Y133918I1623J752D01*
G01*
X96978Y133921D02*
G03*
X96979Y133918I1623J752D01*
G01*
X96978Y133921D02*
G03*
X96979Y133918I1623J752D01*
G01*
X97067Y135450D02*
G03*
X96924Y135253I555J-555D01*
G01*
X97067Y135450D02*
G03*
X96924Y135253I555J-555D01*
G01*
X97067Y135450D02*
G03*
X96909Y135253I827J-827D01*
G01*
X97067Y135450D02*
G03*
X96924Y135253I555J-555D01*
G01*
X97067Y135450D02*
G03*
X96924Y135253I555J-555D01*
G01*
X97067Y135450D02*
G03*
X96909Y135253I827J-827D01*
G01*
X97067Y135450D02*
G03*
X96909Y135253I827J-827D01*
G01*
X97067Y135450D02*
G03*
X96909Y135253I827J-827D01*
G01*
X98097Y135023D02*
G03*
X97542Y135253I-555J-555D01*
G01*
X96978Y133921D02*
G03*
X96979Y133918I1623J752D01*
G01*
X98253Y134801D02*
G03*
X98097Y135023I-711J-334D01*
G01*
X98326Y134509D02*
G03*
X98253Y134801I-784J-41D01*
G01*
X98327Y134468D02*
G03*
X98326Y134509I-786J0D01*
G01*
X98253Y134134D02*
G03*
X98327Y134468I-711J334D01*
G01*
X96731Y134506D02*
G03*
X96733Y134483I1163J117D01*
G01*
X96831Y134927D02*
G03*
X96820Y134506I1771J-254D01*
G01*
X96728Y134545D02*
G03*
X96731Y134506I1166J78D01*
G01*
X96831Y134137D02*
G03*
X96831Y134136I1063J486D01*
G01*
X96831Y134418D02*
G03*
X96895Y134136I1771J254D01*
G01*
X96830D02*
G03*
X96831Y134134I712J331D01*
G01*
X96895Y134136D02*
G03*
X96906Y134100I1707J536D01*
G01*
X96831Y134136D02*
G03*
X96834Y134131I1063J487D01*
G01*
X96831Y134134D02*
G03*
X96833Y134130I711J334D01*
G01*
X96834Y134131D02*
G03*
X96834Y134130I1060J492D01*
G01*
X96909Y135253D02*
G03*
X96831Y135109I985J-630D01*
G01*
D02*
G03*
X96829Y135104I1063J-486D01*
G01*
X96857Y135068D02*
G03*
X96831Y134927I1745J-396D01*
G01*
X96833Y134130D02*
G03*
X96834Y134128I709J338D01*
G01*
X96829Y135104D02*
G03*
X96728Y134545I1065J-481D01*
G01*
X97029Y133873D02*
G03*
X97037Y133866I513J595D01*
G01*
D02*
G03*
X98119Y133934I505J602D01*
G01*
X96981Y133918D02*
G03*
X96986Y133912I561J550D01*
G01*
X96924Y135253D02*
G03*
X96857Y135068I699J-359D01*
G01*
X98119Y133934D02*
G03*
X98253Y134134I-577J533D01*
G01*
X96978Y133920D02*
G03*
X96981Y133918I564J547D01*
G01*
X96906Y134100D02*
G03*
X96944Y133999I1695J572D01*
G01*
D02*
G03*
X96957Y133967I1658J673D01*
G01*
X96834Y134128D02*
G03*
X96882Y134041I708J340D01*
G01*
X96986Y133912D02*
G03*
X97029Y133873I555J555D01*
G01*
X96957Y133967D02*
G03*
X96973Y133931I1644J705D01*
G01*
X96882Y134041D02*
G03*
X96965Y133934I659J427D01*
G01*
X106885Y142164D02*
G03*
X106885Y142138I786J0D01*
G01*
D02*
G03*
X108226Y142719I785J25D01*
G01*
D02*
G03*
X106925Y142412I-555J-555D01*
G01*
D02*
G03*
X106885Y142164I745J-248D01*
G01*
X106809Y107620D02*
G03*
X107039Y107064I786J0D01*
G01*
D02*
G03*
X106809Y107620I555J555D01*
G01*
X122887Y98476D02*
G03*
X124458Y98501I786J0D01*
G01*
D02*
G03*
X122887Y98476I-785J-25D01*
G01*
X106885Y73558D02*
G03*
X107228Y72910I786J0D01*
G01*
D02*
G03*
X106885Y73558I443J649D01*
G01*
X123878Y64465D02*
G03*
X125447Y64414I786J0D01*
G01*
D02*
G03*
X125449Y64458I-784J51D01*
G01*
D02*
G03*
X123878Y64465I-785J7D01*
G01*
X140337Y68656D02*
G03*
X140337Y68642I786J0D01*
G01*
D02*
G03*
X140337Y68629I785J15D01*
G01*
X140567Y69212D02*
G03*
X140338Y68698I555J-555D01*
G01*
D02*
G03*
X140337Y68656I784J-41D01*
G01*
X141122Y67871D02*
G03*
X141124Y67871I0J786D01*
G01*
D02*
G03*
X141148Y67871I-2J786D01*
G01*
X141215Y67876D02*
G03*
X141908Y68656I-92J780D01*
G01*
X141148Y67871D02*
G03*
X141215Y67876I-25J785D01*
G01*
X141908Y68656D02*
G03*
X141908Y68663I-786J0D01*
G01*
D02*
G03*
X141148Y69441I-785J-7D01*
G01*
X140567Y68101D02*
G03*
X140998Y67881I555J555D01*
G01*
X140337Y68629D02*
G03*
X140567Y68101I785J27D01*
G01*
X141072Y69440D02*
G03*
X140567Y69212I51J-784D01*
G01*
X140998Y67881D02*
G03*
X141122Y67871I125J776D01*
G01*
X141148Y69441D02*
G03*
X141072Y69440I-25J-785D01*
G01*
X140489Y76378D02*
G03*
X141300Y75593I786J0D01*
G01*
D02*
G03*
X140489Y76378I-25J785D01*
G01*
X137187Y82804D02*
G03*
X137973Y82018I786J0D01*
G01*
D02*
G03*
X138757Y82758I0J786D01*
G01*
D02*
G03*
X137187Y82804I-784J46D01*
G01*
X144731Y83947D02*
G03*
X144731Y83942I786J0D01*
G01*
D02*
G03*
X145491Y84732I786J5D01*
G01*
D02*
G03*
X144731Y83947I25J-785D01*
G01*
X141324Y96860D02*
G03*
X140538Y97636I-785J-10D01*
G01*
X139753Y96866D02*
G03*
X139753Y96850I785J-16D01*
G01*
X140538Y97636D02*
G03*
X139753Y96866I0J-786D01*
G01*
X141324Y96850D02*
G03*
X141324Y96860I-786J0D01*
G01*
X139753Y96850D02*
G03*
X140665Y96075I786J0D01*
G01*
X141099Y96300D02*
G03*
X141324Y96850I-561J550D01*
G01*
X140665Y96075D02*
G03*
X141099Y96300I-127J775D01*
G01*
X140614Y110035D02*
G03*
X139803Y110820I-25J785D01*
G01*
D02*
G03*
X140614Y110035I786J0D01*
G01*
X136908Y116967D02*
G03*
X137693Y116181I786J0D01*
G01*
X138479Y116967D02*
G03*
X136908Y116967I-786J0D01*
G01*
X137693Y116181D02*
G03*
X138396Y116616I0J786D01*
G01*
D02*
G03*
X138479Y116967I-703J351D01*
G01*
X144503Y116856D02*
G03*
X145440Y117636I785J9D01*
G01*
D02*
G03*
X145288Y117651I-152J-771D01*
G01*
X144530Y117073D02*
G03*
X144503Y116891I758J-208D01*
G01*
X144757Y117445D02*
G03*
X144530Y117073I531J-579D01*
G01*
X145288Y117651D02*
G03*
X144757Y117445I0J-786D01*
G01*
X144502Y116865D02*
G03*
X144503Y116856I786J0D01*
G01*
X144503Y116891D02*
G03*
X144502Y116865I785J-25D01*
G01*
X144270Y129591D02*
G03*
X142699Y129591I-786J0D01*
G01*
D02*
G03*
X143184Y128865I786J0D01*
G01*
D02*
G03*
X143485Y128805I301J726D01*
G01*
D02*
G03*
X143990Y128990I0J786D01*
G01*
D02*
G03*
X144270Y129591I-506J601D01*
G01*
X140564Y143867D02*
G03*
X139778Y144653I0J786D01*
G01*
X139885Y144258D02*
G03*
X140564Y143867I679J395D01*
G01*
X139778Y144653D02*
G03*
X139885Y144258I786J0D01*
G01*
X151411Y154635D02*
G03*
X152095Y153856I786J0D01*
G01*
D02*
G03*
X152197Y153850I102J779D01*
G01*
D02*
G03*
X151411Y154635I0J786D01*
G01*
X159791Y138987D02*
G03*
X159104Y138582I0J-786D01*
G01*
Y138582D02*
G03*
X159006Y138201I687J-380D01*
G01*
D02*
G03*
X160406Y138691I786J0D01*
G01*
D02*
G03*
X159791Y138987I-615J-489D01*
G01*
X156294Y130732D02*
G03*
X155526Y129946I18J-785D01*
G01*
X157093Y130029D02*
G03*
X156294Y130732I-781J-83D01*
G01*
X155540Y129801D02*
G03*
X157093Y130029I772J146D01*
G01*
X155526Y129946D02*
G03*
X155540Y129801I786J0D01*
G01*
X160147Y106119D02*
G03*
X159361Y105334I0J-786D01*
G01*
X160147Y104548D02*
G03*
X160933Y105339I0J786D01*
G01*
D02*
G03*
X160147Y106119I-786J-5D01*
G01*
X159361Y105334D02*
G03*
X160147Y104548I786J0D01*
G01*
X155983Y97384D02*
G03*
X157554Y97384I786J0D01*
G01*
D02*
G03*
X155983Y97384I-786J0D01*
G01*
X155207Y88775D02*
G03*
X155980Y89560I-13J785D01*
G01*
D02*
G03*
X155194Y90346I-786J0D01*
G01*
D02*
G03*
X154408Y89560I0J-786D01*
G01*
D02*
G03*
X155207Y88775I786J0D01*
G01*
X155475Y65151D02*
G03*
X157040Y65049I786J0D01*
G01*
D02*
G03*
X157033Y65297I-779J102D01*
G01*
D02*
G03*
X155475Y65151I-772J-146D01*
G01*
X160809Y70841D02*
G03*
X161392Y70082I786J0D01*
G01*
X161595Y70055D02*
G03*
X162380Y70875I0J786D01*
G01*
X161392Y70082D02*
G03*
X161493Y70062I203J759D01*
G01*
X162244Y71283D02*
G03*
X160809Y70841I-649J-443D01*
G01*
X162380Y70875D02*
G03*
X162244Y71283I-785J-35D01*
G01*
X161493Y70062D02*
G03*
X161595Y70055I102J779D01*
G01*
X163527Y67793D02*
G03*
X163531Y67716I786J0D01*
G01*
D02*
G03*
X163757Y68348I782J76D01*
G01*
D02*
G03*
X163527Y67793I555J-555D01*
G01*
X163754Y77700D02*
G03*
X162968Y78486I0J786D01*
G01*
D02*
G03*
X163754Y77700I786J0D01*
G01*
X163400Y100482D02*
G03*
X164186Y101268I786J0D01*
G01*
X163476Y100820D02*
G03*
X163400Y100482I709J-337D01*
G01*
X164186Y101268D02*
G03*
X163476Y100820I0J-786D01*
G01*
X162359Y132867D02*
G03*
X163144Y133653I786J0D01*
G01*
D02*
G03*
X162372Y133009I0J-786D01*
G01*
D02*
G03*
X162359Y132885I773J-142D01*
G01*
Y132885D02*
G03*
X162359Y132867I785J-17D01*
G01*
X164412Y144907D02*
G03*
X162841Y144907I-786J0D01*
G01*
D02*
G03*
X164182Y144352I786J0D01*
G01*
D02*
G03*
X164412Y144907I-555J555D01*
G01*
X186891Y143281D02*
G03*
X186891Y143281I-786J0D01*
G01*
X237031Y149098D02*
G03*
X236932Y149454I-785J-25D01*
G01*
X237031Y149073D02*
G03*
X237031Y149098I-786J0D01*
G01*
X236932Y149454D02*
G03*
X236245Y148287I-687J-381D01*
G01*
D02*
G03*
X237031Y149073I0J786D01*
G01*
X218213Y154711D02*
G03*
X218214Y154686I786J0D01*
G01*
D02*
G03*
X218999Y153926I785J25D01*
G01*
D02*
G03*
X218213Y154711I0J786D01*
G01*
X242517Y130886D02*
G03*
X242517Y130886I-786J0D01*
G01*
X217401Y92088D02*
G03*
X217400Y92075I785J-13D01*
G01*
X218161Y91290D02*
G03*
X218972Y92075I25J785D01*
G01*
D02*
G03*
X218971Y92084I-786J0D01*
G01*
D02*
G03*
X217401Y92088I-785J-9D01*
G01*
X217400Y92075D02*
G03*
X217401Y92037I786J0D01*
G01*
D02*
G03*
X218161Y91290I785J38D01*
G01*
X217656Y94974D02*
G03*
X218224Y94744I555J555D01*
G01*
X217656Y94974D02*
G03*
X218224Y94744I555J555D01*
G01*
X218402Y96291D02*
G03*
X218224Y96315I-191J-762D01*
G01*
D02*
G03*
X218211Y96315I-13J-785D01*
G01*
X218997Y95529D02*
G03*
X218592Y96216I-786J0D01*
G01*
D02*
G03*
X218402Y96291I-381J-687D01*
G01*
X217880Y96242D02*
G03*
X217433Y95632I331J-712D01*
G01*
X218211Y96315D02*
G03*
X217880Y96242I0J-786D01*
G01*
X218224Y94744D02*
G03*
X218997Y95529I-13J785D01*
G01*
X218224Y94744D02*
G03*
X218997Y95529I-13J785D01*
G01*
X217426Y95517D02*
G03*
X217656Y94974I785J13D01*
G01*
X217433Y95632D02*
G03*
X217426Y95517I779J-103D01*
G01*
X179627Y76886D02*
G03*
X179627Y76886I-786J0D01*
G01*
X179322Y111531D02*
G03*
X179322Y111531I-786J0D01*
G01*
X186750D02*
G03*
X186750Y111531I-786J0D01*
G01*
X186821Y76601D02*
G03*
X186821Y76601I-786J0D01*
G01*
X145661Y153425D02*
G03*
X145379Y153569I-364J-364D01*
G01*
X145130Y153548D02*
G03*
X145015Y153492I167J-487D01*
G01*
X145179Y153562D02*
G03*
X145130Y153548I118J-502D01*
G01*
X145942Y153654D02*
G03*
X145889Y153771I-740J-263D01*
G01*
X145942Y153654D02*
G03*
X145889Y153771I-740J-263D01*
G01*
X145942Y153654D02*
G03*
X145889Y153771I-740J-263D01*
G01*
X145942Y153654D02*
G03*
X145889Y153771I-740J-263D01*
G01*
X145889Y153771D02*
G03*
X145758Y153946I-687J-381D01*
G01*
X145889Y153771D02*
G03*
X145758Y153946I-687J-381D01*
G01*
X144773Y154048D02*
G03*
X144758Y154038I429J-658D01*
G01*
X144758Y154038D02*
G03*
X144740Y154025I444J-648D01*
G01*
D02*
G03*
X144720Y154010I462J-635D01*
G01*
D02*
G03*
X144647Y153946I483J-620D01*
G01*
X145179Y153562D02*
G03*
X145130Y153548I118J-502D01*
G01*
X145130D02*
G03*
X145015Y153492I167J-487D01*
G01*
X145987Y153424D02*
G03*
X145942Y153654I-785J-33D01*
G01*
X145987Y153424D02*
G03*
X145942Y153654I-785J-33D01*
G01*
X145661Y153425D02*
G03*
X145379Y153569I-364J-364D01*
G01*
X145988Y153390D02*
G03*
X145987Y153424I-786J-0D01*
G01*
X145988Y153390D02*
G03*
X145987Y153424I-786J-0D01*
G01*
X144647Y153946D02*
G03*
X144603Y153898I555J-555D01*
G01*
X144647Y152835D02*
G03*
X144692Y152793I555J556D01*
G01*
X144515Y153009D02*
G03*
X144647Y152835I687J381D01*
G01*
X145889Y153009D02*
G03*
X145987Y153356I-687J381D01*
G01*
X145987Y153356D02*
G03*
X145988Y153390I-785J35D01*
G01*
X145987Y153356D02*
G03*
X145988Y153390I-785J35D01*
G01*
X144417D02*
G03*
X144515Y153009I786J0D01*
G01*
X144603Y153898D02*
G03*
X144417Y153398I599J-508D01*
G01*
D02*
G03*
X144417Y153390I785J-8D01*
G01*
X145758Y152835D02*
G03*
X145889Y153009I-555J555D01*
G01*
X145202Y152605D02*
G03*
X145758Y152835I-0J786D01*
G01*
X145379Y153569D02*
G03*
X145210Y153569I-82J-509D01*
G01*
X145379Y153569D02*
G03*
X145210Y153569I-82J-509D01*
G01*
X145210Y153569D02*
G03*
X145202Y153567I86J-508D01*
G01*
X145210Y153569D02*
G03*
X145202Y153567I86J-508D01*
G01*
X144692Y152793D02*
G03*
X145202Y152605I510J598D01*
G01*
Y153567D02*
G03*
X145179Y153562I94J-506D01*
G01*
X145202Y153567D02*
G03*
X145179Y153562I94J-506D01*
G01*
X122870Y132851D02*
G03*
X122863Y132844I555J-555D01*
G01*
X122667Y132499D02*
G03*
X122661Y132474I759J-203D01*
G01*
X122674Y132525D02*
G03*
X122667Y132499I752J-229D01*
G01*
X123401Y133081D02*
G03*
X122870Y132851I25J-785D01*
G01*
X122640Y132296D02*
G03*
X123426Y131510I786J0D01*
G01*
D02*
G03*
X124150Y131991I0J786D01*
G01*
X124205Y132194D02*
G03*
X124206Y132202I-779J102D01*
G01*
X122768Y132725D02*
G03*
X122739Y132677I658J-429D01*
G01*
D02*
G03*
X122674Y132525I687J-381D01*
G01*
X122647Y132398D02*
G03*
X122640Y132296I779J-102D01*
G01*
X124209Y132356D02*
G03*
X124150Y132601I-783J-60D01*
G01*
X124150Y132601D02*
G03*
X124113Y132677I-724J-305D01*
G01*
D02*
G03*
X123902Y132921I-687J-381D01*
G01*
X124150Y131991D02*
G03*
X124160Y132016I-724J305D01*
G01*
X123902Y132921D02*
G03*
X123426Y133081I-476J-625D01*
G01*
D02*
G03*
X123401Y133081I0J-786D01*
G01*
X124197Y132143D02*
G03*
X124201Y132169I-771J152D01*
G01*
D02*
G03*
X124205Y132194I-775J127D01*
G01*
X124160Y132016D02*
G03*
X124197Y132143I-734J279D01*
G01*
X122649Y132414D02*
G03*
X122647Y132398I777J-118D01*
G01*
X122863Y132844D02*
G03*
X122768Y132725I563J-548D01*
G01*
X122661Y132474D02*
G03*
X122649Y132414I765J-178D01*
G01*
X124206Y132202D02*
G03*
X124211Y132296I-780J94D01*
G01*
D02*
G03*
X124211Y132309I-786J0D01*
G01*
D02*
G03*
X124209Y132356I-785J-13D01*
G01*
X137257Y152935D02*
G03*
X136476Y153721I5J786D01*
G01*
D02*
G03*
X136550Y153389I786J0D01*
G01*
D02*
G03*
X137257Y152935I712J332D01*
G01*
D19*
X96981Y133918D02*
D03*
X96978Y133920D02*
D03*
X145889Y153771D02*
D03*
D03*
X144647Y152835D02*
D03*
X144993Y153619D02*
D03*
X124150Y132601D02*
D03*
D23*
X197460Y134925D02*
D03*
X197409Y138379D02*
D03*
Y141681D02*
D03*
D24*
X194109Y134925D02*
D03*
X194058Y138379D02*
D03*
Y141681D02*
D03*
D25*
X177479Y132537D02*
D03*
X175378D02*
D03*
X208518Y124841D02*
D03*
X206416D02*
D03*
X206366Y128499D02*
D03*
X208467D02*
D03*
X206391Y120726D02*
D03*
X208493D02*
D03*
D26*
X206033Y142138D02*
D03*
X207835D02*
D03*
X206084Y149860D02*
D03*
X207885D02*
D03*
X205945Y145821D02*
D03*
X207747D02*
D03*
D27*
X150774Y96901D02*
D03*
Y99003D02*
D03*
X167132Y78527D02*
D03*
Y80629D02*
D03*
X167030Y74965D02*
D03*
Y72863D02*
D03*
Y69936D02*
D03*
Y67834D02*
D03*
Y62348D02*
D03*
Y64449D02*
D03*
X166954Y96561D02*
D03*
Y98663D02*
D03*
X166980Y104353D02*
D03*
Y102251D02*
D03*
X166802Y118447D02*
D03*
Y120548D02*
D03*
Y123765D02*
D03*
Y125866D02*
D03*
X210160Y142104D02*
D03*
Y144205D02*
D03*
X178613Y116738D02*
D03*
Y114637D02*
D03*
X182194D02*
D03*
Y116738D02*
D03*
X178537Y106188D02*
D03*
Y108290D02*
D03*
X178867Y72025D02*
D03*
Y74127D02*
D03*
X178816Y81721D02*
D03*
Y79620D02*
D03*
X182245Y108299D02*
D03*
Y106197D02*
D03*
X210058Y152054D02*
D03*
Y149952D02*
D03*
X210109Y145863D02*
D03*
Y147964D02*
D03*
X166802Y131013D02*
D03*
Y134458D02*
D03*
X166751Y145202D02*
D03*
Y147304D02*
D03*
X182270Y72076D02*
D03*
Y74177D02*
D03*
X182245Y81747D02*
D03*
Y79645D02*
D03*
X151257Y66862D02*
D03*
Y64761D02*
D03*
X167132Y85566D02*
D03*
Y83464D02*
D03*
X167183Y91256D02*
D03*
Y89154D02*
D03*
X166827Y115519D02*
D03*
Y113418D02*
D03*
X166802Y107829D02*
D03*
Y109931D02*
D03*
X166751Y155810D02*
D03*
Y157912D02*
D03*
X166726Y150130D02*
D03*
Y152232D02*
D03*
X166802Y136560D02*
D03*
Y128911D02*
D03*
X178359Y138040D02*
D03*
Y140141D02*
D03*
X182169Y138192D02*
D03*
Y140294D02*
D03*
X178359Y146387D02*
D03*
Y148488D02*
D03*
X182093Y148447D02*
D03*
Y146345D02*
D03*
X166776Y139538D02*
D03*
Y141640D02*
D03*
X150597Y132013D02*
D03*
Y129912D02*
D03*
D28*
X148539Y86106D02*
D03*
Y87908D02*
D03*
X159131Y76593D02*
D03*
Y74791D02*
D03*
X147930Y118948D02*
D03*
Y120750D02*
D03*
X158369Y111250D02*
D03*
Y109449D02*
D03*
X158445Y145427D02*
D03*
Y143625D02*
D03*
X148158Y155282D02*
D03*
X163805Y137822D02*
D03*
X163119Y105982D02*
D03*
X164008Y72935D02*
D03*
Y71134D02*
D03*
X163119Y107784D02*
D03*
X163805Y139624D02*
D03*
X210795Y124753D02*
D03*
Y126555D02*
D03*
Y128487D02*
D03*
Y130288D02*
D03*
X210896Y120689D02*
D03*
Y122491D02*
D03*
X148158Y153480D02*
D03*
D83*
X151206Y80125D02*
D03*
Y71425D02*
D03*
X150673Y148800D02*
D03*
Y140100D02*
D03*
X150571Y114821D02*
D03*
Y106121D02*
D03*
X228575Y74879D02*
D03*
Y83579D02*
D03*
X228219Y106870D02*
D03*
Y115570D02*
D03*
X228295Y122320D02*
D03*
Y131020D02*
D03*
X228346Y137966D02*
D03*
Y146666D02*
D03*
D84*
X216738Y106872D02*
D03*
Y111872D02*
D03*
X217653Y151003D02*
D03*
Y146003D02*
D03*
X228549Y157262D02*
D03*
Y152262D02*
D03*
D85*
X223164Y151200D02*
D03*
Y153600D02*
D03*
D86*
X128981Y143874D02*
D03*
Y141774D02*
D03*
X144323Y65142D02*
D03*
Y67242D02*
D03*
X130150Y75497D02*
D03*
Y73397D02*
D03*
X129565Y109152D02*
D03*
Y107052D02*
D03*
D87*
X139429Y101803D02*
D03*
X141529D02*
D03*
X139209Y136906D02*
D03*
X141309D02*
D03*
M02*
