G04*
G04 #@! TF.GenerationSoftware,Altium Limited,Altium Designer,21.6.4 (81)*
G04*
G04 Layer_Color=255*
%FSLAX43Y43*%
%MOMM*%
G71*
G04*
G04 #@! TF.SameCoordinates,D99C284B-08BF-42AF-8A75-C17E97AEF409*
G04*
G04*
G04 #@! TF.FilePolarity,Positive*
G04*
G01*
G75*
%ADD20R,8.380X10.660*%
%ADD21R,3.050X1.016*%
%ADD22R,1.664X0.559*%
G04:AMPARAMS|DCode=23|XSize=1.607mm|YSize=0.762mm|CornerRadius=0.381mm|HoleSize=0mm|Usage=FLASHONLY|Rotation=0.000|XOffset=0mm|YOffset=0mm|HoleType=Round|Shape=RoundedRectangle|*
%AMROUNDEDRECTD23*
21,1,1.607,0.000,0,0,0.0*
21,1,0.845,0.762,0,0,0.0*
1,1,0.762,0.422,0.000*
1,1,0.762,-0.422,0.000*
1,1,0.762,-0.422,0.000*
1,1,0.762,0.422,0.000*
%
%ADD23ROUNDEDRECTD23*%
%ADD24R,1.607X0.762*%
%ADD25R,1.207X1.508*%
%ADD26R,1.505X1.556*%
%ADD27R,1.508X1.207*%
%ADD28R,1.556X1.505*%
%ADD29R,0.762X1.607*%
G04:AMPARAMS|DCode=30|XSize=1.607mm|YSize=0.762mm|CornerRadius=0.381mm|HoleSize=0mm|Usage=FLASHONLY|Rotation=90.000|XOffset=0mm|YOffset=0mm|HoleType=Round|Shape=RoundedRectangle|*
%AMROUNDEDRECTD30*
21,1,1.607,0.000,0,0,90.0*
21,1,0.845,0.762,0,0,90.0*
1,1,0.762,0.000,0.422*
1,1,0.762,0.000,-0.422*
1,1,0.762,0.000,-0.422*
1,1,0.762,0.000,0.422*
%
%ADD30ROUNDEDRECTD30*%
%ADD31R,0.600X0.700*%
%ADD32R,0.558X2.270*%
%ADD33R,2.000X2.000*%
%ADD34R,3.000X1.600*%
%ADD35R,6.200X5.800*%
%ADD36R,1.408X1.007*%
%ADD37R,1.350X0.950*%
%ADD38R,1.356X1.105*%
%ADD53R,1.200X1.200*%
%ADD54C,1.200*%
%ADD55R,1.200X1.200*%
%ADD58R,2.050X2.050*%
%ADD59C,2.050*%
%ADD61C,1.575*%
%ADD62R,1.575X1.575*%
%ADD63R,2.057X2.057*%
%ADD64C,2.057*%
%ADD65R,2.057X2.057*%
%ADD74O,2.000X1.000*%
%ADD75O,2.000X1.000*%
%ADD76C,1.524*%
G04:AMPARAMS|DCode=77|XSize=1.95mm|YSize=1.95mm|CornerRadius=0.488mm|HoleSize=0mm|Usage=FLASHONLY|Rotation=270.000|XOffset=0mm|YOffset=0mm|HoleType=Round|Shape=RoundedRectangle|*
%AMROUNDEDRECTD77*
21,1,1.950,0.975,0,0,270.0*
21,1,0.975,1.950,0,0,270.0*
1,1,0.975,-0.488,-0.488*
1,1,0.975,-0.488,0.488*
1,1,0.975,0.488,0.488*
1,1,0.975,0.488,-0.488*
%
%ADD77ROUNDEDRECTD77*%
%ADD78C,1.950*%
%ADD79R,1.500X1.500*%
%ADD80C,1.500*%
%ADD81C,2.000*%
D20*
X233995Y93802D02*
D03*
D21*
X223690Y97206D02*
D03*
Y95504D02*
D03*
Y93802D02*
D03*
Y92100D02*
D03*
Y90398D02*
D03*
D22*
X109137Y94666D02*
D03*
Y95936D02*
D03*
Y97206D02*
D03*
Y98476D02*
D03*
Y99746D02*
D03*
Y101016D02*
D03*
Y102286D02*
D03*
Y103556D02*
D03*
X114789D02*
D03*
Y102286D02*
D03*
Y101016D02*
D03*
Y99746D02*
D03*
Y98476D02*
D03*
Y97206D02*
D03*
Y95936D02*
D03*
Y94666D02*
D03*
X108991Y60655D02*
D03*
Y61925D02*
D03*
Y63195D02*
D03*
Y64465D02*
D03*
Y65735D02*
D03*
Y67005D02*
D03*
Y68275D02*
D03*
Y69545D02*
D03*
X114643D02*
D03*
Y68275D02*
D03*
Y67005D02*
D03*
Y65735D02*
D03*
Y64465D02*
D03*
Y63195D02*
D03*
Y61925D02*
D03*
Y60655D02*
D03*
X109188Y128499D02*
D03*
Y129769D02*
D03*
Y131039D02*
D03*
Y132309D02*
D03*
Y133579D02*
D03*
Y134849D02*
D03*
Y136119D02*
D03*
Y137389D02*
D03*
X114840D02*
D03*
Y136119D02*
D03*
Y134849D02*
D03*
Y133579D02*
D03*
Y132309D02*
D03*
Y131039D02*
D03*
Y129769D02*
D03*
Y128499D02*
D03*
D23*
X137794Y141681D02*
D03*
X137820Y147244D02*
D03*
X137973Y79477D02*
D03*
X137693Y113589D02*
D03*
D24*
X134443Y141681D02*
D03*
X134468Y147244D02*
D03*
X134622Y79477D02*
D03*
X134341Y113589D02*
D03*
D25*
X177454Y122428D02*
D03*
X175352D02*
D03*
X116272Y84099D02*
D03*
X118373D02*
D03*
X116500Y153086D02*
D03*
X118602D02*
D03*
X115891Y117983D02*
D03*
X117992D02*
D03*
X177555Y66192D02*
D03*
X175454D02*
D03*
X177565Y87376D02*
D03*
X175463D02*
D03*
X177590Y100432D02*
D03*
X175489D02*
D03*
X221428Y85369D02*
D03*
X223529D02*
D03*
X197958Y143231D02*
D03*
X200060D02*
D03*
X197857Y145872D02*
D03*
X199958D02*
D03*
X199857Y148463D02*
D03*
X197755D02*
D03*
X177505Y154127D02*
D03*
X175403D02*
D03*
X100730Y153010D02*
D03*
X98628D02*
D03*
X102683Y134468D02*
D03*
X104784D02*
D03*
X99942Y117932D02*
D03*
X97841D02*
D03*
X102546Y103505D02*
D03*
X104648D02*
D03*
X102505Y100584D02*
D03*
X104607D02*
D03*
X100187Y84099D02*
D03*
X98085D02*
D03*
X102267Y69672D02*
D03*
X104369D02*
D03*
X102292Y66853D02*
D03*
X104394D02*
D03*
X135169Y150190D02*
D03*
X137271D02*
D03*
X207509Y127457D02*
D03*
X209610D02*
D03*
X207509Y122174D02*
D03*
X209610D02*
D03*
X207509Y124790D02*
D03*
X209610D02*
D03*
X102657Y137287D02*
D03*
X104759D02*
D03*
D26*
X118489Y156108D02*
D03*
X116688D02*
D03*
X118161Y87300D02*
D03*
X116359D02*
D03*
X117856Y121031D02*
D03*
X116054D02*
D03*
D27*
X120523Y70961D02*
D03*
Y68859D02*
D03*
X130099Y70977D02*
D03*
Y68875D02*
D03*
X130277Y80610D02*
D03*
Y82712D02*
D03*
X157099Y103242D02*
D03*
Y105343D02*
D03*
X155169Y83074D02*
D03*
Y85176D02*
D03*
X148565Y83938D02*
D03*
Y86039D02*
D03*
X141326Y79416D02*
D03*
Y81518D02*
D03*
X144297Y71542D02*
D03*
Y73644D02*
D03*
X141224Y73619D02*
D03*
Y71517D02*
D03*
X157378Y71748D02*
D03*
Y69647D02*
D03*
X119837Y104683D02*
D03*
Y102581D02*
D03*
X129515Y104657D02*
D03*
Y102556D02*
D03*
X140538Y107451D02*
D03*
Y105350D02*
D03*
X143307D02*
D03*
Y107451D02*
D03*
X140640Y113656D02*
D03*
Y115757D02*
D03*
X147930Y116846D02*
D03*
Y118948D02*
D03*
X154407Y115891D02*
D03*
Y117992D02*
D03*
X154686Y150994D02*
D03*
Y153095D02*
D03*
X140386Y156150D02*
D03*
Y158251D02*
D03*
X156972Y136897D02*
D03*
Y138998D02*
D03*
X143535Y139640D02*
D03*
Y141741D02*
D03*
X140564Y141716D02*
D03*
Y139614D02*
D03*
X128930Y139379D02*
D03*
Y137278D02*
D03*
X119863Y137319D02*
D03*
Y139421D02*
D03*
X145567Y88941D02*
D03*
Y91043D02*
D03*
X141402Y88941D02*
D03*
Y91043D02*
D03*
X145288Y122231D02*
D03*
Y124333D02*
D03*
X140538Y122241D02*
D03*
Y124342D02*
D03*
X148133Y152892D02*
D03*
X140437Y147260D02*
D03*
Y149361D02*
D03*
X148133Y150790D02*
D03*
X145186Y156150D02*
D03*
Y158251D02*
D03*
X129616Y113808D02*
D03*
Y115910D02*
D03*
D28*
X123673Y69014D02*
D03*
Y70815D02*
D03*
X126924Y70776D02*
D03*
Y68975D02*
D03*
X123038Y104482D02*
D03*
Y102680D02*
D03*
X126314Y102655D02*
D03*
Y104457D02*
D03*
X228422Y141388D02*
D03*
Y139587D02*
D03*
Y144096D02*
D03*
Y145898D02*
D03*
X125908Y137453D02*
D03*
Y139255D02*
D03*
X122885D02*
D03*
Y137453D02*
D03*
D29*
X138049Y70206D02*
D03*
X137668Y103938D02*
D03*
D30*
X138049Y73558D02*
D03*
X137668Y107289D02*
D03*
D31*
X147828Y63186D02*
D03*
X146878Y65186D02*
D03*
X148778D02*
D03*
X147853Y96866D02*
D03*
X146903Y98866D02*
D03*
X148803D02*
D03*
X147904Y130496D02*
D03*
X146954Y132496D02*
D03*
X148854D02*
D03*
X82611Y170799D02*
D03*
X80711D02*
D03*
X81661Y168799D02*
D03*
X112852Y170409D02*
D03*
X110952D02*
D03*
X111902Y168409D02*
D03*
X142403Y170139D02*
D03*
X140503D02*
D03*
X141453Y168139D02*
D03*
X172720Y170104D02*
D03*
X170820D02*
D03*
X171770Y168104D02*
D03*
X203378Y169621D02*
D03*
X201478D02*
D03*
X202428Y167621D02*
D03*
X234884Y169758D02*
D03*
X232984D02*
D03*
X233934Y167758D02*
D03*
D32*
X153238Y141834D02*
D03*
X151968D02*
D03*
X150698D02*
D03*
X149428D02*
D03*
X148158D02*
D03*
X146888D02*
D03*
Y146862D02*
D03*
X148158D02*
D03*
X149428D02*
D03*
X150698D02*
D03*
X151968D02*
D03*
X154508Y141834D02*
D03*
X153238Y146862D02*
D03*
X154508D02*
D03*
X154432Y107442D02*
D03*
X153162D02*
D03*
X151892D02*
D03*
X150622D02*
D03*
X149352D02*
D03*
X148082D02*
D03*
X146812D02*
D03*
Y112470D02*
D03*
X148082D02*
D03*
X149352D02*
D03*
X150622D02*
D03*
X151892D02*
D03*
X153162D02*
D03*
X154432D02*
D03*
X155067Y73712D02*
D03*
X153797D02*
D03*
X152527D02*
D03*
X151257D02*
D03*
X149987D02*
D03*
X148717D02*
D03*
X147447D02*
D03*
Y78740D02*
D03*
X148717D02*
D03*
X149987D02*
D03*
X151257D02*
D03*
X152527D02*
D03*
X153797D02*
D03*
X155067D02*
D03*
D33*
X92456Y77819D02*
D03*
Y73819D02*
D03*
X92405Y111957D02*
D03*
Y107957D02*
D03*
X92685Y147313D02*
D03*
Y143313D02*
D03*
X71679Y70923D02*
D03*
Y74923D02*
D03*
X71374Y104731D02*
D03*
Y108731D02*
D03*
X71196Y142691D02*
D03*
Y138691D02*
D03*
D34*
X86973Y112292D02*
D03*
Y107722D02*
D03*
X86744Y78104D02*
D03*
Y73534D02*
D03*
X86952Y147624D02*
D03*
Y143054D02*
D03*
D35*
X79883Y110007D02*
D03*
X79654Y75819D02*
D03*
X79862Y145339D02*
D03*
D36*
X70053Y168696D02*
D03*
Y170597D02*
D03*
X74143D02*
D03*
Y168696D02*
D03*
X77953Y170547D02*
D03*
Y168645D02*
D03*
X108687Y170293D02*
D03*
Y168391D02*
D03*
X104978Y170369D02*
D03*
Y168467D02*
D03*
X101321Y168340D02*
D03*
Y170242D02*
D03*
X138201Y170064D02*
D03*
Y168162D02*
D03*
X134925Y170115D02*
D03*
Y168213D02*
D03*
X131597Y168188D02*
D03*
Y170089D02*
D03*
X168123Y170013D02*
D03*
Y168112D02*
D03*
X164871Y170013D02*
D03*
Y168112D02*
D03*
X161696D02*
D03*
Y170013D02*
D03*
X192761Y167604D02*
D03*
Y169505D02*
D03*
X199238Y169556D02*
D03*
Y167654D02*
D03*
X196037Y169531D02*
D03*
Y167629D02*
D03*
X223164Y167767D02*
D03*
Y169669D02*
D03*
X226593Y169683D02*
D03*
Y167781D02*
D03*
X230276Y169708D02*
D03*
Y167807D02*
D03*
D37*
X85369Y169151D02*
D03*
Y170651D02*
D03*
X176174Y168465D02*
D03*
Y169965D02*
D03*
D38*
X115799Y168920D02*
D03*
Y170322D02*
D03*
X145567Y168677D02*
D03*
Y170078D02*
D03*
X206248Y167904D02*
D03*
Y169306D02*
D03*
X237896Y168209D02*
D03*
Y169611D02*
D03*
D53*
X171425Y63602D02*
D03*
X171379Y79299D02*
D03*
X171425Y84785D02*
D03*
X171526Y97892D02*
D03*
Y114249D02*
D03*
Y119939D02*
D03*
X171648Y130124D02*
D03*
X171755Y145974D02*
D03*
X171679Y151511D02*
D03*
X212776Y94793D02*
D03*
D54*
X171425Y66142D02*
D03*
Y68682D02*
D03*
X171379Y74219D02*
D03*
Y76759D02*
D03*
X171425Y89865D02*
D03*
Y87325D02*
D03*
X171526Y102972D02*
D03*
Y100432D02*
D03*
Y109169D02*
D03*
Y111709D02*
D03*
Y125019D02*
D03*
Y122479D02*
D03*
X171648Y135204D02*
D03*
Y132664D02*
D03*
X171755Y140894D02*
D03*
Y143434D02*
D03*
X171679Y156591D02*
D03*
Y154051D02*
D03*
X123698Y73279D02*
D03*
X126238D02*
D03*
X125679Y107066D02*
D03*
X123139D02*
D03*
X212776Y89713D02*
D03*
Y92253D02*
D03*
X125578Y141757D02*
D03*
X123038D02*
D03*
D55*
X121158Y73279D02*
D03*
X120599Y107066D02*
D03*
X120498Y141757D02*
D03*
D58*
X238252Y116185D02*
D03*
X238354Y140442D02*
D03*
D59*
X238252Y118720D02*
D03*
Y121260D02*
D03*
X238354Y145517D02*
D03*
Y142977D02*
D03*
D61*
X94158Y153035D02*
D03*
X93574Y117983D02*
D03*
X93955Y84176D02*
D03*
D62*
X122860Y153035D02*
D03*
X122276Y117983D02*
D03*
X122657Y84176D02*
D03*
D63*
X241808Y105359D02*
D03*
D64*
Y83464D02*
D03*
X232842Y68986D02*
D03*
D65*
X210947D02*
D03*
D74*
X89611Y170307D02*
D03*
Y167767D02*
D03*
X119990Y170205D02*
D03*
Y167665D02*
D03*
X150470Y169951D02*
D03*
Y167411D02*
D03*
X180873Y169697D02*
D03*
Y167157D02*
D03*
X242976Y169545D02*
D03*
Y167005D02*
D03*
X211455Y169240D02*
D03*
Y166700D02*
D03*
D75*
X89611Y169037D02*
D03*
X119990Y168935D02*
D03*
X150470Y168681D02*
D03*
X180873Y168427D02*
D03*
X242976Y168275D02*
D03*
X211455Y167970D02*
D03*
D76*
X162966Y113360D02*
D03*
X238862Y110211D02*
D03*
X178435Y143434D02*
D03*
X152476Y86944D02*
D03*
X156769Y156185D02*
D03*
X151943Y120548D02*
D03*
X154407Y123165D02*
D03*
X97434Y66827D02*
D03*
X97130Y100482D02*
D03*
X97542Y134468D02*
D03*
X107671Y142164D02*
D03*
X107594Y107620D02*
D03*
X123673Y98476D02*
D03*
X107671Y73558D02*
D03*
X124663Y64465D02*
D03*
X141122Y68656D02*
D03*
X141275Y76378D02*
D03*
X137973Y82804D02*
D03*
X145517Y83947D02*
D03*
X140538Y96850D02*
D03*
X140589Y110820D02*
D03*
X137693Y116967D02*
D03*
X145288Y116865D02*
D03*
X143485Y129591D02*
D03*
X140564Y144653D02*
D03*
X152197Y154635D02*
D03*
X159791Y138201D02*
D03*
X156312Y129946D02*
D03*
X160147Y105334D02*
D03*
X156769Y97384D02*
D03*
X155194Y89560D02*
D03*
X156261Y65151D02*
D03*
X161595Y70841D02*
D03*
X164313Y67793D02*
D03*
X163754Y78486D02*
D03*
X164186Y100482D02*
D03*
X163144Y132867D02*
D03*
X163627Y144907D02*
D03*
X186106Y143281D02*
D03*
X236245Y149073D02*
D03*
X218999Y154711D02*
D03*
X241732Y130886D02*
D03*
X218186Y92075D02*
D03*
X218211Y95529D02*
D03*
X178841Y76886D02*
D03*
X178537Y111531D02*
D03*
X185965D02*
D03*
X186035Y76601D02*
D03*
X145202Y153390D02*
D03*
X123426Y132296D02*
D03*
X137262Y153721D02*
D03*
X153391Y64124D02*
D03*
Y66624D02*
D03*
X153467Y99198D02*
D03*
Y96698D02*
D03*
Y129794D02*
D03*
Y132294D02*
D03*
X114630Y74447D02*
D03*
X117130D02*
D03*
X114111Y108255D02*
D03*
X116611D02*
D03*
X113919Y143002D02*
D03*
X116419D02*
D03*
D77*
X67412Y109750D02*
D03*
X239124Y71668D02*
D03*
X67251Y143750D02*
D03*
X67581Y75881D02*
D03*
D78*
X67412Y104750D02*
D03*
X239124Y76668D02*
D03*
X67251Y138750D02*
D03*
X67581Y70881D02*
D03*
D79*
X181961Y156642D02*
D03*
X202941Y127356D02*
D03*
X182143Y135052D02*
D03*
X182118Y124943D02*
D03*
X182296Y69012D02*
D03*
X182194Y89865D02*
D03*
X182296Y102997D02*
D03*
X202844Y148412D02*
D03*
X64922Y171171D02*
D03*
X96515Y171120D02*
D03*
X126944Y170891D02*
D03*
X157475Y171450D02*
D03*
X218821Y170993D02*
D03*
X188285Y170790D02*
D03*
D80*
X181961Y154102D02*
D03*
Y151562D02*
D03*
X202941Y109576D02*
D03*
Y112116D02*
D03*
Y117196D02*
D03*
Y122276D02*
D03*
Y124816D02*
D03*
Y119736D02*
D03*
Y114656D02*
D03*
X182143Y132512D02*
D03*
Y129972D02*
D03*
X182118Y122403D02*
D03*
Y119863D02*
D03*
X182296Y66472D02*
D03*
Y63932D02*
D03*
X182194Y87325D02*
D03*
Y84785D02*
D03*
X182296Y100457D02*
D03*
Y97917D02*
D03*
X202844Y135712D02*
D03*
Y140792D02*
D03*
Y145872D02*
D03*
Y143332D02*
D03*
Y138252D02*
D03*
Y133172D02*
D03*
Y130632D02*
D03*
X64922Y166091D02*
D03*
Y168631D02*
D03*
X96515Y166040D02*
D03*
Y168580D02*
D03*
X126944Y165811D02*
D03*
Y168351D02*
D03*
X157475Y166370D02*
D03*
Y168910D02*
D03*
X218821Y165913D02*
D03*
Y168453D02*
D03*
X188285Y165710D02*
D03*
Y168250D02*
D03*
D81*
X242743Y142660D02*
D03*
X242468Y118643D02*
D03*
M02*
