G04*
G04 #@! TF.GenerationSoftware,Altium Limited,Altium Designer,21.6.4 (81)*
G04*
G04 Layer_Color=65535*
%FSLAX43Y43*%
%MOMM*%
G71*
G04*
G04 #@! TF.SameCoordinates,F52DD1F2-FE9F-4456-8C2D-F0E8507D2AE0*
G04*
G04*
G04 #@! TF.FilePolarity,Positive*
G04*
G01*
G75*
%ADD10C,0.200*%
%ADD11C,0.250*%
%ADD12C,0.254*%
%ADD13C,0.152*%
%ADD14C,0.076*%
%ADD15C,0.127*%
G36*
X107906Y68085D02*
X107652D01*
Y68466D01*
X107906D01*
Y68085D01*
D02*
G37*
G36*
X108052Y102095D02*
X107798D01*
Y102476D01*
X108052D01*
Y102095D01*
D02*
G37*
G36*
X150178Y72323D02*
Y72069D01*
X149796D01*
Y72323D01*
X150178D01*
D02*
G37*
G36*
X108102Y135928D02*
X107848D01*
Y136309D01*
X108102D01*
Y135928D01*
D02*
G37*
G36*
X149542Y106053D02*
Y105799D01*
X149161D01*
Y106053D01*
X149542D01*
D02*
G37*
G36*
X149619Y140445D02*
Y140191D01*
X149238D01*
Y140445D01*
X149619D01*
D02*
G37*
D10*
X148878Y65986D02*
G03*
X148678Y65986I-100J0D01*
G01*
D02*
G03*
X148878Y65986I100J0D01*
G01*
X148903Y99666D02*
G03*
X148703Y99666I-100J0D01*
G01*
D02*
G03*
X148903Y99666I100J0D01*
G01*
X148954Y133296D02*
G03*
X148754Y133296I-100J0D01*
G01*
D02*
G03*
X148954Y133296I100J0D01*
G01*
X171670Y170490D02*
X171870D01*
X172820Y169190D02*
X173219D01*
X170320Y169191D02*
X170720D01*
X173220Y169191D02*
Y169591D01*
X170319Y169191D02*
Y169591D01*
X233783Y170322D02*
X233983D01*
X234933Y169022D02*
X235333D01*
X232433Y169022D02*
X232833D01*
X235333Y169023D02*
Y169423D01*
X232432Y169023D02*
Y169423D01*
X202183Y170236D02*
X202383D01*
X203333Y168936D02*
X203733D01*
X200833Y168937D02*
X201233D01*
X203733Y168937D02*
Y169337D01*
X200832Y168937D02*
Y169337D01*
X141353Y169789D02*
X141553D01*
X142502Y168488D02*
X142902D01*
X140002Y168489D02*
X140402D01*
X142902Y168489D02*
Y168889D01*
X140002Y168489D02*
Y168889D01*
X81561Y170449D02*
X81761D01*
X82711Y169149D02*
X83110D01*
X80211Y169149D02*
X80611D01*
X83111Y169150D02*
Y169550D01*
X80210Y169150D02*
Y169550D01*
X111802Y170059D02*
X112002D01*
X112952Y168758D02*
X113352D01*
X110452Y168759D02*
X110852D01*
X113352Y168759D02*
Y169159D01*
X110451Y168759D02*
Y169159D01*
X140599Y72495D02*
Y72640D01*
X141849Y72495D02*
Y72640D01*
X139913Y106328D02*
Y106473D01*
X141163Y106328D02*
Y106473D01*
X139939Y140593D02*
Y140738D01*
X141189Y140593D02*
Y140738D01*
X156753Y70625D02*
Y70770D01*
X158003Y70625D02*
Y70770D01*
X156474Y104220D02*
Y104365D01*
X157724Y104220D02*
Y104365D01*
X156347Y137875D02*
Y138020D01*
X157597Y137875D02*
Y138020D01*
X167498Y169726D02*
Y169872D01*
X168748Y169726D02*
Y169872D01*
X229601Y169599D02*
Y169745D01*
X230851Y169599D02*
Y169745D01*
X198468Y169498D02*
Y169643D01*
X199718Y169498D02*
Y169643D01*
X164500Y169726D02*
Y169872D01*
X165750Y169726D02*
Y169872D01*
X226172Y169574D02*
Y169719D01*
X227422Y169574D02*
Y169719D01*
X195268Y169472D02*
Y169618D01*
X196518Y169472D02*
Y169618D01*
X162321Y169726D02*
Y169872D01*
X161071Y169726D02*
Y169872D01*
X223739Y169560D02*
Y169705D01*
X222489Y169560D02*
Y169705D01*
X193030Y169447D02*
Y169592D01*
X191780Y169447D02*
Y169592D01*
X137576Y169041D02*
Y169186D01*
X138826Y169041D02*
Y169186D01*
X77328Y169523D02*
Y169668D01*
X78578Y169523D02*
Y169668D01*
X108062Y169269D02*
Y169414D01*
X109312Y169269D02*
Y169414D01*
X134655Y169091D02*
Y169237D01*
X135905Y169091D02*
Y169237D01*
X73518Y169574D02*
Y169719D01*
X74768Y169574D02*
Y169719D01*
X104353Y169345D02*
Y169491D01*
X105603Y169345D02*
Y169491D01*
X132222Y169066D02*
Y169211D01*
X130972Y169066D02*
Y169211D01*
X70678Y169574D02*
Y169719D01*
X69428Y169574D02*
Y169719D01*
X101946Y169218D02*
Y169364D01*
X100696Y169218D02*
Y169364D01*
X117250Y83474D02*
X117395D01*
X117250Y84724D02*
X117395D01*
X99064D02*
X99209D01*
X99064Y83474D02*
X99209D01*
X116869Y117358D02*
X117014D01*
X116869Y118608D02*
X117014D01*
X98819Y118557D02*
X98964D01*
X98819Y117307D02*
X98964D01*
X208487Y126832D02*
X208632D01*
X208487Y128082D02*
X208632D01*
X208487Y124165D02*
X208632D01*
X208487Y125415D02*
X208632D01*
X208487Y121549D02*
X208632D01*
X208487Y122799D02*
X208632D01*
X117479Y152461D02*
X117624D01*
X117479Y153711D02*
X117624D01*
X99606Y153635D02*
X99752D01*
X99606Y152385D02*
X99752D01*
X198835Y146497D02*
X198980D01*
X198835Y145247D02*
X198980D01*
X198936Y143856D02*
X199082D01*
X198936Y142606D02*
X199082D01*
X198733Y149088D02*
X198878D01*
X198733Y147838D02*
X198878D01*
X144922Y72521D02*
Y72666D01*
X143672Y72521D02*
Y72666D01*
X103245Y69047D02*
X103390D01*
X103245Y70297D02*
X103390D01*
X176432Y66817D02*
X176577D01*
X176432Y65567D02*
X176577D01*
X121148Y69838D02*
Y69983D01*
X119898Y69838D02*
Y69983D01*
X130724Y69854D02*
Y69999D01*
X129474Y69854D02*
Y69999D01*
X146192Y89920D02*
Y90065D01*
X144942Y89920D02*
Y90065D01*
X149190Y84916D02*
Y85061D01*
X147940Y84916D02*
Y85061D01*
X103271Y66228D02*
X103416D01*
X103271Y67478D02*
X103416D01*
X141951Y80395D02*
Y80540D01*
X140701Y80395D02*
Y80540D01*
X142027Y89920D02*
Y90065D01*
X140777Y89920D02*
Y90065D01*
X176441Y88001D02*
X176587D01*
X176441Y86751D02*
X176587D01*
X155794Y84052D02*
Y84197D01*
X154544Y84052D02*
Y84197D01*
X143932Y106328D02*
Y106473D01*
X142682Y106328D02*
Y106473D01*
X103525Y102880D02*
X103670D01*
X103525Y104130D02*
X103670D01*
X176467Y101057D02*
X176612D01*
X176467Y99807D02*
X176612D01*
X120462Y103559D02*
Y103705D01*
X119212Y103559D02*
Y103705D01*
X130140Y103534D02*
Y103679D01*
X128890Y103534D02*
Y103679D01*
X145913Y123210D02*
Y123355D01*
X144663Y123210D02*
Y123355D01*
X148555Y117825D02*
Y117970D01*
X147305Y117825D02*
Y117970D01*
X103483Y99959D02*
X103628D01*
X103483Y101209D02*
X103628D01*
X222406Y85994D02*
X222551D01*
X222406Y84744D02*
X222551D01*
X141265Y114634D02*
Y114779D01*
X140015Y114634D02*
Y114779D01*
X141163Y123219D02*
Y123364D01*
X139913Y123219D02*
Y123364D01*
X176330Y123053D02*
X176476D01*
X176330Y121803D02*
X176476D01*
X155032Y116869D02*
Y117014D01*
X153782Y116869D02*
Y117014D01*
X144160Y140618D02*
Y140763D01*
X142910Y140618D02*
Y140763D01*
X103636Y136662D02*
X103781D01*
X103636Y137912D02*
X103781D01*
X130902Y81588D02*
Y81734D01*
X129652Y81588D02*
Y81734D01*
X130241Y114786D02*
Y114931D01*
X128991Y114786D02*
Y114931D01*
X120488Y138297D02*
Y138442D01*
X119238Y138297D02*
Y138442D01*
X129555Y138256D02*
Y138401D01*
X128305Y138256D02*
Y138401D01*
X145811Y157128D02*
Y157273D01*
X144561Y157128D02*
Y157273D01*
X148758Y151769D02*
Y151914D01*
X147508Y151769D02*
Y151914D01*
X103661Y133843D02*
X103806D01*
X103661Y135093D02*
X103806D01*
X136148Y149565D02*
X136293D01*
X136148Y150815D02*
X136293D01*
X155311Y151972D02*
Y152117D01*
X154061Y151972D02*
Y152117D01*
X141062Y148238D02*
Y148383D01*
X139812Y148238D02*
Y148383D01*
X141011Y157128D02*
Y157273D01*
X139761Y157128D02*
Y157273D01*
X176381Y154752D02*
X176526D01*
X176381Y153502D02*
X176526D01*
X148428Y63536D02*
X149278D01*
Y64586D01*
X146378Y63536D02*
X147228D01*
X146378D02*
Y64586D01*
X148453Y97216D02*
X149303D01*
Y98266D01*
X146403Y97216D02*
X147253D01*
X146403D02*
Y98266D01*
X148504Y130846D02*
X149354D01*
Y131896D01*
X146454Y130846D02*
X147304D01*
X146454D02*
Y131896D01*
X137274Y73232D02*
X137352D01*
X137274Y70532D02*
Y73232D01*
Y70532D02*
X137352D01*
X138747Y73232D02*
X138824D01*
Y70532D02*
Y73232D01*
X138747Y70532D02*
X138824D01*
X137647Y80174D02*
Y80252D01*
X134947D02*
X137647D01*
X134947Y80174D02*
Y80252D01*
X137647Y78702D02*
Y78779D01*
X134947Y78702D02*
X137647D01*
X134947D02*
Y78779D01*
X136893Y106963D02*
X136971D01*
X136893Y104263D02*
Y106963D01*
Y104263D02*
X136971D01*
X138365Y106963D02*
X138443D01*
Y104263D02*
Y106963D01*
X138365Y104263D02*
X138443D01*
X137367Y114286D02*
Y114364D01*
X134667D02*
X137367D01*
X134667Y114286D02*
Y114364D01*
X137367Y112814D02*
Y112891D01*
X134667Y112814D02*
X137367D01*
X134667D02*
Y112891D01*
X137469Y142379D02*
Y142456D01*
X134769D02*
X137469D01*
X134769Y142379D02*
Y142456D01*
X137469Y140906D02*
Y140984D01*
X134769Y140906D02*
X137469D01*
X134769D02*
Y140984D01*
X137494Y147941D02*
Y148019D01*
X134794D02*
X137494D01*
X134794Y147941D02*
Y148019D01*
X137494Y146469D02*
Y146546D01*
X134794Y146469D02*
X137494D01*
X134794D02*
Y146546D01*
X115607Y86122D02*
X118913D01*
X115607Y88478D02*
X118913D01*
X115302Y119853D02*
X118608D01*
X115302Y122209D02*
X118608D01*
X115935Y154930D02*
X119241D01*
X115935Y157286D02*
X119241D01*
X177249Y168851D02*
Y171051D01*
X175099Y168851D02*
Y171051D01*
X236721Y168571D02*
Y171077D01*
X238971Y168571D02*
Y171077D01*
X204979Y168317D02*
Y170824D01*
X207229Y168317D02*
Y170824D01*
X144442Y168125D02*
Y170631D01*
X146692Y168125D02*
Y170631D01*
X86444Y168801D02*
Y171001D01*
X84294Y168801D02*
Y171001D01*
X114674Y168368D02*
Y170874D01*
X116924Y168368D02*
Y170874D01*
X125746Y68222D02*
Y71529D01*
X128102Y68222D02*
Y71529D01*
X124851Y68261D02*
Y71568D01*
X122494Y68261D02*
Y71568D01*
X125136Y101903D02*
Y105209D01*
X127492Y101903D02*
Y105209D01*
X124216Y101928D02*
Y105234D01*
X121859Y101928D02*
Y105234D01*
X124730Y136701D02*
Y140007D01*
X127086Y136701D02*
Y140007D01*
X124063Y136701D02*
Y140007D01*
X121707Y136701D02*
Y140007D01*
X227244Y138834D02*
Y142141D01*
X229600Y138834D02*
Y142141D01*
Y143344D02*
Y146650D01*
X227244Y143344D02*
Y146650D01*
X226734Y88684D02*
X229430D01*
X226734D02*
Y98920D01*
X229430D01*
X93916Y73534D02*
Y78104D01*
X90996Y73534D02*
Y78104D01*
X91076Y76319D02*
X93836D01*
X93865Y107672D02*
Y112242D01*
X90945Y107672D02*
Y112242D01*
X91025Y110457D02*
X93785D01*
X94145Y143028D02*
Y147598D01*
X91225Y143028D02*
Y147598D01*
X91305Y145813D02*
X94065D01*
X78738Y106642D02*
X84958D01*
Y113372D01*
X78738D02*
X84958D01*
X78738Y113282D02*
Y113372D01*
Y106642D02*
Y106732D01*
X78509Y72454D02*
X84729D01*
Y79184D01*
X78509D02*
X84729D01*
X78509Y79094D02*
Y79184D01*
Y72454D02*
Y72544D01*
X70219Y70638D02*
Y75208D01*
X73139Y70638D02*
Y75208D01*
X70299Y72423D02*
X73059D01*
X69914Y104446D02*
Y109016D01*
X72834Y104446D02*
Y109016D01*
X69994Y106231D02*
X72754D01*
X69816Y140191D02*
X72576D01*
X72656Y138406D02*
Y142976D01*
X69736Y138406D02*
Y142976D01*
X78717Y141974D02*
X84937D01*
Y148704D01*
X78717D02*
X84937D01*
X78717Y148614D02*
Y148704D01*
Y141974D02*
Y142064D01*
D11*
X136968Y69646D02*
G03*
X136968Y69646I-125J0D01*
G01*
X134186Y80683D02*
G03*
X134186Y80683I-125J0D01*
G01*
X136587Y103377D02*
G03*
X136587Y103377I-125J0D01*
G01*
X133906Y114795D02*
G03*
X133906Y114795I-125J0D01*
G01*
X134007Y142887D02*
G03*
X134007Y142887I-125J0D01*
G01*
X134033Y148450D02*
G03*
X134033Y148450I-125J0D01*
G01*
X221700Y97206D02*
G03*
X221700Y97206I-125J0D01*
G01*
D12*
X113360Y73177D02*
Y75717D01*
X118440D01*
Y73177D02*
Y75717D01*
X113360Y73177D02*
X118440D01*
X112841Y106985D02*
Y109525D01*
X117921D01*
Y106985D02*
Y109525D01*
X112841Y106985D02*
X117921D01*
X112649Y141732D02*
Y144272D01*
X117729D01*
Y141732D02*
Y144272D01*
X112649Y141732D02*
X117729D01*
X152121Y67894D02*
X154661D01*
X152121Y64338D02*
Y66370D01*
Y62814D02*
X154661D01*
Y67894D01*
X152121Y66370D02*
Y67894D01*
Y62814D02*
Y64338D01*
X152197Y133564D02*
X154737D01*
X152197Y130008D02*
Y132040D01*
Y128484D02*
X154737D01*
Y133564D01*
X152197Y132040D02*
Y133564D01*
Y128484D02*
Y130008D01*
Y100468D02*
X154737D01*
X152197Y96912D02*
Y98944D01*
Y95388D02*
X154737D01*
Y100468D01*
X152197Y98944D02*
Y100468D01*
Y95388D02*
Y96912D01*
D13*
X155753Y74105D02*
Y78347D01*
X146761Y74105D02*
Y78347D01*
X155118Y107835D02*
Y112077D01*
X146126Y107835D02*
Y112077D01*
X155194Y142227D02*
Y146469D01*
X146202Y142227D02*
Y146469D01*
X109842Y93980D02*
X114084D01*
X109842Y104242D02*
X114084D01*
X109696Y59969D02*
X113938D01*
X109696Y70231D02*
X113938D01*
X109893Y127813D02*
X114135D01*
X109893Y138074D02*
X114135D01*
D14*
X156556Y79312D02*
X155710Y78465D01*
Y79312D02*
X156556Y78465D01*
X156133Y79312D02*
Y78465D01*
X155710Y78888D02*
X156556D01*
X155921Y113041D02*
X155075Y112195D01*
Y113041D02*
X155921Y112195D01*
X155498Y113041D02*
Y112195D01*
X155075Y112618D02*
X155921D01*
X155997Y147434D02*
X155151Y146587D01*
Y147434D02*
X155997Y146587D01*
X155574Y147434D02*
Y146587D01*
X155151Y147010D02*
X155997D01*
X115360Y93176D02*
X114514Y94022D01*
X115360D02*
X114514Y93176D01*
X115360Y93599D02*
X114514D01*
X114937Y94022D02*
Y93176D01*
X115214Y59165D02*
X114368Y60012D01*
X115214D02*
X114368Y59165D01*
X115214Y59589D02*
X114368D01*
X114791Y60012D02*
Y59165D01*
X115411Y127009D02*
X114565Y127855D01*
X115411D02*
X114565Y127009D01*
X115411Y127432D02*
X114565D01*
X114988Y127855D02*
Y127009D01*
D15*
X81052Y172745D02*
Y172110D01*
X81179Y171984D01*
X81432D01*
X81559Y172110D01*
Y172745D01*
X81813D02*
X82321D01*
Y172618D01*
X81813Y172110D01*
Y171984D01*
X150876Y63678D02*
Y63424D01*
Y63551D01*
X151511D01*
X151638Y63424D01*
Y63297D01*
X151511Y63170D01*
X150876Y63932D02*
Y64440D01*
X151003D01*
X151511Y63932D01*
X151638D01*
X128854Y80810D02*
X128092D01*
Y81191D01*
X128219Y81318D01*
X128473D01*
X128600Y81191D01*
Y80810D01*
Y81064D02*
X128854Y81318D01*
Y81572D02*
Y81826D01*
Y81699D01*
X128092D01*
X128219Y81572D01*
X128092Y82207D02*
Y82715D01*
X128219D01*
X128727Y82207D01*
X128854D01*
X135458Y151435D02*
Y152197D01*
X135839D01*
X135966Y152070D01*
Y151816D01*
X135839Y151689D01*
X135458D01*
X135712D02*
X135966Y151435D01*
X136728Y152197D02*
X136474Y152070D01*
X136220Y151816D01*
Y151562D01*
X136347Y151435D01*
X136601D01*
X136728Y151562D01*
Y151689D01*
X136601Y151816D01*
X136220D01*
X140259Y71235D02*
X139497D01*
Y71616D01*
X139624Y71743D01*
X139878D01*
X140005Y71616D01*
Y71235D01*
Y71489D02*
X140259Y71743D01*
Y71996D02*
Y72250D01*
Y72123D01*
X139497D01*
X139624Y71996D01*
X140259Y73139D02*
Y72631D01*
X139751Y73139D01*
X139624D01*
X139497Y73012D01*
Y72758D01*
X139624Y72631D01*
X140259Y73774D02*
X139497D01*
X139878Y73393D01*
Y73901D01*
X142316Y105068D02*
X141554D01*
Y105448D01*
X141681Y105575D01*
X141935D01*
X142062Y105448D01*
Y105068D01*
Y105321D02*
X142316Y105575D01*
Y105829D02*
Y106083D01*
Y105956D01*
X141554D01*
X141681Y105829D01*
X142316Y106972D02*
Y106464D01*
X141808Y106972D01*
X141681D01*
X141554Y106845D01*
Y106591D01*
X141681Y106464D01*
Y107226D02*
X141554Y107353D01*
Y107607D01*
X141681Y107734D01*
X141808D01*
X141935Y107607D01*
Y107480D01*
Y107607D01*
X142062Y107734D01*
X142189D01*
X142316Y107607D01*
Y107353D01*
X142189Y107226D01*
X139471Y139408D02*
X138710D01*
Y139789D01*
X138836Y139916D01*
X139090D01*
X139217Y139789D01*
Y139408D01*
Y139662D02*
X139471Y139916D01*
Y140170D02*
Y140424D01*
Y140297D01*
X138710D01*
X138836Y140170D01*
X139471Y141313D02*
Y140805D01*
X138963Y141313D01*
X138836D01*
X138710Y141186D01*
Y140932D01*
X138836Y140805D01*
X139471Y142074D02*
Y141567D01*
X138963Y142074D01*
X138836D01*
X138710Y141948D01*
Y141694D01*
X138836Y141567D01*
X156032Y69558D02*
X155270D01*
Y69939D01*
X155397Y70066D01*
X155651D01*
X155778Y69939D01*
Y69558D01*
Y69812D02*
X156032Y70066D01*
Y70320D02*
Y70574D01*
Y70447D01*
X155270D01*
X155397Y70320D01*
X156032Y71463D02*
Y70955D01*
X155524Y71463D01*
X155397D01*
X155270Y71336D01*
Y71082D01*
X155397Y70955D01*
X156032Y71717D02*
Y71971D01*
Y71844D01*
X155270D01*
X155397Y71717D01*
X156210Y103036D02*
X155448D01*
Y103416D01*
X155575Y103543D01*
X155829D01*
X155956Y103416D01*
Y103036D01*
Y103289D02*
X156210Y103543D01*
Y103797D02*
Y104051D01*
Y103924D01*
X155448D01*
X155575Y103797D01*
X156210Y104940D02*
Y104432D01*
X155702Y104940D01*
X155575D01*
X155448Y104813D01*
Y104559D01*
X155575Y104432D01*
Y105194D02*
X155448Y105321D01*
Y105575D01*
X155575Y105702D01*
X156083D01*
X156210Y105575D01*
Y105321D01*
X156083Y105194D01*
X155575D01*
X155727Y136830D02*
X154966D01*
Y137211D01*
X155092Y137338D01*
X155346D01*
X155473Y137211D01*
Y136830D01*
Y137084D02*
X155727Y137338D01*
Y137592D02*
Y137846D01*
Y137719D01*
X154966D01*
X155092Y137592D01*
X155727Y138227D02*
Y138481D01*
Y138354D01*
X154966D01*
X155092Y138227D01*
X155600Y138862D02*
X155727Y138989D01*
Y139242D01*
X155600Y139369D01*
X155092D01*
X154966Y139242D01*
Y138989D01*
X155092Y138862D01*
X155219D01*
X155346Y138989D01*
Y139369D01*
X146126Y82042D02*
X146634Y81534D01*
X146126D02*
X146634Y82042D01*
X146126Y81788D02*
X146634D01*
X146380Y81534D02*
Y82042D01*
X147396Y81407D02*
X146888D01*
X147396Y81915D01*
Y82042D01*
X147269Y82169D01*
X147015D01*
X146888Y82042D01*
X145491Y115773D02*
X145999Y115265D01*
X145491D02*
X145999Y115773D01*
X145491Y115519D02*
X145999D01*
X145745Y115265D02*
Y115773D01*
X146253Y115138D02*
X146507D01*
X146380D01*
Y115900D01*
X146253Y115773D01*
X113335Y87579D02*
X113208Y87706D01*
X112954D01*
X112827Y87579D01*
Y87071D01*
X112954Y86944D01*
X113208D01*
X113335Y87071D01*
X113589Y87579D02*
X113716Y87706D01*
X113970D01*
X114097Y87579D01*
Y87452D01*
X113970Y87325D01*
X113843D01*
X113970D01*
X114097Y87198D01*
Y87071D01*
X113970Y86944D01*
X113716D01*
X113589Y87071D01*
X114351D02*
X114478Y86944D01*
X114732D01*
X114858Y87071D01*
Y87579D01*
X114732Y87706D01*
X114478D01*
X114351Y87579D01*
Y87452D01*
X114478Y87325D01*
X114858D01*
X113157Y121564D02*
X113030Y121691D01*
X112776D01*
X112649Y121564D01*
Y121056D01*
X112776Y120930D01*
X113030D01*
X113157Y121056D01*
X113411Y121564D02*
X113538Y121691D01*
X113792D01*
X113919Y121564D01*
Y121437D01*
X113792Y121310D01*
X113665D01*
X113792D01*
X113919Y121183D01*
Y121056D01*
X113792Y120930D01*
X113538D01*
X113411Y121056D01*
X114173Y121564D02*
X114300Y121691D01*
X114554D01*
X114681Y121564D01*
Y121437D01*
X114554Y121310D01*
X114681Y121183D01*
Y121056D01*
X114554Y120930D01*
X114300D01*
X114173Y121056D01*
Y121183D01*
X114300Y121310D01*
X114173Y121437D01*
Y121564D01*
X114300Y121310D02*
X114554D01*
X113411Y156667D02*
X113284Y156794D01*
X113030D01*
X112903Y156667D01*
Y156159D01*
X113030Y156032D01*
X113284D01*
X113411Y156159D01*
X113665Y156667D02*
X113792Y156794D01*
X114046D01*
X114173Y156667D01*
Y156540D01*
X114046Y156413D01*
X113919D01*
X114046D01*
X114173Y156286D01*
Y156159D01*
X114046Y156032D01*
X113792D01*
X113665Y156159D01*
X114427Y156794D02*
X114935D01*
Y156667D01*
X114427Y156159D01*
Y156032D01*
X135687Y70930D02*
X136449D01*
Y71311D01*
X136322Y71438D01*
X135814D01*
X135687Y71311D01*
Y70930D01*
X136449Y71692D02*
Y71945D01*
Y71819D01*
X135687D01*
X135814Y71692D01*
X135687Y72834D02*
Y72326D01*
X136068D01*
X135941Y72580D01*
Y72707D01*
X136068Y72834D01*
X136322D01*
X136449Y72707D01*
Y72453D01*
X136322Y72326D01*
X135357Y105258D02*
X136118D01*
Y105639D01*
X135992Y105766D01*
X135484D01*
X135357Y105639D01*
Y105258D01*
X135992Y106020D02*
X136118Y106147D01*
Y106400D01*
X135992Y106527D01*
X135484D01*
X135357Y106400D01*
Y106147D01*
X135484Y106020D01*
X135611D01*
X135738Y106147D01*
Y106527D01*
X134747Y115671D02*
Y114910D01*
X135128D01*
X135255Y115037D01*
Y115545D01*
X135128Y115671D01*
X134747D01*
X135509D02*
X136017D01*
Y115545D01*
X135509Y115037D01*
Y114910D01*
X134455Y81788D02*
Y81026D01*
X134836D01*
X134963Y81153D01*
Y81661D01*
X134836Y81788D01*
X134455D01*
X135217Y81026D02*
X135471D01*
X135344D01*
Y81788D01*
X135217Y81661D01*
X135852D02*
X135979Y81788D01*
X136233D01*
X136360Y81661D01*
Y81534D01*
X136233Y81407D01*
X136106D01*
X136233D01*
X136360Y81280D01*
Y81153D01*
X136233Y81026D01*
X135979D01*
X135852Y81153D01*
X143256Y71374D02*
X142494D01*
Y71755D01*
X142621Y71882D01*
X142875D01*
X143002Y71755D01*
Y71374D01*
Y71628D02*
X143256Y71882D01*
X142494Y72136D02*
Y72644D01*
X142621D01*
X143129Y72136D01*
X143256D01*
Y73279D02*
X142494D01*
X142875Y72898D01*
Y73406D01*
X175438Y67717D02*
Y68478D01*
X175819D01*
X175946Y68351D01*
Y68097D01*
X175819Y67970D01*
X175438D01*
X175692D02*
X175946Y67717D01*
X176708Y68478D02*
X176454Y68351D01*
X176200Y68097D01*
Y67843D01*
X176327Y67717D01*
X176581D01*
X176708Y67843D01*
Y67970D01*
X176581Y68097D01*
X176200D01*
X176962Y68351D02*
X177089Y68478D01*
X177343D01*
X177469Y68351D01*
Y68224D01*
X177343Y68097D01*
X177469Y67970D01*
Y67843D01*
X177343Y67717D01*
X177089D01*
X176962Y67843D01*
Y67970D01*
X177089Y68097D01*
X176962Y68224D01*
Y68351D01*
X177089Y68097D02*
X177343D01*
X144450Y89129D02*
X143688D01*
Y89510D01*
X143815Y89637D01*
X144069D01*
X144196Y89510D01*
Y89129D01*
Y89383D02*
X144450Y89637D01*
X143688Y90399D02*
X143815Y90145D01*
X144069Y89891D01*
X144323D01*
X144450Y90018D01*
Y90272D01*
X144323Y90399D01*
X144196D01*
X144069Y90272D01*
Y89891D01*
X143815Y90652D02*
X143688Y90779D01*
Y91033D01*
X143815Y91160D01*
X143942D01*
X144069Y91033D01*
Y90906D01*
Y91033D01*
X144196Y91160D01*
X144323D01*
X144450Y91033D01*
Y90779D01*
X144323Y90652D01*
X175870Y155169D02*
Y155930D01*
X176251D01*
X176378Y155804D01*
Y155550D01*
X176251Y155423D01*
X175870D01*
X176124D02*
X176378Y155169D01*
X176632D02*
X176885D01*
X176758D01*
Y155930D01*
X176632Y155804D01*
X147599Y66370D02*
Y66878D01*
X147472Y67005D01*
X147219D01*
X147092Y66878D01*
Y66370D01*
X147219Y66243D01*
X147472D01*
X147346Y66497D02*
X147599Y66243D01*
X147472D02*
X147599Y66370D01*
X148361Y67005D02*
X148107Y66878D01*
X147853Y66624D01*
Y66370D01*
X147980Y66243D01*
X148234D01*
X148361Y66370D01*
Y66497D01*
X148234Y66624D01*
X147853D01*
X210820Y127178D02*
Y127940D01*
X211201D01*
X211328Y127813D01*
Y127559D01*
X211201Y127432D01*
X210820D01*
X211074D02*
X211328Y127178D01*
X211582Y127305D02*
X211709Y127178D01*
X211963D01*
X212090Y127305D01*
Y127813D01*
X211963Y127940D01*
X211709D01*
X211582Y127813D01*
Y127686D01*
X211709Y127559D01*
X212090D01*
X212344Y127178D02*
X212598D01*
X212471D01*
Y127940D01*
X212344Y127813D01*
X210871Y124435D02*
Y125196D01*
X211252D01*
X211379Y125070D01*
Y124816D01*
X211252Y124689D01*
X210871D01*
X211125D02*
X211379Y124435D01*
X211633Y124562D02*
X211760Y124435D01*
X212014D01*
X212141Y124562D01*
Y125070D01*
X212014Y125196D01*
X211760D01*
X211633Y125070D01*
Y124943D01*
X211760Y124816D01*
X212141D01*
X212395Y125070D02*
X212522Y125196D01*
X212776D01*
X212902Y125070D01*
Y124562D01*
X212776Y124435D01*
X212522D01*
X212395Y124562D01*
Y125070D01*
X210668Y121666D02*
Y122428D01*
X211049D01*
X211176Y122301D01*
Y122047D01*
X211049Y121920D01*
X210668D01*
X210922D02*
X211176Y121666D01*
X211430Y122301D02*
X211557Y122428D01*
X211811D01*
X211938Y122301D01*
Y122174D01*
X211811Y122047D01*
X211938Y121920D01*
Y121793D01*
X211811Y121666D01*
X211557D01*
X211430Y121793D01*
Y121920D01*
X211557Y122047D01*
X211430Y122174D01*
Y122301D01*
X211557Y122047D02*
X211811D01*
X212191Y121793D02*
X212318Y121666D01*
X212572D01*
X212699Y121793D01*
Y122301D01*
X212572Y122428D01*
X212318D01*
X212191Y122301D01*
Y122174D01*
X212318Y122047D01*
X212699D01*
X194412Y145491D02*
Y146253D01*
X194793D01*
X194920Y146126D01*
Y145872D01*
X194793Y145745D01*
X194412D01*
X194666D02*
X194920Y145491D01*
X195174Y146126D02*
X195301Y146253D01*
X195555D01*
X195682Y146126D01*
Y145999D01*
X195555Y145872D01*
X195682Y145745D01*
Y145618D01*
X195555Y145491D01*
X195301D01*
X195174Y145618D01*
Y145745D01*
X195301Y145872D01*
X195174Y145999D01*
Y146126D01*
X195301Y145872D02*
X195555D01*
X196443Y145491D02*
X195935D01*
X196443Y145999D01*
Y146126D01*
X196316Y146253D01*
X196062D01*
X195935Y146126D01*
X194666Y143002D02*
Y143764D01*
X195047D01*
X195174Y143637D01*
Y143383D01*
X195047Y143256D01*
X194666D01*
X194920D02*
X195174Y143002D01*
X195428Y143637D02*
X195555Y143764D01*
X195809D01*
X195935Y143637D01*
Y143510D01*
X195809Y143383D01*
X195935Y143256D01*
Y143129D01*
X195809Y143002D01*
X195555D01*
X195428Y143129D01*
Y143256D01*
X195555Y143383D01*
X195428Y143510D01*
Y143637D01*
X195555Y143383D02*
X195809D01*
X196189Y143002D02*
X196443D01*
X196316D01*
Y143764D01*
X196189Y143637D01*
X194361Y148108D02*
Y148869D01*
X194742D01*
X194869Y148742D01*
Y148488D01*
X194742Y148361D01*
X194361D01*
X194615D02*
X194869Y148108D01*
X195123Y148742D02*
X195250Y148869D01*
X195504D01*
X195631Y148742D01*
Y148615D01*
X195504Y148488D01*
X195631Y148361D01*
Y148234D01*
X195504Y148108D01*
X195250D01*
X195123Y148234D01*
Y148361D01*
X195250Y148488D01*
X195123Y148615D01*
Y148742D01*
X195250Y148488D02*
X195504D01*
X195885Y148742D02*
X196012Y148869D01*
X196266D01*
X196392Y148742D01*
Y148234D01*
X196266Y148108D01*
X196012D01*
X195885Y148234D01*
Y148742D01*
X147676Y87427D02*
Y88189D01*
X148057D01*
X148184Y88062D01*
Y87808D01*
X148057Y87681D01*
X147676D01*
X147930D02*
X148184Y87427D01*
X148946Y88189D02*
X148692Y88062D01*
X148438Y87808D01*
Y87554D01*
X148565Y87427D01*
X148819D01*
X148946Y87554D01*
Y87681D01*
X148819Y87808D01*
X148438D01*
X149707Y87427D02*
X149199D01*
X149707Y87935D01*
Y88062D01*
X149580Y88189D01*
X149326D01*
X149199Y88062D01*
X140208Y79528D02*
X139446D01*
Y79909D01*
X139573Y80036D01*
X139827D01*
X139954Y79909D01*
Y79528D01*
Y79782D02*
X140208Y80036D01*
X139446Y80797D02*
Y80289D01*
X139827D01*
X139700Y80543D01*
Y80670D01*
X139827Y80797D01*
X140081D01*
X140208Y80670D01*
Y80416D01*
X140081Y80289D01*
X139573Y81051D02*
X139446Y81178D01*
Y81432D01*
X139573Y81559D01*
X139700D01*
X139827Y81432D01*
X139954Y81559D01*
X140081D01*
X140208Y81432D01*
Y81178D01*
X140081Y81051D01*
X139954D01*
X139827Y81178D01*
X139700Y81051D01*
X139573D01*
X139827Y81178D02*
Y81432D01*
X139954Y89078D02*
X139192D01*
Y89459D01*
X139319Y89586D01*
X139573D01*
X139700Y89459D01*
Y89078D01*
Y89332D02*
X139954Y89586D01*
X139192Y90348D02*
Y89840D01*
X139573D01*
X139446Y90094D01*
Y90221D01*
X139573Y90348D01*
X139827D01*
X139954Y90221D01*
Y89967D01*
X139827Y89840D01*
X139192Y90602D02*
Y91109D01*
X139319D01*
X139827Y90602D01*
X139954D01*
X175184Y88976D02*
Y89738D01*
X175565D01*
X175692Y89611D01*
Y89357D01*
X175565Y89230D01*
X175184D01*
X175438D02*
X175692Y88976D01*
X176454Y89738D02*
X175946D01*
Y89357D01*
X176200Y89484D01*
X176327D01*
X176454Y89357D01*
Y89103D01*
X176327Y88976D01*
X176073D01*
X175946Y89103D01*
X177215Y89738D02*
X176708D01*
Y89357D01*
X176962Y89484D01*
X177089D01*
X177215Y89357D01*
Y89103D01*
X177089Y88976D01*
X176835D01*
X176708Y89103D01*
X154102Y83084D02*
X153340D01*
Y83465D01*
X153467Y83592D01*
X153721D01*
X153848Y83465D01*
Y83084D01*
Y83338D02*
X154102Y83592D01*
X153340Y84353D02*
Y83845D01*
X153721D01*
X153594Y84099D01*
Y84226D01*
X153721Y84353D01*
X153975D01*
X154102Y84226D01*
Y83972D01*
X153975Y83845D01*
X154102Y84988D02*
X153340D01*
X153721Y84607D01*
Y85115D01*
X145135Y105410D02*
X144374D01*
Y105791D01*
X144501Y105918D01*
X144755D01*
X144882Y105791D01*
Y105410D01*
Y105664D02*
X145135Y105918D01*
Y106553D02*
X144374D01*
X144755Y106172D01*
Y106680D01*
X144501Y106934D02*
X144374Y107061D01*
Y107315D01*
X144501Y107442D01*
X144628D01*
X144755Y107315D01*
X144882Y107442D01*
X145009D01*
X145135Y107315D01*
Y107061D01*
X145009Y106934D01*
X144882D01*
X144755Y107061D01*
X144628Y106934D01*
X144501D01*
X144755Y107061D02*
Y107315D01*
X175438Y101905D02*
Y102667D01*
X175819D01*
X175946Y102540D01*
Y102286D01*
X175819Y102159D01*
X175438D01*
X175692D02*
X175946Y101905D01*
X176581D02*
Y102667D01*
X176200Y102286D01*
X176708D01*
X177469Y101905D02*
X176962D01*
X177469Y102413D01*
Y102540D01*
X177343Y102667D01*
X177089D01*
X176962Y102540D01*
X143916Y122276D02*
X143155D01*
Y122657D01*
X143281Y122784D01*
X143535D01*
X143662Y122657D01*
Y122276D01*
Y122530D02*
X143916Y122784D01*
X143281Y123038D02*
X143155Y123165D01*
Y123419D01*
X143281Y123546D01*
X143408D01*
X143535Y123419D01*
Y123292D01*
Y123419D01*
X143662Y123546D01*
X143789D01*
X143916Y123419D01*
Y123165D01*
X143789Y123038D01*
X143155Y123799D02*
Y124307D01*
X143281D01*
X143789Y123799D01*
X143916D01*
X149631Y116536D02*
X148870D01*
Y116916D01*
X148996Y117043D01*
X149250D01*
X149377Y116916D01*
Y116536D01*
Y116789D02*
X149631Y117043D01*
X148996Y117297D02*
X148870Y117424D01*
Y117678D01*
X148996Y117805D01*
X149123D01*
X149250Y117678D01*
Y117551D01*
Y117678D01*
X149377Y117805D01*
X149504D01*
X149631Y117678D01*
Y117424D01*
X149504Y117297D01*
X148870Y118567D02*
X148996Y118313D01*
X149250Y118059D01*
X149504D01*
X149631Y118186D01*
Y118440D01*
X149504Y118567D01*
X149377D01*
X149250Y118440D01*
Y118059D01*
X142824Y113919D02*
X142062D01*
Y114300D01*
X142189Y114427D01*
X142443D01*
X142570Y114300D01*
Y113919D01*
Y114173D02*
X142824Y114427D01*
X142189Y114681D02*
X142062Y114808D01*
Y115062D01*
X142189Y115189D01*
X142316D01*
X142443Y115062D01*
Y114935D01*
Y115062D01*
X142570Y115189D01*
X142697D01*
X142824Y115062D01*
Y114808D01*
X142697Y114681D01*
X142824Y115443D02*
Y115697D01*
Y115570D01*
X142062D01*
X142189Y115443D01*
X139141Y122149D02*
X138379D01*
Y122530D01*
X138506Y122657D01*
X138760D01*
X138887Y122530D01*
Y122149D01*
Y122403D02*
X139141Y122657D01*
X138506Y122911D02*
X138379Y123038D01*
Y123292D01*
X138506Y123419D01*
X138633D01*
X138760Y123292D01*
Y123165D01*
Y123292D01*
X138887Y123419D01*
X139014D01*
X139141Y123292D01*
Y123038D01*
X139014Y122911D01*
X138506Y123672D02*
X138379Y123799D01*
Y124053D01*
X138506Y124180D01*
X139014D01*
X139141Y124053D01*
Y123799D01*
X139014Y123672D01*
X138506D01*
X175337Y123876D02*
Y124638D01*
X175717D01*
X175844Y124511D01*
Y124257D01*
X175717Y124130D01*
X175337D01*
X175590D02*
X175844Y123876D01*
X176606D02*
X176098D01*
X176606Y124384D01*
Y124511D01*
X176479Y124638D01*
X176225D01*
X176098Y124511D01*
X176860D02*
X176987Y124638D01*
X177241D01*
X177368Y124511D01*
Y124384D01*
X177241Y124257D01*
X177368Y124130D01*
Y124003D01*
X177241Y123876D01*
X176987D01*
X176860Y124003D01*
Y124130D01*
X176987Y124257D01*
X176860Y124384D01*
Y124511D01*
X176987Y124257D02*
X177241D01*
X156464Y115875D02*
X155702D01*
Y116256D01*
X155829Y116383D01*
X156083D01*
X156210Y116256D01*
Y115875D01*
Y116129D02*
X156464Y116383D01*
Y117145D02*
Y116637D01*
X155956Y117145D01*
X155829D01*
X155702Y117018D01*
Y116764D01*
X155829Y116637D01*
X155702Y117399D02*
Y117906D01*
X155829D01*
X156337Y117399D01*
X156464D01*
X142519Y140056D02*
X141758D01*
Y140437D01*
X141884Y140564D01*
X142138D01*
X142265Y140437D01*
Y140056D01*
Y140310D02*
X142519Y140564D01*
Y141325D02*
Y140818D01*
X142011Y141325D01*
X141884D01*
X141758Y141199D01*
Y140945D01*
X141884Y140818D01*
X142519Y141579D02*
Y141833D01*
Y141706D01*
X141758D01*
X141884Y141579D01*
X153568Y151638D02*
X152807D01*
Y152019D01*
X152933Y152146D01*
X153187D01*
X153314Y152019D01*
Y151638D01*
Y151892D02*
X153568Y152146D01*
X152807Y152908D02*
Y152400D01*
X153187D01*
X153060Y152654D01*
Y152781D01*
X153187Y152908D01*
X153441D01*
X153568Y152781D01*
Y152527D01*
X153441Y152400D01*
X147320Y100406D02*
Y100914D01*
X147193Y101041D01*
X146939D01*
X146812Y100914D01*
Y100406D01*
X146939Y100279D01*
X147193D01*
X147066Y100533D02*
X147320Y100279D01*
X147193D02*
X147320Y100406D01*
X147955Y100279D02*
Y101041D01*
X147574Y100660D01*
X148082D01*
X147777Y133655D02*
Y134163D01*
X147650Y134290D01*
X147396D01*
X147269Y134163D01*
Y133655D01*
X147396Y133528D01*
X147650D01*
X147523Y133782D02*
X147777Y133528D01*
X147650D02*
X147777Y133655D01*
X148539Y133528D02*
X148031D01*
X148539Y134036D01*
Y134163D01*
X148412Y134290D01*
X148158D01*
X148031Y134163D01*
X150927Y131394D02*
Y131140D01*
Y131267D01*
X151562D01*
X151689Y131140D01*
Y131013D01*
X151562Y130886D01*
X150927Y132156D02*
X151054Y131902D01*
X151308Y131648D01*
X151562D01*
X151689Y131775D01*
Y132029D01*
X151562Y132156D01*
X151435D01*
X151308Y132029D01*
Y131648D01*
X150825Y97739D02*
Y97485D01*
Y97612D01*
X151460D01*
X151587Y97485D01*
Y97358D01*
X151460Y97231D01*
X150952Y97993D02*
X150825Y98120D01*
Y98374D01*
X150952Y98501D01*
X151079D01*
X151206Y98374D01*
Y98247D01*
Y98374D01*
X151333Y98501D01*
X151460D01*
X151587Y98374D01*
Y98120D01*
X151460Y97993D01*
X175616Y172187D02*
X175489Y172060D01*
Y171806D01*
X175616Y171679D01*
X176124D01*
X176250Y171806D01*
Y172060D01*
X176124Y172187D01*
X175616Y172441D02*
X175489Y172568D01*
Y172822D01*
X175616Y172949D01*
X175743D01*
X175870Y172822D01*
Y172695D01*
Y172822D01*
X175997Y172949D01*
X176124D01*
X176250Y172822D01*
Y172568D01*
X176124Y172441D01*
X175489Y173710D02*
X175616Y173456D01*
X175870Y173202D01*
X176124D01*
X176250Y173329D01*
Y173583D01*
X176124Y173710D01*
X175997D01*
X175870Y173583D01*
Y173202D01*
X170688Y173635D02*
X169926D01*
Y174016D01*
X170053Y174143D01*
X170307D01*
X170434Y174016D01*
Y173635D01*
Y173889D02*
X170688Y174143D01*
Y174397D02*
Y174650D01*
Y174524D01*
X169926D01*
X170053Y174397D01*
X170688Y175031D02*
Y175285D01*
Y175158D01*
X169926D01*
X170053Y175031D01*
Y175666D02*
X169926Y175793D01*
Y176047D01*
X170053Y176174D01*
X170180D01*
X170307Y176047D01*
X170434Y176174D01*
X170561D01*
X170688Y176047D01*
Y175793D01*
X170561Y175666D01*
X170434D01*
X170307Y175793D01*
X170180Y175666D01*
X170053D01*
X170307Y175793D02*
Y176047D01*
X232308Y173254D02*
X231547D01*
Y173635D01*
X231673Y173762D01*
X231927D01*
X232054Y173635D01*
Y173254D01*
Y173508D02*
X232308Y173762D01*
Y174016D02*
Y174269D01*
Y174143D01*
X231547D01*
X231673Y174016D01*
X232308Y174650D02*
Y174904D01*
Y174777D01*
X231547D01*
X231673Y174650D01*
X231547Y175285D02*
Y175793D01*
X231673D01*
X232181Y175285D01*
X232308D01*
X200965Y172390D02*
X200203D01*
Y172771D01*
X200330Y172898D01*
X200584D01*
X200711Y172771D01*
Y172390D01*
Y172644D02*
X200965Y172898D01*
Y173152D02*
Y173406D01*
Y173279D01*
X200203D01*
X200330Y173152D01*
X200965Y173787D02*
Y174041D01*
Y173914D01*
X200203D01*
X200330Y173787D01*
X200203Y174929D02*
X200330Y174675D01*
X200584Y174422D01*
X200838D01*
X200965Y174549D01*
Y174802D01*
X200838Y174929D01*
X200711D01*
X200584Y174802D01*
Y174422D01*
X164312Y172416D02*
X163551D01*
Y172796D01*
X163678Y172923D01*
X163932D01*
X164059Y172796D01*
Y172416D01*
Y172670D02*
X164312Y172923D01*
Y173177D02*
Y173431D01*
Y173304D01*
X163551D01*
X163678Y173177D01*
X164312Y173812D02*
Y174066D01*
Y173939D01*
X163551D01*
X163678Y173812D01*
X163551Y174955D02*
Y174447D01*
X163932D01*
X163805Y174701D01*
Y174828D01*
X163932Y174955D01*
X164186D01*
X164312Y174828D01*
Y174574D01*
X164186Y174447D01*
X226060Y172085D02*
X225298D01*
Y172466D01*
X225425Y172593D01*
X225679D01*
X225806Y172466D01*
Y172085D01*
Y172339D02*
X226060Y172593D01*
Y172847D02*
Y173101D01*
Y172974D01*
X225298D01*
X225425Y172847D01*
X226060Y173482D02*
Y173736D01*
Y173609D01*
X225298D01*
X225425Y173482D01*
X226060Y174498D02*
X225298D01*
X225679Y174117D01*
Y174625D01*
X194767Y172085D02*
X194005D01*
Y172466D01*
X194132Y172593D01*
X194386D01*
X194513Y172466D01*
Y172085D01*
Y172339D02*
X194767Y172593D01*
Y172847D02*
Y173101D01*
Y172974D01*
X194005D01*
X194132Y172847D01*
X194767Y173482D02*
Y173736D01*
Y173609D01*
X194005D01*
X194132Y173482D01*
Y174117D02*
X194005Y174244D01*
Y174498D01*
X194132Y174625D01*
X194259D01*
X194386Y174498D01*
Y174371D01*
Y174498D01*
X194513Y174625D01*
X194640D01*
X194767Y174498D01*
Y174244D01*
X194640Y174117D01*
X161595Y171984D02*
X160833D01*
Y172365D01*
X160960Y172492D01*
X161214D01*
X161341Y172365D01*
Y171984D01*
Y172238D02*
X161595Y172492D01*
Y172746D02*
Y172999D01*
Y172873D01*
X160833D01*
X160960Y172746D01*
X161595Y173380D02*
Y173634D01*
Y173507D01*
X160833D01*
X160960Y173380D01*
X161595Y174523D02*
Y174015D01*
X161087Y174523D01*
X160960D01*
X160833Y174396D01*
Y174142D01*
X160960Y174015D01*
X223037Y171857D02*
X222276D01*
Y172238D01*
X222402Y172365D01*
X222656D01*
X222783Y172238D01*
Y171857D01*
Y172111D02*
X223037Y172365D01*
Y172619D02*
Y172872D01*
Y172745D01*
X222276D01*
X222402Y172619D01*
X223037Y173253D02*
Y173507D01*
Y173380D01*
X222276D01*
X222402Y173253D01*
X223037Y173888D02*
Y174142D01*
Y174015D01*
X222276D01*
X222402Y173888D01*
X192354Y171984D02*
X191592D01*
Y172365D01*
X191719Y172492D01*
X191973D01*
X192100Y172365D01*
Y171984D01*
Y172238D02*
X192354Y172492D01*
Y172746D02*
Y172999D01*
Y172873D01*
X191592D01*
X191719Y172746D01*
X192354Y173380D02*
Y173634D01*
Y173507D01*
X191592D01*
X191719Y173380D01*
Y174015D02*
X191592Y174142D01*
Y174396D01*
X191719Y174523D01*
X192227D01*
X192354Y174396D01*
Y174142D01*
X192227Y174015D01*
X191719D01*
X140462Y173165D02*
X139700D01*
Y173546D01*
X139827Y173673D01*
X140081D01*
X140208Y173546D01*
Y173165D01*
Y173419D02*
X140462Y173673D01*
Y173927D02*
Y174181D01*
Y174054D01*
X139700D01*
X139827Y173927D01*
Y174561D02*
X139700Y174688D01*
Y174942D01*
X139827Y175069D01*
X140335D01*
X140462Y174942D01*
Y174688D01*
X140335Y174561D01*
X139827D01*
X140335Y175323D02*
X140462Y175450D01*
Y175704D01*
X140335Y175831D01*
X139827D01*
X139700Y175704D01*
Y175450D01*
X139827Y175323D01*
X139954D01*
X140081Y175450D01*
Y175831D01*
X79705Y172657D02*
X78943D01*
Y173038D01*
X79070Y173165D01*
X79324D01*
X79451Y173038D01*
Y172657D01*
Y172911D02*
X79705Y173165D01*
Y173419D02*
Y173673D01*
Y173546D01*
X78943D01*
X79070Y173419D01*
Y174053D02*
X78943Y174180D01*
Y174434D01*
X79070Y174561D01*
X79578D01*
X79705Y174434D01*
Y174180D01*
X79578Y174053D01*
X79070D01*
Y174815D02*
X78943Y174942D01*
Y175196D01*
X79070Y175323D01*
X79197D01*
X79324Y175196D01*
X79451Y175323D01*
X79578D01*
X79705Y175196D01*
Y174942D01*
X79578Y174815D01*
X79451D01*
X79324Y174942D01*
X79197Y174815D01*
X79070D01*
X79324Y174942D02*
Y175196D01*
X110464Y172733D02*
X109703D01*
Y173114D01*
X109830Y173241D01*
X110084D01*
X110211Y173114D01*
Y172733D01*
Y172987D02*
X110464Y173241D01*
Y173495D02*
Y173749D01*
Y173622D01*
X109703D01*
X109830Y173495D01*
Y174130D02*
X109703Y174257D01*
Y174511D01*
X109830Y174638D01*
X110338D01*
X110464Y174511D01*
Y174257D01*
X110338Y174130D01*
X109830D01*
X109703Y174891D02*
Y175399D01*
X109830D01*
X110338Y174891D01*
X110464D01*
X134391Y171590D02*
X133630D01*
Y171971D01*
X133756Y172098D01*
X134010D01*
X134137Y171971D01*
Y171590D01*
Y171844D02*
X134391Y172098D01*
Y172352D02*
Y172606D01*
Y172479D01*
X133630D01*
X133756Y172352D01*
Y172987D02*
X133630Y173114D01*
Y173368D01*
X133756Y173495D01*
X134264D01*
X134391Y173368D01*
Y173114D01*
X134264Y172987D01*
X133756D01*
X133630Y174256D02*
X133756Y174002D01*
X134010Y173748D01*
X134264D01*
X134391Y173875D01*
Y174129D01*
X134264Y174256D01*
X134137D01*
X134010Y174129D01*
Y173748D01*
X72161Y164072D02*
X71400D01*
Y164453D01*
X71526Y164580D01*
X71780D01*
X71907Y164453D01*
Y164072D01*
Y164326D02*
X72161Y164580D01*
Y164833D02*
Y165087D01*
Y164960D01*
X71400D01*
X71526Y164833D01*
Y165468D02*
X71400Y165595D01*
Y165849D01*
X71526Y165976D01*
X72034D01*
X72161Y165849D01*
Y165595D01*
X72034Y165468D01*
X71526D01*
X71400Y166738D02*
Y166230D01*
X71780D01*
X71653Y166484D01*
Y166611D01*
X71780Y166738D01*
X72034D01*
X72161Y166611D01*
Y166357D01*
X72034Y166230D01*
X104292Y171641D02*
X103531D01*
Y172022D01*
X103657Y172149D01*
X103911D01*
X104038Y172022D01*
Y171641D01*
Y171895D02*
X104292Y172149D01*
Y172403D02*
Y172657D01*
Y172530D01*
X103531D01*
X103657Y172403D01*
Y173037D02*
X103531Y173164D01*
Y173418D01*
X103657Y173545D01*
X104165D01*
X104292Y173418D01*
Y173164D01*
X104165Y173037D01*
X103657D01*
X104292Y174180D02*
X103531D01*
X103911Y173799D01*
Y174307D01*
X131597Y171184D02*
X130836D01*
Y171565D01*
X130962Y171692D01*
X131216D01*
X131343Y171565D01*
Y171184D01*
Y171438D02*
X131597Y171692D01*
Y171945D02*
Y172199D01*
Y172072D01*
X130836D01*
X130962Y171945D01*
Y172580D02*
X130836Y172707D01*
Y172961D01*
X130962Y173088D01*
X131470D01*
X131597Y172961D01*
Y172707D01*
X131470Y172580D01*
X130962D01*
Y173342D02*
X130836Y173469D01*
Y173723D01*
X130962Y173850D01*
X131089D01*
X131216Y173723D01*
Y173596D01*
Y173723D01*
X131343Y173850D01*
X131470D01*
X131597Y173723D01*
Y173469D01*
X131470Y173342D01*
X70307Y171946D02*
X69545D01*
Y172327D01*
X69672Y172454D01*
X69926D01*
X70053Y172327D01*
Y171946D01*
Y172200D02*
X70307Y172454D01*
Y172707D02*
Y172961D01*
Y172834D01*
X69545D01*
X69672Y172707D01*
Y173342D02*
X69545Y173469D01*
Y173723D01*
X69672Y173850D01*
X70180D01*
X70307Y173723D01*
Y173469D01*
X70180Y173342D01*
X69672D01*
X70307Y174612D02*
Y174104D01*
X69799Y174612D01*
X69672D01*
X69545Y174485D01*
Y174231D01*
X69672Y174104D01*
X101473Y171285D02*
X100711D01*
Y171666D01*
X100838Y171793D01*
X101092D01*
X101219Y171666D01*
Y171285D01*
Y171539D02*
X101473Y171793D01*
Y172047D02*
Y172301D01*
Y172174D01*
X100711D01*
X100838Y172047D01*
Y172682D02*
X100711Y172809D01*
Y173063D01*
X100838Y173190D01*
X101346D01*
X101473Y173063D01*
Y172809D01*
X101346Y172682D01*
X100838D01*
X101473Y173444D02*
Y173698D01*
Y173571D01*
X100711D01*
X100838Y173444D01*
X236957Y172517D02*
X236830Y172390D01*
Y172136D01*
X236957Y172009D01*
X237465D01*
X237591Y172136D01*
Y172390D01*
X237465Y172517D01*
X236957Y172771D02*
X236830Y172898D01*
Y173152D01*
X236957Y173279D01*
X237084D01*
X237211Y173152D01*
Y173025D01*
Y173152D01*
X237338Y173279D01*
X237465D01*
X237591Y173152D01*
Y172898D01*
X237465Y172771D01*
X236830Y174040D02*
Y173533D01*
X237211D01*
X237084Y173787D01*
Y173914D01*
X237211Y174040D01*
X237465D01*
X237591Y173914D01*
Y173660D01*
X237465Y173533D01*
X205138Y172161D02*
X205012Y172034D01*
Y171780D01*
X205138Y171654D01*
X205646D01*
X205773Y171780D01*
Y172034D01*
X205646Y172161D01*
X205138Y172415D02*
X205012Y172542D01*
Y172796D01*
X205138Y172923D01*
X205265D01*
X205392Y172796D01*
Y172669D01*
Y172796D01*
X205519Y172923D01*
X205646D01*
X205773Y172796D01*
Y172542D01*
X205646Y172415D01*
X205773Y173558D02*
X205012D01*
X205392Y173177D01*
Y173685D01*
X144577Y171780D02*
X144450Y171653D01*
Y171399D01*
X144577Y171273D01*
X145085D01*
X145212Y171399D01*
Y171653D01*
X145085Y171780D01*
X144577Y172034D02*
X144450Y172161D01*
Y172415D01*
X144577Y172542D01*
X144704D01*
X144831Y172415D01*
Y172288D01*
Y172415D01*
X144958Y172542D01*
X145085D01*
X145212Y172415D01*
Y172161D01*
X145085Y172034D01*
X144577Y172796D02*
X144450Y172923D01*
Y173177D01*
X144577Y173304D01*
X144704D01*
X144831Y173177D01*
Y173050D01*
Y173177D01*
X144958Y173304D01*
X145085D01*
X145212Y173177D01*
Y172923D01*
X145085Y172796D01*
X84480Y172187D02*
X84354Y172060D01*
Y171806D01*
X84480Y171679D01*
X84988D01*
X85115Y171806D01*
Y172060D01*
X84988Y172187D01*
X84480Y172441D02*
X84354Y172568D01*
Y172822D01*
X84480Y172949D01*
X84607D01*
X84734Y172822D01*
Y172695D01*
Y172822D01*
X84861Y172949D01*
X84988D01*
X85115Y172822D01*
Y172568D01*
X84988Y172441D01*
X85115Y173710D02*
Y173202D01*
X84607Y173710D01*
X84480D01*
X84354Y173583D01*
Y173329D01*
X84480Y173202D01*
X115214Y172111D02*
X115088Y171984D01*
Y171730D01*
X115214Y171603D01*
X115722D01*
X115849Y171730D01*
Y171984D01*
X115722Y172111D01*
X115214Y172364D02*
X115088Y172491D01*
Y172745D01*
X115214Y172872D01*
X115341D01*
X115468Y172745D01*
Y172618D01*
Y172745D01*
X115595Y172872D01*
X115722D01*
X115849Y172745D01*
Y172491D01*
X115722Y172364D01*
X115849Y173126D02*
Y173380D01*
Y173253D01*
X115088D01*
X115214Y173126D01*
X170904Y172745D02*
Y172110D01*
X171031Y171984D01*
X171285D01*
X171412Y172110D01*
Y172745D01*
X171666Y171984D02*
X171920D01*
X171793D01*
Y172745D01*
X171666Y172618D01*
X172301Y171984D02*
X172555D01*
X172428D01*
Y172745D01*
X172301Y172618D01*
X232880Y172821D02*
Y172187D01*
X233007Y172060D01*
X233261D01*
X233388Y172187D01*
Y172821D01*
X233642Y172060D02*
X233896D01*
X233769D01*
Y172821D01*
X233642Y172695D01*
X234277D02*
X234404Y172821D01*
X234658D01*
X234785Y172695D01*
Y172187D01*
X234658Y172060D01*
X234404D01*
X234277Y172187D01*
Y172695D01*
X201532Y172390D02*
Y171755D01*
X201659Y171628D01*
X201913D01*
X202040Y171755D01*
Y172390D01*
X202294Y171755D02*
X202420Y171628D01*
X202674D01*
X202801Y171755D01*
Y172263D01*
X202674Y172390D01*
X202420D01*
X202294Y172263D01*
Y172136D01*
X202420Y172009D01*
X202801D01*
X140742Y172237D02*
Y171602D01*
X140869Y171476D01*
X141122D01*
X141249Y171602D01*
Y172237D01*
X141503Y172110D02*
X141630Y172237D01*
X141884D01*
X142011Y172110D01*
Y171983D01*
X141884Y171856D01*
X142011Y171729D01*
Y171602D01*
X141884Y171476D01*
X141630D01*
X141503Y171602D01*
Y171729D01*
X141630Y171856D01*
X141503Y171983D01*
Y172110D01*
X141630Y171856D02*
X141884D01*
X111100Y172567D02*
Y171933D01*
X111227Y171806D01*
X111481D01*
X111608Y171933D01*
Y172567D01*
X112369D02*
X112115Y172441D01*
X111862Y172187D01*
Y171933D01*
X111989Y171806D01*
X112242D01*
X112369Y171933D01*
Y172060D01*
X112242Y172187D01*
X111862D01*
X113335Y152705D02*
Y153467D01*
X113716D01*
X113843Y153340D01*
Y153086D01*
X113716Y152959D01*
X113335D01*
X113589D02*
X113843Y152705D01*
X114097Y153340D02*
X114224Y153467D01*
X114478D01*
X114605Y153340D01*
Y153213D01*
X114478Y153086D01*
X114605Y152959D01*
Y152832D01*
X114478Y152705D01*
X114224D01*
X114097Y152832D01*
Y152959D01*
X114224Y153086D01*
X114097Y153213D01*
Y153340D01*
X114224Y153086D02*
X114478D01*
X114859Y153340D02*
X114986Y153467D01*
X115240D01*
X115366Y153340D01*
Y153213D01*
X115240Y153086D01*
X115366Y152959D01*
Y152832D01*
X115240Y152705D01*
X114986D01*
X114859Y152832D01*
Y152959D01*
X114986Y153086D01*
X114859Y153213D01*
Y153340D01*
X114986Y153086D02*
X115240D01*
X98400Y154280D02*
Y155041D01*
X98781D01*
X98908Y154915D01*
Y154661D01*
X98781Y154534D01*
X98400D01*
X98654D02*
X98908Y154280D01*
X99162Y154915D02*
X99289Y155041D01*
X99543D01*
X99670Y154915D01*
Y154788D01*
X99543Y154661D01*
X99670Y154534D01*
Y154407D01*
X99543Y154280D01*
X99289D01*
X99162Y154407D01*
Y154534D01*
X99289Y154661D01*
X99162Y154788D01*
Y154915D01*
X99289Y154661D02*
X99543D01*
X100431Y155041D02*
X100177Y154915D01*
X99923Y154661D01*
Y154407D01*
X100050Y154280D01*
X100304D01*
X100431Y154407D01*
Y154534D01*
X100304Y154661D01*
X99923D01*
X112332Y83592D02*
Y84353D01*
X112713D01*
X112840Y84226D01*
Y83972D01*
X112713Y83845D01*
X112332D01*
X112586D02*
X112840Y83592D01*
X113094D02*
X113348D01*
X113221D01*
Y84353D01*
X113094Y84226D01*
X113728D02*
X113855Y84353D01*
X114109D01*
X114236Y84226D01*
Y83718D01*
X114109Y83592D01*
X113855D01*
X113728Y83718D01*
Y84226D01*
X114490D02*
X114617Y84353D01*
X114871D01*
X114998Y84226D01*
Y83718D01*
X114871Y83592D01*
X114617D01*
X114490Y83718D01*
Y84226D01*
X97892Y85649D02*
Y86411D01*
X98273D01*
X98400Y86284D01*
Y86030D01*
X98273Y85903D01*
X97892D01*
X98146D02*
X98400Y85649D01*
X98654Y85776D02*
X98781Y85649D01*
X99035D01*
X99162Y85776D01*
Y86284D01*
X99035Y86411D01*
X98781D01*
X98654Y86284D01*
Y86157D01*
X98781Y86030D01*
X99162D01*
X99415Y86284D02*
X99542Y86411D01*
X99796D01*
X99923Y86284D01*
Y86157D01*
X99796Y86030D01*
X99923Y85903D01*
Y85776D01*
X99796Y85649D01*
X99542D01*
X99415Y85776D01*
Y85903D01*
X99542Y86030D01*
X99415Y86157D01*
Y86284D01*
X99542Y86030D02*
X99796D01*
X112649Y117577D02*
Y118338D01*
X113030D01*
X113157Y118212D01*
Y117958D01*
X113030Y117831D01*
X112649D01*
X112903D02*
X113157Y117577D01*
X113411Y117704D02*
X113538Y117577D01*
X113792D01*
X113919Y117704D01*
Y118212D01*
X113792Y118338D01*
X113538D01*
X113411Y118212D01*
Y118085D01*
X113538Y117958D01*
X113919D01*
X114173Y118338D02*
X114681D01*
Y118212D01*
X114173Y117704D01*
Y117577D01*
X97613Y119456D02*
Y120218D01*
X97993D01*
X98120Y120091D01*
Y119837D01*
X97993Y119710D01*
X97613D01*
X97866D02*
X98120Y119456D01*
X98374Y119583D02*
X98501Y119456D01*
X98755D01*
X98882Y119583D01*
Y120091D01*
X98755Y120218D01*
X98501D01*
X98374Y120091D01*
Y119964D01*
X98501Y119837D01*
X98882D01*
X99644Y120218D02*
X99136D01*
Y119837D01*
X99390Y119964D01*
X99517D01*
X99644Y119837D01*
Y119583D01*
X99517Y119456D01*
X99263D01*
X99136Y119583D01*
X145847Y148742D02*
X146355Y148234D01*
X145847D02*
X146355Y148742D01*
X145847Y148488D02*
X146355D01*
X146101Y148234D02*
Y148742D01*
X126568Y67259D02*
X126441Y67386D01*
X126187D01*
X126060Y67259D01*
Y66751D01*
X126187Y66624D01*
X126441D01*
X126568Y66751D01*
X127330Y66624D02*
X126822D01*
X127330Y67132D01*
Y67259D01*
X127203Y67386D01*
X126949D01*
X126822Y67259D01*
X127584Y66624D02*
X127838D01*
X127711D01*
Y67386D01*
X127584Y67259D01*
X123444Y67386D02*
X123317Y67513D01*
X123063D01*
X122936Y67386D01*
Y66878D01*
X123063Y66751D01*
X123317D01*
X123444Y66878D01*
X124206Y66751D02*
X123698D01*
X124206Y67259D01*
Y67386D01*
X124079Y67513D01*
X123825D01*
X123698Y67386D01*
X124460D02*
X124587Y67513D01*
X124841D01*
X124968Y67386D01*
Y66878D01*
X124841Y66751D01*
X124587D01*
X124460Y66878D01*
Y67386D01*
X125997Y101244D02*
X125870Y101371D01*
X125616D01*
X125489Y101244D01*
Y100736D01*
X125616Y100610D01*
X125870D01*
X125997Y100736D01*
X126251Y100610D02*
X126505D01*
X126378D01*
Y101371D01*
X126251Y101244D01*
X127393Y101371D02*
X126886D01*
Y100990D01*
X127139Y101117D01*
X127266D01*
X127393Y100990D01*
Y100736D01*
X127266Y100610D01*
X127013D01*
X126886Y100736D01*
X122644Y101422D02*
X122517Y101549D01*
X122263D01*
X122136Y101422D01*
Y100914D01*
X122263Y100787D01*
X122517D01*
X122644Y100914D01*
X122898Y100787D02*
X123152D01*
X123025D01*
Y101549D01*
X122898Y101422D01*
X123914Y100787D02*
Y101549D01*
X123533Y101168D01*
X124041D01*
X108357Y71501D02*
Y70866D01*
X108484Y70739D01*
X108737D01*
X108864Y70866D01*
Y71501D01*
X109626D02*
X109118D01*
Y71120D01*
X109372Y71247D01*
X109499D01*
X109626Y71120D01*
Y70866D01*
X109499Y70739D01*
X109245D01*
X109118Y70866D01*
X224943Y101295D02*
Y100660D01*
X225070Y100533D01*
X225323D01*
X225450Y100660D01*
Y101295D01*
X226085Y100533D02*
Y101295D01*
X225704Y100914D01*
X226212D01*
X108484Y139624D02*
Y138989D01*
X108611Y138862D01*
X108864D01*
X108991Y138989D01*
Y139624D01*
X109753Y138862D02*
X109245D01*
X109753Y139370D01*
Y139497D01*
X109626Y139624D01*
X109372D01*
X109245Y139497D01*
X108661Y105740D02*
Y105105D01*
X108788Y104978D01*
X109042D01*
X109169Y105105D01*
Y105740D01*
X109423Y104978D02*
X109677D01*
X109550D01*
Y105740D01*
X109423Y105613D01*
X102159Y71425D02*
Y72187D01*
X102540D01*
X102667Y72060D01*
Y71806D01*
X102540Y71679D01*
X102159D01*
X102413D02*
X102667Y71425D01*
X102921Y72187D02*
X103429D01*
Y72060D01*
X102921Y71552D01*
Y71425D01*
X103683D02*
X103937D01*
X103810D01*
Y72187D01*
X103683Y72060D01*
X119507Y66650D02*
Y67411D01*
X119888D01*
X120015Y67285D01*
Y67031D01*
X119888Y66904D01*
X119507D01*
X119761D02*
X120015Y66650D01*
X120777Y67411D02*
X120523Y67285D01*
X120269Y67031D01*
Y66777D01*
X120396Y66650D01*
X120650D01*
X120777Y66777D01*
Y66904D01*
X120650Y67031D01*
X120269D01*
X121539Y67411D02*
X121031D01*
Y67031D01*
X121285Y67158D01*
X121412D01*
X121539Y67031D01*
Y66777D01*
X121412Y66650D01*
X121158D01*
X121031Y66777D01*
X129439Y66878D02*
Y67640D01*
X129820D01*
X129947Y67513D01*
Y67259D01*
X129820Y67132D01*
X129439D01*
X129693D02*
X129947Y66878D01*
X130708Y67640D02*
X130454Y67513D01*
X130200Y67259D01*
Y67005D01*
X130327Y66878D01*
X130581D01*
X130708Y67005D01*
Y67132D01*
X130581Y67259D01*
X130200D01*
X131343Y66878D02*
Y67640D01*
X130962Y67259D01*
X131470D01*
X102057Y64313D02*
Y65075D01*
X102438D01*
X102565Y64948D01*
Y64694D01*
X102438Y64567D01*
X102057D01*
X102311D02*
X102565Y64313D01*
X103327Y65075D02*
X103073Y64948D01*
X102819Y64694D01*
Y64440D01*
X102946Y64313D01*
X103200D01*
X103327Y64440D01*
Y64567D01*
X103200Y64694D01*
X102819D01*
X103581Y64313D02*
X103835D01*
X103708D01*
Y65075D01*
X103581Y64948D01*
X102007Y104877D02*
Y105638D01*
X102388D01*
X102515Y105512D01*
Y105258D01*
X102388Y105131D01*
X102007D01*
X102261D02*
X102515Y104877D01*
X103149D02*
Y105638D01*
X102768Y105258D01*
X103276D01*
X104038Y105638D02*
X103530D01*
Y105258D01*
X103784Y105385D01*
X103911D01*
X104038Y105258D01*
Y105004D01*
X103911Y104877D01*
X103657D01*
X103530Y105004D01*
X118796Y100559D02*
Y101320D01*
X119177D01*
X119304Y101194D01*
Y100940D01*
X119177Y100813D01*
X118796D01*
X119050D02*
X119304Y100559D01*
X119558Y101194D02*
X119685Y101320D01*
X119939D01*
X120066Y101194D01*
Y101067D01*
X119939Y100940D01*
X119812D01*
X119939D01*
X120066Y100813D01*
Y100686D01*
X119939Y100559D01*
X119685D01*
X119558Y100686D01*
X120320D02*
X120447Y100559D01*
X120701D01*
X120827Y100686D01*
Y101194D01*
X120701Y101320D01*
X120447D01*
X120320Y101194D01*
Y101067D01*
X120447Y100940D01*
X120827D01*
X128575Y100508D02*
Y101270D01*
X128956D01*
X129083Y101143D01*
Y100889D01*
X128956Y100762D01*
X128575D01*
X128829D02*
X129083Y100508D01*
X129337Y101143D02*
X129464Y101270D01*
X129718D01*
X129845Y101143D01*
Y101016D01*
X129718Y100889D01*
X129591D01*
X129718D01*
X129845Y100762D01*
Y100635D01*
X129718Y100508D01*
X129464D01*
X129337Y100635D01*
X130099Y101143D02*
X130226Y101270D01*
X130480D01*
X130606Y101143D01*
Y101016D01*
X130480Y100889D01*
X130606Y100762D01*
Y100635D01*
X130480Y100508D01*
X130226D01*
X130099Y100635D01*
Y100762D01*
X130226Y100889D01*
X130099Y101016D01*
Y101143D01*
X130226Y100889D02*
X130480D01*
X102235Y98095D02*
Y98857D01*
X102616D01*
X102743Y98730D01*
Y98476D01*
X102616Y98349D01*
X102235D01*
X102489D02*
X102743Y98095D01*
X102997Y98730D02*
X103124Y98857D01*
X103378D01*
X103505Y98730D01*
Y98603D01*
X103378Y98476D01*
X103251D01*
X103378D01*
X103505Y98349D01*
Y98222D01*
X103378Y98095D01*
X103124D01*
X102997Y98222D01*
X104267Y98857D02*
X103759D01*
Y98476D01*
X104013Y98603D01*
X104140D01*
X104267Y98476D01*
Y98222D01*
X104140Y98095D01*
X103886D01*
X103759Y98222D01*
X221488Y86487D02*
Y87249D01*
X221869D01*
X221996Y87122D01*
Y86868D01*
X221869Y86741D01*
X221488D01*
X221742D02*
X221996Y86487D01*
X222250Y87122D02*
X222377Y87249D01*
X222631D01*
X222758Y87122D01*
Y86995D01*
X222631Y86868D01*
X222504D01*
X222631D01*
X222758Y86741D01*
Y86614D01*
X222631Y86487D01*
X222377D01*
X222250Y86614D01*
X223012Y87122D02*
X223139Y87249D01*
X223393D01*
X223520Y87122D01*
Y86995D01*
X223393Y86868D01*
X223266D01*
X223393D01*
X223520Y86741D01*
Y86614D01*
X223393Y86487D01*
X223139D01*
X223012Y86614D01*
X102273Y132182D02*
Y132943D01*
X102654D01*
X102781Y132817D01*
Y132563D01*
X102654Y132436D01*
X102273D01*
X102527D02*
X102781Y132182D01*
X103035D02*
X103289D01*
X103162D01*
Y132943D01*
X103035Y132817D01*
X103670D02*
X103797Y132943D01*
X104051D01*
X104178Y132817D01*
Y132690D01*
X104051Y132563D01*
X104178Y132436D01*
Y132309D01*
X104051Y132182D01*
X103797D01*
X103670Y132309D01*
Y132436D01*
X103797Y132563D01*
X103670Y132690D01*
Y132817D01*
X103797Y132563D02*
X104051D01*
X128346Y113856D02*
X127584D01*
Y114237D01*
X127711Y114364D01*
X127965D01*
X128092Y114237D01*
Y113856D01*
Y114110D02*
X128346Y114364D01*
Y114618D02*
Y114871D01*
Y114745D01*
X127584D01*
X127711Y114618D01*
Y115252D02*
X127584Y115379D01*
Y115633D01*
X127711Y115760D01*
X127838D01*
X127965Y115633D01*
Y115506D01*
Y115633D01*
X128092Y115760D01*
X128219D01*
X128346Y115633D01*
Y115379D01*
X128219Y115252D01*
X119012Y134925D02*
Y135687D01*
X119393D01*
X119520Y135560D01*
Y135306D01*
X119393Y135179D01*
X119012D01*
X119266D02*
X119520Y134925D01*
X119774D02*
X120028D01*
X119901D01*
Y135687D01*
X119774Y135560D01*
X120916Y134925D02*
X120409D01*
X120916Y135433D01*
Y135560D01*
X120789Y135687D01*
X120536D01*
X120409Y135560D01*
X128181Y134950D02*
Y135712D01*
X128562D01*
X128689Y135585D01*
Y135331D01*
X128562Y135204D01*
X128181D01*
X128435D02*
X128689Y134950D01*
X128943D02*
X129197D01*
X129070D01*
Y135712D01*
X128943Y135585D01*
X129578Y134950D02*
X129832D01*
X129705D01*
Y135712D01*
X129578Y135585D01*
X143789Y156477D02*
X143028D01*
Y156858D01*
X143154Y156985D01*
X143408D01*
X143535Y156858D01*
Y156477D01*
Y156731D02*
X143789Y156985D01*
Y157239D02*
Y157493D01*
Y157366D01*
X143028D01*
X143154Y157239D01*
Y157874D02*
X143028Y158001D01*
Y158254D01*
X143154Y158381D01*
X143662D01*
X143789Y158254D01*
Y158001D01*
X143662Y157874D01*
X143154D01*
X146990Y150952D02*
X146228D01*
Y151333D01*
X146355Y151460D01*
X146609D01*
X146736Y151333D01*
Y150952D01*
Y151206D02*
X146990Y151460D01*
X146863Y151714D02*
X146990Y151841D01*
Y152095D01*
X146863Y152222D01*
X146355D01*
X146228Y152095D01*
Y151841D01*
X146355Y151714D01*
X146482D01*
X146609Y151841D01*
Y152222D01*
X102718Y138506D02*
Y139268D01*
X103099D01*
X103226Y139141D01*
Y138887D01*
X103099Y138760D01*
X102718D01*
X102972D02*
X103226Y138506D01*
X103480Y139141D02*
X103607Y139268D01*
X103860D01*
X103987Y139141D01*
Y139014D01*
X103860Y138887D01*
X103987Y138760D01*
Y138633D01*
X103860Y138506D01*
X103607D01*
X103480Y138633D01*
Y138760D01*
X103607Y138887D01*
X103480Y139014D01*
Y139141D01*
X103607Y138887D02*
X103860D01*
X142443Y147752D02*
X141681D01*
Y148133D01*
X141808Y148260D01*
X142062D01*
X142189Y148133D01*
Y147752D01*
Y148006D02*
X142443Y148260D01*
Y148895D02*
X141681D01*
X142062Y148514D01*
Y149022D01*
X139065Y156693D02*
X138303D01*
Y157074D01*
X138430Y157201D01*
X138684D01*
X138811Y157074D01*
Y156693D01*
Y156947D02*
X139065Y157201D01*
X138430Y157455D02*
X138303Y157582D01*
Y157835D01*
X138430Y157962D01*
X138557D01*
X138684Y157835D01*
Y157708D01*
Y157835D01*
X138811Y157962D01*
X138938D01*
X139065Y157835D01*
Y157582D01*
X138938Y157455D01*
X86462Y80645D02*
Y81153D01*
X86335Y81280D01*
X86081D01*
X85954Y81153D01*
Y80645D01*
X86081Y80518D01*
X86335D01*
X86208Y80772D02*
X86462Y80518D01*
X86335D02*
X86462Y80645D01*
X87223Y81280D02*
X86716D01*
Y80899D01*
X86969Y81026D01*
X87096D01*
X87223Y80899D01*
Y80645D01*
X87096Y80518D01*
X86843D01*
X86716Y80645D01*
X86614Y114935D02*
Y115443D01*
X86487Y115570D01*
X86233D01*
X86106Y115443D01*
Y114935D01*
X86233Y114808D01*
X86487D01*
X86360Y115062D02*
X86614Y114808D01*
X86487D02*
X86614Y114935D01*
X86868Y115443D02*
X86995Y115570D01*
X87249D01*
X87376Y115443D01*
Y115316D01*
X87249Y115189D01*
X87122D01*
X87249D01*
X87376Y115062D01*
Y114935D01*
X87249Y114808D01*
X86995D01*
X86868Y114935D01*
X85754Y150012D02*
Y150520D01*
X85627Y150647D01*
X85374D01*
X85247Y150520D01*
Y150012D01*
X85374Y149886D01*
X85627D01*
X85501Y150139D02*
X85754Y149886D01*
X85627D02*
X85754Y150012D01*
X86008Y149886D02*
X86262D01*
X86135D01*
Y150647D01*
X86008Y150520D01*
X91783Y150038D02*
Y149276D01*
X92164D01*
X92291Y149403D01*
Y149911D01*
X92164Y150038D01*
X91783D01*
X92545Y149276D02*
X92799D01*
X92672D01*
Y150038D01*
X92545Y149911D01*
X93688Y150038D02*
X93434Y149911D01*
X93180Y149657D01*
Y149403D01*
X93307Y149276D01*
X93561D01*
X93688Y149403D01*
Y149530D01*
X93561Y149657D01*
X93180D01*
X91224Y81280D02*
Y80518D01*
X91605D01*
X91732Y80645D01*
Y81153D01*
X91605Y81280D01*
X91224D01*
X91986Y80518D02*
X92240D01*
X92113D01*
Y81280D01*
X91986Y81153D01*
X93002Y80518D02*
Y81280D01*
X92621Y80899D01*
X93129D01*
X70346Y77800D02*
Y77038D01*
X70726D01*
X70853Y77165D01*
Y77673D01*
X70726Y77800D01*
X70346D01*
X71107Y77038D02*
X71361D01*
X71234D01*
Y77800D01*
X71107Y77673D01*
X72250Y77038D02*
X71742D01*
X72250Y77546D01*
Y77673D01*
X72123Y77800D01*
X71869D01*
X71742Y77673D01*
X91770Y114706D02*
Y113945D01*
X92151D01*
X92278Y114071D01*
Y114579D01*
X92151Y114706D01*
X91770D01*
X92532Y114579D02*
X92659Y114706D01*
X92913D01*
X93040Y114579D01*
Y114452D01*
X92913Y114325D01*
X93040Y114198D01*
Y114071D01*
X92913Y113945D01*
X92659D01*
X92532Y114071D01*
Y114198D01*
X92659Y114325D01*
X92532Y114452D01*
Y114579D01*
X92659Y114325D02*
X92913D01*
X70739Y111531D02*
Y110770D01*
X71120D01*
X71247Y110896D01*
Y111404D01*
X71120Y111531D01*
X70739D01*
X72009D02*
X71755Y111404D01*
X71501Y111150D01*
Y110896D01*
X71628Y110770D01*
X71882D01*
X72009Y110896D01*
Y111023D01*
X71882Y111150D01*
X71501D01*
X135408Y140005D02*
Y139243D01*
X135788D01*
X135915Y139370D01*
Y139878D01*
X135788Y140005D01*
X135408D01*
X136169Y139878D02*
X136296Y140005D01*
X136550D01*
X136677Y139878D01*
Y139751D01*
X136550Y139624D01*
X136423D01*
X136550D01*
X136677Y139497D01*
Y139370D01*
X136550Y139243D01*
X136296D01*
X136169Y139370D01*
X135433Y145872D02*
Y145110D01*
X135814D01*
X135941Y145237D01*
Y145745D01*
X135814Y145872D01*
X135433D01*
X136703Y145110D02*
X136195D01*
X136703Y145618D01*
Y145745D01*
X136576Y145872D01*
X136322D01*
X136195Y145745D01*
X70739Y145770D02*
Y145009D01*
X71120D01*
X71247Y145136D01*
Y145644D01*
X71120Y145770D01*
X70739D01*
X71501Y145009D02*
X71755D01*
X71628D01*
Y145770D01*
X71501Y145644D01*
X125959Y135712D02*
X125832Y135839D01*
X125578D01*
X125451Y135712D01*
Y135204D01*
X125578Y135077D01*
X125832D01*
X125959Y135204D01*
X126720Y135839D02*
X126213D01*
Y135458D01*
X126466Y135585D01*
X126593D01*
X126720Y135458D01*
Y135204D01*
X126593Y135077D01*
X126340D01*
X126213Y135204D01*
X122784Y135788D02*
X122657Y135915D01*
X122403D01*
X122276Y135788D01*
Y135280D01*
X122403Y135154D01*
X122657D01*
X122784Y135280D01*
X123418Y135154D02*
Y135915D01*
X123038Y135534D01*
X123545D01*
X226009Y141783D02*
X225882Y141910D01*
X225628D01*
X225501Y141783D01*
Y141275D01*
X225628Y141148D01*
X225882D01*
X226009Y141275D01*
X226263Y141783D02*
X226390Y141910D01*
X226644D01*
X226771Y141783D01*
Y141656D01*
X226644Y141529D01*
X226517D01*
X226644D01*
X226771Y141402D01*
Y141275D01*
X226644Y141148D01*
X226390D01*
X226263Y141275D01*
X225755Y146025D02*
X225628Y146151D01*
X225374D01*
X225247Y146025D01*
Y145517D01*
X225374Y145390D01*
X225628D01*
X225755Y145517D01*
X226517Y145390D02*
X226009D01*
X226517Y145898D01*
Y146025D01*
X226390Y146151D01*
X226136D01*
X226009Y146025D01*
M02*
