G04*
G04 #@! TF.GenerationSoftware,Altium Limited,Altium Designer,21.6.4 (81)*
G04*
G04 Layer_Color=128*
%FSLAX43Y43*%
%MOMM*%
G71*
G04*
G04 #@! TF.SameCoordinates,346ECB39-7FB1-4B03-902B-A5351CF8790B*
G04*
G04*
G04 #@! TF.FilePolarity,Positive*
G04*
G01*
G75*
%ADD96C,0.051*%
D96*
X137592Y82804D02*
X138354D01*
X137973Y82423D02*
Y83185D01*
X137312Y116967D02*
X138074D01*
X137693Y116586D02*
Y117348D01*
X136881Y153721D02*
X137643D01*
X137262Y153340D02*
Y154102D01*
X178460Y76886D02*
X179222D01*
X178841Y76505D02*
Y77267D01*
X161214Y70841D02*
X161976D01*
X161595Y70460D02*
Y71222D01*
X155880Y65151D02*
X156642D01*
X156261Y64770D02*
Y65532D01*
X140741Y68656D02*
X141503D01*
X141122Y68275D02*
Y69037D01*
X140894Y76378D02*
X141656D01*
X141275Y75997D02*
Y76759D01*
X163373Y78486D02*
X164135D01*
X163754Y78105D02*
Y78867D01*
X163932Y67793D02*
X164694D01*
X164313Y67412D02*
Y68174D01*
X107290Y73558D02*
X108052D01*
X107671Y73177D02*
Y73939D01*
X97053Y66827D02*
X97815D01*
X97434Y66446D02*
Y67208D01*
X124282Y64465D02*
X125044D01*
X124663Y64084D02*
Y64846D01*
X152095Y86944D02*
X152857D01*
X152476Y86563D02*
Y87325D01*
X145136Y83947D02*
X145898D01*
X145517Y83566D02*
Y84328D01*
X154813Y89560D02*
X155575D01*
X155194Y89179D02*
Y89941D01*
X185654Y76601D02*
X186416D01*
X186035Y76220D02*
Y76982D01*
X218618Y154711D02*
X219380D01*
X218999Y154330D02*
Y155092D01*
X178156Y111531D02*
X178918D01*
X178537Y111150D02*
Y111912D01*
X159766Y105334D02*
X160528D01*
X160147Y104953D02*
Y105715D01*
X156388Y97384D02*
X157150D01*
X156769Y97003D02*
Y97765D01*
X140157Y96850D02*
X140919D01*
X140538Y96469D02*
Y97231D01*
X140208Y110820D02*
X140970D01*
X140589Y110439D02*
Y111201D01*
X162585Y113360D02*
X163347D01*
X162966Y112979D02*
Y113741D01*
X163805Y100482D02*
X164567D01*
X164186Y100101D02*
Y100863D01*
X107213Y107620D02*
X107975D01*
X107594Y107239D02*
Y108001D01*
X96749Y100482D02*
X97511D01*
X97130Y100101D02*
Y100863D01*
X123292Y98476D02*
X124054D01*
X123673Y98095D02*
Y98857D01*
X151562Y120548D02*
X152324D01*
X151943Y120167D02*
Y120929D01*
X144907Y116865D02*
X145669D01*
X145288Y116484D02*
Y117246D01*
X154026Y123165D02*
X154788D01*
X154407Y122784D02*
Y123546D01*
X185584Y111531D02*
X186346D01*
X185965Y111150D02*
Y111912D01*
X217805Y92075D02*
X218567D01*
X218186Y91694D02*
Y92456D01*
X217830Y95529D02*
X218592D01*
X218211Y95148D02*
Y95910D01*
X159410Y138201D02*
X160172D01*
X159791Y137820D02*
Y138582D01*
X155931Y129946D02*
X156693D01*
X156312Y129565D02*
Y130327D01*
X140183Y144653D02*
X140945D01*
X140564Y144272D02*
Y145034D01*
X163246Y144907D02*
X164008D01*
X163627Y144526D02*
Y145288D01*
X162763Y132867D02*
X163525D01*
X163144Y132486D02*
Y133248D01*
X123045Y132296D02*
X123807D01*
X123426Y131915D02*
Y132677D01*
X97161Y134468D02*
X97923D01*
X97542Y134087D02*
Y134849D01*
X151816Y154635D02*
X152578D01*
X152197Y154254D02*
Y155016D01*
X156388Y156185D02*
X157150D01*
X156769Y155804D02*
Y156566D01*
X144821Y153390D02*
X145583D01*
X145202Y153009D02*
Y153771D01*
X185725Y143281D02*
X186487D01*
X186106Y142900D02*
Y143662D01*
X178054Y143434D02*
X178816D01*
X178435Y143053D02*
Y143815D01*
X241351Y130886D02*
X242113D01*
X241732Y130505D02*
Y131267D01*
X238481Y110211D02*
X239243D01*
X238862Y109830D02*
Y110592D01*
X143104Y129591D02*
X143866D01*
X143485Y129210D02*
Y129972D01*
X107290Y142164D02*
X108052D01*
X107671Y141783D02*
Y142545D01*
X235864Y149073D02*
X236626D01*
X236245Y148692D02*
Y149454D01*
X171029Y74219D02*
X171729D01*
X171379Y73869D02*
Y74569D01*
X171029Y76759D02*
X171729D01*
X171379Y76409D02*
Y77109D01*
X171029Y79299D02*
X171729D01*
X171379Y78949D02*
Y79649D01*
X125888Y73279D02*
X126588D01*
X126238Y72929D02*
Y73629D01*
X123348Y73279D02*
X124048D01*
X123698Y72929D02*
Y73629D01*
X120808Y73279D02*
X121508D01*
X121158Y72929D02*
Y73629D01*
X171075Y68682D02*
X171775D01*
X171425Y68332D02*
Y69032D01*
X171075Y66142D02*
X171775D01*
X171425Y65792D02*
Y66492D01*
X171075Y63602D02*
X171775D01*
X171425Y63252D02*
Y63952D01*
X171075Y89865D02*
X171775D01*
X171425Y89515D02*
Y90215D01*
X171075Y87325D02*
X171775D01*
X171425Y86975D02*
Y87675D01*
X171075Y84785D02*
X171775D01*
X171425Y84435D02*
Y85135D01*
X171176Y109169D02*
X171876D01*
X171526Y108819D02*
Y109519D01*
X171176Y111709D02*
X171876D01*
X171526Y111359D02*
Y112059D01*
X171176Y114249D02*
X171876D01*
X171526Y113899D02*
Y114599D01*
X125329Y107066D02*
X126029D01*
X125679Y106716D02*
Y107416D01*
X122789Y107066D02*
X123489D01*
X123139Y106716D02*
Y107416D01*
X120249Y107066D02*
X120949D01*
X120599Y106716D02*
Y107416D01*
X171176Y102972D02*
X171876D01*
X171526Y102622D02*
Y103322D01*
X171176Y100432D02*
X171876D01*
X171526Y100082D02*
Y100782D01*
X171176Y97892D02*
X171876D01*
X171526Y97542D02*
Y98242D01*
X171176Y125019D02*
X171876D01*
X171526Y124669D02*
Y125369D01*
X171176Y122479D02*
X171876D01*
X171526Y122129D02*
Y122829D01*
X171176Y119939D02*
X171876D01*
X171526Y119589D02*
Y120289D01*
X212426Y89713D02*
X213126D01*
X212776Y89363D02*
Y90063D01*
X212426Y92253D02*
X213126D01*
X212776Y91903D02*
Y92603D01*
X212426Y94793D02*
X213126D01*
X212776Y94443D02*
Y95143D01*
X171405Y140894D02*
X172105D01*
X171755Y140544D02*
Y141244D01*
X171405Y143434D02*
X172105D01*
X171755Y143084D02*
Y143784D01*
X171405Y145974D02*
X172105D01*
X171755Y145624D02*
Y146324D01*
X125228Y141757D02*
X125928D01*
X125578Y141407D02*
Y142107D01*
X122688Y141757D02*
X123388D01*
X123038Y141407D02*
Y142107D01*
X120148Y141757D02*
X120848D01*
X120498Y141407D02*
Y142107D01*
X171298Y135204D02*
X171998D01*
X171648Y134854D02*
Y135554D01*
X171298Y132664D02*
X171998D01*
X171648Y132314D02*
Y133014D01*
X171298Y130124D02*
X171998D01*
X171648Y129774D02*
Y130474D01*
X171329Y156591D02*
X172029D01*
X171679Y156241D02*
Y156941D01*
X171329Y154051D02*
X172029D01*
X171679Y153701D02*
Y154401D01*
X171329Y151511D02*
X172029D01*
X171679Y151161D02*
Y151861D01*
X156975Y171450D02*
X157975D01*
X157475Y170950D02*
Y171950D01*
X156975Y168910D02*
X157975D01*
X157475Y168410D02*
Y169410D01*
X156975Y166370D02*
X157975D01*
X157475Y165870D02*
Y166870D01*
X218321Y170993D02*
X219321D01*
X218821Y170493D02*
Y171493D01*
X218321Y168453D02*
X219321D01*
X218821Y167953D02*
Y168953D01*
X218321Y165913D02*
X219321D01*
X218821Y165413D02*
Y166413D01*
X187785Y170790D02*
X188785D01*
X188285Y170290D02*
Y171290D01*
X187785Y168250D02*
X188785D01*
X188285Y167750D02*
Y168750D01*
X187785Y165710D02*
X188785D01*
X188285Y165210D02*
Y166210D01*
X126444Y170891D02*
X127444D01*
X126944Y170391D02*
Y171391D01*
X126444Y168351D02*
X127444D01*
X126944Y167851D02*
Y168851D01*
X126444Y165811D02*
X127444D01*
X126944Y165311D02*
Y166311D01*
X64422Y171171D02*
X65422D01*
X64922Y170671D02*
Y171671D01*
X64422Y168631D02*
X65422D01*
X64922Y168131D02*
Y169131D01*
X64422Y166091D02*
X65422D01*
X64922Y165591D02*
Y166591D01*
X96015Y171120D02*
X97015D01*
X96515Y170620D02*
Y171620D01*
X96015Y168580D02*
X97015D01*
X96515Y168080D02*
Y169080D01*
X96015Y166040D02*
X97015D01*
X96515Y165540D02*
Y166540D01*
X202441Y109576D02*
X203441D01*
X202941Y109076D02*
Y110076D01*
X202441Y112116D02*
X203441D01*
X202941Y111616D02*
Y112616D01*
X202441Y117196D02*
X203441D01*
X202941Y116696D02*
Y117696D01*
X202441Y122276D02*
X203441D01*
X202941Y121776D02*
Y122776D01*
X202441Y127356D02*
X203441D01*
X202941Y126856D02*
Y127856D01*
X202441Y124816D02*
X203441D01*
X202941Y124316D02*
Y125316D01*
X202441Y119736D02*
X203441D01*
X202941Y119236D02*
Y120236D01*
X202441Y114656D02*
X203441D01*
X202941Y114156D02*
Y115156D01*
X202344Y130632D02*
X203344D01*
X202844Y130132D02*
Y131132D01*
X202344Y133172D02*
X203344D01*
X202844Y132672D02*
Y133672D01*
X202344Y138252D02*
X203344D01*
X202844Y137752D02*
Y138752D01*
X202344Y143332D02*
X203344D01*
X202844Y142832D02*
Y143832D01*
X202344Y148412D02*
X203344D01*
X202844Y147912D02*
Y148912D01*
X202344Y145872D02*
X203344D01*
X202844Y145372D02*
Y146372D01*
X202344Y140792D02*
X203344D01*
X202844Y140292D02*
Y141292D01*
X202344Y135712D02*
X203344D01*
X202844Y135212D02*
Y136212D01*
X181796Y69012D02*
X182796D01*
X182296Y68512D02*
Y69512D01*
X181796Y66472D02*
X182796D01*
X182296Y65972D02*
Y66972D01*
X181796Y63932D02*
X182796D01*
X182296Y63432D02*
Y64432D01*
X181694Y89865D02*
X182694D01*
X182194Y89365D02*
Y90365D01*
X181694Y87325D02*
X182694D01*
X182194Y86825D02*
Y87825D01*
X181694Y84785D02*
X182694D01*
X182194Y84285D02*
Y85285D01*
X181796Y102997D02*
X182796D01*
X182296Y102497D02*
Y103497D01*
X181796Y100457D02*
X182796D01*
X182296Y99957D02*
Y100957D01*
X181796Y97917D02*
X182796D01*
X182296Y97417D02*
Y98417D01*
X181618Y124943D02*
X182618D01*
X182118Y124443D02*
Y125443D01*
X181618Y122403D02*
X182618D01*
X182118Y121903D02*
Y122903D01*
X181618Y119863D02*
X182618D01*
X182118Y119363D02*
Y120363D01*
X181643Y135052D02*
X182643D01*
X182143Y134552D02*
Y135552D01*
X181643Y132512D02*
X182643D01*
X182143Y132012D02*
Y133012D01*
X181643Y129972D02*
X182643D01*
X182143Y129472D02*
Y130472D01*
X181461Y156642D02*
X182461D01*
X181961Y156142D02*
Y157142D01*
X181461Y154102D02*
X182461D01*
X181961Y153602D02*
Y154602D01*
X181461Y151562D02*
X182461D01*
X181961Y151062D02*
Y152062D01*
X116749Y74447D02*
X117511D01*
X117130Y74066D02*
Y74828D01*
X114249Y74447D02*
X115011D01*
X114630Y74066D02*
Y74828D01*
X116230Y108255D02*
X116992D01*
X116611Y107874D02*
Y108636D01*
X113730Y108255D02*
X114492D01*
X114111Y107874D02*
Y108636D01*
X116038Y143002D02*
X116800D01*
X116419Y142621D02*
Y143383D01*
X113538Y143002D02*
X114300D01*
X113919Y142621D02*
Y143383D01*
X153010Y64124D02*
X153772D01*
X153391Y63743D02*
Y64505D01*
X153010Y66624D02*
X153772D01*
X153391Y66243D02*
Y67005D01*
X153086Y129794D02*
X153848D01*
X153467Y129413D02*
Y130175D01*
X153086Y132294D02*
X153848D01*
X153467Y131913D02*
Y132675D01*
X66931Y75881D02*
X68231D01*
X67581Y75231D02*
Y76531D01*
X66931Y70881D02*
X68231D01*
X67581Y70231D02*
Y71531D01*
X66601Y143750D02*
X67901D01*
X67251Y143100D02*
Y144400D01*
X66601Y138750D02*
X67901D01*
X67251Y138100D02*
Y139400D01*
X153086Y96698D02*
X153848D01*
X153467Y96317D02*
Y97079D01*
X153086Y99198D02*
X153848D01*
X153467Y98817D02*
Y99579D01*
X66762Y109750D02*
X68062D01*
X67412Y109100D02*
Y110400D01*
X66762Y104750D02*
X68062D01*
X67412Y104100D02*
Y105400D01*
X238474Y71668D02*
X239774D01*
X239124Y71018D02*
Y72318D01*
X238474Y76668D02*
X239774D01*
X239124Y76018D02*
Y77318D01*
X178671Y167919D02*
X179571D01*
X179121Y167469D02*
Y168369D01*
X178671Y169189D02*
X179571D01*
X179121Y168739D02*
Y169639D01*
X178671Y170459D02*
X179571D01*
X179121Y170009D02*
Y170909D01*
X240088Y168021D02*
X240988D01*
X240538Y167571D02*
Y168471D01*
X240088Y169291D02*
X240988D01*
X240538Y168841D02*
Y169741D01*
X240088Y170561D02*
X240988D01*
X240538Y170111D02*
Y171011D01*
X208363Y167564D02*
X209263D01*
X208813Y167114D02*
Y168014D01*
X208363Y168834D02*
X209263D01*
X208813Y168384D02*
Y169284D01*
X208363Y170104D02*
X209263D01*
X208813Y169654D02*
Y170554D01*
X147810Y167513D02*
X148710D01*
X148260Y167063D02*
Y167963D01*
X147810Y168783D02*
X148710D01*
X148260Y168333D02*
Y169233D01*
X147810Y170053D02*
X148710D01*
X148260Y169603D02*
Y170503D01*
X87256Y168021D02*
X88156D01*
X87706Y167571D02*
Y168471D01*
X87256Y169291D02*
X88156D01*
X87706Y168841D02*
Y169741D01*
X87256Y170561D02*
X88156D01*
X87706Y170111D02*
Y171011D01*
X117584Y167665D02*
X118484D01*
X118034Y167215D02*
Y168115D01*
X117584Y168935D02*
X118484D01*
X118034Y168485D02*
Y169385D01*
X117584Y170205D02*
X118484D01*
X118034Y169755D02*
Y170655D01*
X232067Y68986D02*
X233617D01*
X232842Y68212D02*
Y69761D01*
X210172Y68986D02*
X211722D01*
X210947Y68212D02*
Y69761D01*
X241033Y83464D02*
X242583D01*
X241808Y82690D02*
Y84239D01*
X241033Y105359D02*
X242583D01*
X241808Y104585D02*
Y106134D01*
X237577Y116185D02*
X238927D01*
X238252Y115510D02*
Y116860D01*
X237577Y118720D02*
X238927D01*
X238252Y118045D02*
Y119395D01*
X237577Y121260D02*
X238927D01*
X238252Y120585D02*
Y121935D01*
X237679Y145517D02*
X239029D01*
X238354Y144842D02*
Y146192D01*
X237679Y142977D02*
X239029D01*
X238354Y142302D02*
Y143652D01*
X237679Y140442D02*
X239029D01*
X238354Y139767D02*
Y141117D01*
X242243Y142660D02*
X243243D01*
X242743Y142160D02*
Y143160D01*
X241968Y118643D02*
X242968D01*
X242468Y118143D02*
Y119143D01*
X93624Y153035D02*
X94691D01*
X94158Y152502D02*
Y153568D01*
X122326Y153035D02*
X123393D01*
X122860Y152502D02*
Y153568D01*
X121742Y117983D02*
X122809D01*
X122276Y117450D02*
Y118516D01*
X93040Y117983D02*
X94107D01*
X93574Y117450D02*
Y118516D01*
X122123Y84176D02*
X123190D01*
X122657Y83642D02*
Y84709D01*
X93421Y84176D02*
X94488D01*
X93955Y83642D02*
Y84709D01*
X224638Y170561D02*
X225349D01*
X224993Y170205D02*
Y170917D01*
X193827Y170205D02*
X194539D01*
X194183Y169850D02*
Y170561D01*
X163175Y170505D02*
X163886D01*
X163530Y170149D02*
Y170861D01*
X133020Y170053D02*
X133731D01*
X133375Y169697D02*
Y170409D01*
X71653Y170561D02*
X72365D01*
X72009Y170205D02*
Y170917D01*
X102890Y170146D02*
X103601D01*
X103246Y169790D02*
Y170501D01*
X150698Y83998D02*
X151409D01*
X151054Y83642D02*
Y84353D01*
X187960Y91999D02*
X188671D01*
X188316Y91643D02*
Y92354D01*
X143967Y69113D02*
X144678D01*
X144323Y68758D02*
Y69469D01*
X129845Y77978D02*
X130556D01*
X130200Y77622D02*
Y78334D01*
X143085Y101721D02*
X143796D01*
X143440Y101365D02*
Y102076D01*
X129210Y111379D02*
X129921D01*
X129565Y111023D02*
Y111735D01*
X134087Y99746D02*
X134798D01*
X134442Y99390D02*
Y100101D01*
X128651Y146634D02*
X129362D01*
X129007Y146279D02*
Y146990D01*
X143053Y136906D02*
X143764D01*
X143408Y136550D02*
Y137262D01*
X222860Y156947D02*
X223571D01*
X223215Y156591D02*
Y157302D01*
X197815Y59715D02*
X198526D01*
X198171Y59360D02*
Y60071D01*
X199644Y58268D02*
X200355D01*
X200000Y57912D02*
Y58623D01*
X196088Y56744D02*
X196799D01*
X196444Y56388D02*
Y57099D01*
X140680Y56693D02*
X141391D01*
X141036Y56337D02*
Y57048D01*
X138087Y58141D02*
X138798D01*
X138442Y57785D02*
Y58496D01*
X135016Y59665D02*
X135727D01*
X135372Y59309D02*
Y60020D01*
X134112Y91084D02*
X134823D01*
X134468Y90729D02*
Y91440D01*
X102921Y84150D02*
X103632D01*
X103276Y83795D02*
Y84506D01*
X102819Y118034D02*
X103530D01*
X103175Y117678D02*
Y118389D01*
X103251Y153060D02*
X103962D01*
X103607Y152705D02*
Y153416D01*
X222275Y122809D02*
X222987D01*
X222631Y122453D02*
Y123165D01*
X222301Y127457D02*
X223012D01*
X222656Y127102D02*
Y127813D01*
X215824Y130226D02*
X216535D01*
X216179Y129870D02*
Y130581D01*
X215824Y123114D02*
X216535D01*
X216179Y122758D02*
Y123469D01*
X188620Y141859D02*
X189332D01*
X188976Y141503D02*
Y142215D01*
X188087Y127559D02*
X188798D01*
X188443Y127203D02*
Y127914D01*
X181775Y143320D02*
X182486D01*
X182131Y142964D02*
Y143675D01*
X150825Y68377D02*
X151536D01*
X151181Y68021D02*
Y68732D01*
X159106Y69444D02*
X159817D01*
X159461Y69088D02*
Y69799D01*
X158166Y125603D02*
X158877D01*
X158521Y125247D02*
Y125959D01*
X162154Y128930D02*
X162865D01*
X162509Y128575D02*
Y129286D01*
X162077Y121869D02*
X162789D01*
X162433Y121514D02*
Y122225D01*
X178791Y127483D02*
X179502D01*
X179146Y127127D02*
Y127838D01*
X161976Y90653D02*
X162687D01*
X162331Y90297D02*
Y91008D01*
X159614Y101295D02*
X160325D01*
X159969Y100940D02*
Y101651D01*
X143891Y76581D02*
X144602D01*
X144247Y76225D02*
Y76937D01*
X141008Y85230D02*
X141719D01*
X141364Y84874D02*
Y85585D01*
X148412Y68986D02*
X149123D01*
X148768Y68631D02*
Y69342D01*
X181902Y76911D02*
X182613D01*
X182258Y76556D02*
Y77267D01*
X150012Y118288D02*
X150724D01*
X150368Y117932D02*
Y118643D01*
X143078Y111415D02*
X143789D01*
X143434Y111059D02*
Y111770D01*
X147599Y103556D02*
X148311D01*
X147955Y103200D02*
Y103911D01*
X129743Y64364D02*
X130454D01*
X130099Y64008D02*
Y64719D01*
X129197Y98539D02*
X129908D01*
X129553Y98184D02*
Y98895D01*
X128524Y132131D02*
X129235D01*
X128880Y131775D02*
Y132486D01*
X150114Y152095D02*
X150825D01*
X150470Y151740D02*
Y152451D01*
X158039Y134457D02*
X158750D01*
X158394Y134102D02*
Y134813D01*
X149972Y135103D02*
X150683D01*
X150328Y134747D02*
Y135458D01*
X149860Y101737D02*
X150571D01*
X150216Y101382D02*
Y102093D01*
X147752Y137084D02*
X148463D01*
X148107Y136728D02*
Y137439D01*
X181864Y111468D02*
X182575D01*
X182220Y111112D02*
Y111824D01*
X140233Y118999D02*
X140945D01*
X140589Y118643D02*
Y119355D01*
X140233Y110820D02*
X140945D01*
X140589Y110465D02*
Y111176D01*
X140056Y152756D02*
X140767D01*
X140411Y152400D02*
Y153111D01*
X143281Y144551D02*
X143993D01*
X143637Y144196D02*
Y144907D01*
M02*
