G04*
G04 #@! TF.GenerationSoftware,Altium Limited,Altium Designer,21.6.4 (81)*
G04*
G04 Layer_Color=16711935*
%FSLAX43Y43*%
%MOMM*%
G71*
G04*
G04 #@! TF.SameCoordinates,F52DD1F2-FE9F-4456-8C2D-F0E8507D2AE0*
G04*
G04*
G04 #@! TF.FilePolarity,Positive*
G04*
G01*
G75*
%ADD12C,0.254*%
%ADD93C,0.013*%
%ADD94C,0.127*%
%ADD95C,0.500*%
D12*
X77086Y165180D02*
G03*
X77086Y165180I-1000J0D01*
G01*
X77199Y173823D02*
G03*
X77199Y173823I-1000J0D01*
G01*
X198714Y164871D02*
G03*
X198714Y164871I-1000J0D01*
G01*
X229829Y165329D02*
G03*
X229829Y165329I-1000J0D01*
G01*
X229702Y173838D02*
G03*
X229702Y173838I-1000J0D01*
G01*
X198643Y173722D02*
G03*
X198643Y173722I-1000J0D01*
G01*
X167916Y165154D02*
G03*
X167916Y165154I-1000J0D01*
G01*
X167922Y174005D02*
G03*
X167922Y174005I-1000J0D01*
G01*
X137804Y164821D02*
G03*
X137804Y164821I-1000J0D01*
G01*
X138013Y173367D02*
G03*
X138013Y173367I-1000J0D01*
G01*
X107807Y164897D02*
G03*
X107807Y164897I-1000J0D01*
G01*
X107985Y173482D02*
G03*
X107985Y173482I-1000J0D01*
G01*
X242900Y155931D02*
G03*
X242900Y155931I-2540J0D01*
G01*
X241960Y59207D02*
G03*
X241960Y59207I-2540J0D01*
G01*
X80716Y85065D02*
G03*
X80716Y85065I-1092J0D01*
G01*
X80775Y67020D02*
G03*
X80775Y67020I-1092J0D01*
G01*
X80776Y101063D02*
G03*
X80776Y101063I-1092J0D01*
G01*
X80721Y119101D02*
G03*
X80721Y119101I-1092J0D01*
G01*
X69139Y156007D02*
G03*
X69139Y156007I-2540J0D01*
G01*
X71018Y60503D02*
G03*
X71018Y60503I-2540J0D01*
G01*
X80506Y136327D02*
G03*
X80506Y136327I-1092J0D01*
G01*
X80434Y154584D02*
G03*
X80434Y154584I-1092J0D01*
G01*
D93*
X153144Y176645D02*
G03*
X150944Y176631I-1100J0D01*
G01*
X150944Y163982D02*
G03*
X153144Y163983I1100J0D01*
G01*
X181780Y163957D02*
G03*
X183980Y163957I1100J0D01*
G01*
Y176620D02*
G03*
X181780Y176606I-1100J0D01*
G01*
X122588Y176696D02*
G03*
X120388Y176682I-1100J0D01*
G01*
X120388Y164033D02*
G03*
X122588Y164033I1100J0D01*
G01*
X214054Y176620D02*
G03*
X211854Y176606I-1100J0D01*
G01*
X211854Y163957D02*
G03*
X214054Y163957I1100J0D01*
G01*
X65757Y162728D02*
G03*
X65771Y160528I0J-1100D01*
G01*
X240757Y160528D02*
G03*
X240757Y162728I0J1100D01*
G01*
X92464Y176696D02*
G03*
X90264Y176682I-1100J0D01*
G01*
X90264Y164033D02*
G03*
X92464Y164033I1100J0D01*
G01*
X153144Y163983D02*
Y176645D01*
X150944Y163982D02*
X150944Y176631D01*
X181780Y163957D02*
X181780Y176606D01*
X122588Y164033D02*
Y176696D01*
X120388Y164033D02*
X120388Y176682D01*
X183980Y163957D02*
Y176620D01*
X214054Y163957D02*
Y176620D01*
X211854Y163957D02*
X211854Y176606D01*
X65771Y160528D02*
X240757Y160528D01*
X65757Y162728D02*
X240757D01*
X90264Y164033D02*
X90264Y176682D01*
X92464Y164033D02*
Y176696D01*
D94*
X92151Y177038D02*
D03*
D03*
X91897D02*
D03*
D03*
D95*
X61341Y53061D02*
X246341D01*
X61341Y177561D02*
X246341D01*
Y53061D02*
Y177561D01*
X61341Y53061D02*
Y177561D01*
M02*
