%TF.GenerationSoftware,Altium Limited,Altium Designer,21.6.4 (81)*%
G04 Layer_Color=255*
%FSLAX45Y45*%
%MOMM*%
%TF.SameCoordinates,09A83190-5573-4C43-887F-21FCEAA25094*%
%TF.FilePolarity,Positive*%
%TF.FileFunction,Pads,Top*%
%TF.Part,Single*%
G01*
G75*
%TA.AperFunction,SMDPad,CuDef*%
%ADD11R,1.66370X0.55880*%
G04:AMPARAMS|DCode=12|XSize=1.60712mm|YSize=0.76213mm|CornerRadius=0.38107mm|HoleSize=0mm|Usage=FLASHONLY|Rotation=0.000|XOffset=0mm|YOffset=0mm|HoleType=Round|Shape=RoundedRectangle|*
%AMROUNDEDRECTD12*
21,1,1.60712,0.00000,0,0,0.0*
21,1,0.84499,0.76213,0,0,0.0*
1,1,0.76213,0.42249,0.00000*
1,1,0.76213,-0.42249,0.00000*
1,1,0.76213,-0.42249,0.00000*
1,1,0.76213,0.42249,0.00000*
%
%ADD12ROUNDEDRECTD12*%
%ADD13R,1.60712X0.76213*%
%ADD14R,1.20651X1.50822*%
%ADD15R,1.50464X1.55620*%
%ADD16R,1.50822X1.20651*%
%ADD17R,1.55620X1.50464*%
%ADD18R,0.76213X1.60712*%
G04:AMPARAMS|DCode=19|XSize=1.60712mm|YSize=0.76213mm|CornerRadius=0.38107mm|HoleSize=0mm|Usage=FLASHONLY|Rotation=90.000|XOffset=0mm|YOffset=0mm|HoleType=Round|Shape=RoundedRectangle|*
%AMROUNDEDRECTD19*
21,1,1.60712,0.00000,0,0,90.0*
21,1,0.84499,0.76213,0,0,90.0*
1,1,0.76213,0.00000,0.42249*
1,1,0.76213,0.00000,-0.42249*
1,1,0.76213,0.00000,-0.42249*
1,1,0.76213,0.00000,0.42249*
%
%ADD19ROUNDEDRECTD19*%
%ADD20R,0.60000X0.70000*%
%ADD21R,3.05000X1.01600*%
%ADD22R,8.38000X10.66000*%
%ADD23R,0.55800X2.27000*%
%ADD24R,2.00000X2.00000*%
%ADD25R,3.00000X1.60000*%
%ADD26R,6.20000X5.80000*%
%ADD27R,1.40822X1.00650*%
%ADD28R,1.35000X0.95000*%
%ADD29R,1.35620X1.10464*%
%TA.AperFunction,ComponentPad*%
%ADD38C,1.52400*%
%TA.AperFunction,ViaPad*%
%ADD39C,2.00000*%
%TA.AperFunction,ComponentPad*%
%ADD40C,1.95000*%
G04:AMPARAMS|DCode=41|XSize=1.95mm|YSize=1.95mm|CornerRadius=0.4875mm|HoleSize=0mm|Usage=FLASHONLY|Rotation=270.000|XOffset=0mm|YOffset=0mm|HoleType=Round|Shape=RoundedRectangle|*
%AMROUNDEDRECTD41*
21,1,1.95000,0.97500,0,0,270.0*
21,1,0.97500,1.95000,0,0,270.0*
1,1,0.97500,-0.48750,-0.48750*
1,1,0.97500,-0.48750,0.48750*
1,1,0.97500,0.48750,0.48750*
1,1,0.97500,0.48750,-0.48750*
%
%ADD41ROUNDEDRECTD41*%
%ADD42C,1.50000*%
%ADD43R,1.50000X1.50000*%
%ADD44C,1.57480*%
%ADD45R,1.57480X1.57480*%
%ADD46R,2.05740X2.05740*%
%ADD47C,2.05740*%
%ADD48C,1.20000*%
%ADD49R,1.20000X1.20000*%
%ADD50O,2.00000X1.00000*%
%ADD51O,2.00000X1.00000*%
%ADD52R,2.05740X2.05740*%
%ADD53C,2.05000*%
%ADD54R,2.05000X2.05000*%
%ADD55R,1.20000X1.20000*%
D11*
X10913745Y9466580D02*
D03*
Y9593580D02*
D03*
Y9720580D02*
D03*
Y9847580D02*
D03*
Y9974580D02*
D03*
Y10101580D02*
D03*
Y10228580D02*
D03*
Y10355580D02*
D03*
X11478895D02*
D03*
Y10228580D02*
D03*
Y10101580D02*
D03*
Y9974580D02*
D03*
Y9847580D02*
D03*
Y9720580D02*
D03*
Y9593580D02*
D03*
Y9466580D02*
D03*
X10899140Y6065520D02*
D03*
Y6192520D02*
D03*
Y6319520D02*
D03*
Y6446520D02*
D03*
Y6573520D02*
D03*
Y6700520D02*
D03*
Y6827520D02*
D03*
Y6954520D02*
D03*
X11464290D02*
D03*
Y6827520D02*
D03*
Y6700520D02*
D03*
Y6573520D02*
D03*
Y6446520D02*
D03*
Y6319520D02*
D03*
Y6192520D02*
D03*
Y6065520D02*
D03*
X10918825Y12849860D02*
D03*
Y12976860D02*
D03*
Y13103860D02*
D03*
Y13230859D02*
D03*
Y13357860D02*
D03*
Y13484860D02*
D03*
Y13611861D02*
D03*
Y13738860D02*
D03*
X11483975D02*
D03*
Y13611861D02*
D03*
Y13484860D02*
D03*
Y13357860D02*
D03*
Y13230859D02*
D03*
Y13103860D02*
D03*
Y12976860D02*
D03*
Y12849860D02*
D03*
D12*
X13779414Y14168120D02*
D03*
X13781955Y14724380D02*
D03*
X13797279Y7947660D02*
D03*
X13769254Y11358880D02*
D03*
D13*
X13444305Y14168120D02*
D03*
X13446844Y14724380D02*
D03*
X13462173Y7947660D02*
D03*
X13434146Y11358880D02*
D03*
D14*
X17745386Y12242800D02*
D03*
X17535216D02*
D03*
X11627175Y8409940D02*
D03*
X11837345D02*
D03*
X11650035Y15308580D02*
D03*
X11860205D02*
D03*
X11589075Y11798300D02*
D03*
X11799245D02*
D03*
X17755545Y6619240D02*
D03*
X17545375D02*
D03*
X17756490Y8737600D02*
D03*
X17546320D02*
D03*
X17759030Y10043160D02*
D03*
X17548860D02*
D03*
X22142775Y8536940D02*
D03*
X22352945D02*
D03*
X19795815Y14323061D02*
D03*
X20005984D02*
D03*
X19785655Y14587219D02*
D03*
X19995825D02*
D03*
X19985664Y14846300D02*
D03*
X19775494D02*
D03*
X17750465Y15412720D02*
D03*
X17540295D02*
D03*
X10072990Y15300960D02*
D03*
X9862820D02*
D03*
X10268275Y13446761D02*
D03*
X10478445D02*
D03*
X9994250Y11793220D02*
D03*
X9784080D02*
D03*
X10254630Y10350500D02*
D03*
X10464800D02*
D03*
X10250495Y10058400D02*
D03*
X10460665D02*
D03*
X10018705Y8409940D02*
D03*
X9808535D02*
D03*
X10226690Y6967220D02*
D03*
X10436860D02*
D03*
X10229230Y6685280D02*
D03*
X10439400D02*
D03*
X13516936Y15019020D02*
D03*
X13727106D02*
D03*
X20750856Y12745720D02*
D03*
X20961026D02*
D03*
X20750854Y12217400D02*
D03*
X20961024D02*
D03*
X20750854Y12479020D02*
D03*
X20961024D02*
D03*
X10265735Y13728700D02*
D03*
X10475905D02*
D03*
D15*
X11848917Y15610840D02*
D03*
X11668760D02*
D03*
X11816080Y8729980D02*
D03*
X11635923D02*
D03*
X11785600Y12103100D02*
D03*
X11605443D02*
D03*
D16*
X12052300Y7096110D02*
D03*
Y6885940D02*
D03*
X13009880Y7097705D02*
D03*
Y6887535D02*
D03*
X13027660Y8061014D02*
D03*
Y8271184D02*
D03*
X15709900Y10324155D02*
D03*
Y10534325D02*
D03*
X15516859Y8307396D02*
D03*
Y8517566D02*
D03*
X14856461Y8393755D02*
D03*
Y8603925D02*
D03*
X14132561Y7941635D02*
D03*
Y8151805D02*
D03*
X14429739Y7154235D02*
D03*
Y7364405D02*
D03*
X14122400Y7361865D02*
D03*
Y7151695D02*
D03*
X15737840Y7174850D02*
D03*
Y6964680D02*
D03*
X11983720Y10468285D02*
D03*
Y10258115D02*
D03*
X12951460Y10465745D02*
D03*
Y10255575D02*
D03*
X14053819Y10745145D02*
D03*
Y10534975D02*
D03*
X14330679D02*
D03*
Y10745145D02*
D03*
X14063980Y11365555D02*
D03*
Y11575725D02*
D03*
X14792960Y11684650D02*
D03*
Y11894820D02*
D03*
X15440660Y11589075D02*
D03*
Y11799245D02*
D03*
X15468600Y15099355D02*
D03*
Y15309525D02*
D03*
X14038580Y15614975D02*
D03*
Y15825145D02*
D03*
X15697200Y13689655D02*
D03*
Y13899825D02*
D03*
X14353540Y13963976D02*
D03*
Y14174146D02*
D03*
X14056360Y14171605D02*
D03*
Y13961435D02*
D03*
X12893040Y13937926D02*
D03*
Y13727756D02*
D03*
X11986260Y13731889D02*
D03*
Y13942059D02*
D03*
X14556740Y8894134D02*
D03*
Y9104304D02*
D03*
X14140179Y8894135D02*
D03*
Y9104305D02*
D03*
X14528799Y12223130D02*
D03*
Y12433300D02*
D03*
X14053819Y12224075D02*
D03*
Y12434245D02*
D03*
X14813280Y15289204D02*
D03*
X14043660Y14725975D02*
D03*
Y14936145D02*
D03*
X14813280Y15079034D02*
D03*
X14518640Y15614975D02*
D03*
Y15825145D02*
D03*
X12961620Y11380795D02*
D03*
Y11590965D02*
D03*
D17*
X12367260Y6901363D02*
D03*
Y7081520D02*
D03*
X12692380Y7077619D02*
D03*
Y6897461D02*
D03*
X12303760Y10448199D02*
D03*
Y10268041D02*
D03*
X12631420Y10265501D02*
D03*
Y10445659D02*
D03*
X22842220Y14138818D02*
D03*
Y13958661D02*
D03*
Y14409602D02*
D03*
Y14589760D02*
D03*
X12590780Y13745300D02*
D03*
Y13925459D02*
D03*
X12288520D02*
D03*
Y13745300D02*
D03*
D18*
X13804900Y7020646D02*
D03*
X13766800Y10393766D02*
D03*
D19*
X13804900Y7355754D02*
D03*
X13766800Y10728874D02*
D03*
D20*
X14782799Y6318580D02*
D03*
X14687798Y6518580D02*
D03*
X14877800D02*
D03*
X14785339Y9686620D02*
D03*
X14690340Y9886620D02*
D03*
X14880341D02*
D03*
X14790421Y13049580D02*
D03*
X14695419Y13249580D02*
D03*
X14885422D02*
D03*
X8261101Y17079900D02*
D03*
X8071099D02*
D03*
X8166100Y16879900D02*
D03*
X11285220Y17040860D02*
D03*
X11095218D02*
D03*
X11190219Y16840860D02*
D03*
X14240260Y17013860D02*
D03*
X14050259D02*
D03*
X14145261Y16813860D02*
D03*
X17272000Y17010381D02*
D03*
X17081998D02*
D03*
X17176999Y16810381D02*
D03*
X20337781Y16962120D02*
D03*
X20147778D02*
D03*
X20242780Y16762120D02*
D03*
X23488400Y16975760D02*
D03*
X23298399D02*
D03*
X23393401Y16775760D02*
D03*
D21*
X22368982Y9039819D02*
D03*
Y9210020D02*
D03*
Y9380220D02*
D03*
Y9550420D02*
D03*
Y9720621D02*
D03*
D22*
X23399477Y9380220D02*
D03*
D23*
X15323820Y14183441D02*
D03*
X15196820D02*
D03*
X15069820D02*
D03*
X14942821D02*
D03*
X14815820D02*
D03*
X14688820D02*
D03*
Y14686198D02*
D03*
X14815820D02*
D03*
X14942821D02*
D03*
X15069820D02*
D03*
X15196820D02*
D03*
X15450819Y14183441D02*
D03*
X15323820Y14686198D02*
D03*
X15450819D02*
D03*
X15443201Y10744200D02*
D03*
X15316200D02*
D03*
X15189200D02*
D03*
X15062199D02*
D03*
X14935201D02*
D03*
X14808200D02*
D03*
X14681200D02*
D03*
Y11246963D02*
D03*
X14808200D02*
D03*
X14935201D02*
D03*
X15062199D02*
D03*
X15189200D02*
D03*
X15316200D02*
D03*
X15443201D02*
D03*
X15506700Y7371243D02*
D03*
X15379700D02*
D03*
X15252699D02*
D03*
X15125700D02*
D03*
X14998700D02*
D03*
X14871700D02*
D03*
X14744701D02*
D03*
Y7874000D02*
D03*
X14871700D02*
D03*
X14998700D02*
D03*
X15125700D02*
D03*
X15252699D02*
D03*
X15379700D02*
D03*
X15506700D02*
D03*
D24*
X9245600Y7781900D02*
D03*
Y7381900D02*
D03*
X9240520Y11195660D02*
D03*
Y10795660D02*
D03*
X9268460Y14731340D02*
D03*
Y14331340D02*
D03*
X7167880Y7092340D02*
D03*
Y7492340D02*
D03*
X7137400Y10473080D02*
D03*
Y10873080D02*
D03*
X7119620Y14269060D02*
D03*
Y13869060D02*
D03*
D25*
X8697300Y11229238D02*
D03*
Y10772242D02*
D03*
X8674440Y7810398D02*
D03*
Y7353402D02*
D03*
X8695162Y14762378D02*
D03*
Y14305382D02*
D03*
D26*
X7988300Y11000740D02*
D03*
X7965440Y7581900D02*
D03*
X7986161Y14533881D02*
D03*
D27*
X7005320Y16869572D02*
D03*
Y17059747D02*
D03*
X7414260D02*
D03*
Y16869572D02*
D03*
X7795260Y17054668D02*
D03*
Y16864493D02*
D03*
X10868660Y17029266D02*
D03*
Y16839093D02*
D03*
X10497820Y17036887D02*
D03*
Y16846713D02*
D03*
X10132060Y16834013D02*
D03*
Y17024187D02*
D03*
X13820140Y17006407D02*
D03*
Y16816232D02*
D03*
X13492480Y17011487D02*
D03*
Y16821313D02*
D03*
X13159740Y16818773D02*
D03*
Y17008948D02*
D03*
X16812260Y17001328D02*
D03*
Y16811153D02*
D03*
X16487140Y17001328D02*
D03*
Y16811153D02*
D03*
X16169640D02*
D03*
Y17001328D02*
D03*
X19276060Y16760353D02*
D03*
Y16950526D02*
D03*
X19923759Y16955608D02*
D03*
Y16765433D02*
D03*
X19603720Y16953067D02*
D03*
Y16762894D02*
D03*
X22316440Y16776700D02*
D03*
Y16966870D02*
D03*
X22659340Y16968307D02*
D03*
Y16778133D02*
D03*
X23027640Y16970847D02*
D03*
Y16780673D02*
D03*
D28*
X8536940Y16915059D02*
D03*
Y17065060D02*
D03*
X17617439Y16846478D02*
D03*
Y16996481D02*
D03*
D29*
X11579860Y16892041D02*
D03*
Y17032199D02*
D03*
X14556740Y16867683D02*
D03*
Y17007840D02*
D03*
X20624800Y16790440D02*
D03*
Y16930598D02*
D03*
X23789639Y16820921D02*
D03*
Y16961079D02*
D03*
D38*
X13797279Y8280400D02*
D03*
X12466320Y6446520D02*
D03*
X14551660Y8394700D02*
D03*
X14127480Y7637780D02*
D03*
X15339059Y6412418D02*
D03*
Y6662420D02*
D03*
X15346680Y9919782D02*
D03*
Y9669780D02*
D03*
X14053819Y9685020D02*
D03*
X12367260Y9847580D02*
D03*
X13769341Y11696700D02*
D03*
X21818600Y9207500D02*
D03*
X21821140Y9552940D02*
D03*
X15631160Y12994640D02*
D03*
X15346680Y12979401D02*
D03*
Y13229402D02*
D03*
X14348460Y12959081D02*
D03*
X9751060Y13446761D02*
D03*
X9712960Y10048240D02*
D03*
X9743440Y6682740D02*
D03*
X13726160Y15372079D02*
D03*
X15676880Y15618460D02*
D03*
X16314420Y13286740D02*
D03*
X15979140Y13820140D02*
D03*
X15626080Y6515100D02*
D03*
X16014700Y10533380D02*
D03*
X16362680Y14490700D02*
D03*
X14112241Y6865620D02*
D03*
X15519400Y8956040D02*
D03*
X16375380Y7848600D02*
D03*
X15219679Y15463519D02*
D03*
X15194279Y12054840D02*
D03*
X14520230Y15339040D02*
D03*
X21899879Y15471140D02*
D03*
X16431261Y6779260D02*
D03*
X16159480Y7084060D02*
D03*
X17884140Y7688580D02*
D03*
X18610580Y14328140D02*
D03*
X14056360Y14465300D02*
D03*
X17843500Y14343381D02*
D03*
X18596458Y11153140D02*
D03*
X15440660Y12316460D02*
D03*
X14528799Y11686540D02*
D03*
X16418559Y10048240D02*
D03*
X16296640Y11336020D02*
D03*
X14058900Y11082020D02*
D03*
X15676880Y9738360D02*
D03*
X17853661Y11153140D02*
D03*
X18603519Y7660081D02*
D03*
X15247620Y8694420D02*
D03*
X23624541Y14907260D02*
D03*
X11463020Y7444740D02*
D03*
X11713022D02*
D03*
X10767060Y7355840D02*
D03*
X11411138Y10825480D02*
D03*
X11661140D02*
D03*
X11391900Y14300200D02*
D03*
X11641902D02*
D03*
X10759440Y10761980D02*
D03*
X12342597Y13229590D02*
D03*
X23886160Y11021060D02*
D03*
X24173180Y13088620D02*
D03*
X10767060Y14216380D02*
D03*
D39*
X24274306Y14266034D02*
D03*
X24246840Y11864340D02*
D03*
D40*
X6725122Y13874963D02*
D03*
X23912358Y7666777D02*
D03*
X6741160Y10474960D02*
D03*
X6758142Y7088083D02*
D03*
D41*
X6725122Y14374962D02*
D03*
X23912358Y7166778D02*
D03*
X6741160Y10974959D02*
D03*
X6758142Y7588082D02*
D03*
D42*
X20294122Y10957560D02*
D03*
Y11211560D02*
D03*
Y11719560D02*
D03*
Y12227560D02*
D03*
Y12481560D02*
D03*
Y11973560D02*
D03*
Y11465560D02*
D03*
X18214340Y13251180D02*
D03*
Y12997180D02*
D03*
X18211800Y12240260D02*
D03*
Y11986260D02*
D03*
X18229581Y6647180D02*
D03*
Y6393180D02*
D03*
X18219420Y8732520D02*
D03*
Y8478520D02*
D03*
X18229581Y10045700D02*
D03*
Y9791700D02*
D03*
X20284441Y13571220D02*
D03*
Y14079221D02*
D03*
Y14587219D02*
D03*
Y14333220D02*
D03*
Y13825220D02*
D03*
Y13317220D02*
D03*
Y13063220D02*
D03*
X18196082Y15156180D02*
D03*
Y15410181D02*
D03*
X6492240Y16609061D02*
D03*
Y16863060D02*
D03*
X9651522Y16603979D02*
D03*
Y16857980D02*
D03*
X12694442Y16581120D02*
D03*
Y16835120D02*
D03*
X15747522Y16637000D02*
D03*
Y16891000D02*
D03*
X21882100Y16591280D02*
D03*
Y16845280D02*
D03*
X18828542Y16570959D02*
D03*
Y16824960D02*
D03*
D43*
X20294122Y12735560D02*
D03*
X18214340Y13505180D02*
D03*
X18211800Y12494260D02*
D03*
X18229581Y6901180D02*
D03*
X18219420Y8986520D02*
D03*
X18229581Y10299700D02*
D03*
X20284441Y14841220D02*
D03*
X18196082Y15664180D02*
D03*
X6492240Y17117059D02*
D03*
X9651522Y17111980D02*
D03*
X12694442Y17089120D02*
D03*
X15747522Y17145000D02*
D03*
X21882100Y17099280D02*
D03*
X18828542Y17078960D02*
D03*
D44*
X9415780Y15303500D02*
D03*
X9357360Y11798300D02*
D03*
X9395460Y8417560D02*
D03*
D45*
X12285980Y15303500D02*
D03*
X12227560Y11798300D02*
D03*
X12265660Y8417560D02*
D03*
D46*
X24180800Y10535920D02*
D03*
D47*
Y8346440D02*
D03*
X23284180Y6898640D02*
D03*
D48*
X17164822Y13266420D02*
D03*
X17142461Y6868160D02*
D03*
Y6614160D02*
D03*
X17152620Y10043160D02*
D03*
Y10297160D02*
D03*
Y12247880D02*
D03*
Y12501880D02*
D03*
Y11170920D02*
D03*
Y10916920D02*
D03*
X17142461Y8732520D02*
D03*
Y8986520D02*
D03*
X17137880Y7675879D02*
D03*
Y7421879D02*
D03*
X17175481Y14343381D02*
D03*
Y14089380D02*
D03*
X17167860Y15405099D02*
D03*
Y15659100D02*
D03*
X17164822Y13520419D02*
D03*
X21277580Y8971280D02*
D03*
Y9225280D02*
D03*
X12623800Y7327900D02*
D03*
X12369800D02*
D03*
X12313920Y10706598D02*
D03*
X12567920D02*
D03*
X12557760Y14175740D02*
D03*
X12303760D02*
D03*
D49*
X17142461Y6360160D02*
D03*
X17152620Y9789160D02*
D03*
Y11993880D02*
D03*
Y11424920D02*
D03*
X17142461Y8478520D02*
D03*
X17137880Y7929879D02*
D03*
X17175481Y14597380D02*
D03*
X17167860Y15151100D02*
D03*
X17164822Y13012421D02*
D03*
X21277580Y9479280D02*
D03*
D50*
X8961120Y16776700D02*
D03*
Y17030701D02*
D03*
X11998960Y17020540D02*
D03*
Y16766541D02*
D03*
X15046960Y16995140D02*
D03*
Y16741141D02*
D03*
X18087340Y16969740D02*
D03*
Y16715739D02*
D03*
X24297639Y16954500D02*
D03*
Y16700500D02*
D03*
X21145500Y16924020D02*
D03*
Y16670020D02*
D03*
D51*
X8961120Y16903700D02*
D03*
X11998960Y16893539D02*
D03*
X15046960Y16868140D02*
D03*
X18087340Y16842740D02*
D03*
X24297639Y16827499D02*
D03*
X21145500Y16797020D02*
D03*
D52*
X21094701Y6898640D02*
D03*
D53*
X23825200Y12125960D02*
D03*
Y11871960D02*
D03*
X23835361Y14297659D02*
D03*
Y14551660D02*
D03*
D54*
X23825200Y11618458D02*
D03*
X23835361Y14044157D02*
D03*
D55*
X12115800Y7327900D02*
D03*
X12059920Y10706598D02*
D03*
X12049760Y14175740D02*
D03*
%TF.MD5,5c2953e88c5121e0c8c7b9f7e0d327b6*%
M02*
