%TF.GenerationSoftware,Altium Limited,Altium Designer,21.6.4 (81)*%
G04 Layer_Color=255*
%FSLAX45Y45*%
%MOMM*%
%TF.SameCoordinates,3325C277-0099-4954-8EFE-43F743DDDD4B*%
%TF.FilePolarity,Positive*%
%TF.FileFunction,Pads,Bot*%
%TF.Part,Single*%
G01*
G75*
%TA.AperFunction,SMDPad,CuDef*%
%ADD11R,1.50822X1.20651*%
%ADD13R,1.20651X1.50822*%
G04:AMPARAMS|DCode=17|XSize=1.60712mm|YSize=0.76213mm|CornerRadius=0.38107mm|HoleSize=0mm|Usage=FLASHONLY|Rotation=0.000|XOffset=0mm|YOffset=0mm|HoleType=Round|Shape=RoundedRectangle|*
%AMROUNDEDRECTD17*
21,1,1.60712,0.00000,0,0,0.0*
21,1,0.84499,0.76213,0,0,0.0*
1,1,0.76213,0.42249,0.00000*
1,1,0.76213,-0.42249,0.00000*
1,1,0.76213,-0.42249,0.00000*
1,1,0.76213,0.42249,0.00000*
%
%ADD17ROUNDEDRECTD17*%
%ADD18R,1.60712X0.76213*%
%ADD25R,1.55620X1.50464*%
%TA.AperFunction,ComponentPad*%
%ADD37C,1.52400*%
%ADD38C,1.20000*%
%ADD39C,1.50000*%
%ADD40R,1.50000X1.50000*%
%ADD41R,1.20000X1.20000*%
%ADD42C,1.95000*%
G04:AMPARAMS|DCode=43|XSize=1.95mm|YSize=1.95mm|CornerRadius=0.4875mm|HoleSize=0mm|Usage=FLASHONLY|Rotation=90.000|XOffset=0mm|YOffset=0mm|HoleType=Round|Shape=RoundedRectangle|*
%AMROUNDEDRECTD43*
21,1,1.95000,0.97500,0,0,90.0*
21,1,0.97500,1.95000,0,0,90.0*
1,1,0.97500,0.48750,0.48750*
1,1,0.97500,0.48750,-0.48750*
1,1,0.97500,-0.48750,-0.48750*
1,1,0.97500,-0.48750,0.48750*
%
%ADD43ROUNDEDRECTD43*%
%ADD44O,2.00000X1.00000*%
%ADD45O,2.00000X1.00000*%
%ADD46R,2.05740X2.05740*%
%ADD47C,2.05740*%
%ADD48C,2.05000*%
%ADD49R,2.05000X2.05000*%
%ADD50R,2.05740X2.05740*%
%ADD51R,1.20000X1.20000*%
%ADD52R,1.57480X1.57480*%
%ADD53C,1.57480*%
%TA.AperFunction,SMDPad,CuDef*%
%ADD56R,0.50000X1.00000*%
%ADD57R,2.00000X4.10000*%
%ADD58R,7.50000X3.00000*%
D11*
X16680180Y13101320D02*
D03*
Y13445815D02*
D03*
X16675101Y14520235D02*
D03*
Y14730405D02*
D03*
X18227040Y7207575D02*
D03*
Y7417745D02*
D03*
X18224500Y8174665D02*
D03*
Y7964495D02*
D03*
X15206979Y6729406D02*
D03*
Y6519236D02*
D03*
X16703040Y7286315D02*
D03*
Y7496485D02*
D03*
X16713200Y8062905D02*
D03*
Y7852735D02*
D03*
X17881599Y7961955D02*
D03*
Y8172125D02*
D03*
X17886681Y7412666D02*
D03*
Y7202496D02*
D03*
X16703040Y6444925D02*
D03*
Y6234755D02*
D03*
Y6783394D02*
D03*
Y6993564D02*
D03*
X16713200Y8556610D02*
D03*
Y8346440D02*
D03*
X16718280Y9125570D02*
D03*
Y8915400D02*
D03*
X18224500Y10619740D02*
D03*
Y10829910D02*
D03*
X16682719Y11551920D02*
D03*
Y11341750D02*
D03*
X16680180Y10782950D02*
D03*
Y10993120D02*
D03*
X16697960Y10225095D02*
D03*
Y10435265D02*
D03*
X15077440Y9900270D02*
D03*
Y9690100D02*
D03*
X16675101Y15581010D02*
D03*
Y15791180D02*
D03*
X16695419Y9866305D02*
D03*
Y9656135D02*
D03*
X18219420Y11673840D02*
D03*
Y11463670D02*
D03*
X17861279D02*
D03*
Y11673840D02*
D03*
X17853661Y10828965D02*
D03*
Y10618795D02*
D03*
X16680180Y12586645D02*
D03*
Y12376475D02*
D03*
Y12054840D02*
D03*
Y11844670D02*
D03*
X9027160Y12807625D02*
D03*
Y12597455D02*
D03*
X8300720Y12801601D02*
D03*
Y12591430D02*
D03*
X7607300Y12796520D02*
D03*
Y12586350D02*
D03*
X16672560Y15012994D02*
D03*
Y15223164D02*
D03*
X16680180Y13655984D02*
D03*
Y12891150D02*
D03*
X17835880Y13803955D02*
D03*
Y14014125D02*
D03*
X18216879Y13819196D02*
D03*
Y14029366D02*
D03*
X17835880Y14638670D02*
D03*
Y14848840D02*
D03*
X18209261Y14844705D02*
D03*
Y14634535D02*
D03*
X16677640Y13953815D02*
D03*
Y14163985D02*
D03*
X15059660Y13201324D02*
D03*
Y12991154D02*
D03*
D13*
X17537755Y13253720D02*
D03*
X17747925D02*
D03*
D17*
X20060921Y13060680D02*
D03*
Y12730480D02*
D03*
X20066000Y12385040D02*
D03*
D18*
X19725813Y13060680D02*
D03*
Y12730480D02*
D03*
X19730893Y12385040D02*
D03*
D25*
X14815820Y15528198D02*
D03*
X16380460Y13782224D02*
D03*
X16311880Y10598241D02*
D03*
X16400780Y7293519D02*
D03*
Y7113361D02*
D03*
X14853920Y8790757D02*
D03*
Y8610600D02*
D03*
X15913100Y7479121D02*
D03*
Y7659279D02*
D03*
X16311880Y10778399D02*
D03*
X16380460Y13962379D02*
D03*
X15836900Y10944860D02*
D03*
Y11125017D02*
D03*
X14792960Y12074977D02*
D03*
Y11894820D02*
D03*
X8597900Y12611283D02*
D03*
Y12791440D02*
D03*
X9309100Y12617541D02*
D03*
Y12797699D02*
D03*
X7899400Y12606203D02*
D03*
Y12786360D02*
D03*
X14815820Y15348041D02*
D03*
X15844521Y14362521D02*
D03*
Y14542679D02*
D03*
D37*
X15676880Y15618460D02*
D03*
X16314420Y13286740D02*
D03*
X15979140Y13820140D02*
D03*
X15714980Y6441440D02*
D03*
X16311880Y6217920D02*
D03*
X16014700Y10533380D02*
D03*
X15631160Y12994640D02*
D03*
X15346680Y13229402D02*
D03*
X16365221Y14511020D02*
D03*
X15464978Y6441440D02*
D03*
X14124940Y6495029D02*
D03*
X15519400Y8956040D02*
D03*
X16375380Y7848600D02*
D03*
X14053819Y9685020D02*
D03*
X15219679Y15463519D02*
D03*
X15194279Y12054840D02*
D03*
X13726160Y15372079D02*
D03*
X13769341Y11696700D02*
D03*
X13797279Y8280400D02*
D03*
X14520230Y15339040D02*
D03*
X15346680Y12979401D02*
D03*
X21899879Y15471140D02*
D03*
X16431261Y6779260D02*
D03*
X14127480Y7637780D02*
D03*
X16159480Y7084060D02*
D03*
X17884140Y7688580D02*
D03*
X18610580Y14328140D02*
D03*
X14056360Y14465300D02*
D03*
X14348460Y12959081D02*
D03*
X17843500Y14343381D02*
D03*
X18596458Y11153140D02*
D03*
X15440660Y12316460D02*
D03*
X14528799Y11686540D02*
D03*
X16418559Y10048240D02*
D03*
X16296640Y11336020D02*
D03*
X14058900Y11082020D02*
D03*
X15676880Y9738360D02*
D03*
X15346680Y9669780D02*
D03*
Y9919782D02*
D03*
X17853661Y11153140D02*
D03*
X18603519Y7660081D02*
D03*
X14551660Y8394700D02*
D03*
X15247620Y8694420D02*
D03*
X23677879Y14584680D02*
D03*
X21818600Y9207500D02*
D03*
X21821140Y9552940D02*
D03*
X11463020Y7444740D02*
D03*
X11713022D02*
D03*
X12466320Y6451600D02*
D03*
X10767060Y7355840D02*
D03*
X11411138Y10825480D02*
D03*
X11661140D02*
D03*
X11391900Y14300200D02*
D03*
X11641902D02*
D03*
X10759440Y10761980D02*
D03*
X12342597Y13229590D02*
D03*
X9743440Y6682740D02*
D03*
X9751060Y13446761D02*
D03*
X12367260Y9847580D02*
D03*
X9712960Y10048240D02*
D03*
X23886160Y11021060D02*
D03*
X24173180Y13088620D02*
D03*
X10767060Y14216380D02*
D03*
D38*
X17164822Y13266420D02*
D03*
X17142461Y6868160D02*
D03*
Y6614160D02*
D03*
X17152620Y10043160D02*
D03*
Y10297160D02*
D03*
Y12247880D02*
D03*
Y12501880D02*
D03*
Y11170920D02*
D03*
Y10916920D02*
D03*
X17142461Y8732520D02*
D03*
Y8986520D02*
D03*
X17137880Y7675879D02*
D03*
Y7421879D02*
D03*
X17175481Y14343381D02*
D03*
Y14089380D02*
D03*
X17167860Y15405099D02*
D03*
Y15659100D02*
D03*
X17164822Y13520419D02*
D03*
X21277580Y8971280D02*
D03*
Y9225280D02*
D03*
X12623800Y7327900D02*
D03*
X12369800D02*
D03*
X12313920Y10706598D02*
D03*
X12567920D02*
D03*
X12557760Y14175740D02*
D03*
X12303760D02*
D03*
D39*
X20604480Y11955780D02*
D03*
Y12209780D02*
D03*
Y12717780D02*
D03*
Y13225780D02*
D03*
Y13479781D02*
D03*
Y12971780D02*
D03*
Y12463780D02*
D03*
X18229581Y6393180D02*
D03*
Y6647180D02*
D03*
X18219420Y8478520D02*
D03*
Y8732520D02*
D03*
X18229581Y9791700D02*
D03*
Y10045700D02*
D03*
X18211800Y11986260D02*
D03*
Y12240260D02*
D03*
X7022622Y12034520D02*
D03*
Y12542520D02*
D03*
Y13050520D02*
D03*
Y12796520D02*
D03*
Y12288520D02*
D03*
Y11780520D02*
D03*
Y11526520D02*
D03*
X18214340Y12997180D02*
D03*
Y13251180D02*
D03*
X18196082Y15156180D02*
D03*
Y15410181D02*
D03*
X6492240Y16609061D02*
D03*
Y16863060D02*
D03*
X9651522Y16603979D02*
D03*
Y16857980D02*
D03*
X12694442Y16581120D02*
D03*
Y16835120D02*
D03*
X15747522Y16637000D02*
D03*
Y16891000D02*
D03*
X21882100Y16591280D02*
D03*
Y16845280D02*
D03*
X18828542Y16570959D02*
D03*
Y16824960D02*
D03*
D40*
X20604480Y13733780D02*
D03*
X18229581Y6901180D02*
D03*
X18219420Y8986520D02*
D03*
X18229581Y10299700D02*
D03*
X18211800Y12494260D02*
D03*
X7022622Y13304520D02*
D03*
X18214340Y13505180D02*
D03*
X18196082Y15664180D02*
D03*
X6492240Y17117059D02*
D03*
X9651522Y17111980D02*
D03*
X12694442Y17089120D02*
D03*
X15747522Y17145000D02*
D03*
X21882100Y17099280D02*
D03*
X18828542Y17078960D02*
D03*
D41*
X17142461Y6360160D02*
D03*
X17152620Y9789160D02*
D03*
Y11993880D02*
D03*
Y11424920D02*
D03*
X17142461Y8478520D02*
D03*
X17137880Y7929879D02*
D03*
X17175481Y14597380D02*
D03*
X17167860Y15151100D02*
D03*
X17164822Y13012421D02*
D03*
X21277580Y9479280D02*
D03*
D42*
X23912358Y7666777D02*
D03*
X6741160Y10474960D02*
D03*
X6758142Y7088083D02*
D03*
X6732742Y13872423D02*
D03*
D43*
X23912358Y7166778D02*
D03*
X6741160Y10974959D02*
D03*
X6758142Y7588082D02*
D03*
X6732742Y14372421D02*
D03*
D44*
X8961120Y16776700D02*
D03*
Y17030701D02*
D03*
X11998960Y17020540D02*
D03*
Y16766541D02*
D03*
X15046960Y16995140D02*
D03*
Y16741141D02*
D03*
X18087340Y16969740D02*
D03*
Y16715739D02*
D03*
X24297639Y16954500D02*
D03*
Y16700500D02*
D03*
X21145500Y16924020D02*
D03*
Y16670020D02*
D03*
D45*
X8961120Y16903700D02*
D03*
X11998960Y16893539D02*
D03*
X15046960Y16868140D02*
D03*
X18087340Y16842740D02*
D03*
X24297639Y16827499D02*
D03*
X21145500Y16797020D02*
D03*
D46*
X21094701Y6898640D02*
D03*
D47*
X23284180D02*
D03*
X24180800Y8346440D02*
D03*
D48*
X24187759Y12143740D02*
D03*
Y11889740D02*
D03*
X24142700Y14272260D02*
D03*
Y14526260D02*
D03*
D49*
X24187759Y11636238D02*
D03*
X24142700Y14018758D02*
D03*
D50*
X24180800Y10535920D02*
D03*
D51*
X12115800Y7327900D02*
D03*
X12059920Y10706598D02*
D03*
X12049760Y14175740D02*
D03*
D52*
X12285980Y15303500D02*
D03*
X12227560Y11798300D02*
D03*
X12265660Y8417560D02*
D03*
D53*
X9415780Y15303500D02*
D03*
X9357360Y11798300D02*
D03*
X9395460Y8417560D02*
D03*
D56*
X22316440Y15360001D02*
D03*
Y15120000D02*
D03*
D57*
X15057120Y10612120D02*
D03*
Y11482121D02*
D03*
X15067281Y14009979D02*
D03*
Y14879980D02*
D03*
X15120621Y8012481D02*
D03*
Y7142480D02*
D03*
X22834599Y14666620D02*
D03*
Y13796620D02*
D03*
X22821899Y11557000D02*
D03*
Y10686999D02*
D03*
X22829520Y12231980D02*
D03*
Y13101981D02*
D03*
X22857460Y8357921D02*
D03*
Y7487920D02*
D03*
D58*
X21719540Y10611038D02*
D03*
Y11111042D02*
D03*
X21765260Y14600296D02*
D03*
Y15100301D02*
D03*
X22854919Y15226218D02*
D03*
Y15726222D02*
D03*
%TF.MD5,765f58b7067cbafd33488200df06dfbd*%
M02*
