%TF.GenerationSoftware,Altium Limited,Altium Designer,21.6.4 (81)*%
G04 Layer_Color=32896*
%FSLAX45Y45*%
%MOMM*%
%TF.SameCoordinates,3325C277-0099-4954-8EFE-43F743DDDD4B*%
%TF.FilePolarity,Positive*%
%TF.FileFunction,Legend,Bot*%
%TF.Part,Single*%
G01*
G75*
%TA.AperFunction,NonConductor*%
%ADD59C,0.25000*%
%ADD60C,0.20000*%
%ADD61C,0.25400*%
%ADD62C,0.15240*%
D59*
X20246979Y13733780D02*
G03*
X20246979Y13733780I-12500J0D01*
G01*
X19682240Y12940073D02*
G03*
X19682240Y12940073I-12500J0D01*
G01*
Y12609873D02*
G03*
X19682240Y12609873I-12500J0D01*
G01*
X19687320Y12264433D02*
G03*
X19687320Y12264433I-12500J0D01*
G01*
X17872079Y6901180D02*
G03*
X17872079Y6901180I-12500J0D01*
G01*
X17861920Y8986520D02*
G03*
X17861920Y8986520I-12500J0D01*
G01*
X17872079Y10299700D02*
G03*
X17872079Y10299700I-12500J0D01*
G01*
X17854300Y12494260D02*
G03*
X17854300Y12494260I-12500J0D01*
G01*
X6665120Y13304520D02*
G03*
X6665120Y13304520I-12500J0D01*
G01*
X9108620Y17186700D02*
G03*
X9108620Y17186700I-12500J0D01*
G01*
X17856841Y13505180D02*
G03*
X17856841Y13505180I-12500J0D01*
G01*
X17838580Y15664180D02*
G03*
X17838580Y15664180I-12500J0D01*
G01*
X6134740Y17117059D02*
G03*
X6134740Y17117059I-12500J0D01*
G01*
X9294020Y17111980D02*
G03*
X9294020Y17111980I-12500J0D01*
G01*
X12146460Y17176540D02*
G03*
X12146460Y17176540I-12500J0D01*
G01*
X12336940Y17089120D02*
G03*
X12336940Y17089120I-12500J0D01*
G01*
X15194460Y17151140D02*
G03*
X15194460Y17151140I-12500J0D01*
G01*
X15390021Y17145000D02*
G03*
X15390021Y17145000I-12500J0D01*
G01*
X18234840Y17125740D02*
G03*
X18234840Y17125740I-12500J0D01*
G01*
X21524600Y17099280D02*
G03*
X21524600Y17099280I-12500J0D01*
G01*
X24445140Y17110500D02*
G03*
X24445140Y17110500I-12500J0D01*
G01*
X18471040Y17078960D02*
G03*
X18471040Y17078960I-12500J0D01*
G01*
X21292999Y17080020D02*
G03*
X21292999Y17080020I-12500J0D01*
G01*
X24254260Y11331815D02*
G03*
X24254260Y11331815I-12500J0D01*
G01*
X24209201Y13714336D02*
G03*
X24209201Y13714336I-12500J0D01*
G01*
D60*
X15057120Y11747120D02*
G03*
X15057120Y11737120I0J-5000D01*
G01*
D02*
G03*
X15057120Y11747120I0J5000D01*
G01*
D02*
G03*
X15057120Y11737120I0J-5000D01*
G01*
X15067281Y15144980D02*
G03*
X15067281Y15134979I0J-5000D01*
G01*
D02*
G03*
X15067281Y15144980I0J5000D01*
G01*
D02*
G03*
X15067281Y15134979I0J-5000D01*
G01*
X9111120Y17101698D02*
G03*
X9111120Y16705702I-150000J-197998D01*
G01*
X15120621Y8277480D02*
G03*
X15120621Y8267480I0J-5000D01*
G01*
D02*
G03*
X15120621Y8277480I0J5000D01*
G01*
D02*
G03*
X15120621Y8267480I0J-5000D01*
G01*
X12148960Y17091537D02*
G03*
X12148960Y16695541I-150000J-197998D01*
G01*
X15196960Y17066138D02*
G03*
X15196960Y16670142I-150000J-197998D01*
G01*
X18237340Y17040738D02*
G03*
X18237340Y16644742I-150000J-197998D01*
G01*
X24447639Y17025497D02*
G03*
X24447639Y16629501I-150000J-197998D01*
G01*
X21295500Y16995018D02*
G03*
X21295500Y16599022I-150000J-197998D01*
G01*
X22834599Y13531619D02*
G03*
X22834599Y13541620I0J5000D01*
G01*
D02*
G03*
X22834599Y13531619I0J-5000D01*
G01*
D02*
G03*
X22834599Y13541620I0J5000D01*
G01*
X22821899Y10422000D02*
G03*
X22821899Y10432000I0J5000D01*
G01*
D02*
G03*
X22821899Y10422000I0J-5000D01*
G01*
D02*
G03*
X22821899Y10432000I0J5000D01*
G01*
X22829520Y13366980D02*
G03*
X22829520Y13356979I0J-5000D01*
G01*
D02*
G03*
X22829520Y13366980I0J5000D01*
G01*
D02*
G03*
X22829520Y13356979I0J-5000D01*
G01*
X22857460Y7222920D02*
G03*
X22857460Y7232920I0J5000D01*
G01*
D02*
G03*
X22857460Y7222920I0J-5000D01*
G01*
D02*
G03*
X22857460Y7232920I0J5000D01*
G01*
X20276978Y11811782D02*
X20871979D01*
Y13877779D01*
X20276978D02*
X20871979D01*
X20276978Y11811782D02*
Y13877779D01*
X19758365Y13130428D02*
Y13138181D01*
X20028368D01*
Y13130428D02*
Y13138181D01*
X19758365Y12983180D02*
Y12990932D01*
Y12983180D02*
X20028368D01*
Y12990932D01*
X19758365Y12800227D02*
Y12807980D01*
X20028368D01*
Y12800227D02*
Y12807980D01*
X19758365Y12652980D02*
Y12660732D01*
Y12652980D02*
X20028368D01*
Y12660732D01*
X19763445Y12454788D02*
Y12462540D01*
X20033447D01*
Y12454788D02*
Y12462540D01*
X19763445Y12307540D02*
Y12315292D01*
Y12307540D02*
X20033447D01*
Y12315292D01*
X22253941Y15155000D02*
Y15410002D01*
X22378938Y15155000D02*
Y15324998D01*
X17635580Y13191222D02*
X17650099D01*
X17635580Y13316219D02*
X17650099D01*
X16737599Y14618060D02*
Y14632579D01*
X16612601Y14618060D02*
Y14632579D01*
X17390958Y6125159D02*
Y7103161D01*
X16894962Y6125159D02*
X17390958D01*
X16894962D02*
Y7103161D01*
X17390958D01*
X23512358Y7916799D02*
X24247359D01*
X24317361D02*
X24412363D01*
Y6916801D02*
Y7916799D01*
X23512358Y6916801D02*
Y7916799D01*
Y6916801D02*
X23727359D01*
X23797382D02*
X24412363D01*
X23702361Y6856791D02*
X23822360D01*
X23702361D02*
X23727339Y6916801D01*
X23797382D02*
X23822360Y6856791D01*
X24317361Y7916799D02*
X24342339Y7976809D01*
X24222339D02*
X24342339D01*
X24222339D02*
X24247318Y7916799D01*
X16518590Y7038132D02*
Y7368748D01*
X16282970Y7038132D02*
Y7368748D01*
X18289539Y7305401D02*
Y7319919D01*
X18164542Y7305401D02*
Y7319919D01*
X18162001Y8062321D02*
Y8076839D01*
X18287000Y8062321D02*
Y8076839D01*
X15144481Y6617061D02*
Y6631580D01*
X15269479Y6617061D02*
Y6631580D01*
X14971730Y8535370D02*
Y8865987D01*
X14736110Y8535370D02*
Y8865987D01*
X16765540Y7384141D02*
Y7398659D01*
X16640541Y7384141D02*
Y7398659D01*
X16650700Y7950561D02*
Y7965079D01*
X16775699Y7950561D02*
Y7965079D01*
X17944099Y8059781D02*
Y8074299D01*
X17819101Y8059781D02*
Y8074299D01*
X17824181Y7300321D02*
Y7314840D01*
X17949179Y7300321D02*
Y7314840D01*
X15795290Y7403892D02*
Y7734508D01*
X16030910Y7403892D02*
Y7734508D01*
X16640541Y6332581D02*
Y6347099D01*
X16765540Y6332581D02*
Y6347099D01*
Y6881220D02*
Y6895739D01*
X16640541Y6881220D02*
Y6895739D01*
X16650700Y8444266D02*
Y8458784D01*
X16775699Y8444266D02*
Y8458784D01*
X16655782Y9013226D02*
Y9027744D01*
X16780779Y9013226D02*
Y9027744D01*
X15257120Y11562121D02*
X15314619D01*
X15572121Y11422121D01*
Y10532120D02*
Y11422121D01*
X15257120Y10532120D02*
X15572121D01*
X14542120D02*
X14857120D01*
X14542120D02*
Y11422121D01*
X14799620Y11562121D01*
X14857120D01*
X18287000Y10717566D02*
Y10732084D01*
X18162001Y10717566D02*
Y10732084D01*
X16429691Y10523012D02*
Y10853628D01*
X16194070Y10523012D02*
Y10853628D01*
X15267281Y14959979D02*
X15324780D01*
X15582280Y14819981D01*
Y13929980D02*
Y14819981D01*
X15267281Y13929980D02*
X15582280D01*
X14552280D02*
X14867281D01*
X14552280D02*
Y14819981D01*
X14809779Y14959979D01*
X14867281D01*
X16498270Y13706993D02*
Y14037610D01*
X16262650Y13706993D02*
Y14037610D01*
X16620221Y11439576D02*
Y11454094D01*
X16745219Y11439576D02*
Y11454094D01*
X16742679Y10880776D02*
Y10895294D01*
X16617680Y10880776D02*
Y10895294D01*
X16760458Y10322921D02*
Y10337439D01*
X16635461Y10322921D02*
Y10337439D01*
X15014941Y9787926D02*
Y9802444D01*
X15139938Y9787926D02*
Y9802444D01*
X15719090Y10869630D02*
Y11200247D01*
X15954710Y10869630D02*
Y11200247D01*
X14910770Y11819590D02*
Y12150207D01*
X14675150Y11819590D02*
Y12150207D01*
X16737599Y15678836D02*
Y15693353D01*
X16612601Y15678836D02*
Y15693353D01*
X16632921Y9753961D02*
Y9768479D01*
X16757919Y9753961D02*
Y9768479D01*
X16905122Y10532161D02*
X17401118D01*
X16905122Y9554159D02*
Y10532161D01*
Y9554159D02*
X17401118D01*
Y10532161D01*
X18156921Y11561496D02*
Y11576014D01*
X18281918Y11561496D02*
Y11576014D01*
X17923779Y11561496D02*
Y11576014D01*
X17798781Y11561496D02*
Y11576014D01*
X17791161Y10716621D02*
Y10731139D01*
X17916159Y10716621D02*
Y10731139D01*
X16617680Y12474301D02*
Y12488819D01*
X16742679Y12474301D02*
Y12488819D01*
X16617680Y11942496D02*
Y11957014D01*
X16742679Y11942496D02*
Y11957014D01*
X17902077Y6249182D02*
Y7045178D01*
X18497078D01*
Y6249182D02*
Y7045178D01*
X17902077Y6249182D02*
X18497078D01*
X17891917Y8334522D02*
Y9130518D01*
X18486919D01*
Y8334522D02*
Y9130518D01*
X17891917Y8334522D02*
X18486919D01*
X17902077Y9647702D02*
Y10443698D01*
X18497078D01*
Y9647702D02*
Y10443698D01*
X17902077Y9647702D02*
X18497078D01*
X17884297Y11842262D02*
Y12638258D01*
X18479298D01*
Y11842262D02*
Y12638258D01*
X17884297Y11842262D02*
X18479298D01*
X16905122Y12736881D02*
X17401118D01*
X16905122Y11758879D02*
Y12736881D01*
Y11758879D02*
X17401118D01*
Y12736881D01*
X16904121Y10681919D02*
X17400117D01*
Y11659921D01*
X16904121D02*
X17400117D01*
X16904121Y10681919D02*
Y11659921D01*
X16894957Y9221521D02*
X17390958D01*
X16894957Y8243519D02*
Y9221521D01*
Y8243519D02*
X17390958D01*
Y9221521D01*
X16889381Y7186879D02*
X17385378D01*
Y8164880D01*
X16889381D02*
X17385378D01*
X16889381Y7186879D02*
Y8164880D01*
X8480090Y12536053D02*
Y12866670D01*
X8715710Y12536053D02*
Y12866670D01*
X9191290Y12542312D02*
Y12872928D01*
X9426910Y12542312D02*
Y12872928D01*
X6695120Y11382522D02*
Y13448518D01*
X7290120D01*
Y11382522D02*
Y13448518D01*
X6695120Y11382522D02*
X7290120D01*
X8964661Y12695281D02*
Y12709799D01*
X9089659Y12695281D02*
Y12709799D01*
X8238221Y12689256D02*
Y12703774D01*
X8363219Y12689256D02*
Y12703774D01*
X7544801Y12684176D02*
Y12698694D01*
X7669799Y12684176D02*
Y12698694D01*
X7781590Y12530973D02*
Y12861591D01*
X8017210Y12530973D02*
Y12861591D01*
X14698010Y15272812D02*
Y15603429D01*
X14933630Y15272812D02*
Y15603429D01*
X16735059Y15110822D02*
Y15125339D01*
X16610062Y15110822D02*
Y15125339D01*
X16742679Y13543642D02*
Y13558159D01*
X16617680Y13543642D02*
Y13558159D01*
X16742679Y12988976D02*
Y13003494D01*
X16617680Y12988976D02*
Y13003494D01*
X17898380Y13901781D02*
Y13916299D01*
X17773381Y13901781D02*
Y13916299D01*
X18279379Y13917021D02*
Y13931538D01*
X18154381Y13917021D02*
Y13931538D01*
X17898380Y14736496D02*
Y14751015D01*
X17773381Y14736496D02*
Y14751015D01*
X18146761Y14732361D02*
Y14746880D01*
X18271759Y14732361D02*
Y14746880D01*
X16740138Y14051640D02*
Y14066159D01*
X16615141Y14051640D02*
Y14066159D01*
X15726711Y14287292D02*
Y14617908D01*
X15962331Y14287292D02*
Y14617908D01*
X14997160Y13088982D02*
Y13103499D01*
X15122159Y13088982D02*
Y13103499D01*
X16926982Y13854379D02*
X17422978D01*
Y14832381D01*
X16926982D02*
X17422978D01*
X16926982Y13854379D02*
Y14832381D01*
X9111122Y16705702D02*
Y17101698D01*
X16920361Y15894101D02*
X17416357D01*
X16920361Y14916100D02*
Y15894101D01*
Y14916100D02*
X17416357D01*
Y15894101D01*
X16917319Y13755421D02*
X17413321D01*
X16917319Y12777419D02*
Y13755421D01*
Y12777419D02*
X17413321D01*
Y13755421D01*
X17886836Y12853181D02*
Y13649178D01*
X18481837D01*
Y12853181D02*
Y13649178D01*
X17886836Y12853181D02*
X18481837D01*
X17868581Y15012183D02*
Y15808179D01*
X18463580D01*
Y15012183D02*
Y15808179D01*
X17868581Y15012183D02*
X18463580D01*
X14863120Y8092481D02*
X14920621D01*
X14605620Y7952481D02*
X14863120Y8092481D01*
X14605620Y7062480D02*
Y7952481D01*
Y7062480D02*
X14920621D01*
X15320621D02*
X15635620D01*
Y7952481D01*
X15378120Y8092481D02*
X15635620Y7952481D01*
X15320621Y8092481D02*
X15378120D01*
X6164737Y16465062D02*
Y17261058D01*
X6759738D01*
Y16465062D02*
Y17261058D01*
X6164737Y16465062D02*
X6759738D01*
X9324020Y16459982D02*
Y17255978D01*
X9919020D01*
Y16459982D02*
Y17255978D01*
X9324020Y16459982D02*
X9919020D01*
X12148962Y16695541D02*
Y17091537D01*
X12366940Y16437122D02*
Y17233118D01*
X12961940D01*
Y16437122D02*
Y17233118D01*
X12366940Y16437122D02*
X12961940D01*
X15196962Y16670142D02*
Y17066138D01*
X15420020Y16493002D02*
Y17288998D01*
X16015021D01*
Y16493002D02*
Y17288998D01*
X15420020Y16493002D02*
X16015021D01*
X18237341Y16644742D02*
Y17040738D01*
X21554597Y16447282D02*
Y17243279D01*
X22149599D01*
Y16447282D02*
Y17243279D01*
X21554597Y16447282D02*
X22149599D01*
X24447643Y16629501D02*
Y17025497D01*
X18501041Y16426962D02*
Y17222958D01*
X19096040D01*
Y16426962D02*
Y17222958D01*
X18501041Y16426962D02*
X19096040D01*
X21295502Y16599022D02*
Y16995018D01*
X22577100Y13716620D02*
X22634599D01*
X22319600Y13856619D02*
X22577100Y13716620D01*
X22319600Y13856619D02*
Y14746620D01*
X22634599D01*
X23034599D02*
X23349600D01*
Y13856619D02*
Y14746620D01*
X23092101Y13716620D02*
X23349600Y13856619D01*
X23034599Y13716620D02*
X23092101D01*
X22564400Y10606999D02*
X22621899D01*
X22306900Y10746999D02*
X22564400Y10606999D01*
X22306900Y10746999D02*
Y11637000D01*
X22621899D01*
X23021899D02*
X23336900D01*
Y10746999D02*
Y11637000D01*
X23079401Y10606999D02*
X23336900Y10746999D01*
X23021899Y10606999D02*
X23079401D01*
X23029520Y13181979D02*
X23087019D01*
X23344521Y13041982D01*
Y12151980D02*
Y13041982D01*
X23029520Y12151980D02*
X23344521D01*
X22314520D02*
X22629520D01*
X22314520D02*
Y13041982D01*
X22572020Y13181979D01*
X22629520D01*
X24024260Y11483401D02*
X24459261Y11381816D01*
Y11386815D02*
Y12392665D01*
X24024260Y12296079D02*
X24459261Y12397664D01*
X24024260Y11483401D02*
Y12296079D01*
X22599960Y7407920D02*
X22657460D01*
X22342461Y7547920D02*
X22599960Y7407920D01*
X22342461Y7547920D02*
Y8437921D01*
X22657460D01*
X23057460D02*
X23372459D01*
Y7547920D02*
Y8437921D01*
X23114960Y7407920D02*
X23372459Y7547920D01*
X23057460Y7407920D02*
X23114960D01*
X21029082Y8736279D02*
Y9714281D01*
X21525082D01*
Y8736279D02*
Y9714281D01*
X21029082Y8736279D02*
X21525082D01*
X22069542Y10773542D02*
Y10948538D01*
X21369537Y10773542D02*
Y10948538D01*
X11880799Y7079402D02*
X12858801D01*
X11880799D02*
Y7575403D01*
X12858801D01*
Y7079402D02*
Y7575403D01*
X12802921Y10458099D02*
Y10954101D01*
X11824919D02*
X12802921D01*
X11824919Y10458099D02*
Y10954101D01*
Y10458099D02*
X12802921D01*
X23979201Y13865921D02*
Y14678600D01*
X24414201Y14780183D01*
Y13769334D02*
Y14775185D01*
X23979201Y13865921D02*
X24414201Y13764336D01*
X22115262Y14762801D02*
Y14937796D01*
X21415257Y14762801D02*
Y14937796D01*
X23204922Y15388722D02*
Y15563718D01*
X22504918Y15388722D02*
Y15563718D01*
X6406159Y10224938D02*
X7141159D01*
X6241161D02*
X6336157D01*
X6241161D02*
Y11224936D01*
X7141159Y10224938D02*
Y11224936D01*
X6926158D02*
X7141159D01*
X6241161D02*
X6856141D01*
X6831157Y11284946D02*
X6951157D01*
X6926179Y11224936D02*
X6951157Y11284946D01*
X6831157D02*
X6856141Y11224936D01*
X6311179Y10164928D02*
X6336157Y10224938D01*
X6311179Y10164928D02*
X6431178D01*
X6406200Y10224938D02*
X6431178Y10164928D01*
X6423142Y6838061D02*
X7158142D01*
X6258138D02*
X6353139D01*
X6258138D02*
Y7838059D01*
X7158142Y6838061D02*
Y7838059D01*
X6943141D02*
X7158142D01*
X6258138D02*
X6873118D01*
X6848140Y7898069D02*
X6968139D01*
X6943161Y7838059D02*
X6968139Y7898069D01*
X6848140D02*
X6873118Y7838059D01*
X6328161Y6778051D02*
X6353139Y6838061D01*
X6328161Y6778051D02*
X6448161D01*
X6423182Y6838061D02*
X6448161Y6778051D01*
X6397742Y13622401D02*
X7132742D01*
X6232738D02*
X6327739D01*
X6232738D02*
Y14622398D01*
X7132742Y13622401D02*
Y14622398D01*
X6917741D02*
X7132742D01*
X6232738D02*
X6847718D01*
X6822740Y14682410D02*
X6942739D01*
X6917761Y14622398D02*
X6942739Y14682410D01*
X6822740D02*
X6847718Y14622398D01*
X6302761Y13562392D02*
X6327739Y13622401D01*
X6302761Y13562392D02*
X6422761D01*
X6397782Y13622401D02*
X6422761Y13562392D01*
X11814759Y13927242D02*
X12792761D01*
X11814759D02*
Y14423244D01*
X12792761D01*
Y13927242D02*
Y14423244D01*
D61*
X15841980Y6314440D02*
Y6568440D01*
X15333980D02*
X15841980D01*
X15333980Y6314440D02*
Y6568440D01*
Y6314440D02*
X15841980D01*
X15473680Y12848402D02*
Y13356403D01*
X15219679Y12848402D02*
X15473680D01*
X15219679D02*
Y13356403D01*
X15473680D01*
X15219679Y10046782D02*
X15473680D01*
X15219679Y9538782D02*
Y10046782D01*
Y9538782D02*
X15473680D01*
Y10046782D01*
X11691620Y7571740D02*
X11844020D01*
X11336020D02*
X11488420D01*
X11336020Y7317740D02*
X11844020D01*
Y7571740D01*
X11488420D02*
X11691620D01*
X11336020Y7317740D02*
Y7571740D01*
X11639738Y10952480D02*
X11792138D01*
X11284138D02*
X11436538D01*
X11284138Y10698480D02*
X11792138D01*
Y10952480D01*
X11436538D02*
X11639738D01*
X11284138Y10698480D02*
Y10952480D01*
X11620500Y14427200D02*
X11772900D01*
X11264900D02*
X11417300D01*
X11264900Y14173199D02*
X11772900D01*
Y14427200D01*
X11417300D02*
X11620500D01*
X11264900Y14173199D02*
Y14427200D01*
X22407880Y15666672D02*
X22306313D01*
Y15641280D01*
X22407880Y15539713D01*
Y15514320D01*
X22306313D01*
X22255528D02*
X22204745D01*
X22230138D01*
Y15666672D01*
X22255528Y15641280D01*
X16819881Y15988354D02*
Y16140704D01*
X16743706D01*
X16718314Y16115314D01*
Y16064529D01*
X16743706Y16039137D01*
X16819881D01*
X16769096D02*
X16718314Y15988354D01*
X16667529Y16140704D02*
X16565962D01*
Y16115314D01*
X16667529Y16013747D01*
Y15988354D01*
X23616953Y8227011D02*
X23667737D01*
X23642345D01*
Y8100052D01*
X23667737Y8074660D01*
X23693127D01*
X23718520Y8100052D01*
X23566170Y8074660D02*
X23515385D01*
X23540778D01*
Y8227011D01*
X23566170Y8201619D01*
X15560072Y15392358D02*
X15585464Y15417751D01*
X15636247D01*
X15661639Y15392358D01*
Y15290791D01*
X15636247Y15265401D01*
X15585464D01*
X15560072Y15290791D01*
X15509290Y15265401D02*
X15458505D01*
X15483897D01*
Y15417751D01*
X15509290Y15392358D01*
X15280763Y15417751D02*
X15331548Y15392358D01*
X15382330Y15341576D01*
Y15290791D01*
X15356940Y15265401D01*
X15306155D01*
X15280763Y15290791D01*
Y15316183D01*
X15306155Y15341576D01*
X15382330D01*
X20500381Y6924073D02*
X20474989Y6949465D01*
Y7000248D01*
X20500381Y7025640D01*
X20601949D01*
X20627341Y7000248D01*
Y6949465D01*
X20601949Y6924073D01*
X20627341Y6873289D02*
X20474989D01*
Y6797114D01*
X20500381Y6771722D01*
X20551164D01*
X20576556Y6797114D01*
Y6873289D01*
Y6822506D02*
X20627341Y6771722D01*
Y6619371D02*
Y6720939D01*
X20525774Y6619371D01*
X20500381D01*
X20474989Y6644763D01*
Y6695547D01*
X20500381Y6720939D01*
X20017740Y13096191D02*
Y12943840D01*
X19941565D01*
X19916173Y12969232D01*
Y13070799D01*
X19941565Y13096191D01*
X20017740D01*
X19763821Y12943840D02*
X19865388D01*
X19763821Y13045407D01*
Y13070799D01*
X19789214Y13096191D01*
X19839996D01*
X19865388Y13070799D01*
X19713039D02*
X19687646Y13096191D01*
X19636864D01*
X19611472Y13070799D01*
Y12969232D01*
X19636864Y12943840D01*
X19687646D01*
X19713039Y12969232D01*
Y13070799D01*
X19992340Y13426392D02*
Y13274040D01*
X19916165D01*
X19890773Y13299432D01*
Y13400999D01*
X19916165Y13426392D01*
X19992340D01*
X19839989Y13274040D02*
X19789206D01*
X19814597D01*
Y13426392D01*
X19839989Y13400999D01*
X19713029Y13299432D02*
X19687639Y13274040D01*
X19636855D01*
X19611462Y13299432D01*
Y13400999D01*
X19636855Y13426392D01*
X19687639D01*
X19713029Y13400999D01*
Y13375607D01*
X19687639Y13350215D01*
X19611462D01*
X17386301Y9316720D02*
Y9469071D01*
X17310126D01*
X17284734Y9443679D01*
Y9392895D01*
X17310126Y9367503D01*
X17386301D01*
X17335516D02*
X17284734Y9316720D01*
X17233949D02*
Y9469071D01*
X17157774D01*
X17132382Y9443679D01*
Y9392895D01*
X17157774Y9367503D01*
X17233949D01*
X17081599Y9316720D02*
X17030815D01*
X17056207D01*
Y9469071D01*
X17081599Y9443679D01*
X16954640D02*
X16929248Y9469071D01*
X16878464D01*
X16853072Y9443679D01*
Y9342112D01*
X16878464Y9316720D01*
X16929248D01*
X16954640Y9342112D01*
Y9443679D01*
X17315179Y11755120D02*
Y11907471D01*
X17239005D01*
X17213612Y11882079D01*
Y11831295D01*
X17239005Y11805903D01*
X17315179D01*
X17264397D02*
X17213612Y11755120D01*
X17162830D02*
Y11907471D01*
X17086655D01*
X17061263Y11882079D01*
Y11831295D01*
X17086655Y11805903D01*
X17162830D01*
X17010480Y11780512D02*
X16985088Y11755120D01*
X16934303D01*
X16908911Y11780512D01*
Y11882079D01*
X16934303Y11907471D01*
X16985088D01*
X17010480Y11882079D01*
Y11856687D01*
X16985088Y11831295D01*
X16908911D01*
X17317720Y10627360D02*
Y10779711D01*
X17241545D01*
X17216153Y10754319D01*
Y10703535D01*
X17241545Y10678143D01*
X17317720D01*
X17266937D02*
X17216153Y10627360D01*
X17165369D02*
Y10779711D01*
X17089194D01*
X17063802Y10754319D01*
Y10703535D01*
X17089194Y10678143D01*
X17165369D01*
X17013019Y10779711D02*
X16911452D01*
Y10754319D01*
X17013019Y10652752D01*
Y10627360D01*
X17317720Y12832080D02*
Y12984431D01*
X17241545D01*
X17216153Y12959039D01*
Y12908255D01*
X17241545Y12882863D01*
X17317720D01*
X17266937D02*
X17216153Y12832080D01*
X17165369D02*
Y12984431D01*
X17089194D01*
X17063802Y12959039D01*
Y12908255D01*
X17089194Y12882863D01*
X17165369D01*
X16911452Y12984431D02*
X16962234Y12959039D01*
X17013019Y12908255D01*
Y12857472D01*
X16987627Y12832080D01*
X16936842D01*
X16911452Y12857472D01*
Y12882863D01*
X16936842Y12908255D01*
X17013019D01*
X17338040Y14927580D02*
Y15079932D01*
X17261865D01*
X17236473Y15054539D01*
Y15003755D01*
X17261865Y14978363D01*
X17338040D01*
X17287257D02*
X17236473Y14927580D01*
X17185689D02*
Y15079932D01*
X17109514D01*
X17084122Y15054539D01*
Y15003755D01*
X17109514Y14978363D01*
X17185689D01*
X16957162Y14927580D02*
Y15079932D01*
X17033339Y15003755D01*
X16931770D01*
X17409160Y13850620D02*
Y14002971D01*
X17332985D01*
X17307593Y13977579D01*
Y13926794D01*
X17332985Y13901402D01*
X17409160D01*
X17358377D02*
X17307593Y13850620D01*
X17256808D02*
Y14002971D01*
X17180634D01*
X17155241Y13977579D01*
Y13926794D01*
X17180634Y13901402D01*
X17256808D01*
X17002892Y13850620D02*
X17104459D01*
X17002892Y13952187D01*
Y13977579D01*
X17028284Y14002971D01*
X17079066D01*
X17104459Y13977579D01*
X17411700Y15989301D02*
Y16141650D01*
X17335526D01*
X17310133Y16116258D01*
Y16065475D01*
X17335526Y16040083D01*
X17411700D01*
X17360918D02*
X17310133Y15989301D01*
X17259349D02*
Y16141650D01*
X17183174D01*
X17157782Y16116258D01*
Y16065475D01*
X17183174Y16040083D01*
X17259349D01*
X17106999Y15989301D02*
X17056215D01*
X17081607D01*
Y16141650D01*
X17106999Y16116258D01*
X18183859Y7609840D02*
Y7762191D01*
X18107684D01*
X18082294Y7736799D01*
Y7686015D01*
X18107684Y7660623D01*
X18183859D01*
X18133076D02*
X18082294Y7609840D01*
X18031509Y7762191D02*
X17929942D01*
Y7736799D01*
X18031509Y7635232D01*
Y7609840D01*
X17879160Y7635232D02*
X17853767Y7609840D01*
X17802983D01*
X17777591Y7635232D01*
Y7736799D01*
X17802983Y7762191D01*
X17853767D01*
X17879160Y7736799D01*
Y7711407D01*
X17853767Y7686015D01*
X17777591D01*
X17000220Y7693660D02*
Y7846011D01*
X16924045D01*
X16898653Y7820619D01*
Y7769835D01*
X16924045Y7744443D01*
X17000220D01*
X16949437D02*
X16898653Y7693660D01*
X16847868Y7846011D02*
X16746301D01*
Y7820619D01*
X16847868Y7719052D01*
Y7693660D01*
X16593951Y7846011D02*
X16644736Y7820619D01*
X16695518Y7769835D01*
Y7719052D01*
X16670126Y7693660D01*
X16619344D01*
X16593951Y7719052D01*
Y7744443D01*
X16619344Y7769835D01*
X16695518D01*
X18524220Y7614920D02*
Y7767271D01*
X18448045D01*
X18422653Y7741879D01*
Y7691095D01*
X18448045Y7665703D01*
X18524220D01*
X18473438D02*
X18422653Y7614920D01*
X18371869Y7767271D02*
X18270302D01*
Y7741879D01*
X18371869Y7640312D01*
Y7614920D01*
X18117950Y7767271D02*
X18219519D01*
Y7691095D01*
X18168735Y7716487D01*
X18143343D01*
X18117950Y7691095D01*
Y7640312D01*
X18143343Y7614920D01*
X18194127D01*
X18219519Y7640312D01*
X17000220Y7190740D02*
Y7343091D01*
X16924045D01*
X16898653Y7317699D01*
Y7266915D01*
X16924045Y7241523D01*
X17000220D01*
X16949437D02*
X16898653Y7190740D01*
X16847868Y7343091D02*
X16746301D01*
Y7317699D01*
X16847868Y7216132D01*
Y7190740D01*
X16695518Y7317699D02*
X16670126Y7343091D01*
X16619344D01*
X16593951Y7317699D01*
Y7292307D01*
X16619344Y7266915D01*
X16644736D01*
X16619344D01*
X16593951Y7241523D01*
Y7216132D01*
X16619344Y7190740D01*
X16670126D01*
X16695518Y7216132D01*
X18521680Y8371840D02*
Y8524191D01*
X18445505D01*
X18420113Y8498799D01*
Y8448015D01*
X18445505Y8422623D01*
X18521680D01*
X18470897D02*
X18420113Y8371840D01*
X18369328Y8524191D02*
X18267763D01*
Y8498799D01*
X18369328Y8397232D01*
Y8371840D01*
X18115411D02*
X18216978D01*
X18115411Y8473407D01*
Y8498799D01*
X18140804Y8524191D01*
X18191586D01*
X18216978Y8498799D01*
X17000220Y6642100D02*
Y6794451D01*
X16924045D01*
X16898653Y6769059D01*
Y6718275D01*
X16924045Y6692883D01*
X17000220D01*
X16949437D02*
X16898653Y6642100D01*
X16746301Y6794451D02*
X16797086Y6769059D01*
X16847868Y6718275D01*
Y6667492D01*
X16822478Y6642100D01*
X16771693D01*
X16746301Y6667492D01*
Y6692883D01*
X16771693Y6718275D01*
X16847868D01*
X16695518Y6667492D02*
X16670126Y6642100D01*
X16619344D01*
X16593951Y6667492D01*
Y6769059D01*
X16619344Y6794451D01*
X16670126D01*
X16695518Y6769059D01*
Y6743667D01*
X16670126Y6718275D01*
X16593951D01*
X17010381Y8260080D02*
Y8412431D01*
X16934206D01*
X16908813Y8387039D01*
Y8336255D01*
X16934206Y8310863D01*
X17010381D01*
X16959596D02*
X16908813Y8260080D01*
X16756462Y8412431D02*
X16807246Y8387039D01*
X16858029Y8336255D01*
Y8285472D01*
X16832637Y8260080D01*
X16781854D01*
X16756462Y8285472D01*
Y8310863D01*
X16781854Y8336255D01*
X16858029D01*
X16705679Y8412431D02*
X16604111D01*
Y8387039D01*
X16705679Y8285472D01*
Y8260080D01*
X16977361Y13853160D02*
Y14005511D01*
X16901186D01*
X16875793Y13980119D01*
Y13929335D01*
X16901186Y13903943D01*
X16977361D01*
X16926578D02*
X16875793Y13853160D01*
X16723442D02*
X16825009D01*
X16723442Y13954727D01*
Y13980119D01*
X16748834Y14005511D01*
X16799617D01*
X16825009Y13980119D01*
X16672659D02*
X16647267Y14005511D01*
X16596483D01*
X16571091Y13980119D01*
Y13878552D01*
X16596483Y13853160D01*
X16647267D01*
X16672659Y13878552D01*
Y13980119D01*
X17823180Y13464540D02*
Y13616891D01*
X17747005D01*
X17721613Y13591499D01*
Y13540715D01*
X17747005Y13515323D01*
X17823180D01*
X17772397D02*
X17721613Y13464540D01*
X17670828D02*
X17620045D01*
X17645438D01*
Y13616891D01*
X17670828Y13591499D01*
X17442303Y13616891D02*
X17543871D01*
Y13540715D01*
X17493086Y13566107D01*
X17467696D01*
X17442303Y13540715D01*
Y13489932D01*
X17467696Y13464540D01*
X17518478D01*
X17543871Y13489932D01*
X18493739Y7145020D02*
Y7297371D01*
X18417564D01*
X18392172Y7271979D01*
Y7221195D01*
X18417564Y7195803D01*
X18493739D01*
X18239822Y7297371D02*
X18290607Y7271979D01*
X18341389Y7221195D01*
Y7170412D01*
X18315997Y7145020D01*
X18265215D01*
X18239822Y7170412D01*
Y7195803D01*
X18265215Y7221195D01*
X18341389D01*
X19972020Y12750751D02*
Y12598400D01*
X19895845D01*
X19870453Y12623792D01*
Y12725359D01*
X19895845Y12750751D01*
X19972020D01*
X19718102Y12598400D02*
X19819669D01*
X19718102Y12699967D01*
Y12725359D01*
X19743494Y12750751D01*
X19794276D01*
X19819669Y12725359D01*
X19667319Y12598400D02*
X19616534D01*
X19641927D01*
Y12750751D01*
X19667319Y12725359D01*
X17381219Y8260080D02*
Y8412431D01*
X17305045D01*
X17279652Y8387039D01*
Y8336255D01*
X17305045Y8310863D01*
X17381219D01*
X17330437D02*
X17279652Y8260080D01*
X17228870D02*
Y8412431D01*
X17152695D01*
X17127303Y8387039D01*
Y8336255D01*
X17152695Y8310863D01*
X17228870D01*
X17076518Y8260080D02*
X17025735D01*
X17051128D01*
Y8412431D01*
X17076518Y8387039D01*
X16949561D02*
X16924168Y8412431D01*
X16873384D01*
X16847992Y8387039D01*
Y8361647D01*
X16873384Y8336255D01*
X16898776D01*
X16873384D01*
X16847992Y8310863D01*
Y8285472D01*
X16873384Y8260080D01*
X16924168D01*
X16949561Y8285472D01*
X17386301Y7198360D02*
Y7350711D01*
X17310126D01*
X17284734Y7325319D01*
Y7274535D01*
X17310126Y7249143D01*
X17386301D01*
X17335516D02*
X17284734Y7198360D01*
X17233949D02*
Y7350711D01*
X17157774D01*
X17132382Y7325319D01*
Y7274535D01*
X17157774Y7249143D01*
X17233949D01*
X17081599Y7198360D02*
X17030815D01*
X17056207D01*
Y7350711D01*
X17081599Y7325319D01*
X16954640Y7198360D02*
X16903856D01*
X16929248D01*
Y7350711D01*
X16954640Y7325319D01*
X9324340Y13004800D02*
Y13157150D01*
X9248165D01*
X9222773Y13131760D01*
Y13080975D01*
X9248165Y13055583D01*
X9324340D01*
X9273557D02*
X9222773Y13004800D01*
X9171989Y13030193D02*
X9146597Y13004800D01*
X9095814D01*
X9070422Y13030193D01*
Y13131760D01*
X9095814Y13157150D01*
X9146597D01*
X9171989Y13131760D01*
Y13106367D01*
X9146597Y13080975D01*
X9070422D01*
X8943463Y13004800D02*
Y13157150D01*
X9019639Y13080975D01*
X8918071D01*
X8597900Y12998775D02*
Y13151125D01*
X8521725D01*
X8496333Y13125732D01*
Y13074950D01*
X8521725Y13049557D01*
X8597900D01*
X8547117D02*
X8496333Y12998775D01*
X8445549Y13024165D02*
X8420157Y12998775D01*
X8369374D01*
X8343982Y13024165D01*
Y13125732D01*
X8369374Y13151125D01*
X8420157D01*
X8445549Y13125732D01*
Y13100342D01*
X8420157Y13074950D01*
X8343982D01*
X8293199Y13125732D02*
X8267807Y13151125D01*
X8217023D01*
X8191631Y13125732D01*
Y13100342D01*
X8217023Y13074950D01*
X8242415D01*
X8217023D01*
X8191631Y13049557D01*
Y13024165D01*
X8217023Y12998775D01*
X8267807D01*
X8293199Y13024165D01*
X7904480Y12993694D02*
Y13146045D01*
X7828305D01*
X7802913Y13120653D01*
Y13069870D01*
X7828305Y13044478D01*
X7904480D01*
X7853697D02*
X7802913Y12993694D01*
X7752129Y13019086D02*
X7726737Y12993694D01*
X7675954D01*
X7650562Y13019086D01*
Y13120653D01*
X7675954Y13146045D01*
X7726737D01*
X7752129Y13120653D01*
Y13095262D01*
X7726737Y13069870D01*
X7650562D01*
X7498211Y12993694D02*
X7599779D01*
X7498211Y13095262D01*
Y13120653D01*
X7523603Y13146045D01*
X7574387D01*
X7599779Y13120653D01*
X14909801Y6322060D02*
Y6169709D01*
X14985976D01*
X15011366Y6195101D01*
Y6245885D01*
X14985976Y6271277D01*
X14909801D01*
X14960583D02*
X15011366Y6322060D01*
X15062151Y6169709D02*
X15163718D01*
Y6195101D01*
X15062151Y6296668D01*
Y6322060D01*
X15214500Y6195101D02*
X15239893Y6169709D01*
X15290677D01*
X15316069Y6195101D01*
Y6220493D01*
X15290677Y6245885D01*
X15316069Y6271277D01*
Y6296668D01*
X15290677Y6322060D01*
X15239893D01*
X15214500Y6296668D01*
Y6271277D01*
X15239893Y6245885D01*
X15214500Y6220493D01*
Y6195101D01*
X15239893Y6245885D02*
X15290677D01*
X18178780Y8369300D02*
Y8521651D01*
X18102605D01*
X18077213Y8496259D01*
Y8445475D01*
X18102605Y8420083D01*
X18178780D01*
X18127997D02*
X18077213Y8369300D01*
X18026430Y8521651D02*
X17924863D01*
Y8496259D01*
X18026430Y8394692D01*
Y8369300D01*
X17874078Y8521651D02*
X17772511D01*
Y8496259D01*
X17874078Y8394692D01*
Y8369300D01*
X16421100Y8719170D02*
Y8566819D01*
X16497275D01*
X16522667Y8592211D01*
Y8642994D01*
X16497275Y8668386D01*
X16421100D01*
X16471883D02*
X16522667Y8719170D01*
X16675018Y8566819D02*
X16624234Y8592211D01*
X16573451Y8642994D01*
Y8693778D01*
X16598843Y8719170D01*
X16649626D01*
X16675018Y8693778D01*
Y8668386D01*
X16649626Y8642994D01*
X16573451D01*
X16725801Y8592211D02*
X16751193Y8566819D01*
X16801978D01*
X16827370Y8592211D01*
Y8693778D01*
X16801978Y8719170D01*
X16751193D01*
X16725801Y8693778D01*
Y8592211D01*
X17010381Y8753785D02*
Y8906136D01*
X16934206D01*
X16908813Y8880744D01*
Y8829960D01*
X16934206Y8804568D01*
X17010381D01*
X16959596D02*
X16908813Y8753785D01*
X16756462Y8906136D02*
X16858029D01*
Y8829960D01*
X16807246Y8855352D01*
X16781854D01*
X16756462Y8829960D01*
Y8779177D01*
X16781854Y8753785D01*
X16832637D01*
X16858029Y8779177D01*
X16604111Y8906136D02*
X16654895Y8880744D01*
X16705679Y8829960D01*
Y8779177D01*
X16680287Y8753785D01*
X16629503D01*
X16604111Y8779177D01*
Y8804568D01*
X16629503Y8829960D01*
X16705679D01*
X18150841Y11026140D02*
Y11178491D01*
X18074664D01*
X18049274Y11153099D01*
Y11102315D01*
X18074664Y11076923D01*
X18150841D01*
X18100056D02*
X18049274Y11026140D01*
X17896922Y11178491D02*
X17998489D01*
Y11102315D01*
X17947707Y11127707D01*
X17922314D01*
X17896922Y11102315D01*
Y11051532D01*
X17922314Y11026140D01*
X17973097D01*
X17998489Y11051532D01*
X17846140Y11153099D02*
X17820747Y11178491D01*
X17769963D01*
X17744571Y11153099D01*
Y11127707D01*
X17769963Y11102315D01*
X17795355D01*
X17769963D01*
X17744571Y11076923D01*
Y11051532D01*
X17769963Y11026140D01*
X17820747D01*
X17846140Y11051532D01*
X15186659Y10096500D02*
Y10248851D01*
X15110484D01*
X15085094Y10223459D01*
Y10172675D01*
X15110484Y10147283D01*
X15186659D01*
X15135876D02*
X15085094Y10096500D01*
X14932742Y10248851D02*
X15034309D01*
Y10172675D01*
X14983527Y10198067D01*
X14958134D01*
X14932742Y10172675D01*
Y10121892D01*
X14958134Y10096500D01*
X15008917D01*
X15034309Y10121892D01*
X14780391Y10096500D02*
X14881960D01*
X14780391Y10198067D01*
Y10223459D01*
X14805783Y10248851D01*
X14856567D01*
X14881960Y10223459D01*
X18107660Y11869420D02*
Y12021771D01*
X18031485D01*
X18006093Y11996379D01*
Y11945595D01*
X18031485Y11920203D01*
X18107660D01*
X18056877D02*
X18006093Y11869420D01*
X17853741Y12021771D02*
X17955309D01*
Y11945595D01*
X17904526Y11970987D01*
X17879134D01*
X17853741Y11945595D01*
Y11894812D01*
X17879134Y11869420D01*
X17929916D01*
X17955309Y11894812D01*
X17802959Y11869420D02*
X17752174D01*
X17777567D01*
Y12021771D01*
X17802959Y11996379D01*
X16977361Y11190294D02*
Y11342645D01*
X16901186D01*
X16875793Y11317253D01*
Y11266470D01*
X16901186Y11241078D01*
X16977361D01*
X16926578D02*
X16875793Y11190294D01*
X16723442Y11342645D02*
X16825009D01*
Y11266470D01*
X16774226Y11291862D01*
X16748834D01*
X16723442Y11266470D01*
Y11215686D01*
X16748834Y11190294D01*
X16799617D01*
X16825009Y11215686D01*
X16672659Y11317253D02*
X16647267Y11342645D01*
X16596483D01*
X16571091Y11317253D01*
Y11215686D01*
X16596483Y11190294D01*
X16647267D01*
X16672659Y11215686D01*
Y11317253D01*
X18521680Y11026140D02*
Y11178491D01*
X18445505D01*
X18420113Y11153099D01*
Y11102315D01*
X18445505Y11076923D01*
X18521680D01*
X18470897D02*
X18420113Y11026140D01*
X18293153D02*
Y11178491D01*
X18369328Y11102315D01*
X18267763D01*
X18216978Y11051532D02*
X18191586Y11026140D01*
X18140804D01*
X18115411Y11051532D01*
Y11153099D01*
X18140804Y11178491D01*
X18191586D01*
X18216978Y11153099D01*
Y11127707D01*
X18191586Y11102315D01*
X18115411D01*
X16995140Y10632440D02*
Y10784791D01*
X16918965D01*
X16893573Y10759399D01*
Y10708615D01*
X16918965Y10683223D01*
X16995140D01*
X16944357D02*
X16893573Y10632440D01*
X16766614D02*
Y10784791D01*
X16842789Y10708615D01*
X16741222D01*
X16690439Y10784791D02*
X16588870D01*
Y10759399D01*
X16690439Y10657832D01*
Y10632440D01*
X18516600Y11869420D02*
Y12021771D01*
X18440425D01*
X18415033Y11996379D01*
Y11945595D01*
X18440425Y11920203D01*
X18516600D01*
X18465817D02*
X18415033Y11869420D01*
X18288074D02*
Y12021771D01*
X18364249Y11945595D01*
X18262682D01*
X18110332Y12021771D02*
X18161115Y11996379D01*
X18211899Y11945595D01*
Y11894812D01*
X18186507Y11869420D01*
X18135722D01*
X18110332Y11894812D01*
Y11920203D01*
X18135722Y11945595D01*
X18211899D01*
X16992599Y10063480D02*
Y10215831D01*
X16916425D01*
X16891032Y10190439D01*
Y10139655D01*
X16916425Y10114263D01*
X16992599D01*
X16941817D02*
X16891032Y10063480D01*
X16764075D02*
Y10215831D01*
X16840250Y10139655D01*
X16738683D01*
X16687898Y10190439D02*
X16662508Y10215831D01*
X16611723D01*
X16586331Y10190439D01*
Y10165047D01*
X16611723Y10139655D01*
X16637115D01*
X16611723D01*
X16586331Y10114263D01*
Y10088872D01*
X16611723Y10063480D01*
X16662508D01*
X16687898Y10088872D01*
X16929100Y11749094D02*
Y11901445D01*
X16852925D01*
X16827533Y11876053D01*
Y11825270D01*
X16852925Y11799878D01*
X16929100D01*
X16878317D02*
X16827533Y11749094D01*
X16700574D02*
Y11901445D01*
X16776749Y11825270D01*
X16675182D01*
X16624399Y11749094D02*
X16573615D01*
X16599007D01*
Y11901445D01*
X16624399Y11876053D01*
X16977361Y12783820D02*
Y12936171D01*
X16901186D01*
X16875793Y12910779D01*
Y12859995D01*
X16901186Y12834602D01*
X16977361D01*
X16926578D02*
X16875793Y12783820D01*
X16825009Y12910779D02*
X16799617Y12936171D01*
X16748834D01*
X16723442Y12910779D01*
Y12885387D01*
X16748834Y12859995D01*
X16774226D01*
X16748834D01*
X16723442Y12834602D01*
Y12809212D01*
X16748834Y12783820D01*
X16799617D01*
X16825009Y12809212D01*
X16596483Y12783820D02*
Y12936171D01*
X16672659Y12859995D01*
X16571091D01*
X16977361Y12250420D02*
Y12402771D01*
X16901186D01*
X16875793Y12377379D01*
Y12326595D01*
X16901186Y12301203D01*
X16977361D01*
X16926578D02*
X16875793Y12250420D01*
X16723442D02*
X16825009D01*
X16723442Y12351987D01*
Y12377379D01*
X16748834Y12402771D01*
X16799617D01*
X16825009Y12377379D01*
X16672659Y12275812D02*
X16647267Y12250420D01*
X16596483D01*
X16571091Y12275812D01*
Y12377379D01*
X16596483Y12402771D01*
X16647267D01*
X16672659Y12377379D01*
Y12351987D01*
X16647267Y12326595D01*
X16571091D01*
X18133060Y14211301D02*
Y14363651D01*
X18056885D01*
X18031493Y14338258D01*
Y14287476D01*
X18056885Y14262083D01*
X18133060D01*
X18082277D02*
X18031493Y14211301D01*
X17879143D02*
X17980708D01*
X17879143Y14312868D01*
Y14338258D01*
X17904533Y14363651D01*
X17955318D01*
X17980708Y14338258D01*
X17726791Y14363651D02*
X17777576Y14338258D01*
X17828358Y14287476D01*
Y14236691D01*
X17802966Y14211301D01*
X17752184D01*
X17726791Y14236691D01*
Y14262083D01*
X17752184Y14287476D01*
X17828358D01*
X15356841Y13398500D02*
Y13550851D01*
X15280666D01*
X15255273Y13525459D01*
Y13474675D01*
X15280666Y13449283D01*
X15356841D01*
X15306058D02*
X15255273Y13398500D01*
X15102922D02*
X15204489D01*
X15102922Y13500067D01*
Y13525459D01*
X15128314Y13550851D01*
X15179097D01*
X15204489Y13525459D01*
X14950571Y13550851D02*
X15052139D01*
Y13474675D01*
X15001355Y13500067D01*
X14975963D01*
X14950571Y13474675D01*
Y13423892D01*
X14975963Y13398500D01*
X15026747D01*
X15052139Y13423892D01*
X18133060Y15046014D02*
Y15198364D01*
X18056885D01*
X18031493Y15172974D01*
Y15122189D01*
X18056885Y15096799D01*
X18133060D01*
X18082277D02*
X18031493Y15046014D01*
X17879143D02*
X17980708D01*
X17879143Y15147581D01*
Y15172974D01*
X17904533Y15198364D01*
X17955318D01*
X17980708Y15172974D01*
X17752184Y15046014D02*
Y15198364D01*
X17828358Y15122189D01*
X17726791D01*
X16380460Y13758234D02*
Y13605882D01*
X16456635D01*
X16482027Y13631274D01*
Y13682059D01*
X16456635Y13707449D01*
X16380460D01*
X16431242D02*
X16482027Y13758234D01*
X16634378D02*
X16532811D01*
X16634378Y13656667D01*
Y13631274D01*
X16608986Y13605882D01*
X16558203D01*
X16532811Y13631274D01*
X16685161D02*
X16710553Y13605882D01*
X16761337D01*
X16786729Y13631274D01*
Y13656667D01*
X16761337Y13682059D01*
X16735945D01*
X16761337D01*
X16786729Y13707449D01*
Y13732841D01*
X16761337Y13758234D01*
X16710553D01*
X16685161Y13732841D01*
X18514059Y14226540D02*
Y14378891D01*
X18437885D01*
X18412492Y14353499D01*
Y14302715D01*
X18437885Y14277322D01*
X18514059D01*
X18463277D02*
X18412492Y14226540D01*
X18260143D02*
X18361710D01*
X18260143Y14328107D01*
Y14353499D01*
X18285535Y14378891D01*
X18336317D01*
X18361710Y14353499D01*
X18107791Y14226540D02*
X18209360D01*
X18107791Y14328107D01*
Y14353499D01*
X18133183Y14378891D01*
X18183968D01*
X18209360Y14353499D01*
X18481039Y15040286D02*
Y15192636D01*
X18404865D01*
X18379472Y15167244D01*
Y15116461D01*
X18404865Y15091069D01*
X18481039D01*
X18430257D02*
X18379472Y15040286D01*
X18328690D02*
X18277905D01*
X18303297D01*
Y15192636D01*
X18328690Y15167244D01*
X18201730Y15065678D02*
X18176340Y15040286D01*
X18125555D01*
X18100163Y15065678D01*
Y15167244D01*
X18125555Y15192636D01*
X18176340D01*
X18201730Y15167244D01*
Y15141853D01*
X18176340Y15116461D01*
X18100163D01*
X16951961Y13298494D02*
Y13450845D01*
X16875784D01*
X16850394Y13425453D01*
Y13374670D01*
X16875784Y13349278D01*
X16951961D01*
X16901176D02*
X16850394Y13298494D01*
X16799609D02*
X16748827D01*
X16774217D01*
Y13450845D01*
X16799609Y13425453D01*
X16571083Y13450845D02*
X16621867Y13425453D01*
X16672650Y13374670D01*
Y13323886D01*
X16647260Y13298494D01*
X16596475D01*
X16571083Y13323886D01*
Y13349278D01*
X16596475Y13374670D01*
X16672650D01*
X16403320Y14324005D02*
Y14171654D01*
X16479495D01*
X16504887Y14197046D01*
Y14247830D01*
X16479495Y14273222D01*
X16403320D01*
X16454103D02*
X16504887Y14324005D01*
X16555672D02*
X16606454D01*
X16581062D01*
Y14171654D01*
X16555672Y14197046D01*
X16758804Y14324005D02*
Y14171654D01*
X16682629Y14247830D01*
X16784196D01*
X16817340Y15420340D02*
Y15572691D01*
X16741165D01*
X16715773Y15547299D01*
Y15496515D01*
X16741165Y15471123D01*
X16817340D01*
X16766557D02*
X16715773Y15420340D01*
X16563422D02*
X16664989D01*
X16563422Y15521907D01*
Y15547299D01*
X16588814Y15572691D01*
X16639597D01*
X16664989Y15547299D01*
X6906260Y13548360D02*
Y13700711D01*
X6830085D01*
X6804693Y13675319D01*
Y13624535D01*
X6830085Y13599142D01*
X6906260D01*
X6753909Y13675319D02*
X6728517Y13700711D01*
X6677734D01*
X6652342Y13675319D01*
Y13649927D01*
X6677734Y13624535D01*
X6652342Y13599142D01*
Y13573752D01*
X6677734Y13548360D01*
X6728517D01*
X6753909Y13573752D01*
Y13599142D01*
X6728517Y13624535D01*
X6753909Y13649927D01*
Y13675319D01*
X6728517Y13624535D02*
X6677734D01*
X20537415Y12816701D02*
Y12969052D01*
X20461240D01*
X20435847Y12943660D01*
Y12892876D01*
X20461240Y12867485D01*
X20537415D01*
X20385065Y12969052D02*
X20283498D01*
Y12943660D01*
X20385065Y12842093D01*
Y12816701D01*
X18483580Y9230360D02*
Y9382711D01*
X18407405D01*
X18382013Y9357319D01*
Y9306535D01*
X18407405Y9281143D01*
X18483580D01*
X18229662Y9382711D02*
X18331229D01*
Y9306535D01*
X18280446Y9331927D01*
X18255054D01*
X18229662Y9306535D01*
Y9255752D01*
X18255054Y9230360D01*
X18305836D01*
X18331229Y9255752D01*
X18112740Y10543540D02*
Y10695891D01*
X18036565D01*
X18011172Y10670499D01*
Y10619715D01*
X18036565Y10594323D01*
X18112740D01*
X17884213Y10543540D02*
Y10695891D01*
X17960390Y10619715D01*
X17858823D01*
X18094960Y12738100D02*
Y12890451D01*
X18018785D01*
X17993393Y12865059D01*
Y12814275D01*
X18018785Y12788883D01*
X18094960D01*
X17942609Y12865059D02*
X17917216Y12890451D01*
X17866434D01*
X17841042Y12865059D01*
Y12839667D01*
X17866434Y12814275D01*
X17891826D01*
X17866434D01*
X17841042Y12788883D01*
Y12763492D01*
X17866434Y12738100D01*
X17917216D01*
X17942609Y12763492D01*
X18478500Y13749020D02*
Y13901370D01*
X18402325D01*
X18376933Y13875980D01*
Y13825195D01*
X18402325Y13799803D01*
X18478500D01*
X18224582Y13749020D02*
X18326149D01*
X18224582Y13850587D01*
Y13875980D01*
X18249974Y13901370D01*
X18300757D01*
X18326149Y13875980D01*
X18460719Y15908020D02*
Y16060371D01*
X18384544D01*
X18359154Y16034979D01*
Y15984195D01*
X18384544Y15958803D01*
X18460719D01*
X18308369Y15908020D02*
X18257587D01*
X18282977D01*
Y16060371D01*
X18308369Y16034979D01*
X9502173Y13136839D02*
X9527565Y13162231D01*
X9578348D01*
X9603740Y13136839D01*
Y13035272D01*
X9578348Y13009880D01*
X9527565D01*
X9502173Y13035272D01*
X9451389Y13136839D02*
X9425997Y13162231D01*
X9375214D01*
X9349822Y13136839D01*
Y13111447D01*
X9375214Y13086055D01*
X9400606D01*
X9375214D01*
X9349822Y13060663D01*
Y13035272D01*
X9375214Y13009880D01*
X9425997D01*
X9451389Y13035272D01*
X9299039Y13136839D02*
X9273647Y13162231D01*
X9222863D01*
X9197471Y13136839D01*
Y13035272D01*
X9222863Y13009880D01*
X9273647D01*
X9299039Y13035272D01*
Y13136839D01*
X8790973Y13130582D02*
X8816365Y13155972D01*
X8867148D01*
X8892540Y13130582D01*
Y13029015D01*
X8867148Y13003622D01*
X8816365D01*
X8790973Y13029015D01*
X8638622Y13003622D02*
X8740189D01*
X8638622Y13105190D01*
Y13130582D01*
X8664014Y13155972D01*
X8714797D01*
X8740189Y13130582D01*
X8587839Y13029015D02*
X8562447Y13003622D01*
X8511663D01*
X8486271Y13029015D01*
Y13130582D01*
X8511663Y13155972D01*
X8562447D01*
X8587839Y13130582D01*
Y13105190D01*
X8562447Y13079797D01*
X8486271D01*
X8092473Y13124139D02*
X8117865Y13149532D01*
X8168648D01*
X8194040Y13124139D01*
Y13022572D01*
X8168648Y12997180D01*
X8117865D01*
X8092473Y13022572D01*
X7940122Y12997180D02*
X8041689D01*
X7940122Y13098747D01*
Y13124139D01*
X7965514Y13149532D01*
X8016297D01*
X8041689Y13124139D01*
X7889339D02*
X7863947Y13149532D01*
X7813163D01*
X7787771Y13124139D01*
Y13098747D01*
X7813163Y13073355D01*
X7787771Y13047963D01*
Y13022572D01*
X7813163Y12997180D01*
X7863947D01*
X7889339Y13022572D01*
Y13047963D01*
X7863947Y13073355D01*
X7889339Y13098747D01*
Y13124139D01*
X7863947Y13073355D02*
X7813163D01*
X16106174Y7998419D02*
X16131564Y8023811D01*
X16182349D01*
X16207739Y7998419D01*
Y7896852D01*
X16182349Y7871460D01*
X16131564D01*
X16106174Y7896852D01*
X15953822Y7871460D02*
X16055389D01*
X15953822Y7973027D01*
Y7998419D01*
X15979214Y8023811D01*
X16029997D01*
X16055389Y7998419D01*
X15826863Y7871460D02*
Y8023811D01*
X15903040Y7947635D01*
X15801471D01*
X16593854Y7631297D02*
X16619244Y7656689D01*
X16670029D01*
X16695419Y7631297D01*
Y7529730D01*
X16670029Y7504339D01*
X16619244D01*
X16593854Y7529730D01*
X16441502Y7504339D02*
X16543069D01*
X16441502Y7605906D01*
Y7631297D01*
X16466895Y7656689D01*
X16517677D01*
X16543069Y7631297D01*
X16390720D02*
X16365327Y7656689D01*
X16314543D01*
X16289151Y7631297D01*
Y7605906D01*
X16314543Y7580514D01*
X16339935D01*
X16314543D01*
X16289151Y7555122D01*
Y7529730D01*
X16314543Y7504339D01*
X16365327D01*
X16390720Y7529730D01*
X15549913Y11996379D02*
X15575305Y12021771D01*
X15626088D01*
X15651480Y11996379D01*
Y11894812D01*
X15626088Y11869420D01*
X15575305D01*
X15549913Y11894812D01*
X15397562Y11869420D02*
X15499129D01*
X15397562Y11970987D01*
Y11996379D01*
X15422954Y12021771D01*
X15473737D01*
X15499129Y11996379D01*
X15245210Y11869420D02*
X15346779D01*
X15245210Y11970987D01*
Y11996379D01*
X15270602Y12021771D01*
X15321387D01*
X15346779Y11996379D01*
X15021593Y9128719D02*
X15046985Y9154111D01*
X15097768D01*
X15123160Y9128719D01*
Y9027152D01*
X15097768Y9001760D01*
X15046985D01*
X15021593Y9027152D01*
X14970808Y9001760D02*
X14920026D01*
X14945416D01*
Y9154111D01*
X14970808Y9128719D01*
X14843851Y9027152D02*
X14818459Y9001760D01*
X14767674D01*
X14742284Y9027152D01*
Y9128719D01*
X14767674Y9154111D01*
X14818459D01*
X14843851Y9128719D01*
Y9103327D01*
X14818459Y9077935D01*
X14742284D01*
X16004573Y11462979D02*
X16029965Y11488371D01*
X16080748D01*
X16106140Y11462979D01*
Y11361412D01*
X16080748Y11336020D01*
X16029965D01*
X16004573Y11361412D01*
X15953789Y11336020D02*
X15903006D01*
X15928397D01*
Y11488371D01*
X15953789Y11462979D01*
X15826830D02*
X15801439Y11488371D01*
X15750655D01*
X15725262Y11462979D01*
Y11437587D01*
X15750655Y11412195D01*
X15725262Y11386803D01*
Y11361412D01*
X15750655Y11336020D01*
X15801439D01*
X15826830Y11361412D01*
Y11386803D01*
X15801439Y11412195D01*
X15826830Y11437587D01*
Y11462979D01*
X15801439Y11412195D02*
X15750655D01*
X16144206Y10260462D02*
X16118816Y10235070D01*
X16068031D01*
X16042641Y10260462D01*
Y10362029D01*
X16068031Y10387421D01*
X16118816D01*
X16144206Y10362029D01*
X16194991Y10387421D02*
X16245773D01*
X16220383D01*
Y10235070D01*
X16194991Y10260462D01*
X16321950Y10235070D02*
X16423517D01*
Y10260462D01*
X16321950Y10362029D01*
Y10387421D01*
X14960632Y12412939D02*
X14986024Y12438331D01*
X15036807D01*
X15062199Y12412939D01*
Y12311372D01*
X15036807Y12285980D01*
X14986024D01*
X14960632Y12311372D01*
X14909850Y12285980D02*
X14859065D01*
X14884457D01*
Y12438331D01*
X14909850Y12412939D01*
X14782890D02*
X14757500Y12438331D01*
X14706715D01*
X14681323Y12412939D01*
Y12387547D01*
X14706715Y12362155D01*
X14732108D01*
X14706715D01*
X14681323Y12336763D01*
Y12311372D01*
X14706715Y12285980D01*
X14757500D01*
X14782890Y12311372D01*
X16012193Y14881819D02*
X16037585Y14907211D01*
X16088368D01*
X16113760Y14881819D01*
Y14780252D01*
X16088368Y14754860D01*
X16037585D01*
X16012193Y14780252D01*
X15961409Y14754860D02*
X15910626D01*
X15936017D01*
Y14907211D01*
X15961409Y14881819D01*
X15834450D02*
X15809059Y14907211D01*
X15758275D01*
X15732883Y14881819D01*
Y14780252D01*
X15758275Y14754860D01*
X15809059D01*
X15834450Y14780252D01*
Y14881819D01*
X16339787Y13443082D02*
X16314395Y13417690D01*
X16263612D01*
X16238220Y13443082D01*
Y13544649D01*
X16263612Y13570041D01*
X16314395D01*
X16339787Y13544649D01*
X16390572D02*
X16415964Y13570041D01*
X16466747D01*
X16492139Y13544649D01*
Y13443082D01*
X16466747Y13417690D01*
X16415964D01*
X16390572Y13443082D01*
Y13468474D01*
X16415964Y13493866D01*
X16492139D01*
X15613412Y8526739D02*
X15638805Y8552131D01*
X15689587D01*
X15714980Y8526739D01*
Y8425172D01*
X15689587Y8399780D01*
X15638805D01*
X15613412Y8425172D01*
X15562630Y8526739D02*
X15537238Y8552131D01*
X15486453D01*
X15461063Y8526739D01*
Y8501347D01*
X15486453Y8475955D01*
X15461063Y8450563D01*
Y8425172D01*
X15486453Y8399780D01*
X15537238D01*
X15562630Y8425172D01*
Y8450563D01*
X15537238Y8475955D01*
X15562630Y8501347D01*
Y8526739D01*
X15537238Y8475955D02*
X15486453D01*
X15923198Y17348225D02*
Y17500575D01*
X15847023D01*
X15821631Y17475183D01*
Y17424400D01*
X15847023Y17399008D01*
X15923198D01*
X15770848Y17348225D02*
X15720064D01*
X15745456D01*
Y17500575D01*
X15770848Y17475183D01*
X15567712Y17348225D02*
Y17500575D01*
X15643889Y17424400D01*
X15542320D01*
X22026817Y17307585D02*
Y17459935D01*
X21950642D01*
X21925250Y17434543D01*
Y17383760D01*
X21950642Y17358368D01*
X22026817D01*
X21874467Y17307585D02*
X21823685D01*
X21849075D01*
Y17459935D01*
X21874467Y17434543D01*
X21747508D02*
X21722118Y17459935D01*
X21671333D01*
X21645941Y17434543D01*
Y17409152D01*
X21671333Y17383760D01*
X21696725D01*
X21671333D01*
X21645941Y17358368D01*
Y17332977D01*
X21671333Y17307585D01*
X21722118D01*
X21747508Y17332977D01*
X18963577Y17289806D02*
Y17442155D01*
X18887402D01*
X18862012Y17416763D01*
Y17365981D01*
X18887402Y17340588D01*
X18963577D01*
X18811227Y17289806D02*
X18760445D01*
X18785835D01*
Y17442155D01*
X18811227Y17416763D01*
X18582701Y17289806D02*
X18684270D01*
X18582701Y17391373D01*
Y17416763D01*
X18608093Y17442155D01*
X18658878D01*
X18684270Y17416763D01*
X12824406Y17307585D02*
Y17459935D01*
X12748231D01*
X12722839Y17434543D01*
Y17383760D01*
X12748231Y17358368D01*
X12824406D01*
X12672056Y17307585D02*
X12621272D01*
X12646664D01*
Y17459935D01*
X12672056Y17434543D01*
X12545097Y17307585D02*
X12494313D01*
X12519705D01*
Y17459935D01*
X12545097Y17434543D01*
X6636958Y17322826D02*
Y17475175D01*
X6560783D01*
X6535391Y17449783D01*
Y17399001D01*
X6560783Y17373608D01*
X6636958D01*
X6484608Y17322826D02*
X6433824D01*
X6459216D01*
Y17475175D01*
X6484608Y17449783D01*
X6357649D02*
X6332257Y17475175D01*
X6281473D01*
X6256081Y17449783D01*
Y17348216D01*
X6281473Y17322826D01*
X6332257D01*
X6357649Y17348216D01*
Y17449783D01*
X9738319Y17317744D02*
Y17470094D01*
X9662143D01*
X9636752Y17444704D01*
Y17393919D01*
X9662143Y17368529D01*
X9738319D01*
X9585968Y17343137D02*
X9560576Y17317744D01*
X9509793D01*
X9484401Y17343137D01*
Y17444704D01*
X9509793Y17470094D01*
X9560576D01*
X9585968Y17444704D01*
Y17419312D01*
X9560576Y17393919D01*
X9484401D01*
X17607304Y17040794D02*
X17759656D01*
X17683479D01*
Y16939227D01*
X17607304D01*
X17759656D01*
X17632697Y16786876D02*
X17607304Y16812268D01*
Y16863051D01*
X17632697Y16888443D01*
X17658089D01*
X17683479Y16863051D01*
Y16812268D01*
X17708871Y16786876D01*
X17734264D01*
X17759656Y16812268D01*
Y16863051D01*
X17734264Y16888443D01*
X17607304Y16634525D02*
X17632697Y16685309D01*
X17683479Y16736093D01*
X17734264D01*
X17759656Y16710701D01*
Y16659917D01*
X17734264Y16634525D01*
X17708871D01*
X17683479Y16659917D01*
Y16736093D01*
X23802364Y17050954D02*
X23954715D01*
X23878540D01*
Y16949387D01*
X23802364D01*
X23954715D01*
X23827756Y16797037D02*
X23802364Y16822427D01*
Y16873212D01*
X23827756Y16898602D01*
X23853148D01*
X23878540Y16873212D01*
Y16822427D01*
X23903932Y16797037D01*
X23929323D01*
X23954715Y16822427D01*
Y16873212D01*
X23929323Y16898602D01*
X23802364Y16644685D02*
Y16746252D01*
X23878540D01*
X23853148Y16695470D01*
Y16670078D01*
X23878540Y16644685D01*
X23929323D01*
X23954715Y16670078D01*
Y16720860D01*
X23929323Y16746252D01*
X20655305Y16987454D02*
X20807655D01*
X20731480D01*
Y16885887D01*
X20655305D01*
X20807655D01*
X20680698Y16733536D02*
X20655305Y16758928D01*
Y16809712D01*
X20680698Y16835103D01*
X20706088D01*
X20731480Y16809712D01*
Y16758928D01*
X20756873Y16733536D01*
X20782263D01*
X20807655Y16758928D01*
Y16809712D01*
X20782263Y16835103D01*
X20807655Y16606577D02*
X20655305D01*
X20731480Y16682753D01*
Y16581186D01*
X14577084Y17063654D02*
X14729436D01*
X14653259D01*
Y16962086D01*
X14577084D01*
X14729436D01*
X14602477Y16809737D02*
X14577084Y16835127D01*
Y16885912D01*
X14602477Y16911304D01*
X14627869D01*
X14653259Y16885912D01*
Y16835127D01*
X14678651Y16809737D01*
X14704044D01*
X14729436Y16835127D01*
Y16885912D01*
X14704044Y16911304D01*
X14602477Y16758952D02*
X14577084Y16733562D01*
Y16682777D01*
X14602477Y16657385D01*
X14627869D01*
X14653259Y16682777D01*
Y16708170D01*
Y16682777D01*
X14678651Y16657385D01*
X14704044D01*
X14729436Y16682777D01*
Y16733562D01*
X14704044Y16758952D01*
X8492124Y17106834D02*
X8644475D01*
X8568300D01*
Y17005267D01*
X8492124D01*
X8644475D01*
X8517516Y16852916D02*
X8492124Y16878308D01*
Y16929092D01*
X8517516Y16954483D01*
X8542908D01*
X8568300Y16929092D01*
Y16878308D01*
X8593692Y16852916D01*
X8619083D01*
X8644475Y16878308D01*
Y16929092D01*
X8619083Y16954483D01*
X8644475Y16700566D02*
Y16802133D01*
X8542908Y16700566D01*
X8517516D01*
X8492124Y16725957D01*
Y16776741D01*
X8517516Y16802133D01*
X11531624Y17066202D02*
X11683975D01*
X11607800D01*
Y16964635D01*
X11531624D01*
X11683975D01*
X11557016Y16812283D02*
X11531624Y16837675D01*
Y16888458D01*
X11557016Y16913850D01*
X11582408D01*
X11607800Y16888458D01*
Y16837675D01*
X11633192Y16812283D01*
X11658583D01*
X11683975Y16837675D01*
Y16888458D01*
X11658583Y16913850D01*
X11683975Y16761501D02*
Y16710716D01*
Y16736108D01*
X11531624D01*
X11557016Y16761501D01*
X12085271Y7279607D02*
Y7228823D01*
Y7254215D01*
X11958312D01*
X11932920Y7228823D01*
Y7203432D01*
X11958312Y7178040D01*
X11932920Y7330391D02*
Y7381174D01*
Y7355783D01*
X12085271D01*
X12059879Y7330391D01*
Y7457350D02*
X12085271Y7482741D01*
Y7533525D01*
X12059879Y7558917D01*
X11958312D01*
X11932920Y7533525D01*
Y7482741D01*
X11958312Y7457350D01*
X12059879D01*
X12034471Y10787347D02*
Y10736563D01*
Y10761955D01*
X11907512D01*
X11882120Y10736563D01*
Y10711172D01*
X11907512Y10685780D01*
Y10838131D02*
X11882120Y10863523D01*
Y10914306D01*
X11907512Y10939698D01*
X12009079D01*
X12034471Y10914306D01*
Y10863523D01*
X12009079Y10838131D01*
X11983687D01*
X11958295Y10863523D01*
Y10939698D01*
X12015231Y14262067D02*
Y14211282D01*
Y14236674D01*
X11888272D01*
X11862880Y14211282D01*
Y14185892D01*
X11888272Y14160500D01*
X11989839Y14312851D02*
X12015231Y14338243D01*
Y14389026D01*
X11989839Y14414418D01*
X11964447D01*
X11939055Y14389026D01*
X11913663Y14414418D01*
X11888272D01*
X11862880Y14389026D01*
Y14338243D01*
X11888272Y14312851D01*
X11913663D01*
X11939055Y14338243D01*
X11964447Y14312851D01*
X11989839D01*
X11939055Y14338243D02*
Y14389026D01*
X8943340Y14922501D02*
X8790989D01*
Y14846326D01*
X8816381Y14820934D01*
X8867165D01*
X8892557Y14846326D01*
Y14922501D01*
Y14871716D02*
X8943340Y14820934D01*
X8816381Y14770149D02*
X8790989Y14744757D01*
Y14693974D01*
X8816381Y14668582D01*
X8841773D01*
X8867165Y14693974D01*
X8892557Y14668582D01*
X8917948D01*
X8943340Y14693974D01*
Y14744757D01*
X8917948Y14770149D01*
X8892557D01*
X8867165Y14744757D01*
X8841773Y14770149D01*
X8816381D01*
X8867165Y14744757D02*
Y14693974D01*
X8790989Y14617799D02*
Y14516231D01*
X8816381D01*
X8917948Y14617799D01*
X8943340D01*
X8923020Y8036560D02*
X8770669D01*
Y7960385D01*
X8796061Y7934993D01*
X8846845D01*
X8872237Y7960385D01*
Y8036560D01*
Y7985777D02*
X8923020Y7934993D01*
X8897628Y7884209D02*
X8923020Y7858817D01*
Y7808034D01*
X8897628Y7782642D01*
X8796061D01*
X8770669Y7808034D01*
Y7858817D01*
X8796061Y7884209D01*
X8821453D01*
X8846845Y7858817D01*
Y7782642D01*
X8897628Y7731859D02*
X8923020Y7706467D01*
Y7655683D01*
X8897628Y7630291D01*
X8796061D01*
X8770669Y7655683D01*
Y7706467D01*
X8796061Y7731859D01*
X8821453D01*
X8846845Y7706467D01*
Y7630291D01*
X8884920Y11417300D02*
X8732569D01*
Y11341125D01*
X8757961Y11315733D01*
X8808745D01*
X8834137Y11341125D01*
Y11417300D01*
Y11366517D02*
X8884920Y11315733D01*
X8859528Y11264949D02*
X8884920Y11239557D01*
Y11188774D01*
X8859528Y11163382D01*
X8757961D01*
X8732569Y11188774D01*
Y11239557D01*
X8757961Y11264949D01*
X8783353D01*
X8808745Y11239557D01*
Y11163382D01*
X8732569Y11011031D02*
X8757961Y11061815D01*
X8808745Y11112599D01*
X8859528D01*
X8884920Y11087207D01*
Y11036423D01*
X8859528Y11011031D01*
X8834137D01*
X8808745Y11036423D01*
Y11112599D01*
X23350253Y8872179D02*
X23375645Y8897571D01*
X23426428D01*
X23451820Y8872179D01*
Y8770612D01*
X23426428Y8745220D01*
X23375645D01*
X23350253Y8770612D01*
X23299469Y8745220D02*
X23248686D01*
X23274077D01*
Y8897571D01*
X23299469Y8872179D01*
X23070943Y8745220D02*
X23172510D01*
X23070943Y8846787D01*
Y8872179D01*
X23096335Y8897571D01*
X23147119D01*
X23172510Y8872179D01*
X22080220Y11567111D02*
Y11414760D01*
X21978653D01*
X21927869Y11541719D02*
X21902477Y11567111D01*
X21851694D01*
X21826302Y11541719D01*
Y11516327D01*
X21851694Y11490935D01*
X21877086D01*
X21851694D01*
X21826302Y11465543D01*
Y11440152D01*
X21851694Y11414760D01*
X21902477D01*
X21927869Y11440152D01*
X22125940Y15557451D02*
Y15405099D01*
X22024373D01*
X21872021D02*
X21973589D01*
X21872021Y15506667D01*
Y15532059D01*
X21897414Y15557451D01*
X21948196D01*
X21973589Y15532059D01*
X23215601Y16182291D02*
Y16029939D01*
X23114034D01*
X23063249D02*
X23012466D01*
X23037857D01*
Y16182291D01*
X23063249Y16156898D01*
X24206168Y8003581D02*
X24180775Y7978189D01*
X24129993D01*
X24104601Y8003581D01*
Y8105148D01*
X24129993Y8130540D01*
X24180775D01*
X24206168Y8105148D01*
X24256950Y8130540D02*
Y7978189D01*
X24333125D01*
X24358517Y8003581D01*
Y8054365D01*
X24333125Y8079757D01*
X24256950D01*
X24307735D02*
X24358517Y8130540D01*
X24409302D02*
X24460085D01*
X24434692D01*
Y7978189D01*
X24409302Y8003581D01*
X23314693Y12070039D02*
X23340085Y12095431D01*
X23390868D01*
X23416260Y12070039D01*
Y11968472D01*
X23390868Y11943080D01*
X23340085D01*
X23314693Y11968472D01*
X23263908Y11943080D02*
X23213126D01*
X23238518D01*
Y12095431D01*
X23263908Y12070039D01*
X23136951Y11943080D02*
X23086166D01*
X23111559D01*
Y12095431D01*
X23136951Y12070039D01*
X23322313Y13614359D02*
X23347705Y13639751D01*
X23398488D01*
X23423880Y13614359D01*
Y13512791D01*
X23398488Y13487399D01*
X23347705D01*
X23322313Y13512791D01*
X23271529Y13639751D02*
X23169962D01*
Y13614359D01*
X23271529Y13512791D01*
Y13487399D01*
X23327393Y15178999D02*
X23352785Y15204391D01*
X23403568D01*
X23428960Y15178999D01*
Y15077432D01*
X23403568Y15052040D01*
X23352785D01*
X23327393Y15077432D01*
X23175043Y15204391D02*
X23225826Y15178999D01*
X23276608Y15128215D01*
Y15077432D01*
X23251218Y15052040D01*
X23200433D01*
X23175043Y15077432D01*
Y15102823D01*
X23200433Y15128215D01*
X23276608D01*
X24470360Y12672011D02*
Y12545052D01*
X24444968Y12519660D01*
X24394185D01*
X24368793Y12545052D01*
Y12672011D01*
X24318008Y12646619D02*
X24292616Y12672011D01*
X24241833D01*
X24216441Y12646619D01*
Y12621227D01*
X24241833Y12595835D01*
X24267226D01*
X24241833D01*
X24216441Y12570443D01*
Y12545052D01*
X24241833Y12519660D01*
X24292616D01*
X24318008Y12545052D01*
X12420600Y7670800D02*
Y7823151D01*
X12344425D01*
X12319033Y7797759D01*
Y7746975D01*
X12344425Y7721583D01*
X12420600D01*
X12369817D02*
X12319033Y7670800D01*
X12268249D02*
Y7823151D01*
X12192074D01*
X12166682Y7797759D01*
Y7746975D01*
X12192074Y7721583D01*
X12268249D01*
X12115899Y7670800D02*
X12065115D01*
X12090507D01*
Y7823151D01*
X12115899Y7797759D01*
X11887372Y7670800D02*
X11988940D01*
X11887372Y7772367D01*
Y7797759D01*
X11912764Y7823151D01*
X11963548D01*
X11988940Y7797759D01*
X12237720Y11051540D02*
Y11203891D01*
X12161545D01*
X12136153Y11178499D01*
Y11127715D01*
X12161545Y11102323D01*
X12237720D01*
X12186937D02*
X12136153Y11051540D01*
X12085369D02*
Y11203891D01*
X12009194D01*
X11983802Y11178499D01*
Y11127715D01*
X12009194Y11102323D01*
X12085369D01*
X11933019Y11178499D02*
X11907627Y11203891D01*
X11856843D01*
X11831451Y11178499D01*
Y11153107D01*
X11856843Y11127715D01*
X11831451Y11102323D01*
Y11076932D01*
X11856843Y11051540D01*
X11907627D01*
X11933019Y11076932D01*
Y11102323D01*
X11907627Y11127715D01*
X11933019Y11153107D01*
Y11178499D01*
X11907627Y11127715D02*
X11856843D01*
X21518880Y9809480D02*
Y9961831D01*
X21442705D01*
X21417313Y9936439D01*
Y9885655D01*
X21442705Y9860263D01*
X21518880D01*
X21468097D02*
X21417313Y9809480D01*
X21366528D02*
Y9961831D01*
X21290353D01*
X21264961Y9936439D01*
Y9885655D01*
X21290353Y9860263D01*
X21366528D01*
X21112611Y9961831D02*
X21214178D01*
Y9885655D01*
X21163396Y9911047D01*
X21138004D01*
X21112611Y9885655D01*
Y9834872D01*
X21138004Y9809480D01*
X21188786D01*
X21214178Y9834872D01*
X12405426Y13825195D02*
Y13672844D01*
X12481601D01*
X12506993Y13698236D01*
Y13749019D01*
X12481601Y13774411D01*
X12405426D01*
X12456209D02*
X12506993Y13825195D01*
X12557777D02*
Y13672844D01*
X12633952D01*
X12659344Y13698236D01*
Y13749019D01*
X12633952Y13774411D01*
X12557777D01*
X12710127Y13698236D02*
X12735519Y13672844D01*
X12786303D01*
X12811694Y13698236D01*
Y13723628D01*
X12786303Y13749019D01*
X12760911D01*
X12786303D01*
X12811694Y13774411D01*
Y13799803D01*
X12786303Y13825195D01*
X12735519D01*
X12710127Y13799803D01*
X24427180Y14902180D02*
Y15054530D01*
X24351006D01*
X24325613Y15029140D01*
Y14978355D01*
X24351006Y14952963D01*
X24427180D01*
X24376398D02*
X24325613Y14902180D01*
X24173262Y15029140D02*
X24198654Y15054530D01*
X24249437D01*
X24274829Y15029140D01*
Y14927573D01*
X24249437Y14902180D01*
X24198654D01*
X24173262Y14927573D01*
Y14978355D01*
X24224046D01*
X24122479Y14902180D02*
X24071695D01*
X24097087D01*
Y15054530D01*
X24122479Y15029140D01*
X6088405Y6733532D02*
Y6784315D01*
Y6758923D01*
X6215363D01*
X6240755Y6784315D01*
Y6809707D01*
X6215363Y6835099D01*
X6088405Y6581181D02*
Y6682748D01*
X6164580D01*
X6139188Y6631965D01*
Y6606573D01*
X6164580Y6581181D01*
X6215363D01*
X6240755Y6606573D01*
Y6657356D01*
X6215363Y6682748D01*
X6388133Y14932611D02*
X6438917D01*
X6413525D01*
Y14805652D01*
X6438917Y14780260D01*
X6464308D01*
X6489700Y14805652D01*
X6261174Y14780260D02*
Y14932611D01*
X6337349Y14856435D01*
X6235782D01*
X6395753Y11536631D02*
X6446537D01*
X6421145D01*
Y11409672D01*
X6446537Y11384280D01*
X6471928D01*
X6497320Y11409672D01*
X6243402Y11384280D02*
X6344969D01*
X6243402Y11485847D01*
Y11511239D01*
X6268794Y11536631D01*
X6319577D01*
X6344969Y11511239D01*
X14805693Y15867339D02*
X14831085Y15892731D01*
X14881868D01*
X14907260Y15867339D01*
Y15765771D01*
X14881868Y15740379D01*
X14831085D01*
X14805693Y15765771D01*
X14754909Y15740379D02*
X14704126D01*
X14729517D01*
Y15892731D01*
X14754909Y15867339D01*
D62*
X20711160Y6898640D02*
X20838161D01*
X20736560Y6835140D02*
Y6962140D01*
Y6898640D02*
X20812759Y6835140D01*
X20736560Y6898640D02*
X20812759Y6847840D01*
X20736560Y6898640D02*
X20812759Y6860540D01*
X20736560Y6898640D02*
X20812759Y6873240D01*
X20736560Y6898640D02*
X20812759Y6885940D01*
X20736560Y6898640D02*
X20812759Y6962140D01*
X20736560Y6898640D02*
X20812759Y6949440D01*
X20736560Y6898640D02*
X20812759Y6936740D01*
X20736560Y6898640D02*
X20812759Y6924040D01*
X20736560Y6898640D02*
X20812759Y6911340D01*
Y6835140D02*
Y6962140D01*
X21701759Y7176770D02*
X22677119D01*
Y6620510D02*
Y7176770D01*
X21701759Y6620510D02*
X22677119D01*
X21701759D02*
Y7176770D01*
X23902670Y9928860D02*
X24458929D01*
X23902670Y8953500D02*
Y9928860D01*
Y8953500D02*
X24458929D01*
Y9928860D01*
X24117300Y10817860D02*
X24244299D01*
X24180800Y10894060D02*
X24193500Y10817860D01*
X24180800Y10894060D02*
X24206200Y10817860D01*
X24180800Y10894060D02*
X24218900Y10817860D01*
X24180800Y10894060D02*
X24231599Y10817860D01*
X24180800Y10894060D02*
X24244299Y10817860D01*
X24168100D02*
X24180800Y10894060D01*
X24155400Y10817860D02*
X24180800Y10894060D01*
X24142700Y10817860D02*
X24180800Y10894060D01*
X24130000Y10817860D02*
X24180800Y10894060D01*
X24117300Y10817860D02*
X24180800Y10894060D01*
X24117300D02*
X24244299D01*
X24180800Y10792460D02*
Y10919460D01*
X9733280Y14795500D02*
X11968480D01*
X9733280D02*
Y15811501D01*
X11968480D01*
Y14795500D02*
Y15811501D01*
X9674860Y11290300D02*
X11910060D01*
X9674860D02*
Y12306300D01*
X11910060D01*
Y11290300D02*
Y12306300D01*
X9712960Y7909560D02*
X11948160D01*
X9712960D02*
Y8925560D01*
X11948160D01*
Y7909560D02*
Y8925560D01*
%TF.MD5,4841b167ff5fd3c0f5f19a35ae66a982*%
M02*
