%TF.GenerationSoftware,Altium Limited,Altium Designer,21.6.4 (81)*%
G04 Layer_Physical_Order=1*
G04 Layer_Color=255*
%FSLAX45Y45*%
%MOMM*%
%TF.SameCoordinates,8BE20582-AD64-4D08-A95C-E2DB20C1365E*%
%TF.FilePolarity,Positive*%
%TF.FileFunction,Copper,L1,Top,Signal*%
%TF.Part,Single*%
G01*
G75*
%TA.AperFunction,Conductor*%
%ADD10C,0.76200*%
%TA.AperFunction,SMDPad,CuDef*%
%ADD11R,1.66370X0.55880*%
%ADD12R,1.20651X1.50822*%
%ADD13R,1.50464X1.55620*%
%ADD14R,1.50822X1.20651*%
%ADD15R,1.55620X1.50464*%
%ADD16R,1.20000X1.10000*%
%ADD17R,1.60712X0.76213*%
G04:AMPARAMS|DCode=18|XSize=1.60712mm|YSize=0.76213mm|CornerRadius=0.38107mm|HoleSize=0mm|Usage=FLASHONLY|Rotation=0.000|XOffset=0mm|YOffset=0mm|HoleType=Round|Shape=RoundedRectangle|*
%AMROUNDEDRECTD18*
21,1,1.60712,0.00000,0,0,0.0*
21,1,0.84499,0.76213,0,0,0.0*
1,1,0.76213,0.42249,0.00000*
1,1,0.76213,-0.42249,0.00000*
1,1,0.76213,-0.42249,0.00000*
1,1,0.76213,0.42249,0.00000*
%
%ADD18ROUNDEDRECTD18*%
%ADD19R,0.76213X1.60712*%
G04:AMPARAMS|DCode=20|XSize=1.60712mm|YSize=0.76213mm|CornerRadius=0.38107mm|HoleSize=0mm|Usage=FLASHONLY|Rotation=90.000|XOffset=0mm|YOffset=0mm|HoleType=Round|Shape=RoundedRectangle|*
%AMROUNDEDRECTD20*
21,1,1.60712,0.00000,0,0,90.0*
21,1,0.84499,0.76213,0,0,90.0*
1,1,0.76213,0.00000,0.42249*
1,1,0.76213,0.00000,-0.42249*
1,1,0.76213,0.00000,-0.42249*
1,1,0.76213,0.00000,0.42249*
%
%ADD20ROUNDEDRECTD20*%
%ADD21R,0.60000X0.70000*%
%ADD22R,3.05000X1.01600*%
%ADD23R,8.38000X10.66000*%
%ADD24R,0.55800X2.27000*%
%ADD25R,2.00000X2.00000*%
%ADD26R,3.00000X1.60000*%
%ADD27R,6.20000X5.80000*%
%ADD28R,0.91000X1.22000*%
%ADD29R,1.40822X1.00650*%
%ADD30R,1.35000X0.95000*%
%ADD31R,1.35620X1.10464*%
%TA.AperFunction,Conductor*%
%ADD32C,0.25400*%
%ADD33C,1.27000*%
%ADD34C,2.03200*%
%ADD35C,1.52400*%
%ADD36C,1.77800*%
%TA.AperFunction,ComponentPad*%
%ADD37C,1.50000*%
%ADD38R,1.50000X1.50000*%
%ADD39C,1.52400*%
G04:AMPARAMS|DCode=40|XSize=1.95mm|YSize=1.95mm|CornerRadius=0.4875mm|HoleSize=0mm|Usage=FLASHONLY|Rotation=270.000|XOffset=0mm|YOffset=0mm|HoleType=Round|Shape=RoundedRectangle|*
%AMROUNDEDRECTD40*
21,1,1.95000,0.97500,0,0,270.0*
21,1,0.97500,1.95000,0,0,270.0*
1,1,0.97500,-0.48750,-0.48750*
1,1,0.97500,-0.48750,0.48750*
1,1,0.97500,0.48750,0.48750*
1,1,0.97500,0.48750,-0.48750*
%
%ADD40ROUNDEDRECTD40*%
%ADD41C,1.95000*%
%ADD42C,1.57480*%
%ADD43R,1.57480X1.57480*%
%ADD44R,2.05740X2.05740*%
%ADD45C,2.05740*%
%ADD46C,1.20000*%
%ADD47R,1.20000X1.20000*%
%ADD48O,2.00000X1.00000*%
%ADD49O,2.00000X1.00000*%
%ADD50R,2.05740X2.05740*%
%ADD51C,2.05000*%
%ADD52R,2.05000X2.05000*%
%ADD53R,1.20000X1.20000*%
%TA.AperFunction,ViaPad*%
%ADD54C,1.52400*%
%ADD55C,1.27000*%
G36*
X8351520Y8963633D02*
Y6784340D01*
X8117199D01*
Y6794433D01*
X8116702Y6796935D01*
Y6799486D01*
X8112503Y6820593D01*
X8111527Y6822949D01*
X8111029Y6825451D01*
X8102794Y6845333D01*
X8101377Y6847454D01*
X8100401Y6849811D01*
X8088445Y6867704D01*
X8086641Y6869507D01*
X8085224Y6871628D01*
X8070007Y6886845D01*
X8067886Y6888262D01*
X8066082Y6890066D01*
X8048189Y6902022D01*
X8045832Y6902998D01*
X8043712Y6904415D01*
X8023830Y6912651D01*
X8021328Y6913148D01*
X8018972Y6914124D01*
X7997865Y6918323D01*
X7995314D01*
X7992812Y6918821D01*
X7971292D01*
X7968790Y6918323D01*
X7966239D01*
X7945132Y6914124D01*
X7942776Y6913148D01*
X7940274Y6912651D01*
X7920392Y6904415D01*
X7918272Y6902998D01*
X7915915Y6902022D01*
X7898022Y6890066D01*
X7896218Y6888262D01*
X7894097Y6886845D01*
X7878880Y6871628D01*
X7877463Y6869507D01*
X7875659Y6867704D01*
X7863703Y6849811D01*
X7862727Y6847454D01*
X7861310Y6845333D01*
X7853075Y6825451D01*
X7852577Y6822949D01*
X7851601Y6820593D01*
X7847403Y6799486D01*
Y6796935D01*
X7846905Y6794433D01*
Y6784340D01*
X6441440D01*
Y7251700D01*
X7373620D01*
Y8971280D01*
X8340890Y8976279D01*
X8351520Y8963633D01*
D02*
G37*
G36*
X8384540Y12362180D02*
Y9720580D01*
X6479540D01*
X6474460Y9722684D01*
Y10642600D01*
X7360920D01*
X7406640Y10688320D01*
Y12367260D01*
X8382436D01*
X8384540Y12362180D01*
D02*
G37*
G36*
X8430260Y15727654D02*
Y13500101D01*
X6520180D01*
Y14015720D01*
X7406640D01*
X7452360Y14061440D01*
Y15735300D01*
X8419630Y15740298D01*
X8430260Y15727654D01*
D02*
G37*
%LPC*%
G36*
X8008052Y8516481D02*
X7986532D01*
X7984030Y8515983D01*
X7981479D01*
X7960372Y8511784D01*
X7958016Y8510808D01*
X7955514Y8510311D01*
X7935632Y8502075D01*
X7933512Y8500658D01*
X7931155Y8499682D01*
X7913262Y8487726D01*
X7911458Y8485922D01*
X7909337Y8484505D01*
X7894120Y8469288D01*
X7892703Y8467167D01*
X7890899Y8465364D01*
X7878943Y8447471D01*
X7877967Y8445114D01*
X7876550Y8442993D01*
X7868315Y8423111D01*
X7867817Y8420609D01*
X7866841Y8418253D01*
X7862643Y8397146D01*
Y8394595D01*
X7862145Y8392093D01*
Y8370573D01*
X7862643Y8368072D01*
Y8365521D01*
X7866841Y8344414D01*
X7867817Y8342058D01*
X7868315Y8339556D01*
X7876550Y8319674D01*
X7877967Y8317553D01*
X7878943Y8315196D01*
X7890899Y8297303D01*
X7892703Y8295499D01*
X7894120Y8293379D01*
X7909337Y8278161D01*
X7911458Y8276745D01*
X7913262Y8274941D01*
X7931155Y8262985D01*
X7933512Y8262008D01*
X7935632Y8260592D01*
X7955514Y8252356D01*
X7958016Y8251859D01*
X7960373Y8250882D01*
X7981480Y8246684D01*
X7984030D01*
X7986532Y8246186D01*
X8008052D01*
X8010554Y8246684D01*
X8013104D01*
X8034211Y8250882D01*
X8036568Y8251859D01*
X8039070Y8252356D01*
X8058952Y8260592D01*
X8061072Y8262008D01*
X8063429Y8262985D01*
X8081322Y8274941D01*
X8083126Y8276745D01*
X8085247Y8278161D01*
X8100464Y8293379D01*
X8101881Y8295499D01*
X8103685Y8297303D01*
X8115641Y8315196D01*
X8116617Y8317553D01*
X8118034Y8319674D01*
X8126269Y8339556D01*
X8126767Y8342057D01*
X8127743Y8344414D01*
X8131942Y8365521D01*
Y8368072D01*
X8132439Y8370573D01*
Y8392093D01*
X8131942Y8394595D01*
Y8397146D01*
X8127743Y8418253D01*
X8126767Y8420609D01*
X8126269Y8423111D01*
X8118034Y8442993D01*
X8116617Y8445114D01*
X8115641Y8447471D01*
X8103685Y8465364D01*
X8101881Y8467167D01*
X8100464Y8469288D01*
X8085247Y8484505D01*
X8083126Y8485922D01*
X8081322Y8487726D01*
X8063429Y8499682D01*
X8061072Y8500658D01*
X8058952Y8502075D01*
X8039070Y8510311D01*
X8036568Y8510808D01*
X8034212Y8511784D01*
X8013105Y8515983D01*
X8010554D01*
X8008052Y8516481D01*
D02*
G37*
G36*
X8300840Y7897300D02*
X7978140D01*
Y7594600D01*
X8300840D01*
Y7897300D01*
D02*
G37*
G36*
X7952740D02*
X7630040D01*
Y7594600D01*
X7952740D01*
Y7897300D01*
D02*
G37*
G36*
X8300840Y7569200D02*
X7978140D01*
Y7266500D01*
X8300840D01*
Y7569200D01*
D02*
G37*
G36*
X7952740D02*
X7630040D01*
Y7266500D01*
X7952740D01*
Y7569200D01*
D02*
G37*
G36*
X7155180Y7217740D02*
X7042480D01*
Y7167069D01*
X6852963D01*
X6833605Y7186428D01*
X6805580Y7202608D01*
X6774322Y7210983D01*
X6770842D01*
Y7088083D01*
Y6965183D01*
X6774322D01*
X6805580Y6973559D01*
X6833605Y6989739D01*
X6856487Y7012621D01*
X6856910Y7013354D01*
X7042480D01*
Y6966940D01*
X7155180D01*
Y7092340D01*
Y7217740D01*
D02*
G37*
G36*
X7293280D02*
X7180580D01*
Y7105040D01*
X7293280D01*
Y7217740D01*
D02*
G37*
G36*
X6745442Y7210983D02*
X6741962D01*
X6710705Y7202608D01*
X6682680Y7186428D01*
X6659798Y7163546D01*
X6643618Y7135521D01*
X6635243Y7104263D01*
Y7100783D01*
X6745442D01*
Y7210983D01*
D02*
G37*
G36*
X7293280Y7079640D02*
X7180580D01*
Y6966940D01*
X7293280D01*
Y7079640D01*
D02*
G37*
G36*
X6745442Y7075383D02*
X6635243D01*
Y7071903D01*
X6643618Y7040646D01*
X6659798Y7012621D01*
X6682680Y6989739D01*
X6710705Y6973559D01*
X6741962Y6965183D01*
X6745442D01*
Y7075383D01*
D02*
G37*
G36*
X8018212Y11904841D02*
X7996692D01*
X7994190Y11904343D01*
X7991639D01*
X7970532Y11900144D01*
X7968176Y11899168D01*
X7965674Y11898671D01*
X7945792Y11890435D01*
X7943672Y11889018D01*
X7941315Y11888042D01*
X7923422Y11876086D01*
X7921618Y11874282D01*
X7919497Y11872865D01*
X7904280Y11857648D01*
X7902863Y11855527D01*
X7901059Y11853724D01*
X7889103Y11835831D01*
X7888127Y11833474D01*
X7886710Y11831353D01*
X7878475Y11811471D01*
X7877977Y11808969D01*
X7877001Y11806613D01*
X7872803Y11785506D01*
Y11782955D01*
X7872305Y11780453D01*
Y11758933D01*
X7872803Y11756432D01*
Y11753881D01*
X7877001Y11732774D01*
X7877977Y11730418D01*
X7878475Y11727916D01*
X7886710Y11708034D01*
X7888127Y11705913D01*
X7889103Y11703556D01*
X7901059Y11685663D01*
X7902863Y11683859D01*
X7904280Y11681739D01*
X7919497Y11666521D01*
X7921618Y11665105D01*
X7923422Y11663301D01*
X7941315Y11651345D01*
X7943672Y11650368D01*
X7945792Y11648952D01*
X7965674Y11640716D01*
X7968176Y11640219D01*
X7970533Y11639242D01*
X7991640Y11635044D01*
X7994190D01*
X7996692Y11634546D01*
X8018212D01*
X8020714Y11635044D01*
X8023264D01*
X8044371Y11639242D01*
X8046728Y11640219D01*
X8049230Y11640716D01*
X8069112Y11648952D01*
X8071232Y11650368D01*
X8073589Y11651345D01*
X8091482Y11663301D01*
X8093286Y11665105D01*
X8095407Y11666521D01*
X8110624Y11681739D01*
X8112041Y11683859D01*
X8113845Y11685663D01*
X8125801Y11703556D01*
X8126777Y11705913D01*
X8128194Y11708034D01*
X8136429Y11727916D01*
X8136927Y11730417D01*
X8137903Y11732774D01*
X8142102Y11753881D01*
Y11756432D01*
X8142599Y11758933D01*
Y11780453D01*
X8142102Y11782955D01*
Y11785506D01*
X8137903Y11806613D01*
X8136927Y11808969D01*
X8136429Y11811471D01*
X8128194Y11831353D01*
X8126777Y11833474D01*
X8125801Y11835831D01*
X8113845Y11853724D01*
X8112041Y11855527D01*
X8110624Y11857648D01*
X8095407Y11872865D01*
X8093286Y11874282D01*
X8091482Y11876086D01*
X8073589Y11888042D01*
X8071232Y11889018D01*
X8069112Y11890435D01*
X8049230Y11898671D01*
X8046728Y11899168D01*
X8044372Y11900144D01*
X8023265Y11904343D01*
X8020714D01*
X8018212Y11904841D01*
D02*
G37*
G36*
X8323700Y11316140D02*
X8001000D01*
Y11013440D01*
X8323700D01*
Y11316140D01*
D02*
G37*
G36*
X7975600D02*
X7652900D01*
Y11013440D01*
X7975600D01*
Y11316140D01*
D02*
G37*
G36*
X8323700Y10988040D02*
X8001000D01*
Y10685340D01*
X8323700D01*
Y10988040D01*
D02*
G37*
G36*
X7975600D02*
X7652900D01*
Y10685340D01*
X7975600D01*
Y10988040D01*
D02*
G37*
G36*
X7124700Y10598480D02*
X7012000D01*
Y10550878D01*
X6839049D01*
X6816622Y10573304D01*
X6788598Y10589485D01*
X6757340Y10597860D01*
X6753860D01*
Y10474960D01*
Y10352060D01*
X6757340D01*
X6788598Y10360435D01*
X6816622Y10376616D01*
X6837169Y10397163D01*
X7012000D01*
Y10347680D01*
X7124700D01*
Y10473080D01*
Y10598480D01*
D02*
G37*
G36*
X6728460Y10597860D02*
X6724980D01*
X6693722Y10589485D01*
X6665698Y10573304D01*
X6642816Y10550422D01*
X6626635Y10522398D01*
X6618260Y10491140D01*
Y10487660D01*
X6728460D01*
Y10597860D01*
D02*
G37*
G36*
X7262800Y10598480D02*
X7150100D01*
Y10485780D01*
X7262800D01*
Y10598480D01*
D02*
G37*
G36*
X6728460Y10462260D02*
X6618260D01*
Y10458780D01*
X6626635Y10427522D01*
X6642816Y10399498D01*
X6665698Y10376616D01*
X6693722Y10360435D01*
X6724980Y10352060D01*
X6728460D01*
Y10462260D01*
D02*
G37*
G36*
X7262800Y10460380D02*
X7150100D01*
Y10347680D01*
X7262800D01*
Y10460380D01*
D02*
G37*
G36*
X8015672Y10352901D02*
X7994152D01*
X7991650Y10352403D01*
X7989099D01*
X7967992Y10348204D01*
X7965636Y10347228D01*
X7963134Y10346731D01*
X7943252Y10338495D01*
X7941132Y10337078D01*
X7938775Y10336102D01*
X7920882Y10324146D01*
X7919078Y10322342D01*
X7916957Y10320925D01*
X7901740Y10305708D01*
X7900323Y10303587D01*
X7898519Y10301784D01*
X7886563Y10283891D01*
X7885587Y10281534D01*
X7884170Y10279413D01*
X7875935Y10259531D01*
X7875437Y10257029D01*
X7874461Y10254673D01*
X7870263Y10233566D01*
Y10231015D01*
X7869765Y10228513D01*
Y10206993D01*
X7870263Y10204492D01*
Y10201941D01*
X7874461Y10180834D01*
X7875437Y10178478D01*
X7875935Y10175976D01*
X7884170Y10156094D01*
X7885587Y10153973D01*
X7886563Y10151616D01*
X7898519Y10133723D01*
X7900323Y10131919D01*
X7901740Y10129799D01*
X7916957Y10114581D01*
X7919078Y10113165D01*
X7920882Y10111361D01*
X7938775Y10099405D01*
X7941132Y10098428D01*
X7943252Y10097012D01*
X7963134Y10088776D01*
X7965636Y10088279D01*
X7967993Y10087302D01*
X7989100Y10083104D01*
X7991650D01*
X7994152Y10082606D01*
X8015672D01*
X8018174Y10083104D01*
X8020724D01*
X8041831Y10087302D01*
X8044188Y10088279D01*
X8046690Y10088776D01*
X8066572Y10097012D01*
X8068692Y10098428D01*
X8071049Y10099405D01*
X8088942Y10111361D01*
X8090746Y10113165D01*
X8092867Y10114581D01*
X8108084Y10129799D01*
X8109501Y10131919D01*
X8111305Y10133723D01*
X8123261Y10151616D01*
X8124237Y10153973D01*
X8125654Y10156094D01*
X8133889Y10175976D01*
X8134387Y10178477D01*
X8135363Y10180834D01*
X8139562Y10201941D01*
Y10204492D01*
X8140059Y10206993D01*
Y10228513D01*
X8139562Y10231015D01*
Y10233566D01*
X8135363Y10254673D01*
X8134387Y10257029D01*
X8133889Y10259531D01*
X8125654Y10279413D01*
X8124237Y10281534D01*
X8123261Y10283891D01*
X8111305Y10301784D01*
X8109501Y10303587D01*
X8108084Y10305708D01*
X8092867Y10320925D01*
X8090746Y10322342D01*
X8088942Y10324146D01*
X8071049Y10336102D01*
X8068692Y10337078D01*
X8066572Y10338495D01*
X8046690Y10346731D01*
X8044188Y10347228D01*
X8041832Y10348204D01*
X8020725Y10352403D01*
X8018174D01*
X8015672Y10352901D01*
D02*
G37*
G36*
X8041072Y15471001D02*
X8019552D01*
X8017050Y15470503D01*
X8014499D01*
X7993392Y15466304D01*
X7991036Y15465327D01*
X7988534Y15464832D01*
X7968652Y15456595D01*
X7966532Y15455177D01*
X7964175Y15454202D01*
X7946282Y15442245D01*
X7944478Y15440442D01*
X7942357Y15439024D01*
X7927140Y15423808D01*
X7925723Y15421687D01*
X7923919Y15419884D01*
X7911963Y15401991D01*
X7910987Y15399634D01*
X7909570Y15397513D01*
X7901335Y15377631D01*
X7900837Y15375130D01*
X7899861Y15372774D01*
X7895663Y15351666D01*
Y15349115D01*
X7895165Y15346613D01*
Y15325093D01*
X7895663Y15322592D01*
Y15320041D01*
X7899861Y15298933D01*
X7900837Y15296577D01*
X7901335Y15294077D01*
X7909570Y15274194D01*
X7910987Y15272073D01*
X7911963Y15269716D01*
X7923919Y15251823D01*
X7925723Y15250018D01*
X7927140Y15247899D01*
X7942357Y15232681D01*
X7944478Y15231265D01*
X7946282Y15229462D01*
X7964175Y15217505D01*
X7966532Y15216528D01*
X7968652Y15215112D01*
X7988534Y15206876D01*
X7991036Y15206380D01*
X7993393Y15205402D01*
X8014500Y15201204D01*
X8017050D01*
X8019552Y15200706D01*
X8041072D01*
X8043574Y15201204D01*
X8046124D01*
X8067231Y15205402D01*
X8069588Y15206380D01*
X8072090Y15206876D01*
X8091972Y15215112D01*
X8094092Y15216528D01*
X8096449Y15217505D01*
X8114342Y15229462D01*
X8116146Y15231265D01*
X8118267Y15232681D01*
X8133484Y15247899D01*
X8134901Y15250018D01*
X8136705Y15251823D01*
X8148661Y15269716D01*
X8149637Y15272073D01*
X8151054Y15274194D01*
X8159289Y15294077D01*
X8159787Y15296577D01*
X8160763Y15298933D01*
X8164962Y15320041D01*
Y15322592D01*
X8165459Y15325093D01*
Y15346613D01*
X8164962Y15349115D01*
Y15351666D01*
X8160763Y15372774D01*
X8159787Y15375130D01*
X8159289Y15377631D01*
X8151054Y15397513D01*
X8149637Y15399634D01*
X8148661Y15401991D01*
X8136705Y15419884D01*
X8134901Y15421687D01*
X8133484Y15423808D01*
X8118267Y15439024D01*
X8116146Y15440442D01*
X8114342Y15442245D01*
X8096449Y15454202D01*
X8094092Y15455177D01*
X8091972Y15456595D01*
X8072090Y15464832D01*
X8069588Y15465327D01*
X8067232Y15466304D01*
X8046125Y15470503D01*
X8043574D01*
X8041072Y15471001D01*
D02*
G37*
G36*
X8412600Y14849280D02*
X8089900D01*
Y14546581D01*
X8412600D01*
Y14849280D01*
D02*
G37*
G36*
X8064500D02*
X7741800D01*
Y14546581D01*
X8064500D01*
Y14849280D01*
D02*
G37*
G36*
X8412600Y14521181D02*
X8089900D01*
Y14218480D01*
X8412600D01*
Y14521181D01*
D02*
G37*
G36*
X8064500D02*
X7741800D01*
Y14218480D01*
X8064500D01*
Y14521181D01*
D02*
G37*
G36*
X6720042Y13995323D02*
X6716562D01*
X6685305Y13986948D01*
X6657280Y13970769D01*
X6634398Y13947887D01*
X6618218Y13919861D01*
X6609843Y13888603D01*
Y13885123D01*
X6720042D01*
Y13995323D01*
D02*
G37*
G36*
X7245020Y13994460D02*
X7132320D01*
Y13881760D01*
X7245020D01*
Y13994460D01*
D02*
G37*
G36*
X6720042Y13859723D02*
X6609843D01*
Y13856242D01*
X6618218Y13824986D01*
X6634398Y13796960D01*
X6657280Y13774078D01*
X6685305Y13757899D01*
X6716562Y13749522D01*
X6720042D01*
Y13859723D01*
D02*
G37*
G36*
X7245020Y13856360D02*
X7132320D01*
Y13743660D01*
X7245020D01*
Y13856360D01*
D02*
G37*
G36*
X6748922Y13995323D02*
X6745442D01*
Y13872423D01*
Y13749522D01*
X6748922D01*
X6780180Y13757899D01*
X6808205Y13774078D01*
X6828010Y13793884D01*
X6994220D01*
Y13743660D01*
X7106920D01*
Y13869060D01*
Y13994460D01*
X6994220D01*
Y13947598D01*
X6831252D01*
X6831087Y13947887D01*
X6808205Y13970769D01*
X6780180Y13986948D01*
X6748922Y13995323D01*
D02*
G37*
G36*
X8027000Y13889247D02*
X8005480D01*
X8002978Y13888750D01*
X8000427D01*
X7979320Y13884550D01*
X7976964Y13883575D01*
X7974462Y13883076D01*
X7954580Y13874841D01*
X7952460Y13873425D01*
X7950103Y13872449D01*
X7932209Y13860492D01*
X7930406Y13858688D01*
X7928285Y13857272D01*
X7913068Y13842055D01*
X7911651Y13839934D01*
X7909847Y13838130D01*
X7897891Y13820238D01*
X7896915Y13817880D01*
X7895498Y13815759D01*
X7887263Y13795877D01*
X7886765Y13793376D01*
X7885789Y13791019D01*
X7881591Y13769913D01*
Y13767361D01*
X7881093Y13764861D01*
Y13743340D01*
X7881591Y13740839D01*
Y13738287D01*
X7885789Y13717181D01*
X7886765Y13714824D01*
X7887263Y13712321D01*
X7895498Y13692439D01*
X7896915Y13690320D01*
X7897891Y13687962D01*
X7909847Y13670068D01*
X7911651Y13668266D01*
X7913068Y13666145D01*
X7928285Y13650928D01*
X7930406Y13649512D01*
X7932209Y13647707D01*
X7950103Y13635751D01*
X7952460Y13634775D01*
X7954580Y13633357D01*
X7974462Y13625124D01*
X7976964Y13624625D01*
X7979321Y13623650D01*
X8000427Y13619450D01*
X8002978D01*
X8005480Y13618953D01*
X8027000D01*
X8029502Y13619450D01*
X8032052D01*
X8053159Y13623650D01*
X8055516Y13624625D01*
X8058017Y13625124D01*
X8077900Y13633357D01*
X8080020Y13634775D01*
X8082377Y13635751D01*
X8100270Y13647707D01*
X8102074Y13649512D01*
X8104195Y13650928D01*
X8119412Y13666145D01*
X8120829Y13668266D01*
X8122632Y13670068D01*
X8134589Y13687962D01*
X8135565Y13690320D01*
X8136982Y13692439D01*
X8145217Y13712321D01*
X8145715Y13714824D01*
X8146691Y13717180D01*
X8150889Y13738287D01*
Y13740839D01*
X8151387Y13743340D01*
Y13764861D01*
X8150889Y13767361D01*
Y13769913D01*
X8146691Y13791019D01*
X8145715Y13793376D01*
X8145217Y13795877D01*
X8136982Y13815759D01*
X8135565Y13817880D01*
X8134589Y13820238D01*
X8122632Y13838130D01*
X8120829Y13839934D01*
X8119412Y13842055D01*
X8104195Y13857272D01*
X8102074Y13858688D01*
X8100270Y13860492D01*
X8082377Y13872449D01*
X8080020Y13873425D01*
X8077900Y13874841D01*
X8058017Y13883076D01*
X8055516Y13883575D01*
X8053159Y13884550D01*
X8032053Y13888750D01*
X8029502D01*
X8027000Y13889247D01*
D02*
G37*
%LPD*%
D10*
X12544872Y6446520D02*
G03*
X12387772Y6445781I-78552J0D01*
G01*
D02*
G03*
X12387932Y6441440I78548J739D01*
G01*
D02*
G03*
X12544872Y6446520I78388J5080D01*
G01*
X14630212Y8394700D02*
G03*
X14554201Y8473211I-78552J0D01*
G01*
D02*
G03*
X14630211Y8394228I-2540J-78511D01*
G01*
D02*
G03*
X14630212Y8394700I-78551J472D01*
G01*
X14206032Y7637780D02*
G03*
X14124940Y7559269I-78552J0D01*
G01*
D02*
G03*
X14206032Y7637780I2540J78511D01*
G01*
X13997760Y9629996D02*
G03*
X14041119Y9607501I56060J55024D01*
G01*
X13975269Y9685020D02*
G03*
X13997760Y9629996I78552J0D01*
G01*
X14041119Y9607501D02*
G03*
X14132372Y9685020I12700J77519D01*
G01*
X13975275Y9686001D02*
G03*
X13975269Y9685020I78546J-981D01*
G01*
X14132356Y9686620D02*
G03*
X14053819Y9763572I-78536J-1600D01*
G01*
X14132372Y9685020D02*
G03*
X14132356Y9686620I-78552J0D01*
G01*
X14053819Y9763572D02*
G03*
X13975275Y9686001I0J-78552D01*
G01*
X12445812Y9847580D02*
G03*
X12288749Y9850120I-78552J0D01*
G01*
D02*
G03*
X12445812Y9847580I78511J-2540D01*
G01*
X13690788Y11696700D02*
G03*
X13699081Y11661569I78552J0D01*
G01*
D02*
G03*
X13769341Y11618148I70258J35131D01*
G01*
X13847893Y11696700D02*
G03*
X13690788Y11696700I-78552J0D01*
G01*
X13769341Y11618148D02*
G03*
X13847893Y11696700I0J78552D01*
G01*
X21821140Y9128989D02*
G03*
X21897060Y9203690I-2540J78511D01*
G01*
D02*
G03*
X21897153Y9207500I-78460J3810D01*
G01*
X21897142Y9208760D02*
G03*
X21740053Y9208424I-78542J-1260D01*
G01*
D02*
G03*
X21740048Y9207500I78547J-924D01*
G01*
D02*
G03*
X21821140Y9128989I78552J0D01*
G01*
X21897153Y9207500D02*
G03*
X21897142Y9208760I-78552J0D01*
G01*
X21742587Y9552940D02*
G03*
X21819870Y9474398I78552J0D01*
G01*
X21742587Y9552940D02*
G03*
X21819870Y9474398I78552J0D01*
G01*
X21854266Y9624166D02*
G03*
X21821140Y9631492I-33126J-71226D01*
G01*
X21899013Y9563247D02*
G03*
X21854266Y9624166I-77873J-10307D01*
G01*
X21802061Y9629140D02*
G03*
X21783040Y9621634I19078J-76200D01*
G01*
D02*
G03*
X21742587Y9552940I38100J-68694D01*
G01*
X21821140Y9631492D02*
G03*
X21819870Y9631482I0J-78552D01*
G01*
D02*
G03*
X21802061Y9629140I1270J-78542D01*
G01*
X21819870Y9474398D02*
G03*
X21876685Y9497395I1270J78542D01*
G01*
X21819870Y9474398D02*
G03*
X21876685Y9497395I1270J78542D01*
G01*
D02*
G03*
X21899683Y9551680I-55545J55545D01*
G01*
D02*
G03*
X21899013Y9563247I-78542J1260D01*
G01*
X15708347Y12980060D02*
G03*
X15709712Y12994640I-77187J14580D01*
G01*
X15553043Y13002895D02*
G03*
X15708347Y12980060I78117J-8255D01*
G01*
X15632970Y13073170D02*
G03*
X15553043Y13002895I-1810J-78531D01*
G01*
X15709712Y12994640D02*
G03*
X15632970Y13073170I-78552J0D01*
G01*
X14269908Y12959081D02*
G03*
X14297894Y12898967I78552J0D01*
G01*
D02*
G03*
X14348460Y12880528I50565J60113D01*
G01*
D02*
G03*
X14378529Y12886511I0J78552D01*
G01*
D02*
G03*
X14427013Y12959081I-30070J72569D01*
G01*
D02*
G03*
X14269908Y12959081I-78552J0D01*
G01*
X9808725Y13393420D02*
G03*
X9817008Y13404083I-57665J53340D01*
G01*
X9807904Y13393073D02*
G03*
X9809520Y13396729I-162802J74153D01*
G01*
X9802357Y13387270D02*
G03*
X9806605Y13391216I-51297J59490D01*
G01*
X9817009Y13404083D02*
G03*
X9821883Y13412781I-65949J42676D01*
G01*
X9807411Y13392033D02*
G03*
X9807426Y13392049I-56351J54727D01*
G01*
X9809520Y13396729D02*
G03*
X9810863Y13399947I-164418J70496D01*
G01*
D02*
G03*
X9814607Y13410030I-165761J67279D01*
G01*
X9807169Y13391785D02*
G03*
X9807411Y13392033I-56109J54975D01*
G01*
X9679940Y13413408D02*
G03*
X9693395Y13393420I71120J33352D01*
G01*
X9819565Y13506798D02*
G03*
X9812831Y13525311I-76605J-17379D01*
G01*
X9806605Y13391216D02*
G03*
X9807142Y13391759I-55545J55544D01*
G01*
D02*
G03*
X9807169Y13391785I-56082J55002D01*
G01*
X9693395Y13393420D02*
G03*
X9801519Y13386559I57665J53340D01*
G01*
D02*
G03*
X9802357Y13387270I-50459J60202D01*
G01*
X9832486Y13454526D02*
G03*
X9822368Y13510448I-116647J7772D01*
G01*
X9821883Y13412781D02*
G03*
X9821987Y13412999I-70823J33979D01*
G01*
X9822180Y13492653D02*
G03*
X9819565Y13506798I-177078J-25428D01*
G01*
X9822368Y13510448D02*
G03*
X9822180Y13510864I-106529J-48150D01*
G01*
D02*
G03*
X9814309Y13525311I-106341J-48565D01*
G01*
X9821841Y13412999D02*
G03*
X9821872Y13413065I-106002J49300D01*
G01*
X9821987Y13413000D02*
G03*
X9822180Y13413408I-70927J33760D01*
G01*
X9821872Y13413065D02*
G03*
X9822134Y13413634I-106033J49233D01*
G01*
X9814607Y13410030D02*
G03*
X9815780Y13413634I-169505J57196D01*
G01*
X9822180Y13413408D02*
G03*
X9822285Y13413634I-71120J33352D01*
G01*
X9815780D02*
G03*
X9822180Y13441798I-170678J53592D01*
G01*
X9822134Y13413634D02*
G03*
X9822180Y13413733I-106295J48665D01*
G01*
X9832155Y13450571D02*
G03*
X9832486Y13454526I-116316J11728D01*
G01*
X9823219Y13450571D02*
G03*
X9822180Y13492653I-178117J16656D01*
G01*
X9831903Y13448297D02*
G03*
X9832155Y13450571I-116064J14002D01*
G01*
X9672508Y13446761D02*
G03*
X9679940Y13413408I78552J0D01*
G01*
X9672617Y13450900D02*
G03*
X9672508Y13446761I78443J-4140D01*
G01*
X9679940Y13480112D02*
G03*
X9672617Y13450900I71120J-33352D01*
G01*
X9695515Y13502306D02*
G03*
X9679940Y13480112I55545J-55545D01*
G01*
X9807312Y13391786D02*
G03*
X9807441Y13392065I-162209J75440D01*
G01*
X9751060Y13525311D02*
G03*
X9695515Y13502306I0J-78552D01*
G01*
X9814309Y13525311D02*
G03*
X9798504Y13544965I-98469J-63014D01*
G01*
X9814309Y13525311D02*
G03*
X9798504Y13544965I-98469J-63014D01*
G01*
X9814309Y13525311D02*
G03*
X9798504Y13544965I-98469J-63014D01*
G01*
X9812831Y13525311D02*
G03*
X9798504Y13544965I-69872J-35893D01*
G01*
X9812831Y13525311D02*
G03*
X9798504Y13544965I-69872J-35893D01*
G01*
X9814309Y13525311D02*
G03*
X9798504Y13544965I-98469J-63014D01*
G01*
X9812831Y13525311D02*
G03*
X9798504Y13544965I-69872J-35893D01*
G01*
X9812831Y13525311D02*
G03*
X9798504Y13544965I-69872J-35893D01*
G01*
X9807312Y13391786D02*
G03*
X9807441Y13392065I-162209J75440D01*
G01*
X9807312Y13391786D02*
G03*
X9807441Y13392065I-162209J75440D01*
G01*
X9807312Y13391786D02*
G03*
X9807441Y13392065I-162209J75440D01*
G01*
X9807426Y13392049D02*
G03*
X9807441Y13392065I-56366J54711D01*
G01*
X9807426Y13392049D02*
G03*
X9807441Y13392065I-56366J54711D01*
G01*
X9807426Y13392049D02*
G03*
X9807441Y13392065I-56366J54711D01*
G01*
X9807426Y13392049D02*
G03*
X9807441Y13392065I-56366J54711D01*
G01*
D02*
G03*
X9807904Y13393073I-162339J75161D01*
G01*
X9807441Y13392065D02*
G03*
X9807904Y13393073I-162339J75161D01*
G01*
X9807441Y13392065D02*
G03*
X9807904Y13393073I-162339J75161D01*
G01*
X9807441Y13392065D02*
G03*
X9807904Y13393073I-162339J75161D01*
G01*
X9807441Y13392065D02*
G03*
X9808725Y13393420I-56381J54695D01*
G01*
X9807441Y13392065D02*
G03*
X9808725Y13393420I-56381J54695D01*
G01*
X9807441Y13392065D02*
G03*
X9808725Y13393420I-56381J54695D01*
G01*
X9807441Y13392065D02*
G03*
X9808725Y13393420I-56381J54695D01*
G01*
X9822180Y13441798D02*
G03*
X9822362Y13443100I-177078J25428D01*
G01*
X9822183Y13413741D02*
G03*
X9831158Y13443100I-106344J48558D01*
G01*
X9822362Y13443100D02*
G03*
X9822822Y13446761I-177260J24125D01*
G01*
X9831158Y13443100D02*
G03*
X9831708Y13446761I-115319J19199D01*
G01*
D02*
G03*
X9831903Y13448297I-115868J15538D01*
G01*
X9822822Y13446761D02*
G03*
X9823219Y13450571I-177720J20466D01*
G01*
X9639799Y10076840D02*
G03*
X9635068Y10058400I73161J-28600D01*
G01*
X9702801Y10126132D02*
G03*
X9639799Y10076840I10159J-77892D01*
G01*
X9635068Y10058399D02*
G03*
X9791512Y10048240I77892J-10159D01*
G01*
X9791348Y10053320D02*
G03*
X9745861Y10119570I-78388J-5080D01*
G01*
D02*
G03*
X9702801Y10126132I-32901J-71330D01*
G01*
X9791512Y10048240D02*
G03*
X9791348Y10053320I-78552J0D01*
G01*
X9821900Y6678930D02*
G03*
X9821992Y6682740I-78460J3810D01*
G01*
X9664888D02*
G03*
X9821900Y6678930I78552J0D01*
G01*
X9665291Y6690690D02*
G03*
X9664888Y6682740I78149J-7950D01*
G01*
X9733280Y6760632D02*
G03*
X9665292Y6690692I10160J-77892D01*
G01*
X9821992Y6682740D02*
G03*
X9821982Y6684010I-78552J0D01*
G01*
Y6684011D02*
G03*
X9819477Y6702459I-78542J-1271D01*
G01*
D02*
G03*
X9733280Y6760632I-76037J-19719D01*
G01*
X13726633Y15293529D02*
G03*
X13797368Y15338916I-473J78551D01*
G01*
D02*
G03*
X13804712Y15372079I-71208J33164D01*
G01*
D02*
G03*
X13726633Y15293529I-78552J0D01*
G01*
X14117320Y6944008D02*
G03*
X14109700Y6944131I-5080J-78388D01*
G01*
X14167786Y6921165D02*
G03*
X14117320Y6944008I-55545J-55545D01*
G01*
X14124712Y6788064D02*
G03*
X14190746Y6862885I-12471J77556D01*
G01*
X14112241Y6787068D02*
G03*
X14124712Y6788064I0J78552D01*
G01*
X15979140Y13898692D02*
G03*
X15917679Y13869057I0J-78552D01*
G01*
D02*
G03*
X16057692Y13820140I61461J-48917D01*
G01*
X15518130Y8877498D02*
G03*
X15597952Y8956040I1270J78542D01*
G01*
D02*
G03*
X15519400Y9034592I-78552J0D01*
G01*
D02*
G03*
X15440848Y8956040I0J-78552D01*
G01*
D02*
G03*
X15518130Y8877498I78552J0D01*
G01*
X15755432Y15618460D02*
G03*
X15662300Y15695647I-78552J0D01*
G01*
X15687041Y15540569D02*
G03*
X15755432Y15618460I-10160J77892D01*
G01*
X15679420Y15539949D02*
G03*
X15687041Y15540569I-2540J78511D01*
G01*
X15676880Y15539908D02*
G03*
X15678149Y15539919I-0J78552D01*
G01*
X15662300Y15695647D02*
G03*
X15624368Y15676880I14580J-77187D01*
G01*
D02*
G03*
X15598833Y15627350I52512J-58420D01*
G01*
X15621335Y15562915D02*
G03*
X15676880Y15539908I55545J55545D01*
G01*
X15440660Y12237908D02*
G03*
X15515669Y12293138I0J78552D01*
G01*
X15519212Y12316460D02*
G03*
X15440660Y12395012I-78552J0D01*
G01*
D02*
G03*
X15362108Y12316460I0J-78552D01*
G01*
D02*
G03*
X15440660Y12237908I78552J0D01*
G01*
X14109700Y6944131D02*
G03*
X14033691Y6866292I2540J-78511D01*
G01*
D02*
G03*
X14033688Y6865620I78549J-672D01*
G01*
X14103001Y6787613D02*
G03*
X14109700Y6787109I9239J78007D01*
G01*
X14033688Y6865620D02*
G03*
X14103001Y6787613I78552J0D01*
G01*
X14109700Y6787109D02*
G03*
X14112051Y6787068I2540J78511D01*
G01*
X16159480Y7005508D02*
G03*
X16169640Y7006168I0J78552D01*
G01*
X16094591Y7128330D02*
G03*
X16081004Y7087545I64889J-44270D01*
G01*
X16238033Y7084060D02*
G03*
X16094591Y7128330I-78552J0D01*
G01*
X16169640Y7006168D02*
G03*
X16179800Y7008182I-10160J77892D01*
G01*
X16014700Y10454828D02*
G03*
X16093253Y10533380I0J78552D01*
G01*
X16014700Y10611932D02*
G03*
X15936150Y10533852I0J-78552D01*
G01*
D02*
G03*
X16014700Y10454828I78551J-472D01*
G01*
X16093253Y10533380D02*
G03*
X16014700Y10611932I-78552J0D01*
G01*
X16392972Y13286740D02*
G03*
X16392953Y13288483I-78552J0D01*
G01*
Y13288484D02*
G03*
X16391684Y13300908I-78533J-1744D01*
G01*
D02*
G03*
X16314420Y13365292I-77264J-14168D01*
G01*
D02*
G03*
X16392972Y13286740I0J-78552D01*
G01*
X15678149Y15539919D02*
G03*
X15679420Y15539949I-1270J78542D01*
G01*
X15598833Y15627350D02*
G03*
X15598328Y15618460I78047J-8890D01*
G01*
D02*
G03*
X15621335Y15562915I78552J0D01*
G01*
X16057692Y13820140D02*
G03*
X16047876Y13858163I-78552J0D01*
G01*
Y13858163D02*
G03*
X15979140Y13898692I-68736J-38023D01*
G01*
X15704633Y6515100D02*
G03*
X15548894Y6529680I-78552J0D01*
G01*
D02*
G03*
X15548187Y6504940I77187J-14580D01*
G01*
D02*
G03*
X15704633Y6515100I77892J10160D01*
G01*
X16081004Y7087545D02*
G03*
X16159480Y7005508I78475J-3485D01*
G01*
X21899879Y15392587D02*
G03*
X21978391Y15468600I0J78552D01*
G01*
X21978432Y15471140D02*
G03*
X21899879Y15392587I-78552J0D01*
G01*
X10845612Y14216380D02*
G03*
X10841581Y14241219I-78552J0D01*
G01*
D02*
G03*
X10711515Y14271925I-74521J-24839D01*
G01*
D02*
G03*
X10845571Y14213840I55545J-55545D01*
G01*
D02*
G03*
X10845612Y14216380I-78511J2540D01*
G01*
X10837992Y10761980D02*
G03*
X10814985Y10706435I-78552J0D01*
G01*
X21978391Y15468600D02*
G03*
X21978432Y15471140I-78511J2540D01*
G01*
X23599368Y14587219D02*
G03*
X23599329Y14584680I78511J-2540D01*
G01*
X23609186Y14622780D02*
G03*
X23599368Y14587219I68694J-38100D01*
G01*
X23599329Y14584680D02*
G03*
X23609186Y14622780I78552J0D01*
G01*
X16286668Y14511020D02*
G03*
X16309676Y14455475I78552J0D01*
G01*
D02*
G03*
X16443771Y14511020I55545J55545D01*
G01*
D02*
G03*
X16286668Y14511020I-78552J0D01*
G01*
X16179800Y7008182D02*
G03*
X16238033Y7084060I-20320J75878D01*
G01*
X16509811Y6779260D02*
G03*
X16486806Y6834805I-78552J0D01*
G01*
D02*
G03*
X16509441Y6771640I-55545J-55545D01*
G01*
X14112051Y6787068D02*
G03*
X14112241Y6787068I188J78552D01*
G01*
X14190791Y6865620D02*
G03*
X14190683Y6869760I-78552J0D01*
G01*
D02*
G03*
X14167786Y6921165I-78443J-4140D01*
G01*
X14190746Y6862885D02*
G03*
X14190779Y6864166I-78505J2735D01*
G01*
D02*
G03*
X14190791Y6865620I-78539J1454D01*
G01*
X16375380Y7770048D02*
G03*
X16453932Y7848600I0J78552D01*
G01*
D02*
G03*
X16375380Y7770048I-78552J0D01*
G01*
X15755432Y9738360D02*
G03*
X15598328Y9738360I-78552J0D01*
G01*
D02*
G03*
X15755432Y9738360I78552J0D01*
G01*
X16509441Y6771640D02*
G03*
X16509811Y6779260I-78181J7620D01*
G01*
X15326172Y8694420D02*
G03*
X15247620Y8615868I-78552J0D01*
G01*
D02*
G03*
X15326172Y8694420I0J78552D01*
G01*
X13797279Y8201848D02*
G03*
X13875832Y8280400I0J78552D01*
G01*
X13718863Y8275792D02*
G03*
X13797279Y8201848I78417J4608D01*
G01*
X13875832Y8280400D02*
G03*
X13718863Y8275792I-78552J0D01*
G01*
X15515669Y12293138D02*
G03*
X15519212Y12316460I-75010J23322D01*
G01*
X15298232Y15463519D02*
G03*
X15219679Y15384969I-78552J0D01*
G01*
D02*
G03*
X15229840Y15385628I0J78552D01*
G01*
D02*
G03*
X15298232Y15463519I-10160J77892D01*
G01*
X15189200Y11976452D02*
G03*
X15251172Y12000676I5080J78388D01*
G01*
X15272832Y12054840D02*
G03*
X15189200Y11976452I-78552J0D01*
G01*
X16489494Y10081985D02*
G03*
X16418559Y10126792I-70935J-33745D01*
G01*
X16497112Y10048240D02*
G03*
X16489494Y10081985I-78552J0D01*
G01*
X16418559Y10126792D02*
G03*
X16497112Y10048240I0J-78552D01*
G01*
X10814985Y10706435D02*
G03*
X10837992Y10761980I-55545J55545D01*
G01*
X14522569Y15356232D02*
G03*
X14520232Y15356723I-11759J-50152D01*
G01*
X14522568Y15356232D02*
G03*
X14520232Y15356723I-11757J-50152D01*
G01*
Y15260486D02*
G03*
X14571219Y15279283I0J78552D01*
G01*
X14520230Y15356723D02*
G03*
X14519438Y15356863I-9419J-50643D01*
G01*
X14520230Y15356723D02*
G03*
X14519438Y15356863I-9419J-50643D01*
G01*
X14519437Y15356863D02*
G03*
X14502589Y15356931I-8625J-50785D01*
G01*
X14519437Y15356863D02*
G03*
X14502589Y15356931I-8625J-50785D01*
G01*
X14464687Y15283493D02*
G03*
X14520230Y15260486I55545J55545D01*
G01*
X14451537Y15300938D02*
G03*
X14464687Y15283493I68694J38100D01*
G01*
X14607352Y11686540D02*
G03*
X14607310Y11689079I-78552J0D01*
G01*
X14607346Y11685595D02*
G03*
X14607352Y11686540I-78546J945D01*
G01*
X14581854Y11744468D02*
G03*
X14528799Y11765092I-53054J-57928D01*
G01*
X14604558Y11707303D02*
G03*
X14581854Y11744468I-75758J-20763D01*
G01*
X14607310Y11689080D02*
G03*
X14604558Y11707303I-78511J-2540D01*
G01*
X14528799Y11765092D02*
G03*
X14513560Y11763600I0J-78552D01*
G01*
D02*
G03*
X14607346Y11685594I15240J-77060D01*
G01*
X12264273Y13235609D02*
G03*
X12264052Y13230859I78321J-6020D01*
G01*
D02*
G03*
X12264042Y13229590I78542J-1270D01*
G01*
D02*
G03*
X12264607Y13220183I78552J0D01*
G01*
X14124252Y14425790D02*
G03*
X14134912Y14465300I-67893J39509D01*
G01*
X14056360Y14386748D02*
G03*
X14124252Y14425790I0J78552D01*
G01*
X14134912Y14465300D02*
G03*
X14056360Y14386748I-78552J0D01*
G01*
X15251172Y12000676D02*
G03*
X15272832Y12054840I-56892J54164D01*
G01*
X14056360Y11003509D02*
G03*
X14137453Y11082020I2540J78511D01*
G01*
D02*
G03*
X14056360Y11003509I-78552J0D01*
G01*
X14598782Y15339038D02*
G03*
X14598779Y15339838I-78552J0D01*
G01*
D02*
G03*
X14580144Y15389841I-78548J-799D01*
G01*
X14588924Y15300938D02*
G03*
X14598782Y15339038I-68694J38100D01*
G01*
X14541187Y15361880D02*
G03*
X14541183Y15361877I31860J-69220D01*
G01*
X14441679Y15339038D02*
G03*
X14441756Y15335555I78552J0D01*
G01*
X14441679Y15339038D02*
G03*
X14441756Y15335555I78552J0D01*
G01*
X14441756Y15335551D02*
G03*
X14451537Y15300938I78475J3486D01*
G01*
X14575777Y15283493D02*
G03*
X14588924Y15300938I-55545J55545D01*
G01*
X14575735Y15283453D02*
G03*
X14575777Y15283493I-55504J55585D01*
G01*
X14571219Y15279283D02*
G03*
X14575735Y15283453I-50988J59755D01*
G01*
X14580144Y15389841D02*
G03*
X14575777Y15394583I-59913J-50803D01*
G01*
X14441750Y15342375D02*
G03*
X14441679Y15339040I78481J-3337D01*
G01*
X14441750Y15342375D02*
G03*
X14441679Y15339040I78481J-3337D01*
G01*
X14502589Y15356931D02*
G03*
X14474387Y15342503I8222J-50851D01*
G01*
X14446220Y15365363D02*
G03*
X14441750Y15342375I74010J-26325D01*
G01*
X14446220Y15365363D02*
G03*
X14441750Y15342375I74010J-26325D01*
G01*
X14538959Y15349220D02*
G03*
X14527469Y15354823I-28148J-43141D01*
G01*
X14527469D02*
G03*
X14522569Y15356232I-16658J-48744D01*
G01*
X14575774Y15394585D02*
G03*
X14568491Y15401018I-55543J-55546D01*
G01*
D02*
G03*
X14566467Y15402541I-48260J-61979D01*
G01*
D02*
G03*
X14564677Y15403806I-46237J-63503D01*
G01*
X14564674Y15403809D02*
G03*
X14563158Y15404823I-44445J-64770D01*
G01*
X14464687Y15394582D02*
G03*
X14451538Y15377139I55545J-55544D01*
G01*
X14464687Y15394582D02*
G03*
X14451537Y15377138I55545J-55544D01*
G01*
X14451537Y15377136D02*
G03*
X14451529Y15377122I68695J-38098D01*
G01*
X14451537Y15377136D02*
G03*
X14451529Y15377122I68695J-38098D01*
G01*
Y15377122D02*
G03*
X14446222Y15365364I68702J-38085D01*
G01*
X14451529Y15377122D02*
G03*
X14446222Y15365364I68702J-38085D01*
G01*
X14451537Y15377136D02*
G03*
X14446222Y15365364I68695J-38098D01*
G01*
X14451537Y15377136D02*
G03*
X14446222Y15365364I68695J-38098D01*
G01*
X14527469Y15354823D02*
G03*
X14522569Y15356232I-16658J-48744D01*
G01*
X14538960Y15349220D02*
G03*
X14527469Y15354823I-28149J-43140D01*
G01*
X14502589Y15356931D02*
G03*
X14474387Y15342503I8222J-50851D01*
G01*
X17962692Y7688580D02*
G03*
X17962692Y7688580I-78552J0D01*
G01*
X18689133Y14328140D02*
G03*
X18689133Y14328140I-78552J0D01*
G01*
X17922052Y14343381D02*
G03*
X17922052Y14343381I-78552J0D01*
G01*
X18675011Y11153140D02*
G03*
X18675011Y11153140I-78552J0D01*
G01*
X17932211D02*
G03*
X17932211Y11153140I-78552J0D01*
G01*
X18682071Y7660081D02*
G03*
X18682071Y7660081I-78552J0D01*
G01*
X10845612Y7355840D02*
G03*
X10811330Y7290951I-78552J0D01*
G01*
D02*
G03*
X10845612Y7355840I-44270J64889D01*
G01*
X12420255Y13241389D02*
G03*
X12419108Y13247366I-77661J-11799D01*
G01*
X12408380Y13272516D02*
G03*
X12398853Y13284412I-65786J-42926D01*
G01*
X12420486Y13239751D02*
G03*
X12420255Y13241388I-77892J-10160D01*
G01*
X12265535Y13214349D02*
G03*
X12269179Y13201649I77060J15240D01*
G01*
X12264702Y13219431D02*
G03*
X12265076Y13216890I77892J10160D01*
G01*
D02*
G03*
X12265535Y13214349I77519J12700D01*
G01*
X12345134Y13308101D02*
G03*
X12342594Y13308142I-2540J-78511D01*
G01*
D02*
G03*
X12294960Y13292052I0J-78552D01*
G01*
X12269179Y13201649D02*
G03*
X12270216Y13199065I73415J27940D01*
G01*
X12294960Y13292052D02*
G03*
X12273901Y13267690I47634J-62461D01*
G01*
D02*
G03*
X12270216Y13260115I68694J-38100D01*
G01*
D02*
G03*
X12270197Y13260069I72378J-30525D01*
G01*
D02*
G03*
X12264273Y13235609I72397J-30480D01*
G01*
X12421146Y13229590D02*
G03*
X12420486Y13239751I-78552J0D01*
G01*
X12417746Y13252451D02*
G03*
X12411288Y13267690I-75152J-22861D01*
G01*
D02*
G03*
X12408380Y13272516I-68694J-38100D01*
G01*
X12264607Y13220181D02*
G03*
X12264702Y13219431I77987J9408D01*
G01*
X12270216Y13199065D02*
G03*
X12342594Y13151038I72378J30526D01*
G01*
D02*
G03*
X12421146Y13229590I0J78552D01*
G01*
X12398139Y13285135D02*
G03*
X12345134Y13308101I-55545J-55545D01*
G01*
X12418472Y13249910D02*
G03*
X12417746Y13252451I-75878J-20320D01*
G01*
X12419107Y13247369D02*
G03*
X12418472Y13249910I-76513J-17780D01*
G01*
X12398853Y13284412D02*
G03*
X12398139Y13285135I-56259J-54821D01*
G01*
X24251732Y13088620D02*
G03*
X24251732Y13088620I-78552J0D01*
G01*
X23941705Y11076605D02*
G03*
X23964713Y11021060I-55545J-55545D01*
G01*
X23957385Y11054186D02*
G03*
X23941705Y11076605I-71226J-33126D01*
G01*
X23964713Y11021060D02*
G03*
X23957385Y11054186I-78552J0D01*
G01*
X10621198Y6446520D02*
X10899140D01*
X10621198Y6065520D02*
X10899140D01*
X10576560Y6110158D02*
Y6401882D01*
X10621198Y6446520D01*
X10576560Y6110158D02*
X10621198Y6065520D01*
X10021245Y8407400D02*
X10457180D01*
X9996790Y11795760D02*
X11586535D01*
X10076800Y15304770D02*
X11646225D01*
X14124712Y6303197D02*
Y6787068D01*
X14169348Y6258560D02*
X16945422D01*
X16990060Y6303197D02*
Y7142480D01*
X16945422Y6258560D02*
X16990060Y6303197D01*
X14124712D02*
X14169348Y6258560D01*
X15872459Y6809740D02*
X15925800Y6756400D01*
Y6473377D02*
Y6756400D01*
X15970438Y6428740D02*
X16156940D01*
X15925800Y6473377D02*
X15970438Y6428740D01*
X15377161Y6809740D02*
X15872459D01*
X16156940Y6428740D02*
X16159480Y6426200D01*
X14124712Y6787109D02*
Y6788064D01*
Y6787068D02*
Y6787109D01*
X14117320Y6944008D02*
Y7146615D01*
X14124712Y6788064D02*
Y6853149D01*
X14112241Y6865620D02*
X14124712Y6853149D01*
X14117320Y7146615D02*
X14122400Y7151695D01*
X13446761Y9108440D02*
Y9857740D01*
X13444220Y9105900D02*
X13446761Y9108440D01*
X20763417Y10035540D02*
X22218463D01*
X20718781Y9990903D02*
X20763417Y10035540D01*
X20718781Y6784340D02*
X20919440Y6583680D01*
X20718781Y6784340D02*
Y9990903D01*
X22365202Y9724401D02*
X22368982Y9720621D01*
X20932140Y7061200D02*
Y9713855D01*
X20976778Y9758492D02*
X22126128D01*
X22160219Y9724401D02*
X22365202D01*
X20932140Y9713855D02*
X20976778Y9758492D01*
X22126128D02*
X22160219Y9724401D01*
X20932140Y7061200D02*
X21094701Y6898640D01*
X22633940Y6628317D02*
Y7158803D01*
X22678577Y7203440D01*
X23875694D02*
X23912358Y7166778D01*
X22678577Y7203440D02*
X23875694D01*
X20919440Y6583680D02*
X22589304D01*
X22633940Y6628317D01*
X22263100Y10080177D02*
Y12280900D01*
X22218463Y10035540D02*
X22263100Y10080177D01*
X21612860Y15694659D02*
X22321519D01*
X19006821D02*
X21612860D01*
X21617940Y13022580D02*
Y15689580D01*
X21612860Y15694659D02*
X21617940Y15689580D01*
X21523959Y12217400D02*
X21617940Y12311380D01*
X20961024Y12217400D02*
X21523959D01*
X20961026Y12745720D02*
X22265640D01*
X22797583Y12479020D02*
X22842220Y12523657D01*
Y13797279D01*
X20961024Y12479020D02*
X22797583D01*
X22608540Y13797279D02*
X22842220D01*
Y13958661D01*
Y13797279D02*
X23921222D01*
X20294122Y12227560D02*
X20299202Y12222480D01*
X20745773D02*
X20750854Y12217400D01*
X20299202Y12222480D02*
X20745773D01*
X20299202Y12740640D02*
X20745776D01*
X20294122Y12735560D02*
X20299202Y12740640D01*
X20745776D02*
X20750856Y12745720D01*
X20294122Y12481560D02*
X20295392Y12480290D01*
X20749583D02*
X20750854Y12479020D01*
X20295392Y12480290D02*
X20749583D01*
X20294122Y10957560D02*
Y11211560D01*
X23727843Y16771701D02*
X23783641Y16827499D01*
X24297639D01*
X23394395Y9375140D02*
X24348441D01*
X15125700Y6803577D02*
Y7371243D01*
X15019020Y13524007D02*
X15069820Y13574806D01*
X15019020Y13510260D02*
Y13524007D01*
X14353540Y13318901D02*
X14358539D01*
X14403177Y13274265D01*
X15015697Y10163286D02*
X15021561Y10160000D01*
X15004222Y10169718D02*
X15015697Y10163286D01*
X19417216Y14333220D02*
X19785655D01*
X19372580Y14288583D02*
X19417216Y14333220D01*
X19372580Y13539658D02*
Y14288583D01*
X19133450Y14542583D02*
X19178087Y14587219D01*
X19088812Y13708380D02*
X19133450Y13753017D01*
X17672237Y13708380D02*
X19088812D01*
X19178087Y14587219D02*
X19785655D01*
X19133450Y13753017D02*
Y14542583D01*
X19103340Y10937240D02*
Y13450383D01*
X18757899Y10591800D02*
X19103340Y10937240D01*
X19147977Y13495020D02*
X19327943D01*
X19103340Y13450383D02*
X19147977Y13495020D01*
X19327943D02*
X19372580Y13539658D01*
X18788380Y13848080D02*
Y14076680D01*
X17449800Y13790742D02*
X17507137Y13848080D01*
X18788380D01*
X17627600Y13663744D02*
X17672237Y13708380D01*
X19785655Y14333220D02*
X19795815Y14323061D01*
X17914619Y12748260D02*
X17918430Y12752070D01*
X18840450D02*
X18844260Y12755880D01*
X17918430Y12752070D02*
X18840450D01*
X18788380Y14076680D02*
X18897600Y14185899D01*
X15886911Y13899825D02*
X15917679Y13869057D01*
X14283900Y12929024D02*
X14297894Y12898967D01*
X14269908Y12959081D02*
X14348460D01*
X17449800Y13714917D02*
Y13790742D01*
X17406619Y14043660D02*
X18168433D01*
X18213071Y14088297D02*
Y14331950D01*
X14363495Y12883521D02*
X14378529Y12886511D01*
X18168433Y14043660D02*
X18213071Y14088297D01*
X14269908Y12959081D02*
X14283900Y12929024D01*
X14348460Y12880528D02*
X14363495Y12883521D01*
X17200880Y13837920D02*
X17406619Y14043660D01*
X14103539Y12959081D02*
X14269908D01*
X14427013D02*
X14743242D01*
X14348460D02*
X14427013D01*
X18757899Y9367520D02*
Y10591800D01*
X16857980Y9194800D02*
X18760440D01*
X16169640Y7006168D02*
Y7073900D01*
X16736060Y9072880D02*
X16857980Y9194800D01*
X15519400Y8956040D02*
Y9034592D01*
Y9265920D01*
X15518130Y8518836D02*
Y8877498D01*
X14901097Y8956040D02*
X15440848D01*
X15676880Y15539949D02*
Y15540569D01*
X16918941Y14901097D02*
Y15392400D01*
Y14901097D02*
X16963577Y14856461D01*
X15676880Y15540569D02*
Y15580360D01*
Y15539908D02*
Y15539949D01*
X16963577Y14856461D02*
X19777411D01*
X15755432Y15618460D02*
X16692880D01*
X15676880D02*
X15755432D01*
X15687041Y14926497D02*
Y15540569D01*
X14857916Y15676880D02*
X15624368D01*
X15440660Y12316460D02*
Y12395012D01*
X16796832D01*
X14837598Y12316460D02*
X15362108D01*
X15440660Y11799245D02*
Y12237908D01*
X20279359Y14328140D02*
X20284441Y14333220D01*
X20011066Y14328140D02*
X20279359D01*
X20005984Y14323061D02*
X20011066Y14328140D01*
X19995825Y14587219D02*
X20284441D01*
X20281900Y14843761D02*
X20284441Y14841220D01*
X19988205Y14843761D02*
X20281900D01*
X19985664Y14846300D02*
X19988205Y14843761D01*
X9413077Y15300960D02*
X9415780Y15303500D01*
X23956995Y8346440D02*
X24180800D01*
X23912358Y8301803D02*
X23956995Y8346440D01*
X23912358Y7666777D02*
Y8301803D01*
X15252699Y6934200D02*
X15377161Y6809740D01*
X16159480Y6426200D02*
X16818423D01*
X16169640Y6621780D02*
X16238220Y6553200D01*
X16691423D01*
X16169640Y6621780D02*
Y7005508D01*
X14434821Y6563217D02*
X14479457Y6518580D01*
X14687798D01*
X14434821Y6563217D02*
Y6692038D01*
X15337602Y6410960D02*
X15339059Y6412418D01*
X15166341Y6410960D02*
X15337602D01*
X15058720Y6518580D02*
X15166341Y6410960D01*
X14877800Y6518580D02*
X15058720D01*
X15252699Y6934200D02*
Y7371243D01*
X14732436Y6758940D02*
X15081062D01*
X15125700Y6803577D01*
X15424336Y6958655D02*
X15737840D01*
X15742415Y6954080D02*
X15936400D01*
X15737840Y6958655D02*
X15742415Y6954080D01*
X15936400D02*
X15946120Y6944360D01*
X15737840Y7180580D02*
X15743570Y7174850D01*
X15551337Y7180580D02*
X15737840D01*
X15743570Y7174850D02*
X16048071D01*
X15737840D02*
X15743570D01*
X16094591Y7128330D02*
X16138861Y7084060D01*
X16048071Y7174850D02*
X16094591Y7128330D01*
X16138861Y7084060D02*
X16159480D01*
X13457005Y6907941D02*
Y7947660D01*
X11509375Y6445781D02*
X12387772D01*
X15379700Y7003292D02*
X15424336Y6958655D01*
X15379700Y7003292D02*
Y7371243D01*
X15506700Y7225217D02*
X15551337Y7180580D01*
X15506700Y7225217D02*
Y7371243D01*
X15991840Y9686477D02*
Y9822180D01*
X16713200Y9641840D02*
X16804640Y9733280D01*
X16036478Y9641840D02*
X16713200D01*
X15991840Y9686477D02*
X16036478Y9641840D01*
X16553180Y9814560D02*
X16649699Y9911080D01*
X16197580Y9859197D02*
X16242216Y9814560D01*
X16553180D01*
X16197580Y9859197D02*
Y10488743D01*
X16804640Y9733280D02*
Y11126282D01*
X15697200Y10116820D02*
X15991840Y9822180D01*
X15233836Y10116820D02*
X15697200D01*
X15709900Y10324155D02*
X15732124Y10301930D01*
X15824510D01*
X15996919Y10129520D01*
X15710371Y10533852D02*
X15936150D01*
X16093253Y10533380D02*
X16152943D01*
X16052800D02*
X16093253D01*
X16014700D02*
X16052800D01*
X16152943D02*
X16197580Y10488743D01*
X15645740Y12980060D02*
X15708347D01*
X15795367Y12893040D01*
X17132300Y12730480D02*
X17556480D01*
X16796832Y12395012D02*
X17132300Y12730480D01*
X17556480D02*
X17627600Y12801601D01*
Y13663744D01*
X17044856Y13670280D02*
X17405164D01*
X17000220Y12890500D02*
Y13625642D01*
X17044856Y13670280D01*
X17405164D02*
X17449800Y13714917D01*
X17156441Y13528802D02*
X17164822Y13520419D01*
X16884837Y13837920D02*
X17200880D01*
X16840199Y13793283D02*
X16884837Y13837920D01*
X16670020Y12560300D02*
X17000220Y12890500D01*
X15852139Y12560300D02*
X16670020D01*
X14423578Y12715240D02*
X16550639D01*
X16840199Y13004800D01*
Y13793283D01*
X16644620Y13112936D02*
Y14097000D01*
X16891000Y14343381D01*
X16599983Y13068300D02*
X16644620Y13112936D01*
X15892780Y13068300D02*
X16599983D01*
X16392972Y13300908D02*
Y14106972D01*
X16667480Y14381480D01*
Y14956602D01*
X16891000Y14343381D02*
X17175481D01*
X16392972Y13288483D02*
Y13288484D01*
Y13286740D02*
Y13288483D01*
Y13288484D02*
Y13300908D01*
X16622842Y15001241D02*
X16667480Y14956602D01*
X15971519Y15001241D02*
X16622842D01*
X16391682Y13286740D02*
X16392972D01*
X16352521D02*
X16391682D01*
X16314420D02*
X16352521D01*
X12146280Y13357860D02*
X12288520Y13500101D01*
Y13745300D01*
X12132300Y9974580D02*
X12283617Y10125897D01*
Y10247899D01*
X12303760Y10268041D01*
X12367260Y6677660D02*
Y6901363D01*
X12263120Y6573520D02*
X12367260Y6677660D01*
X11464290Y6573520D02*
X12263120D01*
X15621001Y9367520D02*
X18757899D01*
X24457660Y11889740D02*
Y14847382D01*
X24348441Y9375140D02*
X24457660Y9484360D01*
X15450819Y14686198D02*
Y14837222D01*
X15495457Y14881860D01*
X15468600Y15309525D02*
X15680502D01*
X14813280Y15632243D02*
X14857916Y15676880D01*
X14813280Y15289204D02*
Y15632243D01*
X15495457Y14881860D02*
X15642403D01*
X15687041Y14926497D01*
X16692880Y15618460D02*
X16918941Y15392400D01*
X15446375Y15077130D02*
X15468600Y15099355D01*
X15323820Y15032494D02*
X15368457Y15077130D01*
X15446375D01*
X15915640Y14945360D02*
X15971519Y15001241D01*
X15334019Y14571796D02*
X15407497Y14498320D01*
X15871004D02*
X15915640Y14542957D01*
X15323820Y14620998D02*
X15334019Y14610799D01*
X15915640Y14542957D02*
Y14945360D01*
X15334019Y14571796D02*
Y14610799D01*
X15407497Y14498320D02*
X15871004D01*
X15323820Y14620998D02*
Y15032494D01*
X17164822Y13266420D02*
X17171172Y13260069D01*
X15450819Y13944463D02*
Y14183441D01*
Y13944463D02*
X15495457Y13899825D01*
X15697200D01*
X15886911D01*
X15338425Y13237657D02*
X15346680Y13229402D01*
X15443201Y10581029D02*
X15487837Y10536392D01*
X15443201Y10581029D02*
Y10744200D01*
X15487837Y10536392D02*
X15707832D01*
X15709900Y10534325D01*
X15710371Y10533852D01*
X15631160Y12994640D02*
X15645740Y12980060D01*
X15795367Y12893040D02*
X16250920D01*
X16605063Y12186920D02*
X16649699Y12142283D01*
Y9911080D02*
Y12142283D01*
X16243300Y12186920D02*
X16605063D01*
X23860760Y16343817D02*
Y16655862D01*
X21882100Y16343817D02*
X21926736Y16299181D01*
X21882100Y16343817D02*
Y16591280D01*
X21926736Y16299181D02*
X23816122D01*
X23860760Y16343817D01*
X20284441Y13063220D02*
X20299937D01*
X24187759Y11889740D02*
X24187759Y11889740D01*
X24187759D02*
X24457660D01*
X20278090Y14580870D02*
X20284441Y14587219D01*
X15519400Y9265920D02*
X15621001Y9367520D01*
X14132372Y9686620D02*
X14907852D01*
X16935263Y9494520D02*
X16979900Y9539157D01*
Y10539543D01*
X15099953Y9494520D02*
X16935263D01*
X14907852Y9686620D02*
X15099953Y9494520D01*
X21899879Y15392587D02*
Y15471140D01*
Y14505940D02*
Y15392587D01*
X18240720Y15928340D02*
X22852380D01*
X23888699Y14892020D01*
X18196082Y15664180D02*
Y15883704D01*
X18240720Y15928340D01*
X18196082Y15156180D02*
X18468340D01*
X19006821Y15694659D01*
X10776548Y14256572D02*
X10841581Y14241219D01*
X10845571Y14213840D02*
X10957560D01*
X10769600D02*
X10845571D01*
X10711515Y14271925D02*
X10776548Y14256572D01*
X10837992Y10761980D02*
X10977880D01*
X10759440D02*
X10837992D01*
X21899879Y14505940D02*
X22608540Y13797279D01*
X22844760Y14587219D02*
X23599368D01*
X23888699Y14892020D02*
X24413022D01*
X14348460Y12790358D02*
X14423578Y12715240D01*
X14348460Y12790358D02*
Y12880528D01*
X15887700Y13073380D02*
X15892780Y13068300D01*
X15887700Y13073380D02*
Y13209084D01*
X14348460Y12886511D02*
Y12920979D01*
Y12880528D02*
Y12886511D01*
X16233141Y9065260D02*
X16240759Y9072880D01*
X16736060D01*
X20271741Y14066521D02*
X20284441Y14079221D01*
X20279359Y13820140D02*
X20284441Y13825220D01*
Y13063220D02*
Y13317220D01*
X16214641Y14360442D02*
X16309676Y14455475D01*
X15015619Y14360442D02*
X16214641D01*
X14953020Y14297842D02*
X15015619Y14360442D01*
X14953020Y14258841D02*
Y14297842D01*
X14942821Y14248642D02*
X14953020Y14258841D01*
X14942821Y14183441D02*
Y14248642D01*
X15864841Y11056620D02*
X15938499Y11130280D01*
Y11504743D01*
X15983138Y11549380D02*
X16429803D01*
X15938499Y11504743D02*
X15983138Y11549380D01*
X15316200Y11101257D02*
Y11246963D01*
X16474440Y10182672D02*
Y11504743D01*
X16429803Y11549380D02*
X16474440Y11504743D01*
X15316200Y11246963D02*
Y11544437D01*
X15957738Y8064500D02*
X16536295D01*
X15913100Y8019863D02*
X15957738Y8064500D01*
X15913100Y7741637D02*
Y8019863D01*
X15868463Y7697000D02*
X15913100Y7741637D01*
X15424336Y7697000D02*
X15868463D01*
X16536295Y8064500D02*
X16580933Y8019863D01*
Y6903868D02*
Y8019863D01*
X15067281Y9706797D02*
Y9841983D01*
X15022643Y9886620D02*
X15067281Y9841983D01*
Y9706797D02*
X15111917Y9662160D01*
X14880341Y9886620D02*
X15022643D01*
X15111917Y9662160D02*
X15339059D01*
X16691423Y6553200D02*
X16736060Y6597837D01*
Y9072880D01*
X16863060Y7495540D02*
X17035019Y7667499D01*
X17129498D01*
X16863060Y6470837D02*
Y7495540D01*
X17129498Y7667499D02*
X17137880Y7675879D01*
X16159480Y7084060D02*
X16169640Y7073900D01*
X16818423Y6426200D02*
X16863060Y6470837D01*
X16990060Y7142480D02*
X17053560Y7205980D01*
X14518640Y15825145D02*
X17123222D01*
X14038580D02*
X14518640D01*
X12556302Y14378940D02*
Y15303500D01*
Y14177197D02*
Y14378940D01*
X15324480Y6426998D02*
X15339059Y6412418D01*
X15119537Y12979401D02*
X15346680D01*
X15074899Y13024037D02*
X15119537Y12979401D01*
X15074899Y13024037D02*
Y13198923D01*
X15030263Y13243559D02*
X15074899Y13198923D01*
X14891441Y13243559D02*
X15030263D01*
X14885422Y13249580D02*
X14891441Y13243559D01*
X15843063Y13253720D02*
X15887700Y13209084D01*
X15549879Y13298357D02*
Y13411200D01*
X15594518Y13253720D02*
X15843063D01*
X15549879Y13298357D02*
X15594518Y13253720D01*
X15339059Y9662160D02*
X15346680Y9669780D01*
X15189200Y10161457D02*
X15233836Y10116820D01*
X15189200Y10161457D02*
Y10744200D01*
X16456325Y6834805D02*
X16511868D01*
X16580933Y6903868D01*
X15379700Y7874000D02*
Y8262759D01*
Y7741637D02*
Y7874000D01*
X14132356Y9686620D02*
X14132372D01*
X14053819Y9763572D02*
Y10534975D01*
X15021561Y10173746D02*
Y10187493D01*
Y10160000D02*
Y10173746D01*
X14803972Y10351126D02*
X14808200Y10359166D01*
X14792960Y10330180D02*
X14803972Y10351126D01*
X14998700Y7505700D02*
X15063000Y7570000D01*
X14998700Y7371243D02*
Y7505700D01*
X15063000Y7570000D02*
X16325664D01*
X14426242Y7659682D02*
X14954063D01*
X14998700Y7704319D01*
Y7874000D01*
X14424660Y7658100D02*
X14426242Y7659682D01*
X15379700Y7741637D02*
X15424336Y7697000D01*
X16325664Y7570000D02*
X16375380Y7619717D01*
Y7770048D02*
Y7848600D01*
Y7619717D02*
Y7770048D01*
X14874240Y6901180D02*
Y7295842D01*
X14871700Y7298382D02*
X14874240Y7295842D01*
X14871700Y7298382D02*
Y7371243D01*
X17053560Y7205980D02*
X18181133D01*
X15247620Y8615868D02*
Y8694420D01*
X15516859Y8517566D02*
X15518130Y8518836D01*
X14554201Y8473211D02*
Y8891594D01*
X14630211Y8394228D02*
X14855988D01*
X14856461Y8603925D02*
Y8911403D01*
X14901097Y8956040D01*
X14136369Y8522970D02*
Y8890325D01*
Y8155615D02*
Y8522970D01*
X14132561Y7941635D02*
X14154785Y7919410D01*
X14126535Y7947660D02*
X14132561Y7941635D01*
X14734500Y7919410D02*
X14744701Y7909210D01*
X14154785Y7919410D02*
X14734500D01*
X14744701Y7874000D02*
Y7909210D01*
X13021310Y7556089D02*
Y8054664D01*
X13014960Y7549739D02*
X13021310Y7556089D01*
Y8054664D02*
X13027660Y8061014D01*
X13797279Y7947660D02*
Y8201848D01*
X13718863Y8275792D02*
X13792673D01*
X13032268D02*
X13718863D01*
X13792673D02*
X13797279Y8280400D01*
X13027660Y8271184D02*
X13032268Y8275792D01*
X13797279Y7947660D02*
X14126535D01*
X14136369Y8890325D02*
X14140179Y8894135D01*
X14132561Y8151805D02*
X14136369Y8155615D01*
X14140179Y9104305D02*
X14140179Y9104305D01*
X14556738D02*
X14556740Y9104304D01*
X14140179Y9104305D02*
X14556738D01*
X14554201Y8891594D02*
X14556740Y8894134D01*
X14855988Y8394228D02*
X14856461Y8393755D01*
X14871700Y7874000D02*
Y8378515D01*
X14856461Y8393755D02*
X14871700Y8378515D01*
X16979900Y10539543D02*
X17024538Y10584180D01*
X18177322D01*
X18221960Y10628817D01*
X18225771Y7250617D02*
Y7691120D01*
X18181133Y7205980D02*
X18225771Y7250617D01*
X14687798Y6518580D02*
Y6714303D01*
X14732436Y6758940D01*
X15252699Y7874000D02*
Y8610788D01*
X15105380Y8399780D02*
X15125700Y8379460D01*
Y7874000D02*
Y8379460D01*
X15527966Y8506460D02*
X15688123D01*
X15732761Y8165017D02*
Y8461823D01*
X15516859Y8517566D02*
X15527966Y8506460D01*
X15688123D02*
X15732761Y8461823D01*
X15551337Y8120380D02*
X15688123D01*
X15732761Y8165017D01*
X15506700Y7874000D02*
Y8075743D01*
X15551337Y8120380D01*
X15494635Y8285171D02*
X15516859Y8307396D01*
X15402112Y8285171D02*
X15494635D01*
X15379700Y8262759D02*
X15402112Y8285171D01*
X14343381Y11141486D02*
X14353101Y11131767D01*
X14846300Y11041380D02*
X14935201Y11130280D01*
X14413417Y11041380D02*
X14846300D01*
X14353101Y11101697D02*
Y11131767D01*
Y11101697D02*
X14413417Y11041380D01*
X14935201Y10744200D02*
Y10848402D01*
X15009576Y10922780D01*
X15360837Y11056620D02*
X15864841D01*
X16232463Y10922780D02*
X16296640Y10986957D01*
X15316200Y11101257D02*
X15360837Y11056620D01*
X15009576Y10922780D02*
X16232463D01*
X16296640Y10986957D02*
Y11336020D01*
X15385725Y10324155D02*
X15724986D01*
X13025121Y6892615D02*
X13441679D01*
X14432280Y6904580D02*
Y7151695D01*
Y6904580D02*
X14434821Y6902040D01*
X14429739Y7154235D02*
X14432280Y7151695D01*
X14124940Y7559269D02*
Y7635240D01*
Y7364405D02*
Y7559269D01*
X14123669Y7363135D02*
X14124940Y7364405D01*
X14122400Y7361865D02*
X14123669Y7363135D01*
X14124940Y7635240D02*
X14127480Y7637780D01*
X14741281Y7367824D02*
X14744701Y7371243D01*
X14433159Y7367824D02*
X14741281D01*
X14429739Y7364405D02*
X14433159Y7367824D01*
X14428470Y7363135D02*
X14429739Y7364405D01*
X14123669Y7363135D02*
X14428470D01*
X13804900Y7358803D02*
X13804906Y7358809D01*
X13804900Y7355754D02*
Y7358803D01*
X13804906Y7358809D02*
X14119344D01*
X14122400Y7361865D01*
X13441679Y6892615D02*
X13457005Y6907941D01*
X13441679Y6892615D02*
X13795816D01*
X13309599Y7100245D02*
Y7493000D01*
X13795816Y6892615D02*
X13804893Y6901692D01*
Y7020640D01*
X13804900Y7020646D01*
X17142461Y8732520D02*
X17145000Y8735060D01*
X17543781D02*
X17546320Y8737600D01*
X17145000Y8735060D02*
X17543781D01*
X17759030D02*
X18216879D01*
X17756490Y8737600D02*
X17759030Y8735060D01*
X18216879D02*
X18219420Y8732520D01*
X17142461Y6614160D02*
X17145000Y6616700D01*
X17542834D02*
X17545375Y6619240D01*
X17145000Y6616700D02*
X17542834D01*
X18209610Y6647180D02*
X18229581D01*
X17755545Y6619240D02*
X18181670D01*
X18209610Y6647180D01*
X14636563Y11365555D02*
X14681200Y11320918D01*
X14063980Y11365555D02*
X14636563D01*
X14681200Y11246963D02*
Y11320918D01*
X15036800Y11815034D02*
X15062199Y11789634D01*
X15036800Y11815034D02*
Y11828780D01*
X15062199Y11246963D02*
Y11789634D01*
X15189200Y11246963D02*
Y12054840D01*
X15644943Y11799245D02*
X15689580Y11754608D01*
Y11472097D02*
Y11754608D01*
X15440660Y11799245D02*
X15644943D01*
X15316200Y10393680D02*
X15385725Y10324155D01*
X15316200Y10393680D02*
Y10744200D01*
X14792960Y12271823D02*
X14837598Y12316460D01*
X14792960Y11894820D02*
Y12271823D01*
X15443201Y11382823D02*
X15487837Y11427460D01*
X15644943D02*
X15689580Y11472097D01*
X15487837Y11427460D02*
X15644943D01*
X15443201Y11246963D02*
Y11382823D01*
X13434146Y10255575D02*
X13434146Y10255575D01*
X12951460Y10255575D02*
X13722156D01*
X13434146Y10255575D02*
Y11358880D01*
X13766792Y10300212D02*
Y10393760D01*
X13766800Y10393766D01*
X13722156Y10255575D02*
X13766792Y10300212D01*
X11780190Y10706598D02*
X11983720D01*
X11661308Y10825480D02*
X11780190Y10706598D01*
X11983720D02*
X12059920D01*
X11983720Y10706598D02*
X11983720Y10706598D01*
X11983720Y10468285D02*
Y10706598D01*
X12311380Y14378940D02*
X12556302D01*
X12556302Y14378940D01*
X17123222Y15825145D02*
X17167860Y15780508D01*
Y15659100D02*
Y15780508D01*
X15241457Y13411200D02*
X15549879D01*
X15196820Y13455836D02*
X15241457Y13411200D01*
X15196820Y13455836D02*
Y14183441D01*
X15829720Y13455434D02*
X15839439Y13445714D01*
X15697200Y13490350D02*
Y13689655D01*
X15732117Y13455434D02*
X15829720D01*
X15697200Y13490350D02*
X15732117Y13455434D01*
X15323820Y13737778D02*
Y14183441D01*
X15693715Y13693140D02*
X15697200Y13689655D01*
X15368457Y13693140D02*
X15693715D01*
X15323820Y13737778D02*
X15368457Y13693140D01*
X24457660Y9484360D02*
Y11889740D01*
X15196820Y15362108D02*
X15219679Y15384969D01*
X15212061Y15385628D02*
Y15461168D01*
X15196820Y14686198D02*
Y15362108D01*
X15069820Y14686198D02*
Y15172914D01*
X15046960Y15195773D02*
Y15209520D01*
Y15195773D02*
X15069820Y15172914D01*
X15186659Y15486568D02*
X15212061Y15461168D01*
X10776548Y14256572D02*
X10776548D01*
X6492240Y16458673D02*
X6613633Y16337280D01*
X8525323D01*
X8569960Y16381917D01*
Y16732062D01*
X6492240Y16458673D02*
Y16609061D01*
X15021561Y10187493D02*
X15062199Y10228133D01*
Y10744200D01*
X16418559Y10126792D02*
X16474440Y10182672D01*
X16418559Y10048240D02*
Y10126792D01*
X11173460Y13660120D02*
X11252200Y13738860D01*
X11140440Y10269220D02*
X11224260Y10353040D01*
X11102340Y6719103D02*
X11200567Y6817330D01*
X11083757Y6700520D02*
X11102340Y6719103D01*
X11122660Y13402498D02*
Y13441679D01*
Y13609320D01*
X11099800Y10123896D02*
Y10228580D01*
Y10019218D02*
Y10123896D01*
X22840950Y14171930D02*
Y14272260D01*
X23246080Y9226824D02*
X23394395Y9375140D01*
X23059074Y9039819D02*
X23246080Y9226824D01*
X11384280Y14478000D02*
X12261662D01*
X12897282Y14176582D02*
X12898120Y14177422D01*
X12895580Y14174881D02*
X12897282Y14176582D01*
X12269282Y10929620D02*
X12313920Y10884982D01*
X12154982Y11043920D02*
X12269282Y10929620D01*
X10355580Y7609840D02*
X11448440D01*
X11396980Y11043920D02*
X12154982D01*
X10419080D02*
X11396980D01*
X14520230Y15351079D02*
Y15356723D01*
Y15351079D02*
Y15356723D01*
Y15356723D01*
Y15359364D01*
Y15356723D02*
Y15356723D01*
Y15356723D02*
Y15356723D01*
X14813280Y15077765D02*
X14814549D01*
X14564868D02*
X14813280D01*
X14520230Y15122403D02*
X14520232Y15260486D01*
X14519437Y15356863D02*
X14519438Y15614178D01*
X14520230Y15356723D01*
Y15356723D02*
Y15359364D01*
Y15356723D02*
Y15356723D01*
Y15356723D02*
Y15356723D01*
Y15356723D02*
Y15356723D01*
X14519438Y15356863D02*
Y15614178D01*
Y15339838D02*
Y15356863D01*
X14520230Y15260486D02*
Y15339040D01*
Y15122403D02*
Y15260486D01*
X14607346Y11685595D02*
X14792015D01*
X14604558Y11707303D02*
X14605934Y11698191D01*
X14607310Y11689080D01*
Y11689079D02*
Y11689080D01*
X14513560Y12224075D02*
X14521652Y12215983D01*
X14528799Y12208835D01*
Y11765092D02*
Y12208835D01*
X14547707Y11754034D02*
X14581854Y11744468D01*
X14513560Y11763600D02*
X14547707Y11754034D01*
X21899683Y9551680D02*
X22367723D01*
X21822400D02*
X21899683D01*
X12342597Y13229590D02*
X12344034D01*
X12264042D02*
X12342597D01*
X11485245D02*
X12264052Y13230859D01*
X11485245Y13229590D02*
X12264042D01*
X14129582Y14445544D02*
X14134912Y14465300D01*
X14124252Y14425790D02*
X14129582Y14445544D01*
X14056360Y14174139D02*
Y14386748D01*
X9702801Y10126132D02*
X9725660Y10148992D01*
X9791348Y10053320D02*
X10245415D01*
X9791512Y10048240D02*
X10245415Y10053320D01*
X9725660Y10148992D02*
X9745861Y10119570D01*
X9768604Y10086445D01*
X9791348Y10053320D01*
Y10053320D02*
Y10053320D01*
X9668934Y10092266D02*
X9702801Y10126132D01*
X9635068Y10058399D02*
X9635068Y10058400D01*
X9668934Y10092266D01*
X9671300Y10101486D02*
X9702801Y10126132D01*
X9639799Y10076840D02*
X9671300Y10101486D01*
X9635068Y10058400D02*
X9702800D01*
X9635068D02*
X9635068D01*
X9831708Y13446761D02*
X10268275D01*
X9831158Y13443100D02*
X10268275Y13446761D01*
X9822363D02*
X9822822D01*
X9822363Y13446745D02*
Y13446761D01*
X9822362Y13443100D02*
X9822363Y13446745D01*
X9822362Y13443100D02*
Y13443100D01*
X9751060Y13525311D02*
Y13557849D01*
X9695515Y13502306D02*
X9751060Y13557849D01*
X9672617Y13450900D02*
X9751060Y13446761D01*
X9672508D02*
X9751060D01*
X10462732Y10226040D02*
Y10348432D01*
Y10060468D02*
Y10226040D01*
X21897153Y9207500D02*
X22367723Y9208760D01*
X21897142D02*
X22367723D01*
X21818597Y9208592D02*
X21897142Y9208760D01*
X21740053Y9208424D02*
X21818597Y9208592D01*
X21307211Y9207500D02*
X21740053Y9208424D01*
X21740048Y9207500D02*
X21780499D01*
X21307211D02*
X21740048D01*
X13769341Y11363960D02*
X14063980D01*
X13769341D02*
Y11618148D01*
Y11696700D01*
X13847893D01*
X13690788D02*
X13769341D01*
X13043571D02*
X13690788D01*
X13694936Y11679135D01*
X13699081Y11661569D01*
X14058977Y11079562D02*
X14137453Y11082020D01*
X14056360Y11079480D02*
X14058977Y11079562D01*
X14056360Y11003509D02*
Y11079480D01*
Y10747685D02*
Y11003509D01*
X14363699Y14460220D02*
X14898183D01*
X13726633Y15019492D02*
X13726633Y15293529D01*
X13801041Y15355498D02*
X13804712Y15372079D01*
X13797368Y15338916D02*
X13801041Y15355498D01*
X9819477Y6702459D02*
X9820729Y6693235D01*
X9821982Y6684011D01*
Y6684010D02*
Y6684011D01*
Y6684010D02*
X10227960D01*
X9733280Y6760632D02*
Y7337262D01*
Y6758681D02*
Y6760632D01*
X9821992Y6682740D02*
X10227960Y6684010D01*
X9700389Y6725789D02*
X9733280Y6758681D01*
X9665291Y6690690D02*
X9700389Y6725789D01*
X9223731Y11212449D02*
X9237635Y11193538D01*
X9243060Y11186160D01*
X11287760Y17043401D02*
X11298961Y17032199D01*
X17272000Y17010381D02*
X17784624D01*
X7649398Y17066890D02*
X8058089D01*
X11334562Y10355580D02*
X11478895D01*
X11332022Y10353040D02*
X11334562Y10355580D01*
X11224260Y10353040D02*
X11332022D01*
X10977880Y10761980D02*
X11140440Y10599420D01*
X11099800Y10228580D02*
X11140440Y10269220D01*
X10913745Y9974580D02*
X11055162D01*
X11140440Y10269220D02*
Y10599420D01*
X11055162Y9974580D02*
X11099800Y10019218D01*
X10913745Y10101580D02*
X11077484D01*
X11099800Y10123896D01*
X10767060Y14216380D02*
X10769600Y14213840D01*
X11122660Y13609320D02*
X11173460Y13660120D01*
X10957560Y14213840D02*
X11173460Y13997940D01*
Y13660120D02*
Y13997940D01*
X11078022Y13357860D02*
X11122660Y13402498D01*
X11252200Y13738860D02*
X11483975D01*
X10918825Y13484860D02*
X11079480D01*
X11122660Y13441679D01*
X10918825Y13357860D02*
X11078022D01*
X23921222Y13797279D02*
X24142700Y14018758D01*
X10899140Y6573520D02*
X11057357D01*
X11102340Y6618503D01*
Y6719103D01*
X11337757Y6954520D02*
X11464290D01*
X11041380Y7360920D02*
X11200567Y7201733D01*
Y6817330D02*
Y7201733D01*
Y6817330D02*
X11337757Y6954520D01*
X10868472Y7360920D02*
X11041380D01*
X10899140Y6700520D02*
X11083757D01*
X14333220Y9891578D02*
X14338177Y9886620D01*
X14690340D01*
Y9899320D02*
Y10125522D01*
X14734978Y10170160D01*
X14843761D01*
X14844202Y10169718D01*
X15004222D01*
X14053819Y12434245D02*
X14054292Y12433772D01*
X14528328D01*
X14528799Y12433300D01*
X15009302Y13519978D02*
X15019020Y13510260D01*
X14843155Y13519978D02*
X15009302D01*
X14842714Y13520419D02*
X14843155Y13519978D01*
X14695419Y13475781D02*
X14740057Y13520419D01*
X14695419Y13274265D02*
Y13475781D01*
X14650781Y13274265D02*
X14675465Y13249580D01*
X15069820Y13574806D02*
Y14183441D01*
X14403177Y13274265D02*
X14650781D01*
X14675465Y13249580D02*
X14695419D01*
X15019020Y13510260D02*
X15032767D01*
X14740057Y13520419D02*
X14842714D01*
X12893040Y13937926D02*
X12895580Y13940465D01*
Y14174881D01*
X10899140Y6065520D02*
X11464290D01*
X10899140Y6446520D02*
X11109960D01*
X11229340Y6565900D01*
Y6666499D01*
X11390361Y6827520D01*
X11464290D01*
X11692702D01*
X11737340Y6872158D01*
Y7130862D01*
X11692702Y7175500D02*
X11737340Y7130862D01*
X11546840Y7175500D02*
X11692702D01*
X11468100Y7254240D02*
X11546840Y7175500D01*
X11468100Y7254240D02*
Y7439660D01*
X11463020Y7444740D02*
X11468100Y7439660D01*
X12368530Y7326630D02*
X12369800Y7327900D01*
X12368530Y7082790D02*
Y7326630D01*
X12367260Y7081520D02*
X12368530Y7082790D01*
X12623800Y7316048D02*
Y7327900D01*
Y7316048D02*
X12697460Y7242388D01*
Y7082699D02*
Y7242388D01*
X12692380Y7077619D02*
X12697460Y7082699D01*
X10226690Y6967220D02*
Y7480950D01*
X10355580Y7609840D01*
X12264202D02*
X12322622Y7551420D01*
X12581702D02*
X12626340Y7506782D01*
X11448440Y7459320D02*
X11463020Y7444740D01*
X11448440Y7459320D02*
Y7609840D01*
X12264202D01*
X12322622Y7551420D02*
X12581702D01*
X12626340Y7330440D02*
X12629718Y7333818D01*
X12369800Y7327900D02*
Y7504242D01*
X12322622Y7551420D02*
X12369800Y7504242D01*
X12626340Y7330440D02*
Y7506782D01*
X12629718Y7333818D02*
X13009042D01*
X13009880Y7097705D02*
X13012421Y7100245D01*
X12623800Y7327900D02*
X12626340Y7330440D01*
X13009042Y7333818D02*
X13012421Y7337201D01*
Y7100245D02*
Y7337201D01*
X13014960Y7339741D01*
X12261850Y8413750D02*
X12265660Y8417560D01*
X11841155Y8413750D02*
X12261850D01*
X11837345Y8409940D02*
X11841155Y8413750D01*
X11837345Y8409940D02*
Y8708715D01*
X11816080Y8729980D02*
X11837345Y8708715D01*
X11799245Y11798300D02*
X12227560D01*
X12288520Y13925459D02*
Y14148648D01*
X11799245Y11798300D02*
Y12089455D01*
X11785600Y12103100D02*
X11799245Y12089455D01*
X12590780Y13925459D02*
Y14130869D01*
X12285980Y15303500D02*
X12556302D01*
Y14177197D02*
X12557760Y14175740D01*
X12283440Y15306039D02*
X12285980Y15303500D01*
X11862745Y15306039D02*
X12283440D01*
X11860205Y15308580D02*
X11862745Y15306039D01*
X12308840Y10701518D02*
X12313920Y10706598D01*
X12308840Y10453279D02*
Y10701518D01*
X12303760Y10448199D02*
X12308840Y10453279D01*
X11854561Y15314224D02*
X11860205Y15308580D01*
X11854561Y15314224D02*
Y15605196D01*
X11848917Y15610840D02*
X11854561Y15605196D01*
X12567920Y10706598D02*
Y10884982D01*
X12523282Y10929620D02*
X12567920Y10884982D01*
X12269282Y10929620D02*
X12523282D01*
X12313920Y10706598D02*
Y10884982D01*
X10254630Y10350500D02*
Y10879470D01*
X11411138Y10825480D02*
Y11029762D01*
X11396980Y11043920D02*
X11411138Y11029762D01*
X10254630Y10879470D02*
X10419080Y11043920D01*
X12567920Y10706598D02*
X12568601Y10705922D01*
X12955864D01*
X12956540Y10705241D01*
X12567920Y10703560D02*
Y10706598D01*
Y10703560D02*
X12631420Y10640060D01*
Y10445659D02*
Y10640060D01*
X12562840Y14176582D02*
X12897282D01*
X12303760Y14386560D02*
X12311380Y14378940D01*
X12303760Y14386560D02*
Y14435902D01*
Y14175740D02*
Y14386560D01*
X12261662Y14478000D02*
X12303760Y14435902D01*
X10265735Y13728700D02*
Y14169714D01*
X11391900Y14300200D02*
Y14470380D01*
X11384280Y14478000D02*
X11391900Y14470380D01*
X10574020Y14478000D02*
X11384280D01*
X10265735Y14169714D02*
X10574020Y14478000D01*
X12953999Y10702701D02*
X12956540Y10705241D01*
X12953999Y10468285D02*
Y10702701D01*
X12951460Y10465745D02*
X12953999Y10468285D01*
X11411138Y10825480D02*
X11424920Y10811698D01*
Y10634980D02*
Y10811698D01*
Y10634980D02*
X11511280Y10548620D01*
X11641902D01*
X11686540Y10503982D01*
Y10236200D02*
Y10503982D01*
X11678920Y10228580D02*
X11686540Y10236200D01*
X11478895Y10228580D02*
X11678920D01*
X11391900Y14300200D02*
X11394440Y14297659D01*
Y14109700D02*
Y14297659D01*
Y14109700D02*
X11534140Y13970000D01*
X11672382D01*
X11717020Y13925362D01*
Y13656499D02*
Y13925362D01*
X11672382Y13611861D02*
X11717020Y13656499D01*
X11483975Y13611861D02*
X11672382D01*
X11348720D02*
X11483975D01*
X11268893Y13532033D02*
X11348720Y13611861D01*
X11268893Y13361853D02*
Y13532033D01*
X11137900Y13230859D02*
X11268893Y13361853D01*
X10918825Y13230859D02*
X11137900D01*
X11436350Y10228580D02*
X11478895D01*
X11433810Y10226040D02*
X11436350Y10228580D01*
X11276863Y10226040D02*
X11433810D01*
X11226800Y10175977D02*
X11276863Y10226040D01*
X11226800Y9966615D02*
Y10175977D01*
X11221720Y9961535D02*
X11226800Y9966615D01*
X11221720Y9939020D02*
Y9961535D01*
X11130280Y9847580D02*
X11221720Y9939020D01*
X10913745Y9847580D02*
X11130280D01*
X10638978Y13230859D02*
X10918825D01*
X10594340Y13186221D02*
X10638978Y13230859D01*
X10594340Y12894498D02*
Y13186221D01*
Y12894498D02*
X10638978Y12849860D01*
X10918825D01*
X11483975D01*
X10638978Y9847580D02*
X10913745D01*
X10594340Y9802942D02*
X10638978Y9847580D01*
X10594340Y9511218D02*
Y9802942D01*
Y9511218D02*
X10638978Y9466580D01*
X10913745D01*
X11478895D01*
X7795260Y16648618D02*
Y16864493D01*
X7750622Y16603979D02*
X7795260Y16648618D01*
X6801038Y16603979D02*
X7750622D01*
X6756400Y16648618D02*
X6801038Y16603979D01*
X6756400Y16648618D02*
Y17043401D01*
X6682740Y17117059D02*
X6756400Y17043401D01*
X6492240Y17117059D02*
X6682740D01*
X7795260Y16864493D02*
X8150697D01*
X8166100Y16879900D01*
X8188676D01*
X8205516Y16863060D01*
X8464941D01*
X8516940Y16915059D01*
X8536940D01*
X8556940D01*
X8568299Y16903700D01*
X8961120D01*
X10868660Y16839093D02*
X11188456D01*
X11190219Y16840860D01*
X10868660Y16653699D02*
Y16839093D01*
X10798622Y16583659D02*
X10868660Y16653699D01*
X9953178Y16583659D02*
X10798622D01*
X9908540Y16628297D02*
X9953178Y16583659D01*
X9908540Y16628297D02*
Y17030701D01*
X9827260Y17111980D02*
X9908540Y17030701D01*
X9651522Y17111980D02*
X9827260D01*
X11190219Y16840860D02*
X11516101D01*
X11567282Y16892041D01*
X11579860D01*
X11581359Y16893539D01*
X11998960D01*
X12590780Y13925459D02*
X12597013Y13931693D01*
X12694442Y17089120D02*
X12844780D01*
X12946381Y16987520D01*
Y16600359D02*
Y16987520D01*
Y16600359D02*
X12991019Y16555721D01*
X13780582D01*
X13825220Y16600359D01*
Y16811153D01*
X13820140Y16816232D02*
X13825220Y16811153D01*
X13820140Y16816232D02*
X14142888D01*
X14145261Y16813860D01*
X14490340D01*
X14544162Y16867683D01*
X14556740D01*
X14557198Y16868140D01*
X15046960D01*
X15747522Y17145000D02*
X15784419Y17108099D01*
X15914182D01*
X15958820Y17063461D01*
Y16643538D02*
Y17063461D01*
Y16643538D02*
X16003458Y16598900D01*
X16767622D01*
X16812260Y16643538D01*
Y16811153D01*
X17176999Y16810381D02*
X17561342D01*
X17597440Y16846478D01*
X17617439D01*
X17621179Y16842740D01*
X18087340D01*
X19923759Y16602898D02*
Y16765433D01*
X19879121Y16558260D02*
X19923759Y16602898D01*
X19094638Y16558260D02*
X19879121D01*
X19050000Y16602898D02*
X19094638Y16558260D01*
X19050000Y16602898D02*
Y17002760D01*
X18973801Y17078960D02*
X19050000Y17002760D01*
X18828542Y17078960D02*
X18973801D01*
X19923759Y16765433D02*
X19927072Y16762120D01*
X20242780D01*
X20550455D01*
X20561646Y16773312D01*
X20607671D01*
X20624800Y16790440D01*
X20631380Y16797020D01*
X21145500D01*
X23027640Y16780673D02*
X23388487D01*
X23393401Y16775760D01*
X23027640Y16625758D02*
Y16780673D01*
X22983002Y16581120D02*
X23027640Y16625758D01*
X22140099Y16581120D02*
X22983002D01*
X22095461Y16625758D02*
X22140099Y16581120D01*
X22095461Y16625758D02*
Y17017741D01*
X22050822Y17062379D02*
X22095461Y17017741D01*
X21919000Y17062379D02*
X22050822D01*
X21882100Y17099280D02*
X21919000Y17062379D01*
X23397459Y16771701D02*
X23727843D01*
X22352945Y8536940D02*
X23201442D01*
X23246080Y8581578D01*
Y9226824D01*
X22368982Y9039819D02*
X23059074D01*
X22903180Y9375140D02*
X23394395D01*
X22898100Y9380220D02*
X22903180Y9375140D01*
X22368982Y9380220D02*
X22898100D01*
X22839680Y14170660D02*
X22840950Y14171930D01*
Y14408333D02*
X22842220Y14409602D01*
X22840950Y14272260D02*
X24142700D01*
X22840950D02*
Y14408333D01*
X24142700Y14272260D02*
X24411752D01*
X24456390Y14227621D01*
X24413022Y14892020D02*
X24457660Y14847382D01*
X14520230Y15122403D02*
X14564868Y15077765D01*
X14813280Y15079034D02*
X14814549Y15077765D01*
X14519438Y15339838D02*
X14520230Y15339040D01*
X14518640Y15614975D02*
X14519438Y15614178D01*
X14814549Y14761601D02*
Y15077765D01*
Y14761601D02*
X14815820Y14760332D01*
Y14686198D02*
Y14760332D01*
X22842220Y14589760D02*
X22844760Y14587219D01*
X11272520Y12976860D02*
X11483975D01*
X11272520D02*
Y13009880D01*
X11178540Y13103860D02*
X11272520Y13009880D01*
X10918825Y12976860D02*
X11272520D01*
X10918825Y13103860D02*
X11178540D01*
X11483975Y12976860D02*
X12443460D01*
X12590780Y13124181D01*
Y13745300D01*
X14792015Y11685595D02*
X14792960Y11684650D01*
X14808200Y11669410D01*
Y11246963D02*
Y11669410D01*
X21821140Y9552940D02*
X21822400Y9551680D01*
X22367723D02*
X22368982Y9550420D01*
X6732742Y13872423D02*
X6734424Y13870741D01*
X7117939D01*
X7119620Y13869060D01*
X12344034Y13229590D02*
X12365457D01*
X11483975Y13230859D02*
X11485245Y13229590D01*
X12893040Y13727756D02*
X13403722D01*
X13448360Y13772392D01*
Y14168120D01*
X13449631Y14169389D01*
Y14723109D01*
X13450900Y14724380D01*
X12893040Y13727756D02*
X12894310Y13726485D01*
Y13239751D02*
Y13726485D01*
X15839439Y13445714D02*
Y13459460D01*
X14056360Y14171605D02*
Y14174139D01*
X13775360Y14168120D02*
X13777103Y14169862D01*
X14054617D01*
X14056360Y14171605D01*
X14057629Y14172874D01*
X14352271D01*
X14353540Y14174146D01*
X14358188Y14178793D01*
X14684172D01*
X14688820Y14183441D01*
X12898120Y14387419D02*
X13197839D01*
Y14974382D01*
X13242477Y15019020D01*
X13516936D01*
X14353540Y13528899D02*
Y13963976D01*
X6741160Y10474960D02*
X6742100Y10474020D01*
X7136460D01*
X7137400Y10473080D01*
X11478895Y9847580D02*
X11481435Y9845040D01*
X12260580D01*
X12263120Y9842500D01*
X12951460Y10255575D02*
X12955270Y10251765D01*
Y9853930D02*
Y10251765D01*
X10245415Y10053320D02*
X10250495Y10058400D01*
X9702800D02*
X9712960Y10048240D01*
X9681022Y10795660D02*
X9725660Y10751022D01*
X9240520Y10795660D02*
X9681022D01*
X9725660Y10148992D02*
Y10751022D01*
X9228811Y10783951D02*
X9240520Y10795660D01*
X8709010Y10783951D02*
X9228811D01*
X8697300Y10772242D02*
X8709010Y10783951D01*
X12956540Y10915239D02*
X12959081Y10917779D01*
Y11378255D01*
X12961620Y11380795D01*
X14331950Y10102850D02*
X14333220Y10101580D01*
X14331950Y10102850D02*
Y10533705D01*
X14330679Y10534975D02*
X14331950Y10533705D01*
X13009880Y6436360D02*
Y6887535D01*
X14885422Y13249580D02*
X14888098Y13252261D01*
X9751060Y13446761D02*
X9822363D01*
X9751060Y13557849D02*
Y14286702D01*
X9268460Y14331340D02*
X9706422D01*
X9751060Y14286702D01*
X9268460Y14318640D02*
Y14331340D01*
X9261831Y14312012D02*
X9268460Y14318640D01*
X8792830Y14312012D02*
X9261831D01*
X8786200Y14305382D02*
X8792830Y14312012D01*
X14815820Y13713460D02*
Y14183441D01*
X14810741Y13708380D02*
X14815820Y13713460D01*
X14056360Y13006258D02*
X14103539Y12959081D01*
X14056360Y13006258D02*
Y13961435D01*
X14743242Y12959081D02*
X14787880Y13003719D01*
Y13047040D01*
X14790421Y13049580D01*
X14348460Y12920979D02*
Y12959081D01*
X14808200Y10359166D02*
Y10744200D01*
X14792960Y10330180D02*
X14795500Y10355580D01*
X18221960Y10628817D02*
Y11146790D01*
X17536485Y15408910D02*
X17540295Y15412720D01*
X17171671Y15408910D02*
X17536485D01*
X17167860Y15405099D02*
X17171671Y15408910D01*
X10475905Y13728700D02*
X10477175Y13727431D01*
Y13609320D02*
Y13727431D01*
X10479715Y13611861D02*
X10918825D01*
X10477175Y13448030D02*
X10478445Y13446761D01*
X10477175Y13448030D02*
Y13609320D01*
X10479715Y13611861D01*
X10475905Y13728700D02*
X10480985Y13733780D01*
X10913745D01*
X10918825Y13738860D01*
X11483975Y13484860D02*
X11941622D01*
X11986260Y13529498D01*
Y13731889D01*
X17152620Y12247880D02*
X17155161Y12245340D01*
X17532675D01*
X17535216Y12242800D01*
X17152620Y10043160D02*
X17548860D01*
X15316200Y11544437D02*
X15338612Y11566850D01*
X15418436D01*
X15440660Y11589075D01*
X21277580Y8615680D02*
Y8971280D01*
Y8615680D02*
X21361400Y8531860D01*
X22137695D01*
X22142775Y8536940D01*
X10465272Y10228580D02*
X10913745D01*
X10462732Y10226040D02*
X10465272Y10228580D01*
X10460665Y10058400D02*
X10462732Y10060468D01*
Y10348432D02*
X10464800Y10350500D01*
X10467340Y10353040D01*
X10911205D01*
X10913745Y10355580D01*
X11478895Y10101580D02*
X11915140D01*
X11983720Y10170160D01*
Y10258115D01*
X11464290Y6700520D02*
X11851792D01*
X12037212Y6885940D01*
X12052300D01*
X22367723Y9208760D02*
X22368982Y9210020D01*
X21780499Y9207500D02*
X21818600D01*
X21289432Y9225280D02*
X21307211Y9207500D01*
X21277580Y9225280D02*
X21289432D01*
X7072137Y7588082D02*
X7167880Y7492340D01*
X7137400Y10873080D02*
Y10969056D01*
X6215380Y10938322D02*
X6260018Y10982960D01*
X6733159D02*
X6741160Y10974959D01*
X6260018Y13296899D02*
X6267638Y13304520D01*
X7119620Y14269060D02*
Y14372421D01*
X11483975Y13357860D02*
X12146280D01*
X14053819Y12224075D02*
X14058900Y12218995D01*
Y11899900D02*
Y12218995D01*
X14935201Y11130280D02*
Y11246963D01*
X14058900Y11580805D02*
X14063980Y11575725D01*
X14058900Y11580805D02*
Y11899900D01*
X12998933Y11652062D02*
X13043571Y11696700D01*
X12998933Y11613190D02*
Y11652062D01*
X12976707Y11590965D02*
X12998933Y11613190D01*
X12961620Y11590965D02*
X12976707D01*
X13769254Y11358880D02*
X13769341Y11348806D01*
X13766800Y10728874D02*
X13766805Y10745145D01*
X14053819D01*
X14330679D01*
X14331152Y10744672D01*
X14680728D01*
X14681200Y10744200D01*
X14053819Y10745145D02*
X14056360Y10747685D01*
Y11079480D02*
X14058900Y11082020D01*
X16804640Y11126282D02*
X16849278Y11170920D01*
X17152620D01*
X14038580Y15614975D02*
X14041119Y15612434D01*
Y15275560D02*
Y15612434D01*
X14363699Y14455141D02*
Y14460220D01*
X14898183D02*
X14942821Y14504858D01*
Y14686198D01*
X14041119Y14938686D02*
X14043660Y14936145D01*
X14041119Y14938686D02*
Y15275560D01*
X13726633Y15019492D02*
X13727106Y15019020D01*
Y14790674D02*
Y15019020D01*
Y14790674D02*
X13778697Y14739082D01*
Y14725179D02*
Y14739082D01*
X13777901Y14724380D02*
X13778697Y14725179D01*
X14042862D01*
X14043660Y14725975D01*
X14048186Y14721449D01*
X14678619D01*
X14688820Y14711247D01*
Y14686198D02*
Y14711247D01*
X11478895Y9974580D02*
X12132300D01*
X6758142Y7088083D02*
X6760271Y7090212D01*
X7165751D01*
X7167880Y7092340D01*
X10227960Y6684010D02*
X10229230Y6685280D01*
X9245600Y7381900D02*
X9688642D01*
X9733280Y7337262D01*
X9231351Y7367651D02*
X9245600Y7381900D01*
X8688690Y7367651D02*
X9231351D01*
X8674440Y7353402D02*
X8688690Y7367651D01*
X13252861Y7549739D02*
X13309599Y7493000D01*
X13014960Y7549739D02*
X13252861D01*
X17750465Y15412720D02*
X17751735Y15411450D01*
X18194812D01*
X18196082Y15410181D01*
X18213071Y13252451D02*
X18214340Y13251180D01*
X17745386Y12242800D02*
X17746655Y12241530D01*
X18210530D01*
X18211800Y12240260D01*
X17759030Y10043160D02*
X17760300Y10044430D01*
X18228310D01*
X18229581Y10045700D01*
X10438130Y6686550D02*
X10439400Y6685280D01*
X10438130Y6686550D02*
Y6826250D01*
X10436860Y6967220D02*
X10438130Y6965950D01*
Y6826250D02*
Y6965950D01*
Y6826250D02*
X10439400Y6827520D01*
X10899140D01*
X10438130Y6965950D02*
X10443210Y6960870D01*
X10892790D01*
X10899140Y6954520D01*
X20294122Y12481560D02*
X20296661Y12484100D01*
X9357360Y11798300D02*
X9359900Y11795760D01*
X9781540D01*
X9784080Y11793220D01*
X8714090Y11212449D02*
X9223731D01*
X8697300Y11229238D02*
X8714090Y11212449D01*
X8674440Y7810398D02*
X8688690Y7796149D01*
X9231351D01*
X9245600Y7781900D01*
Y7868427D01*
X9395460Y8417560D02*
X9399270Y8413750D01*
X9804725D01*
X9808535Y8409940D01*
X8910980Y14731340D02*
X9268460D01*
X8910980D02*
Y14740509D01*
X8808070D02*
X8910980D01*
X8786200Y14762378D02*
X8808070Y14740509D01*
X11646225Y15304770D02*
X11650035Y15308580D01*
Y15592114D01*
X11668760Y15610840D01*
X11586535Y11795760D02*
X11589075Y11798300D01*
X9994250Y11793220D02*
X9996790Y11795760D01*
X11589075Y11798300D02*
X11597259Y11806484D01*
Y12094916D01*
X11605443Y12103100D01*
X11627175Y8409940D02*
X11631549Y8414314D01*
Y8725606D01*
X11635923Y8729980D01*
X11624635Y8407400D02*
X11627175Y8409940D01*
X10462260Y8407400D02*
X11624635D01*
X10018705Y8409940D02*
X10021245Y8407400D01*
X11641902Y14300200D02*
X11656482Y14285620D01*
Y14220378D02*
Y14285620D01*
Y14220378D02*
X11701120Y14175740D01*
X12049760D01*
X11986260Y14112241D02*
X12049760Y14175740D01*
X11986260Y13942059D02*
Y14112241D01*
X11661140Y10825480D02*
X11661308D01*
X11850482Y7327900D02*
X12115800D01*
X11733642Y7444740D02*
X11850482Y7327900D01*
X11713022Y7444740D02*
X11733642D01*
X12052300Y7264400D02*
X12115800Y7327900D01*
X12052300Y7096110D02*
Y7264400D01*
X11300460Y9593580D02*
X11478895D01*
X10913745Y9720580D02*
X11173460D01*
X10913745Y9593580D02*
X11300460D01*
X11173460Y9720580D02*
X11300460Y9593580D01*
X11478895D02*
X12504420D01*
X12631420Y9720580D01*
Y10265501D01*
X11247120Y6192520D02*
X11464290D01*
X11120120Y6319520D02*
X11247120Y6192520D01*
X10899140Y6319520D02*
X11120120D01*
X10899140Y6192520D02*
X11247120D01*
X11464290D02*
X12542520D01*
X12694920Y6344920D01*
Y6894921D01*
X12692380Y6897461D02*
X12694920Y6894921D01*
X10132060Y16834013D02*
X10144288Y16846240D01*
X10257602D01*
X10302240Y16890878D01*
Y16992249D01*
X10346878Y17036887D01*
X10497820D01*
Y17349281D01*
X10542458Y17393919D01*
X11243122D01*
X11287760Y17349281D01*
Y17043401D02*
Y17349281D01*
X11298961Y17032199D02*
X11579860D01*
X11586967Y17025092D01*
X11994408D01*
X11998960Y17020540D01*
X7005320Y16869572D02*
X7161342D01*
X7205980Y16914211D01*
Y17015109D01*
X7250618Y17059747D01*
X7414260D01*
Y17354362D01*
X7458898Y17399001D01*
X8217982D01*
X8262620Y17354362D01*
Y17081419D02*
Y17354362D01*
X8261101Y17079900D02*
X8262620Y17081419D01*
X8261101Y17079900D02*
X8452180D01*
X8457621Y17074458D01*
X8527542D01*
X8536940Y17065060D01*
X8926759D01*
X8961120Y17030701D01*
X13159740Y16818773D02*
X13171968Y16831000D01*
X13280202D01*
X13324840Y16875638D01*
Y16966849D01*
X13357249Y16999260D01*
X13480252D01*
X13492480Y17011487D01*
Y17361983D01*
X13537119Y17406619D01*
X14195622D01*
X14240260Y17361983D01*
Y17013860D02*
Y17361983D01*
Y17013860D02*
X14538142D01*
X14544162Y17007840D01*
X14556740D01*
X14564888Y16999692D01*
X15042409D01*
X15046960Y16995140D01*
X19276060Y16760353D02*
X19401602D01*
X19446240Y16804991D01*
Y16908429D01*
X19478650Y16940840D01*
X19591492D01*
X19603720Y16953067D01*
Y17389922D01*
X19648358Y17434560D01*
X20293143D01*
X20337781Y17389922D01*
Y16962120D02*
Y17389922D01*
Y16962120D02*
X20550455D01*
X20564841Y16947728D01*
X20607671D01*
X20624800Y16930598D01*
X20628087Y16927307D01*
X21142213D01*
X21145500Y16924020D01*
X22316440Y16776700D02*
X22439442D01*
X22484081Y16821338D01*
Y16923669D01*
X22516490Y16956081D01*
X22647112D01*
X22659340Y16968307D01*
Y17387383D01*
X22703978Y17432021D01*
X23465602D01*
X23510240Y17387383D01*
Y16997598D02*
Y17387383D01*
X23488400Y16975760D02*
X23510240Y16997598D01*
X23488400Y16975760D02*
X23774959D01*
X23789639Y16961079D01*
X23792928Y16957787D01*
X24294353D01*
X24297639Y16954500D01*
X16169640Y16811153D02*
X16181868Y16823380D01*
X16282481D01*
X16327119Y16868018D01*
Y16937802D01*
X16378418Y16989101D01*
X16474911D01*
X16487140Y17001328D01*
Y17379762D01*
X16531778Y17424400D01*
X17227362D01*
X17272000Y17379762D01*
Y17010381D02*
Y17379762D01*
X17784624Y17010381D02*
X17825262Y16969740D01*
X18087340D01*
X9651522Y16323499D02*
Y16603979D01*
Y16323499D02*
X9696155Y16278860D01*
X11525062D01*
X11569700Y16323499D01*
Y16702278D01*
X11633962Y16766541D01*
X11998960D01*
X8569960Y16732062D02*
X8614598Y16776700D01*
X8961120D01*
X12694442Y16310799D02*
Y16581120D01*
Y16310799D02*
X12739075Y16266161D01*
X14628941D01*
X14673579Y16310799D01*
Y16726215D01*
X14688506Y16741141D01*
X15046960D01*
X18828542Y16336198D02*
Y16570959D01*
Y16336198D02*
X18873175Y16291560D01*
X20697002D01*
X20741640Y16336198D01*
Y16625381D01*
X20786278Y16670020D01*
X21145500D01*
X23860760Y16655862D02*
X23905399Y16700500D01*
X24297639D01*
X15747522Y16323499D02*
Y16637000D01*
Y16323499D02*
X15792155Y16278860D01*
X17651543D01*
X17696181Y16323499D01*
Y16671101D01*
X17740817Y16715739D01*
X18087340D01*
X9475658Y16857980D02*
X9651522D01*
X9431020Y16902618D02*
X9475658Y16857980D01*
X9431020Y16902618D02*
Y17349281D01*
X9475658Y17393919D01*
X10077262D01*
X10121900Y17349281D01*
Y17034348D02*
Y17349281D01*
Y17034348D02*
X10132060Y17024187D01*
X6308278Y16863060D02*
X6492240D01*
X6263640Y16907698D02*
X6308278Y16863060D01*
X6263640Y16907698D02*
Y17364522D01*
X6308278Y17409160D01*
X6960682D01*
X7005320Y17364522D01*
Y17059747D02*
Y17364522D01*
X12472858Y16835120D02*
X12694442D01*
X12428220Y16879758D02*
X12472858Y16835120D01*
X12428220Y16879758D02*
Y17320261D01*
X12514580Y17406619D01*
X13115102D01*
X13159740Y17361983D01*
Y17008948D02*
Y17361983D01*
X18622198Y16824960D02*
X18828542D01*
X18577560Y16869598D02*
X18622198Y16824960D01*
X18577560Y16869598D02*
Y17379762D01*
X18622198Y17424400D01*
X19228882D01*
X19273520Y17379762D01*
Y16953067D02*
Y17379762D01*
Y16953067D02*
X19276060Y16950526D01*
X21695598Y16845280D02*
X21882100D01*
X21650960Y16889919D02*
X21695598Y16845280D01*
X21650960Y16889919D02*
Y17388840D01*
X21714461Y17452341D01*
X22261642D01*
X22316440Y17397542D01*
Y16966870D02*
Y17397542D01*
X15538638Y16891000D02*
X15747522D01*
X15494000Y16935638D02*
X15538638Y16891000D01*
X15494000Y16935638D02*
Y17325340D01*
X15577820Y17409160D01*
X16122462D01*
X16167101Y17364522D01*
Y17003867D02*
Y17364522D01*
Y17003867D02*
X16169640Y17001328D01*
X10497820Y16846713D02*
X10638602D01*
X10683240Y16891351D01*
Y16984628D01*
X10727878Y17029266D01*
X10868660D01*
X10880253Y17040860D01*
X11095218D01*
X7414260Y16869572D02*
X7560122D01*
X7604760Y16914211D01*
Y17022252D01*
X7649398Y17066890D01*
X8058089D02*
X8071099Y17079900D01*
X13492480Y16821313D02*
X13504707Y16833540D01*
X13620441D01*
X13672820Y16885921D01*
Y16961769D01*
X13705231Y16994180D01*
X13807912D01*
X13820140Y17006407D01*
X13827592Y17013860D01*
X14050259D01*
X19603720Y16762894D02*
X19615948Y16775121D01*
X19719102D01*
X19763741Y16819759D01*
Y16898743D01*
X19808379Y16943381D01*
X19911533D01*
X19923759Y16955608D01*
X19930273Y16962120D01*
X20147778D01*
X22659340Y16778133D02*
X22784882D01*
X22829520Y16822771D01*
Y16917482D01*
X22874158Y16962120D01*
X23018913D01*
X23027640Y16970847D01*
X23293488D01*
X23298399Y16975760D01*
X16487140Y16811153D02*
X16499368Y16823380D01*
X16607602D01*
X16652240Y16868018D01*
Y16942882D01*
X16698457Y16989101D01*
X16800032D01*
X16812260Y17001328D01*
X17072945D01*
X17081998Y17010381D01*
X14520230Y15347585D02*
Y15351079D01*
Y15339040D02*
Y15339288D01*
Y15344287D01*
Y15347585D01*
D11*
X10899140Y6065520D02*
D03*
Y6192520D02*
D03*
Y6319520D02*
D03*
Y6446520D02*
D03*
Y6573520D02*
D03*
Y6700520D02*
D03*
Y6827520D02*
D03*
Y6954520D02*
D03*
X11464290D02*
D03*
Y6827520D02*
D03*
Y6700520D02*
D03*
Y6573520D02*
D03*
Y6446520D02*
D03*
Y6319520D02*
D03*
Y6192520D02*
D03*
Y6065520D02*
D03*
X11478895Y9466580D02*
D03*
Y9593580D02*
D03*
Y9720580D02*
D03*
Y9847580D02*
D03*
Y9974580D02*
D03*
Y10101580D02*
D03*
Y10228580D02*
D03*
Y10355580D02*
D03*
X10913745D02*
D03*
Y10228580D02*
D03*
Y10101580D02*
D03*
Y9974580D02*
D03*
Y9847580D02*
D03*
Y9720580D02*
D03*
Y9593580D02*
D03*
Y9466580D02*
D03*
X10918825Y12849860D02*
D03*
Y12976860D02*
D03*
Y13103860D02*
D03*
Y13230859D02*
D03*
Y13357860D02*
D03*
Y13484860D02*
D03*
Y13611861D02*
D03*
Y13738860D02*
D03*
X11483975D02*
D03*
Y13611861D02*
D03*
Y13484860D02*
D03*
Y13357860D02*
D03*
Y13230859D02*
D03*
Y13103860D02*
D03*
Y12976860D02*
D03*
Y12849860D02*
D03*
D12*
X17745386Y12242800D02*
D03*
X17535216D02*
D03*
X11627175Y8409940D02*
D03*
X11837345D02*
D03*
X11650035Y15308580D02*
D03*
X11860205D02*
D03*
X11589075Y11798300D02*
D03*
X11799245D02*
D03*
X17755545Y6619240D02*
D03*
X17545375D02*
D03*
X17756490Y8737600D02*
D03*
X17546320D02*
D03*
X17759030Y10043160D02*
D03*
X17548860D02*
D03*
X22142775Y8536940D02*
D03*
X22352945D02*
D03*
X19795815Y14323061D02*
D03*
X20005984D02*
D03*
X19785655Y14587219D02*
D03*
X19995825D02*
D03*
X19985664Y14846300D02*
D03*
X19775494D02*
D03*
X17750465Y15412720D02*
D03*
X17540295D02*
D03*
X10072990Y15300960D02*
D03*
X9862820D02*
D03*
X10268275Y13446761D02*
D03*
X10478445D02*
D03*
X9994250Y11793220D02*
D03*
X9784080D02*
D03*
X10254630Y10350500D02*
D03*
X10464800D02*
D03*
X10250495Y10058400D02*
D03*
X10460665D02*
D03*
X10018705Y8409940D02*
D03*
X9808535D02*
D03*
X10226690Y6967220D02*
D03*
X10436860D02*
D03*
X10229230Y6685280D02*
D03*
X10439400D02*
D03*
X13516936Y15019020D02*
D03*
X13727106D02*
D03*
X20750856Y12745720D02*
D03*
X20961026D02*
D03*
X20750854Y12217400D02*
D03*
X20961024D02*
D03*
X20750854Y12479020D02*
D03*
X20961024D02*
D03*
X10265735Y13728700D02*
D03*
X10475905D02*
D03*
D13*
X11848917Y15610840D02*
D03*
X11668760D02*
D03*
X11816080Y8729980D02*
D03*
X11635923D02*
D03*
X11785600Y12103100D02*
D03*
X11605443D02*
D03*
D14*
X12052300Y7096110D02*
D03*
Y6885940D02*
D03*
X13009880Y7097705D02*
D03*
Y6887535D02*
D03*
X13027660Y8061014D02*
D03*
Y8271184D02*
D03*
X15709900Y10324155D02*
D03*
Y10534325D02*
D03*
X15516859Y8307396D02*
D03*
Y8517566D02*
D03*
X14856461Y8393755D02*
D03*
Y8603925D02*
D03*
X14132561Y7941635D02*
D03*
Y8151805D02*
D03*
X14429739Y7154235D02*
D03*
Y7364405D02*
D03*
X14122400Y7361865D02*
D03*
Y7151695D02*
D03*
X15737840Y7174850D02*
D03*
Y6964680D02*
D03*
X11983720Y10468285D02*
D03*
Y10258115D02*
D03*
X12951460Y10465745D02*
D03*
Y10255575D02*
D03*
X14053819Y10745145D02*
D03*
Y10534975D02*
D03*
X14330679D02*
D03*
Y10745145D02*
D03*
X14063980Y11365555D02*
D03*
Y11575725D02*
D03*
X14792960Y11684650D02*
D03*
Y11894820D02*
D03*
X15440660Y11589075D02*
D03*
Y11799245D02*
D03*
X15468600Y15099355D02*
D03*
Y15309525D02*
D03*
X14038580Y15614975D02*
D03*
Y15825145D02*
D03*
X15697200Y13689655D02*
D03*
Y13899825D02*
D03*
X14353540Y13963976D02*
D03*
Y14174146D02*
D03*
X14056360Y14171605D02*
D03*
Y13961435D02*
D03*
X12893040Y13937926D02*
D03*
Y13727756D02*
D03*
X11986260Y13731889D02*
D03*
Y13942059D02*
D03*
X14556740Y8894134D02*
D03*
Y9104304D02*
D03*
X14140179Y8894135D02*
D03*
Y9104305D02*
D03*
X14528799Y12223130D02*
D03*
Y12433300D02*
D03*
X14053819Y12224075D02*
D03*
Y12434245D02*
D03*
X14813280Y15289204D02*
D03*
X14043660Y14725975D02*
D03*
Y14936145D02*
D03*
X14813280Y15079034D02*
D03*
X14518640Y15614975D02*
D03*
Y15825145D02*
D03*
X12961620Y11380795D02*
D03*
Y11590965D02*
D03*
D15*
X12367260Y6901363D02*
D03*
Y7081520D02*
D03*
X12692380Y7077619D02*
D03*
Y6897461D02*
D03*
X12303760Y10448199D02*
D03*
Y10268041D02*
D03*
X12631420Y10265501D02*
D03*
Y10445659D02*
D03*
X22842220Y14138818D02*
D03*
Y13958661D02*
D03*
Y14409602D02*
D03*
Y14589760D02*
D03*
X12590780Y13745300D02*
D03*
Y13925459D02*
D03*
X12288520D02*
D03*
Y13745300D02*
D03*
D16*
X13014960Y7339741D02*
D03*
Y7549739D02*
D03*
X14434821Y6902040D02*
D03*
Y6692038D02*
D03*
X14333220Y10101580D02*
D03*
Y9891578D02*
D03*
X12956540Y10705241D02*
D03*
Y10915239D02*
D03*
X14353540Y13500958D02*
D03*
Y13290961D02*
D03*
X12898120Y14177422D02*
D03*
Y14387419D02*
D03*
D17*
X13462173Y7947660D02*
D03*
X13434146Y11358880D02*
D03*
D18*
X13797279Y7947660D02*
D03*
X13769254Y11358880D02*
D03*
D19*
X13804900Y7020646D02*
D03*
X13766800Y10393766D02*
D03*
D20*
X13804900Y7355754D02*
D03*
X13766800Y10728874D02*
D03*
D21*
X14782799Y6318580D02*
D03*
X14687798Y6518580D02*
D03*
X14877800D02*
D03*
X14785339Y9686620D02*
D03*
X14690340Y9886620D02*
D03*
X14880341D02*
D03*
X14790421Y13049580D02*
D03*
X14695419Y13249580D02*
D03*
X14885422D02*
D03*
X8261101Y17079900D02*
D03*
X8071099D02*
D03*
X8166100Y16879900D02*
D03*
X11285220Y17040860D02*
D03*
X11095218D02*
D03*
X11190219Y16840860D02*
D03*
X14240260Y17013860D02*
D03*
X14050259D02*
D03*
X14145261Y16813860D02*
D03*
X17272000Y17010381D02*
D03*
X17081998D02*
D03*
X17176999Y16810381D02*
D03*
X20337781Y16962120D02*
D03*
X20147778D02*
D03*
X20242780Y16762120D02*
D03*
X23488400Y16975760D02*
D03*
X23298399D02*
D03*
X23393401Y16775760D02*
D03*
D22*
X22368982Y9039819D02*
D03*
Y9210020D02*
D03*
Y9380220D02*
D03*
Y9550420D02*
D03*
Y9720621D02*
D03*
D23*
X23399477Y9380220D02*
D03*
D24*
X15323820Y14183441D02*
D03*
X15196820D02*
D03*
X15069820D02*
D03*
X14942821D02*
D03*
X14815820D02*
D03*
X14688820D02*
D03*
Y14686198D02*
D03*
X14815820D02*
D03*
X14942821D02*
D03*
X15069820D02*
D03*
X15196820D02*
D03*
X15450819Y14183441D02*
D03*
X15323820Y14686198D02*
D03*
X15450819D02*
D03*
X15443201Y10744200D02*
D03*
X15316200D02*
D03*
X15189200D02*
D03*
X15062199D02*
D03*
X14935201D02*
D03*
X14808200D02*
D03*
X14681200D02*
D03*
Y11246963D02*
D03*
X14808200D02*
D03*
X14935201D02*
D03*
X15062199D02*
D03*
X15189200D02*
D03*
X15316200D02*
D03*
X15443201D02*
D03*
X15506700Y7371243D02*
D03*
X15379700D02*
D03*
X15252699D02*
D03*
X15125700D02*
D03*
X14998700D02*
D03*
X14871700D02*
D03*
X14744701D02*
D03*
Y7874000D02*
D03*
X14871700D02*
D03*
X14998700D02*
D03*
X15125700D02*
D03*
X15252699D02*
D03*
X15379700D02*
D03*
X15506700D02*
D03*
D25*
X9245600Y7781900D02*
D03*
Y7381900D02*
D03*
X9240520Y11195660D02*
D03*
Y10795660D02*
D03*
X9268460Y14731340D02*
D03*
Y14331340D02*
D03*
X7167880Y7092340D02*
D03*
Y7492340D02*
D03*
X7137400Y10473080D02*
D03*
Y10873080D02*
D03*
X7119620Y14269060D02*
D03*
Y13869060D02*
D03*
D26*
X8697300Y11229238D02*
D03*
Y10772242D02*
D03*
X8674440Y7810398D02*
D03*
Y7353402D02*
D03*
X8786200Y14762378D02*
D03*
Y14305382D02*
D03*
D27*
X7988300Y11000740D02*
D03*
X7965440Y7581900D02*
D03*
X8077200Y14533881D02*
D03*
D28*
X13450900Y14724380D02*
D03*
X13777901D02*
D03*
X13448360Y14168120D02*
D03*
X13775360D02*
D03*
D29*
X7005320Y16869572D02*
D03*
Y17059747D02*
D03*
X7414260D02*
D03*
Y16869572D02*
D03*
X7795260Y17054668D02*
D03*
Y16864493D02*
D03*
X10868660Y17029266D02*
D03*
Y16839093D02*
D03*
X10497820Y17036887D02*
D03*
Y16846713D02*
D03*
X10132060Y16834013D02*
D03*
Y17024187D02*
D03*
X13820140Y17006407D02*
D03*
Y16816232D02*
D03*
X13492480Y17011487D02*
D03*
Y16821313D02*
D03*
X13159740Y16818773D02*
D03*
Y17008948D02*
D03*
X16812260Y17001328D02*
D03*
Y16811153D02*
D03*
X16487140Y17001328D02*
D03*
Y16811153D02*
D03*
X16169640D02*
D03*
Y17001328D02*
D03*
X19276060Y16760353D02*
D03*
Y16950526D02*
D03*
X19923759Y16955608D02*
D03*
Y16765433D02*
D03*
X19603720Y16953067D02*
D03*
Y16762894D02*
D03*
X22316440Y16776700D02*
D03*
Y16966870D02*
D03*
X22659340Y16968307D02*
D03*
Y16778133D02*
D03*
X23027640Y16970847D02*
D03*
Y16780673D02*
D03*
D30*
X8536940Y16915059D02*
D03*
Y17065060D02*
D03*
X17617439Y16846478D02*
D03*
Y16996481D02*
D03*
D31*
X11579860Y16892041D02*
D03*
Y17032199D02*
D03*
X14556740Y16867683D02*
D03*
Y17007840D02*
D03*
X20624800Y16790440D02*
D03*
Y16930598D02*
D03*
X23789639Y16820921D02*
D03*
Y16961079D02*
D03*
D32*
X12466320Y6446520D02*
X12504420D01*
X14551660Y8394700D02*
X14589760D01*
X14127480Y7637780D02*
X14165581D01*
X14053819Y9685020D02*
X14091920D01*
X12367260Y9847580D02*
X12405360D01*
X13769341Y11696700D02*
X13807440D01*
X21780499Y9207500D02*
X21818600D01*
X21783040Y9552940D02*
X21821140D01*
X15631160Y12956540D02*
Y12994640D01*
X14348460Y12920979D02*
Y12959081D01*
X9751060Y13446761D02*
Y13484860D01*
X9712960Y10048240D02*
X9751060D01*
X9743440Y6682740D02*
X9781540D01*
X13726160Y15372079D02*
X13764259D01*
X15676880Y15580360D02*
Y15589250D01*
X16314420Y13286740D02*
X16352521D01*
X15979140Y13820140D02*
X16017239D01*
X15626080Y6515100D02*
X15664180D01*
X16014700Y10533380D02*
X16052800D01*
X16365221Y14511020D02*
X16403320D01*
X16179800Y7084060D02*
X16197580D01*
X16159480D02*
X16179800D01*
X14112241Y6865620D02*
X14150340D01*
X15519400Y8956040D02*
X15557500D01*
X16375380Y7848600D02*
X16413480D01*
X15219679Y15463519D02*
X15229840D01*
X15257780D01*
X15232381Y12054840D02*
X15237460Y12059920D01*
X13797279Y8280400D02*
X13835381D01*
X21899879Y15471140D02*
X21937981D01*
X16431261Y6779260D02*
X16469360D01*
X17884140Y7688580D02*
X17922240D01*
X18610580Y14290041D02*
Y14328140D01*
X14056360Y14465300D02*
X14094460D01*
X17843500Y14305280D02*
Y14343381D01*
X18596458Y11153140D02*
X18634558D01*
X15440660Y12316460D02*
X15478760D01*
X14528799Y11686540D02*
X14566901D01*
X16418559Y10048240D02*
X16456660D01*
X16296640Y11336020D02*
Y11374120D01*
X14058900Y11082020D02*
X14097000D01*
X15676880Y9738360D02*
X15714980D01*
X17853661Y11153140D02*
X17891760D01*
X18603519Y7660081D02*
X18641618D01*
X15247620Y8694420D02*
Y8732520D01*
X23677879Y14584680D02*
Y14622780D01*
X10767060Y7355840D02*
X10805160D01*
X12365457Y13229590D02*
X12380697D01*
X12344034D02*
X12365457D01*
X12342597D02*
X12344034D01*
X23886160Y10982960D02*
Y11021060D01*
X24173180Y13050520D02*
Y13088620D01*
X10767060Y14178281D02*
Y14216380D01*
D33*
X9413077Y15300960D02*
X9413240D01*
X9415780D01*
X9862820D01*
X6758142Y7588082D02*
X7072137D01*
D34*
X6260018Y13296899D02*
Y14242131D01*
X6732742Y14372421D02*
X7119620D01*
X6260018Y10982960D02*
Y13296899D01*
Y7588082D02*
Y10982960D01*
X6379047Y14361160D02*
X6721480D01*
X6260018Y7588082D02*
X6758142D01*
X6260018Y14242131D02*
X6379047Y14361160D01*
D35*
X6747063Y10969056D02*
X7137400D01*
X6721480Y14361160D02*
X6732742Y14372421D01*
X6260018Y10982960D02*
X6733159D01*
D36*
X9243060Y11195660D02*
Y11684000D01*
Y11186160D02*
Y11195660D01*
Y11684000D02*
X9357360Y11798300D01*
X9245600Y7868427D02*
Y8267700D01*
X9395460Y8417560D01*
X9268460Y15156180D02*
X9413240Y15300960D01*
X9268460Y14731340D02*
Y15156180D01*
X9413240Y15300960D02*
X9415780Y15303500D01*
D37*
X20294122Y10957560D02*
D03*
Y11211560D02*
D03*
Y11719560D02*
D03*
Y12227560D02*
D03*
Y12481560D02*
D03*
Y11973560D02*
D03*
Y11465560D02*
D03*
X18214340Y13251180D02*
D03*
Y12997180D02*
D03*
X18211800Y12240260D02*
D03*
Y11986260D02*
D03*
X18229581Y6647180D02*
D03*
Y6393180D02*
D03*
X18219420Y8732520D02*
D03*
Y8478520D02*
D03*
X18229581Y10045700D02*
D03*
Y9791700D02*
D03*
X20284441Y13571220D02*
D03*
Y14079221D02*
D03*
Y14587219D02*
D03*
Y14333220D02*
D03*
Y13825220D02*
D03*
Y13317220D02*
D03*
Y13063220D02*
D03*
X18196082Y15156180D02*
D03*
Y15410181D02*
D03*
X6492240Y16609061D02*
D03*
Y16863060D02*
D03*
X9651522Y16603979D02*
D03*
Y16857980D02*
D03*
X12694442Y16581120D02*
D03*
Y16835120D02*
D03*
X15747522Y16637000D02*
D03*
Y16891000D02*
D03*
X21882100Y16591280D02*
D03*
Y16845280D02*
D03*
X18828542Y16570959D02*
D03*
Y16824960D02*
D03*
D38*
X20294122Y12735560D02*
D03*
X18214340Y13505180D02*
D03*
X18211800Y12494260D02*
D03*
X18229581Y6901180D02*
D03*
X18219420Y8986520D02*
D03*
X18229581Y10299700D02*
D03*
X20284441Y14841220D02*
D03*
X18196082Y15664180D02*
D03*
X6492240Y17117059D02*
D03*
X9651522Y17111980D02*
D03*
X12694442Y17089120D02*
D03*
X15747522Y17145000D02*
D03*
X21882100Y17099280D02*
D03*
X18828542Y17078960D02*
D03*
D39*
X12466320Y6446520D02*
D03*
X14551660Y8394700D02*
D03*
X14127480Y7637780D02*
D03*
X15339059Y6412418D02*
D03*
Y6662420D02*
D03*
X15346680Y9919782D02*
D03*
Y9669780D02*
D03*
X14053819Y9685020D02*
D03*
X12367260Y9847580D02*
D03*
X13769341Y11696700D02*
D03*
X21818600Y9207500D02*
D03*
X21821140Y9552940D02*
D03*
X15631160Y12994640D02*
D03*
X15346680Y12979401D02*
D03*
Y13229402D02*
D03*
X14348460Y12959081D02*
D03*
X9751060Y13446761D02*
D03*
X9712960Y10048240D02*
D03*
X9743440Y6682740D02*
D03*
X13726160Y15372079D02*
D03*
X15676880Y15618460D02*
D03*
X16314420Y13286740D02*
D03*
X15979140Y13820140D02*
D03*
X15626080Y6515100D02*
D03*
X16014700Y10533380D02*
D03*
X16365221Y14511020D02*
D03*
X14112241Y6865620D02*
D03*
X15519400Y8956040D02*
D03*
X16375380Y7848600D02*
D03*
X15219679Y15463519D02*
D03*
X15194279Y12054840D02*
D03*
X13797279Y8280400D02*
D03*
X14520230Y15339040D02*
D03*
X21899879Y15471140D02*
D03*
X16431261Y6779260D02*
D03*
X16159480Y7084060D02*
D03*
X17884140Y7688580D02*
D03*
X18610580Y14328140D02*
D03*
X14056360Y14465300D02*
D03*
X17843500Y14343381D02*
D03*
X18596458Y11153140D02*
D03*
X15440660Y12316460D02*
D03*
X14528799Y11686540D02*
D03*
X16418559Y10048240D02*
D03*
X16296640Y11336020D02*
D03*
X14058900Y11082020D02*
D03*
X15676880Y9738360D02*
D03*
X17853661Y11153140D02*
D03*
X18603519Y7660081D02*
D03*
X15247620Y8694420D02*
D03*
X23677879Y14584680D02*
D03*
X11463020Y7444740D02*
D03*
X11713022D02*
D03*
X10767060Y7355840D02*
D03*
X11411138Y10825480D02*
D03*
X11661140D02*
D03*
X11391900Y14300200D02*
D03*
X11641902D02*
D03*
X10759440Y10761980D02*
D03*
X12342597Y13229590D02*
D03*
X23886160Y11021060D02*
D03*
X24173180Y13088620D02*
D03*
X10767060Y14216380D02*
D03*
D40*
X6732742Y14372421D02*
D03*
X23912358Y7166778D02*
D03*
X6741160Y10974959D02*
D03*
X6758142Y7588082D02*
D03*
D41*
X6732742Y13872423D02*
D03*
X23912358Y7666777D02*
D03*
X6741160Y10474960D02*
D03*
X6758142Y7088083D02*
D03*
D42*
X9415780Y15303500D02*
D03*
X9357360Y11798300D02*
D03*
X9395460Y8417560D02*
D03*
D43*
X12285980Y15303500D02*
D03*
X12227560Y11798300D02*
D03*
X12265660Y8417560D02*
D03*
D44*
X24180800Y10535920D02*
D03*
D45*
Y8346440D02*
D03*
X23284180Y6898640D02*
D03*
D46*
X17164822Y13266420D02*
D03*
X17142461Y6868160D02*
D03*
Y6614160D02*
D03*
X17152620Y10043160D02*
D03*
Y10297160D02*
D03*
Y12247880D02*
D03*
Y12501880D02*
D03*
Y11170920D02*
D03*
Y10916920D02*
D03*
X17142461Y8732520D02*
D03*
Y8986520D02*
D03*
X17137880Y7675879D02*
D03*
Y7421879D02*
D03*
X17175481Y14343381D02*
D03*
Y14089380D02*
D03*
X17167860Y15405099D02*
D03*
Y15659100D02*
D03*
X17164822Y13520419D02*
D03*
X21277580Y8971280D02*
D03*
Y9225280D02*
D03*
X12623800Y7327900D02*
D03*
X12369800D02*
D03*
X12313920Y10706598D02*
D03*
X12567920D02*
D03*
X12557760Y14175740D02*
D03*
X12303760D02*
D03*
D47*
X17142461Y6360160D02*
D03*
X17152620Y9789160D02*
D03*
Y11993880D02*
D03*
Y11424920D02*
D03*
X17142461Y8478520D02*
D03*
X17137880Y7929879D02*
D03*
X17175481Y14597380D02*
D03*
X17167860Y15151100D02*
D03*
X17164822Y13012421D02*
D03*
X21277580Y9479280D02*
D03*
D48*
X8961120Y16776700D02*
D03*
Y17030701D02*
D03*
X11998960Y17020540D02*
D03*
Y16766541D02*
D03*
X15046960Y16995140D02*
D03*
Y16741141D02*
D03*
X18087340Y16969740D02*
D03*
Y16715739D02*
D03*
X24297639Y16954500D02*
D03*
Y16700500D02*
D03*
X21145500Y16924020D02*
D03*
Y16670020D02*
D03*
D49*
X8961120Y16903700D02*
D03*
X11998960Y16893539D02*
D03*
X15046960Y16868140D02*
D03*
X18087340Y16842740D02*
D03*
X24297639Y16827499D02*
D03*
X21145500Y16797020D02*
D03*
D50*
X21094701Y6898640D02*
D03*
D51*
X24187759Y12143740D02*
D03*
Y11889740D02*
D03*
X24142700Y14272260D02*
D03*
Y14526260D02*
D03*
D52*
X24187759Y11636238D02*
D03*
X24142700Y14018758D02*
D03*
D53*
X12115800Y7327900D02*
D03*
X12059920Y10706598D02*
D03*
X12049760Y14175740D02*
D03*
D54*
X12466320Y6446520D02*
D03*
X14551660Y8394700D02*
D03*
X14127480Y7637780D02*
D03*
X14053819Y9685020D02*
D03*
X13769341Y11696700D02*
D03*
X15631160Y12994640D02*
D03*
X14348460Y12959081D02*
D03*
X9743440Y6682740D02*
D03*
X13726160Y15372079D02*
D03*
X15676880Y15618460D02*
D03*
X16314420Y13286740D02*
D03*
X15979140Y13820140D02*
D03*
X15626080Y6515100D02*
D03*
X16014700Y10533380D02*
D03*
X16365221Y14511020D02*
D03*
X14112241Y6865620D02*
D03*
X15519400Y8956040D02*
D03*
X16375380Y7848600D02*
D03*
X15219679Y15463519D02*
D03*
X15194279Y12054840D02*
D03*
X13797279Y8280400D02*
D03*
X21899879Y15471140D02*
D03*
X16431261Y6779260D02*
D03*
X16159480Y7084060D02*
D03*
X17884140Y7688580D02*
D03*
X18610580Y14328140D02*
D03*
X14056360Y14465300D02*
D03*
X17843500Y14343381D02*
D03*
X18596458Y11153140D02*
D03*
X15440660Y12316460D02*
D03*
X14528799Y11686540D02*
D03*
X16418559Y10048240D02*
D03*
X16296640Y11336020D02*
D03*
X14058900Y11082020D02*
D03*
X15676880Y9738360D02*
D03*
X17853661Y11153140D02*
D03*
X18603519Y7660081D02*
D03*
X15247620Y8694420D02*
D03*
X10767060Y7355840D02*
D03*
D55*
X20010120Y6253480D02*
D03*
X19817081Y6451600D02*
D03*
X19636740Y6068060D02*
D03*
X13446761Y9108440D02*
D03*
Y9857740D02*
D03*
X10327640Y8415020D02*
D03*
X10317480Y11803380D02*
D03*
X10360660Y15306039D02*
D03*
X22263100Y12280900D02*
D03*
X22265640Y12745720D02*
D03*
X21617940Y13022580D02*
D03*
Y12311380D02*
D03*
X18897600Y14185899D02*
D03*
X18844260Y12755880D02*
D03*
X18213071Y14331950D02*
D03*
X18760440Y9194800D02*
D03*
X15118080Y6837680D02*
D03*
X15946120Y6944360D02*
D03*
X15852139Y12560300D02*
D03*
X16250920Y12893040D02*
D03*
X16243300Y12186920D02*
D03*
X17914619Y12748260D02*
D03*
X22321519Y15694659D02*
D03*
X16233141Y9065260D02*
D03*
X15996919Y10129520D02*
D03*
X14424660Y7658100D02*
D03*
X14136369Y8522970D02*
D03*
X14876781Y6898640D02*
D03*
X18225771Y7691120D02*
D03*
X15105380Y8399780D02*
D03*
X15036800Y11828780D02*
D03*
X14343381Y11141486D02*
D03*
X14795500Y10355580D02*
D03*
X13009880Y6436360D02*
D03*
X12955270Y9853930D02*
D03*
X12887959Y13213080D02*
D03*
X15046960Y15209520D02*
D03*
X15839439Y13445714D02*
D03*
X15032767Y13510260D02*
D03*
X15021561Y10173746D02*
D03*
X14810741Y13708380D02*
D03*
X18221960Y11146790D02*
D03*
X14058900Y11899900D02*
D03*
Y11082020D02*
D03*
X14041119Y15275560D02*
D03*
X14363699Y14455141D02*
D03*
%TF.MD5,48a31ce2c14e53e75f172573442c552a*%
M02*
