G04*
G04 #@! TF.GenerationSoftware,Altium Limited,Altium Designer,21.6.4 (81)*
G04*
G04 Layer_Color=16711935*
%FSLAX44Y44*%
%MOMM*%
G71*
G04*
G04 #@! TF.SameCoordinates,237C1AA0-54E4-4B3D-89E3-81C07F55AAFC*
G04*
G04*
G04 #@! TF.FilePolarity,Positive*
G04*
G01*
G75*
%ADD12C,0.2540*%
%ADD13C,0.1524*%
%ADD88C,0.0127*%
%ADD89C,1.0000*%
D12*
X2437788Y1635080D02*
G03*
X2437788Y1635080I-15240J0D01*
G01*
Y1744300D02*
G03*
X2437788Y1744300I-15240J0D01*
G01*
X2121812Y1636096D02*
G03*
X2121812Y1636096I-15240J0D01*
G01*
X2122574Y1743538D02*
G03*
X2122574Y1743538I-15240J0D01*
G01*
X1818028Y1636096D02*
G03*
X1818028Y1636096I-15240J0D01*
G01*
X1815996Y1744554D02*
G03*
X1815996Y1744554I-15240J0D01*
G01*
X1511704Y1633810D02*
G03*
X1511704Y1633810I-15240J0D01*
G01*
X1513482Y1744808D02*
G03*
X1513482Y1744808I-15240J0D01*
G01*
X1208174Y1638128D02*
G03*
X1208174Y1638128I-15240J0D01*
G01*
X1210206Y1745062D02*
G03*
X1210206Y1745062I-15240J0D01*
G01*
X895190Y1644650D02*
G03*
X895190Y1644650I-10000J0D01*
G01*
X2429002Y1559306D02*
G03*
X2429002Y1559306I-25400J0D01*
G01*
X2433574Y631444D02*
G03*
X2433574Y631444I-25400J0D01*
G01*
X810517Y837946D02*
G03*
X810517Y837946I-10925J0D01*
G01*
X808993Y678180D02*
G03*
X808993Y678180I-10925J0D01*
G01*
X811279Y1021588D02*
G03*
X811279Y1021588I-10925J0D01*
G01*
X811533Y1176782D02*
G03*
X811533Y1176782I-10925J0D01*
G01*
X683260Y1566164D02*
G03*
X683260Y1566164I-25400J0D01*
G01*
X685800Y635000D02*
G03*
X685800Y635000I-25400J0D01*
G01*
X812549Y1375410D02*
G03*
X812549Y1375410I-10925J0D01*
G01*
X813819Y1533398D02*
G03*
X813819Y1533398I-10925J0D01*
G01*
X613410Y588010D02*
X2452370D01*
X613410Y1775460D02*
X2452370D01*
Y588010D02*
Y1775460D01*
X613410Y588010D02*
Y1775460D01*
Y588010D02*
X2452370D01*
X613410Y1773174D02*
X2452370D01*
Y588010D02*
Y1773174D01*
X613410Y588010D02*
Y1773174D01*
X571246D02*
X576326Y1757934D01*
X566166D02*
X571246Y1773174D01*
X566166Y1624584D02*
X571246Y1609344D01*
X576326Y1624584D01*
X571246Y1725538D02*
Y1773174D01*
Y1609344D02*
Y1648852D01*
X568706Y1773174D02*
X609600D01*
X568706Y1609344D02*
X610235D01*
X613410Y1866646D02*
X628650Y1871726D01*
X613410Y1866646D02*
X628650Y1861566D01*
X2437130D02*
X2452370Y1866646D01*
X2437130Y1871726D02*
X2452370Y1866646D01*
X613410D02*
X1532890D01*
X2452370D01*
X613410Y1776984D02*
Y1869186D01*
X2452370Y1779270D02*
Y1869186D01*
X613410Y1830070D02*
X628650Y1835150D01*
X613410Y1830070D02*
X628650Y1824990D01*
X903732D02*
X918972Y1830070D01*
X903732Y1835150D02*
X918972Y1830070D01*
X613410D02*
X722514D01*
X801740D02*
X918972D01*
X613410Y1779270D02*
Y1832610D01*
X918972Y1774190D02*
Y1832610D01*
D13*
X582927Y1652916D02*
Y1657994D01*
Y1655455D01*
X567692D01*
X570231Y1652916D01*
X567692Y1675769D02*
X570231Y1670690D01*
X575309Y1665612D01*
X580387D01*
X582927Y1668151D01*
Y1673230D01*
X580387Y1675769D01*
X577848D01*
X575309Y1673230D01*
Y1665612D01*
X585466Y1683386D02*
X582927Y1685925D01*
X580387D01*
Y1683386D01*
X582927D01*
Y1685925D01*
X585466Y1683386D01*
X588005Y1680847D01*
X570231Y1696082D02*
X567692Y1698621D01*
Y1703700D01*
X570231Y1706239D01*
X572770D01*
X575309Y1703700D01*
Y1701160D01*
Y1703700D01*
X577848Y1706239D01*
X580387D01*
X582927Y1703700D01*
Y1698621D01*
X580387Y1696082D01*
X570231Y1711317D02*
X567692Y1713856D01*
Y1718935D01*
X570231Y1721474D01*
X572770D01*
X575309Y1718935D01*
X577848Y1721474D01*
X580387D01*
X582927Y1718935D01*
Y1713856D01*
X580387Y1711317D01*
X577848D01*
X575309Y1713856D01*
X572770Y1711317D01*
X570231D01*
X575309Y1713856D02*
Y1718935D01*
X1483868Y1735580D02*
X1488946D01*
X1486407D01*
Y1750815D01*
X1483868Y1748276D01*
X1496564D02*
X1499103Y1750815D01*
X1504181D01*
X1506721Y1748276D01*
Y1745737D01*
X1504181Y1743198D01*
X1506721Y1740659D01*
Y1738120D01*
X1504181Y1735580D01*
X1499103D01*
X1496564Y1738120D01*
Y1740659D01*
X1499103Y1743198D01*
X1496564Y1745737D01*
Y1748276D01*
X1499103Y1743198D02*
X1504181D01*
X1511799Y1748276D02*
X1514338Y1750815D01*
X1519417D01*
X1521956Y1748276D01*
Y1745737D01*
X1519417Y1743198D01*
X1516877D01*
X1519417D01*
X1521956Y1740659D01*
Y1738120D01*
X1519417Y1735580D01*
X1514338D01*
X1511799Y1738120D01*
X1529573Y1733041D02*
X1532112Y1735580D01*
Y1738120D01*
X1529573D01*
Y1735580D01*
X1532112D01*
X1529573Y1733041D01*
X1527034Y1730502D01*
X1542269Y1738120D02*
X1544808Y1735580D01*
X1549887D01*
X1552426Y1738120D01*
Y1748276D01*
X1549887Y1750815D01*
X1544808D01*
X1542269Y1748276D01*
Y1745737D01*
X1544808Y1743198D01*
X1552426D01*
X1557504Y1748276D02*
X1560043Y1750815D01*
X1565122D01*
X1567661Y1748276D01*
Y1738120D01*
X1565122Y1735580D01*
X1560043D01*
X1557504Y1738120D01*
Y1748276D01*
X726579Y1831085D02*
X729118Y1833624D01*
X734196D01*
X736735Y1831085D01*
Y1828546D01*
X734196Y1826007D01*
X731657D01*
X734196D01*
X736735Y1823468D01*
Y1820928D01*
X734196Y1818389D01*
X729118D01*
X726579Y1820928D01*
X741814Y1831085D02*
X744353Y1833624D01*
X749431D01*
X751970Y1831085D01*
Y1820928D01*
X749431Y1818389D01*
X744353D01*
X741814Y1820928D01*
Y1831085D01*
X759588Y1815850D02*
X762127Y1818389D01*
Y1820928D01*
X759588D01*
Y1818389D01*
X762127D01*
X759588Y1815850D01*
X757049Y1813311D01*
X782440Y1833624D02*
X772284D01*
Y1826007D01*
X777362Y1828546D01*
X779901D01*
X782440Y1826007D01*
Y1820928D01*
X779901Y1818389D01*
X774823D01*
X772284Y1820928D01*
X797675Y1833624D02*
X792597Y1831085D01*
X787519Y1826007D01*
Y1820928D01*
X790058Y1818389D01*
X795136D01*
X797675Y1820928D01*
Y1823468D01*
X795136Y1826007D01*
X787519D01*
D88*
X1208786Y1604906D02*
G03*
X1208786Y1619370I0J7232D01*
G01*
X937481Y1619369D02*
G03*
X937459Y1604905I-23J-7232D01*
G01*
X2435606Y1605414D02*
G03*
X2435606Y1619878I0J7232D01*
G01*
X2164301Y1619877D02*
G03*
X2164279Y1605413I-23J-7232D01*
G01*
X2126742Y1604398D02*
G03*
X2126742Y1618862I0J7232D01*
G01*
X1855437Y1618861D02*
G03*
X1855415Y1604397I-23J-7232D01*
G01*
X1818132Y1604144D02*
G03*
X1818132Y1618608I0J7232D01*
G01*
X1546827Y1618607D02*
G03*
X1546805Y1604143I-23J-7232D01*
G01*
X1515110Y1604144D02*
G03*
X1515110Y1618608I0J7232D01*
G01*
X1243805Y1618607D02*
G03*
X1243783Y1604143I-23J-7232D01*
G01*
X624355Y1618993D02*
G03*
X624332Y1604529I-23J-7232D01*
G01*
X895659Y1604530D02*
G03*
X895659Y1618993I0J7232D01*
G01*
X927512Y1751567D02*
G03*
X913048Y1751590I-7232J23D01*
G01*
X913059Y1624532D02*
G03*
X927523Y1624532I7232J0D01*
G01*
X937458Y1604880D02*
X1208786Y1604905D01*
X937481Y1619369D02*
X1208786Y1619370D01*
X2164279Y1605388D02*
X2435606Y1605413D01*
X2164301Y1619877D02*
X2435606Y1619878D01*
X1855414Y1604372D02*
X2126742Y1604397D01*
X1855437Y1618861D02*
X2126742Y1618862D01*
X1546805Y1604118D02*
X1818132Y1604143D01*
X1546827Y1618607D02*
X1818132Y1618608D01*
X1243783Y1604118D02*
X1515110Y1604143D01*
X1243805Y1618607D02*
X1515110Y1618608D01*
X624355Y1618993D02*
X895659Y1618993D01*
X624332Y1604504D02*
X895659Y1604529D01*
X913048Y1751590D02*
X913059Y1624532D01*
X927512Y1751567D02*
X927523Y1624532D01*
D89*
X895444Y1750060D02*
G03*
X895444Y1750060I-10000J0D01*
G01*
M02*
