G04*
G04 #@! TF.GenerationSoftware,Altium Limited,Altium Designer,21.6.4 (81)*
G04*
G04 Layer_Color=16711935*
%FSLAX44Y44*%
%MOMM*%
G71*
G04*
G04 #@! TF.SameCoordinates,237C1AA0-54E4-4B3D-89E3-81C07F55AAFC*
G04*
G04*
G04 #@! TF.FilePolarity,Negative*
G04*
G01*
G75*
%ADD19R,1.5082X1.2065*%
%ADD21R,1.2065X1.5082*%
G04:AMPARAMS|DCode=25|XSize=1.6071mm|YSize=0.7621mm|CornerRadius=0.3811mm|HoleSize=0mm|Usage=FLASHONLY|Rotation=0.000|XOffset=0mm|YOffset=0mm|HoleType=Round|Shape=RoundedRectangle|*
%AMROUNDEDRECTD25*
21,1,1.6071,0.0000,0,0,0.0*
21,1,0.8450,0.7621,0,0,0.0*
1,1,0.7621,0.4225,0.0000*
1,1,0.7621,-0.4225,0.0000*
1,1,0.7621,-0.4225,0.0000*
1,1,0.7621,0.4225,0.0000*
%
%ADD25ROUNDEDRECTD25*%
%ADD26R,1.6071X0.7621*%
%ADD33R,1.5562X1.5046*%
%ADD42C,2.0320*%
%ADD47C,0.9652*%
%ADD50C,1.7272*%
%ADD51C,1.2000*%
%ADD52C,1.7032*%
%ADD53R,1.7032X1.7032*%
%ADD54R,1.2000X1.2000*%
%ADD55C,2.1532*%
G04:AMPARAMS|DCode=56|XSize=2.1532mm|YSize=2.1532mm|CornerRadius=0.5891mm|HoleSize=0mm|Usage=FLASHONLY|Rotation=90.000|XOffset=0mm|YOffset=0mm|HoleType=Round|Shape=RoundedRectangle|*
%AMROUNDEDRECTD56*
21,1,2.1532,0.9750,0,0,90.0*
21,1,0.9750,2.1532,0,0,90.0*
1,1,1.1782,0.4875,0.4875*
1,1,1.1782,0.4875,-0.4875*
1,1,1.1782,-0.4875,-0.4875*
1,1,1.1782,-0.4875,0.4875*
%
%ADD56ROUNDEDRECTD56*%
%ADD57O,2.2032X1.2032*%
%ADD58O,2.2032X1.2032*%
%ADD59R,2.0574X2.0574*%
%ADD60C,2.0574*%
%ADD61C,2.0500*%
%ADD62R,2.0500X2.0500*%
%ADD63R,2.0574X2.0574*%
%ADD64R,1.2000X1.2000*%
%ADD65R,1.5748X1.5748*%
%ADD66C,1.5748*%
%ADD67C,1.4732*%
%ADD82R,9.9060X26.4414*%
%ADD83R,9.9060X21.7932*%
%ADD84R,9.9060X21.5392*%
%ADD85R,0.7032X1.2032*%
%ADD86R,2.2032X4.3032*%
%ADD87R,7.7032X3.2032*%
D19*
X1668018Y1310132D02*
D03*
Y1344581D02*
D03*
X1667510Y1452023D02*
D03*
Y1473040D02*
D03*
X1822704Y720758D02*
D03*
Y741775D02*
D03*
X1822450Y817467D02*
D03*
Y796450D02*
D03*
X1520698Y672941D02*
D03*
Y651924D02*
D03*
X1670304Y728632D02*
D03*
Y749649D02*
D03*
X1671320Y806291D02*
D03*
Y785274D02*
D03*
X1788160Y796196D02*
D03*
Y817213D02*
D03*
X1788668Y741267D02*
D03*
Y720250D02*
D03*
X1670304Y644492D02*
D03*
Y623475D02*
D03*
Y678339D02*
D03*
Y699356D02*
D03*
X1671320Y855661D02*
D03*
Y834644D02*
D03*
X1671828Y912557D02*
D03*
Y891540D02*
D03*
X1822450Y1061974D02*
D03*
Y1082991D02*
D03*
X1668272Y1155192D02*
D03*
Y1134175D02*
D03*
X1668018Y1078295D02*
D03*
Y1099312D02*
D03*
X1669796Y1022510D02*
D03*
Y1043527D02*
D03*
X1507744Y990027D02*
D03*
Y969010D02*
D03*
X1667510Y1558101D02*
D03*
Y1579118D02*
D03*
X1669542Y986630D02*
D03*
Y965613D02*
D03*
X1821942Y1167384D02*
D03*
Y1146367D02*
D03*
X1786128D02*
D03*
Y1167384D02*
D03*
X1785366Y1082896D02*
D03*
Y1061880D02*
D03*
X1668018Y1258664D02*
D03*
Y1237647D02*
D03*
Y1205484D02*
D03*
Y1184467D02*
D03*
X902716Y1280762D02*
D03*
Y1259745D02*
D03*
X830072Y1280160D02*
D03*
Y1259143D02*
D03*
X760730Y1279652D02*
D03*
Y1258635D02*
D03*
X1667256Y1501299D02*
D03*
Y1522316D02*
D03*
X1668018Y1365598D02*
D03*
Y1289115D02*
D03*
X1783588Y1380396D02*
D03*
Y1401413D02*
D03*
X1821688Y1381920D02*
D03*
Y1402937D02*
D03*
X1783588Y1463867D02*
D03*
Y1484884D02*
D03*
X1820926Y1484471D02*
D03*
Y1463454D02*
D03*
X1667764Y1395381D02*
D03*
Y1416398D02*
D03*
X1505966Y1320132D02*
D03*
Y1299115D02*
D03*
D21*
X1753775Y1325372D02*
D03*
X1774792D02*
D03*
D25*
X2006092Y1306068D02*
D03*
Y1273048D02*
D03*
X2006600Y1238504D02*
D03*
D26*
X1972581Y1306068D02*
D03*
Y1273048D02*
D03*
X1973089Y1238504D02*
D03*
D33*
X1481582Y1552820D02*
D03*
X1638046Y1378222D02*
D03*
X1631188Y1059824D02*
D03*
X1640078Y729352D02*
D03*
Y711336D02*
D03*
X1485392Y879076D02*
D03*
Y861060D02*
D03*
X1591310Y747912D02*
D03*
Y765928D02*
D03*
X1631188Y1077840D02*
D03*
X1638046Y1396238D02*
D03*
X1583690Y1094486D02*
D03*
Y1112502D02*
D03*
X1479296Y1207498D02*
D03*
Y1189482D02*
D03*
X859790Y1261128D02*
D03*
Y1279144D02*
D03*
X930910Y1261754D02*
D03*
Y1279770D02*
D03*
X789940Y1260620D02*
D03*
Y1278636D02*
D03*
X1481582Y1534804D02*
D03*
X1584452Y1436252D02*
D03*
Y1454268D02*
D03*
D42*
X688594Y1565402D02*
G03*
X688594Y1565402I-30480J0D01*
G01*
X2434844Y1559052D02*
G03*
X2434844Y1559052I-30480J0D01*
G01*
X690118Y634492D02*
G03*
X690118Y634492I-30480J0D01*
G01*
X2438654Y632460D02*
G03*
X2438654Y632460I-30480J0D01*
G01*
D47*
X1559865Y1562481D02*
G03*
X1575537Y1561790I7823J-635D01*
G01*
X1566230Y1569559D02*
G03*
X1559865Y1562481I1458J-7713D01*
G01*
X1575537Y1561846D02*
G03*
X1566230Y1569559I-7849J0D01*
G01*
X1631442Y1336523D02*
G03*
X1639291Y1328674I0J-7849D01*
G01*
D02*
G03*
X1631498Y1336523I-7849J0D01*
G01*
X1631188Y629641D02*
G03*
X1631244Y629641I0J-7849D01*
G01*
X1597914Y1374165D02*
G03*
X1605763Y1382014I0J7849D01*
G01*
X1597914Y1389863D02*
G03*
X1597914Y1374165I0J-7849D01*
G01*
X1605763Y1382014D02*
G03*
X1597970Y1389863I-7849J0D01*
G01*
X1603911Y1060798D02*
G03*
X1601526Y1061187I-2441J-7460D01*
G01*
X1564574Y1307177D02*
G03*
X1570965Y1299408I-1458J-7713D01*
G01*
X1601470Y1061187D02*
G03*
X1607955Y1057761I0J-7849D01*
G01*
X1570965Y1299464D02*
G03*
X1564574Y1307177I-7849J0D01*
G01*
X1607955Y1057761D02*
G03*
X1603911Y1060798I-6485J-4423D01*
G01*
X1623660Y709864D02*
G03*
X1616004Y716255I-7713J-1458D01*
G01*
X1567688Y981685D02*
G03*
X1559865Y974471I0J-7849D01*
G01*
X1615948Y716255D02*
G03*
X1623660Y709864I0J-7849D01*
G01*
X1544091Y895604D02*
G03*
X1551996Y903453I7849J0D01*
G01*
X1551940Y903453D02*
G03*
X1544091Y895604I0J-7849D01*
G01*
X1542057Y1239234D02*
G03*
X1536217Y1231646I2009J-7588D01*
G01*
D02*
G03*
X1544122Y1239495I7849J0D01*
G01*
X2189988Y1554963D02*
G03*
X2184438Y1541564I0J-7849D01*
G01*
X2190280Y1539270D02*
G03*
X2192020Y1554695I-292J7844D01*
G01*
X2184438Y1541564D02*
G03*
X2190280Y1539270I5550J5550D01*
G01*
X2192020Y1554695D02*
G03*
X2190044Y1554963I-2032J-7581D01*
G01*
X1084526Y1422313D02*
G03*
X1077087Y1429478I-7820J-675D01*
G01*
X1077022Y1413795D02*
G03*
X1084555Y1421582I-316J7843D01*
G01*
X1076706Y1413789D02*
G03*
X1077022Y1413795I0J7849D01*
G01*
X1077087Y1429478D02*
G03*
X1076325Y1413798I-381J-7840D01*
G01*
Y1084038D02*
G03*
X1076000Y1084047I-381J-7840D01*
G01*
X1079246Y1083319D02*
G03*
X1076325Y1084038I-3302J-7121D01*
G01*
X1075944Y1068349D02*
G03*
X1081494Y1081748I0J7849D01*
G01*
X1068095Y1076198D02*
G03*
X1075944Y1068349I7849J0D01*
G01*
X1076706Y743433D02*
G03*
X1075944Y743396I0J-7849D01*
G01*
D02*
G03*
X1073658Y742817I762J-7812D01*
G01*
X1084555Y1421638D02*
G03*
X1084526Y1422313I-7849J0D01*
G01*
X1076325Y1413798D02*
G03*
X1076706Y1413789I381J7840D01*
G01*
X1081494Y1081748D02*
G03*
X1079246Y1083319I-5550J-5550D01*
G01*
X1075944Y1084047D02*
G03*
X1068095Y1076198I0J-7849D01*
G01*
X2372883Y1464438D02*
G03*
X2367788Y1466317I-5095J-5970D01*
G01*
D02*
G03*
X2359939Y1458524I0J-7849D01*
G01*
X1868907Y1432814D02*
G03*
X1868481Y1435365I-7849J0D01*
G01*
X1861058Y1440663D02*
G03*
X1861058Y1424965I0J-7849D01*
G01*
X1868481Y1435365D02*
G03*
X1861058Y1440663I-7423J-2551D01*
G01*
Y1424965D02*
G03*
X1868907Y1432758I0J7849D01*
G01*
X1644358Y1451563D02*
G03*
X1640103Y1458087I-7836J-461D01*
G01*
X1644371Y1451102D02*
G03*
X1644358Y1451563I-7849J0D01*
G01*
X1636522Y1458951D02*
G03*
X1644371Y1451102I0J-7849D01*
G01*
X1640103Y1458087D02*
G03*
X1636578Y1458951I-3581J-6985D01*
G01*
X1573856Y978691D02*
G03*
X1567744Y981685I-6168J-4855D01*
G01*
X1575537Y973836D02*
G03*
X1573856Y978691I-7849J0D01*
G01*
X1575307Y971948D02*
G03*
X1575537Y973836I-7619J1887D01*
G01*
X1559865Y974471D02*
G03*
X1575307Y971948I7823J-635D01*
G01*
X1650972Y678133D02*
G03*
X1643182Y685775I-7846J-207D01*
G01*
X1650975Y677926D02*
G03*
X1650972Y678133I-7849J0D01*
G01*
X1413231Y968502D02*
G03*
X1409438Y975222I-7849J0D01*
G01*
X1409438D02*
G03*
X1405438Y976351I-4056J-6720D01*
G01*
X1397533Y968502D02*
G03*
X1413231Y968502I7849J0D01*
G01*
X1405382Y976351D02*
G03*
X1397533Y968502I0J-7849D01*
G01*
X1420328Y649986D02*
G03*
X1412550Y657352I-7834J-483D01*
G01*
X1420343Y649503D02*
G03*
X1420328Y649986I-7849J0D01*
G01*
X1412494Y657352D02*
G03*
X1420337Y649197I0J-7849D01*
G01*
D02*
G03*
X1420343Y649503I-7843J305D01*
G01*
X1645384Y785067D02*
G03*
X1637594Y792709I-7846J-207D01*
G01*
X1637538Y792709D02*
G03*
X1645384Y785067I0J-7849D01*
G01*
X1532611Y869442D02*
G03*
X1516913Y869498I-7849J0D01*
G01*
X1516913Y869442D02*
G03*
X1532611Y869442I7849J0D01*
G01*
X1462879Y838012D02*
G03*
X1455222Y847319I-7713J1458D01*
G01*
X1455166Y847319D02*
G03*
X1462879Y838012I0J-7849D01*
G01*
X1859646Y773825D02*
G03*
X1858940Y773729I706J-7817D01*
G01*
X1860352Y773857D02*
G03*
X1859646Y773825I0J-7849D01*
G01*
X1860352Y758159D02*
G03*
X1860408Y773857I0J7849D01*
G01*
X1858940Y773729D02*
G03*
X1860352Y758159I1412J-7721D01*
G01*
X1788414Y776707D02*
G03*
X1788287Y776706I0J-7849D01*
G01*
X1788541Y761010D02*
G03*
X1788470Y776707I-127J7848D01*
G01*
X1780591Y768223D02*
G03*
X1788541Y761010I7823J635D01*
G01*
X1788287Y776706D02*
G03*
X1780591Y768223I127J-7848D01*
G01*
X1643126Y685775D02*
G03*
X1650975Y677926I0J-7849D01*
G01*
X1544066Y1239495D02*
G03*
X1542057Y1239234I0J-7849D01*
G01*
X1522761Y1554161D02*
G03*
X1522024Y1554201I-793J-7809D01*
G01*
X1529680Y1544894D02*
G03*
X1529817Y1546352I-7713J1458D01*
G01*
X1521968Y1554201D02*
G03*
X1529680Y1544894I0J-7849D01*
G01*
X1529817Y1546352D02*
G03*
X1522762Y1554161I-7849J0D01*
G01*
X1637508Y1133888D02*
G03*
X1637507Y1133898I-7844J-287D01*
G01*
X1621815Y1133602D02*
G03*
X1637508Y1133888I7849J0D01*
G01*
X1526290Y1209294D02*
G03*
X1519484Y1213333I-6862J-3810D01*
G01*
X1527261Y1205992D02*
G03*
X1526290Y1209294I-7833J-508D01*
G01*
X1527277Y1205484D02*
G03*
X1527261Y1205992I-7849J0D01*
G01*
X1526549Y1202182D02*
G03*
X1527277Y1205484I-7121J3302D01*
G01*
X1512566Y1209294D02*
G03*
X1526549Y1202182I6862J-3810D01*
G01*
X1519428Y1213333D02*
G03*
X1512566Y1209294I0J-7849D01*
G01*
X1645992Y1011495D02*
G03*
X1641912Y1012673I-4136J-6671D01*
G01*
X1649705Y1004824D02*
G03*
X1645992Y1011495I-7849J0D01*
G01*
X1641856Y1012673D02*
G03*
X1649705Y1004824I0J-7849D01*
G01*
X1862148Y1122754D02*
G03*
X1860662Y1123097I-2502J-7440D01*
G01*
X1859646Y1107465D02*
G03*
X1862148Y1122754I0J7849D01*
G01*
X1860662Y1123097D02*
G03*
X1859702Y1123163I-1016J-7783D01*
G01*
X1857980Y1107644D02*
G03*
X1859646Y1107465I1666J7670D01*
G01*
Y1123163D02*
G03*
X1857980Y1107644I0J-7849D01*
G01*
X1459859Y1534354D02*
G03*
X1458885Y1537714I-7836J-450D01*
G01*
X1457580Y1528360D02*
G03*
X1459859Y1534354I-5556J5544D01*
G01*
X2375637Y1458468D02*
G03*
X2372883Y1464438I-7849J0D01*
G01*
X2373739Y1453350D02*
G03*
X2374272Y1454045I-5951J5118D01*
G01*
X2359939Y1458468D02*
G03*
X2373739Y1453350I7849J0D01*
G01*
X2374272Y1454045D02*
G03*
X2375637Y1458468I-6485J4423D01*
G01*
X2418776Y1301149D02*
G03*
X2425167Y1308806I-1458J7713D01*
G01*
X2425167Y1308862D02*
G03*
X2409583Y1310198I-7849J0D01*
G01*
D02*
G03*
X2411768Y1303312I7735J-1336D01*
G01*
D02*
G03*
X2418776Y1301149I5550J5550D01*
G01*
X1458100Y1174516D02*
G03*
X1452936Y1176503I-5220J-5862D01*
G01*
X1460713Y1168146D02*
G03*
X1458100Y1174516I-7833J508D01*
G01*
X1452880Y1176503D02*
G03*
X1460713Y1168146I0J-7849D01*
G01*
X2187033Y961411D02*
G03*
X2185422Y962412I-4919J-6117D01*
G01*
X2187664Y960844D02*
G03*
X2187033Y961411I-5550J-5550D01*
G01*
X2185422Y962412D02*
G03*
X2182114Y963143I-3308J-7118D01*
G01*
X2189896Y956320D02*
G03*
X2187664Y960844I-7782J-1026D01*
G01*
X2181987Y963142D02*
G03*
X2178304Y962156I127J-7848D01*
G01*
X2178304Y962156D02*
G03*
X2174265Y955294I3810J-6862D01*
G01*
D02*
G03*
X2176564Y949744I7849J0D01*
G01*
X2174265Y955294D02*
G03*
X2176564Y949744I7849J0D01*
G01*
X1239810Y1317409D02*
G03*
X1242109Y1322959I-5550J5550D01*
G01*
D02*
G03*
X1241905Y1324737I-7849J0D01*
G01*
X1234513Y1315114D02*
G03*
X1239810Y1317409I-254J7845D01*
G01*
X1236726Y992607D02*
G03*
X1231176Y990308I0J-7849D01*
G01*
D02*
G03*
X1228893Y984250I5550J-5550D01*
G01*
X1244559Y984250D02*
G03*
X1244575Y984758I-7833J508D01*
G01*
X1228893Y984250D02*
G03*
X1244559Y984250I7833J508D01*
G01*
X1254415Y644144D02*
G03*
X1254481Y645160I-7783J1016D01*
G01*
X1238849Y644144D02*
G03*
X1254415Y644144I7783J1016D01*
G01*
X1246632Y653009D02*
G03*
X1238849Y644144I0J-7849D01*
G01*
X1442658Y1295146D02*
G03*
X1442695Y1295852I-7812J762D01*
G01*
X1442695Y1295908D02*
G03*
X1442658Y1295146I-7849J0D01*
G01*
X1791040Y1438443D02*
G03*
X1783969Y1442178I-6690J-4105D01*
G01*
X1792199Y1434338D02*
G03*
X1791040Y1438443I-7849J0D01*
G01*
X1783969Y1442178D02*
G03*
X1776502Y1434465I381J-7840D01*
G01*
X1783969Y1426498D02*
G03*
X1792199Y1434282I381J7840D01*
G01*
X1777286Y1430916D02*
G03*
X1783969Y1426498I7064J3422D01*
G01*
X1776501Y1434338D02*
G03*
X1777286Y1430916I7849J0D01*
G01*
X1776502Y1434465D02*
G03*
X1776501Y1434338I7848J-127D01*
G01*
X2396465Y1102106D02*
G03*
X2392096Y1109142I-7849J0D01*
G01*
X2381580Y1098626D02*
G03*
X2396465Y1102050I7036J3480D01*
G01*
X2392096Y1109142D02*
G03*
X2380767Y1102106I-3480J-7036D01*
G01*
D02*
G03*
X2381580Y1098626I7849J0D01*
G01*
X1637459Y1134523D02*
G03*
X1621815Y1133658I-7795J-922D01*
G01*
X1637507Y1133898D02*
G03*
X1637459Y1134523I-7843J-296D01*
G01*
X1785521Y1123162D02*
G03*
X1785422Y1123163I-155J-7848D01*
G01*
X1785747Y1123154D02*
G03*
X1785521Y1123162I-381J-7840D01*
G01*
X1783815Y1123008D02*
G03*
X1777573Y1116254I1550J-7694D01*
G01*
X1785366Y1123163D02*
G03*
X1783815Y1123008I0J-7849D01*
G01*
X1785366Y1107465D02*
G03*
X1785747Y1123154I0J7849D01*
G01*
X1778796Y1111019D02*
G03*
X1785366Y1107465I6570J4295D01*
G01*
X1777573Y1116254D02*
G03*
X1778796Y1111019I7793J-940D01*
G01*
X1372616Y1545057D02*
G03*
X1372672Y1545057I0J-7849D01*
G01*
X1376934Y1177519D02*
G03*
X1376990Y1177519I0J-7849D01*
G01*
X1379728Y835889D02*
G03*
X1379784Y835889I0J-7849D01*
G01*
X1446511Y1528316D02*
G03*
X1452023Y1526055I5512J5588D01*
G01*
D02*
G03*
X1457481Y1528263I0J7849D01*
G01*
X1457573Y1539454D02*
G03*
X1452079Y1541753I-5550J-5550D01*
G01*
X1445161Y1537714D02*
G03*
X1444680Y1536676I6862J-3810D01*
G01*
X1457579Y1539448D02*
G03*
X1457573Y1539454I-5556J-5544D01*
G01*
X1446473Y1528354D02*
G03*
X1446511Y1528316I5550J5550D01*
G01*
X1458885Y1537714D02*
G03*
X1457580Y1539448I-6862J-3810D01*
G01*
X1444680Y1536675D02*
G03*
X1444174Y1533904I7344J-2772D01*
G01*
D02*
G03*
X1444182Y1533555I7849J0D01*
G01*
D02*
G03*
X1444240Y1532888I7841J349D01*
G01*
D02*
G03*
X1446473Y1528354I7783J1016D01*
G01*
X1457482Y1528264D02*
G03*
X1457535Y1528316I-5458J5640D01*
G01*
X1457535Y1528316D02*
G03*
X1457573Y1528354I-5512J5588D01*
G01*
X1457574Y1528354D02*
G03*
X1457579Y1528360I-5550J5550D01*
G01*
X1452023Y1541753D02*
G03*
X1445161Y1537714I0J-7849D01*
G01*
X1452023Y1541753D02*
G03*
X1445161Y1537714I0J-7849D01*
G01*
X1452023Y1541753D02*
G03*
X1445161Y1537714I0J-7849D01*
G01*
X1452023Y1541753D02*
G03*
X1445161Y1537714I0J-7849D01*
G01*
X1412748Y771627D02*
G03*
X1412804Y771627I0J-7849D01*
G01*
X1405636Y1454379D02*
G03*
X1405692Y1454379I0J-7849D01*
G01*
X1405890Y1116051D02*
G03*
X1405946Y1116051I0J-7849D01*
G01*
X2189963Y955294D02*
G03*
X2189896Y956320I-7849J0D01*
G01*
X2187664Y949744D02*
G03*
X2189963Y955294I-5550J5550D01*
G01*
X2182114Y963143D02*
G03*
X2181987Y963142I0J-7849D01*
G01*
X2189653Y919810D02*
G03*
X2181804Y912901I-7793J940D01*
G01*
X2181860Y912901D02*
G03*
X2189653Y919810I0J7849D01*
G01*
X2182114Y947445D02*
G03*
X2187664Y949744I0J7849D01*
G01*
X2176564Y949744D02*
G03*
X2182058Y947445I5550J5550D01*
G01*
X2176564Y949744D02*
G03*
X2182058Y947445I5550J5550D01*
G01*
X1073658Y742817D02*
G03*
X1072283Y742068I3048J-7233D01*
G01*
X1254481Y645160D02*
G03*
X1246688Y653009I-7849J0D01*
G01*
X1072283Y742068D02*
G03*
X1076762Y743433I4423J-6485D01*
G01*
X1244575Y984758D02*
G03*
X1236782Y992607I-7849J0D01*
G01*
X1228747Y1328547D02*
G03*
X1227397Y1326769I5512J-5588D01*
G01*
X1234259Y1315110D02*
G03*
X1234513Y1315114I0J7849D01*
G01*
X1226508Y1321726D02*
G03*
X1234259Y1315110I7752J1233D01*
G01*
X1226410Y1322959D02*
G03*
X1226508Y1321726I7849J0D01*
G01*
X1227397Y1326769D02*
G03*
X1226410Y1322959I6862J-3810D01*
G01*
X1241768Y1325245D02*
G03*
X1241257Y1326515I-7509J-2286D01*
G01*
D02*
G03*
X1241122Y1326769I-6997J-3556D01*
G01*
D02*
G03*
X1239810Y1328509I-6862J-3810D01*
G01*
X1239771Y1328547D02*
G03*
X1234316Y1330808I-5512J-5588D01*
G01*
X1234259Y1330808D02*
G03*
X1228747Y1328547I0J-7849D01*
G01*
X1241905Y1324737D02*
G03*
X1241841Y1324991I-7645J-1778D01*
G01*
D02*
G03*
X1241768Y1325245I-7581J-2032D01*
G01*
X1239810Y1328509D02*
G03*
X1239771Y1328547I-5550J-5550D01*
G01*
X974344Y676123D02*
G03*
X974400Y676123I0J-7849D01*
G01*
X971296Y1351538D02*
G03*
X967257Y1344732I3810J-6862D01*
G01*
X978924Y1351534D02*
G03*
X971296Y1351538I-3818J-6858D01*
G01*
X967257Y1344676D02*
G03*
X971296Y1337814I7849J0D01*
G01*
X981680Y1348964D02*
G03*
X980656Y1350226I-6574J-4288D01*
G01*
X982759Y1346421D02*
G03*
X981680Y1348964I-7653J-1745D01*
G01*
X982955Y1344676D02*
G03*
X982759Y1346421I-7849J0D01*
G01*
X980864Y1339342D02*
G03*
X982955Y1344676I-5758J5334D01*
G01*
X980656Y1350226D02*
G03*
X978924Y1351534I-5550J-5550D01*
G01*
X975106Y1336827D02*
G03*
X980864Y1339342I0J7849D01*
G01*
X971296Y1337814D02*
G03*
X975106Y1336827I3810J6862D01*
G01*
X965746Y999274D02*
G03*
X971352Y1012673I5550J5550D01*
G01*
X971296Y1012673D02*
G03*
X965746Y999274I0J-7849D01*
G01*
D50*
X1567688Y1561846D02*
D03*
X1631442Y1328674D02*
D03*
X1597914Y1382014D02*
D03*
X1571498Y644144D02*
D03*
X1631188Y621792D02*
D03*
X1601470Y1053338D02*
D03*
X1563116Y1299464D02*
D03*
X1534668Y1322940D02*
D03*
X1636522Y1451102D02*
D03*
X1546498Y644144D02*
D03*
X1412494Y649503D02*
D03*
X1551940Y895604D02*
D03*
X1637538Y784860D02*
D03*
X1405382Y968502D02*
D03*
X1521968Y1546352D02*
D03*
X1519428Y1205484D02*
D03*
X1372616Y1537208D02*
D03*
X1376934Y1169670D02*
D03*
X1379728Y828040D02*
D03*
X1452023Y1533904D02*
D03*
X1534668Y1297940D02*
D03*
X2189988Y1547114D02*
D03*
X1643126Y677926D02*
D03*
X1412748Y763778D02*
D03*
X1615948Y708406D02*
D03*
X1788414Y768858D02*
D03*
X1861058Y1432814D02*
D03*
X1405636Y1446530D02*
D03*
X1434846Y1295908D02*
D03*
X1784350Y1434338D02*
D03*
X1859646Y1115314D02*
D03*
X1544066Y1231646D02*
D03*
X1452880Y1168654D02*
D03*
X1641856Y1004824D02*
D03*
X1629664Y1133602D02*
D03*
X1405890Y1108202D02*
D03*
X1567688Y973836D02*
D03*
X1534668Y966978D02*
D03*
Y991978D02*
D03*
X1785366Y1115314D02*
D03*
X1860352Y766008D02*
D03*
X1455166Y839470D02*
D03*
X1524762Y869442D02*
D03*
X2367788Y1458468D02*
D03*
X2181860Y920750D02*
D03*
X2182114Y955294D02*
D03*
X1146302Y744474D02*
D03*
X1171302D02*
D03*
X1246632Y645160D02*
D03*
X1076706Y735584D02*
D03*
X1141114Y1082548D02*
D03*
X1166114D02*
D03*
X1139190Y1430020D02*
D03*
X1164190D02*
D03*
X1075944Y1076198D02*
D03*
X1234260Y1322959D02*
D03*
X974344Y668274D02*
D03*
X975106Y1344676D02*
D03*
X1236726Y984758D02*
D03*
X971296Y1004824D02*
D03*
X2388616Y1102106D02*
D03*
X2417318Y1308862D02*
D03*
X1076706Y1421638D02*
D03*
X1567688Y1561846D02*
D03*
X1631442Y1328674D02*
D03*
X1597914Y1382014D02*
D03*
X1631188Y621792D02*
D03*
X1601470Y1053338D02*
D03*
X1563116Y1299464D02*
D03*
X1636522Y1451102D02*
D03*
X1412494Y649503D02*
D03*
X1551940Y895604D02*
D03*
X1637538Y784860D02*
D03*
X1405382Y968502D02*
D03*
X1521968Y1546352D02*
D03*
X1519428Y1205484D02*
D03*
X1372616Y1537208D02*
D03*
X1376934Y1169670D02*
D03*
X1379728Y828040D02*
D03*
X2189988Y1547114D02*
D03*
X1643126Y677926D02*
D03*
X1412748Y763778D02*
D03*
X1615948Y708406D02*
D03*
X1788414Y768858D02*
D03*
X1861058Y1432814D02*
D03*
X1405636Y1446530D02*
D03*
X1434846Y1295908D02*
D03*
X1784350Y1434338D02*
D03*
X1859646Y1115314D02*
D03*
X1544066Y1231646D02*
D03*
X1452880Y1168654D02*
D03*
X1641856Y1004824D02*
D03*
X1629664Y1133602D02*
D03*
X1405890Y1108202D02*
D03*
X1567688Y973836D02*
D03*
X1785366Y1115314D02*
D03*
X1860352Y766008D02*
D03*
X1455166Y839470D02*
D03*
X1524762Y869442D02*
D03*
X1246632Y645160D02*
D03*
X1076706Y735584D02*
D03*
X974344Y668274D02*
D03*
D51*
X1716482Y1326642D02*
D03*
X1714246Y686816D02*
D03*
Y661416D02*
D03*
X1715262Y1004316D02*
D03*
Y1029716D02*
D03*
Y1224788D02*
D03*
Y1250188D02*
D03*
Y1117092D02*
D03*
Y1091692D02*
D03*
X1714246Y873252D02*
D03*
Y898652D02*
D03*
X1713788Y767588D02*
D03*
Y742188D02*
D03*
X1717548Y1434338D02*
D03*
Y1408938D02*
D03*
X1716786Y1540510D02*
D03*
Y1565910D02*
D03*
X1716482Y1352042D02*
D03*
X2127758Y897128D02*
D03*
Y922528D02*
D03*
X1262380Y732790D02*
D03*
X1236980D02*
D03*
X1231392Y1070660D02*
D03*
X1256792D02*
D03*
X1255776Y1417574D02*
D03*
X1230376D02*
D03*
D52*
X2060448Y1195578D02*
D03*
Y1220978D02*
D03*
Y1271778D02*
D03*
Y1322578D02*
D03*
Y1347978D02*
D03*
Y1297178D02*
D03*
Y1246378D02*
D03*
X1822958Y639318D02*
D03*
Y664718D02*
D03*
X1821942Y847852D02*
D03*
Y873252D02*
D03*
X1822958Y979170D02*
D03*
Y1004570D02*
D03*
X1821180Y1198626D02*
D03*
Y1224026D02*
D03*
X702262Y1203452D02*
D03*
Y1254252D02*
D03*
Y1305052D02*
D03*
Y1279652D02*
D03*
Y1228852D02*
D03*
Y1178052D02*
D03*
Y1152652D02*
D03*
X1821434Y1299718D02*
D03*
Y1325118D02*
D03*
X1819608Y1515618D02*
D03*
Y1541018D02*
D03*
X649224Y1660906D02*
D03*
Y1686306D02*
D03*
X965152Y1660398D02*
D03*
Y1685798D02*
D03*
X1269444Y1658112D02*
D03*
Y1683512D02*
D03*
X1574752Y1663700D02*
D03*
Y1689100D02*
D03*
X2188210Y1659128D02*
D03*
Y1684528D02*
D03*
X1882854Y1657096D02*
D03*
Y1682496D02*
D03*
D53*
X2060448Y1373378D02*
D03*
X1822958Y690118D02*
D03*
X1821942Y898652D02*
D03*
X1822958Y1029970D02*
D03*
X1821180Y1249426D02*
D03*
X702262Y1330452D02*
D03*
X1821434Y1350518D02*
D03*
X1819608Y1566418D02*
D03*
X649224Y1711706D02*
D03*
X965152Y1711198D02*
D03*
X1269444Y1708912D02*
D03*
X1574752Y1714500D02*
D03*
X2188210Y1709928D02*
D03*
X1882854Y1707896D02*
D03*
D54*
X1714246Y636016D02*
D03*
X1715262Y978916D02*
D03*
Y1199388D02*
D03*
Y1142492D02*
D03*
X1714246Y847852D02*
D03*
X1713788Y792988D02*
D03*
X1717548Y1459738D02*
D03*
X1716786Y1515110D02*
D03*
X1716482Y1301242D02*
D03*
X2127758Y947928D02*
D03*
D55*
X2391236Y766678D02*
D03*
X674116Y1047496D02*
D03*
X675814Y708808D02*
D03*
X673274Y1387242D02*
D03*
D56*
X2391236Y716678D02*
D03*
X674116Y1097496D02*
D03*
X675814Y758808D02*
D03*
X673274Y1437242D02*
D03*
D57*
X896112Y1677670D02*
D03*
Y1703070D02*
D03*
X1199896Y1702054D02*
D03*
Y1676654D02*
D03*
X1504696Y1699514D02*
D03*
Y1674114D02*
D03*
X1808734Y1696974D02*
D03*
Y1671574D02*
D03*
X2429764Y1695450D02*
D03*
Y1670050D02*
D03*
X2114550Y1692402D02*
D03*
Y1667002D02*
D03*
D58*
X896112Y1690370D02*
D03*
X1199896Y1689354D02*
D03*
X1504696Y1686814D02*
D03*
X1808734Y1684274D02*
D03*
X2429764Y1682750D02*
D03*
X2114550Y1679702D02*
D03*
D59*
X2109470Y689864D02*
D03*
D60*
X2328418D02*
D03*
X2418080Y834644D02*
D03*
D61*
X2418776Y1214374D02*
D03*
Y1188974D02*
D03*
X2414270Y1427226D02*
D03*
Y1452626D02*
D03*
D62*
X2418776Y1163624D02*
D03*
X2414270Y1401876D02*
D03*
D63*
X2418080Y1053592D02*
D03*
D64*
X1211580Y732790D02*
D03*
X1205992Y1070660D02*
D03*
X1204976Y1417574D02*
D03*
D65*
X1228598Y1530350D02*
D03*
X1222756Y1179830D02*
D03*
X1226566Y841756D02*
D03*
D66*
X941578Y1530350D02*
D03*
X935736Y1179830D02*
D03*
X939546Y841756D02*
D03*
D67*
X1340358Y1260094D02*
D03*
X1585214Y1256030D02*
D03*
X1895467Y1383538D02*
D03*
X1625092Y1289304D02*
D03*
X1624330Y1218692D02*
D03*
X1791462Y1274826D02*
D03*
X1878584Y1273556D02*
D03*
X1974596Y919480D02*
D03*
X2232152Y1569466D02*
D03*
X1623314Y906526D02*
D03*
X1602994Y669544D02*
D03*
X1511301Y685082D02*
D03*
X1599692Y1012952D02*
D03*
X1442466Y765810D02*
D03*
X1413637Y852297D02*
D03*
X1487678Y689864D02*
D03*
X1822577Y769112D02*
D03*
X1510538Y839978D02*
D03*
X1503680Y1182878D02*
D03*
X1434338Y1114149D02*
D03*
X1479550Y1035558D02*
D03*
X1300988Y643636D02*
D03*
X1295527Y985393D02*
D03*
X1288796Y1321308D02*
D03*
X1504696Y1520952D02*
D03*
X1046226Y840740D02*
D03*
X1076325Y1246378D02*
D03*
X1583944Y1344571D02*
D03*
X1503277Y1351026D02*
D03*
X1502156Y1017375D02*
D03*
X1370330Y1391158D02*
D03*
X1481074Y1370838D02*
D03*
X1821307Y1433195D02*
D03*
X1822196Y1114679D02*
D03*
X1405890Y1189990D02*
D03*
Y1108202D02*
D03*
X1404112Y1527556D02*
D03*
X1436370Y1445514D02*
D03*
D82*
X785876Y768477D02*
D03*
D83*
X789178Y1084326D02*
D03*
D84*
X793750Y1469390D02*
D03*
D85*
X2231644Y1536000D02*
D03*
Y1512000D02*
D03*
D86*
X1505712Y1061212D02*
D03*
Y1148212D02*
D03*
X1506728Y1400998D02*
D03*
Y1487998D02*
D03*
X1512062Y801248D02*
D03*
Y714248D02*
D03*
X2283460Y1466662D02*
D03*
Y1379662D02*
D03*
X2282190Y1155700D02*
D03*
Y1068700D02*
D03*
X2282952Y1223198D02*
D03*
Y1310198D02*
D03*
X2285746Y835792D02*
D03*
Y748792D02*
D03*
D87*
X2171954Y1061104D02*
D03*
Y1111104D02*
D03*
X2176526Y1460030D02*
D03*
Y1510030D02*
D03*
X2285492Y1522622D02*
D03*
Y1572622D02*
D03*
M02*
