%TF.GenerationSoftware,Altium Limited,Altium Designer,21.6.4 (81)*%
G04 Layer_Color=65535*
%FSLAX45Y45*%
%MOMM*%
%TF.SameCoordinates,3325C277-0099-4954-8EFE-43F743DDDD4B*%
%TF.FilePolarity,Positive*%
%TF.FileFunction,Legend,Top*%
%TF.Part,Single*%
G01*
G75*
%TA.AperFunction,NonConductor*%
%ADD59C,0.25000*%
%ADD60C,0.20000*%
%ADD61C,0.25400*%
%ADD62C,0.15240*%
%ADD80C,0.07620*%
%ADD81C,0.12700*%
G36*
X10790555Y6808470D02*
X10765155D01*
Y6846570D01*
X10790555D01*
Y6808470D01*
D02*
G37*
G36*
X10805160Y10209530D02*
X10779760D01*
Y10247630D01*
X10805160D01*
Y10209530D01*
D02*
G37*
G36*
X15017751Y7232341D02*
Y7206941D01*
X14979649D01*
Y7232341D01*
X15017751D01*
D02*
G37*
G36*
X10810240Y13592810D02*
X10784840D01*
Y13630910D01*
X10810240D01*
Y13592810D01*
D02*
G37*
G36*
X14954250Y10605300D02*
Y10579900D01*
X14916150D01*
Y10605300D01*
X14954250D01*
D02*
G37*
G36*
X14961870Y14044540D02*
Y14019141D01*
X14923770D01*
Y14044540D01*
X14961870D01*
D02*
G37*
D59*
X13463400Y14840379D02*
G03*
X13463400Y14840379I-12500J0D01*
G01*
X13460860Y14284120D02*
G03*
X13460860Y14284120I-12500J0D01*
G01*
X13390575Y11479487D02*
G03*
X13390575Y11479487I-12500J0D01*
G01*
X13658694Y10337694D02*
G03*
X13658694Y10337694I-12500J0D01*
G01*
X13696794Y6964574D02*
G03*
X13696794Y6964574I-12500J0D01*
G01*
X13418600Y8068267D02*
G03*
X13418600Y8068267I-12500J0D01*
G01*
X14368539Y13610960D02*
G03*
X14368539Y13610960I-12500J0D01*
G01*
X14348219Y10211580D02*
G03*
X14348219Y10211580I-12500J0D01*
G01*
X14449820Y7012040D02*
G03*
X14449820Y7012040I-12500J0D01*
G01*
X22169980Y9720620D02*
G03*
X22169980Y9720620I-12500J0D01*
G01*
X13029961Y7659740D02*
G03*
X13029961Y7659740I-12500J0D01*
G01*
X12971539Y11025240D02*
G03*
X12971539Y11025240I-12500J0D01*
G01*
X12913120Y14497420D02*
G03*
X12913120Y14497420I-12500J0D01*
G01*
D60*
X14895419Y13329581D02*
G03*
X14875420Y13329581I-10000J0D01*
G01*
D02*
G03*
X14895419Y13329581I10000J0D01*
G01*
X14887801Y6598580D02*
G03*
X14867799Y6598580I-10000J0D01*
G01*
D02*
G03*
X14887801Y6598580I10000J0D01*
G01*
X14890340Y9966620D02*
G03*
X14870340Y9966620I-10000J0D01*
G01*
D02*
G03*
X14890340Y9966620I10000J0D01*
G01*
X19865701Y12701001D02*
X19880219D01*
X19865701Y12825999D02*
X19880219D01*
X19235213Y12645690D02*
X19565828D01*
X19235213Y12881310D02*
X19565828D01*
X19246733Y14337331D02*
X19577350D01*
X19246733Y14572951D02*
X19577350D01*
X19251813Y13646449D02*
X19582430D01*
X19251813Y13882069D02*
X19582430D01*
X19906342Y13404581D02*
X19920859D01*
X19906342Y13529579D02*
X19920859D01*
X19394856Y12990561D02*
X19409373D01*
X19394856Y13115559D02*
X19409373D01*
X19405962Y13399501D02*
X19420479D01*
X19405962Y13524500D02*
X19420479D01*
X19400880Y14225539D02*
X19415399D01*
X19400880Y14100542D02*
X19415399D01*
X19889507Y14098001D02*
X19904024D01*
X19889507Y14223000D02*
X19904024D01*
X14850420Y13084581D02*
X14935419D01*
Y13189580D01*
X14645422Y13084581D02*
X14730420D01*
X14645422D02*
Y13189580D01*
X6458636Y13371561D02*
X6473154D01*
X6458636Y13496559D02*
X6473154D01*
X7578126Y12838699D02*
X7592644D01*
X7578126Y12713701D02*
X7592644D01*
X7578126Y13118098D02*
X7592644D01*
X7578126Y12993102D02*
X7592644D01*
X13614761Y14956522D02*
X13629279D01*
X13614761Y15081519D02*
X13629279D01*
X13090160Y8158840D02*
Y8173359D01*
X12965161Y8158840D02*
Y8173359D01*
X13993861Y14059261D02*
Y14073779D01*
X14118858Y14059261D02*
Y14073779D01*
X13991321Y10632801D02*
Y10647319D01*
X14116319Y10632801D02*
Y10647319D01*
X14059901Y7249521D02*
Y7264039D01*
X14184898Y7249521D02*
Y7264039D01*
X15634702Y13787482D02*
Y13801999D01*
X15759698Y13787482D02*
Y13801999D01*
X15647401Y10421981D02*
Y10436499D01*
X15772398Y10421981D02*
Y10436499D01*
X15835361Y6980281D02*
Y6994799D01*
X15960359Y6980281D02*
Y6994799D01*
X11593530Y15493030D02*
X11924147D01*
X11593530Y15728650D02*
X11924147D01*
X11530213Y11985290D02*
X11860830D01*
X11530213Y12220910D02*
X11860830D01*
X11560693Y8612170D02*
X11891310D01*
X11560693Y8847790D02*
X11891310D01*
X13536401Y14644380D02*
Y14804379D01*
X13692398D01*
X13536401Y14644380D02*
X13692398D01*
Y14804379D01*
X13533862Y14088120D02*
Y14248120D01*
X13689857D01*
X13533862Y14088120D02*
X13689857D01*
Y14248120D01*
X13981161Y14823801D02*
Y14838319D01*
X14106158Y14823801D02*
Y14838319D01*
X13736700Y11428628D02*
Y11436380D01*
X13466699D02*
X13736700D01*
X13466699Y11428628D02*
Y11436380D01*
X13736700Y11281380D02*
Y11289132D01*
X13466699Y11281380D02*
X13736700D01*
X13466699D02*
Y11289132D01*
X13689301Y10696321D02*
X13697052D01*
X13689301Y10426319D02*
Y10696321D01*
Y10426319D02*
X13697052D01*
X13836548Y10696321D02*
X13844299D01*
Y10426319D02*
Y10696321D01*
X13836548Y10426319D02*
X13844299D01*
X13727400Y7323201D02*
X13735152D01*
X13727400Y7053199D02*
Y7323201D01*
Y7053199D02*
X13735152D01*
X13874648Y7323201D02*
X13882401D01*
Y7053199D02*
Y7323201D01*
X13874648Y7053199D02*
X13882401D01*
X13764726Y8017408D02*
Y8025160D01*
X13494725D02*
X13764726D01*
X13494725Y8017408D02*
Y8025160D01*
X13764726Y7870160D02*
Y7877912D01*
X13494725Y7870160D02*
X13764726D01*
X13494725D02*
Y7877912D01*
X14286041Y13383458D02*
Y13408463D01*
X14421037Y13383458D02*
Y13408463D01*
X14265723Y9984080D02*
Y10009078D01*
X14400719Y9984080D02*
Y10009078D01*
X14367322Y6784540D02*
Y6809538D01*
X14502318Y6784540D02*
Y6809538D01*
X17638121Y15475220D02*
X17652638D01*
X17638121Y15350221D02*
X17652638D01*
X14619238Y8991960D02*
Y9006479D01*
X14494241Y8991960D02*
Y9006479D01*
X17643201Y6681739D02*
X17657719D01*
X17643201Y6556741D02*
X17657719D01*
X14842799Y6353582D02*
X14927797D01*
Y6458580D01*
X14637801Y6353582D02*
X14722800D01*
X14637801D02*
Y6458580D01*
X14492239Y7252061D02*
Y7266579D01*
X14367241Y7252061D02*
Y7266579D01*
X15531099Y15197182D02*
Y15211699D01*
X15406100Y15197182D02*
Y15211699D01*
X14416039Y14061801D02*
Y14076318D01*
X14291042Y14061801D02*
Y14076318D01*
X15503159Y11686901D02*
Y11701419D01*
X15378162Y11686901D02*
Y11701419D01*
X17633041Y12305299D02*
X17647559D01*
X17633041Y12180301D02*
X17647559D01*
X14126479Y11463381D02*
Y11477899D01*
X14001482Y11463381D02*
Y11477899D01*
X14116319Y12321901D02*
Y12336419D01*
X13991321Y12321901D02*
Y12336419D01*
X14855460Y11782476D02*
Y11796994D01*
X14730461Y11782476D02*
Y11796994D01*
X14591299Y12320956D02*
Y12335474D01*
X14466301Y12320956D02*
Y12335474D01*
X17646686Y10105659D02*
X17661205D01*
X17646686Y9980661D02*
X17661205D01*
X14845340Y9721621D02*
X14930338D01*
Y9826620D01*
X14640343Y9721621D02*
X14725340D01*
X14640343D02*
Y9826620D01*
X14393179Y10632801D02*
Y10647319D01*
X14268181Y10632801D02*
Y10647319D01*
X15579359Y8405221D02*
Y8419740D01*
X15454361Y8405221D02*
Y8419740D01*
X17644147Y8800099D02*
X17658664D01*
X17644147Y8675101D02*
X17658664D01*
X14195059Y8039461D02*
Y8053979D01*
X14070061Y8039461D02*
Y8053979D01*
X14202679Y8991961D02*
Y9006479D01*
X14077681Y8991961D02*
Y9006479D01*
X14918959Y8491581D02*
Y8506099D01*
X14793961Y8491581D02*
Y8506099D01*
X6942821Y16957401D02*
Y16971919D01*
X7067819Y16957401D02*
Y16971919D01*
X7476759Y16957401D02*
Y16971919D01*
X7351761Y16957401D02*
Y16971919D01*
X7857759Y16952321D02*
Y16966840D01*
X7732761Y16952321D02*
Y16966840D01*
X8021010Y16914957D02*
Y16954958D01*
X8311088Y16914957D02*
Y16954958D01*
X8021086Y16914917D02*
X8061086D01*
X8271048Y16914867D02*
X8311048D01*
X8156103Y17044899D02*
X8176103D01*
X8429442Y16880058D02*
Y17100063D01*
X8644438Y16880058D02*
Y17100063D01*
X11045129Y16875917D02*
Y16915916D01*
X11335212Y16875917D02*
Y16915916D01*
X11045205Y16875877D02*
X11085205D01*
X11295172Y16875826D02*
X11335172D01*
X11180221Y17005859D02*
X11200221D01*
X10931159Y16926921D02*
Y16941438D01*
X10806161Y16926921D02*
Y16941438D01*
X10560319Y16934541D02*
Y16949059D01*
X10435321Y16934541D02*
Y16949059D01*
X10069561Y16921841D02*
Y16936359D01*
X10194559Y16921841D02*
Y16936359D01*
X11692362Y16836812D02*
Y17087428D01*
X11467358Y16836812D02*
Y17087428D01*
X14000169Y16848917D02*
Y16888918D01*
X14290248Y16848917D02*
Y16888918D01*
X14000246Y16848877D02*
X14040247D01*
X14250208Y16848827D02*
X14290208D01*
X14135263Y16978859D02*
X14155263D01*
X13882639Y16904060D02*
Y16918579D01*
X13757642Y16904060D02*
Y16918579D01*
X13554979Y16909142D02*
Y16923659D01*
X13429980Y16909142D02*
Y16923659D01*
X13097241Y16906601D02*
Y16921120D01*
X13222240Y16906601D02*
Y16921120D01*
X14669241Y16812453D02*
Y17063071D01*
X14444238Y16812453D02*
Y17063071D01*
X17031909Y16845438D02*
Y16885437D01*
X17321992Y16845438D02*
Y16885437D01*
X17031985Y16845396D02*
X17071985D01*
X17281952Y16845346D02*
X17321951D01*
X17167001Y16975378D02*
X17187001D01*
X16874759Y16898981D02*
Y16913499D01*
X16749760Y16898981D02*
Y16913499D01*
X16549638Y16898981D02*
Y16913499D01*
X16424641Y16898981D02*
Y16913499D01*
X16107141Y16898981D02*
Y16913499D01*
X16232140Y16898981D02*
Y16913499D01*
X17509943Y16811478D02*
Y17031482D01*
X17724937Y16811478D02*
Y17031482D01*
X19213560Y16848181D02*
Y16862698D01*
X19338559Y16848181D02*
Y16862698D01*
X19986259Y16853261D02*
Y16867780D01*
X19861261Y16853261D02*
Y16867780D01*
X19666219Y16850722D02*
Y16865239D01*
X19541222Y16850722D02*
Y16865239D01*
X20097688Y16797177D02*
Y16837177D01*
X20387772Y16797177D02*
Y16837177D01*
X20097765Y16797137D02*
X20137766D01*
X20347733Y16797086D02*
X20387732D01*
X20232780Y16927119D02*
X20252782D01*
X20737302Y16735213D02*
Y16985828D01*
X20512299Y16735213D02*
Y16985828D01*
X22253941Y16864523D02*
Y16879047D01*
X22378938Y16864523D02*
Y16879047D01*
X22721838Y16865961D02*
Y16880479D01*
X22596841Y16865961D02*
Y16880479D01*
X23090138Y16868501D02*
Y16883018D01*
X22965141Y16868501D02*
Y16883018D01*
X23248309Y16810817D02*
Y16850816D01*
X23538388Y16810817D02*
Y16850816D01*
X23248386Y16810777D02*
X23288387D01*
X23498347Y16810725D02*
X23538348D01*
X23383403Y16940759D02*
X23403403D01*
X23902142Y16765692D02*
Y17016309D01*
X23677138Y16765692D02*
Y17016309D01*
X22724409Y14334373D02*
Y14664990D01*
X22960030Y14334373D02*
Y14664990D01*
Y13883432D02*
Y14214047D01*
X22724409Y13883432D02*
Y14214047D01*
X22673357Y8868420D02*
X22942976D01*
X22673357D02*
Y9892020D01*
X22942976D01*
X22240601Y8474441D02*
X22255119D01*
X22240601Y8599439D02*
X22255119D01*
X12947382Y6985361D02*
Y6999879D01*
X13072379Y6985361D02*
Y6999879D01*
X13082458Y7432238D02*
Y7457242D01*
X12947462Y7432238D02*
Y7457242D01*
X12810190Y6822232D02*
Y7152848D01*
X12574570Y6822232D02*
Y7152848D01*
X11989801Y6983766D02*
Y6998284D01*
X12114799Y6983766D02*
Y6998284D01*
X12249450Y6826133D02*
Y7156750D01*
X12485070Y6826133D02*
Y7156750D01*
X11921221Y10355941D02*
Y10370459D01*
X12046219Y10355941D02*
Y10370459D01*
X12888960Y10353401D02*
Y10367919D01*
X13013959Y10353401D02*
Y10367919D01*
X13024039Y10797738D02*
Y10822742D01*
X12889043Y10797738D02*
Y10822742D01*
X7850937Y7245401D02*
Y7254403D01*
Y7909403D02*
Y7918399D01*
X8472937D01*
Y7245401D02*
Y7918399D01*
X7850937Y7245401D02*
X8472937D01*
X7873797Y10664241D02*
Y10673243D01*
Y11328243D02*
Y11337239D01*
X8495797D01*
Y10664241D02*
Y11337239D01*
X7873797Y10664241D02*
X8495797D01*
X11747861Y15246082D02*
X11762379D01*
X11747861Y15371078D02*
X11762379D01*
X9960646Y15363458D02*
X9975164D01*
X9960646Y15238461D02*
X9975164D01*
X12830540Y13825581D02*
Y13840099D01*
X12955539Y13825581D02*
Y13840099D01*
X6981622Y14019063D02*
X7257618D01*
X7265619Y13840562D02*
Y14297559D01*
X6973621Y13840562D02*
Y14297559D01*
X12830621Y14269917D02*
Y14294922D01*
X12965617Y14269917D02*
Y14294922D01*
X9881906Y11855719D02*
X9896424D01*
X9881906Y11730721D02*
X9896424D01*
X11686901Y11735801D02*
X11701419D01*
X11686901Y11860799D02*
X11701419D01*
X9906361Y8472439D02*
X9920879D01*
X9906361Y8347441D02*
X9920879D01*
X11725001D02*
X11739519D01*
X11725001Y8472439D02*
X11739519D01*
X9107602Y7631902D02*
X9383598D01*
X9099601Y7353402D02*
Y7810398D01*
X9391599Y7353402D02*
Y7810398D01*
X7029882Y7242343D02*
X7305878D01*
X7313879Y7063842D02*
Y7520838D01*
X7021881Y7063842D02*
Y7520838D01*
X9102522Y11045662D02*
X9378518D01*
X9094521Y10767162D02*
Y11224158D01*
X9386519Y10767162D02*
Y11224158D01*
X12421570Y10192812D02*
Y10523428D01*
X12185950Y10192812D02*
Y10523428D01*
X12513610Y10190272D02*
Y10520888D01*
X12749230Y10190272D02*
Y10520888D01*
X14750781Y15176862D02*
Y15191379D01*
X14875780Y15176862D02*
Y15191379D01*
X14456142Y15712801D02*
Y15727319D01*
X14581139Y15712801D02*
Y15727319D01*
X7962697Y14197382D02*
X8584697D01*
Y14870380D01*
X7962697D02*
X8584697D01*
X7962697Y14861383D02*
Y14870380D01*
Y14197382D02*
Y14206383D01*
X12899121Y11478621D02*
Y11493139D01*
X13024120Y11478621D02*
Y11493139D01*
X10363561Y13791199D02*
X10378079D01*
X10363561Y13666200D02*
X10378079D01*
X12170710Y13670071D02*
Y14000688D01*
X12406330Y13670071D02*
Y14000688D01*
X14101079Y15712801D02*
Y15727319D01*
X13976080Y15712801D02*
Y15727319D01*
X10366101Y13384261D02*
X10380619D01*
X10366101Y13509259D02*
X10380619D01*
X9130462Y14581337D02*
X9406458D01*
X9122461Y14302843D02*
Y14759837D01*
X9414459Y14302843D02*
Y14759837D01*
X12048759Y13829716D02*
Y13844234D01*
X11923761Y13829716D02*
Y13844234D01*
X12472970Y13670071D02*
Y14000688D01*
X12708590Y13670071D02*
Y14000688D01*
X6999402Y10623083D02*
X7275398D01*
X7283399Y10444582D02*
Y10901578D01*
X6991401Y10444582D02*
Y10901578D01*
X10348321Y9995901D02*
X10362839D01*
X10348321Y10120899D02*
X10362839D01*
X10352456Y10288001D02*
X10366974D01*
X10352456Y10412999D02*
X10366974D01*
X10327056Y6622781D02*
X10341574D01*
X10327056Y6747779D02*
X10341574D01*
X10324516Y6904721D02*
X10339034D01*
X10324516Y7029719D02*
X10339034D01*
D61*
X6134100Y16093440D02*
X9189720D01*
X6134100Y17703799D02*
X9189720D01*
Y16093440D02*
Y17703799D01*
X6134100Y16093440D02*
Y17703799D01*
X15326360Y16093440D02*
X18356580D01*
X15326360Y17703799D02*
X18356580D01*
Y16093440D02*
Y17703799D01*
X15326360Y16093440D02*
Y17703799D01*
X12273280Y16095979D02*
X15300960D01*
X12273280Y17703799D02*
X15300960D01*
Y16095979D02*
Y17703799D01*
X12273280Y16095979D02*
Y17703799D01*
X9215120Y16093440D02*
X12245340D01*
X9215120Y17703799D02*
X12245340D01*
Y16093440D02*
Y17703799D01*
X9215120Y16093440D02*
Y17703799D01*
X18384520Y16095979D02*
X21424899D01*
X18384520Y17706340D02*
X21424899D01*
Y16095979D02*
Y17706340D01*
X18384520Y16095979D02*
Y17706340D01*
X21450301Y16090900D02*
X24505920D01*
X21450301Y17706340D02*
X24505920D01*
Y16090900D02*
Y17706340D01*
X21450301Y16090900D02*
Y17706340D01*
X15841980Y6314440D02*
Y6568440D01*
X15486380D02*
X15689580D01*
X15333980Y6314440D02*
Y6568440D01*
Y6314440D02*
X15841980D01*
X15689580Y6568440D02*
X15841980D01*
X15333980D02*
X15486380D01*
X15219679Y12848402D02*
Y13000803D01*
Y13204002D02*
Y13356403D01*
X15473680Y12848402D02*
Y13356403D01*
X15219679Y12848402D02*
X15473680D01*
X15219679Y13000803D02*
Y13204002D01*
Y13356403D02*
X15473680D01*
X15219679Y10046782D02*
X15473680D01*
X15219679Y9691182D02*
Y9894382D01*
Y9538782D02*
X15473680D01*
Y10046782D01*
X15219679Y9894382D02*
Y10046782D01*
Y9538782D02*
Y9691182D01*
X11336020Y7317740D02*
X11844020D01*
Y7571740D01*
X11336020D02*
X11844020D01*
X11336020Y7317740D02*
Y7571740D01*
X11284138Y10698480D02*
X11792138D01*
Y10952480D01*
X11284138D02*
X11792138D01*
X11284138Y10698480D02*
Y10952480D01*
X11264900Y14173199D02*
X11772900D01*
Y14427200D01*
X11264900D02*
X11772900D01*
X11264900Y14173199D02*
Y14427200D01*
X16258630Y6537935D02*
X16360197D01*
X16309415D01*
Y6385585D01*
X16410982D02*
Y6537935D01*
X16487157D01*
X16512547Y6512543D01*
Y6461760D01*
X16487157Y6436368D01*
X16410982D01*
X16639507Y6385585D02*
Y6537935D01*
X16563332Y6461760D01*
X16664899D01*
X16817250Y6537935D02*
X16766466Y6512543D01*
X16715683Y6461760D01*
Y6410977D01*
X16741074Y6385585D01*
X16791858D01*
X16817250Y6410977D01*
Y6436368D01*
X16791858Y6461760D01*
X16715683D01*
X15448247Y6809691D02*
X15397462D01*
X15422855D01*
Y6682732D01*
X15397462Y6657340D01*
X15372072D01*
X15346680Y6682732D01*
X15499031Y6809691D02*
X15600598D01*
Y6784299D01*
X15499031Y6682732D01*
Y6657340D01*
X13705840Y8625791D02*
X13807407D01*
X13756622D01*
Y8473440D01*
X13858191D02*
Y8625791D01*
X13934366D01*
X13959758Y8600399D01*
Y8549615D01*
X13934366Y8524223D01*
X13858191D01*
X14112109Y8625791D02*
X14010541D01*
Y8549615D01*
X14061325Y8575007D01*
X14086717D01*
X14112109Y8549615D01*
Y8498832D01*
X14086717Y8473440D01*
X14035933D01*
X14010541Y8498832D01*
X14162892Y8473440D02*
X14213676D01*
X14188284D01*
Y8625791D01*
X14162892Y8600399D01*
X13677901Y12042091D02*
X13779466D01*
X13728683D01*
Y11889740D01*
X13830251D02*
Y12042091D01*
X13906425D01*
X13931818Y12016699D01*
Y11965915D01*
X13906425Y11940523D01*
X13830251D01*
X14084169Y12042091D02*
X13982600D01*
Y11965915D01*
X14033385Y11991307D01*
X14058777D01*
X14084169Y11965915D01*
Y11915132D01*
X14058777Y11889740D01*
X14007993D01*
X13982600Y11915132D01*
X14134952Y12016699D02*
X14160344Y12042091D01*
X14211128D01*
X14236519Y12016699D01*
Y11915132D01*
X14211128Y11889740D01*
X14160344D01*
X14134952Y11915132D01*
Y12016699D01*
X13634720Y15717471D02*
X13736287D01*
X13685503D01*
Y15565120D01*
X13787071D02*
Y15717471D01*
X13863246D01*
X13888638Y15692079D01*
Y15641295D01*
X13863246Y15615903D01*
X13787071D01*
X14015598Y15565120D02*
Y15717471D01*
X13939421Y15641295D01*
X14040990D01*
X14091772Y15590512D02*
X14117165Y15565120D01*
X14167947D01*
X14193340Y15590512D01*
Y15692079D01*
X14167947Y15717471D01*
X14117165D01*
X14091772Y15692079D01*
Y15666687D01*
X14117165Y15641295D01*
X14193340D01*
X12918440Y8468360D02*
Y8620711D01*
X12994615D01*
X13020007Y8595319D01*
Y8544535D01*
X12994615Y8519143D01*
X12918440D01*
X12969223D02*
X13020007Y8468360D01*
X13070792D02*
X13121574D01*
X13096182D01*
Y8620711D01*
X13070792Y8595319D01*
X13197749Y8620711D02*
X13299316D01*
Y8595319D01*
X13197749Y8493752D01*
Y8468360D01*
X13421359Y15229840D02*
Y15382191D01*
X13497536D01*
X13522926Y15356799D01*
Y15306015D01*
X13497536Y15280623D01*
X13421359D01*
X13472144D02*
X13522926Y15229840D01*
X13675278Y15382191D02*
X13624493Y15356799D01*
X13573711Y15306015D01*
Y15255232D01*
X13599103Y15229840D01*
X13649886D01*
X13675278Y15255232D01*
Y15280623D01*
X13649886Y15306015D01*
X13573711D01*
X14013181Y7559040D02*
Y7711391D01*
X14089355D01*
X14114748Y7685999D01*
Y7635215D01*
X14089355Y7609823D01*
X14013181D01*
X14063963D02*
X14114748Y7559040D01*
X14165530D02*
X14216315D01*
X14190923D01*
Y7711391D01*
X14165530Y7685999D01*
X14394057Y7559040D02*
X14292490D01*
X14394057Y7660607D01*
Y7685999D01*
X14368665Y7711391D01*
X14317880D01*
X14292490Y7685999D01*
X14521016Y7559040D02*
Y7711391D01*
X14444839Y7635215D01*
X14546408D01*
X13944600Y10942320D02*
Y11094671D01*
X14020775D01*
X14046167Y11069279D01*
Y11018495D01*
X14020775Y10993103D01*
X13944600D01*
X13995383D02*
X14046167Y10942320D01*
X14096951D02*
X14147734D01*
X14122343D01*
Y11094671D01*
X14096951Y11069279D01*
X14325478Y10942320D02*
X14223911D01*
X14325478Y11043887D01*
Y11069279D01*
X14300085Y11094671D01*
X14249301D01*
X14223911Y11069279D01*
X14376260D02*
X14401653Y11094671D01*
X14452435D01*
X14477827Y11069279D01*
Y11043887D01*
X14452435Y11018495D01*
X14427045D01*
X14452435D01*
X14477827Y10993103D01*
Y10967712D01*
X14452435Y10942320D01*
X14401653D01*
X14376260Y10967712D01*
X13947141Y14368781D02*
Y14521130D01*
X14023315D01*
X14048708Y14495740D01*
Y14444955D01*
X14023315Y14419563D01*
X13947141D01*
X13997923D02*
X14048708Y14368781D01*
X14099490D02*
X14150275D01*
X14124883D01*
Y14521130D01*
X14099490Y14495740D01*
X14328017Y14368781D02*
X14226450D01*
X14328017Y14470348D01*
Y14495740D01*
X14302625Y14521130D01*
X14251842D01*
X14226450Y14495740D01*
X14480368Y14368781D02*
X14378799D01*
X14480368Y14470348D01*
Y14495740D01*
X14454976Y14521130D01*
X14404192D01*
X14378799Y14495740D01*
X15788640Y7289800D02*
Y7442151D01*
X15864815D01*
X15890207Y7416759D01*
Y7365975D01*
X15864815Y7340583D01*
X15788640D01*
X15839423D02*
X15890207Y7289800D01*
X15940991D02*
X15991774D01*
X15966383D01*
Y7442151D01*
X15940991Y7416759D01*
X16169518Y7289800D02*
X16067950D01*
X16169518Y7391367D01*
Y7416759D01*
X16144125Y7442151D01*
X16093341D01*
X16067950Y7416759D01*
X16220300Y7289800D02*
X16271085D01*
X16245692D01*
Y7442151D01*
X16220300Y7416759D01*
X15600681Y10731500D02*
Y10883851D01*
X15676855D01*
X15702248Y10858459D01*
Y10807675D01*
X15676855Y10782283D01*
X15600681D01*
X15651463D02*
X15702248Y10731500D01*
X15753030D02*
X15803815D01*
X15778423D01*
Y10883851D01*
X15753030Y10858459D01*
X15981557Y10731500D02*
X15879990D01*
X15981557Y10833067D01*
Y10858459D01*
X15956165Y10883851D01*
X15905380D01*
X15879990Y10858459D01*
X16032339D02*
X16057732Y10883851D01*
X16108516D01*
X16133908Y10858459D01*
Y10756892D01*
X16108516Y10731500D01*
X16057732D01*
X16032339Y10756892D01*
Y10858459D01*
X15587981Y14097000D02*
Y14249352D01*
X15664156D01*
X15689548Y14223959D01*
Y14173175D01*
X15664156Y14147783D01*
X15587981D01*
X15638763D02*
X15689548Y14097000D01*
X15740331D02*
X15791113D01*
X15765723D01*
Y14249352D01*
X15740331Y14223959D01*
X15867290Y14097000D02*
X15918073D01*
X15892680D01*
Y14249352D01*
X15867290Y14223959D01*
X15994247Y14122392D02*
X16019640Y14097000D01*
X16070424D01*
X16095816Y14122392D01*
Y14223959D01*
X16070424Y14249352D01*
X16019640D01*
X15994247Y14223959D01*
Y14198567D01*
X16019640Y14173175D01*
X16095816D01*
X14625320Y8280359D02*
X14726888Y8178792D01*
X14625320D02*
X14726888Y8280359D01*
X14625320Y8229575D02*
X14726888D01*
X14676103Y8178792D02*
Y8280359D01*
X14879237Y8153400D02*
X14777670D01*
X14879237Y8254967D01*
Y8280359D01*
X14853847Y8305751D01*
X14803062D01*
X14777670Y8280359D01*
X14561819Y11653479D02*
X14663387Y11551912D01*
X14561819D02*
X14663387Y11653479D01*
X14561819Y11602695D02*
X14663387D01*
X14612604Y11551912D02*
Y11653479D01*
X14714171Y11526520D02*
X14764954D01*
X14739563D01*
Y11678871D01*
X14714171Y11653479D01*
X11628087Y9070299D02*
X11602695Y9095691D01*
X11551912D01*
X11526520Y9070299D01*
Y8968732D01*
X11551912Y8943340D01*
X11602695D01*
X11628087Y8968732D01*
X11678871Y9070299D02*
X11704263Y9095691D01*
X11755046D01*
X11780438Y9070299D01*
Y9044907D01*
X11755046Y9019515D01*
X11729654D01*
X11755046D01*
X11780438Y8994123D01*
Y8968732D01*
X11755046Y8943340D01*
X11704263D01*
X11678871Y8968732D01*
X11831221D02*
X11856613Y8943340D01*
X11907397D01*
X11932789Y8968732D01*
Y9070299D01*
X11907397Y9095691D01*
X11856613D01*
X11831221Y9070299D01*
Y9044907D01*
X11856613Y9019515D01*
X11932789D01*
X11597607Y12443419D02*
X11572215Y12468811D01*
X11521432D01*
X11496040Y12443419D01*
Y12341852D01*
X11521432Y12316460D01*
X11572215D01*
X11597607Y12341852D01*
X11648391Y12443419D02*
X11673783Y12468811D01*
X11724566D01*
X11749958Y12443419D01*
Y12418027D01*
X11724566Y12392635D01*
X11699174D01*
X11724566D01*
X11749958Y12367243D01*
Y12341852D01*
X11724566Y12316460D01*
X11673783D01*
X11648391Y12341852D01*
X11800741Y12443419D02*
X11826133Y12468811D01*
X11876917D01*
X11902309Y12443419D01*
Y12418027D01*
X11876917Y12392635D01*
X11902309Y12367243D01*
Y12341852D01*
X11876917Y12316460D01*
X11826133D01*
X11800741Y12341852D01*
Y12367243D01*
X11826133Y12392635D01*
X11800741Y12418027D01*
Y12443419D01*
X11826133Y12392635D02*
X11876917D01*
X11661107Y15951160D02*
X11635715Y15976550D01*
X11584932D01*
X11559540Y15951160D01*
Y15849593D01*
X11584932Y15824200D01*
X11635715D01*
X11661107Y15849593D01*
X11711891Y15951160D02*
X11737283Y15976550D01*
X11788066D01*
X11813458Y15951160D01*
Y15925768D01*
X11788066Y15900375D01*
X11762674D01*
X11788066D01*
X11813458Y15874983D01*
Y15849593D01*
X11788066Y15824200D01*
X11737283D01*
X11711891Y15849593D01*
X11864241Y15976550D02*
X11965809D01*
Y15951160D01*
X11864241Y15849593D01*
Y15824200D01*
X13685519Y7724091D02*
Y7571740D01*
X13761694D01*
X13787086Y7597132D01*
Y7698699D01*
X13761694Y7724091D01*
X13685519D01*
X13837871Y7571740D02*
X13888654D01*
X13863263D01*
Y7724091D01*
X13837871Y7698699D01*
X14066397Y7724091D02*
X13964830D01*
Y7647915D01*
X14015613Y7673307D01*
X14041005D01*
X14066397Y7647915D01*
Y7597132D01*
X14041005Y7571740D01*
X13990221D01*
X13964830Y7597132D01*
X13647420Y11097211D02*
Y10944860D01*
X13723595D01*
X13748987Y10970252D01*
Y11071819D01*
X13723595Y11097211D01*
X13647420D01*
X13799771Y10970252D02*
X13825163Y10944860D01*
X13875946D01*
X13901338Y10970252D01*
Y11071819D01*
X13875946Y11097211D01*
X13825163D01*
X13799771Y11071819D01*
Y11046427D01*
X13825163Y11021035D01*
X13901338D01*
X13319760Y11732211D02*
Y11579860D01*
X13395935D01*
X13421327Y11605252D01*
Y11706819D01*
X13395935Y11732211D01*
X13319760D01*
X13472112D02*
X13573679D01*
Y11706819D01*
X13472112Y11605252D01*
Y11579860D01*
X13347701Y8320991D02*
Y8168640D01*
X13423875D01*
X13449268Y8194032D01*
Y8295599D01*
X13423875Y8320991D01*
X13347701D01*
X13500050Y8168640D02*
X13550835D01*
X13525443D01*
Y8320991D01*
X13500050Y8295599D01*
X13627010D02*
X13652402Y8320991D01*
X13703185D01*
X13728577Y8295599D01*
Y8270207D01*
X13703185Y8244815D01*
X13677792D01*
X13703185D01*
X13728577Y8219423D01*
Y8194032D01*
X13703185Y8168640D01*
X13652402D01*
X13627010Y8194032D01*
X14373860Y7264351D02*
Y7112000D01*
X14450035D01*
X14475427Y7137392D01*
Y7238959D01*
X14450035Y7264351D01*
X14373860D01*
X14526212Y7112000D02*
X14576994D01*
X14551604D01*
Y7264351D01*
X14526212Y7238959D01*
X14653169D02*
X14678561Y7264351D01*
X14729346D01*
X14754736Y7238959D01*
Y7213567D01*
X14729346Y7188175D01*
X14754736Y7162783D01*
Y7137392D01*
X14729346Y7112000D01*
X14678561D01*
X14653169Y7137392D01*
Y7162783D01*
X14678561Y7188175D01*
X14653169Y7213567D01*
Y7238959D01*
X14678561Y7188175D02*
X14729346D01*
X14272260Y10464751D02*
Y10312400D01*
X14348434D01*
X14373827Y10337792D01*
Y10439359D01*
X14348434Y10464751D01*
X14272260D01*
X14424611Y10312400D02*
X14475394D01*
X14450003D01*
Y10464751D01*
X14424611Y10439359D01*
X14551570Y10312400D02*
X14602353D01*
X14576961D01*
Y10464751D01*
X14551570Y10439359D01*
X14292580Y13863271D02*
Y13710921D01*
X14368755D01*
X14394147Y13736311D01*
Y13837878D01*
X14368755Y13863271D01*
X14292580D01*
X14546498D02*
X14444931D01*
Y13787096D01*
X14495714Y13812486D01*
X14521106D01*
X14546498Y13787096D01*
Y13736311D01*
X14521106Y13710921D01*
X14470323D01*
X14444931Y13736311D01*
X17792700Y8033971D02*
X17894267D01*
X17843483D01*
Y7881620D01*
X17945052D02*
Y8033971D01*
X18021227D01*
X18046619Y8008579D01*
Y7957795D01*
X18021227Y7932403D01*
X17945052D01*
X18173576Y7881620D02*
Y8033971D01*
X18097401Y7957795D01*
X18198969D01*
X18249751Y8008579D02*
X18275143Y8033971D01*
X18325928D01*
X18351318Y8008579D01*
Y7983187D01*
X18325928Y7957795D01*
X18351318Y7932403D01*
Y7907012D01*
X18325928Y7881620D01*
X18275143D01*
X18249751Y7907012D01*
Y7932403D01*
X18275143Y7957795D01*
X18249751Y7983187D01*
Y8008579D01*
X18275143Y7957795D02*
X18325928D01*
X16068040Y7429451D02*
X16169608D01*
X16118823D01*
Y7277100D01*
X16220390D02*
Y7429451D01*
X16296565D01*
X16321957Y7404059D01*
Y7353275D01*
X16296565Y7327883D01*
X16220390D01*
X16448917Y7277100D02*
Y7429451D01*
X16372742Y7353275D01*
X16474309D01*
X16525092Y7429451D02*
X16626659D01*
Y7404059D01*
X16525092Y7302492D01*
Y7277100D01*
X13599249Y6865595D02*
X13700818D01*
X13650034D01*
Y6713245D01*
X13751601D02*
Y6865595D01*
X13827777D01*
X13853168Y6840203D01*
Y6789420D01*
X13827777Y6764028D01*
X13751601D01*
X13980127Y6713245D02*
Y6865595D01*
X13903952Y6789420D01*
X14005519D01*
X14157870Y6865595D02*
X14056303D01*
Y6789420D01*
X14107086Y6814812D01*
X14132478D01*
X14157870Y6789420D01*
Y6738637D01*
X14132478Y6713245D01*
X14081694D01*
X14056303Y6738637D01*
X14036040Y7983171D02*
X14137607D01*
X14086823D01*
Y7830820D01*
X14188391D02*
Y7983171D01*
X14264566D01*
X14289958Y7957779D01*
Y7906995D01*
X14264566Y7881603D01*
X14188391D01*
X14416917Y7830820D02*
Y7983171D01*
X14340741Y7906995D01*
X14442310D01*
X14569267Y7830820D02*
Y7983171D01*
X14493092Y7906995D01*
X14594659D01*
X16283940Y8193991D02*
X16385507D01*
X16334723D01*
Y8041640D01*
X16436292D02*
Y8193991D01*
X16512466D01*
X16537859Y8168599D01*
Y8117815D01*
X16512466Y8092423D01*
X16436292D01*
X16664816Y8041640D02*
Y8193991D01*
X16588641Y8117815D01*
X16690208D01*
X16740993Y8168599D02*
X16766383Y8193991D01*
X16817168D01*
X16842558Y8168599D01*
Y8143207D01*
X16817168Y8117815D01*
X16791776D01*
X16817168D01*
X16842558Y8092423D01*
Y8067032D01*
X16817168Y8041640D01*
X16766383D01*
X16740993Y8067032D01*
X16339819Y7124651D02*
X16441386D01*
X16390604D01*
Y6972300D01*
X16492171D02*
Y7124651D01*
X16568346D01*
X16593738Y7099259D01*
Y7048475D01*
X16568346Y7023083D01*
X16492171D01*
X16720697Y6972300D02*
Y7124651D01*
X16644521Y7048475D01*
X16746089D01*
X16898439Y6972300D02*
X16796872D01*
X16898439Y7073867D01*
Y7099259D01*
X16873048Y7124651D01*
X16822264D01*
X16796872Y7099259D01*
X21808440Y15816531D02*
X21910007D01*
X21859222D01*
Y15664180D01*
X21960791D02*
Y15816531D01*
X22036966D01*
X22062358Y15791139D01*
Y15740355D01*
X22036966Y15714963D01*
X21960791D01*
X22113141Y15791139D02*
X22138533Y15816531D01*
X22189317D01*
X22214709Y15791139D01*
Y15765747D01*
X22189317Y15740355D01*
X22163925D01*
X22189317D01*
X22214709Y15714963D01*
Y15689572D01*
X22189317Y15664180D01*
X22138533D01*
X22113141Y15689572D01*
X22341669Y15664180D02*
Y15816531D01*
X22265492Y15740355D01*
X22367059D01*
X14320520Y7561580D02*
Y7713931D01*
X14396695D01*
X14422087Y7688539D01*
Y7637755D01*
X14396695Y7612363D01*
X14320520D01*
X14371303D02*
X14422087Y7561580D01*
X14472871Y7713931D02*
X14574438D01*
Y7688539D01*
X14472871Y7586972D01*
Y7561580D01*
X14701398D02*
Y7713931D01*
X14625221Y7637755D01*
X14726788D01*
X17449800Y6830060D02*
Y6982411D01*
X17525975D01*
X17551367Y6957019D01*
Y6906235D01*
X17525975Y6880843D01*
X17449800D01*
X17500583D02*
X17551367Y6830060D01*
X17703719Y6982411D02*
X17652934Y6957019D01*
X17602151Y6906235D01*
Y6855452D01*
X17627544Y6830060D01*
X17678326D01*
X17703719Y6855452D01*
Y6880843D01*
X17678326Y6906235D01*
X17602151D01*
X17754501Y6957019D02*
X17779893Y6982411D01*
X17830676D01*
X17856068Y6957019D01*
Y6931627D01*
X17830676Y6906235D01*
X17856068Y6880843D01*
Y6855452D01*
X17830676Y6830060D01*
X17779893D01*
X17754501Y6855452D01*
Y6880843D01*
X17779893Y6906235D01*
X17754501Y6931627D01*
Y6957019D01*
X17779893Y6906235D02*
X17830676D01*
X14447520Y9301480D02*
Y9453831D01*
X14523695D01*
X14549088Y9428439D01*
Y9377655D01*
X14523695Y9352263D01*
X14447520D01*
X14498303D02*
X14549088Y9301480D01*
X14701437Y9453831D02*
X14650655Y9428439D01*
X14599870Y9377655D01*
Y9326872D01*
X14625262Y9301480D01*
X14676047D01*
X14701437Y9326872D01*
Y9352263D01*
X14676047Y9377655D01*
X14599870D01*
X14752222Y9428439D02*
X14777612Y9453831D01*
X14828397D01*
X14853789Y9428439D01*
Y9403047D01*
X14828397Y9377655D01*
X14803004D01*
X14828397D01*
X14853789Y9352263D01*
Y9326872D01*
X14828397Y9301480D01*
X14777612D01*
X14752222Y9326872D01*
X17444720Y15623540D02*
Y15775891D01*
X17520895D01*
X17546288Y15750499D01*
Y15699715D01*
X17520895Y15674323D01*
X17444720D01*
X17495503D02*
X17546288Y15623540D01*
X17597070D02*
X17647855D01*
X17622462D01*
Y15775891D01*
X17597070Y15750499D01*
X14660847Y6758932D02*
Y6860499D01*
X14635455Y6885891D01*
X14584673D01*
X14559280Y6860499D01*
Y6758932D01*
X14584673Y6733540D01*
X14635455D01*
X14610063Y6784323D02*
X14660847Y6733540D01*
X14635455D02*
X14660847Y6758932D01*
X14813197Y6885891D02*
X14762415Y6860499D01*
X14711630Y6809715D01*
Y6758932D01*
X14737022Y6733540D01*
X14787807D01*
X14813197Y6758932D01*
Y6784323D01*
X14787807Y6809715D01*
X14711630D01*
X15156180Y9039811D02*
X15257747D01*
X15206963D01*
Y8887460D01*
X15308531D02*
Y9039811D01*
X15384706D01*
X15410098Y9014419D01*
Y8963635D01*
X15384706Y8938243D01*
X15308531D01*
X15460881Y9014419D02*
X15486273Y9039811D01*
X15537057D01*
X15562450Y9014419D01*
Y8989027D01*
X15537057Y8963635D01*
X15511665D01*
X15537057D01*
X15562450Y8938243D01*
Y8912852D01*
X15537057Y8887460D01*
X15486273D01*
X15460881Y8912852D01*
X15613232Y9014419D02*
X15638625Y9039811D01*
X15689407D01*
X15714799Y9014419D01*
Y8989027D01*
X15689407Y8963635D01*
X15714799Y8938243D01*
Y8912852D01*
X15689407Y8887460D01*
X15638625D01*
X15613232Y8912852D01*
Y8938243D01*
X15638625Y8963635D01*
X15613232Y8989027D01*
Y9014419D01*
X15638625Y8963635D02*
X15689407D01*
X14460220Y8740091D02*
X14561787D01*
X14511003D01*
Y8587740D01*
X14612572D02*
Y8740091D01*
X14688747D01*
X14714137Y8714699D01*
Y8663915D01*
X14688747Y8638523D01*
X14612572D01*
X14764922Y8714699D02*
X14790314Y8740091D01*
X14841096D01*
X14866489Y8714699D01*
Y8689307D01*
X14841096Y8663915D01*
X14815704D01*
X14841096D01*
X14866489Y8638523D01*
Y8613132D01*
X14841096Y8587740D01*
X14790314D01*
X14764922Y8613132D01*
X14917271Y8740091D02*
X15018839D01*
Y8714699D01*
X14917271Y8613132D01*
Y8587740D01*
X15006410Y9276055D02*
X15107977D01*
X15057195D01*
Y9123705D01*
X15158762D02*
Y9276055D01*
X15234937D01*
X15260329Y9250663D01*
Y9199880D01*
X15234937Y9174488D01*
X15158762D01*
X15311111Y9250663D02*
X15336504Y9276055D01*
X15387286D01*
X15412679Y9250663D01*
Y9225272D01*
X15387286Y9199880D01*
X15361896D01*
X15387286D01*
X15412679Y9174488D01*
Y9149097D01*
X15387286Y9123705D01*
X15336504D01*
X15311111Y9149097D01*
X15565030Y9276055D02*
X15514246Y9250663D01*
X15463463Y9199880D01*
Y9149097D01*
X15488853Y9123705D01*
X15539638D01*
X15565030Y9149097D01*
Y9174488D01*
X15539638Y9199880D01*
X15463463D01*
X18511520Y8006031D02*
X18613087D01*
X18562303D01*
Y7853680D01*
X18663870D02*
Y8006031D01*
X18740047D01*
X18765437Y7980639D01*
Y7929855D01*
X18740047Y7904463D01*
X18663870D01*
X18816222Y7980639D02*
X18841612Y8006031D01*
X18892397D01*
X18917789Y7980639D01*
Y7955247D01*
X18892397Y7929855D01*
X18867004D01*
X18892397D01*
X18917789Y7904463D01*
Y7879072D01*
X18892397Y7853680D01*
X18841612D01*
X18816222Y7879072D01*
X19070139Y8006031D02*
X18968571D01*
Y7929855D01*
X19019356Y7955247D01*
X19044748D01*
X19070139Y7929855D01*
Y7879072D01*
X19044748Y7853680D01*
X18993964D01*
X18968571Y7879072D01*
X17762219Y11498531D02*
X17863786D01*
X17813004D01*
Y11346180D01*
X17914571D02*
Y11498531D01*
X17990746D01*
X18016138Y11473139D01*
Y11422355D01*
X17990746Y11396963D01*
X17914571D01*
X18066920Y11473139D02*
X18092313Y11498531D01*
X18143097D01*
X18168489Y11473139D01*
Y11447747D01*
X18143097Y11422355D01*
X18117705D01*
X18143097D01*
X18168489Y11396963D01*
Y11371572D01*
X18143097Y11346180D01*
X18092313D01*
X18066920Y11371572D01*
X18219272Y11473139D02*
X18244664Y11498531D01*
X18295448D01*
X18320839Y11473139D01*
Y11447747D01*
X18295448Y11422355D01*
X18270056D01*
X18295448D01*
X18320839Y11396963D01*
Y11371572D01*
X18295448Y11346180D01*
X18244664D01*
X18219272Y11371572D01*
X15923260Y10878771D02*
X16024828D01*
X15974043D01*
Y10726420D01*
X16075610D02*
Y10878771D01*
X16151785D01*
X16177177Y10853379D01*
Y10802595D01*
X16151785Y10777203D01*
X16075610D01*
X16227962Y10853379D02*
X16253352Y10878771D01*
X16304137D01*
X16329529Y10853379D01*
Y10827987D01*
X16304137Y10802595D01*
X16278745D01*
X16304137D01*
X16329529Y10777203D01*
Y10751812D01*
X16304137Y10726420D01*
X16253352D01*
X16227962Y10751812D01*
X16481879Y10726420D02*
X16380312D01*
X16481879Y10827987D01*
Y10853379D01*
X16456488Y10878771D01*
X16405704D01*
X16380312Y10853379D01*
X15585440Y10083751D02*
X15687007D01*
X15636223D01*
Y9931400D01*
X15737791D02*
Y10083751D01*
X15813966D01*
X15839359Y10058359D01*
Y10007575D01*
X15813966Y9982183D01*
X15737791D01*
X15890141Y10058359D02*
X15915533Y10083751D01*
X15966318D01*
X15991708Y10058359D01*
Y10032967D01*
X15966318Y10007575D01*
X15940926D01*
X15966318D01*
X15991708Y9982183D01*
Y9956792D01*
X15966318Y9931400D01*
X15915533D01*
X15890141Y9956792D01*
X16042493Y9931400D02*
X16093275D01*
X16067883D01*
Y10083751D01*
X16042493Y10058359D01*
X13962379Y10030411D02*
X14063947D01*
X14013164D01*
Y9878060D01*
X14114731D02*
Y10030411D01*
X14190906D01*
X14216298Y10005019D01*
Y9954235D01*
X14190906Y9928843D01*
X14114731D01*
X14267081Y10005019D02*
X14292473Y10030411D01*
X14343257D01*
X14368649Y10005019D01*
Y9979627D01*
X14343257Y9954235D01*
X14317865D01*
X14343257D01*
X14368649Y9928843D01*
Y9903452D01*
X14343257Y9878060D01*
X14292473D01*
X14267081Y9903452D01*
X14419432Y10005019D02*
X14444824Y10030411D01*
X14495609D01*
X14520999Y10005019D01*
Y9903452D01*
X14495609Y9878060D01*
X14444824D01*
X14419432Y9903452D01*
Y10005019D01*
X13967461Y11427411D02*
X14069028D01*
X14018243D01*
Y11275060D01*
X14119810D02*
Y11427411D01*
X14195985D01*
X14221378Y11402019D01*
Y11351235D01*
X14195985Y11325843D01*
X14119810D01*
X14373729Y11275060D02*
X14272160D01*
X14373729Y11376627D01*
Y11402019D01*
X14348337Y11427411D01*
X14297552D01*
X14272160Y11402019D01*
X14424512Y11300452D02*
X14449904Y11275060D01*
X14500688D01*
X14526079Y11300452D01*
Y11402019D01*
X14500688Y11427411D01*
X14449904D01*
X14424512Y11402019D01*
Y11376627D01*
X14449904Y11351235D01*
X14526079D01*
X16205200Y11681411D02*
X16306767D01*
X16255983D01*
Y11529060D01*
X16357552D02*
Y11681411D01*
X16433727D01*
X16459119Y11656019D01*
Y11605235D01*
X16433727Y11579843D01*
X16357552D01*
X16611469Y11529060D02*
X16509901D01*
X16611469Y11630627D01*
Y11656019D01*
X16586076Y11681411D01*
X16535294D01*
X16509901Y11656019D01*
X16662251D02*
X16687643Y11681411D01*
X16738428D01*
X16763818Y11656019D01*
Y11630627D01*
X16738428Y11605235D01*
X16763818Y11579843D01*
Y11554452D01*
X16738428Y11529060D01*
X16687643D01*
X16662251Y11554452D01*
Y11579843D01*
X16687643Y11605235D01*
X16662251Y11630627D01*
Y11656019D01*
X16687643Y11605235D02*
X16738428D01*
X16327119Y10393631D02*
X16428687D01*
X16377904D01*
Y10241280D01*
X16479471D02*
Y10393631D01*
X16555646D01*
X16581038Y10368239D01*
Y10317455D01*
X16555646Y10292063D01*
X16479471D01*
X16733389Y10241280D02*
X16631821D01*
X16733389Y10342847D01*
Y10368239D01*
X16707997Y10393631D01*
X16657213D01*
X16631821Y10368239D01*
X16784172Y10393631D02*
X16885739D01*
Y10368239D01*
X16784172Y10266672D01*
Y10241280D01*
X14551842Y12318975D02*
X14653407D01*
X14602625D01*
Y12166625D01*
X14704192D02*
Y12318975D01*
X14780367D01*
X14805759Y12293583D01*
Y12242800D01*
X14780367Y12217408D01*
X14704192D01*
X14958110Y12166625D02*
X14856541D01*
X14958110Y12268192D01*
Y12293583D01*
X14932718Y12318975D01*
X14881934D01*
X14856541Y12293583D01*
X15008893D02*
X15034285Y12318975D01*
X15085068D01*
X15110460Y12293583D01*
Y12268192D01*
X15085068Y12242800D01*
X15059677D01*
X15085068D01*
X15110460Y12217408D01*
Y12192017D01*
X15085068Y12166625D01*
X15034285D01*
X15008893Y12192017D01*
X14437360Y12031931D02*
X14538927D01*
X14488142D01*
Y11879580D01*
X14589711D02*
Y12031931D01*
X14665886D01*
X14691278Y12006539D01*
Y11955755D01*
X14665886Y11930363D01*
X14589711D01*
X14843629Y11879580D02*
X14742061D01*
X14843629Y11981147D01*
Y12006539D01*
X14818237Y12031931D01*
X14767453D01*
X14742061Y12006539D01*
X14995979Y11879580D02*
X14894412D01*
X14995979Y11981147D01*
Y12006539D01*
X14970589Y12031931D01*
X14919804D01*
X14894412Y12006539D01*
X15349220Y12661851D02*
X15450787D01*
X15400003D01*
Y12509500D01*
X15501572D02*
Y12661851D01*
X15577747D01*
X15603139Y12636459D01*
Y12585675D01*
X15577747Y12560283D01*
X15501572D01*
X15755489Y12509500D02*
X15653922D01*
X15755489Y12611067D01*
Y12636459D01*
X15730096Y12661851D01*
X15679314D01*
X15653922Y12636459D01*
X15806271Y12509500D02*
X15857056D01*
X15831664D01*
Y12661851D01*
X15806271Y12636459D01*
X18506441Y11498531D02*
X18608006D01*
X18557224D01*
Y11346180D01*
X18658791D02*
Y11498531D01*
X18734966D01*
X18760358Y11473139D01*
Y11422355D01*
X18734966Y11396963D01*
X18658791D01*
X18912709Y11346180D02*
X18811140D01*
X18912709Y11447747D01*
Y11473139D01*
X18887317Y11498531D01*
X18836533D01*
X18811140Y11473139D01*
X18963492D02*
X18988884Y11498531D01*
X19039668D01*
X19065059Y11473139D01*
Y11371572D01*
X19039668Y11346180D01*
X18988884D01*
X18963492Y11371572D01*
Y11473139D01*
X15887700Y14165530D02*
X15989267D01*
X15938483D01*
Y14013181D01*
X16040051D02*
Y14165530D01*
X16116226D01*
X16141618Y14140138D01*
Y14089355D01*
X16116226Y14063963D01*
X16040051D01*
X16192401Y14013181D02*
X16243185D01*
X16217793D01*
Y14165530D01*
X16192401Y14140138D01*
X16319360Y14165530D02*
X16420927D01*
Y14140138D01*
X16319360Y14038573D01*
Y14013181D01*
X15539720Y13340031D02*
X15641287D01*
X15590503D01*
Y13187680D01*
X15692072D02*
Y13340031D01*
X15768246D01*
X15793639Y13314639D01*
Y13263855D01*
X15768246Y13238463D01*
X15692072D01*
X15844421Y13187680D02*
X15895206D01*
X15869814D01*
Y13340031D01*
X15844421Y13314639D01*
X16072948Y13340031D02*
X16022163Y13314639D01*
X15971381Y13263855D01*
Y13213072D01*
X15996771Y13187680D01*
X16047556D01*
X16072948Y13213072D01*
Y13238463D01*
X16047556Y13263855D01*
X15971381D01*
X13964920Y14810690D02*
X14066487D01*
X14015703D01*
Y14658340D01*
X14117271D02*
Y14810690D01*
X14193446D01*
X14218839Y14785300D01*
Y14734515D01*
X14193446Y14709123D01*
X14117271D01*
X14269621Y14658340D02*
X14320406D01*
X14295013D01*
Y14810690D01*
X14269621Y14785300D01*
X14498148Y14810690D02*
X14396581D01*
Y14734515D01*
X14447363Y14759908D01*
X14472755D01*
X14498148Y14734515D01*
Y14683733D01*
X14472755Y14658340D01*
X14421973D01*
X14396581Y14683733D01*
X16273779Y14856412D02*
X16375346D01*
X16324564D01*
Y14704060D01*
X16426131D02*
Y14856412D01*
X16502306D01*
X16527698Y14831020D01*
Y14780235D01*
X16502306Y14754843D01*
X16426131D01*
X16578481Y14704060D02*
X16629265D01*
X16603873D01*
Y14856412D01*
X16578481Y14831020D01*
X16781616Y14704060D02*
Y14856412D01*
X16705440Y14780235D01*
X16807008D01*
X16222980Y13632130D02*
X16324547D01*
X16273763D01*
Y13479781D01*
X16375331D02*
Y13632130D01*
X16451506D01*
X16476898Y13606738D01*
Y13555956D01*
X16451506Y13530563D01*
X16375331D01*
X16527681Y13479781D02*
X16578465D01*
X16553073D01*
Y13632130D01*
X16527681Y13606738D01*
X16654640D02*
X16680032Y13632130D01*
X16730817D01*
X16756207Y13606738D01*
Y13581348D01*
X16730817Y13555956D01*
X16705424D01*
X16730817D01*
X16756207Y13530563D01*
Y13505173D01*
X16730817Y13479781D01*
X16680032D01*
X16654640Y13505173D01*
X15128239Y15808911D02*
X15229807D01*
X15179024D01*
Y15656560D01*
X15280591D02*
Y15808911D01*
X15356766D01*
X15382158Y15783519D01*
Y15732735D01*
X15356766Y15707343D01*
X15280591D01*
X15432941Y15656560D02*
X15483725D01*
X15458333D01*
Y15808911D01*
X15432941Y15783519D01*
X15559900D02*
X15585292Y15808911D01*
X15636076D01*
X15661469Y15783519D01*
Y15681952D01*
X15636076Y15656560D01*
X15585292D01*
X15559900Y15681952D01*
Y15783519D01*
X15585440Y15963850D02*
X15687007D01*
X15636223D01*
Y15811501D01*
X15737791D02*
Y15963850D01*
X15813966D01*
X15839359Y15938458D01*
Y15887675D01*
X15813966Y15862283D01*
X15737791D01*
X15890141Y15836893D02*
X15915533Y15811501D01*
X15966318D01*
X15991708Y15836893D01*
Y15938458D01*
X15966318Y15963850D01*
X15915533D01*
X15890141Y15938458D01*
Y15913068D01*
X15915533Y15887675D01*
X15991708D01*
X18519141Y14673531D02*
X18620708D01*
X18569923D01*
Y14521181D01*
X18671490D02*
Y14673531D01*
X18747665D01*
X18773058Y14648138D01*
Y14597356D01*
X18747665Y14571964D01*
X18671490D01*
X18823840Y14673531D02*
X18925409D01*
Y14648138D01*
X18823840Y14546571D01*
Y14521181D01*
X17752060Y14688771D02*
X17853627D01*
X17802843D01*
Y14536420D01*
X17904411D02*
Y14688771D01*
X17980586D01*
X18005978Y14663379D01*
Y14612595D01*
X17980586Y14587202D01*
X17904411D01*
X18158328Y14688771D02*
X18107545Y14663379D01*
X18056761Y14612595D01*
Y14561812D01*
X18082153Y14536420D01*
X18132938D01*
X18158328Y14561812D01*
Y14587202D01*
X18132938Y14612595D01*
X18056761D01*
X14257021Y13304471D02*
X14358588D01*
X14307803D01*
Y13152119D01*
X14409370D02*
Y13304471D01*
X14485545D01*
X14510938Y13279079D01*
Y13228294D01*
X14485545Y13202904D01*
X14409370D01*
X14561720Y13279079D02*
X14587112Y13304471D01*
X14637897D01*
X14663289Y13279079D01*
Y13253687D01*
X14637897Y13228294D01*
X14612505D01*
X14637897D01*
X14663289Y13202904D01*
Y13177512D01*
X14637897Y13152119D01*
X14587112D01*
X14561720Y13177512D01*
X6768156Y13680440D02*
X6920507D01*
Y13604265D01*
X6895115Y13578873D01*
X6844331D01*
X6818939Y13604265D01*
Y13680440D01*
Y13629657D02*
X6768156Y13578873D01*
X6793548Y13528088D02*
X6768156Y13502698D01*
Y13451913D01*
X6793548Y13426521D01*
X6895115D01*
X6920507Y13451913D01*
Y13502698D01*
X6895115Y13528088D01*
X6869723D01*
X6844331Y13502698D01*
Y13426521D01*
X6768156Y13375739D02*
Y13324956D01*
Y13350346D01*
X6920507D01*
X6895115Y13375739D01*
X7283126Y12758420D02*
X7130775D01*
Y12834595D01*
X7156167Y12859987D01*
X7206950D01*
X7232342Y12834595D01*
Y12758420D01*
Y12809203D02*
X7283126Y12859987D01*
X7257734Y12910771D02*
X7283126Y12936163D01*
Y12986946D01*
X7257734Y13012338D01*
X7156167D01*
X7130775Y12986946D01*
Y12936163D01*
X7156167Y12910771D01*
X7181558D01*
X7206950Y12936163D01*
Y13012338D01*
X7156167Y13063121D02*
X7130775Y13088513D01*
Y13139297D01*
X7156167Y13164690D01*
X7257734D01*
X7283126Y13139297D01*
Y13088513D01*
X7257734Y13063121D01*
X7156167D01*
X7283126Y12479020D02*
X7130775D01*
Y12555195D01*
X7156167Y12580587D01*
X7206950D01*
X7232342Y12555195D01*
Y12479020D01*
Y12529803D02*
X7283126Y12580587D01*
X7156167Y12631371D02*
X7130775Y12656763D01*
Y12707546D01*
X7156167Y12732938D01*
X7181558D01*
X7206950Y12707546D01*
X7232342Y12732938D01*
X7257734D01*
X7283126Y12707546D01*
Y12656763D01*
X7257734Y12631371D01*
X7232342D01*
X7206950Y12656763D01*
X7181558Y12631371D01*
X7156167D01*
X7206950Y12656763D02*
Y12707546D01*
X7257734Y12783721D02*
X7283126Y12809113D01*
Y12859897D01*
X7257734Y12885289D01*
X7156167D01*
X7130775Y12859897D01*
Y12809113D01*
X7156167Y12783721D01*
X7181558D01*
X7206950Y12809113D01*
Y12885289D01*
X19202400Y13263879D02*
Y13416231D01*
X19278575D01*
X19303967Y13390839D01*
Y13340054D01*
X19278575Y13314664D01*
X19202400D01*
X19253183D02*
X19303967Y13263879D01*
X19354752Y13390839D02*
X19380144Y13416231D01*
X19430927D01*
X19456319Y13390839D01*
Y13365446D01*
X19430927Y13340054D01*
X19456319Y13314664D01*
Y13289272D01*
X19430927Y13263879D01*
X19380144D01*
X19354752Y13289272D01*
Y13314664D01*
X19380144Y13340054D01*
X19354752Y13365446D01*
Y13390839D01*
X19380144Y13340054D02*
X19430927D01*
X19608669Y13416231D02*
X19507101D01*
Y13340054D01*
X19557886Y13365446D01*
X19583276D01*
X19608669Y13340054D01*
Y13289272D01*
X19583276Y13263879D01*
X19532494D01*
X19507101Y13289272D01*
X19212560Y13672820D02*
Y13825171D01*
X19288734D01*
X19314127Y13799779D01*
Y13748994D01*
X19288734Y13723602D01*
X19212560D01*
X19263342D02*
X19314127Y13672820D01*
X19364911Y13799779D02*
X19390303Y13825171D01*
X19441086D01*
X19466478Y13799779D01*
Y13774387D01*
X19441086Y13748994D01*
X19466478Y13723602D01*
Y13698212D01*
X19441086Y13672820D01*
X19390303D01*
X19364911Y13698212D01*
Y13723602D01*
X19390303Y13748994D01*
X19364911Y13774387D01*
Y13799779D01*
X19390303Y13748994D02*
X19441086D01*
X19593437Y13672820D02*
Y13825171D01*
X19517261Y13748994D01*
X19618829D01*
X19207480Y14373860D02*
Y14526212D01*
X19283655D01*
X19309047Y14500819D01*
Y14450035D01*
X19283655Y14424643D01*
X19207480D01*
X19258263D02*
X19309047Y14373860D01*
X19359831Y14500819D02*
X19385223Y14526212D01*
X19436006D01*
X19461398Y14500819D01*
Y14475427D01*
X19436006Y14450035D01*
X19461398Y14424643D01*
Y14399252D01*
X19436006Y14373860D01*
X19385223D01*
X19359831Y14399252D01*
Y14424643D01*
X19385223Y14450035D01*
X19359831Y14475427D01*
Y14500819D01*
X19385223Y14450035D02*
X19436006D01*
X19512181Y14500819D02*
X19537573Y14526212D01*
X19588358D01*
X19613750Y14500819D01*
Y14475427D01*
X19588358Y14450035D01*
X19562965D01*
X19588358D01*
X19613750Y14424643D01*
Y14399252D01*
X19588358Y14373860D01*
X19537573D01*
X19512181Y14399252D01*
X19712939Y13677901D02*
Y13830251D01*
X19789114D01*
X19814507Y13804858D01*
Y13754076D01*
X19789114Y13728683D01*
X19712939D01*
X19763724D02*
X19814507Y13677901D01*
X19865291Y13804858D02*
X19890683Y13830251D01*
X19941466D01*
X19966858Y13804858D01*
Y13779466D01*
X19941466Y13754076D01*
X19966858Y13728683D01*
Y13703291D01*
X19941466Y13677901D01*
X19890683D01*
X19865291Y13703291D01*
Y13728683D01*
X19890683Y13754076D01*
X19865291Y13779466D01*
Y13804858D01*
X19890683Y13754076D02*
X19941466D01*
X20119209Y13677901D02*
X20017641D01*
X20119209Y13779466D01*
Y13804858D01*
X20093817Y13830251D01*
X20043033D01*
X20017641Y13804858D01*
X19672301Y12974319D02*
Y13126671D01*
X19748476D01*
X19773866Y13101279D01*
Y13050494D01*
X19748476Y13025104D01*
X19672301D01*
X19723083D02*
X19773866Y12974319D01*
X19824651Y13101279D02*
X19850043Y13126671D01*
X19900826D01*
X19926218Y13101279D01*
Y13075887D01*
X19900826Y13050494D01*
X19926218Y13025104D01*
Y12999712D01*
X19900826Y12974319D01*
X19850043D01*
X19824651Y12999712D01*
Y13025104D01*
X19850043Y13050494D01*
X19824651Y13075887D01*
Y13101279D01*
X19850043Y13050494D02*
X19900826D01*
X19977000Y12974319D02*
X20027785D01*
X20002393D01*
Y13126671D01*
X19977000Y13101279D01*
X19697701Y14371320D02*
Y14523671D01*
X19773875D01*
X19799268Y14498279D01*
Y14447495D01*
X19773875Y14422102D01*
X19697701D01*
X19748483D02*
X19799268Y14371320D01*
X19850050Y14498279D02*
X19875443Y14523671D01*
X19926225D01*
X19951617Y14498279D01*
Y14472887D01*
X19926225Y14447495D01*
X19951617Y14422102D01*
Y14396712D01*
X19926225Y14371320D01*
X19875443D01*
X19850050Y14396712D01*
Y14422102D01*
X19875443Y14447495D01*
X19850050Y14472887D01*
Y14498279D01*
X19875443Y14447495D02*
X19926225D01*
X20002402Y14498279D02*
X20027792Y14523671D01*
X20078577D01*
X20103969Y14498279D01*
Y14396712D01*
X20078577Y14371320D01*
X20027792D01*
X20002402Y14396712D01*
Y14498279D01*
X14747240Y8801100D02*
Y8953451D01*
X14823415D01*
X14848807Y8928059D01*
Y8877275D01*
X14823415Y8851883D01*
X14747240D01*
X14798022D02*
X14848807Y8801100D01*
X15001158Y8953451D02*
X14950374Y8928059D01*
X14899591Y8877275D01*
Y8826492D01*
X14924983Y8801100D01*
X14975766D01*
X15001158Y8826492D01*
Y8851883D01*
X14975766Y8877275D01*
X14899591D01*
X15153510Y8801100D02*
X15051941D01*
X15153510Y8902667D01*
Y8928059D01*
X15128117Y8953451D01*
X15077333D01*
X15051941Y8928059D01*
X14023340Y8348980D02*
Y8501331D01*
X14099515D01*
X14124907Y8475939D01*
Y8425155D01*
X14099515Y8399763D01*
X14023340D01*
X14074123D02*
X14124907Y8348980D01*
X14277258Y8501331D02*
X14175691D01*
Y8425155D01*
X14226474Y8450547D01*
X14251866D01*
X14277258Y8425155D01*
Y8374372D01*
X14251866Y8348980D01*
X14201083D01*
X14175691Y8374372D01*
X14328041Y8475939D02*
X14353433Y8501331D01*
X14404218D01*
X14429610Y8475939D01*
Y8450547D01*
X14404218Y8425155D01*
X14429610Y8399763D01*
Y8374372D01*
X14404218Y8348980D01*
X14353433D01*
X14328041Y8374372D01*
Y8399763D01*
X14353433Y8425155D01*
X14328041Y8450547D01*
Y8475939D01*
X14353433Y8425155D02*
X14404218D01*
X14030960Y9301480D02*
Y9453831D01*
X14107135D01*
X14132527Y9428439D01*
Y9377655D01*
X14107135Y9352263D01*
X14030960D01*
X14081743D02*
X14132527Y9301480D01*
X14284879Y9453831D02*
X14183311D01*
Y9377655D01*
X14234094Y9403047D01*
X14259486D01*
X14284879Y9377655D01*
Y9326872D01*
X14259486Y9301480D01*
X14208704D01*
X14183311Y9326872D01*
X14335661Y9453831D02*
X14437228D01*
Y9428439D01*
X14335661Y9326872D01*
Y9301480D01*
X17452341Y8948420D02*
Y9100771D01*
X17528516D01*
X17553906Y9075379D01*
Y9024595D01*
X17528516Y8999203D01*
X17452341D01*
X17503123D02*
X17553906Y8948420D01*
X17706258Y9100771D02*
X17604691D01*
Y9024595D01*
X17655473Y9049987D01*
X17680865D01*
X17706258Y9024595D01*
Y8973812D01*
X17680865Y8948420D01*
X17630083D01*
X17604691Y8973812D01*
X17858609Y9100771D02*
X17757040D01*
Y9024595D01*
X17807825Y9049987D01*
X17833217D01*
X17858609Y9024595D01*
Y8973812D01*
X17833217Y8948420D01*
X17782433D01*
X17757040Y8973812D01*
X15407640Y8714740D02*
Y8867091D01*
X15483815D01*
X15509207Y8841699D01*
Y8790915D01*
X15483815Y8765523D01*
X15407640D01*
X15458423D02*
X15509207Y8714740D01*
X15661559Y8867091D02*
X15559991D01*
Y8790915D01*
X15610774Y8816307D01*
X15636166D01*
X15661559Y8790915D01*
Y8740132D01*
X15636166Y8714740D01*
X15585384D01*
X15559991Y8740132D01*
X15788518Y8714740D02*
Y8867091D01*
X15712341Y8790915D01*
X15813908D01*
X14221460Y10942320D02*
Y11094671D01*
X14297635D01*
X14323027Y11069279D01*
Y11018495D01*
X14297635Y10993103D01*
X14221460D01*
X14272243D02*
X14323027Y10942320D01*
X14449986D02*
Y11094671D01*
X14373811Y11018495D01*
X14475378D01*
X14526161Y11069279D02*
X14551553Y11094671D01*
X14602338D01*
X14627728Y11069279D01*
Y11043887D01*
X14602338Y11018495D01*
X14627728Y10993103D01*
Y10967712D01*
X14602338Y10942320D01*
X14551553D01*
X14526161Y10967712D01*
Y10993103D01*
X14551553Y11018495D01*
X14526161Y11043887D01*
Y11069279D01*
X14551553Y11018495D02*
X14602338D01*
X17454880Y10253980D02*
Y10406331D01*
X17531055D01*
X17556447Y10380939D01*
Y10330155D01*
X17531055Y10304763D01*
X17454880D01*
X17505663D02*
X17556447Y10253980D01*
X17683406D02*
Y10406331D01*
X17607231Y10330155D01*
X17708798D01*
X17861150Y10253980D02*
X17759581D01*
X17861150Y10355547D01*
Y10380939D01*
X17835757Y10406331D01*
X17784973D01*
X17759581Y10380939D01*
X14419580Y12628880D02*
Y12781231D01*
X14495755D01*
X14521147Y12755839D01*
Y12705055D01*
X14495755Y12679663D01*
X14419580D01*
X14470363D02*
X14521147Y12628880D01*
X14571931Y12755839D02*
X14597324Y12781231D01*
X14648106D01*
X14673499Y12755839D01*
Y12730447D01*
X14648106Y12705055D01*
X14622714D01*
X14648106D01*
X14673499Y12679663D01*
Y12654272D01*
X14648106Y12628880D01*
X14597324D01*
X14571931Y12654272D01*
X14724281Y12781231D02*
X14825848D01*
Y12755839D01*
X14724281Y12654272D01*
Y12628880D01*
X14683740Y12090400D02*
Y12242751D01*
X14759915D01*
X14785307Y12217359D01*
Y12166575D01*
X14759915Y12141183D01*
X14683740D01*
X14734523D02*
X14785307Y12090400D01*
X14836092Y12217359D02*
X14861482Y12242751D01*
X14912267D01*
X14937659Y12217359D01*
Y12191967D01*
X14912267Y12166575D01*
X14886874D01*
X14912267D01*
X14937659Y12141183D01*
Y12115792D01*
X14912267Y12090400D01*
X14861482D01*
X14836092Y12115792D01*
X15090009Y12242751D02*
X15039224Y12217359D01*
X14988441Y12166575D01*
Y12115792D01*
X15013834Y12090400D01*
X15064616D01*
X15090009Y12115792D01*
Y12141183D01*
X15064616Y12166575D01*
X14988441D01*
X13954761Y11772900D02*
Y11925251D01*
X14030936D01*
X14056326Y11899859D01*
Y11849075D01*
X14030936Y11823683D01*
X13954761D01*
X14005544D02*
X14056326Y11772900D01*
X14107111Y11899859D02*
X14132503Y11925251D01*
X14183286D01*
X14208678Y11899859D01*
Y11874467D01*
X14183286Y11849075D01*
X14157893D01*
X14183286D01*
X14208678Y11823683D01*
Y11798292D01*
X14183286Y11772900D01*
X14132503D01*
X14107111Y11798292D01*
X14259460Y11772900D02*
X14310245D01*
X14284853D01*
Y11925251D01*
X14259460Y11899859D01*
X13944600Y12631420D02*
Y12783771D01*
X14020775D01*
X14046167Y12758379D01*
Y12707595D01*
X14020775Y12682203D01*
X13944600D01*
X13995383D02*
X14046167Y12631420D01*
X14096951Y12758379D02*
X14122343Y12783771D01*
X14173126D01*
X14198518Y12758379D01*
Y12732987D01*
X14173126Y12707595D01*
X14147734D01*
X14173126D01*
X14198518Y12682203D01*
Y12656812D01*
X14173126Y12631420D01*
X14122343D01*
X14096951Y12656812D01*
X14249301Y12758379D02*
X14274693Y12783771D01*
X14325478D01*
X14350870Y12758379D01*
Y12656812D01*
X14325478Y12631420D01*
X14274693D01*
X14249301Y12656812D01*
Y12758379D01*
X17439639Y12453620D02*
Y12605971D01*
X17515816D01*
X17541206Y12580579D01*
Y12529795D01*
X17515816Y12504403D01*
X17439639D01*
X17490424D02*
X17541206Y12453620D01*
X17693558D02*
X17591991D01*
X17693558Y12555187D01*
Y12580579D01*
X17668166Y12605971D01*
X17617383D01*
X17591991Y12580579D01*
X17744341D02*
X17769733Y12605971D01*
X17820517D01*
X17845909Y12580579D01*
Y12555187D01*
X17820517Y12529795D01*
X17845909Y12504403D01*
Y12479012D01*
X17820517Y12453620D01*
X17769733D01*
X17744341Y12479012D01*
Y12504403D01*
X17769733Y12529795D01*
X17744341Y12555187D01*
Y12580579D01*
X17769733Y12529795D02*
X17820517D01*
X15331441Y11996420D02*
Y12148771D01*
X15407616D01*
X15433006Y12123379D01*
Y12072595D01*
X15407616Y12047203D01*
X15331441D01*
X15382224D02*
X15433006Y11996420D01*
X15585358D02*
X15483791D01*
X15585358Y12097987D01*
Y12123379D01*
X15559966Y12148771D01*
X15509183D01*
X15483791Y12123379D01*
X15636140Y12148771D02*
X15737709D01*
Y12123379D01*
X15636140Y12021812D01*
Y11996420D01*
X14244321Y14371320D02*
Y14523671D01*
X14320496D01*
X14345888Y14498279D01*
Y14447495D01*
X14320496Y14422102D01*
X14244321D01*
X14295103D02*
X14345888Y14371320D01*
X14498238D02*
X14396671D01*
X14498238Y14472887D01*
Y14498279D01*
X14472845Y14523671D01*
X14422063D01*
X14396671Y14498279D01*
X14549020Y14371320D02*
X14599805D01*
X14574413D01*
Y14523671D01*
X14549020Y14498279D01*
X15359380Y15506700D02*
Y15659052D01*
X15435555D01*
X15460947Y15633659D01*
Y15582875D01*
X15435555Y15557483D01*
X15359380D01*
X15410162D02*
X15460947Y15506700D01*
X15613298Y15659052D02*
X15511731D01*
Y15582875D01*
X15562514Y15608267D01*
X15587906D01*
X15613298Y15582875D01*
Y15532092D01*
X15587906Y15506700D01*
X15537123D01*
X15511731Y15532092D01*
X14663387Y10126972D02*
Y10228539D01*
X14637994Y10253931D01*
X14587212D01*
X14561819Y10228539D01*
Y10126972D01*
X14587212Y10101580D01*
X14637994D01*
X14612604Y10152363D02*
X14663387Y10101580D01*
X14637994D02*
X14663387Y10126972D01*
X14790346Y10101580D02*
Y10253931D01*
X14714171Y10177755D01*
X14815738D01*
X14668468Y13489932D02*
Y13591499D01*
X14643076Y13616891D01*
X14592291D01*
X14566901Y13591499D01*
Y13489932D01*
X14592291Y13464540D01*
X14643076D01*
X14617683Y13515323D02*
X14668468Y13464540D01*
X14643076D02*
X14668468Y13489932D01*
X14820818Y13464540D02*
X14719250D01*
X14820818Y13566107D01*
Y13591499D01*
X14795425Y13616891D01*
X14744643D01*
X14719250Y13591499D01*
X15333948Y13596571D02*
X15283163D01*
X15308556D01*
Y13469612D01*
X15283163Y13444220D01*
X15257771D01*
X15232381Y13469612D01*
X15486298Y13596571D02*
X15435513Y13571179D01*
X15384731Y13520395D01*
Y13469612D01*
X15410123Y13444220D01*
X15460905D01*
X15486298Y13469612D01*
Y13495003D01*
X15460905Y13520395D01*
X15384731D01*
X15333948Y10286951D02*
X15283163D01*
X15308556D01*
Y10159992D01*
X15283163Y10134600D01*
X15257771D01*
X15232381Y10159992D01*
X15384731Y10261559D02*
X15410123Y10286951D01*
X15460905D01*
X15486298Y10261559D01*
Y10236167D01*
X15460905Y10210775D01*
X15435513D01*
X15460905D01*
X15486298Y10185383D01*
Y10159992D01*
X15460905Y10134600D01*
X15410123D01*
X15384731Y10159992D01*
X19301427Y13103819D02*
X19276035Y13129211D01*
X19225252D01*
X19199860Y13103819D01*
Y13002252D01*
X19225252Y12976860D01*
X19276035D01*
X19301427Y13002252D01*
X19453778Y12976860D02*
X19352211D01*
X19453778Y13078427D01*
Y13103819D01*
X19428386Y13129211D01*
X19377603D01*
X19352211Y13103819D01*
X19504561Y13129211D02*
X19606129D01*
Y13103819D01*
X19504561Y13002252D01*
Y12976860D01*
X19319206Y14104579D02*
X19293816Y14129971D01*
X19243031D01*
X19217641Y14104579D01*
Y14003012D01*
X19243031Y13977620D01*
X19293816D01*
X19319206Y14003012D01*
X19471558Y13977620D02*
X19369991D01*
X19471558Y14079187D01*
Y14104579D01*
X19446165Y14129971D01*
X19395383D01*
X19369991Y14104579D01*
X19623909Y14129971D02*
X19573125Y14104579D01*
X19522340Y14053795D01*
Y14003012D01*
X19547733Y13977620D01*
X19598517D01*
X19623909Y14003012D01*
Y14028403D01*
X19598517Y14053795D01*
X19522340D01*
X19314127Y14795459D02*
X19288734Y14820851D01*
X19237952D01*
X19212560Y14795459D01*
Y14693892D01*
X19237952Y14668500D01*
X19288734D01*
X19314127Y14693892D01*
X19466478Y14668500D02*
X19364911D01*
X19466478Y14770067D01*
Y14795459D01*
X19441086Y14820851D01*
X19390303D01*
X19364911Y14795459D01*
X19618829Y14820851D02*
X19517261D01*
Y14744675D01*
X19568045Y14770067D01*
X19593437D01*
X19618829Y14744675D01*
Y14693892D01*
X19593437Y14668500D01*
X19542653D01*
X19517261Y14693892D01*
X17564116Y17211073D02*
X17538724Y17185681D01*
Y17134897D01*
X17564116Y17109506D01*
X17665683D01*
X17691075Y17134897D01*
Y17185681D01*
X17665683Y17211073D01*
X17564116Y17261856D02*
X17538724Y17287248D01*
Y17338033D01*
X17564116Y17363423D01*
X17589508D01*
X17614900Y17338033D01*
Y17312640D01*
Y17338033D01*
X17640292Y17363423D01*
X17665683D01*
X17691075Y17338033D01*
Y17287248D01*
X17665683Y17261856D01*
X17538724Y17515775D02*
X17564116Y17464990D01*
X17614900Y17414207D01*
X17665683D01*
X17691075Y17439600D01*
Y17490382D01*
X17665683Y17515775D01*
X17640292D01*
X17614900Y17490382D01*
Y17414207D01*
X16896056Y17119682D02*
X16743706D01*
Y17195857D01*
X16769096Y17221249D01*
X16819881D01*
X16845271Y17195857D01*
Y17119682D01*
Y17170467D02*
X16896056Y17221249D01*
Y17272034D02*
Y17322816D01*
Y17297424D01*
X16743706D01*
X16769096Y17272034D01*
X16896056Y17398991D02*
Y17449776D01*
Y17424384D01*
X16743706D01*
X16769096Y17398991D01*
Y17525951D02*
X16743706Y17551343D01*
Y17602126D01*
X16769096Y17627518D01*
X16794489D01*
X16819881Y17602126D01*
X16845271Y17627518D01*
X16870663D01*
X16896056Y17602126D01*
Y17551343D01*
X16870663Y17525951D01*
X16845271D01*
X16819881Y17551343D01*
X16794489Y17525951D01*
X16769096D01*
X16819881Y17551343D02*
Y17602126D01*
X23108894Y17099362D02*
X22956544D01*
Y17175539D01*
X22981937Y17200929D01*
X23032719D01*
X23058112Y17175539D01*
Y17099362D01*
Y17150146D02*
X23108894Y17200929D01*
Y17251714D02*
Y17302496D01*
Y17277106D01*
X22956544D01*
X22981937Y17251714D01*
X23108894Y17378671D02*
Y17429456D01*
Y17404063D01*
X22956544D01*
X22981937Y17378671D01*
X22956544Y17505630D02*
Y17607198D01*
X22981937D01*
X23083504Y17505630D01*
X23108894D01*
X20002475Y17089201D02*
X19850125D01*
Y17165378D01*
X19875517Y17190770D01*
X19926300D01*
X19951692Y17165378D01*
Y17089201D01*
Y17139986D02*
X20002475Y17190770D01*
Y17241553D02*
Y17292337D01*
Y17266945D01*
X19850125D01*
X19875517Y17241553D01*
X20002475Y17368512D02*
Y17419295D01*
Y17393904D01*
X19850125D01*
X19875517Y17368512D01*
X19850125Y17597038D02*
X19875517Y17546254D01*
X19926300Y17495471D01*
X19977083D01*
X20002475Y17520863D01*
Y17571646D01*
X19977083Y17597038D01*
X19951692D01*
X19926300Y17571646D01*
Y17495471D01*
X16563315Y17125845D02*
X16410965D01*
Y17202020D01*
X16436357Y17227412D01*
X16487140D01*
X16512532Y17202020D01*
Y17125845D01*
Y17176630D02*
X16563315Y17227412D01*
Y17278197D02*
Y17328979D01*
Y17303587D01*
X16410965D01*
X16436357Y17278197D01*
X16563315Y17405154D02*
Y17455939D01*
Y17430547D01*
X16410965D01*
X16436357Y17405154D01*
X16410965Y17633681D02*
Y17532114D01*
X16487140D01*
X16461748Y17582896D01*
Y17608289D01*
X16487140Y17633681D01*
X16537923D01*
X16563315Y17608289D01*
Y17557506D01*
X16537923Y17532114D01*
X22748215Y17101901D02*
X22595865D01*
Y17178078D01*
X22621257Y17203470D01*
X22672040D01*
X22697432Y17178078D01*
Y17101901D01*
Y17152686D02*
X22748215Y17203470D01*
Y17254253D02*
Y17305037D01*
Y17279645D01*
X22595865D01*
X22621257Y17254253D01*
X22748215Y17381212D02*
Y17431995D01*
Y17406604D01*
X22595865D01*
X22621257Y17381212D01*
X22748215Y17584346D02*
X22595865D01*
X22672040Y17508171D01*
Y17609738D01*
X19692595Y17081583D02*
X19540245D01*
Y17157758D01*
X19565637Y17183150D01*
X19616420D01*
X19641812Y17157758D01*
Y17081583D01*
Y17132365D02*
X19692595Y17183150D01*
Y17233932D02*
Y17284717D01*
Y17259325D01*
X19540245D01*
X19565637Y17233932D01*
X19692595Y17360892D02*
Y17411674D01*
Y17386284D01*
X19540245D01*
X19565637Y17360892D01*
Y17487851D02*
X19540245Y17513243D01*
Y17564026D01*
X19565637Y17589418D01*
X19591028D01*
X19616420Y17564026D01*
Y17538634D01*
Y17564026D01*
X19641812Y17589418D01*
X19667203D01*
X19692595Y17564026D01*
Y17513243D01*
X19667203Y17487851D01*
X16243275Y17110605D02*
X16090926D01*
Y17186781D01*
X16116318Y17212173D01*
X16167101D01*
X16192493Y17186781D01*
Y17110605D01*
Y17161389D02*
X16243275Y17212173D01*
Y17262956D02*
Y17313741D01*
Y17288348D01*
X16090926D01*
X16116318Y17262956D01*
X16243275Y17389915D02*
Y17440698D01*
Y17415308D01*
X16090926D01*
X16116318Y17389915D01*
X16243275Y17618440D02*
Y17516875D01*
X16141708Y17618440D01*
X16116318D01*
X16090926Y17593050D01*
Y17542265D01*
X16116318Y17516875D01*
X22379915Y17137454D02*
X22227565D01*
Y17213631D01*
X22252957Y17239021D01*
X22303740D01*
X22329132Y17213631D01*
Y17137454D01*
Y17188239D02*
X22379915Y17239021D01*
Y17289806D02*
Y17340588D01*
Y17315198D01*
X22227565D01*
X22252957Y17289806D01*
X22379915Y17416763D02*
Y17467548D01*
Y17442155D01*
X22227565D01*
X22252957Y17416763D01*
X22379915Y17543723D02*
Y17594505D01*
Y17569115D01*
X22227565D01*
X22252957Y17543723D01*
X19347156Y17071422D02*
X19194804D01*
Y17147598D01*
X19220197Y17172990D01*
X19270979D01*
X19296371Y17147598D01*
Y17071422D01*
Y17122206D02*
X19347156Y17172990D01*
Y17223773D02*
Y17274557D01*
Y17249165D01*
X19194804D01*
X19220197Y17223773D01*
X19347156Y17350732D02*
Y17401515D01*
Y17376125D01*
X19194804D01*
X19220197Y17350732D01*
Y17477692D02*
X19194804Y17503082D01*
Y17553867D01*
X19220197Y17579259D01*
X19321764D01*
X19347156Y17553867D01*
Y17503082D01*
X19321764Y17477692D01*
X19220197D01*
X13891235Y17114606D02*
X13738885D01*
Y17190782D01*
X13764278Y17216174D01*
X13815060D01*
X13840453Y17190782D01*
Y17114606D01*
Y17165390D02*
X13891235Y17216174D01*
Y17266957D02*
Y17317741D01*
Y17292349D01*
X13738885D01*
X13764278Y17266957D01*
Y17393916D02*
X13738885Y17419308D01*
Y17470091D01*
X13764278Y17495483D01*
X13865843D01*
X13891235Y17470091D01*
Y17419308D01*
X13865843Y17393916D01*
X13764278D01*
X13865843Y17546268D02*
X13891235Y17571658D01*
Y17622443D01*
X13865843Y17647833D01*
X13764278D01*
X13738885Y17622443D01*
Y17571658D01*
X13764278Y17546268D01*
X13789668D01*
X13815060Y17571658D01*
Y17647833D01*
X7871435Y17137466D02*
X7719085D01*
Y17213641D01*
X7744477Y17239034D01*
X7795260D01*
X7820652Y17213641D01*
Y17137466D01*
Y17188251D02*
X7871435Y17239034D01*
Y17289816D02*
Y17340601D01*
Y17315208D01*
X7719085D01*
X7744477Y17289816D01*
Y17416776D02*
X7719085Y17442168D01*
Y17492950D01*
X7744477Y17518343D01*
X7846043D01*
X7871435Y17492950D01*
Y17442168D01*
X7846043Y17416776D01*
X7744477D01*
Y17569127D02*
X7719085Y17594519D01*
Y17645302D01*
X7744477Y17670694D01*
X7769868D01*
X7795260Y17645302D01*
X7820652Y17670694D01*
X7846043D01*
X7871435Y17645302D01*
Y17594519D01*
X7846043Y17569127D01*
X7820652D01*
X7795260Y17594519D01*
X7769868Y17569127D01*
X7744477D01*
X7795260Y17594519D02*
Y17645302D01*
X10939755Y17132385D02*
X10787405D01*
Y17208562D01*
X10812797Y17233954D01*
X10863580D01*
X10888972Y17208562D01*
Y17132385D01*
Y17183170D02*
X10939755Y17233954D01*
Y17284737D02*
Y17335521D01*
Y17310129D01*
X10787405D01*
X10812797Y17284737D01*
Y17411696D02*
X10787405Y17437088D01*
Y17487871D01*
X10812797Y17513263D01*
X10914363D01*
X10939755Y17487871D01*
Y17437088D01*
X10914363Y17411696D01*
X10812797D01*
X10787405Y17564047D02*
Y17665614D01*
X10812797D01*
X10914363Y17564047D01*
X10939755D01*
X13563576Y17122226D02*
X13411224D01*
Y17198402D01*
X13436617Y17223795D01*
X13487399D01*
X13512791Y17198402D01*
Y17122226D01*
Y17173010D02*
X13563576Y17223795D01*
Y17274577D02*
Y17325362D01*
Y17299969D01*
X13411224D01*
X13436617Y17274577D01*
Y17401537D02*
X13411224Y17426929D01*
Y17477711D01*
X13436617Y17503104D01*
X13538184D01*
X13563576Y17477711D01*
Y17426929D01*
X13538184Y17401537D01*
X13436617D01*
X13411224Y17655453D02*
X13436617Y17604671D01*
X13487399Y17553886D01*
X13538184D01*
X13563576Y17579279D01*
Y17630061D01*
X13538184Y17655453D01*
X13512791D01*
X13487399Y17630061D01*
Y17553886D01*
X7500595Y17142546D02*
X7348245D01*
Y17218723D01*
X7373637Y17244115D01*
X7424420D01*
X7449812Y17218723D01*
Y17142546D01*
Y17193330D02*
X7500595Y17244115D01*
Y17294897D02*
Y17345682D01*
Y17320290D01*
X7348245D01*
X7373637Y17294897D01*
Y17421857D02*
X7348245Y17447247D01*
Y17498032D01*
X7373637Y17523422D01*
X7475203D01*
X7500595Y17498032D01*
Y17447247D01*
X7475203Y17421857D01*
X7373637D01*
X7348245Y17675774D02*
Y17574207D01*
X7424420D01*
X7399028Y17624989D01*
Y17650381D01*
X7424420Y17675774D01*
X7475203D01*
X7500595Y17650381D01*
Y17599599D01*
X7475203Y17574207D01*
X10586695Y17134926D02*
X10434345D01*
Y17211102D01*
X10459737Y17236494D01*
X10510520D01*
X10535912Y17211102D01*
Y17134926D01*
Y17185710D02*
X10586695Y17236494D01*
Y17287277D02*
Y17338062D01*
Y17312669D01*
X10434345D01*
X10459737Y17287277D01*
Y17414236D02*
X10434345Y17439629D01*
Y17490411D01*
X10459737Y17515804D01*
X10561303D01*
X10586695Y17490411D01*
Y17439629D01*
X10561303Y17414236D01*
X10459737D01*
X10586695Y17642763D02*
X10434345D01*
X10510520Y17566586D01*
Y17668153D01*
X13213597Y17117688D02*
X13061246D01*
Y17193863D01*
X13086638Y17219255D01*
X13137422D01*
X13162813Y17193863D01*
Y17117688D01*
Y17168471D02*
X13213597Y17219255D01*
Y17270039D02*
Y17320822D01*
Y17295430D01*
X13061246D01*
X13086638Y17270039D01*
Y17396997D02*
X13061246Y17422389D01*
Y17473174D01*
X13086638Y17498566D01*
X13188205D01*
X13213597Y17473174D01*
Y17422389D01*
X13188205Y17396997D01*
X13086638D01*
Y17549348D02*
X13061246Y17574741D01*
Y17625523D01*
X13086638Y17650916D01*
X13112030D01*
X13137422Y17625523D01*
Y17600133D01*
Y17625523D01*
X13162813Y17650916D01*
X13188205D01*
X13213597Y17625523D01*
Y17574741D01*
X13188205Y17549348D01*
X7089115Y17145087D02*
X6936765D01*
Y17221262D01*
X6962157Y17246654D01*
X7012940D01*
X7038332Y17221262D01*
Y17145087D01*
Y17195869D02*
X7089115Y17246654D01*
Y17297437D02*
Y17348221D01*
Y17322829D01*
X6936765D01*
X6962157Y17297437D01*
Y17424396D02*
X6936765Y17449788D01*
Y17500571D01*
X6962157Y17525963D01*
X7063723D01*
X7089115Y17500571D01*
Y17449788D01*
X7063723Y17424396D01*
X6962157D01*
X7089115Y17678314D02*
Y17576747D01*
X6987548Y17678314D01*
X6962157D01*
X6936765Y17652922D01*
Y17602139D01*
X6962157Y17576747D01*
X10215855Y17132378D02*
X10063505D01*
Y17208554D01*
X10088897Y17233945D01*
X10139680D01*
X10165072Y17208554D01*
Y17132378D01*
Y17183162D02*
X10215855Y17233945D01*
Y17284729D02*
Y17335512D01*
Y17310121D01*
X10063505D01*
X10088897Y17284729D01*
Y17411688D02*
X10063505Y17437080D01*
Y17487863D01*
X10088897Y17513255D01*
X10190463D01*
X10215855Y17487863D01*
Y17437080D01*
X10190463Y17411688D01*
X10088897D01*
X10215855Y17564040D02*
Y17614822D01*
Y17589430D01*
X10063505D01*
X10088897Y17564040D01*
X23736316Y17213612D02*
X23710924Y17188222D01*
Y17137437D01*
X23736316Y17112045D01*
X23837883D01*
X23863275Y17137437D01*
Y17188222D01*
X23837883Y17213612D01*
X23736316Y17264397D02*
X23710924Y17289787D01*
Y17340572D01*
X23736316Y17365964D01*
X23761708D01*
X23787100Y17340572D01*
Y17315179D01*
Y17340572D01*
X23812492Y17365964D01*
X23837883D01*
X23863275Y17340572D01*
Y17289787D01*
X23837883Y17264397D01*
X23710924Y17518314D02*
Y17416747D01*
X23787100D01*
X23761708Y17467529D01*
Y17492921D01*
X23787100Y17518314D01*
X23837883D01*
X23863275Y17492921D01*
Y17442139D01*
X23837883Y17416747D01*
X20571477Y17193294D02*
X20546085Y17167902D01*
Y17117117D01*
X20571477Y17091727D01*
X20673042D01*
X20698434Y17117117D01*
Y17167902D01*
X20673042Y17193294D01*
X20571477Y17244077D02*
X20546085Y17269469D01*
Y17320251D01*
X20571477Y17345644D01*
X20596867D01*
X20622260Y17320251D01*
Y17294859D01*
Y17320251D01*
X20647652Y17345644D01*
X20673042D01*
X20698434Y17320251D01*
Y17269469D01*
X20673042Y17244077D01*
X20698434Y17472601D02*
X20546085D01*
X20622260Y17396426D01*
Y17497993D01*
X14498335Y17241553D02*
X14472945Y17216161D01*
Y17165376D01*
X14498335Y17139986D01*
X14599902D01*
X14625294Y17165376D01*
Y17216161D01*
X14599902Y17241553D01*
X14498335Y17292336D02*
X14472945Y17317728D01*
Y17368512D01*
X14498335Y17393903D01*
X14523727D01*
X14549120Y17368512D01*
Y17343120D01*
Y17368512D01*
X14574512Y17393903D01*
X14599902D01*
X14625294Y17368512D01*
Y17317728D01*
X14599902Y17292336D01*
X14498335Y17444687D02*
X14472945Y17470079D01*
Y17520862D01*
X14498335Y17546254D01*
X14523727D01*
X14549120Y17520862D01*
Y17495470D01*
Y17520862D01*
X14574512Y17546254D01*
X14599902D01*
X14625294Y17520862D01*
Y17470079D01*
X14599902Y17444687D01*
X8056897Y16443993D02*
X8031505Y16418600D01*
Y16367818D01*
X8056897Y16342426D01*
X8158463D01*
X8183855Y16367818D01*
Y16418600D01*
X8158463Y16443993D01*
X8056897Y16494777D02*
X8031505Y16520168D01*
Y16570952D01*
X8056897Y16596344D01*
X8082288D01*
X8107680Y16570952D01*
Y16545560D01*
Y16570952D01*
X8133072Y16596344D01*
X8158463D01*
X8183855Y16570952D01*
Y16520168D01*
X8158463Y16494777D01*
X8183855Y16748694D02*
Y16647127D01*
X8082288Y16748694D01*
X8056897D01*
X8031505Y16723303D01*
Y16672519D01*
X8056897Y16647127D01*
X11529076Y17259325D02*
X11503684Y17233932D01*
Y17183150D01*
X11529076Y17157758D01*
X11630643D01*
X11656035Y17183150D01*
Y17233932D01*
X11630643Y17259325D01*
X11529076Y17310107D02*
X11503684Y17335500D01*
Y17386282D01*
X11529076Y17411674D01*
X11554468D01*
X11579860Y17386282D01*
Y17360892D01*
Y17386282D01*
X11605252Y17411674D01*
X11630643D01*
X11656035Y17386282D01*
Y17335500D01*
X11630643Y17310107D01*
X11656035Y17462459D02*
Y17513242D01*
Y17487851D01*
X11503684D01*
X11529076Y17462459D01*
X17099304Y17139973D02*
X17226263D01*
X17251656Y17165366D01*
Y17216148D01*
X17226263Y17241541D01*
X17099304D01*
X17251656Y17292323D02*
Y17343108D01*
Y17317715D01*
X17099304D01*
X17124696Y17292323D01*
X17251656Y17419283D02*
Y17470065D01*
Y17444675D01*
X17099304D01*
X17124696Y17419283D01*
X23314684Y17084100D02*
X23441643D01*
X23467035Y17109492D01*
Y17160277D01*
X23441643Y17185669D01*
X23314684D01*
X23467035Y17236452D02*
Y17287236D01*
Y17261844D01*
X23314684D01*
X23340076Y17236452D01*
Y17363411D02*
X23314684Y17388803D01*
Y17439586D01*
X23340076Y17464978D01*
X23441643D01*
X23467035Y17439586D01*
Y17388803D01*
X23441643Y17363411D01*
X23340076D01*
X20154926Y17081541D02*
X20281883D01*
X20307275Y17106934D01*
Y17157716D01*
X20281883Y17183109D01*
X20154926D01*
X20281883Y17233891D02*
X20307275Y17259283D01*
Y17310068D01*
X20281883Y17335458D01*
X20180318D01*
X20154926Y17310068D01*
Y17259283D01*
X20180318Y17233891D01*
X20205708D01*
X20231100Y17259283D01*
Y17335458D01*
X14064005Y17114561D02*
X14190964D01*
X14216354Y17139954D01*
Y17190736D01*
X14190964Y17216129D01*
X14064005D01*
X14089397Y17266911D02*
X14064005Y17292303D01*
Y17343086D01*
X14089397Y17368478D01*
X14114787D01*
X14140179Y17343086D01*
X14165572Y17368478D01*
X14190964D01*
X14216354Y17343086D01*
Y17292303D01*
X14190964Y17266911D01*
X14165572D01*
X14140179Y17292303D01*
X14114787Y17266911D01*
X14089397D01*
X14140179Y17292303D02*
Y17343086D01*
X8087385Y17188222D02*
X8214343D01*
X8239735Y17213612D01*
Y17264397D01*
X8214343Y17289787D01*
X8087385D01*
Y17340572D02*
Y17442139D01*
X8112777D01*
X8214343Y17340572D01*
X8239735D01*
X11099825Y17132341D02*
X11226783D01*
X11252175Y17157733D01*
Y17208517D01*
X11226783Y17233908D01*
X11099825D01*
Y17386259D02*
X11125217Y17335475D01*
X11176000Y17284692D01*
X11226783D01*
X11252175Y17310085D01*
Y17360867D01*
X11226783Y17386259D01*
X11201392D01*
X11176000Y17360867D01*
Y17284692D01*
X11554460Y15519400D02*
Y15671751D01*
X11630635D01*
X11656027Y15646359D01*
Y15595575D01*
X11630635Y15570183D01*
X11554460D01*
X11605243D02*
X11656027Y15519400D01*
X11706811Y15646359D02*
X11732203Y15671751D01*
X11782986D01*
X11808378Y15646359D01*
Y15620967D01*
X11782986Y15595575D01*
X11808378Y15570183D01*
Y15544792D01*
X11782986Y15519400D01*
X11732203D01*
X11706811Y15544792D01*
Y15570183D01*
X11732203Y15595575D01*
X11706811Y15620967D01*
Y15646359D01*
X11732203Y15595575D02*
X11782986D01*
X11859161Y15646359D02*
X11884553Y15671751D01*
X11935337D01*
X11960729Y15646359D01*
Y15620967D01*
X11935337Y15595575D01*
X11960729Y15570183D01*
Y15544792D01*
X11935337Y15519400D01*
X11884553D01*
X11859161Y15544792D01*
Y15570183D01*
X11884553Y15595575D01*
X11859161Y15620967D01*
Y15646359D01*
X11884553Y15595575D02*
X11935337D01*
X9768840Y15511780D02*
Y15664131D01*
X9845015D01*
X9870407Y15638739D01*
Y15587955D01*
X9845015Y15562563D01*
X9768840D01*
X9819623D02*
X9870407Y15511780D01*
X9921191Y15638739D02*
X9946583Y15664131D01*
X9997366D01*
X10022758Y15638739D01*
Y15613347D01*
X9997366Y15587955D01*
X10022758Y15562563D01*
Y15537172D01*
X9997366Y15511780D01*
X9946583D01*
X9921191Y15537172D01*
Y15562563D01*
X9946583Y15587955D01*
X9921191Y15613347D01*
Y15638739D01*
X9946583Y15587955D02*
X9997366D01*
X10175109Y15664131D02*
X10124325Y15638739D01*
X10073541Y15587955D01*
Y15537172D01*
X10098933Y15511780D01*
X10149717D01*
X10175109Y15537172D01*
Y15562563D01*
X10149717Y15587955D01*
X10073541D01*
X11531600Y8620760D02*
Y8773111D01*
X11607775D01*
X11633167Y8747719D01*
Y8696935D01*
X11607775Y8671543D01*
X11531600D01*
X11582383D02*
X11633167Y8620760D01*
X11683951D02*
X11734734D01*
X11709343D01*
Y8773111D01*
X11683951Y8747719D01*
X11810910D02*
X11836301Y8773111D01*
X11887085D01*
X11912477Y8747719D01*
Y8646152D01*
X11887085Y8620760D01*
X11836301D01*
X11810910Y8646152D01*
Y8747719D01*
X11963260D02*
X11988652Y8773111D01*
X12039436D01*
X12064828Y8747719D01*
Y8646152D01*
X12039436Y8620760D01*
X11988652D01*
X11963260Y8646152D01*
Y8747719D01*
X9712960Y8620760D02*
Y8773111D01*
X9789135D01*
X9814527Y8747719D01*
Y8696935D01*
X9789135Y8671543D01*
X9712960D01*
X9763743D02*
X9814527Y8620760D01*
X9865311Y8646152D02*
X9890703Y8620760D01*
X9941486D01*
X9966878Y8646152D01*
Y8747719D01*
X9941486Y8773111D01*
X9890703D01*
X9865311Y8747719D01*
Y8722327D01*
X9890703Y8696935D01*
X9966878D01*
X10017661Y8747719D02*
X10043053Y8773111D01*
X10093837D01*
X10119229Y8747719D01*
Y8722327D01*
X10093837Y8696935D01*
X10119229Y8671543D01*
Y8646152D01*
X10093837Y8620760D01*
X10043053D01*
X10017661Y8646152D01*
Y8671543D01*
X10043053Y8696935D01*
X10017661Y8722327D01*
Y8747719D01*
X10043053Y8696935D02*
X10093837D01*
X11493500Y12009120D02*
Y12161471D01*
X11569675D01*
X11595067Y12136079D01*
Y12085295D01*
X11569675Y12059903D01*
X11493500D01*
X11544283D02*
X11595067Y12009120D01*
X11645851Y12034512D02*
X11671243Y12009120D01*
X11722026D01*
X11747418Y12034512D01*
Y12136079D01*
X11722026Y12161471D01*
X11671243D01*
X11645851Y12136079D01*
Y12110687D01*
X11671243Y12085295D01*
X11747418D01*
X11798201Y12161471D02*
X11899769D01*
Y12136079D01*
X11798201Y12034512D01*
Y12009120D01*
X9690100Y12004040D02*
Y12156391D01*
X9766275D01*
X9791667Y12130999D01*
Y12080215D01*
X9766275Y12054823D01*
X9690100D01*
X9740883D02*
X9791667Y12004040D01*
X9842451Y12029432D02*
X9867843Y12004040D01*
X9918626D01*
X9944018Y12029432D01*
Y12130999D01*
X9918626Y12156391D01*
X9867843D01*
X9842451Y12130999D01*
Y12105607D01*
X9867843Y12080215D01*
X9944018D01*
X10096369Y12156391D02*
X9994801D01*
Y12080215D01*
X10045585Y12105607D01*
X10070977D01*
X10096369Y12080215D01*
Y12029432D01*
X10070977Y12004040D01*
X10020193D01*
X9994801Y12029432D01*
X10675620Y7701231D02*
X10777187D01*
X10726403D01*
Y7548880D01*
X10827971D02*
Y7701231D01*
X10904146D01*
X10929538Y7675839D01*
Y7625055D01*
X10904146Y7599663D01*
X10827971D01*
X11056497Y7548880D02*
Y7701231D01*
X10980321Y7625055D01*
X11081889D01*
X11132672Y7548880D02*
X11183456D01*
X11158064D01*
Y7701231D01*
X11132672Y7675839D01*
X9652000Y7028131D02*
X9753567D01*
X9702783D01*
Y6875780D01*
X9804351D02*
Y7028131D01*
X9880526D01*
X9905918Y7002739D01*
Y6951955D01*
X9880526Y6926563D01*
X9804351D01*
X10032877Y6875780D02*
Y7028131D01*
X9956701Y6951955D01*
X10058269D01*
X10109052Y7002739D02*
X10134444Y7028131D01*
X10185228D01*
X10210619Y7002739D01*
Y6901172D01*
X10185228Y6875780D01*
X10134444D01*
X10109052Y6901172D01*
Y7002739D01*
X12374880Y6796991D02*
X12476447D01*
X12425663D01*
Y6644640D01*
X12527231D02*
Y6796991D01*
X12603406D01*
X12628798Y6771599D01*
Y6720815D01*
X12603406Y6695423D01*
X12527231D01*
X12679581Y6771599D02*
X12704973Y6796991D01*
X12755757D01*
X12781149Y6771599D01*
Y6746207D01*
X12755757Y6720815D01*
X12730365D01*
X12755757D01*
X12781149Y6695423D01*
Y6670032D01*
X12755757Y6644640D01*
X12704973D01*
X12679581Y6670032D01*
X12831932D02*
X12857324Y6644640D01*
X12908109D01*
X12933499Y6670032D01*
Y6771599D01*
X12908109Y6796991D01*
X12857324D01*
X12831932Y6771599D01*
Y6746207D01*
X12857324Y6720815D01*
X12933499D01*
X14569440Y15067239D02*
X14671007Y14965672D01*
X14569440D02*
X14671007Y15067239D01*
X14569440Y15016455D02*
X14671007D01*
X14620222Y14965672D02*
Y15067239D01*
X12682187Y7416759D02*
X12656795Y7442151D01*
X12606012D01*
X12580620Y7416759D01*
Y7315192D01*
X12606012Y7289800D01*
X12656795D01*
X12682187Y7315192D01*
X12834538Y7289800D02*
X12732971D01*
X12834538Y7391367D01*
Y7416759D01*
X12809146Y7442151D01*
X12758363D01*
X12732971Y7416759D01*
X12885321Y7289800D02*
X12936105D01*
X12910713D01*
Y7442151D01*
X12885321Y7416759D01*
X12357067Y7419299D02*
X12331675Y7444691D01*
X12280892D01*
X12255500Y7419299D01*
Y7317732D01*
X12280892Y7292340D01*
X12331675D01*
X12357067Y7317732D01*
X12509418Y7292340D02*
X12407851D01*
X12509418Y7393907D01*
Y7419299D01*
X12484026Y7444691D01*
X12433243D01*
X12407851Y7419299D01*
X12560201D02*
X12585593Y7444691D01*
X12636377D01*
X12661769Y7419299D01*
Y7317732D01*
X12636377Y7292340D01*
X12585593D01*
X12560201Y7317732D01*
Y7419299D01*
X12621227Y10784799D02*
X12595835Y10810191D01*
X12545052D01*
X12519660Y10784799D01*
Y10683232D01*
X12545052Y10657840D01*
X12595835D01*
X12621227Y10683232D01*
X12672011Y10657840D02*
X12722794D01*
X12697403D01*
Y10810191D01*
X12672011Y10784799D01*
X12900537Y10810191D02*
X12798970D01*
Y10734015D01*
X12849753Y10759407D01*
X12875145D01*
X12900537Y10734015D01*
Y10683232D01*
X12875145Y10657840D01*
X12824361D01*
X12798970Y10683232D01*
X12293567Y10787339D02*
X12268175Y10812731D01*
X12217392D01*
X12192000Y10787339D01*
Y10685772D01*
X12217392Y10660380D01*
X12268175D01*
X12293567Y10685772D01*
X12344351Y10660380D02*
X12395134D01*
X12369743D01*
Y10812731D01*
X12344351Y10787339D01*
X12547485Y10660380D02*
Y10812731D01*
X12471310Y10736555D01*
X12572877D01*
X10751820Y7327851D02*
Y7200892D01*
X10777212Y7175500D01*
X10827995D01*
X10853387Y7200892D01*
Y7327851D01*
X11005738D02*
X10904171D01*
Y7251675D01*
X10954954Y7277067D01*
X10980346D01*
X11005738Y7251675D01*
Y7200892D01*
X10980346Y7175500D01*
X10929563D01*
X10904171Y7200892D01*
X22158960Y10162491D02*
Y10035532D01*
X22184352Y10010140D01*
X22235135D01*
X22260527Y10035532D01*
Y10162491D01*
X22387486Y10010140D02*
Y10162491D01*
X22311311Y10086315D01*
X22412878D01*
X11396939Y12418084D02*
Y12545043D01*
X11371547Y12570435D01*
X11320763D01*
X11295372Y12545043D01*
Y12418084D01*
X11143021Y12570435D02*
X11244588D01*
X11143021Y12468868D01*
Y12443476D01*
X11168413Y12418084D01*
X11219196D01*
X11244588Y12443476D01*
X11003247Y9126244D02*
Y9253203D01*
X10977855Y9278595D01*
X10927072D01*
X10901680Y9253203D01*
Y9126244D01*
X10850896Y9278595D02*
X10800113D01*
X10825504D01*
Y9126244D01*
X10850896Y9151636D01*
X10668000Y11107371D02*
X10769567D01*
X10718783D01*
Y10955020D01*
X10820351D02*
Y11107371D01*
X10896526D01*
X10921918Y11081979D01*
Y11031195D01*
X10896526Y11005803D01*
X10820351D01*
X11074269Y10955020D02*
X10972701D01*
X11074269Y11056587D01*
Y11081979D01*
X11048877Y11107371D01*
X10998093D01*
X10972701Y11081979D01*
X11226619Y11107371D02*
X11175836Y11081979D01*
X11125052Y11031195D01*
Y10980412D01*
X11150444Y10955020D01*
X11201228D01*
X11226619Y10980412D01*
Y11005803D01*
X11201228Y11031195D01*
X11125052D01*
X9621520Y10393631D02*
X9723087D01*
X9672303D01*
Y10241280D01*
X9773871D02*
Y10393631D01*
X9850046D01*
X9875438Y10368239D01*
Y10317455D01*
X9850046Y10292063D01*
X9773871D01*
X10027789Y10241280D02*
X9926221D01*
X10027789Y10342847D01*
Y10368239D01*
X10002397Y10393631D01*
X9951613D01*
X9926221Y10368239D01*
X10180139Y10393631D02*
X10078572D01*
Y10317455D01*
X10129356Y10342847D01*
X10154748D01*
X10180139Y10317455D01*
Y10266672D01*
X10154748Y10241280D01*
X10103964D01*
X10078572Y10266672D01*
X12275820Y10192971D02*
X12377387D01*
X12326603D01*
Y10040620D01*
X12428171D02*
Y10192971D01*
X12504346D01*
X12529738Y10167579D01*
Y10116795D01*
X12504346Y10091403D01*
X12428171D01*
X12682089Y10040620D02*
X12580521D01*
X12682089Y10142187D01*
Y10167579D01*
X12656697Y10192971D01*
X12605913D01*
X12580521Y10167579D01*
X12809048Y10040620D02*
Y10192971D01*
X12732872Y10116795D01*
X12834439D01*
X21727161Y9552891D02*
X21828728D01*
X21777943D01*
Y9400540D01*
X21879510D02*
Y9552891D01*
X21955685D01*
X21981078Y9527499D01*
Y9476715D01*
X21955685Y9451323D01*
X21879510D01*
X22031860Y9400540D02*
X22082645D01*
X22057253D01*
Y9552891D01*
X22031860Y9527499D01*
X22158820Y9425932D02*
X22184212Y9400540D01*
X22234996D01*
X22260388Y9425932D01*
Y9527499D01*
X22234996Y9552891D01*
X22184212D01*
X22158820Y9527499D01*
Y9502107D01*
X22184212Y9476715D01*
X22260388D01*
X21729700Y9898331D02*
X21831267D01*
X21780482D01*
Y9745980D01*
X21882051D02*
Y9898331D01*
X21958226D01*
X21983618Y9872939D01*
Y9822155D01*
X21958226Y9796763D01*
X21882051D01*
X22034401Y9745980D02*
X22085185D01*
X22059793D01*
Y9898331D01*
X22034401Y9872939D01*
X22161360D02*
X22186752Y9898331D01*
X22237537D01*
X22262927Y9872939D01*
Y9847547D01*
X22237537Y9822155D01*
X22262927Y9796763D01*
Y9771372D01*
X22237537Y9745980D01*
X22186752D01*
X22161360Y9771372D01*
Y9796763D01*
X22186752Y9822155D01*
X22161360Y9847547D01*
Y9872939D01*
X22186752Y9822155D02*
X22237537D01*
X24081740Y13434010D02*
X24183307D01*
X24132523D01*
Y13281660D01*
X24234091D02*
Y13434010D01*
X24310266D01*
X24335658Y13408620D01*
Y13357835D01*
X24310266Y13332443D01*
X24234091D01*
X24488010Y13434010D02*
X24386441D01*
Y13357835D01*
X24437225Y13383228D01*
X24462617D01*
X24488010Y13357835D01*
Y13307053D01*
X24462617Y13281660D01*
X24411833D01*
X24386441Y13307053D01*
X23794720Y11366451D02*
X23896288D01*
X23845503D01*
Y11214100D01*
X23947070D02*
Y11366451D01*
X24023245D01*
X24048637Y11341059D01*
Y11290275D01*
X24023245Y11264883D01*
X23947070D01*
X24175597Y11214100D02*
Y11366451D01*
X24099422Y11290275D01*
X24200989D01*
X10675620Y14561771D02*
X10777187D01*
X10726403D01*
Y14409419D01*
X10827971D02*
Y14561771D01*
X10904146D01*
X10929538Y14536378D01*
Y14485596D01*
X10904146Y14460204D01*
X10827971D01*
X11081889Y14409419D02*
X10980321D01*
X11081889Y14510986D01*
Y14536378D01*
X11056497Y14561771D01*
X11005713D01*
X10980321Y14536378D01*
X23586440Y14930070D02*
X23688007D01*
X23637222D01*
Y14777721D01*
X23738791D02*
Y14930070D01*
X23814966D01*
X23840358Y14904678D01*
Y14853896D01*
X23814966Y14828503D01*
X23738791D01*
X23891141Y14777721D02*
X23941925D01*
X23916533D01*
Y14930070D01*
X23891141Y14904678D01*
X10132060Y7178040D02*
Y7330391D01*
X10208235D01*
X10233627Y7304999D01*
Y7254215D01*
X10208235Y7228823D01*
X10132060D01*
X10182843D02*
X10233627Y7178040D01*
X10284411Y7330391D02*
X10385978D01*
Y7304999D01*
X10284411Y7203432D01*
Y7178040D01*
X10436761D02*
X10487545D01*
X10462153D01*
Y7330391D01*
X10436761Y7304999D01*
X11943080Y7292340D02*
Y7444691D01*
X12019255D01*
X12044647Y7419299D01*
Y7368515D01*
X12019255Y7343123D01*
X11943080D01*
X11993863D02*
X12044647Y7292340D01*
X12196998Y7444691D02*
X12146214Y7419299D01*
X12095431Y7368515D01*
Y7317732D01*
X12120823Y7292340D01*
X12171606D01*
X12196998Y7317732D01*
Y7343123D01*
X12171606Y7368515D01*
X12095431D01*
X12349349Y7444691D02*
X12247781D01*
Y7368515D01*
X12298565Y7393907D01*
X12323957D01*
X12349349Y7368515D01*
Y7317732D01*
X12323957Y7292340D01*
X12273173D01*
X12247781Y7317732D01*
X12900661Y7294880D02*
Y7447231D01*
X12976836D01*
X13002226Y7421839D01*
Y7371055D01*
X12976836Y7345663D01*
X12900661D01*
X12951443D02*
X13002226Y7294880D01*
X13154578Y7447231D02*
X13103793Y7421839D01*
X13053011Y7371055D01*
Y7320272D01*
X13078403Y7294880D01*
X13129185D01*
X13154578Y7320272D01*
Y7345663D01*
X13129185Y7371055D01*
X13053011D01*
X13281537Y7294880D02*
Y7447231D01*
X13205360Y7371055D01*
X13306929D01*
X10134600Y6896100D02*
Y7048451D01*
X10210775D01*
X10236167Y7023059D01*
Y6972275D01*
X10210775Y6946883D01*
X10134600D01*
X10185383D02*
X10236167Y6896100D01*
X10388518Y7048451D02*
X10337734Y7023059D01*
X10286951Y6972275D01*
Y6921492D01*
X10312343Y6896100D01*
X10363126D01*
X10388518Y6921492D01*
Y6946883D01*
X10363126Y6972275D01*
X10286951D01*
X10439301Y6896100D02*
X10490085D01*
X10464693D01*
Y7048451D01*
X10439301Y7023059D01*
X10160000Y10561320D02*
Y10713671D01*
X10236175D01*
X10261567Y10688279D01*
Y10637495D01*
X10236175Y10612103D01*
X10160000D01*
X10210783D02*
X10261567Y10561320D01*
X10388526D02*
Y10713671D01*
X10312351Y10637495D01*
X10413918D01*
X10566269Y10713671D02*
X10464701D01*
Y10637495D01*
X10515485Y10662887D01*
X10540877D01*
X10566269Y10637495D01*
Y10586712D01*
X10540877Y10561320D01*
X10490093D01*
X10464701Y10586712D01*
X11874500Y10665460D02*
Y10817811D01*
X11950675D01*
X11976067Y10792419D01*
Y10741635D01*
X11950675Y10716243D01*
X11874500D01*
X11925283D02*
X11976067Y10665460D01*
X12026851Y10792419D02*
X12052243Y10817811D01*
X12103026D01*
X12128418Y10792419D01*
Y10767027D01*
X12103026Y10741635D01*
X12077634D01*
X12103026D01*
X12128418Y10716243D01*
Y10690852D01*
X12103026Y10665460D01*
X12052243D01*
X12026851Y10690852D01*
X12179201D02*
X12204593Y10665460D01*
X12255377D01*
X12280769Y10690852D01*
Y10792419D01*
X12255377Y10817811D01*
X12204593D01*
X12179201Y10792419D01*
Y10767027D01*
X12204593Y10741635D01*
X12280769D01*
X12842239Y10662920D02*
Y10815271D01*
X12918414D01*
X12943806Y10789879D01*
Y10739095D01*
X12918414Y10713703D01*
X12842239D01*
X12893024D02*
X12943806Y10662920D01*
X12994591Y10789879D02*
X13019983Y10815271D01*
X13070766D01*
X13096158Y10789879D01*
Y10764487D01*
X13070766Y10739095D01*
X13045374D01*
X13070766D01*
X13096158Y10713703D01*
Y10688312D01*
X13070766Y10662920D01*
X13019983D01*
X12994591Y10688312D01*
X13146941Y10789879D02*
X13172333Y10815271D01*
X13223117D01*
X13248509Y10789879D01*
Y10764487D01*
X13223117Y10739095D01*
X13248509Y10713703D01*
Y10688312D01*
X13223117Y10662920D01*
X13172333D01*
X13146941Y10688312D01*
Y10713703D01*
X13172333Y10739095D01*
X13146941Y10764487D01*
Y10789879D01*
X13172333Y10739095D02*
X13223117D01*
X10154920Y10269220D02*
Y10421571D01*
X10231095D01*
X10256487Y10396179D01*
Y10345395D01*
X10231095Y10320003D01*
X10154920D01*
X10205703D02*
X10256487Y10269220D01*
X10307271Y10396179D02*
X10332663Y10421571D01*
X10383446D01*
X10408838Y10396179D01*
Y10370787D01*
X10383446Y10345395D01*
X10358054D01*
X10383446D01*
X10408838Y10320003D01*
Y10294612D01*
X10383446Y10269220D01*
X10332663D01*
X10307271Y10294612D01*
X10561189Y10421571D02*
X10459621D01*
Y10345395D01*
X10510405Y10370787D01*
X10535797D01*
X10561189Y10345395D01*
Y10294612D01*
X10535797Y10269220D01*
X10485013D01*
X10459621Y10294612D01*
X22047200Y8747760D02*
Y8900111D01*
X22123375D01*
X22148767Y8874719D01*
Y8823935D01*
X22123375Y8798543D01*
X22047200D01*
X22097983D02*
X22148767Y8747760D01*
X22199551Y8874719D02*
X22224944Y8900111D01*
X22275726D01*
X22301118Y8874719D01*
Y8849327D01*
X22275726Y8823935D01*
X22250334D01*
X22275726D01*
X22301118Y8798543D01*
Y8773152D01*
X22275726Y8747760D01*
X22224944D01*
X22199551Y8773152D01*
X22351901Y8874719D02*
X22377293Y8900111D01*
X22428078D01*
X22453468Y8874719D01*
Y8849327D01*
X22428078Y8823935D01*
X22402686D01*
X22428078D01*
X22453468Y8798543D01*
Y8773152D01*
X22428078Y8747760D01*
X22377293D01*
X22351901Y8773152D01*
X10172700Y13657581D02*
Y13809930D01*
X10248875D01*
X10274267Y13784538D01*
Y13733755D01*
X10248875Y13708363D01*
X10172700D01*
X10223483D02*
X10274267Y13657581D01*
X10325051Y13784538D02*
X10350443Y13809930D01*
X10401226D01*
X10426618Y13784538D01*
Y13759148D01*
X10401226Y13733755D01*
X10426618Y13708363D01*
Y13682973D01*
X10401226Y13657581D01*
X10350443D01*
X10325051Y13682973D01*
Y13708363D01*
X10350443Y13733755D01*
X10325051Y13759148D01*
Y13784538D01*
X10350443Y13733755D02*
X10401226D01*
X13929359Y16022321D02*
Y16174670D01*
X14005534D01*
X14030927Y16149278D01*
Y16098495D01*
X14005534Y16073103D01*
X13929359D01*
X13980144D02*
X14030927Y16022321D01*
X14081711Y16149278D02*
X14107103Y16174670D01*
X14157886D01*
X14183278Y16149278D01*
Y16123888D01*
X14157886Y16098495D01*
X14132494D01*
X14157886D01*
X14183278Y16073103D01*
Y16047713D01*
X14157886Y16022321D01*
X14107103D01*
X14081711Y16047713D01*
X7762207Y8039092D02*
Y8140659D01*
X7736815Y8166051D01*
X7686032D01*
X7660640Y8140659D01*
Y8039092D01*
X7686032Y8013700D01*
X7736815D01*
X7711423Y8064483D02*
X7762207Y8013700D01*
X7736815D02*
X7762207Y8039092D01*
X7914558Y8166051D02*
X7812991D01*
Y8089875D01*
X7863774Y8115267D01*
X7889166D01*
X7914558Y8089875D01*
Y8039092D01*
X7889166Y8013700D01*
X7838383D01*
X7812991Y8039092D01*
X7785067Y11457932D02*
Y11559499D01*
X7759675Y11584891D01*
X7708892D01*
X7683500Y11559499D01*
Y11457932D01*
X7708892Y11432540D01*
X7759675D01*
X7734283Y11483323D02*
X7785067Y11432540D01*
X7759675D02*
X7785067Y11457932D01*
X7835851Y11559499D02*
X7861243Y11584891D01*
X7912026D01*
X7937418Y11559499D01*
Y11534107D01*
X7912026Y11508715D01*
X7886634D01*
X7912026D01*
X7937418Y11483323D01*
Y11457932D01*
X7912026Y11432540D01*
X7861243D01*
X7835851Y11457932D01*
X8981022Y13792200D02*
X8879455D01*
X8854063Y13766808D01*
Y13716025D01*
X8879455Y13690633D01*
X8981022D01*
X9006414Y13716025D01*
Y13766808D01*
X8955631Y13741417D02*
X9006414Y13792200D01*
Y13766808D02*
X8981022Y13792200D01*
X9006414Y13842984D02*
Y13893767D01*
Y13868376D01*
X8854063D01*
X8879455Y13842984D01*
X12953999Y7912051D02*
Y7759700D01*
X13030174D01*
X13055566Y7785092D01*
Y7886659D01*
X13030174Y7912051D01*
X12953999D01*
X13106351Y7759700D02*
X13157133D01*
X13131743D01*
Y7912051D01*
X13106351Y7886659D01*
X13233310Y7912051D02*
X13334877D01*
Y7886659D01*
X13233310Y7785092D01*
Y7759700D01*
X9128760Y15079932D02*
Y14927580D01*
X9204935D01*
X9230327Y14952972D01*
Y15054539D01*
X9204935Y15079932D01*
X9128760D01*
X9281111Y14927580D02*
X9331894D01*
X9306503D01*
Y15079932D01*
X9281111Y15054539D01*
X9509637Y15079932D02*
X9458853Y15054539D01*
X9408070Y15003755D01*
Y14952972D01*
X9433461Y14927580D01*
X9484245D01*
X9509637Y14952972D01*
Y14978363D01*
X9484245Y15003755D01*
X9408070D01*
X9105900Y8130491D02*
Y7978140D01*
X9182075D01*
X9207467Y8003532D01*
Y8105099D01*
X9182075Y8130491D01*
X9105900D01*
X9258251Y7978140D02*
X9309034D01*
X9283643D01*
Y8130491D01*
X9258251Y8105099D01*
X9461385Y7978140D02*
Y8130491D01*
X9385210Y8054315D01*
X9486777D01*
X7028180Y7840931D02*
Y7688580D01*
X7104355D01*
X7129747Y7713972D01*
Y7815539D01*
X7104355Y7840931D01*
X7028180D01*
X7180531Y7688580D02*
X7231314D01*
X7205923D01*
Y7840931D01*
X7180531Y7815539D01*
X7409057Y7688580D02*
X7307490D01*
X7409057Y7790147D01*
Y7815539D01*
X7383665Y7840931D01*
X7332881D01*
X7307490Y7815539D01*
X12895580Y11277551D02*
Y11125200D01*
X12971754D01*
X12997147Y11150592D01*
Y11252159D01*
X12971754Y11277551D01*
X12895580D01*
X13047931Y11125200D02*
X13098714D01*
X13073323D01*
Y11277551D01*
X13047931Y11252159D01*
X13174890D02*
X13200281Y11277551D01*
X13251065D01*
X13276457Y11252159D01*
Y11150592D01*
X13251065Y11125200D01*
X13200281D01*
X13174890Y11150592D01*
Y11252159D01*
X9100820Y11544251D02*
Y11391900D01*
X9176995D01*
X9202387Y11417292D01*
Y11518859D01*
X9176995Y11544251D01*
X9100820D01*
X9253171Y11518859D02*
X9278563Y11544251D01*
X9329346D01*
X9354738Y11518859D01*
Y11493467D01*
X9329346Y11468075D01*
X9354738Y11442683D01*
Y11417292D01*
X9329346Y11391900D01*
X9278563D01*
X9253171Y11417292D01*
Y11442683D01*
X9278563Y11468075D01*
X9253171Y11493467D01*
Y11518859D01*
X9278563Y11468075D02*
X9329346D01*
X6997700Y11221671D02*
Y11069320D01*
X7073875D01*
X7099267Y11094712D01*
Y11196279D01*
X7073875Y11221671D01*
X6997700D01*
X7251618D02*
X7200834Y11196279D01*
X7150051Y11145495D01*
Y11094712D01*
X7175443Y11069320D01*
X7226226D01*
X7251618Y11094712D01*
Y11120103D01*
X7226226Y11145495D01*
X7150051D01*
X7018045Y14488193D02*
X7170395D01*
Y14564368D01*
X7145003Y14589760D01*
X7043437D01*
X7018045Y14564368D01*
Y14488193D01*
X7170395Y14640544D02*
Y14691327D01*
Y14665936D01*
X7018045D01*
X7043437Y14640544D01*
X22832027Y14477959D02*
X22806635Y14503351D01*
X22755852D01*
X22730460Y14477959D01*
Y14376392D01*
X22755852Y14350999D01*
X22806635D01*
X22832027Y14376392D01*
X22882811Y14477959D02*
X22908203Y14503351D01*
X22958986D01*
X22984378Y14477959D01*
Y14452567D01*
X22958986Y14427174D01*
X22933594D01*
X22958986D01*
X22984378Y14401784D01*
Y14376392D01*
X22958986Y14350999D01*
X22908203D01*
X22882811Y14376392D01*
X22832027Y14927539D02*
X22806635Y14952931D01*
X22755852D01*
X22730460Y14927539D01*
Y14825972D01*
X22755852Y14800580D01*
X22806635D01*
X22832027Y14825972D01*
X22984378Y14800580D02*
X22882811D01*
X22984378Y14902147D01*
Y14927539D01*
X22958986Y14952931D01*
X22908203D01*
X22882811Y14927539D01*
D62*
X15511780Y10783489D02*
Y11207669D01*
X14612621Y10783489D02*
Y11207669D01*
X15575281Y7410531D02*
Y7834711D01*
X14676120Y7410531D02*
Y7834711D01*
X14620239Y14222729D02*
Y14646910D01*
X15519400Y14222729D02*
Y14646910D01*
X10984230Y10424160D02*
X11408410D01*
X10984230Y9398000D02*
X11408410D01*
X10969625Y7023100D02*
X11393805D01*
X10969625Y5996940D02*
X11393805D01*
X10989310Y12781280D02*
X11413490D01*
X10989310Y13807440D02*
X11413490D01*
D80*
X15592099Y11304110D02*
X15507460Y11219471D01*
Y11304110D02*
X15592099Y11219471D01*
X15549779Y11304110D02*
Y11219471D01*
X15507460Y11261790D02*
X15592099D01*
X15655598Y7931151D02*
X15570959Y7846512D01*
Y7931151D02*
X15655598Y7846512D01*
X15613280Y7931151D02*
Y7846512D01*
X15570959Y7888832D02*
X15655598D01*
X15599719Y14743350D02*
X15515080Y14658711D01*
Y14743350D02*
X15599719Y14658711D01*
X15557399Y14743350D02*
Y14658711D01*
X15515080Y14701030D02*
X15599719D01*
X11536045Y9317601D02*
X11451406Y9402240D01*
X11536045D02*
X11451406Y9317601D01*
X11536045Y9359921D02*
X11451406D01*
X11493725Y9402240D02*
Y9317601D01*
X11521440Y5916541D02*
X11436801Y6001180D01*
X11521440D02*
X11436801Y5916541D01*
X11521440Y5958861D02*
X11436801D01*
X11479120Y6001180D02*
Y5916541D01*
X11541125Y12700881D02*
X11456486Y12785520D01*
X11541125D02*
X11456486Y12700881D01*
X11541125Y12743201D02*
X11456486D01*
X11498805Y12785520D02*
Y12700881D01*
D81*
X14703123Y15313673D02*
Y15364458D01*
Y15339066D01*
X14779298D01*
Y15389848D02*
X14703123D01*
Y15427937D01*
X14715819Y15440633D01*
X14741211D01*
X14753906Y15427937D01*
Y15389848D01*
X14715819Y15466023D02*
X14703123Y15478720D01*
Y15504112D01*
X14715819Y15516808D01*
X14728516D01*
X14741211Y15504112D01*
X14753906Y15516808D01*
X14766602D01*
X14779298Y15504112D01*
Y15478720D01*
X14766602Y15466023D01*
X14753906D01*
X14741211Y15478720D01*
X14728516Y15466023D01*
X14715819D01*
X14741211Y15478720D02*
Y15504112D01*
X12125467Y13580098D02*
X12176251D01*
X12150859D01*
Y13503922D01*
X12201643D02*
Y13580098D01*
X12239730D01*
X12252426Y13567403D01*
Y13542010D01*
X12239730Y13529314D01*
X12201643D01*
X12277818Y13503922D02*
X12303210D01*
X12290514D01*
Y13580098D01*
X12277818Y13567403D01*
X12392081Y13503922D02*
X12341297D01*
X12392081Y13554706D01*
Y13567403D01*
X12379385Y13580098D01*
X12353993D01*
X12341297Y13567403D01*
X9646920Y13723595D02*
X9697703D01*
X9672312D01*
Y13647420D01*
X9723095D02*
Y13723595D01*
X9761183D01*
X9773879Y13710899D01*
Y13685509D01*
X9761183Y13672812D01*
X9723095D01*
X9799271Y13647420D02*
X9824663D01*
X9811967D01*
Y13723595D01*
X9799271Y13710899D01*
X9862750Y13647420D02*
X9888142D01*
X9875446D01*
Y13723595D01*
X9862750Y13710899D01*
X10356819Y13507709D02*
Y13431532D01*
X10318731D01*
X10306036Y13444228D01*
Y13469620D01*
X10318731Y13482317D01*
X10356819D01*
X10331427D02*
X10306036Y13507709D01*
X10280644D02*
X10255252D01*
X10267948D01*
Y13431532D01*
X10280644Y13444228D01*
X10217164D02*
X10204468Y13431532D01*
X10179076D01*
X10166381Y13444228D01*
Y13456924D01*
X10179076Y13469620D01*
X10166381Y13482317D01*
Y13495012D01*
X10179076Y13507709D01*
X10204468D01*
X10217164Y13495012D01*
Y13482317D01*
X10204468Y13469620D01*
X10217164Y13456924D01*
Y13444228D01*
X10204468Y13469620D02*
X10179076D01*
X12796508Y11273821D02*
X12720332D01*
Y11311909D01*
X12733028Y11324604D01*
X12758420D01*
X12771116Y11311909D01*
Y11273821D01*
Y11299213D02*
X12796508Y11324604D01*
Y11349996D02*
Y11375388D01*
Y11362692D01*
X12720332D01*
X12733028Y11349996D01*
Y11413476D02*
X12720332Y11426172D01*
Y11451564D01*
X12733028Y11464259D01*
X12745724D01*
X12758420Y11451564D01*
Y11438868D01*
Y11451564D01*
X12771116Y11464259D01*
X12783812D01*
X12796508Y11451564D01*
Y11426172D01*
X12783812Y11413476D01*
X11864340Y14124940D02*
Y14201115D01*
X11902428D01*
X11915123Y14188419D01*
Y14163028D01*
X11902428Y14150333D01*
X11864340D01*
X11889732D02*
X11915123Y14124940D01*
X11940515D02*
X11965907D01*
X11953211D01*
Y14201115D01*
X11940515Y14188419D01*
X12054778Y14124940D02*
X12003995D01*
X12054778Y14175723D01*
Y14188419D01*
X12042083Y14201115D01*
X12016691D01*
X12003995Y14188419D01*
X12771120Y14122400D02*
Y14198575D01*
X12809209D01*
X12821902Y14185880D01*
Y14160487D01*
X12809209Y14147792D01*
X12771120D01*
X12796512D02*
X12821902Y14122400D01*
X12847295D02*
X12872687D01*
X12859991D01*
Y14198575D01*
X12847295Y14185880D01*
X12910776Y14122400D02*
X12936166D01*
X12923471D01*
Y14198575D01*
X12910776Y14185880D01*
X14551648Y15302261D02*
X14475471D01*
Y15340349D01*
X14488168Y15353044D01*
X14513560D01*
X14526256Y15340349D01*
Y15302261D01*
Y15327654D02*
X14551648Y15353044D01*
Y15378436D02*
Y15403828D01*
Y15391132D01*
X14475471D01*
X14488168Y15378436D01*
Y15441916D02*
X14475471Y15454613D01*
Y15480003D01*
X14488168Y15492699D01*
X14538953D01*
X14551648Y15480003D01*
Y15454613D01*
X14538953Y15441916D01*
X14488168D01*
X14874228Y14787901D02*
X14798051D01*
Y14825987D01*
X14810748Y14838684D01*
X14836140D01*
X14848836Y14825987D01*
Y14787901D01*
Y14813292D02*
X14874228Y14838684D01*
X14861533Y14864076D02*
X14874228Y14876772D01*
Y14902164D01*
X14861533Y14914859D01*
X14810748D01*
X14798051Y14902164D01*
Y14876772D01*
X14810748Y14864076D01*
X14823444D01*
X14836140Y14876772D01*
Y14914859D01*
X13957321Y14498332D02*
Y14574509D01*
X13995409D01*
X14008104Y14561812D01*
Y14536420D01*
X13995409Y14523724D01*
X13957321D01*
X13982712D02*
X14008104Y14498332D01*
X14071584D02*
Y14574509D01*
X14033496Y14536420D01*
X14084279D01*
X13134328Y14443279D02*
X13058151D01*
Y14405190D01*
X13070848Y14392494D01*
X13121632D01*
X13134328Y14405190D01*
Y14443279D01*
X13058151Y14329015D02*
X13134328D01*
X13096240Y14367104D01*
Y14316319D01*
X13266432Y14102101D02*
X13342607D01*
Y14140189D01*
X13329910Y14152884D01*
X13279128D01*
X13266432Y14140189D01*
Y14102101D01*
X13279128Y14178276D02*
X13266432Y14190971D01*
Y14216364D01*
X13279128Y14229060D01*
X13291824D01*
X13304520Y14216364D01*
Y14203668D01*
Y14216364D01*
X13317215Y14229060D01*
X13329910D01*
X13342607Y14216364D01*
Y14190971D01*
X13329910Y14178276D01*
X13261353Y14648201D02*
X13337527D01*
Y14686288D01*
X13324832Y14698984D01*
X13274048D01*
X13261353Y14686288D01*
Y14648201D01*
X13337527Y14775159D02*
Y14724376D01*
X13286745Y14775159D01*
X13274048D01*
X13261353Y14762463D01*
Y14737073D01*
X13274048Y14724376D01*
X12517103Y14188419D02*
X12504408Y14201115D01*
X12479016D01*
X12466320Y14188419D01*
Y14137636D01*
X12479016Y14124940D01*
X12504408D01*
X12517103Y14137636D01*
X12593279Y14201115D02*
X12542495D01*
Y14163028D01*
X12567887Y14175723D01*
X12580583D01*
X12593279Y14163028D01*
Y14137636D01*
X12580583Y14124940D01*
X12555191D01*
X12542495Y14137636D01*
X12567912Y13921736D02*
X12580608Y13934431D01*
Y13959824D01*
X12567912Y13972519D01*
X12517128D01*
X12504432Y13959824D01*
Y13934431D01*
X12517128Y13921736D01*
X12504432Y13858257D02*
X12580608D01*
X12542520Y13896344D01*
Y13845560D01*
%TF.MD5,3eb0990654d182f683e55e4163b348e6*%
M02*
