G04*
G04 #@! TF.GenerationSoftware,Altium Limited,Altium Designer,21.6.4 (81)*
G04*
G04 Layer_Color=32896*
%FSLAX44Y44*%
%MOMM*%
G71*
G04*
G04 #@! TF.SameCoordinates,237C1AA0-54E4-4B3D-89E3-81C07F55AAFC*
G04*
G04*
G04 #@! TF.FilePolarity,Positive*
G04*
G01*
G75*
%ADD10C,0.2000*%
%ADD11C,0.2500*%
%ADD12C,0.2540*%
%ADD13C,0.1524*%
D10*
X1505712Y1174712D02*
G03*
X1505712Y1173712I0J-500D01*
G01*
D02*
G03*
X1505712Y1174712I0J500D01*
G01*
D02*
G03*
X1505712Y1173712I0J-500D01*
G01*
X1506728Y1514498D02*
G03*
X1506728Y1513498I0J-500D01*
G01*
D02*
G03*
X1506728Y1514498I0J500D01*
G01*
D02*
G03*
X1506728Y1513498I0J-500D01*
G01*
X911112Y1710170D02*
G03*
X911112Y1670570I-15000J-19800D01*
G01*
X1512062Y827748D02*
G03*
X1512062Y826748I0J-500D01*
G01*
D02*
G03*
X1512062Y827748I0J500D01*
G01*
D02*
G03*
X1512062Y826748I0J-500D01*
G01*
X1214896Y1709154D02*
G03*
X1214896Y1669554I-15000J-19800D01*
G01*
X1519696Y1706614D02*
G03*
X1519696Y1667014I-15000J-19800D01*
G01*
X1823734Y1704074D02*
G03*
X1823734Y1664474I-15000J-19800D01*
G01*
X2444764Y1702550D02*
G03*
X2444764Y1662950I-15000J-19800D01*
G01*
X2129550Y1699502D02*
G03*
X2129550Y1659902I-15000J-19800D01*
G01*
X2283460Y1353162D02*
G03*
X2283460Y1354162I0J500D01*
G01*
D02*
G03*
X2283460Y1353162I0J-500D01*
G01*
D02*
G03*
X2283460Y1354162I0J500D01*
G01*
X2282190Y1042200D02*
G03*
X2282190Y1043200I0J500D01*
G01*
D02*
G03*
X2282190Y1042200I0J-500D01*
G01*
D02*
G03*
X2282190Y1043200I0J500D01*
G01*
X2282952Y1336698D02*
G03*
X2282952Y1335698I0J-500D01*
G01*
D02*
G03*
X2282952Y1336698I0J500D01*
G01*
D02*
G03*
X2282952Y1335698I0J-500D01*
G01*
X2285746Y722292D02*
G03*
X2285746Y723292I0J500D01*
G01*
D02*
G03*
X2285746Y722292I0J-500D01*
G01*
D02*
G03*
X2285746Y723292I0J500D01*
G01*
X2027698Y1181178D02*
X2087198D01*
Y1387778D01*
X2027698D02*
X2087198D01*
X2027698Y1181178D02*
Y1387778D01*
X1975836Y1313043D02*
Y1313818D01*
X2002837D01*
Y1313043D02*
Y1313818D01*
X1975836Y1298318D02*
Y1299093D01*
Y1298318D02*
X2002837D01*
Y1299093D01*
X1975836Y1280023D02*
Y1280798D01*
X2002837D01*
Y1280023D02*
Y1280798D01*
X1975836Y1265298D02*
Y1266073D01*
Y1265298D02*
X2002837D01*
Y1266073D01*
X1976344Y1245479D02*
Y1246254D01*
X2003345D01*
Y1245479D02*
Y1246254D01*
X1976344Y1230754D02*
Y1231529D01*
Y1230754D02*
X2003345D01*
Y1231529D01*
X2225394Y1515500D02*
Y1541000D01*
X2237894Y1515500D02*
Y1532500D01*
X1763558Y1319122D02*
X1765010D01*
X1763558Y1331622D02*
X1765010D01*
X1673760Y1461806D02*
Y1463258D01*
X1661260Y1461806D02*
Y1463258D01*
X1739096Y612516D02*
Y710316D01*
X1689496Y612516D02*
X1739096D01*
X1689496D02*
Y710316D01*
X1739096D01*
X2351236Y791680D02*
X2424736D01*
X2431736D02*
X2441236D01*
Y691680D02*
Y791680D01*
X2351236Y691680D02*
Y791680D01*
Y691680D02*
X2372736D01*
X2379738D02*
X2441236D01*
X2370236Y685679D02*
X2382236D01*
X2370236D02*
X2372734Y691680D01*
X2379738D02*
X2382236Y685679D01*
X2431736Y791680D02*
X2434234Y797681D01*
X2422234D02*
X2434234D01*
X2422234D02*
X2424732Y791680D01*
X1651859Y703813D02*
Y736875D01*
X1628297Y703813D02*
Y736875D01*
X1828954Y730540D02*
Y731992D01*
X1816454Y730540D02*
Y731992D01*
X1816200Y806232D02*
Y807684D01*
X1828700Y806232D02*
Y807684D01*
X1514448Y661706D02*
Y663158D01*
X1526948Y661706D02*
Y663158D01*
X1497173Y853537D02*
Y886599D01*
X1473611Y853537D02*
Y886599D01*
X1676554Y738414D02*
Y739866D01*
X1664054Y738414D02*
Y739866D01*
X1665070Y795056D02*
Y796508D01*
X1677570Y795056D02*
Y796508D01*
X1794410Y805978D02*
Y807430D01*
X1781910Y805978D02*
Y807430D01*
X1782418Y730032D02*
Y731484D01*
X1794918Y730032D02*
Y731484D01*
X1579529Y740389D02*
Y773451D01*
X1603091Y740389D02*
Y773451D01*
X1664054Y633258D02*
Y634710D01*
X1676554Y633258D02*
Y634710D01*
Y688122D02*
Y689574D01*
X1664054Y688122D02*
Y689574D01*
X1665070Y844427D02*
Y845878D01*
X1677570Y844427D02*
Y845878D01*
X1665578Y901323D02*
Y902774D01*
X1678078Y901323D02*
Y902774D01*
X1525712Y1156212D02*
X1531462D01*
X1557212Y1142212D01*
Y1053212D02*
Y1142212D01*
X1525712Y1053212D02*
X1557212D01*
X1454212D02*
X1485712D01*
X1454212D02*
Y1142212D01*
X1479962Y1156212D01*
X1485712D01*
X1828700Y1071757D02*
Y1073208D01*
X1816200Y1071757D02*
Y1073208D01*
X1642969Y1052301D02*
Y1085363D01*
X1619407Y1052301D02*
Y1085363D01*
X1526728Y1495998D02*
X1532478D01*
X1558228Y1481998D01*
Y1392998D02*
Y1481998D01*
X1526728Y1392998D02*
X1558228D01*
X1455228D02*
X1486728D01*
X1455228D02*
Y1481998D01*
X1480978Y1495998D01*
X1486728D01*
X1649827Y1370699D02*
Y1403761D01*
X1626265Y1370699D02*
Y1403761D01*
X1662022Y1143958D02*
Y1145409D01*
X1674522Y1143958D02*
Y1145409D01*
X1674268Y1088078D02*
Y1089529D01*
X1661768Y1088078D02*
Y1089529D01*
X1676046Y1032292D02*
Y1033744D01*
X1663546Y1032292D02*
Y1033744D01*
X1501494Y978793D02*
Y980244D01*
X1513994Y978793D02*
Y980244D01*
X1571909Y1086963D02*
Y1120025D01*
X1595471Y1086963D02*
Y1120025D01*
X1491077Y1181959D02*
Y1215021D01*
X1467515Y1181959D02*
Y1215021D01*
X1673760Y1567884D02*
Y1569335D01*
X1661260Y1567884D02*
Y1569335D01*
X1663292Y975396D02*
Y976848D01*
X1675792Y975396D02*
Y976848D01*
X1690512Y1053216D02*
X1740112D01*
X1690512Y955416D02*
Y1053216D01*
Y955416D02*
X1740112D01*
Y1053216D01*
X1815692Y1156150D02*
Y1157601D01*
X1828192Y1156150D02*
Y1157601D01*
X1792378Y1156150D02*
Y1157601D01*
X1779878Y1156150D02*
Y1157601D01*
X1779116Y1071662D02*
Y1073114D01*
X1791616Y1071662D02*
Y1073114D01*
X1661768Y1247430D02*
Y1248882D01*
X1674268Y1247430D02*
Y1248882D01*
X1661768Y1194250D02*
Y1195701D01*
X1674268Y1194250D02*
Y1195701D01*
X1790208Y624918D02*
Y704518D01*
X1849708D01*
Y624918D02*
Y704518D01*
X1790208Y624918D02*
X1849708D01*
X1789192Y833452D02*
Y913052D01*
X1848692D01*
Y833452D02*
Y913052D01*
X1789192Y833452D02*
X1848692D01*
X1790208Y964770D02*
Y1044370D01*
X1849708D01*
Y964770D02*
Y1044370D01*
X1790208Y964770D02*
X1849708D01*
X1788430Y1184226D02*
Y1263826D01*
X1847930D01*
Y1184226D02*
Y1263826D01*
X1788430Y1184226D02*
X1847930D01*
X1690512Y1273688D02*
X1740112D01*
X1690512Y1175888D02*
Y1273688D01*
Y1175888D02*
X1740112D01*
Y1273688D01*
X1690412Y1068192D02*
X1740012D01*
Y1165992D01*
X1690412D02*
X1740012D01*
X1690412Y1068192D02*
Y1165992D01*
X1689496Y922152D02*
X1739096D01*
X1689496Y824352D02*
Y922152D01*
Y824352D02*
X1739096D01*
Y922152D01*
X1688938Y718688D02*
X1738538D01*
Y816488D01*
X1688938D02*
X1738538D01*
X1688938Y718688D02*
Y816488D01*
X848009Y1253605D02*
Y1286667D01*
X871571Y1253605D02*
Y1286667D01*
X919129Y1254231D02*
Y1287293D01*
X942691Y1254231D02*
Y1287293D01*
X669512Y1138252D02*
Y1344852D01*
X729012D01*
Y1138252D02*
Y1344852D01*
X669512Y1138252D02*
X729012D01*
X896466Y1269528D02*
Y1270980D01*
X908966Y1269528D02*
Y1270980D01*
X823822Y1268926D02*
Y1270377D01*
X836322Y1268926D02*
Y1270377D01*
X754480Y1268418D02*
Y1269869D01*
X766980Y1268418D02*
Y1269869D01*
X778159Y1253097D02*
Y1286159D01*
X801721Y1253097D02*
Y1286159D01*
X1469801Y1527281D02*
Y1560343D01*
X1493363Y1527281D02*
Y1560343D01*
X1673506Y1511082D02*
Y1512534D01*
X1661006Y1511082D02*
Y1512534D01*
X1674268Y1354364D02*
Y1355816D01*
X1661768Y1354364D02*
Y1355816D01*
X1674268Y1298898D02*
Y1300349D01*
X1661768Y1298898D02*
Y1300349D01*
X1789838Y1390178D02*
Y1391630D01*
X1777338Y1390178D02*
Y1391630D01*
X1827938Y1391702D02*
Y1393154D01*
X1815438Y1391702D02*
Y1393154D01*
X1789838Y1473650D02*
Y1475101D01*
X1777338Y1473650D02*
Y1475101D01*
X1814676Y1473236D02*
Y1474688D01*
X1827176Y1473236D02*
Y1474688D01*
X1674014Y1405164D02*
Y1406616D01*
X1661514Y1405164D02*
Y1406616D01*
X1572671Y1428729D02*
Y1461791D01*
X1596233Y1428729D02*
Y1461791D01*
X1499716Y1308898D02*
Y1310350D01*
X1512216Y1308898D02*
Y1310350D01*
X1692698Y1385438D02*
X1742298D01*
Y1483238D01*
X1692698D02*
X1742298D01*
X1692698Y1385438D02*
Y1483238D01*
X911112Y1670570D02*
Y1710170D01*
X1692036Y1589410D02*
X1741636D01*
X1692036Y1491610D02*
Y1589410D01*
Y1491610D02*
X1741636D01*
Y1589410D01*
X1691732Y1375542D02*
X1741332D01*
X1691732Y1277742D02*
Y1375542D01*
Y1277742D02*
X1741332D01*
Y1375542D01*
X1788684Y1285318D02*
Y1364918D01*
X1848184D01*
Y1285318D02*
Y1364918D01*
X1788684Y1285318D02*
X1848184D01*
X1786858Y1501218D02*
Y1580818D01*
X1846358D01*
Y1501218D02*
Y1580818D01*
X1786858Y1501218D02*
X1846358D01*
X1486312Y809248D02*
X1492062D01*
X1460562Y795248D02*
X1486312Y809248D01*
X1460562Y706248D02*
Y795248D01*
Y706248D02*
X1492062D01*
X1532062D02*
X1563562D01*
Y795248D01*
X1537812Y809248D02*
X1563562Y795248D01*
X1532062Y809248D02*
X1537812D01*
X616474Y1646506D02*
Y1726106D01*
X675974D01*
Y1646506D02*
Y1726106D01*
X616474Y1646506D02*
X675974D01*
X932402Y1645998D02*
Y1725598D01*
X991902D01*
Y1645998D02*
Y1725598D01*
X932402Y1645998D02*
X991902D01*
X1214896Y1669554D02*
Y1709154D01*
X1236694Y1643712D02*
Y1723312D01*
X1296194D01*
Y1643712D02*
Y1723312D01*
X1236694Y1643712D02*
X1296194D01*
X1519696Y1667014D02*
Y1706614D01*
X1542002Y1649300D02*
Y1728900D01*
X1601502D01*
Y1649300D02*
Y1728900D01*
X1542002Y1649300D02*
X1601502D01*
X1823734Y1664474D02*
Y1704074D01*
X2155460Y1644728D02*
Y1724328D01*
X2214960D01*
Y1644728D02*
Y1724328D01*
X2155460Y1644728D02*
X2214960D01*
X2444764Y1662950D02*
Y1702550D01*
X1850104Y1642696D02*
Y1722296D01*
X1909604D01*
Y1642696D02*
Y1722296D01*
X1850104Y1642696D02*
X1909604D01*
X2129550Y1659902D02*
Y1699502D01*
X2257710Y1371662D02*
X2263460D01*
X2231960Y1385662D02*
X2257710Y1371662D01*
X2231960Y1385662D02*
Y1474662D01*
X2263460D01*
X2303460D02*
X2334960D01*
Y1385662D02*
Y1474662D01*
X2309210Y1371662D02*
X2334960Y1385662D01*
X2303460Y1371662D02*
X2309210D01*
X2256440Y1060700D02*
X2262190D01*
X2230690Y1074700D02*
X2256440Y1060700D01*
X2230690Y1074700D02*
Y1163700D01*
X2262190D01*
X2302190D02*
X2333690D01*
Y1074700D02*
Y1163700D01*
X2307940Y1060700D02*
X2333690Y1074700D01*
X2302190Y1060700D02*
X2307940D01*
X2302952Y1318198D02*
X2308702D01*
X2334452Y1304198D01*
Y1215198D02*
Y1304198D01*
X2302952Y1215198D02*
X2334452D01*
X2231452D02*
X2262952D01*
X2231452D02*
Y1304198D01*
X2257202Y1318198D01*
X2262952D01*
X2402426Y1148340D02*
X2445926Y1138182D01*
Y1138681D02*
Y1239267D01*
X2402426Y1229608D02*
X2445926Y1239766D01*
X2402426Y1148340D02*
Y1229608D01*
X2259996Y740792D02*
X2265746D01*
X2234246Y754792D02*
X2259996Y740792D01*
X2234246Y754792D02*
Y843792D01*
X2265746D01*
X2305746D02*
X2337246D01*
Y754792D02*
Y843792D01*
X2311496Y740792D02*
X2337246Y754792D01*
X2305746Y740792D02*
X2311496D01*
X2102908Y873628D02*
Y971428D01*
X2152508D01*
Y873628D02*
Y971428D01*
X2102908Y873628D02*
X2152508D01*
X2206954Y1077354D02*
Y1094854D01*
X2136954Y1077354D02*
Y1094854D01*
X1188080Y707940D02*
X1285880D01*
X1188080D02*
Y757540D01*
X1285880D01*
Y707940D02*
Y757540D01*
X1280292Y1045810D02*
Y1095410D01*
X1182492D02*
X1280292D01*
X1182492Y1045810D02*
Y1095410D01*
Y1045810D02*
X1280292D01*
X2397920Y1386592D02*
Y1467860D01*
X2441420Y1478018D01*
Y1376933D02*
Y1477518D01*
X2397920Y1386592D02*
X2441420Y1376434D01*
X2211526Y1476280D02*
Y1493780D01*
X2141526Y1476280D02*
Y1493780D01*
X2320492Y1538872D02*
Y1556372D01*
X2250492Y1538872D02*
Y1556372D01*
X640616Y1022494D02*
X714116D01*
X624116D02*
X633616D01*
X624116D02*
Y1122494D01*
X714116Y1022494D02*
Y1122494D01*
X692616D02*
X714116D01*
X624116D02*
X685614D01*
X683116Y1128495D02*
X695116D01*
X692618Y1122494D02*
X695116Y1128495D01*
X683116D02*
X685614Y1122494D01*
X631118Y1016493D02*
X633616Y1022494D01*
X631118Y1016493D02*
X643118D01*
X640620Y1022494D02*
X643118Y1016493D01*
X642314Y683806D02*
X715814D01*
X625814D02*
X635314D01*
X625814D02*
Y783806D01*
X715814Y683806D02*
Y783806D01*
X694314D02*
X715814D01*
X625814D02*
X687312D01*
X684814Y789807D02*
X696814D01*
X694316Y783806D02*
X696814Y789807D01*
X684814D02*
X687312Y783806D01*
X632816Y677805D02*
X635314Y683806D01*
X632816Y677805D02*
X644816D01*
X642318Y683806D02*
X644816Y677805D01*
X639774Y1362240D02*
X713274D01*
X623274D02*
X632774D01*
X623274D02*
Y1462240D01*
X713274Y1362240D02*
Y1462240D01*
X691774D02*
X713274D01*
X623274D02*
X684772D01*
X682274Y1468241D02*
X694274D01*
X691776Y1462240D02*
X694274Y1468241D01*
X682274D02*
X684772Y1462240D01*
X630276Y1356239D02*
X632774Y1362240D01*
X630276Y1356239D02*
X642276D01*
X639778Y1362240D02*
X642276Y1356239D01*
X1181476Y1392724D02*
X1279276D01*
X1181476D02*
Y1442324D01*
X1279276D01*
Y1392724D02*
Y1442324D01*
D11*
X2024698Y1373378D02*
G03*
X2024698Y1373378I-1250J0D01*
G01*
X1968224Y1294007D02*
G03*
X1968224Y1294007I-1250J0D01*
G01*
Y1260987D02*
G03*
X1968224Y1260987I-1250J0D01*
G01*
X1968732Y1226443D02*
G03*
X1968732Y1226443I-1250J0D01*
G01*
X1787208Y690118D02*
G03*
X1787208Y690118I-1250J0D01*
G01*
X1786192Y898652D02*
G03*
X1786192Y898652I-1250J0D01*
G01*
X1787208Y1029970D02*
G03*
X1787208Y1029970I-1250J0D01*
G01*
X1785430Y1249426D02*
G03*
X1785430Y1249426I-1250J0D01*
G01*
X666512Y1330452D02*
G03*
X666512Y1330452I-1250J0D01*
G01*
X910862Y1718670D02*
G03*
X910862Y1718670I-1250J0D01*
G01*
X1785684Y1350518D02*
G03*
X1785684Y1350518I-1250J0D01*
G01*
X1783858Y1566418D02*
G03*
X1783858Y1566418I-1250J0D01*
G01*
X613474Y1711706D02*
G03*
X613474Y1711706I-1250J0D01*
G01*
X929402Y1711198D02*
G03*
X929402Y1711198I-1250J0D01*
G01*
X1214646Y1717654D02*
G03*
X1214646Y1717654I-1250J0D01*
G01*
X1233694Y1708912D02*
G03*
X1233694Y1708912I-1250J0D01*
G01*
X1519446Y1715114D02*
G03*
X1519446Y1715114I-1250J0D01*
G01*
X1539002Y1714500D02*
G03*
X1539002Y1714500I-1250J0D01*
G01*
X1823484Y1712574D02*
G03*
X1823484Y1712574I-1250J0D01*
G01*
X2152460Y1709928D02*
G03*
X2152460Y1709928I-1250J0D01*
G01*
X2444514Y1711050D02*
G03*
X2444514Y1711050I-1250J0D01*
G01*
X1847104Y1707896D02*
G03*
X1847104Y1707896I-1250J0D01*
G01*
X2129300Y1708002D02*
G03*
X2129300Y1708002I-1250J0D01*
G01*
X2425426Y1133182D02*
G03*
X2425426Y1133182I-1250J0D01*
G01*
X2420920Y1371434D02*
G03*
X2420920Y1371434I-1250J0D01*
G01*
D12*
X1584198Y631444D02*
Y656844D01*
X1533398D02*
X1584198D01*
X1533398Y631444D02*
Y656844D01*
Y631444D02*
X1584198D01*
X1547368Y1284840D02*
Y1335640D01*
X1521968Y1284840D02*
X1547368D01*
X1521968D02*
Y1335640D01*
X1547368D01*
X1521968Y1004678D02*
X1547368D01*
X1521968Y953878D02*
Y1004678D01*
Y953878D02*
X1547368D01*
Y1004678D01*
X1169162Y757174D02*
X1184402D01*
X1133602D02*
X1148842D01*
X1133602Y731774D02*
X1184402D01*
Y757174D01*
X1148842D02*
X1169162D01*
X1133602Y731774D02*
Y757174D01*
X1163974Y1095248D02*
X1179214D01*
X1128414D02*
X1143654D01*
X1128414Y1069848D02*
X1179214D01*
Y1095248D01*
X1143654D02*
X1163974D01*
X1128414Y1069848D02*
Y1095248D01*
X1162050Y1442720D02*
X1177290D01*
X1126490D02*
X1141730D01*
X1126490Y1417320D02*
X1177290D01*
Y1442720D01*
X1141730D02*
X1162050D01*
X1126490Y1417320D02*
Y1442720D01*
X2240788Y1566667D02*
X2230631D01*
Y1564128D01*
X2240788Y1553971D01*
Y1551432D01*
X2230631D01*
X2225553D02*
X2220475D01*
X2223014D01*
Y1566667D01*
X2225553Y1564128D01*
X1681988Y1598835D02*
Y1614070D01*
X1674371D01*
X1671831Y1611531D01*
Y1606453D01*
X1674371Y1603914D01*
X1681988D01*
X1676910D02*
X1671831Y1598835D01*
X1666753Y1614070D02*
X1656596D01*
Y1611531D01*
X1666753Y1601375D01*
Y1598835D01*
X2361695Y822701D02*
X2366774D01*
X2364234D01*
Y810005D01*
X2366774Y807466D01*
X2369313D01*
X2371852Y810005D01*
X2356617Y807466D02*
X2351539D01*
X2354078D01*
Y822701D01*
X2356617Y820162D01*
X1556007Y1539236D02*
X1558546Y1541775D01*
X1563625D01*
X1566164Y1539236D01*
Y1529079D01*
X1563625Y1526540D01*
X1558546D01*
X1556007Y1529079D01*
X1550929Y1526540D02*
X1545851D01*
X1548390D01*
Y1541775D01*
X1550929Y1539236D01*
X1528076Y1541775D02*
X1533155Y1539236D01*
X1538233Y1534158D01*
Y1529079D01*
X1535694Y1526540D01*
X1530616D01*
X1528076Y1529079D01*
Y1531618D01*
X1530616Y1534158D01*
X1538233D01*
X2050038Y692407D02*
X2047499Y694947D01*
Y700025D01*
X2050038Y702564D01*
X2060195D01*
X2062734Y700025D01*
Y694947D01*
X2060195Y692407D01*
X2062734Y687329D02*
X2047499D01*
Y679711D01*
X2050038Y677172D01*
X2055116D01*
X2057656Y679711D01*
Y687329D01*
Y682251D02*
X2062734Y677172D01*
Y661937D02*
Y672094D01*
X2052577Y661937D01*
X2050038D01*
X2047499Y664476D01*
Y669555D01*
X2050038Y672094D01*
X2001774Y1309619D02*
Y1294384D01*
X1994156D01*
X1991617Y1296923D01*
Y1307080D01*
X1994156Y1309619D01*
X2001774D01*
X1976382Y1294384D02*
X1986539D01*
X1976382Y1304541D01*
Y1307080D01*
X1978921Y1309619D01*
X1984000D01*
X1986539Y1307080D01*
X1971304D02*
X1968765Y1309619D01*
X1963686D01*
X1961147Y1307080D01*
Y1296923D01*
X1963686Y1294384D01*
X1968765D01*
X1971304Y1296923D01*
Y1307080D01*
X1999234Y1342639D02*
Y1327404D01*
X1991617D01*
X1989077Y1329943D01*
Y1340100D01*
X1991617Y1342639D01*
X1999234D01*
X1983999Y1327404D02*
X1978921D01*
X1981460D01*
Y1342639D01*
X1983999Y1340100D01*
X1971303Y1329943D02*
X1968764Y1327404D01*
X1963685D01*
X1961146Y1329943D01*
Y1340100D01*
X1963685Y1342639D01*
X1968764D01*
X1971303Y1340100D01*
Y1337561D01*
X1968764Y1335022D01*
X1961146D01*
X1738630Y931672D02*
Y946907D01*
X1731013D01*
X1728473Y944368D01*
Y939289D01*
X1731013Y936750D01*
X1738630D01*
X1733552D02*
X1728473Y931672D01*
X1723395D02*
Y946907D01*
X1715777D01*
X1713238Y944368D01*
Y939289D01*
X1715777Y936750D01*
X1723395D01*
X1708160Y931672D02*
X1703082D01*
X1705621D01*
Y946907D01*
X1708160Y944368D01*
X1695464D02*
X1692925Y946907D01*
X1687846D01*
X1685307Y944368D01*
Y934211D01*
X1687846Y931672D01*
X1692925D01*
X1695464Y934211D01*
Y944368D01*
X1731518Y1175512D02*
Y1190747D01*
X1723900D01*
X1721361Y1188208D01*
Y1183130D01*
X1723900Y1180590D01*
X1731518D01*
X1726440D02*
X1721361Y1175512D01*
X1716283D02*
Y1190747D01*
X1708665D01*
X1706126Y1188208D01*
Y1183130D01*
X1708665Y1180590D01*
X1716283D01*
X1701048Y1178051D02*
X1698509Y1175512D01*
X1693430D01*
X1690891Y1178051D01*
Y1188208D01*
X1693430Y1190747D01*
X1698509D01*
X1701048Y1188208D01*
Y1185669D01*
X1698509Y1183130D01*
X1690891D01*
X1731772Y1062736D02*
Y1077971D01*
X1724155D01*
X1721615Y1075432D01*
Y1070353D01*
X1724155Y1067814D01*
X1731772D01*
X1726694D02*
X1721615Y1062736D01*
X1716537D02*
Y1077971D01*
X1708919D01*
X1706380Y1075432D01*
Y1070353D01*
X1708919Y1067814D01*
X1716537D01*
X1701302Y1077971D02*
X1691145D01*
Y1075432D01*
X1701302Y1065275D01*
Y1062736D01*
X1731772Y1283208D02*
Y1298443D01*
X1724155D01*
X1721615Y1295904D01*
Y1290826D01*
X1724155Y1288286D01*
X1731772D01*
X1726694D02*
X1721615Y1283208D01*
X1716537D02*
Y1298443D01*
X1708919D01*
X1706380Y1295904D01*
Y1290826D01*
X1708919Y1288286D01*
X1716537D01*
X1691145Y1298443D02*
X1696223Y1295904D01*
X1701302Y1290826D01*
Y1285747D01*
X1698763Y1283208D01*
X1693684D01*
X1691145Y1285747D01*
Y1288286D01*
X1693684Y1290826D01*
X1701302D01*
X1733804Y1492758D02*
Y1507993D01*
X1726187D01*
X1723647Y1505454D01*
Y1500376D01*
X1726187Y1497836D01*
X1733804D01*
X1728726D02*
X1723647Y1492758D01*
X1718569D02*
Y1507993D01*
X1710951D01*
X1708412Y1505454D01*
Y1500376D01*
X1710951Y1497836D01*
X1718569D01*
X1695716Y1492758D02*
Y1507993D01*
X1703334Y1500376D01*
X1693177D01*
X1740916Y1385062D02*
Y1400297D01*
X1733298D01*
X1730759Y1397758D01*
Y1392679D01*
X1733298Y1390140D01*
X1740916D01*
X1735838D02*
X1730759Y1385062D01*
X1725681D02*
Y1400297D01*
X1718063D01*
X1715524Y1397758D01*
Y1392679D01*
X1718063Y1390140D01*
X1725681D01*
X1700289Y1385062D02*
X1710446D01*
X1700289Y1395219D01*
Y1397758D01*
X1702828Y1400297D01*
X1707907D01*
X1710446Y1397758D01*
X1741170Y1598930D02*
Y1614165D01*
X1733553D01*
X1731013Y1611626D01*
Y1606548D01*
X1733553Y1604008D01*
X1741170D01*
X1736092D02*
X1731013Y1598930D01*
X1725935D02*
Y1614165D01*
X1718317D01*
X1715778Y1611626D01*
Y1606548D01*
X1718317Y1604008D01*
X1725935D01*
X1710700Y1598930D02*
X1705621D01*
X1708161D01*
Y1614165D01*
X1710700Y1611626D01*
X1818386Y760984D02*
Y776219D01*
X1810768D01*
X1808229Y773680D01*
Y768602D01*
X1810768Y766062D01*
X1818386D01*
X1813308D02*
X1808229Y760984D01*
X1803151Y776219D02*
X1792994D01*
Y773680D01*
X1803151Y763523D01*
Y760984D01*
X1787916Y763523D02*
X1785377Y760984D01*
X1780298D01*
X1777759Y763523D01*
Y773680D01*
X1780298Y776219D01*
X1785377D01*
X1787916Y773680D01*
Y771141D01*
X1785377Y768602D01*
X1777759D01*
X1700022Y769366D02*
Y784601D01*
X1692404D01*
X1689865Y782062D01*
Y776983D01*
X1692404Y774444D01*
X1700022D01*
X1694944D02*
X1689865Y769366D01*
X1684787Y784601D02*
X1674630D01*
Y782062D01*
X1684787Y771905D01*
Y769366D01*
X1659395Y784601D02*
X1664474Y782062D01*
X1669552Y776983D01*
Y771905D01*
X1667013Y769366D01*
X1661934D01*
X1659395Y771905D01*
Y774444D01*
X1661934Y776983D01*
X1669552D01*
X1852422Y761492D02*
Y776727D01*
X1844805D01*
X1842265Y774188D01*
Y769109D01*
X1844805Y766570D01*
X1852422D01*
X1847344D02*
X1842265Y761492D01*
X1837187Y776727D02*
X1827030D01*
Y774188D01*
X1837187Y764031D01*
Y761492D01*
X1811795Y776727D02*
X1821952D01*
Y769109D01*
X1816873Y771649D01*
X1814334D01*
X1811795Y769109D01*
Y764031D01*
X1814334Y761492D01*
X1819413D01*
X1821952Y764031D01*
X1700022Y719074D02*
Y734309D01*
X1692404D01*
X1689865Y731770D01*
Y726692D01*
X1692404Y724152D01*
X1700022D01*
X1694944D02*
X1689865Y719074D01*
X1684787Y734309D02*
X1674630D01*
Y731770D01*
X1684787Y721613D01*
Y719074D01*
X1669552Y731770D02*
X1667013Y734309D01*
X1661934D01*
X1659395Y731770D01*
Y729231D01*
X1661934Y726692D01*
X1664474D01*
X1661934D01*
X1659395Y724152D01*
Y721613D01*
X1661934Y719074D01*
X1667013D01*
X1669552Y721613D01*
X1852168Y837184D02*
Y852419D01*
X1844550D01*
X1842011Y849880D01*
Y844801D01*
X1844550Y842262D01*
X1852168D01*
X1847090D02*
X1842011Y837184D01*
X1836933Y852419D02*
X1826776D01*
Y849880D01*
X1836933Y839723D01*
Y837184D01*
X1811541D02*
X1821698D01*
X1811541Y847341D01*
Y849880D01*
X1814080Y852419D01*
X1819159D01*
X1821698Y849880D01*
X1700022Y664210D02*
Y679445D01*
X1692404D01*
X1689865Y676906D01*
Y671827D01*
X1692404Y669288D01*
X1700022D01*
X1694944D02*
X1689865Y664210D01*
X1674630Y679445D02*
X1679709Y676906D01*
X1684787Y671827D01*
Y666749D01*
X1682248Y664210D01*
X1677169D01*
X1674630Y666749D01*
Y669288D01*
X1677169Y671827D01*
X1684787D01*
X1669552Y666749D02*
X1667013Y664210D01*
X1661934D01*
X1659395Y666749D01*
Y676906D01*
X1661934Y679445D01*
X1667013D01*
X1669552Y676906D01*
Y674367D01*
X1667013Y671827D01*
X1659395D01*
X1701038Y826008D02*
Y841243D01*
X1693421D01*
X1690881Y838704D01*
Y833625D01*
X1693421Y831086D01*
X1701038D01*
X1695960D02*
X1690881Y826008D01*
X1675646Y841243D02*
X1680725Y838704D01*
X1685803Y833625D01*
Y828547D01*
X1683264Y826008D01*
X1678185D01*
X1675646Y828547D01*
Y831086D01*
X1678185Y833625D01*
X1685803D01*
X1670568Y841243D02*
X1660411D01*
Y838704D01*
X1670568Y828547D01*
Y826008D01*
X1697736Y1385316D02*
Y1400551D01*
X1690119D01*
X1687579Y1398012D01*
Y1392934D01*
X1690119Y1390394D01*
X1697736D01*
X1692658D02*
X1687579Y1385316D01*
X1672344D02*
X1682501D01*
X1672344Y1395473D01*
Y1398012D01*
X1674883Y1400551D01*
X1679962D01*
X1682501Y1398012D01*
X1667266D02*
X1664727Y1400551D01*
X1659648D01*
X1657109Y1398012D01*
Y1387855D01*
X1659648Y1385316D01*
X1664727D01*
X1667266Y1387855D01*
Y1398012D01*
X1782318Y1346454D02*
Y1361689D01*
X1774700D01*
X1772161Y1359150D01*
Y1354072D01*
X1774700Y1351532D01*
X1782318D01*
X1777240D02*
X1772161Y1346454D01*
X1767083D02*
X1762005D01*
X1764544D01*
Y1361689D01*
X1767083Y1359150D01*
X1744230Y1361689D02*
X1754387D01*
Y1354072D01*
X1749309Y1356611D01*
X1746770D01*
X1744230Y1354072D01*
Y1348993D01*
X1746770Y1346454D01*
X1751848D01*
X1754387Y1348993D01*
X1849374Y714502D02*
Y729737D01*
X1841756D01*
X1839217Y727198D01*
Y722120D01*
X1841756Y719580D01*
X1849374D01*
X1823982Y729737D02*
X1829061Y727198D01*
X1834139Y722120D01*
Y717041D01*
X1831600Y714502D01*
X1826521D01*
X1823982Y717041D01*
Y719580D01*
X1826521Y722120D01*
X1834139D01*
X1997202Y1275075D02*
Y1259840D01*
X1989585D01*
X1987045Y1262379D01*
Y1272536D01*
X1989585Y1275075D01*
X1997202D01*
X1971810Y1259840D02*
X1981967D01*
X1971810Y1269997D01*
Y1272536D01*
X1974349Y1275075D01*
X1979428D01*
X1981967Y1272536D01*
X1966732Y1259840D02*
X1961653D01*
X1964193D01*
Y1275075D01*
X1966732Y1272536D01*
X1738122Y826008D02*
Y841243D01*
X1730504D01*
X1727965Y838704D01*
Y833625D01*
X1730504Y831086D01*
X1738122D01*
X1733044D02*
X1727965Y826008D01*
X1722887D02*
Y841243D01*
X1715269D01*
X1712730Y838704D01*
Y833625D01*
X1715269Y831086D01*
X1722887D01*
X1707652Y826008D02*
X1702574D01*
X1705113D01*
Y841243D01*
X1707652Y838704D01*
X1694956D02*
X1692417Y841243D01*
X1687338D01*
X1684799Y838704D01*
Y836165D01*
X1687338Y833625D01*
X1689878D01*
X1687338D01*
X1684799Y831086D01*
Y828547D01*
X1687338Y826008D01*
X1692417D01*
X1694956Y828547D01*
X1738630Y719836D02*
Y735071D01*
X1731013D01*
X1728473Y732532D01*
Y727454D01*
X1731013Y724914D01*
X1738630D01*
X1733552D02*
X1728473Y719836D01*
X1723395D02*
Y735071D01*
X1715777D01*
X1713238Y732532D01*
Y727454D01*
X1715777Y724914D01*
X1723395D01*
X1708160Y719836D02*
X1703082D01*
X1705621D01*
Y735071D01*
X1708160Y732532D01*
X1695464Y719836D02*
X1690386D01*
X1692925D01*
Y735071D01*
X1695464Y732532D01*
X932434Y1300480D02*
Y1315715D01*
X924817D01*
X922277Y1313176D01*
Y1308098D01*
X924817Y1305558D01*
X932434D01*
X927356D02*
X922277Y1300480D01*
X917199Y1303019D02*
X914660Y1300480D01*
X909581D01*
X907042Y1303019D01*
Y1313176D01*
X909581Y1315715D01*
X914660D01*
X917199Y1313176D01*
Y1310637D01*
X914660Y1308098D01*
X907042D01*
X894346Y1300480D02*
Y1315715D01*
X901964Y1308098D01*
X891807D01*
X859790Y1299877D02*
Y1315112D01*
X852172D01*
X849633Y1312573D01*
Y1307495D01*
X852172Y1304956D01*
X859790D01*
X854712D02*
X849633Y1299877D01*
X844555Y1302417D02*
X842016Y1299877D01*
X836937D01*
X834398Y1302417D01*
Y1312573D01*
X836937Y1315112D01*
X842016D01*
X844555Y1312573D01*
Y1310034D01*
X842016Y1307495D01*
X834398D01*
X829320Y1312573D02*
X826781Y1315112D01*
X821702D01*
X819163Y1312573D01*
Y1310034D01*
X821702Y1307495D01*
X824241D01*
X821702D01*
X819163Y1304956D01*
Y1302417D01*
X821702Y1299877D01*
X826781D01*
X829320Y1302417D01*
X790448Y1299369D02*
Y1314604D01*
X782831D01*
X780291Y1312065D01*
Y1306987D01*
X782831Y1304448D01*
X790448D01*
X785370D02*
X780291Y1299369D01*
X775213Y1301909D02*
X772674Y1299369D01*
X767595D01*
X765056Y1301909D01*
Y1312065D01*
X767595Y1314604D01*
X772674D01*
X775213Y1312065D01*
Y1309526D01*
X772674Y1306987D01*
X765056D01*
X749821Y1299369D02*
X759978D01*
X749821Y1309526D01*
Y1312065D01*
X752360Y1314604D01*
X757439D01*
X759978Y1312065D01*
X1490980Y632206D02*
Y616971D01*
X1498598D01*
X1501137Y619510D01*
Y624589D01*
X1498598Y627128D01*
X1490980D01*
X1496058D02*
X1501137Y632206D01*
X1506215Y616971D02*
X1516372D01*
Y619510D01*
X1506215Y629667D01*
Y632206D01*
X1521450Y619510D02*
X1523989Y616971D01*
X1529068D01*
X1531607Y619510D01*
Y622049D01*
X1529068Y624589D01*
X1531607Y627128D01*
Y629667D01*
X1529068Y632206D01*
X1523989D01*
X1521450Y629667D01*
Y627128D01*
X1523989Y624589D01*
X1521450Y622049D01*
Y619510D01*
X1523989Y624589D02*
X1529068D01*
X1817878Y836930D02*
Y852165D01*
X1810260D01*
X1807721Y849626D01*
Y844548D01*
X1810260Y842008D01*
X1817878D01*
X1812800D02*
X1807721Y836930D01*
X1802643Y852165D02*
X1792486D01*
Y849626D01*
X1802643Y839469D01*
Y836930D01*
X1787408Y852165D02*
X1777251D01*
Y849626D01*
X1787408Y839469D01*
Y836930D01*
X1642110Y871917D02*
Y856682D01*
X1649727D01*
X1652267Y859221D01*
Y864299D01*
X1649727Y866839D01*
X1642110D01*
X1647188D02*
X1652267Y871917D01*
X1667502Y856682D02*
X1662423Y859221D01*
X1657345Y864299D01*
Y869378D01*
X1659884Y871917D01*
X1664963D01*
X1667502Y869378D01*
Y866839D01*
X1664963Y864299D01*
X1657345D01*
X1672580Y859221D02*
X1675119Y856682D01*
X1680198D01*
X1682737Y859221D01*
Y869378D01*
X1680198Y871917D01*
X1675119D01*
X1672580Y869378D01*
Y859221D01*
X1701038Y875378D02*
Y890614D01*
X1693421D01*
X1690881Y888074D01*
Y882996D01*
X1693421Y880457D01*
X1701038D01*
X1695960D02*
X1690881Y875378D01*
X1675646Y890614D02*
X1685803D01*
Y882996D01*
X1680725Y885535D01*
X1678185D01*
X1675646Y882996D01*
Y877918D01*
X1678185Y875378D01*
X1683264D01*
X1685803Y877918D01*
X1660411Y890614D02*
X1665490Y888074D01*
X1670568Y882996D01*
Y877918D01*
X1668029Y875378D01*
X1662950D01*
X1660411Y877918D01*
Y880457D01*
X1662950Y882996D01*
X1670568D01*
X1815084Y1102614D02*
Y1117849D01*
X1807466D01*
X1804927Y1115310D01*
Y1110231D01*
X1807466Y1107692D01*
X1815084D01*
X1810006D02*
X1804927Y1102614D01*
X1789692Y1117849D02*
X1799849D01*
Y1110231D01*
X1794771Y1112771D01*
X1792231D01*
X1789692Y1110231D01*
Y1105153D01*
X1792231Y1102614D01*
X1797310D01*
X1799849Y1105153D01*
X1784614Y1115310D02*
X1782075Y1117849D01*
X1776996D01*
X1774457Y1115310D01*
Y1112771D01*
X1776996Y1110231D01*
X1779536D01*
X1776996D01*
X1774457Y1107692D01*
Y1105153D01*
X1776996Y1102614D01*
X1782075D01*
X1784614Y1105153D01*
X1518666Y1009650D02*
Y1024885D01*
X1511048D01*
X1508509Y1022346D01*
Y1017268D01*
X1511048Y1014728D01*
X1518666D01*
X1513588D02*
X1508509Y1009650D01*
X1493274Y1024885D02*
X1503431D01*
Y1017268D01*
X1498353Y1019807D01*
X1495813D01*
X1493274Y1017268D01*
Y1012189D01*
X1495813Y1009650D01*
X1500892D01*
X1503431Y1012189D01*
X1478039Y1009650D02*
X1488196D01*
X1478039Y1019807D01*
Y1022346D01*
X1480578Y1024885D01*
X1485657D01*
X1488196Y1022346D01*
X1810766Y1186942D02*
Y1202177D01*
X1803148D01*
X1800609Y1199638D01*
Y1194559D01*
X1803148Y1192020D01*
X1810766D01*
X1805688D02*
X1800609Y1186942D01*
X1785374Y1202177D02*
X1795531D01*
Y1194559D01*
X1790453Y1197099D01*
X1787913D01*
X1785374Y1194559D01*
Y1189481D01*
X1787913Y1186942D01*
X1792992D01*
X1795531Y1189481D01*
X1780296Y1186942D02*
X1775217D01*
X1777757D01*
Y1202177D01*
X1780296Y1199638D01*
X1697736Y1119029D02*
Y1134265D01*
X1690119D01*
X1687579Y1131725D01*
Y1126647D01*
X1690119Y1124108D01*
X1697736D01*
X1692658D02*
X1687579Y1119029D01*
X1672344Y1134265D02*
X1682501D01*
Y1126647D01*
X1677423Y1129186D01*
X1674883D01*
X1672344Y1126647D01*
Y1121569D01*
X1674883Y1119029D01*
X1679962D01*
X1682501Y1121569D01*
X1667266Y1131725D02*
X1664727Y1134265D01*
X1659648D01*
X1657109Y1131725D01*
Y1121569D01*
X1659648Y1119029D01*
X1664727D01*
X1667266Y1121569D01*
Y1131725D01*
X1852168Y1102614D02*
Y1117849D01*
X1844550D01*
X1842011Y1115310D01*
Y1110231D01*
X1844550Y1107692D01*
X1852168D01*
X1847090D02*
X1842011Y1102614D01*
X1829315D02*
Y1117849D01*
X1836933Y1110231D01*
X1826776D01*
X1821698Y1105153D02*
X1819159Y1102614D01*
X1814080D01*
X1811541Y1105153D01*
Y1115310D01*
X1814080Y1117849D01*
X1819159D01*
X1821698Y1115310D01*
Y1112771D01*
X1819159Y1110231D01*
X1811541D01*
X1699514Y1063244D02*
Y1078479D01*
X1691897D01*
X1689357Y1075940D01*
Y1070862D01*
X1691897Y1068322D01*
X1699514D01*
X1694436D02*
X1689357Y1063244D01*
X1676661D02*
Y1078479D01*
X1684279Y1070862D01*
X1674122D01*
X1669044Y1078479D02*
X1658887D01*
Y1075940D01*
X1669044Y1065783D01*
Y1063244D01*
X1851660Y1186942D02*
Y1202177D01*
X1844043D01*
X1841503Y1199638D01*
Y1194559D01*
X1844043Y1192020D01*
X1851660D01*
X1846582D02*
X1841503Y1186942D01*
X1828807D02*
Y1202177D01*
X1836425Y1194559D01*
X1826268D01*
X1811033Y1202177D02*
X1816111Y1199638D01*
X1821190Y1194559D01*
Y1189481D01*
X1818651Y1186942D01*
X1813572D01*
X1811033Y1189481D01*
Y1192020D01*
X1813572Y1194559D01*
X1821190D01*
X1699260Y1006348D02*
Y1021583D01*
X1691642D01*
X1689103Y1019044D01*
Y1013966D01*
X1691642Y1011426D01*
X1699260D01*
X1694182D02*
X1689103Y1006348D01*
X1676407D02*
Y1021583D01*
X1684025Y1013966D01*
X1673868D01*
X1668790Y1019044D02*
X1666251Y1021583D01*
X1661172D01*
X1658633Y1019044D01*
Y1016505D01*
X1661172Y1013966D01*
X1663712D01*
X1661172D01*
X1658633Y1011426D01*
Y1008887D01*
X1661172Y1006348D01*
X1666251D01*
X1668790Y1008887D01*
X1692910Y1174909D02*
Y1190145D01*
X1685293D01*
X1682753Y1187605D01*
Y1182527D01*
X1685293Y1179988D01*
X1692910D01*
X1687832D02*
X1682753Y1174909D01*
X1670057D02*
Y1190145D01*
X1677675Y1182527D01*
X1667518D01*
X1662440Y1174909D02*
X1657361D01*
X1659901D01*
Y1190145D01*
X1662440Y1187605D01*
X1697736Y1278382D02*
Y1293617D01*
X1690119D01*
X1687579Y1291078D01*
Y1285999D01*
X1690119Y1283460D01*
X1697736D01*
X1692658D02*
X1687579Y1278382D01*
X1682501Y1291078D02*
X1679962Y1293617D01*
X1674883D01*
X1672344Y1291078D01*
Y1288539D01*
X1674883Y1285999D01*
X1677423D01*
X1674883D01*
X1672344Y1283460D01*
Y1280921D01*
X1674883Y1278382D01*
X1679962D01*
X1682501Y1280921D01*
X1659648Y1278382D02*
Y1293617D01*
X1667266Y1285999D01*
X1657109D01*
X1697736Y1225042D02*
Y1240277D01*
X1690119D01*
X1687579Y1237738D01*
Y1232660D01*
X1690119Y1230120D01*
X1697736D01*
X1692658D02*
X1687579Y1225042D01*
X1672344D02*
X1682501D01*
X1672344Y1235199D01*
Y1237738D01*
X1674883Y1240277D01*
X1679962D01*
X1682501Y1237738D01*
X1667266Y1227581D02*
X1664727Y1225042D01*
X1659648D01*
X1657109Y1227581D01*
Y1237738D01*
X1659648Y1240277D01*
X1664727D01*
X1667266Y1237738D01*
Y1235199D01*
X1664727Y1232660D01*
X1657109D01*
X1813306Y1421130D02*
Y1436365D01*
X1805688D01*
X1803149Y1433826D01*
Y1428748D01*
X1805688Y1426208D01*
X1813306D01*
X1808228D02*
X1803149Y1421130D01*
X1787914D02*
X1798071D01*
X1787914Y1431287D01*
Y1433826D01*
X1790453Y1436365D01*
X1795532D01*
X1798071Y1433826D01*
X1772679Y1436365D02*
X1777758Y1433826D01*
X1782836Y1428748D01*
Y1423669D01*
X1780297Y1421130D01*
X1775218D01*
X1772679Y1423669D01*
Y1426208D01*
X1775218Y1428748D01*
X1782836D01*
X1535684Y1339850D02*
Y1355085D01*
X1528067D01*
X1525527Y1352546D01*
Y1347467D01*
X1528067Y1344928D01*
X1535684D01*
X1530606D02*
X1525527Y1339850D01*
X1510292D02*
X1520449D01*
X1510292Y1350007D01*
Y1352546D01*
X1512831Y1355085D01*
X1517910D01*
X1520449Y1352546D01*
X1495057Y1355085D02*
X1505214D01*
Y1347467D01*
X1500135Y1350007D01*
X1497596D01*
X1495057Y1347467D01*
Y1342389D01*
X1497596Y1339850D01*
X1502675D01*
X1505214Y1342389D01*
X1813306Y1504601D02*
Y1519836D01*
X1805688D01*
X1803149Y1517297D01*
Y1512219D01*
X1805688Y1509680D01*
X1813306D01*
X1808228D02*
X1803149Y1504601D01*
X1787914D02*
X1798071D01*
X1787914Y1514758D01*
Y1517297D01*
X1790453Y1519836D01*
X1795532D01*
X1798071Y1517297D01*
X1775218Y1504601D02*
Y1519836D01*
X1782836Y1512219D01*
X1772679D01*
X1638046Y1375823D02*
Y1360588D01*
X1645663D01*
X1648203Y1363127D01*
Y1368206D01*
X1645663Y1370745D01*
X1638046D01*
X1643124D02*
X1648203Y1375823D01*
X1663438D02*
X1653281D01*
X1663438Y1365667D01*
Y1363127D01*
X1660899Y1360588D01*
X1655820D01*
X1653281Y1363127D01*
X1668516D02*
X1671055Y1360588D01*
X1676134D01*
X1678673Y1363127D01*
Y1365667D01*
X1676134Y1368206D01*
X1673595D01*
X1676134D01*
X1678673Y1370745D01*
Y1373284D01*
X1676134Y1375823D01*
X1671055D01*
X1668516Y1373284D01*
X1851406Y1422654D02*
Y1437889D01*
X1843788D01*
X1841249Y1435350D01*
Y1430271D01*
X1843788Y1427732D01*
X1851406D01*
X1846328D02*
X1841249Y1422654D01*
X1826014D02*
X1836171D01*
X1826014Y1432811D01*
Y1435350D01*
X1828553Y1437889D01*
X1833632D01*
X1836171Y1435350D01*
X1810779Y1422654D02*
X1820936D01*
X1810779Y1432811D01*
Y1435350D01*
X1813318Y1437889D01*
X1818397D01*
X1820936Y1435350D01*
X1848104Y1504029D02*
Y1519264D01*
X1840486D01*
X1837947Y1516724D01*
Y1511646D01*
X1840486Y1509107D01*
X1848104D01*
X1843026D02*
X1837947Y1504029D01*
X1832869D02*
X1827791D01*
X1830330D01*
Y1519264D01*
X1832869Y1516724D01*
X1820173Y1506568D02*
X1817634Y1504029D01*
X1812556D01*
X1810016Y1506568D01*
Y1516724D01*
X1812556Y1519264D01*
X1817634D01*
X1820173Y1516724D01*
Y1514185D01*
X1817634Y1511646D01*
X1810016D01*
X1695196Y1329849D02*
Y1345085D01*
X1687578D01*
X1685039Y1342545D01*
Y1337467D01*
X1687578Y1334928D01*
X1695196D01*
X1690118D02*
X1685039Y1329849D01*
X1679961D02*
X1674883D01*
X1677422D01*
Y1345085D01*
X1679961Y1342545D01*
X1657108Y1345085D02*
X1662187Y1342545D01*
X1667265Y1337467D01*
Y1332389D01*
X1664726Y1329849D01*
X1659648D01*
X1657108Y1332389D01*
Y1334928D01*
X1659648Y1337467D01*
X1667265D01*
X1640332Y1432401D02*
Y1417165D01*
X1647950D01*
X1650489Y1419705D01*
Y1424783D01*
X1647950Y1427322D01*
X1640332D01*
X1645410D02*
X1650489Y1432401D01*
X1655567D02*
X1660645D01*
X1658106D01*
Y1417165D01*
X1655567Y1419705D01*
X1675880Y1432401D02*
Y1417165D01*
X1668263Y1424783D01*
X1678420D01*
X1681734Y1542034D02*
Y1557269D01*
X1674117D01*
X1671577Y1554730D01*
Y1549651D01*
X1674117Y1547112D01*
X1681734D01*
X1676656D02*
X1671577Y1542034D01*
X1656342D02*
X1666499D01*
X1656342Y1552191D01*
Y1554730D01*
X1658881Y1557269D01*
X1663960D01*
X1666499Y1554730D01*
X690626Y1354836D02*
Y1370071D01*
X683008D01*
X680469Y1367532D01*
Y1362453D01*
X683008Y1359914D01*
X690626D01*
X675391Y1367532D02*
X672852Y1370071D01*
X667773D01*
X665234Y1367532D01*
Y1364993D01*
X667773Y1362453D01*
X665234Y1359914D01*
Y1357375D01*
X667773Y1354836D01*
X672852D01*
X675391Y1357375D01*
Y1359914D01*
X672852Y1362453D01*
X675391Y1364993D01*
Y1367532D01*
X672852Y1362453D02*
X667773D01*
X2053741Y1281670D02*
Y1296905D01*
X2046124D01*
X2043585Y1294366D01*
Y1289288D01*
X2046124Y1286749D01*
X2053741D01*
X2038506Y1296905D02*
X2028350D01*
Y1294366D01*
X2038506Y1284209D01*
Y1281670D01*
X1848358Y923036D02*
Y938271D01*
X1840741D01*
X1838201Y935732D01*
Y930654D01*
X1840741Y928114D01*
X1848358D01*
X1822966Y938271D02*
X1833123D01*
Y930654D01*
X1828045Y933193D01*
X1825505D01*
X1822966Y930654D01*
Y925575D01*
X1825505Y923036D01*
X1830584D01*
X1833123Y925575D01*
X1811274Y1054354D02*
Y1069589D01*
X1803656D01*
X1801117Y1067050D01*
Y1061972D01*
X1803656Y1059432D01*
X1811274D01*
X1788421Y1054354D02*
Y1069589D01*
X1796039Y1061972D01*
X1785882D01*
X1809496Y1273810D02*
Y1289045D01*
X1801879D01*
X1799339Y1286506D01*
Y1281427D01*
X1801879Y1278888D01*
X1809496D01*
X1794261Y1286506D02*
X1791722Y1289045D01*
X1786643D01*
X1784104Y1286506D01*
Y1283967D01*
X1786643Y1281427D01*
X1789183D01*
X1786643D01*
X1784104Y1278888D01*
Y1276349D01*
X1786643Y1273810D01*
X1791722D01*
X1794261Y1276349D01*
X1847850Y1374902D02*
Y1390137D01*
X1840233D01*
X1837693Y1387598D01*
Y1382520D01*
X1840233Y1379980D01*
X1847850D01*
X1822458Y1374902D02*
X1832615D01*
X1822458Y1385059D01*
Y1387598D01*
X1824997Y1390137D01*
X1830076D01*
X1832615Y1387598D01*
X1846072Y1590802D02*
Y1606037D01*
X1838454D01*
X1835915Y1603498D01*
Y1598419D01*
X1838454Y1595880D01*
X1846072D01*
X1830837Y1590802D02*
X1825759D01*
X1828298D01*
Y1606037D01*
X1830837Y1603498D01*
X950217Y1313684D02*
X952757Y1316223D01*
X957835D01*
X960374Y1313684D01*
Y1303527D01*
X957835Y1300988D01*
X952757D01*
X950217Y1303527D01*
X945139Y1313684D02*
X942600Y1316223D01*
X937521D01*
X934982Y1313684D01*
Y1311145D01*
X937521Y1308605D01*
X940061D01*
X937521D01*
X934982Y1306066D01*
Y1303527D01*
X937521Y1300988D01*
X942600D01*
X945139Y1303527D01*
X929904Y1313684D02*
X927365Y1316223D01*
X922286D01*
X919747Y1313684D01*
Y1303527D01*
X922286Y1300988D01*
X927365D01*
X929904Y1303527D01*
Y1313684D01*
X879097Y1313058D02*
X881637Y1315597D01*
X886715D01*
X889254Y1313058D01*
Y1302901D01*
X886715Y1300362D01*
X881637D01*
X879097Y1302901D01*
X863862Y1300362D02*
X874019D01*
X863862Y1310519D01*
Y1313058D01*
X866401Y1315597D01*
X871480D01*
X874019Y1313058D01*
X858784Y1302901D02*
X856245Y1300362D01*
X851166D01*
X848627Y1302901D01*
Y1313058D01*
X851166Y1315597D01*
X856245D01*
X858784Y1313058D01*
Y1310519D01*
X856245Y1307980D01*
X848627D01*
X809247Y1312414D02*
X811786Y1314953D01*
X816865D01*
X819404Y1312414D01*
Y1302257D01*
X816865Y1299718D01*
X811786D01*
X809247Y1302257D01*
X794012Y1299718D02*
X804169D01*
X794012Y1309875D01*
Y1312414D01*
X796551Y1314953D01*
X801630D01*
X804169Y1312414D01*
X788934D02*
X786395Y1314953D01*
X781316D01*
X778777Y1312414D01*
Y1309875D01*
X781316Y1307336D01*
X778777Y1304796D01*
Y1302257D01*
X781316Y1299718D01*
X786395D01*
X788934Y1302257D01*
Y1304796D01*
X786395Y1307336D01*
X788934Y1309875D01*
Y1312414D01*
X786395Y1307336D02*
X781316D01*
X1610617Y799842D02*
X1613156Y802381D01*
X1618235D01*
X1620774Y799842D01*
Y789685D01*
X1618235Y787146D01*
X1613156D01*
X1610617Y789685D01*
X1595382Y787146D02*
X1605539D01*
X1595382Y797303D01*
Y799842D01*
X1597921Y802381D01*
X1603000D01*
X1605539Y799842D01*
X1582686Y787146D02*
Y802381D01*
X1590304Y794763D01*
X1580147D01*
X1659385Y763130D02*
X1661924Y765669D01*
X1667003D01*
X1669542Y763130D01*
Y752973D01*
X1667003Y750434D01*
X1661924D01*
X1659385Y752973D01*
X1644150Y750434D02*
X1654307D01*
X1644150Y760591D01*
Y763130D01*
X1646689Y765669D01*
X1651768D01*
X1654307Y763130D01*
X1639072D02*
X1636533Y765669D01*
X1631454D01*
X1628915Y763130D01*
Y760591D01*
X1631454Y758051D01*
X1633994D01*
X1631454D01*
X1628915Y755512D01*
Y752973D01*
X1631454Y750434D01*
X1636533D01*
X1639072Y752973D01*
X1554991Y1199638D02*
X1557531Y1202177D01*
X1562609D01*
X1565148Y1199638D01*
Y1189481D01*
X1562609Y1186942D01*
X1557531D01*
X1554991Y1189481D01*
X1539756Y1186942D02*
X1549913D01*
X1539756Y1197099D01*
Y1199638D01*
X1542295Y1202177D01*
X1547374D01*
X1549913Y1199638D01*
X1524521Y1186942D02*
X1534678D01*
X1524521Y1197099D01*
Y1199638D01*
X1527060Y1202177D01*
X1532139D01*
X1534678Y1199638D01*
X1502159Y912872D02*
X1504698Y915411D01*
X1509777D01*
X1512316Y912872D01*
Y902715D01*
X1509777Y900176D01*
X1504698D01*
X1502159Y902715D01*
X1497081Y900176D02*
X1492003D01*
X1494542D01*
Y915411D01*
X1497081Y912872D01*
X1484385Y902715D02*
X1481846Y900176D01*
X1476767D01*
X1474228Y902715D01*
Y912872D01*
X1476767Y915411D01*
X1481846D01*
X1484385Y912872D01*
Y910333D01*
X1481846Y907794D01*
X1474228D01*
X1600457Y1146298D02*
X1602997Y1148837D01*
X1608075D01*
X1610614Y1146298D01*
Y1136141D01*
X1608075Y1133602D01*
X1602997D01*
X1600457Y1136141D01*
X1595379Y1133602D02*
X1590301D01*
X1592840D01*
Y1148837D01*
X1595379Y1146298D01*
X1582683D02*
X1580144Y1148837D01*
X1575065D01*
X1572526Y1146298D01*
Y1143759D01*
X1575065Y1141219D01*
X1572526Y1138680D01*
Y1136141D01*
X1575065Y1133602D01*
X1580144D01*
X1582683Y1136141D01*
Y1138680D01*
X1580144Y1141219D01*
X1582683Y1143759D01*
Y1146298D01*
X1580144Y1141219D02*
X1575065D01*
X1614421Y1026046D02*
X1611882Y1023507D01*
X1606803D01*
X1604264Y1026046D01*
Y1036203D01*
X1606803Y1038742D01*
X1611882D01*
X1614421Y1036203D01*
X1619499Y1038742D02*
X1624577D01*
X1622038D01*
Y1023507D01*
X1619499Y1026046D01*
X1632195Y1023507D02*
X1642352D01*
Y1026046D01*
X1632195Y1036203D01*
Y1038742D01*
X1496063Y1241294D02*
X1498602Y1243833D01*
X1503681D01*
X1506220Y1241294D01*
Y1231137D01*
X1503681Y1228598D01*
X1498602D01*
X1496063Y1231137D01*
X1490985Y1228598D02*
X1485907D01*
X1488446D01*
Y1243833D01*
X1490985Y1241294D01*
X1478289D02*
X1475750Y1243833D01*
X1470672D01*
X1468132Y1241294D01*
Y1238755D01*
X1470672Y1236216D01*
X1473211D01*
X1470672D01*
X1468132Y1233676D01*
Y1231137D01*
X1470672Y1228598D01*
X1475750D01*
X1478289Y1231137D01*
X1601219Y1488182D02*
X1603759Y1490721D01*
X1608837D01*
X1611376Y1488182D01*
Y1478025D01*
X1608837Y1475486D01*
X1603759D01*
X1601219Y1478025D01*
X1596141Y1475486D02*
X1591063D01*
X1593602D01*
Y1490721D01*
X1596141Y1488182D01*
X1583445D02*
X1580906Y1490721D01*
X1575827D01*
X1573288Y1488182D01*
Y1478025D01*
X1575827Y1475486D01*
X1580906D01*
X1583445Y1478025D01*
Y1488182D01*
X1633979Y1344308D02*
X1631440Y1341769D01*
X1626361D01*
X1623822Y1344308D01*
Y1354465D01*
X1626361Y1357004D01*
X1631440D01*
X1633979Y1354465D01*
X1639057D02*
X1641596Y1357004D01*
X1646675D01*
X1649214Y1354465D01*
Y1344308D01*
X1646675Y1341769D01*
X1641596D01*
X1639057Y1344308D01*
Y1346847D01*
X1641596Y1349387D01*
X1649214D01*
X1561341Y852674D02*
X1563880Y855213D01*
X1568959D01*
X1571498Y852674D01*
Y842517D01*
X1568959Y839978D01*
X1563880D01*
X1561341Y842517D01*
X1556263Y852674D02*
X1553724Y855213D01*
X1548645D01*
X1546106Y852674D01*
Y850135D01*
X1548645Y847596D01*
X1546106Y845056D01*
Y842517D01*
X1548645Y839978D01*
X1553724D01*
X1556263Y842517D01*
Y845056D01*
X1553724Y847596D01*
X1556263Y850135D01*
Y852674D01*
X1553724Y847596D02*
X1548645D01*
X1592320Y1734823D02*
Y1750058D01*
X1584702D01*
X1582163Y1747518D01*
Y1742440D01*
X1584702Y1739901D01*
X1592320D01*
X1577085Y1734823D02*
X1572006D01*
X1574546D01*
Y1750058D01*
X1577085Y1747518D01*
X1556771Y1734823D02*
Y1750058D01*
X1564389Y1742440D01*
X1554232D01*
X2202682Y1730759D02*
Y1745993D01*
X2195064D01*
X2192525Y1743454D01*
Y1738376D01*
X2195064Y1735837D01*
X2202682D01*
X2187447Y1730759D02*
X2182368D01*
X2184908D01*
Y1745993D01*
X2187447Y1743454D01*
X2174751D02*
X2172212Y1745993D01*
X2167133D01*
X2164594Y1743454D01*
Y1740915D01*
X2167133Y1738376D01*
X2169673D01*
X2167133D01*
X2164594Y1735837D01*
Y1733298D01*
X2167133Y1730759D01*
X2172212D01*
X2174751Y1733298D01*
X1896358Y1728981D02*
Y1744216D01*
X1888740D01*
X1886201Y1741676D01*
Y1736598D01*
X1888740Y1734059D01*
X1896358D01*
X1881123Y1728981D02*
X1876044D01*
X1878584D01*
Y1744216D01*
X1881123Y1741676D01*
X1858270Y1728981D02*
X1868427D01*
X1858270Y1739137D01*
Y1741676D01*
X1860809Y1744216D01*
X1865888D01*
X1868427Y1741676D01*
X1282441Y1730759D02*
Y1745993D01*
X1274823D01*
X1272284Y1743454D01*
Y1738376D01*
X1274823Y1735837D01*
X1282441D01*
X1267206Y1730759D02*
X1262127D01*
X1264666D01*
Y1745993D01*
X1267206Y1743454D01*
X1254510Y1730759D02*
X1249431D01*
X1251971D01*
Y1745993D01*
X1254510Y1743454D01*
X663696Y1732283D02*
Y1747518D01*
X656078D01*
X653539Y1744978D01*
Y1739900D01*
X656078Y1737361D01*
X663696D01*
X648461Y1732283D02*
X643382D01*
X645922D01*
Y1747518D01*
X648461Y1744978D01*
X635765D02*
X633226Y1747518D01*
X628147D01*
X625608Y1744978D01*
Y1734822D01*
X628147Y1732283D01*
X633226D01*
X635765Y1734822D01*
Y1744978D01*
X973832Y1731774D02*
Y1747009D01*
X966214D01*
X963675Y1744470D01*
Y1739392D01*
X966214Y1736853D01*
X973832D01*
X958597Y1734314D02*
X956058Y1731774D01*
X950979D01*
X948440Y1734314D01*
Y1744470D01*
X950979Y1747009D01*
X956058D01*
X958597Y1744470D01*
Y1741931D01*
X956058Y1739392D01*
X948440D01*
X1760730Y1704079D02*
X1775966D01*
X1768348D01*
Y1693923D01*
X1760730D01*
X1775966D01*
X1763270Y1678688D02*
X1760730Y1681227D01*
Y1686305D01*
X1763270Y1688844D01*
X1765809D01*
X1768348Y1686305D01*
Y1681227D01*
X1770887Y1678688D01*
X1773426D01*
X1775966Y1681227D01*
Y1686305D01*
X1773426Y1688844D01*
X1760730Y1663452D02*
X1763270Y1668531D01*
X1768348Y1673609D01*
X1773426D01*
X1775966Y1671070D01*
Y1665992D01*
X1773426Y1663452D01*
X1770887D01*
X1768348Y1665992D01*
Y1673609D01*
X2380236Y1705095D02*
X2395471D01*
X2387854D01*
Y1694939D01*
X2380236D01*
X2395471D01*
X2382776Y1679704D02*
X2380236Y1682243D01*
Y1687321D01*
X2382776Y1689860D01*
X2385315D01*
X2387854Y1687321D01*
Y1682243D01*
X2390393Y1679704D01*
X2392932D01*
X2395471Y1682243D01*
Y1687321D01*
X2392932Y1689860D01*
X2380236Y1664469D02*
Y1674625D01*
X2387854D01*
X2385315Y1669547D01*
Y1667008D01*
X2387854Y1664469D01*
X2392932D01*
X2395471Y1667008D01*
Y1672086D01*
X2392932Y1674625D01*
X2065531Y1698745D02*
X2080766D01*
X2073148D01*
Y1688589D01*
X2065531D01*
X2080766D01*
X2068070Y1673354D02*
X2065531Y1675893D01*
Y1680971D01*
X2068070Y1683510D01*
X2070609D01*
X2073148Y1680971D01*
Y1675893D01*
X2075687Y1673354D01*
X2078226D01*
X2080766Y1675893D01*
Y1680971D01*
X2078226Y1683510D01*
X2080766Y1660658D02*
X2065531D01*
X2073148Y1668275D01*
Y1658119D01*
X1457708Y1706365D02*
X1472944D01*
X1465326D01*
Y1696209D01*
X1457708D01*
X1472944D01*
X1460248Y1680974D02*
X1457708Y1683513D01*
Y1688591D01*
X1460248Y1691130D01*
X1462787D01*
X1465326Y1688591D01*
Y1683513D01*
X1467865Y1680974D01*
X1470404D01*
X1472944Y1683513D01*
Y1688591D01*
X1470404Y1691130D01*
X1460248Y1675895D02*
X1457708Y1673356D01*
Y1668278D01*
X1460248Y1665739D01*
X1462787D01*
X1465326Y1668278D01*
Y1670817D01*
Y1668278D01*
X1467865Y1665739D01*
X1470404D01*
X1472944Y1668278D01*
Y1673356D01*
X1470404Y1675895D01*
X849212Y1710683D02*
X864447D01*
X856830D01*
Y1700527D01*
X849212D01*
X864447D01*
X851752Y1685292D02*
X849212Y1687831D01*
Y1692909D01*
X851752Y1695448D01*
X854291D01*
X856830Y1692909D01*
Y1687831D01*
X859369Y1685292D01*
X861908D01*
X864447Y1687831D01*
Y1692909D01*
X861908Y1695448D01*
X864447Y1670057D02*
Y1680213D01*
X854291Y1670057D01*
X851752D01*
X849212Y1672596D01*
Y1677674D01*
X851752Y1680213D01*
X1153162Y1706620D02*
X1168398D01*
X1160780D01*
Y1696463D01*
X1153162D01*
X1168398D01*
X1155702Y1681228D02*
X1153162Y1683768D01*
Y1688846D01*
X1155702Y1691385D01*
X1158241D01*
X1160780Y1688846D01*
Y1683768D01*
X1163319Y1681228D01*
X1165858D01*
X1168398Y1683768D01*
Y1688846D01*
X1165858Y1691385D01*
X1168398Y1676150D02*
Y1671072D01*
Y1673611D01*
X1153162D01*
X1155702Y1676150D01*
X1208527Y727961D02*
Y722882D01*
Y725422D01*
X1195831D01*
X1193292Y722882D01*
Y720343D01*
X1195831Y717804D01*
X1193292Y733039D02*
Y738117D01*
Y735578D01*
X1208527D01*
X1205988Y733039D01*
Y745735D02*
X1208527Y748274D01*
Y753353D01*
X1205988Y755892D01*
X1195831D01*
X1193292Y753353D01*
Y748274D01*
X1195831Y745735D01*
X1205988D01*
X1203447Y1078735D02*
Y1073656D01*
Y1076196D01*
X1190751D01*
X1188212Y1073656D01*
Y1071117D01*
X1190751Y1068578D01*
Y1083813D02*
X1188212Y1086352D01*
Y1091431D01*
X1190751Y1093970D01*
X1200908D01*
X1203447Y1091431D01*
Y1086352D01*
X1200908Y1083813D01*
X1198369D01*
X1195829Y1086352D01*
Y1093970D01*
X1201523Y1426207D02*
Y1421128D01*
Y1423667D01*
X1188827D01*
X1186288Y1421128D01*
Y1418589D01*
X1188827Y1416050D01*
X1198984Y1431285D02*
X1201523Y1433824D01*
Y1438903D01*
X1198984Y1441442D01*
X1196445D01*
X1193905Y1438903D01*
X1191366Y1441442D01*
X1188827D01*
X1186288Y1438903D01*
Y1433824D01*
X1188827Y1431285D01*
X1191366D01*
X1193905Y1433824D01*
X1196445Y1431285D01*
X1198984D01*
X1193905Y1433824D02*
Y1438903D01*
X894334Y1492250D02*
X879099D01*
Y1484633D01*
X881638Y1482093D01*
X886717D01*
X889256Y1484633D01*
Y1492250D01*
Y1487172D02*
X894334Y1482093D01*
X881638Y1477015D02*
X879099Y1474476D01*
Y1469397D01*
X881638Y1466858D01*
X884177D01*
X886717Y1469397D01*
X889256Y1466858D01*
X891795D01*
X894334Y1469397D01*
Y1474476D01*
X891795Y1477015D01*
X889256D01*
X886717Y1474476D01*
X884177Y1477015D01*
X881638D01*
X886717Y1474476D02*
Y1469397D01*
X879099Y1461780D02*
Y1451623D01*
X881638D01*
X891795Y1461780D01*
X894334D01*
X892302Y803656D02*
X877067D01*
Y796039D01*
X879606Y793499D01*
X884685D01*
X887224Y796039D01*
Y803656D01*
Y798578D02*
X892302Y793499D01*
X889763Y788421D02*
X892302Y785882D01*
Y780803D01*
X889763Y778264D01*
X879606D01*
X877067Y780803D01*
Y785882D01*
X879606Y788421D01*
X882145D01*
X884685Y785882D01*
Y778264D01*
X889763Y773186D02*
X892302Y770647D01*
Y765568D01*
X889763Y763029D01*
X879606D01*
X877067Y765568D01*
Y770647D01*
X879606Y773186D01*
X882145D01*
X884685Y770647D01*
Y763029D01*
X888492Y1141730D02*
X873257D01*
Y1134112D01*
X875796Y1131573D01*
X880874D01*
X883414Y1134112D01*
Y1141730D01*
Y1136652D02*
X888492Y1131573D01*
X885953Y1126495D02*
X888492Y1123956D01*
Y1118877D01*
X885953Y1116338D01*
X875796D01*
X873257Y1118877D01*
Y1123956D01*
X875796Y1126495D01*
X878335D01*
X880874Y1123956D01*
Y1116338D01*
X873257Y1101103D02*
X875796Y1106181D01*
X880874Y1111260D01*
X885953D01*
X888492Y1108721D01*
Y1103642D01*
X885953Y1101103D01*
X883414D01*
X880874Y1103642D01*
Y1111260D01*
X2335025Y887218D02*
X2337565Y889757D01*
X2342643D01*
X2345182Y887218D01*
Y877061D01*
X2342643Y874522D01*
X2337565D01*
X2335025Y877061D01*
X2329947Y874522D02*
X2324869D01*
X2327408D01*
Y889757D01*
X2329947Y887218D01*
X2307094Y874522D02*
X2317251D01*
X2307094Y884679D01*
Y887218D01*
X2309633Y889757D01*
X2314712D01*
X2317251Y887218D01*
X2208022Y1156711D02*
Y1141476D01*
X2197865D01*
X2192787Y1154172D02*
X2190248Y1156711D01*
X2185169D01*
X2182630Y1154172D01*
Y1151633D01*
X2185169Y1149093D01*
X2187709D01*
X2185169D01*
X2182630Y1146554D01*
Y1144015D01*
X2185169Y1141476D01*
X2190248D01*
X2192787Y1144015D01*
X2212594Y1555745D02*
Y1540510D01*
X2202437D01*
X2187202D02*
X2197359D01*
X2187202Y1550667D01*
Y1553206D01*
X2189741Y1555745D01*
X2194820D01*
X2197359Y1553206D01*
X2321560Y1618229D02*
Y1602994D01*
X2311403D01*
X2306325D02*
X2301247D01*
X2303786D01*
Y1618229D01*
X2306325Y1615690D01*
X2420617Y800358D02*
X2418078Y797819D01*
X2412999D01*
X2410460Y800358D01*
Y810515D01*
X2412999Y813054D01*
X2418078D01*
X2420617Y810515D01*
X2425695Y813054D02*
Y797819D01*
X2433313D01*
X2435852Y800358D01*
Y805436D01*
X2433313Y807976D01*
X2425695D01*
X2430773D02*
X2435852Y813054D01*
X2440930D02*
X2446008D01*
X2443469D01*
Y797819D01*
X2440930Y800358D01*
X2331469Y1207004D02*
X2334008Y1209543D01*
X2339087D01*
X2341626Y1207004D01*
Y1196847D01*
X2339087Y1194308D01*
X2334008D01*
X2331469Y1196847D01*
X2326391Y1194308D02*
X2321313D01*
X2323852D01*
Y1209543D01*
X2326391Y1207004D01*
X2313695Y1194308D02*
X2308617D01*
X2311156D01*
Y1209543D01*
X2313695Y1207004D01*
X2332231Y1361436D02*
X2334771Y1363975D01*
X2339849D01*
X2342388Y1361436D01*
Y1351279D01*
X2339849Y1348740D01*
X2334771D01*
X2332231Y1351279D01*
X2327153Y1363975D02*
X2316996D01*
Y1361436D01*
X2327153Y1351279D01*
Y1348740D01*
X2332739Y1517900D02*
X2335278Y1520439D01*
X2340357D01*
X2342896Y1517900D01*
Y1507743D01*
X2340357Y1505204D01*
X2335278D01*
X2332739Y1507743D01*
X2317504Y1520439D02*
X2322583Y1517900D01*
X2327661Y1512822D01*
Y1507743D01*
X2325122Y1505204D01*
X2320043D01*
X2317504Y1507743D01*
Y1510282D01*
X2320043Y1512822D01*
X2327661D01*
X2447036Y1267201D02*
Y1254505D01*
X2444497Y1251966D01*
X2439418D01*
X2436879Y1254505D01*
Y1267201D01*
X2431801Y1264662D02*
X2429262Y1267201D01*
X2424183D01*
X2421644Y1264662D01*
Y1262123D01*
X2424183Y1259584D01*
X2426723D01*
X2424183D01*
X2421644Y1257044D01*
Y1254505D01*
X2424183Y1251966D01*
X2429262D01*
X2431801Y1254505D01*
X1242060Y767080D02*
Y782315D01*
X1234443D01*
X1231903Y779776D01*
Y774697D01*
X1234443Y772158D01*
X1242060D01*
X1236982D02*
X1231903Y767080D01*
X1226825D02*
Y782315D01*
X1219207D01*
X1216668Y779776D01*
Y774697D01*
X1219207Y772158D01*
X1226825D01*
X1211590Y767080D02*
X1206512D01*
X1209051D01*
Y782315D01*
X1211590Y779776D01*
X1188737Y767080D02*
X1198894D01*
X1188737Y777237D01*
Y779776D01*
X1191276Y782315D01*
X1196355D01*
X1198894Y779776D01*
X1223772Y1105154D02*
Y1120389D01*
X1216154D01*
X1213615Y1117850D01*
Y1112772D01*
X1216154Y1110232D01*
X1223772D01*
X1218694D02*
X1213615Y1105154D01*
X1208537D02*
Y1120389D01*
X1200919D01*
X1198380Y1117850D01*
Y1112772D01*
X1200919Y1110232D01*
X1208537D01*
X1193302Y1117850D02*
X1190763Y1120389D01*
X1185684D01*
X1183145Y1117850D01*
Y1115311D01*
X1185684Y1112772D01*
X1183145Y1110232D01*
Y1107693D01*
X1185684Y1105154D01*
X1190763D01*
X1193302Y1107693D01*
Y1110232D01*
X1190763Y1112772D01*
X1193302Y1115311D01*
Y1117850D01*
X1190763Y1112772D02*
X1185684D01*
X2151888Y980948D02*
Y996183D01*
X2144270D01*
X2141731Y993644D01*
Y988566D01*
X2144270Y986026D01*
X2151888D01*
X2146810D02*
X2141731Y980948D01*
X2136653D02*
Y996183D01*
X2129035D01*
X2126496Y993644D01*
Y988566D01*
X2129035Y986026D01*
X2136653D01*
X2111261Y996183D02*
X2121418D01*
Y988566D01*
X2116340Y991105D01*
X2113800D01*
X2111261Y988566D01*
Y983487D01*
X2113800Y980948D01*
X2118879D01*
X2121418Y983487D01*
X1240543Y1382520D02*
Y1367284D01*
X1248160D01*
X1250699Y1369824D01*
Y1374902D01*
X1248160Y1377441D01*
X1240543D01*
X1245621D02*
X1250699Y1382520D01*
X1255778D02*
Y1367284D01*
X1263395D01*
X1265934Y1369824D01*
Y1374902D01*
X1263395Y1377441D01*
X1255778D01*
X1271013Y1369824D02*
X1273552Y1367284D01*
X1278630D01*
X1281169Y1369824D01*
Y1372363D01*
X1278630Y1374902D01*
X1276091D01*
X1278630D01*
X1281169Y1377441D01*
Y1379980D01*
X1278630Y1382520D01*
X1273552D01*
X1271013Y1379980D01*
X2442718Y1490218D02*
Y1505453D01*
X2435101D01*
X2432561Y1502914D01*
Y1497836D01*
X2435101Y1495296D01*
X2442718D01*
X2437640D02*
X2432561Y1490218D01*
X2417326Y1502914D02*
X2419865Y1505453D01*
X2424944D01*
X2427483Y1502914D01*
Y1492757D01*
X2424944Y1490218D01*
X2419865D01*
X2417326Y1492757D01*
Y1497836D01*
X2422405D01*
X2412248Y1490218D02*
X2407169D01*
X2409709D01*
Y1505453D01*
X2412248Y1502914D01*
X608840Y673353D02*
Y678431D01*
Y675892D01*
X621536D01*
X624076Y678431D01*
Y680971D01*
X621536Y683510D01*
X608840Y658118D02*
Y668275D01*
X616458D01*
X613919Y663196D01*
Y660657D01*
X616458Y658118D01*
X621536D01*
X624076Y660657D01*
Y665736D01*
X621536Y668275D01*
X638813Y1493261D02*
X643892D01*
X641352D01*
Y1480565D01*
X643892Y1478026D01*
X646431D01*
X648970Y1480565D01*
X626117Y1478026D02*
Y1493261D01*
X633735Y1485643D01*
X623578D01*
X639575Y1153663D02*
X644654D01*
X642114D01*
Y1140967D01*
X644654Y1138428D01*
X647193D01*
X649732Y1140967D01*
X624340Y1138428D02*
X634497D01*
X624340Y1148585D01*
Y1151124D01*
X626879Y1153663D01*
X631958D01*
X634497Y1151124D01*
X1480569Y1586734D02*
X1483109Y1589273D01*
X1488187D01*
X1490726Y1586734D01*
Y1576577D01*
X1488187Y1574038D01*
X1483109D01*
X1480569Y1576577D01*
X1475491Y1574038D02*
X1470413D01*
X1472952D01*
Y1589273D01*
X1475491Y1586734D01*
D13*
X2071116Y689864D02*
X2083816D01*
X2073656Y683514D02*
Y696214D01*
Y689864D02*
X2081276Y683514D01*
X2073656Y689864D02*
X2081276Y684784D01*
X2073656Y689864D02*
X2081276Y686054D01*
X2073656Y689864D02*
X2081276Y687324D01*
X2073656Y689864D02*
X2081276Y688594D01*
X2073656Y689864D02*
X2081276Y696214D01*
X2073656Y689864D02*
X2081276Y694944D01*
X2073656Y689864D02*
X2081276Y693674D01*
X2073656Y689864D02*
X2081276Y692404D01*
X2073656Y689864D02*
X2081276Y691134D01*
Y683514D02*
Y696214D01*
X2170176Y717677D02*
X2267712D01*
Y662051D02*
Y717677D01*
X2170176Y662051D02*
X2267712D01*
X2170176D02*
Y717677D01*
X2390267Y992886D02*
X2445893D01*
X2390267Y895350D02*
Y992886D01*
Y895350D02*
X2445893D01*
Y992886D01*
X2411730Y1081786D02*
X2424430D01*
X2418080Y1089406D02*
X2419350Y1081786D01*
X2418080Y1089406D02*
X2420620Y1081786D01*
X2418080Y1089406D02*
X2421890Y1081786D01*
X2418080Y1089406D02*
X2423160Y1081786D01*
X2418080Y1089406D02*
X2424430Y1081786D01*
X2416810D02*
X2418080Y1089406D01*
X2415540Y1081786D02*
X2418080Y1089406D01*
X2414270Y1081786D02*
X2418080Y1089406D01*
X2413000Y1081786D02*
X2418080Y1089406D01*
X2411730Y1081786D02*
X2418080Y1089406D01*
X2411730D02*
X2424430D01*
X2418080Y1079246D02*
Y1091946D01*
X973328Y1479550D02*
X1196848D01*
X973328D02*
Y1581150D01*
X1196848D01*
Y1479550D02*
Y1581150D01*
X967486Y1129030D02*
X1191006D01*
X967486D02*
Y1230630D01*
X1191006D01*
Y1129030D02*
Y1230630D01*
X971296Y790956D02*
X1194816D01*
X971296D02*
Y892556D01*
X1194816D01*
Y790956D02*
Y892556D01*
M02*
