%TF.GenerationSoftware,Altium Limited,Altium Designer,21.6.4 (81)*%
G04 Layer_Color=16711935*
%FSLAX45Y45*%
%MOMM*%
%TF.SameCoordinates,09A83190-5573-4C43-887F-21FCEAA25094*%
%TF.FilePolarity,Negative*%
%TF.FileFunction,Soldermask,Bot*%
%TF.Part,Single*%
G01*
G75*
%TA.AperFunction,SMDPad,CuDef*%
G04:AMPARAMS|DCode=12|XSize=1.60712mm|YSize=0.76213mm|CornerRadius=0.38107mm|HoleSize=0mm|Usage=FLASHONLY|Rotation=0.000|XOffset=0mm|YOffset=0mm|HoleType=Round|Shape=RoundedRectangle|*
%AMROUNDEDRECTD12*
21,1,1.60712,0.00000,0,0,0.0*
21,1,0.84499,0.76213,0,0,0.0*
1,1,0.76213,0.42249,0.00000*
1,1,0.76213,-0.42249,0.00000*
1,1,0.76213,-0.42249,0.00000*
1,1,0.76213,0.42249,0.00000*
%
%ADD12ROUNDEDRECTD12*%
%ADD13R,1.60712X0.76213*%
%ADD14R,1.20651X1.50822*%
%ADD15R,1.50464X1.55620*%
%ADD16R,1.50822X1.20651*%
%ADD17R,1.55620X1.50464*%
%TA.AperFunction,ComponentPad*%
%ADD44C,1.57480*%
%ADD45R,1.57480X1.57480*%
%ADD46R,2.05740X2.05740*%
%ADD47C,2.05740*%
%ADD48C,1.20000*%
%ADD49R,1.20000X1.20000*%
%ADD52R,2.05740X2.05740*%
%ADD53C,2.05000*%
%ADD54R,2.05000X2.05000*%
%ADD55R,1.20000X1.20000*%
%TA.AperFunction,SMDPad,CuDef*%
%ADD58R,1.20000X1.10000*%
%ADD59R,1.10000X1.20000*%
%TA.AperFunction,NonConductor*%
%ADD68C,2.03200*%
%ADD69C,1.00000*%
%ADD70R,9.24560X27.22623*%
%ADD71R,9.24534X29.37098*%
%ADD72R,9.06780X29.28231*%
%TA.AperFunction,Conductor*%
%ADD73C,0.96520*%
%TA.AperFunction,SMDPad,CuDef*%
%ADD74R,7.70320X3.20320*%
%ADD75R,2.20320X4.30320*%
%ADD76R,0.70320X1.20320*%
%TA.AperFunction,ComponentPad*%
%ADD77C,1.72720*%
%TA.AperFunction,ViaPad*%
%ADD78C,2.20320*%
%TA.AperFunction,ComponentPad*%
%ADD79C,2.15320*%
G04:AMPARAMS|DCode=80|XSize=2.1532mm|YSize=2.1532mm|CornerRadius=0.5891mm|HoleSize=0mm|Usage=FLASHONLY|Rotation=270.000|XOffset=0mm|YOffset=0mm|HoleType=Round|Shape=RoundedRectangle|*
%AMROUNDEDRECTD80*
21,1,2.15320,0.97500,0,0,270.0*
21,1,0.97500,2.15320,0,0,270.0*
1,1,1.17820,-0.48750,-0.48750*
1,1,1.17820,-0.48750,0.48750*
1,1,1.17820,0.48750,0.48750*
1,1,1.17820,0.48750,-0.48750*
%
%ADD80ROUNDEDRECTD80*%
%ADD81C,1.70320*%
%ADD82R,1.70320X1.70320*%
%ADD83O,2.20320X1.20320*%
%ADD84O,2.20320X1.20320*%
%TA.AperFunction,ViaPad*%
%ADD85C,1.47320*%
%ADD86C,1.72720*%
D12*
X19745959Y13492480D02*
D03*
X19740880Y13837920D02*
D03*
Y14168120D02*
D03*
D13*
X19410854Y13492480D02*
D03*
X19405772Y13837920D02*
D03*
Y14168120D02*
D03*
D14*
X20851804Y12484100D02*
D03*
X20641634D02*
D03*
X17537755Y13253720D02*
D03*
X17747925D02*
D03*
X20636555Y12849860D02*
D03*
X20846725D02*
D03*
X20639095Y12072620D02*
D03*
X20849265D02*
D03*
D15*
X20603300Y14213840D02*
D03*
X20783459D02*
D03*
X20608382Y14986000D02*
D03*
X20788539D02*
D03*
X20594502Y14582140D02*
D03*
X20774660D02*
D03*
D16*
X21015961Y14210355D02*
D03*
Y14420525D02*
D03*
X17861279Y11673840D02*
D03*
Y11463670D02*
D03*
X18219420D02*
D03*
Y11673840D02*
D03*
X17853661Y10618795D02*
D03*
Y10828965D02*
D03*
X17886681Y7202496D02*
D03*
Y7412666D02*
D03*
X17881599Y8172125D02*
D03*
Y7961955D02*
D03*
X18224500Y10829910D02*
D03*
Y10619740D02*
D03*
X21005800Y15205385D02*
D03*
Y14995215D02*
D03*
X21010880Y14586275D02*
D03*
Y14796445D02*
D03*
X16680180Y13101320D02*
D03*
Y13445815D02*
D03*
X16675101Y14520235D02*
D03*
Y14730405D02*
D03*
X18227040Y7207575D02*
D03*
Y7417745D02*
D03*
X18224500Y8174665D02*
D03*
Y7964495D02*
D03*
X15125700Y6686226D02*
D03*
Y6476056D02*
D03*
X16703040Y7286315D02*
D03*
Y7496485D02*
D03*
X16713200Y8062905D02*
D03*
Y7852735D02*
D03*
X16703040Y6444925D02*
D03*
Y6234755D02*
D03*
Y6783394D02*
D03*
Y6993564D02*
D03*
X16713200Y8556610D02*
D03*
Y8346440D02*
D03*
X16718280Y9125570D02*
D03*
Y8915400D02*
D03*
X16682719Y11551920D02*
D03*
Y11341750D02*
D03*
X16680180Y10782950D02*
D03*
Y10993120D02*
D03*
X16697960Y10225095D02*
D03*
Y10435265D02*
D03*
X15077440Y9900270D02*
D03*
Y9690100D02*
D03*
X16675101Y15581010D02*
D03*
Y15791180D02*
D03*
X16695419Y9866305D02*
D03*
Y9656135D02*
D03*
X16680180Y12586645D02*
D03*
Y12376475D02*
D03*
Y12054840D02*
D03*
Y11844670D02*
D03*
X16672560Y15012994D02*
D03*
Y15223164D02*
D03*
X16680180Y13655984D02*
D03*
Y12891150D02*
D03*
X17835880Y13803955D02*
D03*
Y14014125D02*
D03*
X18216879Y13819196D02*
D03*
Y14029366D02*
D03*
X17835880Y14638670D02*
D03*
Y14848840D02*
D03*
X18209261Y14844705D02*
D03*
Y14634535D02*
D03*
X16677640Y13953815D02*
D03*
Y14163985D02*
D03*
X15059660Y13201324D02*
D03*
Y12991154D02*
D03*
D17*
X14815820Y15528198D02*
D03*
X16380460Y13782224D02*
D03*
X16311880Y10598241D02*
D03*
X16400780Y7293519D02*
D03*
Y7113361D02*
D03*
X14853920Y8790757D02*
D03*
Y8610600D02*
D03*
X15913100Y7479121D02*
D03*
Y7659279D02*
D03*
X16311880Y10778399D02*
D03*
X16380460Y13962379D02*
D03*
X15836900Y10944860D02*
D03*
Y11125017D02*
D03*
X14792960Y12074977D02*
D03*
Y11894820D02*
D03*
X21079460Y12475301D02*
D03*
Y12655458D02*
D03*
Y12848682D02*
D03*
Y13028839D02*
D03*
X21089619Y12068901D02*
D03*
Y12249058D02*
D03*
X14815820Y15348041D02*
D03*
X15844521Y14362521D02*
D03*
Y14542679D02*
D03*
D44*
X9415780Y15303500D02*
D03*
X9357360Y11798300D02*
D03*
X9395460Y8417560D02*
D03*
D45*
X12285980Y15303500D02*
D03*
X12227560Y11798300D02*
D03*
X12265660Y8417560D02*
D03*
D46*
X24180800Y10535920D02*
D03*
D47*
Y8346440D02*
D03*
X23284180Y6898640D02*
D03*
D48*
X17164822Y13266420D02*
D03*
X17142461Y6868160D02*
D03*
Y6614160D02*
D03*
X17152620Y10043160D02*
D03*
Y10297160D02*
D03*
Y12247880D02*
D03*
Y12501880D02*
D03*
Y11170920D02*
D03*
Y10916920D02*
D03*
X17142461Y8732520D02*
D03*
Y8986520D02*
D03*
X17137880Y7675879D02*
D03*
Y7421879D02*
D03*
X17175481Y14343381D02*
D03*
Y14089380D02*
D03*
X17167860Y15405099D02*
D03*
Y15659100D02*
D03*
X17164822Y13520419D02*
D03*
X21277580Y8971280D02*
D03*
Y9225280D02*
D03*
X12623800Y7327900D02*
D03*
X12369800D02*
D03*
X12313920Y10706598D02*
D03*
X12567920D02*
D03*
X12557760Y14175740D02*
D03*
X12303760D02*
D03*
D49*
X17142461Y6360160D02*
D03*
X17152620Y9789160D02*
D03*
Y11993880D02*
D03*
Y11424920D02*
D03*
X17142461Y8478520D02*
D03*
X17137880Y7929879D02*
D03*
X17175481Y14597380D02*
D03*
X17167860Y15151100D02*
D03*
X17164822Y13012421D02*
D03*
X21277580Y9479280D02*
D03*
D52*
X21094701Y6898640D02*
D03*
D53*
X23825200Y12125960D02*
D03*
Y11871960D02*
D03*
X23835361Y14297659D02*
D03*
Y14551660D02*
D03*
D54*
X23825200Y11618458D02*
D03*
X23835361Y14044157D02*
D03*
D55*
X12115800Y7327900D02*
D03*
X12059920Y10706598D02*
D03*
X12049760Y14175740D02*
D03*
D58*
X12898120Y14387419D02*
D03*
Y14177422D02*
D03*
X14432280Y6514238D02*
D03*
Y6724240D02*
D03*
X13014960Y7549739D02*
D03*
Y7339741D02*
D03*
X12956540Y10915239D02*
D03*
Y10705241D02*
D03*
D59*
X13942879Y10180320D02*
D03*
X14152879D02*
D03*
X13920882Y13690601D02*
D03*
X14130879D02*
D03*
D68*
X7145020Y6045200D02*
G03*
X7145020Y6045200I-304800J0D01*
G01*
X6967220Y15593060D02*
G03*
X6967220Y15593060I-304800J0D01*
G01*
X24348441Y15590520D02*
G03*
X24348441Y15590520I-304800J0D01*
G01*
X24246840Y5930900D02*
G03*
X24246840Y5930900I-304800J0D01*
G01*
D69*
X24381281Y16395700D02*
G03*
X24381281Y16395700I-170000J0D01*
G01*
X24386360Y17421860D02*
G03*
X24386360Y17421860I-170000J0D01*
G01*
X21269780Y16385539D02*
G03*
X21269780Y16385539I-170000J0D01*
G01*
X18203999Y16403320D02*
G03*
X18203999Y16403320I-170000J0D01*
G01*
X18206540Y17429480D02*
G03*
X18206540Y17429480I-170000J0D01*
G01*
X15153461Y16418559D02*
G03*
X15153461Y16418559I-170000J0D01*
G01*
Y17444720D02*
G03*
X15153461Y17444720I-170000J0D01*
G01*
X12102920Y16400780D02*
G03*
X12102920Y16400780I-170000J0D01*
G01*
X12105460Y17424400D02*
G03*
X12105460Y17424400I-170000J0D01*
G01*
X9052380Y16410941D02*
G03*
X9052380Y16410941I-170000J0D01*
G01*
X9054920Y17434560D02*
G03*
X9054920Y17434560I-170000J0D01*
G01*
X21272321Y17411700D02*
G03*
X21272321Y17411700I-170000J0D01*
G01*
D70*
X7978140Y7927469D02*
D03*
D71*
X7962887Y11206051D02*
D03*
D72*
X7946390Y14555275D02*
D03*
D73*
X14190071Y6875780D02*
G03*
X14112802Y6944109I-77831J-10160D01*
G01*
X14190582Y6870451D02*
G03*
X14190071Y6875780I-78342J-4831D01*
G01*
X13797279Y8358891D02*
G03*
X13797842Y8358889I0J-78491D01*
G01*
X21870328Y9614107D02*
G03*
X21854224Y9624118I-49188J-61167D01*
G01*
X21876642Y9608442D02*
G03*
X21870328Y9614107I-55502J-55502D01*
G01*
X21783040Y9621564D02*
G03*
X21742648Y9552940I38100J-68624D01*
G01*
X21898956Y9563204D02*
G03*
X21876642Y9608441I-77817J-10264D01*
G01*
X21742648Y9552940D02*
G03*
X21765639Y9497438I78491J0D01*
G01*
X21742648Y9552940D02*
G03*
X21765639Y9497438I78491J0D01*
G01*
X21821140Y9631431D02*
G03*
X21819870Y9631421I0J-78491D01*
G01*
X21854221Y9624120D02*
G03*
X21821140Y9631431I-33080J-71180D01*
G01*
X21819870Y9631421D02*
G03*
X21783041Y9621564I1270J-78481D01*
G01*
X21902798Y15392703D02*
G03*
X21920200Y15546954I-2918J78437D01*
G01*
X21899879Y15549631D02*
G03*
X21844379Y15415639I0J-78491D01*
G01*
D02*
G03*
X21902798Y15392703I55502J55502D01*
G01*
X10845260Y14223131D02*
G03*
X10770870Y14294778I-78200J-6751D01*
G01*
X10770217Y14137952D02*
G03*
X10845549Y14215817I-3157J78428D01*
G01*
X10770870Y14294778D02*
G03*
X10763250Y14137981I-3810J-78399D01*
G01*
X10767060Y14137889D02*
G03*
X10770217Y14137952I0J78491D01*
G01*
X10792460Y10833188D02*
G03*
X10763250Y10840379I-33020J-71208D01*
G01*
D02*
G03*
X10760002Y10840469I-3810J-78399D01*
G01*
X10759440Y10683489D02*
G03*
X10814942Y10817482I0J78491D01*
G01*
X10680949Y10761980D02*
G03*
X10759440Y10683489I78491J0D01*
G01*
X10767060Y7434331D02*
G03*
X10759440Y7433960I0J-78491D01*
G01*
D02*
G03*
X10736580Y7428171I7620J-78120D01*
G01*
X23655577Y14933153D02*
G03*
X23653934Y14930048I66512J-37183D01*
G01*
X23624541Y14985751D02*
G03*
X23546051Y14907822I0J-78491D01*
G01*
X23680042Y14851758D02*
G03*
X23684052Y14856082I-55502J55502D01*
G01*
X23546049Y14907260D02*
G03*
X23680042Y14851758I78491J0D01*
G01*
X23964651Y11021060D02*
G03*
X23920956Y11091416I-78491J0D01*
G01*
X23815804Y10986264D02*
G03*
X23964648Y11020498I70356J34796D01*
G01*
X23920956Y11091416D02*
G03*
X23807669Y11021060I-34796J-70356D01*
G01*
D02*
G03*
X23815804Y10986264I78491J0D01*
G01*
X24251671Y13088620D02*
G03*
X24095834Y13101981I-78491J0D01*
G01*
X24187759Y13011494D02*
G03*
X24251669Y13088058I-14580J77125D01*
G01*
X24095834Y13101981D02*
G03*
X24117677Y13033118I77346J-13360D01*
G01*
D02*
G03*
X24187759Y13011494I55502J55502D01*
G01*
X12544646Y6441440D02*
G03*
X12544811Y6446520I-78326J5080D01*
G01*
X12544151Y6436360D02*
G03*
X12544646Y6441440I-77831J10160D01*
G01*
X12544811Y6446520D02*
G03*
X12466882Y6525009I-78491J0D01*
G01*
X12466320Y6525011D02*
G03*
X12388489Y6436360I0J-78491D01*
G01*
D02*
G03*
X12544151Y6436360I77831J10160D01*
G01*
X14551660Y8473191D02*
G03*
X14628786Y8380120I0J-78491D01*
G01*
D02*
G03*
X14552222Y8473189I-77125J14580D01*
G01*
X14127480Y7716271D02*
G03*
X14128043Y7716269I0J-78491D01*
G01*
X14053819Y9763511D02*
G03*
X13975330Y9685020I0J-78491D01*
G01*
D02*
G03*
X14132310Y9685020I78491J0D01*
G01*
X14094379Y9752220D02*
G03*
X14054382Y9763509I-40559J-67200D01*
G01*
X14132310Y9685020D02*
G03*
X14094380Y9752220I-78491J0D01*
G01*
X12445751Y9847580D02*
G03*
X12367822Y9926069I-78491J0D01*
G01*
X12288934Y9842500D02*
G03*
X12445586Y9842500I78326J5080D01*
G01*
Y9842500D02*
G03*
X12445751Y9847580I-78326J5080D01*
G01*
X12311758Y9903082D02*
G03*
X12288934Y9842500I55502J-55502D01*
G01*
X12367260Y9926071D02*
G03*
X12311758Y9903082I0J-78491D01*
G01*
X13769341Y11775191D02*
G03*
X13769902Y11775189I0J-78491D01*
G01*
X21818600Y9129009D02*
G03*
X21896526Y9198101I0J78491D01*
G01*
D02*
G03*
X21818037Y9129011I-77926J9399D01*
G01*
X21765639Y9497438D02*
G03*
X21820578Y9474451I55502J55502D01*
G01*
X21765639Y9497438D02*
G03*
X21820578Y9474451I55502J55502D01*
G01*
X21821140Y9474449D02*
G03*
X21876639Y9497436I0J78491D01*
G01*
X21876642Y9497438D02*
G03*
X21899631Y9552940I-55502J55502D01*
G01*
D02*
G03*
X21898956Y9563204I-78491J0D01*
G01*
X15709651Y12994640D02*
G03*
X15645740Y13071765I-78491J0D01*
G01*
D02*
G03*
X15709650Y12994078I-14580J-77125D01*
G01*
X14426952Y12959081D02*
G03*
X14426579Y12951460I-78491J0D01*
G01*
D02*
G03*
X14426949Y12958517I-78120J7620D01*
G01*
X9712960Y13378136D02*
G03*
X9751060Y13368269I38100J68624D01*
G01*
D02*
G03*
X9808642Y13393420I0J78491D01*
G01*
X9806562Y13502261D02*
G03*
X9789239Y13515340I-55502J-55502D01*
G01*
X9808642Y13393420D02*
G03*
X9829551Y13446761I-57582J53340D01*
G01*
D02*
G03*
X9827586Y13464214I-78491J0D01*
G01*
D02*
G03*
X9816802Y13489642I-76526J-17454D01*
G01*
D02*
G03*
X9806562Y13502261I-65742J-42882D01*
G01*
X9672569Y13446761D02*
G03*
X9712960Y13378136I78491J0D01*
G01*
X9789239Y13515340D02*
G03*
X9712960Y13515384I-38179J-68580D01*
G01*
D02*
G03*
X9672571Y13447322I38100J-68624D01*
G01*
X9712960Y10126731D02*
G03*
X9657458Y9992738I0J-78491D01*
G01*
D02*
G03*
X9713522Y10126729I55502J55502D01*
G01*
X9743440Y6761231D02*
G03*
X9744002Y6761229I0J-78491D01*
G01*
X13726160Y15450571D02*
G03*
X13726723Y15450569I0J-78491D01*
G01*
X15626080Y6593591D02*
G03*
X15611501Y6592225I0J-78491D01*
G01*
X15626080Y6436609D02*
G03*
X15626642Y6593589I0J78491D01*
G01*
X15611501Y6592225D02*
G03*
X15626080Y6436609I14580J-77125D01*
G01*
X16057631Y13820140D02*
G03*
X15979703Y13898630I-78491J0D01*
G01*
X15979140Y13898631D02*
G03*
X15979140Y13741649I0J-78491D01*
G01*
D02*
G03*
X16057631Y13820140I0J78491D01*
G01*
X15519400Y9034531D02*
G03*
X15440909Y8956040I0J-78491D01*
G01*
D02*
G03*
X15519962Y9034529I78491J0D01*
G01*
X15755371Y15618460D02*
G03*
X15662300Y15695586I-78491J0D01*
G01*
D02*
G03*
X15598647Y15624809I14580J-77125D01*
G01*
X15420567Y12392336D02*
G03*
X15362169Y12316460I20092J-75876D01*
G01*
D02*
G03*
X15441222Y12394949I78491J0D01*
G01*
X14190730Y6865620D02*
G03*
X14190582Y6870451I-78491J0D01*
G01*
X16159480Y7162551D02*
G03*
X16236604Y7098640I0J-78491D01*
G01*
D02*
G03*
X16160042Y7162549I-77125J-14580D01*
G01*
X16079546Y10577606D02*
G03*
X16039110Y10607979I-64845J-44226D01*
G01*
X16014700Y10611871D02*
G03*
X16079546Y10577606I0J-78491D01*
G01*
X16314420Y13365231D02*
G03*
X16392911Y13286740I0J-78491D01*
G01*
D02*
G03*
X16314983Y13365228I-78491J0D01*
G01*
X15598647Y15624809D02*
G03*
X15755370Y15617899I78234J-6350D01*
G01*
X16039110Y10607979D02*
G03*
X16015262Y10611869I-24410J-74599D01*
G01*
X15676880Y9816851D02*
G03*
X15598647Y9744710I0J-78491D01*
G01*
X21920200Y15546954D02*
G03*
X21900443Y15549629I-20320J-75815D01*
G01*
X10845551Y14216380D02*
G03*
X10845260Y14223129I-78491J0D01*
G01*
X10763250Y14137981D02*
G03*
X10767060Y14137889I3810J78399D01*
G01*
X10814942Y10817482D02*
G03*
X10792460Y10833188I-55502J-55502D01*
G01*
X10759440Y10840471D02*
G03*
X10680949Y10761980I0J-78491D01*
G01*
X18689072Y14328140D02*
G03*
X18684810Y14353650I-78491J0D01*
G01*
X18610580Y14406631D02*
G03*
X18610580Y14249649I0J-78491D01*
G01*
X18684810Y14353650D02*
G03*
X18610580Y14406631I-74230J-25510D01*
G01*
Y14249649D02*
G03*
X18689069Y14327579I0J78491D01*
G01*
X16441035Y14495308D02*
G03*
X16398492Y14560545I-78356J-4608D01*
G01*
X16441171Y14490700D02*
G03*
X16441035Y14495308I-78491J0D01*
G01*
X16362680Y14569191D02*
G03*
X16441171Y14490700I0J-78491D01*
G01*
X16398492Y14560545D02*
G03*
X16363242Y14569189I-35812J-69845D01*
G01*
X15738557Y9786907D02*
G03*
X15677441Y9816849I-61677J-48547D01*
G01*
X15755371Y9738360D02*
G03*
X15738557Y9786907I-78491J0D01*
G01*
X15753069Y9719485D02*
G03*
X15755371Y9738360I-76188J18875D01*
G01*
X15598647Y9744710D02*
G03*
X15753069Y9719485I78234J-6350D01*
G01*
X16509724Y6781327D02*
G03*
X16431822Y6857749I-78464J-2067D01*
G01*
X16509750Y6779260D02*
G03*
X16509724Y6781327I-78491J0D01*
G01*
X14112241Y6944111D02*
G03*
X14190672Y6862566I0J-78491D01*
G01*
D02*
G03*
X14190730Y6865620I-78432J3054D01*
G01*
X16453844Y7850668D02*
G03*
X16375941Y7927089I-78464J-2068D01*
G01*
X16375380Y7927091D02*
G03*
X16453844Y7850668I0J-78491D01*
G01*
X15326111Y8694420D02*
G03*
X15169131Y8694982I-78491J0D01*
G01*
X15169128Y8694420D02*
G03*
X15326111Y8694420I78491J0D01*
G01*
X18596458Y7738254D02*
G03*
X18589397Y7737291I7061J-78173D01*
G01*
X18603519Y7738572D02*
G03*
X18596458Y7738254I0J-78491D01*
G01*
X18603519Y7581590D02*
G03*
X18604080Y7738570I0J78491D01*
G01*
X18589397Y7737291D02*
G03*
X18603519Y7581590I14122J-77210D01*
G01*
X17884140Y7767071D02*
G03*
X17882870Y7767061I0J-78491D01*
G01*
X17885410Y7610099D02*
G03*
X17884702Y7767069I-1270J78481D01*
G01*
X17805907Y7682230D02*
G03*
X17885410Y7610099I78234J6350D01*
G01*
X17882870Y7767061D02*
G03*
X17805907Y7682230I1270J-78481D01*
G01*
X16431261Y6857751D02*
G03*
X16509750Y6779260I0J-78491D01*
G01*
X15440660Y12394951D02*
G03*
X15420569Y12392336I0J-78491D01*
G01*
X15227614Y15541609D02*
G03*
X15220242Y15542009I-7934J-78089D01*
G01*
X15296805Y15448940D02*
G03*
X15298170Y15463519I-77125J14580D01*
G01*
X15219679Y15542010D02*
G03*
X15296805Y15448940I0J-78491D01*
G01*
X15298170Y15463519D02*
G03*
X15227615Y15541609I-78491J0D01*
G01*
X16375079Y11338885D02*
G03*
X16375075Y11338979I-78439J-2865D01*
G01*
X16218149Y11336020D02*
G03*
X16375079Y11338885I78491J0D01*
G01*
X15262904Y12092940D02*
G03*
X15194843Y12133329I-68624J-38100D01*
G01*
X15272606Y12059920D02*
G03*
X15262904Y12092940I-78326J-5080D01*
G01*
X15272771Y12054840D02*
G03*
X15272606Y12059920I-78491J0D01*
G01*
X15265488Y12021820D02*
G03*
X15272771Y12054840I-71208J33020D01*
G01*
X15125656Y12092940D02*
G03*
X15265488Y12021819I68624J-38100D01*
G01*
X15194279Y12133331D02*
G03*
X15125656Y12092940I0J-78491D01*
G01*
X16459917Y10114953D02*
G03*
X16419122Y10126729I-41356J-66713D01*
G01*
X16497050Y10048240D02*
G03*
X16459917Y10114953I-78491J0D01*
G01*
X16418559Y10126731D02*
G03*
X16497050Y10048240I0J-78491D01*
G01*
X18621477Y11227537D02*
G03*
X18606619Y11230971I-25018J-74397D01*
G01*
X18596458Y11074649D02*
G03*
X18621477Y11227537I0J78491D01*
G01*
X18606619Y11230971D02*
G03*
X18597021Y11231629I-10160J-77831D01*
G01*
X18579797Y11076438D02*
G03*
X18596458Y11074649I16661J76702D01*
G01*
Y11231631D02*
G03*
X18579797Y11076438I2J-78491D01*
G01*
X14598593Y15343541D02*
G03*
X14588855Y15377138I-78362J-4503D01*
G01*
X14575797Y15283600D02*
G03*
X14598593Y15343541I-55565J55438D01*
G01*
X23684052Y14856082D02*
G03*
X23689384Y14863034I-59512J51178D01*
G01*
Y14863034D02*
G03*
X23703030Y14907260I-64845J44226D01*
G01*
X14580998Y11745160D02*
G03*
X14529362Y11765029I-52198J-58620D01*
G01*
X14607126Y11681460D02*
G03*
X14580998Y11745160I-78326J5080D01*
G01*
X14528799Y11765031D02*
G03*
X14607126Y11681460I0J-78491D01*
G01*
X12398096Y13174088D02*
G03*
X12421085Y13229590I-55502J55502D01*
G01*
D02*
G03*
X12419045Y13247369I-78491J0D01*
G01*
X12345134Y13151140D02*
G03*
X12398096Y13174088I-2540J78450D01*
G01*
X17910400Y14384431D02*
G03*
X17839690Y14421779I-66900J-41052D01*
G01*
X17921991Y14343381D02*
G03*
X17910400Y14384431I-78491J0D01*
G01*
X17839690Y14421779D02*
G03*
X17765019Y14344650I3810J-78399D01*
G01*
X17839690Y14264981D02*
G03*
X17921989Y14342818I3810J78399D01*
G01*
X17772862Y14309158D02*
G03*
X17839690Y14264981I70638J34221D01*
G01*
X17765009Y14343381D02*
G03*
X17772862Y14309158I78491J0D01*
G01*
X17765019Y14344650D02*
G03*
X17765009Y14343381I78481J-1270D01*
G01*
X16374588Y11345235D02*
G03*
X16218150Y11336582I-77948J-9215D01*
G01*
X16375075Y11338979D02*
G03*
X16374588Y11345234I-78435J-2959D01*
G01*
X17855212Y11231616D02*
G03*
X17854222Y11231629I-1552J-78476D01*
G01*
X17857471Y11231539D02*
G03*
X17855212Y11231616I-3810J-78399D01*
G01*
X17838155Y11230084D02*
G03*
X17775734Y11162539I15505J-76944D01*
G01*
X17853661Y11231631D02*
G03*
X17838155Y11230084I0J-78491D01*
G01*
X17853661Y11074649D02*
G03*
X17857471Y11231539I0J78491D01*
G01*
X17787962Y11110190D02*
G03*
X17853661Y11074649I65697J42950D01*
G01*
X17775734Y11162538D02*
G03*
X17787962Y11110190I77926J-9398D01*
G01*
X14465109Y15283157D02*
G03*
X14520232Y15260547I55121J55880D01*
G01*
D02*
G03*
X14574814Y15282632I0J78491D01*
G01*
X14575729Y15394542D02*
G03*
X14520792Y15417526I-55499J-55504D01*
G01*
X14451607Y15377138D02*
G03*
X14446797Y15366756I68624J-38100D01*
G01*
X14575795Y15394476D02*
G03*
X14575732Y15394539I-55564J-55439D01*
G01*
X14464729Y15283536D02*
G03*
X14465109Y15283159I55502J55502D01*
G01*
X14588855Y15377138D02*
G03*
X14575797Y15394476I-68624J-38100D01*
G01*
X14446796Y15366753D02*
G03*
X14441740Y15339038I73435J-27715D01*
G01*
D02*
G03*
X14441817Y15335553I78491J0D01*
G01*
D02*
G03*
X14442400Y15328877I78414J3485D01*
G01*
D02*
G03*
X14464726Y15283539I77831J10160D01*
G01*
X14574815Y15282635D02*
G03*
X14575349Y15283157I-54585J56403D01*
G01*
X14575351Y15283157D02*
G03*
X14575732Y15283536I-55121J55880D01*
G01*
X14575735Y15283539D02*
G03*
X14575795Y15283598I-55504J55499D01*
G01*
X14520232Y15417529D02*
G03*
X14451607Y15377138I0J-78491D01*
G01*
X14520232Y15417529D02*
G03*
X14451607Y15377138I0J-78491D01*
G01*
X14520232Y15417529D02*
G03*
X14451607Y15377138I0J-78491D01*
G01*
X14520232Y15417529D02*
G03*
X14451607Y15377138I0J-78491D01*
G01*
X14056360Y14543791D02*
G03*
X14056921Y14543790I0J-78491D01*
G01*
X14058900Y11160511D02*
G03*
X14059462Y11160509I0J-78491D01*
G01*
X10736580Y7428171D02*
G03*
X10722834Y7420685I30480J-72331D01*
G01*
D02*
G03*
X10767622Y7434329I44226J-64845D01*
G01*
X12287474Y13285471D02*
G03*
X12273970Y13267690I55121J-55880D01*
G01*
X12342594Y13151099D02*
G03*
X12345134Y13151140I0J78491D01*
G01*
X12265078Y13217261D02*
G03*
X12342594Y13151099I77516J12330D01*
G01*
X12264103Y13229590D02*
G03*
X12265078Y13217261I78491J0D01*
G01*
X12273970Y13267690D02*
G03*
X12264103Y13229590I68624J-38100D01*
G01*
X12417683Y13252451D02*
G03*
X12412568Y13265150I-75088J-22860D01*
G01*
D02*
G03*
X12411218Y13267690I-69974J-35560D01*
G01*
D02*
G03*
X12398096Y13285092I-68624J-38100D01*
G01*
X12397715Y13285471D02*
G03*
X12343156Y13308080I-55121J-55880D01*
G01*
X12342594Y13308081D02*
G03*
X12287474Y13285471I0J-78491D01*
G01*
X12419045Y13247369D02*
G03*
X12418409Y13249910I-76451J-17780D01*
G01*
D02*
G03*
X12417683Y13252451I-75815J-20320D01*
G01*
X12398096Y13285092D02*
G03*
X12397715Y13285471I-55502J-55502D01*
G01*
D74*
X22854919Y15726222D02*
D03*
Y15226218D02*
D03*
X21673820Y11187242D02*
D03*
Y10687238D02*
D03*
X21765260Y14600296D02*
D03*
Y15100301D02*
D03*
D75*
X22829520Y13101981D02*
D03*
Y12231980D02*
D03*
X15057120Y10612120D02*
D03*
Y11482121D02*
D03*
X15067281Y14009979D02*
D03*
Y14879980D02*
D03*
X15120621Y8012481D02*
D03*
Y7142480D02*
D03*
X22834599Y14666620D02*
D03*
Y13796620D02*
D03*
X22821899Y11557000D02*
D03*
Y10686999D02*
D03*
X22857460Y8357921D02*
D03*
Y7487920D02*
D03*
D76*
X22316440Y15360001D02*
D03*
Y15120000D02*
D03*
D77*
X13797279Y8280400D02*
D03*
X12466320Y6446520D02*
D03*
X14551660Y8394700D02*
D03*
X14127480Y7637780D02*
D03*
X15339059Y6412418D02*
D03*
Y6662420D02*
D03*
X15346680Y9919782D02*
D03*
Y9669780D02*
D03*
X14053819Y9685020D02*
D03*
X12367260Y9847580D02*
D03*
X13769341Y11696700D02*
D03*
X21818600Y9207500D02*
D03*
X21821140Y9552940D02*
D03*
X15631160Y12994640D02*
D03*
X15346680Y12979401D02*
D03*
Y13229402D02*
D03*
X14348460Y12959081D02*
D03*
X9751060Y13446761D02*
D03*
X9712960Y10048240D02*
D03*
X9743440Y6682740D02*
D03*
X13726160Y15372079D02*
D03*
X15676880Y15618460D02*
D03*
X16314420Y13286740D02*
D03*
X15979140Y13820140D02*
D03*
X15626080Y6515100D02*
D03*
X16014700Y10533380D02*
D03*
X16362680Y14490700D02*
D03*
X14112241Y6865620D02*
D03*
X15519400Y8956040D02*
D03*
X16375380Y7848600D02*
D03*
X15219679Y15463519D02*
D03*
X15194279Y12054840D02*
D03*
X14520230Y15339040D02*
D03*
X21899879Y15471140D02*
D03*
X16431261Y6779260D02*
D03*
X16159480Y7084060D02*
D03*
X17884140Y7688580D02*
D03*
X18610580Y14328140D02*
D03*
X14056360Y14465300D02*
D03*
X17843500Y14343381D02*
D03*
X18596458Y11153140D02*
D03*
X15440660Y12316460D02*
D03*
X14528799Y11686540D02*
D03*
X16418559Y10048240D02*
D03*
X16296640Y11336020D02*
D03*
X14058900Y11082020D02*
D03*
X15676880Y9738360D02*
D03*
X17853661Y11153140D02*
D03*
X18603519Y7660081D02*
D03*
X15247620Y8694420D02*
D03*
X23624541Y14907260D02*
D03*
X11463020Y7444740D02*
D03*
X11713022D02*
D03*
X10767060Y7355840D02*
D03*
X11411138Y10825480D02*
D03*
X11661140D02*
D03*
X11391900Y14300200D02*
D03*
X11641902D02*
D03*
X10759440Y10761980D02*
D03*
X12342597Y13229590D02*
D03*
X23886160Y11021060D02*
D03*
X24173180Y13088620D02*
D03*
X10767060Y14216380D02*
D03*
D78*
X24274306Y14266034D02*
D03*
X24246840Y11864340D02*
D03*
D79*
X6725122Y13874963D02*
D03*
X23912358Y7666777D02*
D03*
X6741160Y10474960D02*
D03*
X6758142Y7088083D02*
D03*
D80*
X6725122Y14374962D02*
D03*
X23912358Y7166778D02*
D03*
X6741160Y10974959D02*
D03*
X6758142Y7588082D02*
D03*
D81*
X20294122Y10957560D02*
D03*
Y11211560D02*
D03*
Y11719560D02*
D03*
Y12227560D02*
D03*
Y12481560D02*
D03*
Y11973560D02*
D03*
Y11465560D02*
D03*
X18214340Y13251180D02*
D03*
Y12997180D02*
D03*
X18211800Y12240260D02*
D03*
Y11986260D02*
D03*
X18229581Y6647180D02*
D03*
Y6393180D02*
D03*
X18219420Y8732520D02*
D03*
Y8478520D02*
D03*
X18229581Y10045700D02*
D03*
Y9791700D02*
D03*
X20284441Y13571220D02*
D03*
Y14079221D02*
D03*
Y14587219D02*
D03*
Y14333220D02*
D03*
Y13825220D02*
D03*
Y13317220D02*
D03*
Y13063220D02*
D03*
X18196082Y15156180D02*
D03*
Y15410181D02*
D03*
X6492240Y16609061D02*
D03*
Y16863060D02*
D03*
X9651522Y16603979D02*
D03*
Y16857980D02*
D03*
X12694442Y16581120D02*
D03*
Y16835120D02*
D03*
X15747522Y16637000D02*
D03*
Y16891000D02*
D03*
X21882100Y16591280D02*
D03*
Y16845280D02*
D03*
X18828542Y16570959D02*
D03*
Y16824960D02*
D03*
D82*
X20294122Y12735560D02*
D03*
X18214340Y13505180D02*
D03*
X18211800Y12494260D02*
D03*
X18229581Y6901180D02*
D03*
X18219420Y8986520D02*
D03*
X18229581Y10299700D02*
D03*
X20284441Y14841220D02*
D03*
X18196082Y15664180D02*
D03*
X6492240Y17117059D02*
D03*
X9651522Y17111980D02*
D03*
X12694442Y17089120D02*
D03*
X15747522Y17145000D02*
D03*
X21882100Y17099280D02*
D03*
X18828542Y17078960D02*
D03*
D83*
X8961120Y16776700D02*
D03*
Y17030701D02*
D03*
X11998960Y17020540D02*
D03*
Y16766541D02*
D03*
X15046960Y16995140D02*
D03*
Y16741141D02*
D03*
X18087340Y16969740D02*
D03*
Y16715739D02*
D03*
X24297639Y16954500D02*
D03*
Y16700500D02*
D03*
X21145500Y16924020D02*
D03*
Y16670020D02*
D03*
D84*
X8961120Y16903700D02*
D03*
X11998960Y16893539D02*
D03*
X15046960Y16868140D02*
D03*
X18087340Y16842740D02*
D03*
X24297639Y16827499D02*
D03*
X21145500Y16797020D02*
D03*
D85*
X18831560Y9199880D02*
D03*
X14432280Y6911340D02*
D03*
X13020039Y7797800D02*
D03*
X14344016Y10172065D02*
D03*
X12956540Y11137900D02*
D03*
X13444220Y9974580D02*
D03*
X12900661Y14663420D02*
D03*
X14340840Y13690601D02*
D03*
X22321519Y15694659D02*
D03*
X19817081Y5971540D02*
D03*
X19999960Y5826760D02*
D03*
X19644360Y5674360D02*
D03*
X14103551Y5669280D02*
D03*
X13844249Y5814060D02*
D03*
X13537170Y5966460D02*
D03*
X13446761Y9108440D02*
D03*
X10327640Y8415020D02*
D03*
X10317480Y11803380D02*
D03*
X10360660Y15306039D02*
D03*
X22263100Y12280900D02*
D03*
X22265640Y12745720D02*
D03*
X21617940Y13022580D02*
D03*
Y12311380D02*
D03*
X18897600Y14185899D02*
D03*
X18844260Y12755880D02*
D03*
X18213071Y14331950D02*
D03*
X15118080Y6837680D02*
D03*
X15946120Y6944360D02*
D03*
X15852139Y12560300D02*
D03*
X16250920Y12893040D02*
D03*
X16243300Y12186920D02*
D03*
X17914619Y12748260D02*
D03*
X16233141Y9065260D02*
D03*
X15996919Y10129520D02*
D03*
X14424660Y7658100D02*
D03*
X14136369Y8522970D02*
D03*
X14876781Y6898640D02*
D03*
X18225771Y7691120D02*
D03*
X15105380Y8399780D02*
D03*
X15036800Y11828780D02*
D03*
X14343381Y11141486D02*
D03*
X14795500Y10355580D02*
D03*
X13009880Y6436360D02*
D03*
X12955270Y9853930D02*
D03*
X12887959Y13213080D02*
D03*
X15046960Y15209520D02*
D03*
X15839439Y13445714D02*
D03*
X15032767Y13510260D02*
D03*
X15021561Y10173746D02*
D03*
X14810741Y13708380D02*
D03*
X18221960Y11146790D02*
D03*
X14058900Y11899900D02*
D03*
Y11082020D02*
D03*
X14041119Y15275560D02*
D03*
X14363699Y14455141D02*
D03*
D86*
X13797279Y8280400D02*
D03*
X12466320Y6446520D02*
D03*
X14551660Y8394700D02*
D03*
X14127480Y7637780D02*
D03*
X14053819Y9685020D02*
D03*
X13769341Y11696700D02*
D03*
X15631160Y12994640D02*
D03*
X14348460Y12959081D02*
D03*
X9743440Y6682740D02*
D03*
X13726160Y15372079D02*
D03*
X15676880Y15618460D02*
D03*
X16314420Y13286740D02*
D03*
X15979140Y13820140D02*
D03*
X15626080Y6515100D02*
D03*
X16014700Y10533380D02*
D03*
X16362680Y14490700D02*
D03*
X14112241Y6865620D02*
D03*
X15519400Y8956040D02*
D03*
X16375380Y7848600D02*
D03*
X15219679Y15463519D02*
D03*
X15194279Y12054840D02*
D03*
X21899879Y15471140D02*
D03*
X16431261Y6779260D02*
D03*
X16159480Y7084060D02*
D03*
X17884140Y7688580D02*
D03*
X18610580Y14328140D02*
D03*
X14056360Y14465300D02*
D03*
X17843500Y14343381D02*
D03*
X18596458Y11153140D02*
D03*
X15440660Y12316460D02*
D03*
X14528799Y11686540D02*
D03*
X16418559Y10048240D02*
D03*
X16296640Y11336020D02*
D03*
X14058900Y11082020D02*
D03*
X15676880Y9738360D02*
D03*
X17853661Y11153140D02*
D03*
X18603519Y7660081D02*
D03*
X15247620Y8694420D02*
D03*
X10767060Y7355840D02*
D03*
%TF.MD5,938efd417df54ee3756322b78129b759*%
M02*
