%TF.GenerationSoftware,Altium Limited,Altium Designer,21.6.4 (81)*%
G04 Layer_Color=16711935*
%FSLAX45Y45*%
%MOMM*%
%TF.SameCoordinates,8BE20582-AD64-4D08-A95C-E2DB20C1365E*%
%TF.FilePolarity,Positive*%
%TF.FileFunction,Other,Mechanical_1*%
%TF.Part,Single*%
G01*
G75*
%TA.AperFunction,NonConductor*%
%ADD61C,0.25400*%
%ADD62C,0.15240*%
%ADD91C,0.01270*%
%ADD92C,1.20000*%
D61*
X8954440Y17500600D02*
G03*
X8954440Y17500600I-100000J0D01*
G01*
X24377881Y16350800D02*
G03*
X24377881Y16350800I-152400J0D01*
G01*
Y17442999D02*
G03*
X24377881Y17442999I-152400J0D01*
G01*
X21218121Y16360959D02*
G03*
X21218121Y16360959I-152400J0D01*
G01*
X21225742Y17435379D02*
G03*
X21225742Y17435379I-152400J0D01*
G01*
X18180281Y16360959D02*
G03*
X18180281Y16360959I-152400J0D01*
G01*
X18159961Y17445538D02*
G03*
X18159961Y17445538I-152400J0D01*
G01*
X15117041Y16338100D02*
G03*
X15117041Y16338100I-152400J0D01*
G01*
X15134821Y17448079D02*
G03*
X15134821Y17448079I-152400J0D01*
G01*
X12081741Y16381279D02*
G03*
X12081741Y16381279I-152400J0D01*
G01*
X12102061Y17450620D02*
G03*
X12102061Y17450620I-152400J0D01*
G01*
X8951900Y16446500D02*
G03*
X8951900Y16446500I-100000J0D01*
G01*
X24290021Y15593060D02*
G03*
X24290021Y15593060I-254000J0D01*
G01*
X24335741Y6314440D02*
G03*
X24335741Y6314440I-254000J0D01*
G01*
X8105169Y8379460D02*
G03*
X8105169Y8379460I-109249J0D01*
G01*
X8089929Y6781800D02*
G03*
X8089929Y6781800I-109249J0D01*
G01*
X8112789Y10215880D02*
G03*
X8112789Y10215880I-109249J0D01*
G01*
X8115329Y11767820D02*
G03*
X8115329Y11767820I-109249J0D01*
G01*
X6832600Y15661639D02*
G03*
X6832600Y15661639I-254000J0D01*
G01*
X6858000Y6350000D02*
G03*
X6858000Y6350000I-254000J0D01*
G01*
X8125489Y13754100D02*
G03*
X8125489Y13754100I-109249J0D01*
G01*
X8138189Y15333980D02*
G03*
X8138189Y15333980I-109249J0D01*
G01*
X6131560Y5318760D02*
X24523700D01*
X6131560Y17754601D02*
X24523700D01*
Y5318760D02*
Y17754601D01*
X6131560Y5318760D02*
Y17754601D01*
X6134100Y5316220D02*
X24523700D01*
X6134100Y17731740D02*
X24523700D01*
Y5316220D02*
Y17731740D01*
X6134100Y5316220D02*
Y17731740D01*
X5712460D02*
X5763260Y17579340D01*
X5661660D02*
X5712460Y17731740D01*
X5661660Y16245840D02*
X5712460Y16093440D01*
X5763260Y16245840D01*
X5712460Y17255379D02*
Y17731740D01*
Y16093440D02*
Y16488521D01*
X5687060Y17731740D02*
X6096000D01*
X5687060Y16093440D02*
X6102350D01*
X6134100Y18613120D02*
X6286500Y18663921D01*
X6134100Y18613120D02*
X6286500Y18562320D01*
X24371300D02*
X24523700Y18613120D01*
X24371300Y18663921D02*
X24523700Y18613120D01*
X6134100D02*
X15328900D01*
X24523700D01*
X6134100Y17769839D02*
Y18638519D01*
X24523700Y17792700D02*
Y18638519D01*
X6131560Y18300700D02*
X6283960Y18351500D01*
X6131560Y18300700D02*
X6283960Y18249899D01*
X9037320D02*
X9189720Y18300700D01*
X9037320Y18351500D02*
X9189720Y18300700D01*
X6131560D02*
X7223875D01*
X8016125D02*
X9189720D01*
X6131560Y17792700D02*
Y18326100D01*
X9189720Y17741901D02*
Y18326100D01*
D62*
X5829267Y16529161D02*
Y16579944D01*
Y16554553D01*
X5676916D01*
X5702308Y16529161D01*
X5676916Y16757687D02*
X5702308Y16706903D01*
X5753092Y16656120D01*
X5803875D01*
X5829267Y16681511D01*
Y16732295D01*
X5803875Y16757687D01*
X5778483D01*
X5753092Y16732295D01*
Y16656120D01*
X5854659Y16833862D02*
X5829267Y16859254D01*
X5803875D01*
Y16833862D01*
X5829267D01*
Y16859254D01*
X5854659Y16833862D01*
X5880050Y16808470D01*
X5702308Y16960822D02*
X5676916Y16986214D01*
Y17036996D01*
X5702308Y17062389D01*
X5727700D01*
X5753092Y17036996D01*
Y17011604D01*
Y17036996D01*
X5778483Y17062389D01*
X5803875D01*
X5829267Y17036996D01*
Y16986214D01*
X5803875Y16960822D01*
X5702308Y17113171D02*
X5676916Y17138564D01*
Y17189346D01*
X5702308Y17214738D01*
X5727700D01*
X5753092Y17189346D01*
X5778483Y17214738D01*
X5803875D01*
X5829267Y17189346D01*
Y17138564D01*
X5803875Y17113171D01*
X5778483D01*
X5753092Y17138564D01*
X5727700Y17113171D01*
X5702308D01*
X5753092Y17138564D02*
Y17189346D01*
X14838680Y17355803D02*
X14889462D01*
X14864072D01*
Y17508154D01*
X14838680Y17482762D01*
X14965639D02*
X14991031Y17508154D01*
X15041814D01*
X15067206Y17482762D01*
Y17457372D01*
X15041814Y17431979D01*
X15067206Y17406587D01*
Y17381195D01*
X15041814Y17355803D01*
X14991031D01*
X14965639Y17381195D01*
Y17406587D01*
X14991031Y17431979D01*
X14965639Y17457372D01*
Y17482762D01*
X14991031Y17431979D02*
X15041814D01*
X15117990Y17482762D02*
X15143381Y17508154D01*
X15194165D01*
X15219557Y17482762D01*
Y17457372D01*
X15194165Y17431979D01*
X15168773D01*
X15194165D01*
X15219557Y17406587D01*
Y17381195D01*
X15194165Y17355803D01*
X15143381D01*
X15117990Y17381195D01*
X15295732Y17330412D02*
X15321124Y17355803D01*
Y17381195D01*
X15295732D01*
Y17355803D01*
X15321124D01*
X15295732Y17330412D01*
X15270340Y17305020D01*
X15422691Y17381195D02*
X15448083Y17355803D01*
X15498866D01*
X15524258Y17381195D01*
Y17482762D01*
X15498866Y17508154D01*
X15448083D01*
X15422691Y17482762D01*
Y17457372D01*
X15448083Y17431979D01*
X15524258D01*
X15575043Y17482762D02*
X15600433Y17508154D01*
X15651218D01*
X15676608Y17482762D01*
Y17381195D01*
X15651218Y17355803D01*
X15600433D01*
X15575043Y17381195D01*
Y17482762D01*
X7264515Y18310852D02*
X7289907Y18336244D01*
X7340690D01*
X7366082Y18310852D01*
Y18285460D01*
X7340690Y18260068D01*
X7315298D01*
X7340690D01*
X7366082Y18234677D01*
Y18209285D01*
X7340690Y18183893D01*
X7289907D01*
X7264515Y18209285D01*
X7416866Y18310852D02*
X7442257Y18336244D01*
X7493041D01*
X7518433Y18310852D01*
Y18209285D01*
X7493041Y18183893D01*
X7442257D01*
X7416866Y18209285D01*
Y18310852D01*
X7594608Y18158501D02*
X7620000Y18183893D01*
Y18209285D01*
X7594608D01*
Y18183893D01*
X7620000D01*
X7594608Y18158501D01*
X7569216Y18133110D01*
X7823134Y18336244D02*
X7721567D01*
Y18260068D01*
X7772350Y18285460D01*
X7797742D01*
X7823134Y18260068D01*
Y18209285D01*
X7797742Y18183893D01*
X7746959D01*
X7721567Y18209285D01*
X7873918Y18310852D02*
X7899310Y18336244D01*
X7950093D01*
X7975485Y18310852D01*
Y18285460D01*
X7950093Y18260068D01*
X7975485Y18234677D01*
Y18209285D01*
X7950093Y18183893D01*
X7899310D01*
X7873918Y18209285D01*
Y18234677D01*
X7899310Y18260068D01*
X7873918Y18285460D01*
Y18310852D01*
X7899310Y18260068D02*
X7950093D01*
D91*
X12087860Y16049062D02*
G03*
X12087860Y16193700I0J72319D01*
G01*
X9374814Y16193694D02*
G03*
X9374586Y16049054I-228J-72319D01*
G01*
X24356059Y16054141D02*
G03*
X24356059Y16198779I0J72319D01*
G01*
X21643015Y16198773D02*
G03*
X21642786Y16054134I-228J-72319D01*
G01*
X21267419Y16043980D02*
G03*
X21267419Y16188618I0J72319D01*
G01*
X18554375Y16188612D02*
G03*
X18554146Y16043974I-228J-72319D01*
G01*
X18181320Y16041441D02*
G03*
X18181320Y16186079I0J72319D01*
G01*
X15468274Y16186073D02*
G03*
X15468047Y16041434I-228J-72319D01*
G01*
X15151100Y16041441D02*
G03*
X15151100Y16186079I0J72319D01*
G01*
X12438054Y16186073D02*
G03*
X12437826Y16041434I-228J-72319D01*
G01*
X6243548Y16189928D02*
G03*
X6243321Y16045290I-228J-72319D01*
G01*
X8956595Y16045296D02*
G03*
X8956595Y16189934I0J72319D01*
G01*
X9275118Y17515668D02*
G03*
X9130479Y17515895I-72319J229D01*
G01*
X9130593Y16245316D02*
G03*
X9275232Y16245316I72319J0D01*
G01*
X9374585Y16048804D02*
X12087860Y16049052D01*
X9374814Y16193694D02*
X12087860Y16193700D01*
X21642786Y16053883D02*
X24356059Y16054134D01*
X21643015Y16198773D02*
X24356059Y16198779D01*
X18554144Y16043724D02*
X21267419Y16043973D01*
X18554375Y16188612D02*
X21267419Y16188618D01*
X15468045Y16041183D02*
X18181320Y16041434D01*
X15468274Y16186073D02*
X18181320Y16186079D01*
X12437825Y16041183D02*
X15151100Y16041434D01*
X12438054Y16186073D02*
X15151100Y16186079D01*
X6243548Y16189928D02*
X8956595Y16189934D01*
X6243320Y16045039D02*
X8956595Y16045288D01*
X9130477Y17515897D02*
X9130594Y16245317D01*
X9275120Y17515668D02*
X9275232Y16245317D01*
D92*
X24523698Y5346700D02*
X24523700Y17754601D01*
X6134100D02*
X24523700D01*
X6134099Y5321300D02*
X6134100Y17754601D01*
%TF.MD5,abef8b307ed6769741e32b573fd39b1f*%
M02*
