%TF.GenerationSoftware,Altium Limited,Altium Designer,21.6.4 (81)*%
G04 Layer_Color=128*
%FSLAX45Y45*%
%MOMM*%
%TF.SameCoordinates,8BE20582-AD64-4D08-A95C-E2DB20C1365E*%
%TF.FilePolarity,Positive*%
%TF.FileFunction,Paste,Bot*%
%TF.Part,Single*%
G01*
G75*
%TA.AperFunction,Conductor*%
%ADD10C,0.76200*%
%TA.AperFunction,SMDPad,CuDef*%
%ADD12R,1.20651X1.50822*%
%ADD13R,1.50464X1.55620*%
%ADD14R,1.50822X1.20651*%
%ADD15R,1.55620X1.50464*%
%ADD17R,1.60712X0.76213*%
G04:AMPARAMS|DCode=18|XSize=1.60712mm|YSize=0.76213mm|CornerRadius=0.38107mm|HoleSize=0mm|Usage=FLASHONLY|Rotation=0.000|XOffset=0mm|YOffset=0mm|HoleType=Round|Shape=RoundedRectangle|*
%AMROUNDEDRECTD18*
21,1,1.60712,0.00000,0,0,0.0*
21,1,0.84499,0.76213,0,0,0.0*
1,1,0.76213,0.42249,0.00000*
1,1,0.76213,-0.42249,0.00000*
1,1,0.76213,-0.42249,0.00000*
1,1,0.76213,0.42249,0.00000*
%
%ADD18ROUNDEDRECTD18*%
%ADD56R,7.50000X3.00000*%
%ADD57R,2.00000X4.10000*%
%ADD58R,0.50000X1.00000*%
D10*
X12544646Y6441440D02*
G03*
X12544811Y6446520I-78326J5080D01*
G01*
X12544151Y6436360D02*
G03*
X12544646Y6441440I-77831J10160D01*
G01*
X12544811Y6446520D02*
G03*
X12466882Y6525009I-78491J0D01*
G01*
X12466320Y6525011D02*
G03*
X12388489Y6436360I0J-78491D01*
G01*
D02*
G03*
X12544151Y6436360I77831J10160D01*
G01*
X14551660Y8473191D02*
G03*
X14628786Y8380120I0J-78491D01*
G01*
D02*
G03*
X14552222Y8473189I-77125J14580D01*
G01*
X14127480Y7716271D02*
G03*
X14128043Y7716269I0J-78491D01*
G01*
X14053819Y9763511D02*
G03*
X13975330Y9685020I0J-78491D01*
G01*
D02*
G03*
X14132310Y9685020I78491J0D01*
G01*
X14094379Y9752220D02*
G03*
X14054382Y9763509I-40559J-67200D01*
G01*
X14132310Y9685020D02*
G03*
X14094380Y9752220I-78491J0D01*
G01*
X12445751Y9847580D02*
G03*
X12367822Y9926069I-78491J0D01*
G01*
X12288934Y9842500D02*
G03*
X12445586Y9842500I78326J5080D01*
G01*
Y9842500D02*
G03*
X12445751Y9847580I-78326J5080D01*
G01*
X12311758Y9903082D02*
G03*
X12288934Y9842500I55502J-55502D01*
G01*
X12367260Y9926071D02*
G03*
X12311758Y9903082I0J-78491D01*
G01*
X13769341Y11775191D02*
G03*
X13769902Y11775189I0J-78491D01*
G01*
X21818600Y9129009D02*
G03*
X21896526Y9198101I0J78491D01*
G01*
D02*
G03*
X21818037Y9129011I-77926J9399D01*
G01*
X21765639Y9497438D02*
G03*
X21820578Y9474451I55502J55502D01*
G01*
X21765639Y9497438D02*
G03*
X21820578Y9474451I55502J55502D01*
G01*
X21821140Y9474449D02*
G03*
X21876639Y9497436I0J78491D01*
G01*
X21821140Y9631431D02*
G03*
X21819870Y9631421I0J-78491D01*
G01*
X21876642Y9497438D02*
G03*
X21899631Y9552940I-55502J55502D01*
G01*
D02*
G03*
X21898956Y9563204I-78491J0D01*
G01*
X21742648Y9552940D02*
G03*
X21765639Y9497438I78491J0D01*
G01*
X21742648Y9552940D02*
G03*
X21765639Y9497438I78491J0D01*
G01*
X21783040Y9621564D02*
G03*
X21742648Y9552940I38100J-68624D01*
G01*
X21819870Y9631421D02*
G03*
X21783041Y9621564I1270J-78481D01*
G01*
X21898956Y9563204D02*
G03*
X21876642Y9608441I-77817J-10264D01*
G01*
X21854221Y9624120D02*
G03*
X21821140Y9631431I-33080J-71180D01*
G01*
X21876642Y9608442D02*
G03*
X21870328Y9614107I-55502J-55502D01*
G01*
D02*
G03*
X21854224Y9624118I-49188J-61167D01*
G01*
X15709651Y12994640D02*
G03*
X15645740Y13071765I-78491J0D01*
G01*
D02*
G03*
X15709650Y12994078I-14580J-77125D01*
G01*
X14426952Y12959081D02*
G03*
X14426579Y12951460I-78491J0D01*
G01*
D02*
G03*
X14426949Y12958517I-78120J7620D01*
G01*
X9712960Y13378136D02*
G03*
X9751060Y13368269I38100J68624D01*
G01*
D02*
G03*
X9808642Y13393420I0J78491D01*
G01*
X9806562Y13502261D02*
G03*
X9789239Y13515340I-55502J-55502D01*
G01*
X9808642Y13393420D02*
G03*
X9829551Y13446761I-57582J53340D01*
G01*
D02*
G03*
X9827586Y13464214I-78491J0D01*
G01*
D02*
G03*
X9816802Y13489642I-76526J-17454D01*
G01*
D02*
G03*
X9806562Y13502261I-65742J-42882D01*
G01*
X9672569Y13446761D02*
G03*
X9712960Y13378136I78491J0D01*
G01*
X9789239Y13515340D02*
G03*
X9712960Y13515384I-38179J-68580D01*
G01*
D02*
G03*
X9672571Y13447322I38100J-68624D01*
G01*
X9712960Y10126731D02*
G03*
X9657458Y9992738I0J-78491D01*
G01*
D02*
G03*
X9713522Y10126729I55502J55502D01*
G01*
X9743440Y6761231D02*
G03*
X9744002Y6761229I0J-78491D01*
G01*
X13726160Y15450571D02*
G03*
X13726723Y15450569I0J-78491D01*
G01*
X15626080Y6593591D02*
G03*
X15611501Y6592225I0J-78491D01*
G01*
X15626080Y6436609D02*
G03*
X15626642Y6593589I0J78491D01*
G01*
X15611501Y6592225D02*
G03*
X15626080Y6436609I14580J-77125D01*
G01*
X14190071Y6875780D02*
G03*
X14112802Y6944109I-77831J-10160D01*
G01*
X14190582Y6870451D02*
G03*
X14190071Y6875780I-78342J-4831D01*
G01*
X16057631Y13820140D02*
G03*
X15979703Y13898630I-78491J0D01*
G01*
X15979140Y13898631D02*
G03*
X15979140Y13741649I0J-78491D01*
G01*
D02*
G03*
X16057631Y13820140I0J78491D01*
G01*
X15519400Y9034531D02*
G03*
X15440909Y8956040I0J-78491D01*
G01*
D02*
G03*
X15519962Y9034529I78491J0D01*
G01*
X15755371Y15618460D02*
G03*
X15662300Y15695586I-78491J0D01*
G01*
D02*
G03*
X15598647Y15624809I14580J-77125D01*
G01*
X15420567Y12392336D02*
G03*
X15362169Y12316460I20092J-75876D01*
G01*
D02*
G03*
X15441222Y12394949I78491J0D01*
G01*
X14190730Y6865620D02*
G03*
X14190582Y6870451I-78491J0D01*
G01*
X16159480Y7162551D02*
G03*
X16236604Y7098640I0J-78491D01*
G01*
D02*
G03*
X16160042Y7162549I-77125J-14580D01*
G01*
X16079546Y10577606D02*
G03*
X16039110Y10607979I-64845J-44226D01*
G01*
X16014700Y10611871D02*
G03*
X16079546Y10577606I0J-78491D01*
G01*
X16314420Y13365231D02*
G03*
X16392911Y13286740I0J-78491D01*
G01*
D02*
G03*
X16314983Y13365228I-78491J0D01*
G01*
X15598647Y15624809D02*
G03*
X15755370Y15617899I78234J-6350D01*
G01*
X16039110Y10607979D02*
G03*
X16015262Y10611869I-24410J-74599D01*
G01*
X15676880Y9816851D02*
G03*
X15598647Y9744710I0J-78491D01*
G01*
X21899879Y15549631D02*
G03*
X21844379Y15415639I0J-78491D01*
G01*
X21902798Y15392703D02*
G03*
X21920200Y15546954I-2918J78437D01*
G01*
X21844379Y15415639D02*
G03*
X21902798Y15392703I55502J55502D01*
G01*
X21920200Y15546954D02*
G03*
X21900443Y15549629I-20320J-75815D01*
G01*
X10845260Y14223131D02*
G03*
X10770870Y14294778I-78200J-6751D01*
G01*
X10770217Y14137952D02*
G03*
X10845549Y14215817I-3157J78428D01*
G01*
X10767060Y14137889D02*
G03*
X10770217Y14137952I0J78491D01*
G01*
X10770870Y14294778D02*
G03*
X10763250Y14137981I-3810J-78399D01*
G01*
Y10840379D02*
G03*
X10760002Y10840469I-3810J-78399D01*
G01*
X10792460Y10833188D02*
G03*
X10763250Y10840379I-33020J-71208D01*
G01*
X10759440Y10683489D02*
G03*
X10814942Y10817482I0J78491D01*
G01*
X10680949Y10761980D02*
G03*
X10759440Y10683489I78491J0D01*
G01*
X10767060Y7434331D02*
G03*
X10759440Y7433960I0J-78491D01*
G01*
D02*
G03*
X10736580Y7428171I7620J-78120D01*
G01*
X10845551Y14216380D02*
G03*
X10845260Y14223129I-78491J0D01*
G01*
X10763250Y14137981D02*
G03*
X10767060Y14137889I3810J78399D01*
G01*
X10814942Y10817482D02*
G03*
X10792460Y10833188I-55502J-55502D01*
G01*
X10759440Y10840471D02*
G03*
X10680949Y10761980I0J-78491D01*
G01*
X23728835Y14644383D02*
G03*
X23677879Y14663171I-50954J-59703D01*
G01*
D02*
G03*
X23599391Y14585242I0J-78491D01*
G01*
X18689072Y14328140D02*
G03*
X18684810Y14353650I-78491J0D01*
G01*
X18610580Y14406631D02*
G03*
X18610580Y14249649I0J-78491D01*
G01*
X18684810Y14353650D02*
G03*
X18610580Y14406631I-74230J-25510D01*
G01*
Y14249649D02*
G03*
X18689069Y14327579I0J78491D01*
G01*
X16443576Y14515628D02*
G03*
X16401031Y14580865I-78356J-4608D01*
G01*
X16443710Y14511020D02*
G03*
X16443576Y14515628I-78491J0D01*
G01*
X16365221Y14589511D02*
G03*
X16443710Y14511020I0J-78491D01*
G01*
X16401031Y14580865D02*
G03*
X16365782Y14589510I-35812J-69845D01*
G01*
X15738557Y9786907D02*
G03*
X15677441Y9816849I-61677J-48547D01*
G01*
X15755371Y9738360D02*
G03*
X15738557Y9786907I-78491J0D01*
G01*
X15753069Y9719485D02*
G03*
X15755371Y9738360I-76188J18875D01*
G01*
X15598647Y9744710D02*
G03*
X15753069Y9719485I78234J-6350D01*
G01*
X16509724Y6781327D02*
G03*
X16431822Y6857749I-78464J-2067D01*
G01*
X16509750Y6779260D02*
G03*
X16509724Y6781327I-78491J0D01*
G01*
X14112241Y6944111D02*
G03*
X14190672Y6862566I0J-78491D01*
G01*
D02*
G03*
X14190730Y6865620I-78432J3054D01*
G01*
X16453844Y7850668D02*
G03*
X16375941Y7927089I-78464J-2068D01*
G01*
X16375380Y7927091D02*
G03*
X16453844Y7850668I0J-78491D01*
G01*
X15326111Y8694420D02*
G03*
X15169131Y8694982I-78491J0D01*
G01*
X15169128Y8694420D02*
G03*
X15326111Y8694420I78491J0D01*
G01*
X18596458Y7738254D02*
G03*
X18589397Y7737291I7061J-78173D01*
G01*
X18603519Y7738572D02*
G03*
X18596458Y7738254I0J-78491D01*
G01*
X18603519Y7581590D02*
G03*
X18604080Y7738570I0J78491D01*
G01*
X18589397Y7737291D02*
G03*
X18603519Y7581590I14122J-77210D01*
G01*
X17884140Y7767071D02*
G03*
X17882870Y7767061I0J-78491D01*
G01*
X17885410Y7610099D02*
G03*
X17884702Y7767069I-1270J78481D01*
G01*
X17805907Y7682230D02*
G03*
X17885410Y7610099I78234J6350D01*
G01*
X17882870Y7767061D02*
G03*
X17805907Y7682230I1270J-78481D01*
G01*
X16431261Y6857751D02*
G03*
X16509750Y6779260I0J-78491D01*
G01*
X15440660Y12394951D02*
G03*
X15420569Y12392336I0J-78491D01*
G01*
X15227614Y15541609D02*
G03*
X15220242Y15542009I-7934J-78089D01*
G01*
X15296805Y15448940D02*
G03*
X15298170Y15463519I-77125J14580D01*
G01*
X15219679Y15542010D02*
G03*
X15296805Y15448940I0J-78491D01*
G01*
X15298170Y15463519D02*
G03*
X15227615Y15541609I-78491J0D01*
G01*
X16375079Y11338885D02*
G03*
X16375075Y11338979I-78439J-2865D01*
G01*
X16218149Y11336020D02*
G03*
X16375079Y11338885I78491J0D01*
G01*
X15262904Y12092940D02*
G03*
X15194843Y12133329I-68624J-38100D01*
G01*
X15272606Y12059920D02*
G03*
X15262904Y12092940I-78326J-5080D01*
G01*
X15272771Y12054840D02*
G03*
X15272606Y12059920I-78491J0D01*
G01*
X15265488Y12021820D02*
G03*
X15272771Y12054840I-71208J33020D01*
G01*
X15125656Y12092940D02*
G03*
X15265488Y12021819I68624J-38100D01*
G01*
X15194279Y12133331D02*
G03*
X15125656Y12092940I0J-78491D01*
G01*
X16459917Y10114953D02*
G03*
X16419122Y10126729I-41356J-66713D01*
G01*
X16497050Y10048240D02*
G03*
X16459917Y10114953I-78491J0D01*
G01*
X16418559Y10126731D02*
G03*
X16497050Y10048240I0J-78491D01*
G01*
X18621477Y11227537D02*
G03*
X18606619Y11230971I-25018J-74397D01*
G01*
X18596458Y11074649D02*
G03*
X18621477Y11227537I0J78491D01*
G01*
X18606619Y11230971D02*
G03*
X18597021Y11231629I-10160J-77831D01*
G01*
X18579797Y11076438D02*
G03*
X18596458Y11074649I16661J76702D01*
G01*
Y11231631D02*
G03*
X18579797Y11076438I2J-78491D01*
G01*
X14598593Y15343541D02*
G03*
X14588855Y15377138I-78362J-4503D01*
G01*
X14575797Y15283600D02*
G03*
X14598593Y15343541I-55565J55438D01*
G01*
X23756371Y14584680D02*
G03*
X23728835Y14644383I-78491J0D01*
G01*
X23737392Y14533502D02*
G03*
X23742725Y14540454I-59512J51178D01*
G01*
X23599390Y14584680D02*
G03*
X23737392Y14533502I78491J0D01*
G01*
X23742725Y14540454D02*
G03*
X23756371Y14584680I-64845J44226D01*
G01*
X24187759Y13011494D02*
G03*
X24251669Y13088058I-14580J77125D01*
G01*
X24251671Y13088620D02*
G03*
X24095834Y13101981I-78491J0D01*
G01*
D02*
G03*
X24117677Y13033118I77346J-13360D01*
G01*
D02*
G03*
X24187759Y13011494I55502J55502D01*
G01*
X14580998Y11745160D02*
G03*
X14529362Y11765029I-52198J-58620D01*
G01*
X14607126Y11681460D02*
G03*
X14580998Y11745160I-78326J5080D01*
G01*
X14528799Y11765031D02*
G03*
X14607126Y11681460I0J-78491D01*
G01*
X12398096Y13174088D02*
G03*
X12421085Y13229590I-55502J55502D01*
G01*
D02*
G03*
X12419045Y13247369I-78491J0D01*
G01*
X12345134Y13151140D02*
G03*
X12398096Y13174088I-2540J78450D01*
G01*
X17910400Y14384431D02*
G03*
X17839690Y14421779I-66900J-41052D01*
G01*
X17921991Y14343381D02*
G03*
X17910400Y14384431I-78491J0D01*
G01*
X17839690Y14421779D02*
G03*
X17765019Y14344650I3810J-78399D01*
G01*
X17839690Y14264981D02*
G03*
X17921989Y14342818I3810J78399D01*
G01*
X17772862Y14309158D02*
G03*
X17839690Y14264981I70638J34221D01*
G01*
X17765009Y14343381D02*
G03*
X17772862Y14309158I78491J0D01*
G01*
X17765019Y14344650D02*
G03*
X17765009Y14343381I78481J-1270D01*
G01*
X23964651Y11021060D02*
G03*
X23920956Y11091416I-78491J0D01*
G01*
X23815804Y10986264D02*
G03*
X23964648Y11020498I70356J34796D01*
G01*
X23920956Y11091416D02*
G03*
X23807669Y11021060I-34796J-70356D01*
G01*
D02*
G03*
X23815804Y10986264I78491J0D01*
G01*
X16374588Y11345235D02*
G03*
X16218150Y11336582I-77948J-9215D01*
G01*
X16375075Y11338979D02*
G03*
X16374588Y11345234I-78435J-2959D01*
G01*
X17855212Y11231616D02*
G03*
X17854222Y11231629I-1552J-78476D01*
G01*
X17857471Y11231539D02*
G03*
X17855212Y11231616I-3810J-78399D01*
G01*
X17838155Y11230084D02*
G03*
X17775734Y11162539I15505J-76944D01*
G01*
X17853661Y11231631D02*
G03*
X17838155Y11230084I0J-78491D01*
G01*
X17853661Y11074649D02*
G03*
X17857471Y11231539I0J78491D01*
G01*
X17787962Y11110190D02*
G03*
X17853661Y11074649I65697J42950D01*
G01*
X17775734Y11162538D02*
G03*
X17787962Y11110190I77926J-9398D01*
G01*
X13797279Y8358891D02*
G03*
X13797842Y8358889I0J-78491D01*
G01*
X14465109Y15283157D02*
G03*
X14520232Y15260547I55121J55880D01*
G01*
D02*
G03*
X14574814Y15282632I0J78491D01*
G01*
X14575729Y15394542D02*
G03*
X14520792Y15417526I-55499J-55504D01*
G01*
X14451607Y15377138D02*
G03*
X14446797Y15366756I68624J-38100D01*
G01*
X14575795Y15394476D02*
G03*
X14575732Y15394539I-55564J-55439D01*
G01*
X14464729Y15283536D02*
G03*
X14465109Y15283159I55502J55502D01*
G01*
X14588855Y15377138D02*
G03*
X14575797Y15394476I-68624J-38100D01*
G01*
X14446796Y15366753D02*
G03*
X14441740Y15339038I73435J-27715D01*
G01*
D02*
G03*
X14441817Y15335553I78491J0D01*
G01*
D02*
G03*
X14442400Y15328877I78414J3485D01*
G01*
D02*
G03*
X14464726Y15283539I77831J10160D01*
G01*
X14574815Y15282635D02*
G03*
X14575349Y15283157I-54585J56403D01*
G01*
X14575351Y15283157D02*
G03*
X14575732Y15283536I-55121J55880D01*
G01*
X14575735Y15283539D02*
G03*
X14575795Y15283598I-55504J55499D01*
G01*
X14520232Y15417529D02*
G03*
X14451607Y15377138I0J-78491D01*
G01*
X14520232Y15417529D02*
G03*
X14451607Y15377138I0J-78491D01*
G01*
X14520232Y15417529D02*
G03*
X14451607Y15377138I0J-78491D01*
G01*
X14520232Y15417529D02*
G03*
X14451607Y15377138I0J-78491D01*
G01*
X14056360Y14543791D02*
G03*
X14056921Y14543790I0J-78491D01*
G01*
X14058900Y11160511D02*
G03*
X14059462Y11160509I0J-78491D01*
G01*
X10736580Y7428171D02*
G03*
X10722834Y7420685I30480J-72331D01*
G01*
D02*
G03*
X10767622Y7434329I44226J-64845D01*
G01*
X12287474Y13285471D02*
G03*
X12273970Y13267690I55121J-55880D01*
G01*
X12342594Y13151099D02*
G03*
X12345134Y13151140I0J78491D01*
G01*
X12265078Y13217261D02*
G03*
X12342594Y13151099I77516J12330D01*
G01*
X12264103Y13229590D02*
G03*
X12265078Y13217261I78491J0D01*
G01*
X12273970Y13267690D02*
G03*
X12264103Y13229590I68624J-38100D01*
G01*
X12417683Y13252451D02*
G03*
X12412568Y13265150I-75088J-22860D01*
G01*
D02*
G03*
X12411218Y13267690I-69974J-35560D01*
G01*
D02*
G03*
X12398096Y13285092I-68624J-38100D01*
G01*
X12397715Y13285471D02*
G03*
X12343156Y13308080I-55121J-55880D01*
G01*
X12342594Y13308081D02*
G03*
X12287474Y13285471I0J-78491D01*
G01*
X12419045Y13247369D02*
G03*
X12418409Y13249910I-76451J-17780D01*
G01*
D02*
G03*
X12417683Y13252451I-75815J-20320D01*
G01*
X12398096Y13285092D02*
G03*
X12397715Y13285471I-55502J-55502D01*
G01*
D12*
X20851804Y12484100D02*
D03*
X20641634D02*
D03*
X17537755Y13253720D02*
D03*
X17747925D02*
D03*
X20636555Y12849860D02*
D03*
X20846725D02*
D03*
X20639095Y12072620D02*
D03*
X20849265D02*
D03*
D13*
X20603300Y14213840D02*
D03*
X20783459D02*
D03*
X20608382Y14986000D02*
D03*
X20788539D02*
D03*
X20594502Y14582140D02*
D03*
X20774660D02*
D03*
D14*
X21015961Y14210355D02*
D03*
Y14420525D02*
D03*
X17861279Y11673840D02*
D03*
Y11463670D02*
D03*
X18219420D02*
D03*
Y11673840D02*
D03*
X17853661Y10618795D02*
D03*
Y10828965D02*
D03*
X17886681Y7202496D02*
D03*
Y7412666D02*
D03*
X17881599Y8172125D02*
D03*
Y7961955D02*
D03*
X18224500Y10829910D02*
D03*
Y10619740D02*
D03*
X21005800Y15205385D02*
D03*
Y14995215D02*
D03*
X21010880Y14586275D02*
D03*
Y14796445D02*
D03*
X16680180Y13101320D02*
D03*
Y13445815D02*
D03*
X16675101Y14520235D02*
D03*
Y14730405D02*
D03*
X18227040Y7207575D02*
D03*
Y7417745D02*
D03*
X18224500Y8174665D02*
D03*
Y7964495D02*
D03*
X15125700Y6686226D02*
D03*
Y6476056D02*
D03*
X16703040Y7286315D02*
D03*
Y7496485D02*
D03*
X16713200Y8062905D02*
D03*
Y7852735D02*
D03*
X16703040Y6444925D02*
D03*
Y6234755D02*
D03*
Y6783394D02*
D03*
Y6993564D02*
D03*
X16713200Y8556610D02*
D03*
Y8346440D02*
D03*
X16718280Y9125570D02*
D03*
Y8915400D02*
D03*
X16682719Y11551920D02*
D03*
Y11341750D02*
D03*
X16680180Y10782950D02*
D03*
Y10993120D02*
D03*
X16697960Y10225095D02*
D03*
Y10435265D02*
D03*
X15077440Y9900270D02*
D03*
Y9690100D02*
D03*
X16675101Y15581010D02*
D03*
Y15791180D02*
D03*
X16695419Y9866305D02*
D03*
Y9656135D02*
D03*
X16680180Y12586645D02*
D03*
Y12376475D02*
D03*
Y12054840D02*
D03*
Y11844670D02*
D03*
X16672560Y15012994D02*
D03*
Y15223164D02*
D03*
X16680180Y13655984D02*
D03*
Y12891150D02*
D03*
X17835880Y13803955D02*
D03*
Y14014125D02*
D03*
X18216879Y13819196D02*
D03*
Y14029366D02*
D03*
X17835880Y14638670D02*
D03*
Y14848840D02*
D03*
X18209261Y14844705D02*
D03*
Y14634535D02*
D03*
X16677640Y13953815D02*
D03*
Y14163985D02*
D03*
X15059660Y13201324D02*
D03*
Y12991154D02*
D03*
D15*
X14815820Y15528198D02*
D03*
X16380460Y13782224D02*
D03*
X16311880Y10598241D02*
D03*
X16400780Y7293519D02*
D03*
Y7113361D02*
D03*
X14853920Y8790757D02*
D03*
Y8610600D02*
D03*
X15913100Y7479121D02*
D03*
Y7659279D02*
D03*
X16311880Y10778399D02*
D03*
X16380460Y13962379D02*
D03*
X15836900Y10944860D02*
D03*
Y11125017D02*
D03*
X14792960Y12074977D02*
D03*
Y11894820D02*
D03*
X21079460Y12475301D02*
D03*
Y12655458D02*
D03*
Y12848682D02*
D03*
Y13028839D02*
D03*
X21089619Y12068901D02*
D03*
Y12249058D02*
D03*
X14815820Y15348041D02*
D03*
X15844521Y14362521D02*
D03*
Y14542679D02*
D03*
D17*
X19410854Y13492480D02*
D03*
X19405772Y13837920D02*
D03*
Y14168120D02*
D03*
D18*
X19745959Y13492480D02*
D03*
X19740880Y13837920D02*
D03*
Y14168120D02*
D03*
D56*
X22854919Y15726222D02*
D03*
Y15226218D02*
D03*
X21719540Y10611038D02*
D03*
Y11111042D02*
D03*
X21765260Y14600296D02*
D03*
Y15100301D02*
D03*
D57*
X22829520Y13101981D02*
D03*
Y12231980D02*
D03*
X15057120Y10612120D02*
D03*
Y11482121D02*
D03*
X15067281Y14009979D02*
D03*
Y14879980D02*
D03*
X15120621Y8012481D02*
D03*
Y7142480D02*
D03*
X22834599Y14666620D02*
D03*
Y13796620D02*
D03*
X22821899Y11557000D02*
D03*
Y10686999D02*
D03*
X22857460Y8357921D02*
D03*
Y7487920D02*
D03*
D58*
X22316440Y15360001D02*
D03*
Y15120000D02*
D03*
%TF.MD5,01e32bcce0e8504b34800765860ef80b*%
M02*
