%TF.GenerationSoftware,Altium Limited,Altium Designer,21.6.4 (81)*%
G04 Layer_Color=255*
%FSLAX45Y45*%
%MOMM*%
%TF.SameCoordinates,09A83190-5573-4C43-887F-21FCEAA25094*%
%TF.FilePolarity,Positive*%
%TF.FileFunction,Pads,Bot*%
%TF.Part,Single*%
G01*
G75*
%TA.AperFunction,SMDPad,CuDef*%
G04:AMPARAMS|DCode=12|XSize=1.60712mm|YSize=0.76213mm|CornerRadius=0.38107mm|HoleSize=0mm|Usage=FLASHONLY|Rotation=0.000|XOffset=0mm|YOffset=0mm|HoleType=Round|Shape=RoundedRectangle|*
%AMROUNDEDRECTD12*
21,1,1.60712,0.00000,0,0,0.0*
21,1,0.84499,0.76213,0,0,0.0*
1,1,0.76213,0.42249,0.00000*
1,1,0.76213,-0.42249,0.00000*
1,1,0.76213,-0.42249,0.00000*
1,1,0.76213,0.42249,0.00000*
%
%ADD12ROUNDEDRECTD12*%
%ADD13R,1.60712X0.76213*%
%ADD14R,1.20651X1.50822*%
%ADD15R,1.50464X1.55620*%
%ADD16R,1.50822X1.20651*%
%ADD17R,1.55620X1.50464*%
%TA.AperFunction,ComponentPad*%
%ADD38C,1.52400*%
%TA.AperFunction,ViaPad*%
%ADD39C,2.00000*%
%TA.AperFunction,ComponentPad*%
%ADD40C,1.95000*%
G04:AMPARAMS|DCode=41|XSize=1.95mm|YSize=1.95mm|CornerRadius=0.4875mm|HoleSize=0mm|Usage=FLASHONLY|Rotation=270.000|XOffset=0mm|YOffset=0mm|HoleType=Round|Shape=RoundedRectangle|*
%AMROUNDEDRECTD41*
21,1,1.95000,0.97500,0,0,270.0*
21,1,0.97500,1.95000,0,0,270.0*
1,1,0.97500,-0.48750,-0.48750*
1,1,0.97500,-0.48750,0.48750*
1,1,0.97500,0.48750,0.48750*
1,1,0.97500,0.48750,-0.48750*
%
%ADD41ROUNDEDRECTD41*%
%ADD42C,1.50000*%
%ADD43R,1.50000X1.50000*%
%ADD44C,1.57480*%
%ADD45R,1.57480X1.57480*%
%ADD46R,2.05740X2.05740*%
%ADD47C,2.05740*%
%ADD48C,1.20000*%
%ADD49R,1.20000X1.20000*%
%ADD50O,2.00000X1.00000*%
%ADD51O,2.00000X1.00000*%
%ADD52R,2.05740X2.05740*%
%ADD53C,2.05000*%
%ADD54R,2.05000X2.05000*%
%ADD55R,1.20000X1.20000*%
%TA.AperFunction,SMDPad,CuDef*%
%ADD58R,1.20000X1.10000*%
%ADD59R,1.10000X1.20000*%
%ADD60R,7.50000X3.00000*%
%ADD61R,2.00000X4.10000*%
%ADD62R,0.50000X1.00000*%
D12*
X19745959Y13492480D02*
D03*
X19740880Y13837920D02*
D03*
Y14168120D02*
D03*
D13*
X19410854Y13492480D02*
D03*
X19405772Y13837920D02*
D03*
Y14168120D02*
D03*
D14*
X20851804Y12484100D02*
D03*
X20641634D02*
D03*
X17537755Y13253720D02*
D03*
X17747925D02*
D03*
X20636555Y12849860D02*
D03*
X20846725D02*
D03*
X20639095Y12072620D02*
D03*
X20849265D02*
D03*
D15*
X20603300Y14213840D02*
D03*
X20783459D02*
D03*
X20608382Y14986000D02*
D03*
X20788539D02*
D03*
X20594502Y14582140D02*
D03*
X20774660D02*
D03*
D16*
X21015961Y14210355D02*
D03*
Y14420525D02*
D03*
X17861279Y11673840D02*
D03*
Y11463670D02*
D03*
X18219420D02*
D03*
Y11673840D02*
D03*
X17853661Y10618795D02*
D03*
Y10828965D02*
D03*
X17886681Y7202496D02*
D03*
Y7412666D02*
D03*
X17881599Y8172125D02*
D03*
Y7961955D02*
D03*
X18224500Y10829910D02*
D03*
Y10619740D02*
D03*
X21005800Y15205385D02*
D03*
Y14995215D02*
D03*
X21010880Y14586275D02*
D03*
Y14796445D02*
D03*
X16680180Y13101320D02*
D03*
Y13445815D02*
D03*
X16675101Y14520235D02*
D03*
Y14730405D02*
D03*
X18227040Y7207575D02*
D03*
Y7417745D02*
D03*
X18224500Y8174665D02*
D03*
Y7964495D02*
D03*
X15125700Y6686226D02*
D03*
Y6476056D02*
D03*
X16703040Y7286315D02*
D03*
Y7496485D02*
D03*
X16713200Y8062905D02*
D03*
Y7852735D02*
D03*
X16703040Y6444925D02*
D03*
Y6234755D02*
D03*
Y6783394D02*
D03*
Y6993564D02*
D03*
X16713200Y8556610D02*
D03*
Y8346440D02*
D03*
X16718280Y9125570D02*
D03*
Y8915400D02*
D03*
X16682719Y11551920D02*
D03*
Y11341750D02*
D03*
X16680180Y10782950D02*
D03*
Y10993120D02*
D03*
X16697960Y10225095D02*
D03*
Y10435265D02*
D03*
X15077440Y9900270D02*
D03*
Y9690100D02*
D03*
X16675101Y15581010D02*
D03*
Y15791180D02*
D03*
X16695419Y9866305D02*
D03*
Y9656135D02*
D03*
X16680180Y12586645D02*
D03*
Y12376475D02*
D03*
Y12054840D02*
D03*
Y11844670D02*
D03*
X16672560Y15012994D02*
D03*
Y15223164D02*
D03*
X16680180Y13655984D02*
D03*
Y12891150D02*
D03*
X17835880Y13803955D02*
D03*
Y14014125D02*
D03*
X18216879Y13819196D02*
D03*
Y14029366D02*
D03*
X17835880Y14638670D02*
D03*
Y14848840D02*
D03*
X18209261Y14844705D02*
D03*
Y14634535D02*
D03*
X16677640Y13953815D02*
D03*
Y14163985D02*
D03*
X15059660Y13201324D02*
D03*
Y12991154D02*
D03*
D17*
X14815820Y15528198D02*
D03*
X16380460Y13782224D02*
D03*
X16311880Y10598241D02*
D03*
X16400780Y7293519D02*
D03*
Y7113361D02*
D03*
X14853920Y8790757D02*
D03*
Y8610600D02*
D03*
X15913100Y7479121D02*
D03*
Y7659279D02*
D03*
X16311880Y10778399D02*
D03*
X16380460Y13962379D02*
D03*
X15836900Y10944860D02*
D03*
Y11125017D02*
D03*
X14792960Y12074977D02*
D03*
Y11894820D02*
D03*
X21079460Y12475301D02*
D03*
Y12655458D02*
D03*
Y12848682D02*
D03*
Y13028839D02*
D03*
X21089619Y12068901D02*
D03*
Y12249058D02*
D03*
X14815820Y15348041D02*
D03*
X15844521Y14362521D02*
D03*
Y14542679D02*
D03*
D38*
X13797279Y8280400D02*
D03*
X12466320Y6446520D02*
D03*
X14551660Y8394700D02*
D03*
X14127480Y7637780D02*
D03*
X15339059Y6412418D02*
D03*
Y6662420D02*
D03*
X15346680Y9919782D02*
D03*
Y9669780D02*
D03*
X14053819Y9685020D02*
D03*
X12367260Y9847580D02*
D03*
X13769341Y11696700D02*
D03*
X21818600Y9207500D02*
D03*
X21821140Y9552940D02*
D03*
X15631160Y12994640D02*
D03*
X15346680Y12979401D02*
D03*
Y13229402D02*
D03*
X14348460Y12959081D02*
D03*
X9751060Y13446761D02*
D03*
X9712960Y10048240D02*
D03*
X9743440Y6682740D02*
D03*
X13726160Y15372079D02*
D03*
X15676880Y15618460D02*
D03*
X16314420Y13286740D02*
D03*
X15979140Y13820140D02*
D03*
X15626080Y6515100D02*
D03*
X16014700Y10533380D02*
D03*
X16362680Y14490700D02*
D03*
X14112241Y6865620D02*
D03*
X15519400Y8956040D02*
D03*
X16375380Y7848600D02*
D03*
X15219679Y15463519D02*
D03*
X15194279Y12054840D02*
D03*
X14520230Y15339040D02*
D03*
X21899879Y15471140D02*
D03*
X16431261Y6779260D02*
D03*
X16159480Y7084060D02*
D03*
X17884140Y7688580D02*
D03*
X18610580Y14328140D02*
D03*
X14056360Y14465300D02*
D03*
X17843500Y14343381D02*
D03*
X18596458Y11153140D02*
D03*
X15440660Y12316460D02*
D03*
X14528799Y11686540D02*
D03*
X16418559Y10048240D02*
D03*
X16296640Y11336020D02*
D03*
X14058900Y11082020D02*
D03*
X15676880Y9738360D02*
D03*
X17853661Y11153140D02*
D03*
X18603519Y7660081D02*
D03*
X15247620Y8694420D02*
D03*
X23624541Y14907260D02*
D03*
X11463020Y7444740D02*
D03*
X11713022D02*
D03*
X10767060Y7355840D02*
D03*
X11411138Y10825480D02*
D03*
X11661140D02*
D03*
X11391900Y14300200D02*
D03*
X11641902D02*
D03*
X10759440Y10761980D02*
D03*
X12342597Y13229590D02*
D03*
X23886160Y11021060D02*
D03*
X24173180Y13088620D02*
D03*
X10767060Y14216380D02*
D03*
D39*
X24274306Y14266034D02*
D03*
X24246840Y11864340D02*
D03*
D40*
X6725122Y13874963D02*
D03*
X23912358Y7666777D02*
D03*
X6741160Y10474960D02*
D03*
X6758142Y7088083D02*
D03*
D41*
X6725122Y14374962D02*
D03*
X23912358Y7166778D02*
D03*
X6741160Y10974959D02*
D03*
X6758142Y7588082D02*
D03*
D42*
X20294122Y10957560D02*
D03*
Y11211560D02*
D03*
Y11719560D02*
D03*
Y12227560D02*
D03*
Y12481560D02*
D03*
Y11973560D02*
D03*
Y11465560D02*
D03*
X18214340Y13251180D02*
D03*
Y12997180D02*
D03*
X18211800Y12240260D02*
D03*
Y11986260D02*
D03*
X18229581Y6647180D02*
D03*
Y6393180D02*
D03*
X18219420Y8732520D02*
D03*
Y8478520D02*
D03*
X18229581Y10045700D02*
D03*
Y9791700D02*
D03*
X20284441Y13571220D02*
D03*
Y14079221D02*
D03*
Y14587219D02*
D03*
Y14333220D02*
D03*
Y13825220D02*
D03*
Y13317220D02*
D03*
Y13063220D02*
D03*
X18196082Y15156180D02*
D03*
Y15410181D02*
D03*
X6492240Y16609061D02*
D03*
Y16863060D02*
D03*
X9651522Y16603979D02*
D03*
Y16857980D02*
D03*
X12694442Y16581120D02*
D03*
Y16835120D02*
D03*
X15747522Y16637000D02*
D03*
Y16891000D02*
D03*
X21882100Y16591280D02*
D03*
Y16845280D02*
D03*
X18828542Y16570959D02*
D03*
Y16824960D02*
D03*
D43*
X20294122Y12735560D02*
D03*
X18214340Y13505180D02*
D03*
X18211800Y12494260D02*
D03*
X18229581Y6901180D02*
D03*
X18219420Y8986520D02*
D03*
X18229581Y10299700D02*
D03*
X20284441Y14841220D02*
D03*
X18196082Y15664180D02*
D03*
X6492240Y17117059D02*
D03*
X9651522Y17111980D02*
D03*
X12694442Y17089120D02*
D03*
X15747522Y17145000D02*
D03*
X21882100Y17099280D02*
D03*
X18828542Y17078960D02*
D03*
D44*
X9415780Y15303500D02*
D03*
X9357360Y11798300D02*
D03*
X9395460Y8417560D02*
D03*
D45*
X12285980Y15303500D02*
D03*
X12227560Y11798300D02*
D03*
X12265660Y8417560D02*
D03*
D46*
X24180800Y10535920D02*
D03*
D47*
Y8346440D02*
D03*
X23284180Y6898640D02*
D03*
D48*
X17164822Y13266420D02*
D03*
X17142461Y6868160D02*
D03*
Y6614160D02*
D03*
X17152620Y10043160D02*
D03*
Y10297160D02*
D03*
Y12247880D02*
D03*
Y12501880D02*
D03*
Y11170920D02*
D03*
Y10916920D02*
D03*
X17142461Y8732520D02*
D03*
Y8986520D02*
D03*
X17137880Y7675879D02*
D03*
Y7421879D02*
D03*
X17175481Y14343381D02*
D03*
Y14089380D02*
D03*
X17167860Y15405099D02*
D03*
Y15659100D02*
D03*
X17164822Y13520419D02*
D03*
X21277580Y8971280D02*
D03*
Y9225280D02*
D03*
X12623800Y7327900D02*
D03*
X12369800D02*
D03*
X12313920Y10706598D02*
D03*
X12567920D02*
D03*
X12557760Y14175740D02*
D03*
X12303760D02*
D03*
D49*
X17142461Y6360160D02*
D03*
X17152620Y9789160D02*
D03*
Y11993880D02*
D03*
Y11424920D02*
D03*
X17142461Y8478520D02*
D03*
X17137880Y7929879D02*
D03*
X17175481Y14597380D02*
D03*
X17167860Y15151100D02*
D03*
X17164822Y13012421D02*
D03*
X21277580Y9479280D02*
D03*
D50*
X8961120Y16776700D02*
D03*
Y17030701D02*
D03*
X11998960Y17020540D02*
D03*
Y16766541D02*
D03*
X15046960Y16995140D02*
D03*
Y16741141D02*
D03*
X18087340Y16969740D02*
D03*
Y16715739D02*
D03*
X24297639Y16954500D02*
D03*
Y16700500D02*
D03*
X21145500Y16924020D02*
D03*
Y16670020D02*
D03*
D51*
X8961120Y16903700D02*
D03*
X11998960Y16893539D02*
D03*
X15046960Y16868140D02*
D03*
X18087340Y16842740D02*
D03*
X24297639Y16827499D02*
D03*
X21145500Y16797020D02*
D03*
D52*
X21094701Y6898640D02*
D03*
D53*
X23825200Y12125960D02*
D03*
Y11871960D02*
D03*
X23835361Y14297659D02*
D03*
Y14551660D02*
D03*
D54*
X23825200Y11618458D02*
D03*
X23835361Y14044157D02*
D03*
D55*
X12115800Y7327900D02*
D03*
X12059920Y10706598D02*
D03*
X12049760Y14175740D02*
D03*
D58*
X12898120Y14387419D02*
D03*
Y14177422D02*
D03*
X14432280Y6514238D02*
D03*
Y6724240D02*
D03*
X13014960Y7549739D02*
D03*
Y7339741D02*
D03*
X12956540Y10915239D02*
D03*
Y10705241D02*
D03*
D59*
X13942879Y10180320D02*
D03*
X14152879D02*
D03*
X13920882Y13690601D02*
D03*
X14130879D02*
D03*
D60*
X22854919Y15726222D02*
D03*
Y15226218D02*
D03*
X21673820Y11187242D02*
D03*
Y10687238D02*
D03*
X21765260Y14600296D02*
D03*
Y15100301D02*
D03*
D61*
X22829520Y13101981D02*
D03*
Y12231980D02*
D03*
X15057120Y10612120D02*
D03*
Y11482121D02*
D03*
X15067281Y14009979D02*
D03*
Y14879980D02*
D03*
X15120621Y8012481D02*
D03*
Y7142480D02*
D03*
X22834599Y14666620D02*
D03*
Y13796620D02*
D03*
X22821899Y11557000D02*
D03*
Y10686999D02*
D03*
X22857460Y8357921D02*
D03*
Y7487920D02*
D03*
D62*
X22316440Y15360001D02*
D03*
Y15120000D02*
D03*
%TF.MD5,f3dc905e13430add12e93e2da37f81c7*%
M02*
