%TF.GenerationSoftware,Altium Limited,Altium Designer,21.6.4 (81)*%
G04 Layer_Color=32896*
%FSLAX45Y45*%
%MOMM*%
%TF.SameCoordinates,09A83190-5573-4C43-887F-21FCEAA25094*%
%TF.FilePolarity,Positive*%
%TF.FileFunction,Legend,Bot*%
%TF.Part,Single*%
G01*
G75*
%TA.AperFunction,NonConductor*%
%ADD63C,0.25000*%
%ADD64C,0.20000*%
%ADD65C,0.25400*%
%ADD66C,0.15240*%
%ADD67C,0.12700*%
D63*
X12908121Y14497420D02*
G03*
X12908121Y14497420I-12500J0D01*
G01*
X14442281Y6834240D02*
G03*
X14442281Y6834240I-12500J0D01*
G01*
X13024960Y7659740D02*
G03*
X13024960Y7659740I-12500J0D01*
G01*
X14275380Y10182820D02*
G03*
X14275380Y10182820I-12500J0D01*
G01*
X12966541Y11025240D02*
G03*
X12966541Y11025240I-12500J0D01*
G01*
X14253380Y13693100D02*
G03*
X14253380Y13693100I-12500J0D01*
G01*
X19936620Y12735560D02*
G03*
X19936620Y12735560I-12500J0D01*
G01*
X19367281Y13371873D02*
G03*
X19367281Y13371873I-12500J0D01*
G01*
X19362199Y13717313D02*
G03*
X19362199Y13717313I-12500J0D01*
G01*
Y14047513D02*
G03*
X19362199Y14047513I-12500J0D01*
G01*
X17856841Y13505180D02*
G03*
X17856841Y13505180I-12500J0D01*
G01*
X17854300Y12494260D02*
G03*
X17854300Y12494260I-12500J0D01*
G01*
X17872079Y6901180D02*
G03*
X17872079Y6901180I-12500J0D01*
G01*
X17861920Y8986520D02*
G03*
X17861920Y8986520I-12500J0D01*
G01*
X17872079Y10299700D02*
G03*
X17872079Y10299700I-12500J0D01*
G01*
X19926938Y14841220D02*
G03*
X19926938Y14841220I-12500J0D01*
G01*
X9108620Y17186700D02*
G03*
X9108620Y17186700I-12500J0D01*
G01*
X17838580Y15664180D02*
G03*
X17838580Y15664180I-12500J0D01*
G01*
X6134740Y17117059D02*
G03*
X6134740Y17117059I-12500J0D01*
G01*
X9294020Y17111980D02*
G03*
X9294020Y17111980I-12500J0D01*
G01*
X12146460Y17176540D02*
G03*
X12146460Y17176540I-12500J0D01*
G01*
X12336940Y17089120D02*
G03*
X12336940Y17089120I-12500J0D01*
G01*
X15194460Y17151140D02*
G03*
X15194460Y17151140I-12500J0D01*
G01*
X15390021Y17145000D02*
G03*
X15390021Y17145000I-12500J0D01*
G01*
X18234840Y17125740D02*
G03*
X18234840Y17125740I-12500J0D01*
G01*
X21524600Y17099280D02*
G03*
X21524600Y17099280I-12500J0D01*
G01*
X24445140Y17110500D02*
G03*
X24445140Y17110500I-12500J0D01*
G01*
X18471040Y17078960D02*
G03*
X18471040Y17078960I-12500J0D01*
G01*
X21292999Y17080020D02*
G03*
X21292999Y17080020I-12500J0D01*
G01*
X23891701Y11314035D02*
G03*
X23891701Y11314035I-12500J0D01*
G01*
X23901862Y13739735D02*
G03*
X23901862Y13739735I-12500J0D01*
G01*
D64*
X22829520Y13366980D02*
G03*
X22829520Y13356979I0J-5000D01*
G01*
D02*
G03*
X22829520Y13366980I0J5000D01*
G01*
D02*
G03*
X22829520Y13356979I0J-5000D01*
G01*
X15057120Y11747120D02*
G03*
X15057120Y11737120I0J-5000D01*
G01*
D02*
G03*
X15057120Y11747120I0J5000D01*
G01*
D02*
G03*
X15057120Y11737120I0J-5000D01*
G01*
X15067281Y15144980D02*
G03*
X15067281Y15134979I0J-5000D01*
G01*
D02*
G03*
X15067281Y15144980I0J5000D01*
G01*
D02*
G03*
X15067281Y15134979I0J-5000D01*
G01*
X9111120Y17101698D02*
G03*
X9111120Y16705702I-150000J-197998D01*
G01*
X15120621Y8277480D02*
G03*
X15120621Y8267480I0J-5000D01*
G01*
D02*
G03*
X15120621Y8277480I0J5000D01*
G01*
D02*
G03*
X15120621Y8267480I0J-5000D01*
G01*
X12148960Y17091537D02*
G03*
X12148960Y16695541I-150000J-197998D01*
G01*
X15196960Y17066138D02*
G03*
X15196960Y16670142I-150000J-197998D01*
G01*
X18237340Y17040738D02*
G03*
X18237340Y16644742I-150000J-197998D01*
G01*
X24447639Y17025497D02*
G03*
X24447639Y16629501I-150000J-197998D01*
G01*
X21295500Y16995018D02*
G03*
X21295500Y16599022I-150000J-197998D01*
G01*
X22834599Y13531619D02*
G03*
X22834599Y13541620I0J5000D01*
G01*
D02*
G03*
X22834599Y13531619I0J-5000D01*
G01*
D02*
G03*
X22834599Y13541620I0J5000D01*
G01*
X22821899Y10422000D02*
G03*
X22821899Y10432000I0J5000D01*
G01*
D02*
G03*
X22821899Y10422000I0J-5000D01*
G01*
D02*
G03*
X22821899Y10432000I0J5000D01*
G01*
X22857460Y7222920D02*
G03*
X22857460Y7232920I0J5000D01*
G01*
D02*
G03*
X22857460Y7222920I0J-5000D01*
G01*
D02*
G03*
X22857460Y7232920I0J5000D01*
G01*
X12830621Y14269917D02*
Y14294922D01*
X12965617Y14269917D02*
Y14294922D01*
X14499779Y6606740D02*
Y6631738D01*
X14364783Y6606740D02*
Y6631738D01*
X12947462Y7432238D02*
Y7457242D01*
X13082458Y7432238D02*
Y7457242D01*
X14035381Y10112822D02*
X14060378D01*
X14035381Y10247818D02*
X14060378D01*
X12889043Y10797738D02*
Y10822742D01*
X13024039Y10797738D02*
Y10822742D01*
X14013377Y13623102D02*
X14038382D01*
X14013377Y13758098D02*
X14038382D01*
X6390122Y13624940D02*
X7125122D01*
X6225118D02*
X6320119D01*
X6225118D02*
Y14624939D01*
X7125122Y13624940D02*
Y14624939D01*
X6910121D02*
X7125122D01*
X6225118D02*
X6840098D01*
X6815120Y14684949D02*
X6935119D01*
X6910141Y14624939D02*
X6935119Y14684949D01*
X6815120D02*
X6840098Y14624939D01*
X6295141Y13564931D02*
X6320119Y13624940D01*
X6295141Y13564931D02*
X6415141D01*
X6390162Y13624940D02*
X6415141Y13564931D01*
X19966620Y10813562D02*
X20561620D01*
Y12879558D01*
X19966620D02*
X20561620D01*
X19966620Y10813562D02*
Y12879558D01*
X21078459Y14308182D02*
Y14322699D01*
X20953461Y14308182D02*
Y14322699D01*
X20528072Y14331650D02*
X20858688D01*
X20528072Y14096030D02*
X20858688D01*
X19713406Y13414980D02*
Y13422733D01*
X19443405Y13414980D02*
X19713406D01*
X19443405D02*
Y13422733D01*
X19713406Y13562228D02*
Y13569980D01*
X19443405D02*
X19713406D01*
X19443405Y13562228D02*
Y13569980D01*
X19708327Y13760420D02*
Y13768172D01*
X19438326Y13760420D02*
X19708327D01*
X19438326D02*
Y13768172D01*
X19708327Y13907668D02*
Y13915421D01*
X19438326D02*
X19708327D01*
X19438326Y13907668D02*
Y13915421D01*
X19708327Y14090620D02*
Y14098372D01*
X19438326Y14090620D02*
X19708327D01*
X19438326D02*
Y14098372D01*
X19708327Y14237868D02*
Y14245621D01*
X19438326D02*
X19708327D01*
X19438326Y14237868D02*
Y14245621D01*
X17886836Y12853181D02*
X18481837D01*
Y13649178D01*
X17886836D02*
X18481837D01*
X17886836Y12853181D02*
Y13649178D01*
X17884297Y11842262D02*
X18479298D01*
Y12638258D01*
X17884297D02*
X18479298D01*
X17884297Y11842262D02*
Y12638258D01*
X17798781Y11561496D02*
Y11576014D01*
X17923779Y11561496D02*
Y11576014D01*
X18281918Y11561496D02*
Y11576014D01*
X18156921Y11561496D02*
Y11576014D01*
X17916159Y10716621D02*
Y10731139D01*
X17791161Y10716621D02*
Y10731139D01*
X17902077Y6249182D02*
X18497078D01*
Y7045178D01*
X17902077D02*
X18497078D01*
X17902077Y6249182D02*
Y7045178D01*
X17949179Y7300321D02*
Y7314840D01*
X17824181Y7300321D02*
Y7314840D01*
X17819101Y8059781D02*
Y8074299D01*
X17944099Y8059781D02*
Y8074299D01*
X17891917Y8334522D02*
X18486919D01*
Y9130518D01*
X17891917D02*
X18486919D01*
X17891917Y8334522D02*
Y9130518D01*
X17902077Y9647702D02*
X18497078D01*
Y10443698D01*
X17902077D02*
X18497078D01*
X17902077Y9647702D02*
Y10443698D01*
X18162001Y10717566D02*
Y10732084D01*
X18287000Y10717566D02*
Y10732084D01*
X22504918Y15388722D02*
Y15563718D01*
X23204922Y15388722D02*
Y15563718D01*
X20739461Y12546599D02*
X20753979D01*
X20739461Y12421601D02*
X20753979D01*
X20533151Y15103810D02*
X20863768D01*
X20533151Y14868190D02*
X20863768D01*
X20519273Y14699950D02*
X20849890D01*
X20519273Y14464330D02*
X20849890D01*
X20943301Y15093040D02*
Y15107559D01*
X21068298Y15093040D02*
Y15107559D01*
X21073380Y14684100D02*
Y14698619D01*
X20948381Y14684100D02*
Y14698619D01*
X22572020Y13181979D02*
X22629520D01*
X22314520Y13041982D02*
X22572020Y13181979D01*
X22314520Y12151980D02*
Y13041982D01*
Y12151980D02*
X22629520D01*
X23029520D02*
X23344521D01*
Y13041982D01*
X23087019Y13181979D02*
X23344521Y13041982D01*
X23029520Y13181979D02*
X23087019D01*
X19956937Y12919221D02*
Y14985217D01*
X20551938D01*
Y12919221D02*
Y14985217D01*
X19956937Y12919221D02*
X20551938D01*
X22253941Y15155000D02*
Y15410002D01*
X22378938Y15155000D02*
Y15324998D01*
X17635580Y13191222D02*
X17650099D01*
X17635580Y13316219D02*
X17650099D01*
X16737599Y14618060D02*
Y14632579D01*
X16612601Y14618060D02*
Y14632579D01*
X17390958Y6125159D02*
Y7103161D01*
X16894962Y6125159D02*
X17390958D01*
X16894962D02*
Y7103161D01*
X17390958D01*
X23512358Y7916799D02*
X24247359D01*
X24317361D02*
X24412363D01*
Y6916801D02*
Y7916799D01*
X23512358Y6916801D02*
Y7916799D01*
Y6916801D02*
X23727359D01*
X23797382D02*
X24412363D01*
X23702361Y6856791D02*
X23822360D01*
X23702361D02*
X23727339Y6916801D01*
X23797382D02*
X23822360Y6856791D01*
X24317361Y7916799D02*
X24342339Y7976809D01*
X24222339D02*
X24342339D01*
X24222339D02*
X24247318Y7916799D01*
X16518590Y7038132D02*
Y7368748D01*
X16282970Y7038132D02*
Y7368748D01*
X18289539Y7305401D02*
Y7319919D01*
X18164542Y7305401D02*
Y7319919D01*
X18162001Y8062321D02*
Y8076839D01*
X18287000Y8062321D02*
Y8076839D01*
X15063200Y6573881D02*
Y6588400D01*
X15188199Y6573881D02*
Y6588400D01*
X14971730Y8535370D02*
Y8865987D01*
X14736110Y8535370D02*
Y8865987D01*
X16765540Y7384141D02*
Y7398659D01*
X16640541Y7384141D02*
Y7398659D01*
X16650700Y7950561D02*
Y7965079D01*
X16775699Y7950561D02*
Y7965079D01*
X15795290Y7403892D02*
Y7734508D01*
X16030910Y7403892D02*
Y7734508D01*
X16640541Y6332581D02*
Y6347099D01*
X16765540Y6332581D02*
Y6347099D01*
Y6881220D02*
Y6895739D01*
X16640541Y6881220D02*
Y6895739D01*
X16650700Y8444266D02*
Y8458784D01*
X16775699Y8444266D02*
Y8458784D01*
X16655782Y9013226D02*
Y9027744D01*
X16780779Y9013226D02*
Y9027744D01*
X15257120Y11562121D02*
X15314619D01*
X15572121Y11422121D01*
Y10532120D02*
Y11422121D01*
X15257120Y10532120D02*
X15572121D01*
X14542120D02*
X14857120D01*
X14542120D02*
Y11422121D01*
X14799620Y11562121D01*
X14857120D01*
X16429691Y10523012D02*
Y10853628D01*
X16194070Y10523012D02*
Y10853628D01*
X15267281Y14959979D02*
X15324780D01*
X15582280Y14819981D01*
Y13929980D02*
Y14819981D01*
X15267281Y13929980D02*
X15582280D01*
X14552280D02*
X14867281D01*
X14552280D02*
Y14819981D01*
X14809779Y14959979D01*
X14867281D01*
X16498270Y13706993D02*
Y14037610D01*
X16262650Y13706993D02*
Y14037610D01*
X16620221Y11439576D02*
Y11454094D01*
X16745219Y11439576D02*
Y11454094D01*
X16742679Y10880776D02*
Y10895294D01*
X16617680Y10880776D02*
Y10895294D01*
X16760458Y10322921D02*
Y10337439D01*
X16635461Y10322921D02*
Y10337439D01*
X15014941Y9787926D02*
Y9802444D01*
X15139938Y9787926D02*
Y9802444D01*
X15719090Y10869630D02*
Y11200247D01*
X15954710Y10869630D02*
Y11200247D01*
X14910770Y11819590D02*
Y12150207D01*
X14675150Y11819590D02*
Y12150207D01*
X16737599Y15678836D02*
Y15693353D01*
X16612601Y15678836D02*
Y15693353D01*
X16632921Y9753961D02*
Y9768479D01*
X16757919Y9753961D02*
Y9768479D01*
X16905122Y10532161D02*
X17401118D01*
X16905122Y9554159D02*
Y10532161D01*
Y9554159D02*
X17401118D01*
Y10532161D01*
X16617680Y12474301D02*
Y12488819D01*
X16742679Y12474301D02*
Y12488819D01*
X16617680Y11942496D02*
Y11957014D01*
X16742679Y11942496D02*
Y11957014D01*
X16905122Y12736881D02*
X17401118D01*
X16905122Y11758879D02*
Y12736881D01*
Y11758879D02*
X17401118D01*
Y12736881D01*
X16904121Y10681919D02*
X17400117D01*
Y11659921D01*
X16904121D02*
X17400117D01*
X16904121Y10681919D02*
Y11659921D01*
X16894957Y9221521D02*
X17390958D01*
X16894957Y8243519D02*
Y9221521D01*
Y8243519D02*
X17390958D01*
Y9221521D01*
X16889381Y7186879D02*
X17385378D01*
Y8164880D01*
X16889381D02*
X17385378D01*
X16889381Y7186879D02*
Y8164880D01*
X20961650Y12400071D02*
Y12730688D01*
X21197270Y12400071D02*
Y12730688D01*
X20961650Y12773452D02*
Y13104068D01*
X21197270Y12773452D02*
Y13104068D01*
X20734381Y12787361D02*
X20748898D01*
X20734381Y12912360D02*
X20748898D01*
X20736920Y12010121D02*
X20751439D01*
X20736920Y12135119D02*
X20751439D01*
X20971809Y11993671D02*
Y12324288D01*
X21207430Y11993671D02*
Y12324288D01*
X14698010Y15272812D02*
Y15603429D01*
X14933630Y15272812D02*
Y15603429D01*
X16735059Y15110822D02*
Y15125339D01*
X16610062Y15110822D02*
Y15125339D01*
X16742679Y13543642D02*
Y13558159D01*
X16617680Y13543642D02*
Y13558159D01*
X16742679Y12988976D02*
Y13003494D01*
X16617680Y12988976D02*
Y13003494D01*
X17898380Y13901781D02*
Y13916299D01*
X17773381Y13901781D02*
Y13916299D01*
X18279379Y13917021D02*
Y13931538D01*
X18154381Y13917021D02*
Y13931538D01*
X17898380Y14736496D02*
Y14751015D01*
X17773381Y14736496D02*
Y14751015D01*
X18146761Y14732361D02*
Y14746880D01*
X18271759Y14732361D02*
Y14746880D01*
X16740138Y14051640D02*
Y14066159D01*
X16615141Y14051640D02*
Y14066159D01*
X15726711Y14287292D02*
Y14617908D01*
X15962331Y14287292D02*
Y14617908D01*
X14997160Y13088982D02*
Y13103499D01*
X15122159Y13088982D02*
Y13103499D01*
X16926982Y13854379D02*
X17422978D01*
Y14832381D01*
X16926982D02*
X17422978D01*
X16926982Y13854379D02*
Y14832381D01*
X9111122Y16705702D02*
Y17101698D01*
X16920361Y15894101D02*
X17416357D01*
X16920361Y14916100D02*
Y15894101D01*
Y14916100D02*
X17416357D01*
Y15894101D01*
X16917319Y13755421D02*
X17413321D01*
X16917319Y12777419D02*
Y13755421D01*
Y12777419D02*
X17413321D01*
Y13755421D01*
X17868581Y15012183D02*
Y15808179D01*
X18463580D01*
Y15012183D02*
Y15808179D01*
X17868581Y15012183D02*
X18463580D01*
X14863120Y8092481D02*
X14920621D01*
X14605620Y7952481D02*
X14863120Y8092481D01*
X14605620Y7062480D02*
Y7952481D01*
Y7062480D02*
X14920621D01*
X15320621D02*
X15635620D01*
Y7952481D01*
X15378120Y8092481D02*
X15635620Y7952481D01*
X15320621Y8092481D02*
X15378120D01*
X6164737Y16465062D02*
Y17261058D01*
X6759738D01*
Y16465062D02*
Y17261058D01*
X6164737Y16465062D02*
X6759738D01*
X9324020Y16459982D02*
Y17255978D01*
X9919020D01*
Y16459982D02*
Y17255978D01*
X9324020Y16459982D02*
X9919020D01*
X12148962Y16695541D02*
Y17091537D01*
X12366940Y16437122D02*
Y17233118D01*
X12961940D01*
Y16437122D02*
Y17233118D01*
X12366940Y16437122D02*
X12961940D01*
X15196962Y16670142D02*
Y17066138D01*
X15420020Y16493002D02*
Y17288998D01*
X16015021D01*
Y16493002D02*
Y17288998D01*
X15420020Y16493002D02*
X16015021D01*
X18237341Y16644742D02*
Y17040738D01*
X21554597Y16447282D02*
Y17243279D01*
X22149599D01*
Y16447282D02*
Y17243279D01*
X21554597Y16447282D02*
X22149599D01*
X24447643Y16629501D02*
Y17025497D01*
X18501041Y16426962D02*
Y17222958D01*
X19096040D01*
Y16426962D02*
Y17222958D01*
X18501041Y16426962D02*
X19096040D01*
X21295502Y16599022D02*
Y16995018D01*
X22577100Y13716620D02*
X22634599D01*
X22319600Y13856619D02*
X22577100Y13716620D01*
X22319600Y13856619D02*
Y14746620D01*
X22634599D01*
X23034599D02*
X23349600D01*
Y13856619D02*
Y14746620D01*
X23092101Y13716620D02*
X23349600Y13856619D01*
X23034599Y13716620D02*
X23092101D01*
X22564400Y10606999D02*
X22621899D01*
X22306900Y10746999D02*
X22564400Y10606999D01*
X22306900Y10746999D02*
Y11637000D01*
X22621899D01*
X23021899D02*
X23336900D01*
Y10746999D02*
Y11637000D01*
X23079401Y10606999D02*
X23336900Y10746999D01*
X23021899Y10606999D02*
X23079401D01*
X23661700Y11465621D02*
X24096701Y11364036D01*
Y11369035D02*
Y12374885D01*
X23661700Y12278299D02*
X24096701Y12379884D01*
X23661700Y11465621D02*
Y12278299D01*
X22599960Y7407920D02*
X22657460D01*
X22342461Y7547920D02*
X22599960Y7407920D01*
X22342461Y7547920D02*
Y8437921D01*
X22657460D01*
X23057460D02*
X23372459D01*
Y7547920D02*
Y8437921D01*
X23114960Y7407920D02*
X23372459Y7547920D01*
X23057460Y7407920D02*
X23114960D01*
X21029082Y8736279D02*
Y9714281D01*
X21525082D01*
Y8736279D02*
Y9714281D01*
X21029082Y8736279D02*
X21525082D01*
X21323817Y10849742D02*
Y11024738D01*
X22023822Y10849742D02*
Y11024738D01*
X11880799Y7079402D02*
X12858801D01*
X11880799D02*
Y7575403D01*
X12858801D01*
Y7079402D02*
Y7575403D01*
X12802921Y10458099D02*
Y10954101D01*
X11824919D02*
X12802921D01*
X11824919Y10458099D02*
Y10954101D01*
Y10458099D02*
X12802921D01*
X23671860Y13891321D02*
Y14703999D01*
X24106860Y14805585D01*
Y13794736D02*
Y14800584D01*
X23671860Y13891321D02*
X24106860Y13789735D01*
X22115262Y14762801D02*
Y14937796D01*
X21415257Y14762801D02*
Y14937796D01*
X6406159Y10224938D02*
X7141159D01*
X6241161D02*
X6336157D01*
X6241161D02*
Y11224936D01*
X7141159Y10224938D02*
Y11224936D01*
X6926158D02*
X7141159D01*
X6241161D02*
X6856141D01*
X6831157Y11284946D02*
X6951157D01*
X6926179Y11224936D02*
X6951157Y11284946D01*
X6831157D02*
X6856141Y11224936D01*
X6311179Y10164928D02*
X6336157Y10224938D01*
X6311179Y10164928D02*
X6431178D01*
X6406200Y10224938D02*
X6431178Y10164928D01*
X6423142Y6838061D02*
X7158142D01*
X6258138D02*
X6353139D01*
X6258138D02*
Y7838059D01*
X7158142Y6838061D02*
Y7838059D01*
X6943141D02*
X7158142D01*
X6258138D02*
X6873118D01*
X6848140Y7898069D02*
X6968139D01*
X6943161Y7838059D02*
X6968139Y7898069D01*
X6848140D02*
X6873118Y7838059D01*
X6328161Y6778051D02*
X6353139Y6838061D01*
X6328161Y6778051D02*
X6448161D01*
X6423182Y6838061D02*
X6448161Y6778051D01*
X11814759Y13927242D02*
X12792761D01*
X11814759D02*
Y14423244D01*
X12792761D01*
Y13927242D02*
Y14423244D01*
D65*
X15466060Y6281420D02*
Y6789420D01*
X15212061Y6281420D02*
X15466060D01*
X15212061D02*
Y6789420D01*
X15466060D01*
X15473680Y9538782D02*
Y10046782D01*
X15219679Y9538782D02*
X15473680D01*
X15219679D02*
Y10046782D01*
X15473680D01*
X15219679Y13356403D02*
X15473680D01*
X15219679Y12848402D02*
Y13356403D01*
Y12848402D02*
X15473680D01*
Y13356403D01*
X11691620Y7571740D02*
X11844020D01*
X11336020D02*
X11488420D01*
X11336020Y7317740D02*
X11844020D01*
Y7571740D01*
X11488420D02*
X11691620D01*
X11336020Y7317740D02*
Y7571740D01*
X11639738Y10952480D02*
X11792138D01*
X11284138D02*
X11436538D01*
X11284138Y10698480D02*
X11792138D01*
Y10952480D01*
X11436538D02*
X11639738D01*
X11284138Y10698480D02*
Y10952480D01*
X11620500Y14427200D02*
X11772900D01*
X11264900D02*
X11417300D01*
X11264900Y14173199D02*
X11772900D01*
Y14427200D01*
X11417300D02*
X11620500D01*
X11264900Y14173199D02*
Y14427200D01*
D66*
X11968480Y14795500D02*
Y15811501D01*
X9733280D02*
X11968480D01*
X9733280Y14795500D02*
Y15811501D01*
Y14795500D02*
X11968480D01*
X9674860Y11290300D02*
X11910060D01*
X9674860D02*
Y12306300D01*
X11910060D01*
Y11290300D02*
Y12306300D01*
X24180800Y10792460D02*
Y10919460D01*
X24117300Y10894060D02*
X24244299D01*
X24117300Y10817860D02*
X24180800Y10894060D01*
X24130000Y10817860D02*
X24180800Y10894060D01*
X24142700Y10817860D02*
X24180800Y10894060D01*
X24155400Y10817860D02*
X24180800Y10894060D01*
X24168100Y10817860D02*
X24180800Y10894060D01*
X24244299Y10817860D01*
X24180800Y10894060D02*
X24231599Y10817860D01*
X24180800Y10894060D02*
X24218900Y10817860D01*
X24180800Y10894060D02*
X24206200Y10817860D01*
X24180800Y10894060D02*
X24193500Y10817860D01*
X24117300D02*
X24244299D01*
X24458929Y8953500D02*
Y9928860D01*
X23902670Y8953500D02*
X24458929D01*
X23902670D02*
Y9928860D01*
X24458929D01*
X20711160Y6898640D02*
X20838161D01*
X20736560Y6835140D02*
Y6962140D01*
Y6898640D02*
X20812759Y6835140D01*
X20736560Y6898640D02*
X20812759Y6847840D01*
X20736560Y6898640D02*
X20812759Y6860540D01*
X20736560Y6898640D02*
X20812759Y6873240D01*
X20736560Y6898640D02*
X20812759Y6885940D01*
X20736560Y6898640D02*
X20812759Y6962140D01*
X20736560Y6898640D02*
X20812759Y6949440D01*
X20736560Y6898640D02*
X20812759Y6936740D01*
X20736560Y6898640D02*
X20812759Y6924040D01*
X20736560Y6898640D02*
X20812759Y6911340D01*
Y6835140D02*
Y6962140D01*
X21701759Y7176770D02*
X22677119D01*
Y6620510D02*
Y7176770D01*
X21701759Y6620510D02*
X22677119D01*
X21701759D02*
Y7176770D01*
X9712960Y7909560D02*
X11948160D01*
X9712960D02*
Y8925560D01*
X11948160D01*
Y7909560D02*
Y8925560D01*
D67*
X21117572Y14234193D02*
X21193748D01*
Y14272281D01*
X21181052Y14284978D01*
X21155659D01*
X21142964Y14272281D01*
Y14234193D01*
Y14259586D02*
X21117572Y14284978D01*
X21181052Y14310368D02*
X21193748Y14323064D01*
Y14348456D01*
X21181052Y14361153D01*
X21168356D01*
X21155659Y14348456D01*
X21142964Y14361153D01*
X21130267D01*
X21117572Y14348456D01*
Y14323064D01*
X21130267Y14310368D01*
X21142964D01*
X21155659Y14323064D01*
X21168356Y14310368D01*
X21181052D01*
X21155659Y14323064D02*
Y14348456D01*
X21193748Y14437328D02*
Y14386543D01*
X21155659D01*
X21168356Y14411935D01*
Y14424632D01*
X21155659Y14437328D01*
X21130267D01*
X21117572Y14424632D01*
Y14399240D01*
X21130267Y14386543D01*
X8846832Y11315733D02*
X8770657D01*
Y11277645D01*
X8783353Y11264949D01*
X8808744D01*
X8821440Y11277645D01*
Y11315733D01*
Y11290341D02*
X8846832Y11264949D01*
X8834136Y11239557D02*
X8846832Y11226861D01*
Y11201470D01*
X8834136Y11188774D01*
X8783353D01*
X8770657Y11201470D01*
Y11226861D01*
X8783353Y11239557D01*
X8796049D01*
X8808744Y11226861D01*
Y11188774D01*
X8770657Y11112599D02*
X8783353Y11137990D01*
X8808744Y11163382D01*
X8834136D01*
X8846832Y11150686D01*
Y11125294D01*
X8834136Y11112599D01*
X8821440D01*
X8808744Y11125294D01*
Y11163382D01*
X22420580Y15577795D02*
X22369797D01*
Y15565099D01*
X22420580Y15514316D01*
Y15501620D01*
X22369797D01*
X22344405D02*
X22319012D01*
X22331709D01*
Y15577795D01*
X22344405Y15565099D01*
X16756401Y16026442D02*
Y16102618D01*
X16718314D01*
X16705617Y16089922D01*
Y16064529D01*
X16718314Y16051834D01*
X16756401D01*
X16731009D02*
X16705617Y16026442D01*
X16680225Y16102618D02*
X16629442D01*
Y16089922D01*
X16680225Y16039137D01*
Y16026442D01*
X24371317Y8138135D02*
X24396709D01*
X24384012D01*
Y8074656D01*
X24396709Y8061960D01*
X24409404D01*
X24422099Y8074656D01*
X24345924Y8061960D02*
X24320534D01*
X24333229D01*
Y8138135D01*
X24345924Y8125439D01*
X15623557Y15316179D02*
X15636252Y15328876D01*
X15661644D01*
X15674339Y15316179D01*
Y15265396D01*
X15661644Y15252699D01*
X15636252D01*
X15623557Y15265396D01*
X15598164Y15252699D02*
X15572774D01*
X15585469D01*
Y15328876D01*
X15598164Y15316179D01*
X15483902Y15328876D02*
X15509293Y15316179D01*
X15534685Y15290788D01*
Y15265396D01*
X15521989Y15252699D01*
X15496597D01*
X15483902Y15265396D01*
Y15278091D01*
X15496597Y15290788D01*
X15534685D01*
X21478223Y7137392D02*
X21490919Y7150088D01*
X21516312D01*
X21529007Y7137392D01*
Y7086608D01*
X21516312Y7073912D01*
X21490919D01*
X21478223Y7086608D01*
X21452832Y7073912D02*
Y7150088D01*
X21414745D01*
X21402048Y7137392D01*
Y7112000D01*
X21414745Y7099304D01*
X21452832D01*
X21427440D02*
X21402048Y7073912D01*
X21325873D02*
X21376656D01*
X21325873Y7124696D01*
Y7137392D01*
X21338568Y7150088D01*
X21363960D01*
X21376656Y7137392D01*
X19720528Y14030948D02*
Y13954771D01*
X19682439D01*
X19669743Y13967468D01*
Y14018253D01*
X19682439Y14030948D01*
X19720528D01*
X19593568Y13954771D02*
X19644353D01*
X19593568Y14005556D01*
Y14018253D01*
X19606264Y14030948D01*
X19631656D01*
X19644353Y14018253D01*
X19568176D02*
X19555479Y14030948D01*
X19530087D01*
X19517393Y14018253D01*
Y13967468D01*
X19530087Y13954771D01*
X19555479D01*
X19568176Y13967468D01*
Y14018253D01*
X19704019Y14404327D02*
Y14328152D01*
X19665932D01*
X19653236Y14340848D01*
Y14391632D01*
X19665932Y14404327D01*
X19704019D01*
X19627844Y14328152D02*
X19602452D01*
X19615147D01*
Y14404327D01*
X19627844Y14391632D01*
X19564365Y14340848D02*
X19551668Y14328152D01*
X19526276D01*
X19513580Y14340848D01*
Y14391632D01*
X19526276Y14404327D01*
X19551668D01*
X19564365Y14391632D01*
Y14378935D01*
X19551668Y14366240D01*
X19513580D01*
X14610068Y6513861D02*
X14533891D01*
Y6551949D01*
X14546588Y6564644D01*
X14597372D01*
X14610068Y6551949D01*
Y6513861D01*
X14533891Y6590036D02*
Y6615428D01*
Y6602732D01*
X14610068D01*
X14597372Y6590036D01*
Y6653516D02*
X14610068Y6666212D01*
Y6691604D01*
X14597372Y6704299D01*
X14584676D01*
X14571980Y6691604D01*
X14559283Y6704299D01*
X14546588D01*
X14533891Y6691604D01*
Y6666212D01*
X14546588Y6653516D01*
X14559283D01*
X14571980Y6666212D01*
X14584676Y6653516D01*
X14597372D01*
X14571980Y6666212D02*
Y6691604D01*
X13983997Y9977132D02*
Y10053308D01*
X14022084D01*
X14034779Y10040612D01*
Y9989828D01*
X14022084Y9977132D01*
X13983997D01*
X14060172Y10053308D02*
X14085564D01*
X14072867D01*
Y9977132D01*
X14060172Y9989828D01*
X14123651Y10053308D02*
X14149043D01*
X14136346D01*
Y9977132D01*
X14123651Y9989828D01*
X13977640Y13492493D02*
Y13568668D01*
X14015729D01*
X14028424Y13555972D01*
Y13505188D01*
X14015729Y13492493D01*
X13977640D01*
X14104599D02*
X14053815D01*
Y13530580D01*
X14079207Y13517883D01*
X14091904D01*
X14104599Y13530580D01*
Y13555972D01*
X14091904Y13568668D01*
X14066512D01*
X14053815Y13555972D01*
X17399001Y9304020D02*
Y9380195D01*
X17360912D01*
X17348216Y9367499D01*
Y9342108D01*
X17360912Y9329412D01*
X17399001D01*
X17373608D02*
X17348216Y9304020D01*
X17322826D02*
Y9380195D01*
X17284737D01*
X17272041Y9367499D01*
Y9342108D01*
X17284737Y9329412D01*
X17322826D01*
X17246649Y9304020D02*
X17221257D01*
X17233952D01*
Y9380195D01*
X17246649Y9367499D01*
X17183170D02*
X17170474Y9380195D01*
X17145082D01*
X17132385Y9367499D01*
Y9316716D01*
X17145082Y9304020D01*
X17170474D01*
X17183170Y9316716D01*
Y9367499D01*
X17406619Y11742420D02*
Y11818595D01*
X17368532D01*
X17355836Y11805899D01*
Y11780508D01*
X17368532Y11767812D01*
X17406619D01*
X17381229D02*
X17355836Y11742420D01*
X17330444D02*
Y11818595D01*
X17292357D01*
X17279662Y11805899D01*
Y11780508D01*
X17292357Y11767812D01*
X17330444D01*
X17254269Y11755116D02*
X17241573Y11742420D01*
X17216180D01*
X17203487Y11755116D01*
Y11805899D01*
X17216180Y11818595D01*
X17241573D01*
X17254269Y11805899D01*
Y11793203D01*
X17241573Y11780508D01*
X17203487D01*
X17409160Y10614660D02*
Y10690835D01*
X17371072D01*
X17358377Y10678139D01*
Y10652748D01*
X17371072Y10640052D01*
X17409160D01*
X17383768D02*
X17358377Y10614660D01*
X17332985D02*
Y10690835D01*
X17294897D01*
X17282201Y10678139D01*
Y10652748D01*
X17294897Y10640052D01*
X17332985D01*
X17256808Y10690835D02*
X17206026D01*
Y10678139D01*
X17256808Y10627356D01*
Y10614660D01*
X17409160Y12819380D02*
Y12895555D01*
X17371072D01*
X17358377Y12882858D01*
Y12857468D01*
X17371072Y12844772D01*
X17409160D01*
X17383768D02*
X17358377Y12819380D01*
X17332985D02*
Y12895555D01*
X17294897D01*
X17282201Y12882858D01*
Y12857468D01*
X17294897Y12844772D01*
X17332985D01*
X17206026Y12895555D02*
X17231416Y12882858D01*
X17256808Y12857468D01*
Y12832076D01*
X17244113Y12819380D01*
X17218721D01*
X17206026Y12832076D01*
Y12844772D01*
X17218721Y12857468D01*
X17256808D01*
X17429480Y14914880D02*
Y14991055D01*
X17391393D01*
X17378697Y14978358D01*
Y14952968D01*
X17391393Y14940273D01*
X17429480D01*
X17404088D02*
X17378697Y14914880D01*
X17353305D02*
Y14991055D01*
X17315218D01*
X17302521Y14978358D01*
Y14952968D01*
X17315218Y14940273D01*
X17353305D01*
X17239041Y14914880D02*
Y14991055D01*
X17277129Y14952968D01*
X17226346D01*
X17421860Y13837920D02*
Y13914095D01*
X17383772D01*
X17371077Y13901399D01*
Y13876009D01*
X17383772Y13863312D01*
X17421860D01*
X17396468D02*
X17371077Y13837920D01*
X17345685D02*
Y13914095D01*
X17307597D01*
X17294901Y13901399D01*
Y13876009D01*
X17307597Y13863312D01*
X17345685D01*
X17218726Y13837920D02*
X17269508D01*
X17218726Y13888702D01*
Y13901399D01*
X17231421Y13914095D01*
X17256813D01*
X17269508Y13901399D01*
X17424400Y15976601D02*
Y16052776D01*
X17386311D01*
X17373618Y16040079D01*
Y16014688D01*
X17386311Y16001991D01*
X17424400D01*
X17399008D02*
X17373618Y15976601D01*
X17348225D02*
Y16052776D01*
X17310136D01*
X17297441Y16040079D01*
Y16014688D01*
X17310136Y16001991D01*
X17348225D01*
X17272049Y15976601D02*
X17246657D01*
X17259354D01*
Y16052776D01*
X17272049Y16040079D01*
X18028932Y7170453D02*
X18105109D01*
Y7208541D01*
X18092412Y7221237D01*
X18067020D01*
X18054324Y7208541D01*
Y7170453D01*
Y7195845D02*
X18028932Y7221237D01*
X18105109Y7246628D02*
Y7297412D01*
X18092412D01*
X18041628Y7246628D01*
X18028932D01*
X18041628Y7322804D02*
X18028932Y7335500D01*
Y7360892D01*
X18041628Y7373587D01*
X18092412D01*
X18105109Y7360892D01*
Y7335500D01*
X18092412Y7322804D01*
X18079716D01*
X18067020Y7335500D01*
Y7373587D01*
X16824960Y7680960D02*
Y7757135D01*
X16786871D01*
X16774178Y7744439D01*
Y7719048D01*
X16786871Y7706352D01*
X16824960D01*
X16799568D02*
X16774178Y7680960D01*
X16748785Y7757135D02*
X16698001D01*
Y7744439D01*
X16748785Y7693656D01*
Y7680960D01*
X16621826Y7757135D02*
X16647217Y7744439D01*
X16672609Y7719048D01*
Y7693656D01*
X16659914Y7680960D01*
X16634521D01*
X16621826Y7693656D01*
Y7706352D01*
X16634521Y7719048D01*
X16672609D01*
X18354053Y7195853D02*
X18430228D01*
Y7233941D01*
X18417532Y7246637D01*
X18392140D01*
X18379443Y7233941D01*
Y7195853D01*
Y7221245D02*
X18354053Y7246637D01*
X18430228Y7272028D02*
Y7322812D01*
X18417532D01*
X18366748Y7272028D01*
X18354053D01*
X18430228Y7398987D02*
Y7348204D01*
X18392140D01*
X18404836Y7373596D01*
Y7386292D01*
X18392140Y7398987D01*
X18366748D01*
X18354053Y7386292D01*
Y7360900D01*
X18366748Y7348204D01*
X16824960Y7178040D02*
Y7254215D01*
X16786871D01*
X16774178Y7241519D01*
Y7216128D01*
X16786871Y7203432D01*
X16824960D01*
X16799568D02*
X16774178Y7178040D01*
X16748785Y7254215D02*
X16698001D01*
Y7241519D01*
X16748785Y7190736D01*
Y7178040D01*
X16672609Y7241519D02*
X16659914Y7254215D01*
X16634521D01*
X16621826Y7241519D01*
Y7228823D01*
X16634521Y7216128D01*
X16647217D01*
X16634521D01*
X16621826Y7203432D01*
Y7190736D01*
X16634521Y7178040D01*
X16659914D01*
X16672609Y7190736D01*
X18326112Y7942613D02*
X18402287D01*
Y7980701D01*
X18389592Y7993397D01*
X18364200D01*
X18351505Y7980701D01*
Y7942613D01*
Y7968005D02*
X18326112Y7993397D01*
X18402287Y8018788D02*
Y8069572D01*
X18389592D01*
X18338808Y8018788D01*
X18326112D01*
Y8145747D02*
Y8094964D01*
X18376897Y8145747D01*
X18389592D01*
X18402287Y8133052D01*
Y8107660D01*
X18389592Y8094964D01*
X16824960Y6629400D02*
Y6705575D01*
X16786871D01*
X16774178Y6692879D01*
Y6667488D01*
X16786871Y6654792D01*
X16824960D01*
X16799568D02*
X16774178Y6629400D01*
X16698001Y6705575D02*
X16723393Y6692879D01*
X16748785Y6667488D01*
Y6642096D01*
X16736089Y6629400D01*
X16710696D01*
X16698001Y6642096D01*
Y6654792D01*
X16710696Y6667488D01*
X16748785D01*
X16672609Y6642096D02*
X16659914Y6629400D01*
X16634521D01*
X16621826Y6642096D01*
Y6692879D01*
X16634521Y6705575D01*
X16659914D01*
X16672609Y6692879D01*
Y6680183D01*
X16659914Y6667488D01*
X16621826D01*
X16835120Y8247380D02*
Y8323555D01*
X16797032D01*
X16784337Y8310859D01*
Y8285468D01*
X16797032Y8272772D01*
X16835120D01*
X16809727D02*
X16784337Y8247380D01*
X16708160Y8323555D02*
X16733553Y8310859D01*
X16758945Y8285468D01*
Y8260076D01*
X16746249Y8247380D01*
X16720857D01*
X16708160Y8260076D01*
Y8272772D01*
X16720857Y8285468D01*
X16758945D01*
X16682768Y8323555D02*
X16631985D01*
Y8310859D01*
X16682768Y8260076D01*
Y8247380D01*
X16875793Y13891248D02*
Y13967422D01*
X16837704D01*
X16825009Y13954727D01*
Y13929337D01*
X16837704Y13916640D01*
X16875793D01*
X16850401D02*
X16825009Y13891248D01*
X16748834D02*
X16799617D01*
X16748834Y13942030D01*
Y13954727D01*
X16761530Y13967422D01*
X16786922D01*
X16799617Y13954727D01*
X16723442D02*
X16710745Y13967422D01*
X16685355D01*
X16672659Y13954727D01*
Y13903944D01*
X16685355Y13891248D01*
X16710745D01*
X16723442Y13903944D01*
Y13954727D01*
X17856200Y13451840D02*
Y13528015D01*
X17818112D01*
X17805417Y13515318D01*
Y13489928D01*
X17818112Y13477232D01*
X17856200D01*
X17830807D02*
X17805417Y13451840D01*
X17780025D02*
X17754633D01*
X17767329D01*
Y13528015D01*
X17780025Y13515318D01*
X17665762Y13528015D02*
X17716545D01*
Y13489928D01*
X17691153Y13502623D01*
X17678458D01*
X17665762Y13489928D01*
Y13464536D01*
X17678458Y13451840D01*
X17703848D01*
X17716545Y13464536D01*
X18663899Y6281432D02*
Y6357608D01*
X18625812D01*
X18613116Y6344912D01*
Y6319520D01*
X18625812Y6306824D01*
X18663899D01*
X18536942Y6357608D02*
X18562332Y6344912D01*
X18587724Y6319520D01*
Y6294128D01*
X18575027Y6281432D01*
X18549635D01*
X18536942Y6294128D01*
Y6306824D01*
X18549635Y6319520D01*
X18587724D01*
X19677351Y13710909D02*
Y13634732D01*
X19639262D01*
X19626569Y13647427D01*
Y13698212D01*
X19639262Y13710909D01*
X19677351D01*
X19550392Y13634732D02*
X19601176D01*
X19550392Y13685516D01*
Y13698212D01*
X19563087Y13710909D01*
X19588480D01*
X19601176Y13698212D01*
X19525002Y13634732D02*
X19499609D01*
X19512305D01*
Y13710909D01*
X19525002Y13698212D01*
X17393919Y8247380D02*
Y8323555D01*
X17355832D01*
X17343137Y8310859D01*
Y8285468D01*
X17355832Y8272772D01*
X17393919D01*
X17368529D02*
X17343137Y8247380D01*
X17317744D02*
Y8323555D01*
X17279657D01*
X17266962Y8310859D01*
Y8285468D01*
X17279657Y8272772D01*
X17317744D01*
X17241570Y8247380D02*
X17216177D01*
X17228873D01*
Y8323555D01*
X17241570Y8310859D01*
X17178090D02*
X17165395Y8323555D01*
X17140002D01*
X17127306Y8310859D01*
Y8298163D01*
X17140002Y8285468D01*
X17152698D01*
X17140002D01*
X17127306Y8272772D01*
Y8260076D01*
X17140002Y8247380D01*
X17165395D01*
X17178090Y8260076D01*
X17399001Y7185660D02*
Y7261835D01*
X17360912D01*
X17348216Y7249139D01*
Y7223748D01*
X17360912Y7211052D01*
X17399001D01*
X17373608D02*
X17348216Y7185660D01*
X17322826D02*
Y7261835D01*
X17284737D01*
X17272041Y7249139D01*
Y7223748D01*
X17284737Y7211052D01*
X17322826D01*
X17246649Y7185660D02*
X17221257D01*
X17233952D01*
Y7261835D01*
X17246649Y7249139D01*
X17183170Y7185660D02*
X17157777D01*
X17170474D01*
Y7261835D01*
X17183170Y7249139D01*
X20866068Y12994652D02*
Y13070828D01*
X20827979D01*
X20815283Y13058131D01*
Y13032739D01*
X20827979Y13020044D01*
X20866068D01*
X20840675D02*
X20815283Y12994652D01*
X20789893Y13007349D02*
X20777196Y12994652D01*
X20751804D01*
X20739108Y13007349D01*
Y13058131D01*
X20751804Y13070828D01*
X20777196D01*
X20789893Y13058131D01*
Y13045436D01*
X20777196Y13032739D01*
X20739108D01*
X20675629Y12994652D02*
Y13070828D01*
X20713716Y13032739D01*
X20662933D01*
X20848286Y12611112D02*
Y12687288D01*
X20810199D01*
X20797504Y12674592D01*
Y12649200D01*
X20810199Y12636504D01*
X20848286D01*
X20822894D02*
X20797504Y12611112D01*
X20772112Y12623808D02*
X20759416Y12611112D01*
X20734024D01*
X20721329Y12623808D01*
Y12674592D01*
X20734024Y12687288D01*
X20759416D01*
X20772112Y12674592D01*
Y12661896D01*
X20759416Y12649200D01*
X20721329D01*
X20695937Y12674592D02*
X20683240Y12687288D01*
X20657848D01*
X20645152Y12674592D01*
Y12661896D01*
X20657848Y12649200D01*
X20670544D01*
X20657848D01*
X20645152Y12636504D01*
Y12623808D01*
X20657848Y12611112D01*
X20683240D01*
X20695937Y12623808D01*
X20853368Y12222492D02*
Y12298668D01*
X20815279D01*
X20802583Y12285972D01*
Y12260580D01*
X20815279Y12247884D01*
X20853368D01*
X20827975D02*
X20802583Y12222492D01*
X20777193Y12235188D02*
X20764496Y12222492D01*
X20739104D01*
X20726408Y12235188D01*
Y12285972D01*
X20739104Y12298668D01*
X20764496D01*
X20777193Y12285972D01*
Y12273276D01*
X20764496Y12260580D01*
X20726408D01*
X20650233Y12222492D02*
X20701016D01*
X20650233Y12273276D01*
Y12285972D01*
X20662927Y12298668D01*
X20688319D01*
X20701016Y12285972D01*
X21140433Y14592332D02*
X21216608D01*
Y14630421D01*
X21203912Y14643117D01*
X21178520D01*
X21165823Y14630421D01*
Y14592332D01*
Y14617725D02*
X21140433Y14643117D01*
X21203912Y14668507D02*
X21216608Y14681204D01*
Y14706596D01*
X21203912Y14719292D01*
X21191216D01*
X21178520Y14706596D01*
X21165823Y14719292D01*
X21153128D01*
X21140433Y14706596D01*
Y14681204D01*
X21153128Y14668507D01*
X21165823D01*
X21178520Y14681204D01*
X21191216Y14668507D01*
X21203912D01*
X21178520Y14681204D02*
Y14706596D01*
X21140433Y14782771D02*
X21216608D01*
X21178520Y14744684D01*
Y14795467D01*
X21145512Y15021593D02*
X21221687D01*
Y15059682D01*
X21208992Y15072377D01*
X21183600D01*
X21170905Y15059682D01*
Y15021593D01*
Y15046985D02*
X21145512Y15072377D01*
X21208992Y15097768D02*
X21221687Y15110464D01*
Y15135857D01*
X21208992Y15148552D01*
X21196297D01*
X21183600Y15135857D01*
X21170905Y15148552D01*
X21158208D01*
X21145512Y15135857D01*
Y15110464D01*
X21158208Y15097768D01*
X21170905D01*
X21183600Y15110464D01*
X21196297Y15097768D01*
X21208992D01*
X21183600Y15110464D02*
Y15135857D01*
X21208992Y15173944D02*
X21221687Y15186639D01*
Y15212032D01*
X21208992Y15224727D01*
X21196297D01*
X21183600Y15212032D01*
Y15199336D01*
Y15212032D01*
X21170905Y15224727D01*
X21158208D01*
X21145512Y15212032D01*
Y15186639D01*
X21158208Y15173944D01*
X14930087Y6240792D02*
Y6164617D01*
X14968175D01*
X14980872Y6177313D01*
Y6202704D01*
X14968175Y6215400D01*
X14930087D01*
X14955479D02*
X14980872Y6240792D01*
X15006264Y6164617D02*
X15057047D01*
Y6177313D01*
X15006264Y6228096D01*
Y6240792D01*
X15082439Y6177313D02*
X15095134Y6164617D01*
X15120526D01*
X15133221Y6177313D01*
Y6190009D01*
X15120526Y6202704D01*
X15133221Y6215400D01*
Y6228096D01*
X15120526Y6240792D01*
X15095134D01*
X15082439Y6228096D01*
Y6215400D01*
X15095134Y6202704D01*
X15082439Y6190009D01*
Y6177313D01*
X15095134Y6202704D02*
X15120526D01*
X17985751Y7960393D02*
X18061928D01*
Y7998481D01*
X18049232Y8011177D01*
X18023840D01*
X18011143Y7998481D01*
Y7960393D01*
Y7985785D02*
X17985751Y8011177D01*
X18061928Y8036568D02*
Y8087352D01*
X18049232D01*
X17998448Y8036568D01*
X17985751D01*
X18061928Y8112744D02*
Y8163527D01*
X18049232D01*
X17998448Y8112744D01*
X17985751D01*
X16522667Y8681082D02*
Y8604907D01*
X16560754D01*
X16573451Y8617603D01*
Y8642994D01*
X16560754Y8655690D01*
X16522667D01*
X16548059D02*
X16573451Y8681082D01*
X16649626Y8604907D02*
X16624234Y8617603D01*
X16598843Y8642994D01*
Y8668386D01*
X16611539Y8681082D01*
X16636929D01*
X16649626Y8668386D01*
Y8655690D01*
X16636929Y8642994D01*
X16598843D01*
X16675018Y8617603D02*
X16687714Y8604907D01*
X16713106D01*
X16725801Y8617603D01*
Y8668386D01*
X16713106Y8681082D01*
X16687714D01*
X16675018Y8668386D01*
Y8617603D01*
X16908813Y8791873D02*
Y8868048D01*
X16870724D01*
X16858029Y8855352D01*
Y8829960D01*
X16870724Y8817265D01*
X16908813D01*
X16883421D02*
X16858029Y8791873D01*
X16781854Y8868048D02*
X16832637D01*
Y8829960D01*
X16807246Y8842656D01*
X16794550D01*
X16781854Y8829960D01*
Y8804569D01*
X16794550Y8791873D01*
X16819942D01*
X16832637Y8804569D01*
X16705679Y8868048D02*
X16731070Y8855352D01*
X16756462Y8829960D01*
Y8804569D01*
X16743765Y8791873D01*
X16718375D01*
X16705679Y8804569D01*
Y8817265D01*
X16718375Y8829960D01*
X16756462D01*
X17957812Y10604533D02*
X18033987D01*
Y10642621D01*
X18021292Y10655317D01*
X17995900D01*
X17983205Y10642621D01*
Y10604533D01*
Y10629925D02*
X17957812Y10655317D01*
X18033987Y10731492D02*
Y10680708D01*
X17995900D01*
X18008595Y10706100D01*
Y10718796D01*
X17995900Y10731492D01*
X17970508D01*
X17957812Y10718796D01*
Y10693404D01*
X17970508Y10680708D01*
X18021292Y10756884D02*
X18033987Y10769580D01*
Y10794972D01*
X18021292Y10807667D01*
X18008595D01*
X17995900Y10794972D01*
Y10782276D01*
Y10794972D01*
X17983205Y10807667D01*
X17970508D01*
X17957812Y10794972D01*
Y10769580D01*
X17970508Y10756884D01*
X15199361Y10083800D02*
Y10159975D01*
X15161272D01*
X15148576Y10147279D01*
Y10121888D01*
X15161272Y10109192D01*
X15199361D01*
X15173969D02*
X15148576Y10083800D01*
X15072401Y10159975D02*
X15123186D01*
Y10121888D01*
X15097794Y10134583D01*
X15085097D01*
X15072401Y10121888D01*
Y10096496D01*
X15085097Y10083800D01*
X15110489D01*
X15123186Y10096496D01*
X14996227Y10083800D02*
X15047009D01*
X14996227Y10134583D01*
Y10147279D01*
X15008920Y10159975D01*
X15034312D01*
X15047009Y10147279D01*
X17973051Y11427489D02*
X18049228D01*
Y11465577D01*
X18036533Y11478272D01*
X18011140D01*
X17998444Y11465577D01*
Y11427489D01*
Y11452881D02*
X17973051Y11478272D01*
X18049228Y11554448D02*
Y11503664D01*
X18011140D01*
X18023836Y11529056D01*
Y11541752D01*
X18011140Y11554448D01*
X17985748D01*
X17973051Y11541752D01*
Y11516360D01*
X17985748Y11503664D01*
X17973051Y11579839D02*
Y11605231D01*
Y11592535D01*
X18049228D01*
X18036533Y11579839D01*
X16875793Y11228382D02*
Y11304558D01*
X16837704D01*
X16825009Y11291862D01*
Y11266470D01*
X16837704Y11253774D01*
X16875793D01*
X16850401D02*
X16825009Y11228382D01*
X16748834Y11304558D02*
X16799617D01*
Y11266470D01*
X16774226Y11279166D01*
X16761530D01*
X16748834Y11266470D01*
Y11241078D01*
X16761530Y11228382D01*
X16786922D01*
X16799617Y11241078D01*
X16723442Y11291862D02*
X16710745Y11304558D01*
X16685355D01*
X16672659Y11291862D01*
Y11241078D01*
X16685355Y11228382D01*
X16710745D01*
X16723442Y11241078D01*
Y11291862D01*
X18354053Y10607073D02*
X18430228D01*
Y10645161D01*
X18417532Y10657857D01*
X18392140D01*
X18379443Y10645161D01*
Y10607073D01*
Y10632465D02*
X18354053Y10657857D01*
Y10721336D02*
X18430228D01*
X18392140Y10683248D01*
Y10734032D01*
X18366748Y10759424D02*
X18354053Y10772120D01*
Y10797512D01*
X18366748Y10810207D01*
X18417532D01*
X18430228Y10797512D01*
Y10772120D01*
X18417532Y10759424D01*
X18404836D01*
X18392140Y10772120D01*
Y10810207D01*
X16819881Y10619740D02*
Y10695915D01*
X16781792D01*
X16769096Y10683219D01*
Y10657828D01*
X16781792Y10645132D01*
X16819881D01*
X16794489D02*
X16769096Y10619740D01*
X16705617D02*
Y10695915D01*
X16743706Y10657828D01*
X16692921D01*
X16667529Y10695915D02*
X16616747D01*
Y10683219D01*
X16667529Y10632436D01*
Y10619740D01*
X18341351Y11417333D02*
X18417528D01*
Y11455421D01*
X18404832Y11468117D01*
X18379440D01*
X18366743Y11455421D01*
Y11417333D01*
Y11442725D02*
X18341351Y11468117D01*
Y11531596D02*
X18417528D01*
X18379440Y11493508D01*
Y11544292D01*
X18417528Y11620467D02*
X18404832Y11595076D01*
X18379440Y11569684D01*
X18354048D01*
X18341351Y11582380D01*
Y11607772D01*
X18354048Y11620467D01*
X18366743D01*
X18379440Y11607772D01*
Y11569684D01*
X16817340Y10050780D02*
Y10126955D01*
X16779253D01*
X16766557Y10114259D01*
Y10088868D01*
X16779253Y10076172D01*
X16817340D01*
X16791948D02*
X16766557Y10050780D01*
X16703078D02*
Y10126955D01*
X16741165Y10088868D01*
X16690381D01*
X16664989Y10114259D02*
X16652293Y10126955D01*
X16626901D01*
X16614206Y10114259D01*
Y10101563D01*
X16626901Y10088868D01*
X16639597D01*
X16626901D01*
X16614206Y10076172D01*
Y10063476D01*
X16626901Y10050780D01*
X16652293D01*
X16664989Y10063476D01*
X16840228Y11787182D02*
Y11863358D01*
X16802141D01*
X16789445Y11850662D01*
Y11825270D01*
X16802141Y11812574D01*
X16840228D01*
X16814838D02*
X16789445Y11787182D01*
X16725966D02*
Y11863358D01*
X16764053Y11825270D01*
X16713271D01*
X16687878Y11787182D02*
X16662486D01*
X16675182D01*
Y11863358D01*
X16687878Y11850662D01*
X16802100Y12771120D02*
Y12847295D01*
X16764012D01*
X16751317Y12834599D01*
Y12809209D01*
X16764012Y12796512D01*
X16802100D01*
X16776707D02*
X16751317Y12771120D01*
X16725925Y12834599D02*
X16713229Y12847295D01*
X16687837D01*
X16675140Y12834599D01*
Y12821902D01*
X16687837Y12809209D01*
X16700533D01*
X16687837D01*
X16675140Y12796512D01*
Y12783816D01*
X16687837Y12771120D01*
X16713229D01*
X16725925Y12783816D01*
X16611661Y12771120D02*
Y12847295D01*
X16649750Y12809209D01*
X16598965D01*
X16802100Y12237720D02*
Y12313895D01*
X16764012D01*
X16751317Y12301199D01*
Y12275808D01*
X16764012Y12263112D01*
X16802100D01*
X16776707D02*
X16751317Y12237720D01*
X16675140D02*
X16725925D01*
X16675140Y12288503D01*
Y12301199D01*
X16687837Y12313895D01*
X16713229D01*
X16725925Y12301199D01*
X16649750Y12250416D02*
X16637053Y12237720D01*
X16611661D01*
X16598965Y12250416D01*
Y12301199D01*
X16611661Y12313895D01*
X16637053D01*
X16649750Y12301199D01*
Y12288503D01*
X16637053Y12275808D01*
X16598965D01*
X17952731Y13774454D02*
X18028908D01*
Y13812541D01*
X18016212Y13825237D01*
X17990820D01*
X17978123Y13812541D01*
Y13774454D01*
Y13799844D02*
X17952731Y13825237D01*
Y13901411D02*
Y13850629D01*
X18003516Y13901411D01*
X18016212D01*
X18028908Y13888716D01*
Y13863324D01*
X18016212Y13850629D01*
X18028908Y13977586D02*
X18016212Y13952196D01*
X17990820Y13926804D01*
X17965428D01*
X17952731Y13939500D01*
Y13964893D01*
X17965428Y13977586D01*
X17978123D01*
X17990820Y13964893D01*
Y13926804D01*
X15255273Y13436588D02*
Y13512762D01*
X15217184D01*
X15204489Y13500067D01*
Y13474677D01*
X15217184Y13461980D01*
X15255273D01*
X15229881D02*
X15204489Y13436588D01*
X15128314D02*
X15179097D01*
X15128314Y13487370D01*
Y13500067D01*
X15141010Y13512762D01*
X15166402D01*
X15179097Y13500067D01*
X15052139Y13512762D02*
X15102922D01*
Y13474677D01*
X15077530Y13487370D01*
X15064835D01*
X15052139Y13474677D01*
Y13449284D01*
X15064835Y13436588D01*
X15090227D01*
X15102922Y13449284D01*
X17955272Y14587253D02*
X18031448D01*
Y14625340D01*
X18018752Y14638037D01*
X17993359D01*
X17980664Y14625340D01*
Y14587253D01*
Y14612645D02*
X17955272Y14638037D01*
Y14714212D02*
Y14663428D01*
X18006056Y14714212D01*
X18018752D01*
X18031448Y14701517D01*
Y14676125D01*
X18018752Y14663428D01*
X17955272Y14777692D02*
X18031448D01*
X17993359Y14739604D01*
Y14790387D01*
X16482027Y13720148D02*
Y13643971D01*
X16520116D01*
X16532811Y13656667D01*
Y13682059D01*
X16520116Y13694756D01*
X16482027D01*
X16507419D02*
X16532811Y13720148D01*
X16608986D02*
X16558203D01*
X16608986Y13669363D01*
Y13656667D01*
X16596291Y13643971D01*
X16570898D01*
X16558203Y13656667D01*
X16634378D02*
X16647073Y13643971D01*
X16672466D01*
X16685161Y13656667D01*
Y13669363D01*
X16672466Y13682059D01*
X16659770D01*
X16672466D01*
X16685161Y13694756D01*
Y13707451D01*
X16672466Y13720148D01*
X16647073D01*
X16634378Y13707451D01*
X18338812Y13792233D02*
X18414989D01*
Y13830321D01*
X18402292Y13843018D01*
X18376900D01*
X18364204Y13830321D01*
Y13792233D01*
Y13817625D02*
X18338812Y13843018D01*
Y13919193D02*
Y13868408D01*
X18389597Y13919193D01*
X18402292D01*
X18414989Y13906496D01*
Y13881104D01*
X18402292Y13868408D01*
X18338812Y13995367D02*
Y13944585D01*
X18389597Y13995367D01*
X18402292D01*
X18414989Y13982672D01*
Y13957280D01*
X18402292Y13944585D01*
X18343892Y14593600D02*
X18420068D01*
Y14631689D01*
X18407372Y14644383D01*
X18381979D01*
X18369284Y14631689D01*
Y14593600D01*
Y14618993D02*
X18343892Y14644383D01*
Y14669775D02*
Y14695168D01*
Y14682472D01*
X18420068D01*
X18407372Y14669775D01*
X18356589Y14733257D02*
X18343892Y14745952D01*
Y14771344D01*
X18356589Y14784039D01*
X18407372D01*
X18420068Y14771344D01*
Y14745952D01*
X18407372Y14733257D01*
X18394676D01*
X18381979Y14745952D01*
Y14784039D01*
X16856741Y13336581D02*
Y13412758D01*
X16818652D01*
X16805957Y13400063D01*
Y13374670D01*
X16818652Y13361974D01*
X16856741D01*
X16831349D02*
X16805957Y13336581D01*
X16780565D02*
X16755173D01*
X16767870D01*
Y13412758D01*
X16780565Y13400063D01*
X16666302Y13412758D02*
X16691695Y13400063D01*
X16717085Y13374670D01*
Y13349278D01*
X16704390Y13336581D01*
X16678998D01*
X16666302Y13349278D01*
Y13361974D01*
X16678998Y13374670D01*
X16717085D01*
X16498540Y14285918D02*
Y14209743D01*
X16536627D01*
X16549323Y14222438D01*
Y14247830D01*
X16536627Y14260526D01*
X16498540D01*
X16523930D02*
X16549323Y14285918D01*
X16574715D02*
X16600105D01*
X16587411D01*
Y14209743D01*
X16574715Y14222438D01*
X16676282Y14285918D02*
Y14209743D01*
X16638194Y14247830D01*
X16688979D01*
X16753860Y15458427D02*
Y15534602D01*
X16715773D01*
X16703078Y15521907D01*
Y15496516D01*
X16715773Y15483820D01*
X16753860D01*
X16728468D02*
X16703078Y15458427D01*
X16626901D02*
X16677686D01*
X16626901Y15509212D01*
Y15521907D01*
X16639597Y15534602D01*
X16664989D01*
X16677686Y15521907D01*
X19961839Y12590792D02*
Y12666968D01*
X19923752D01*
X19911057Y12654272D01*
Y12628880D01*
X19923752Y12616184D01*
X19961839D01*
X19885664Y12654272D02*
X19872968Y12666968D01*
X19847575D01*
X19834882Y12654272D01*
Y12641576D01*
X19847575Y12628880D01*
X19834882Y12616184D01*
Y12603488D01*
X19847575Y12590792D01*
X19872968D01*
X19885664Y12603488D01*
Y12616184D01*
X19872968Y12628880D01*
X19885664Y12641576D01*
Y12654272D01*
X19872968Y12628880D02*
X19847575D01*
X19850111Y13850641D02*
X19926288D01*
Y13888728D01*
X19913593Y13901424D01*
X19888200D01*
X19875504Y13888728D01*
Y13850641D01*
X19926288Y13926816D02*
Y13977599D01*
X19913593D01*
X19862808Y13926816D01*
X19850111D01*
X18671519Y8331212D02*
Y8407388D01*
X18633432D01*
X18620737Y8394692D01*
Y8369300D01*
X18633432Y8356604D01*
X18671519D01*
X18544560Y8407388D02*
X18595345D01*
Y8369300D01*
X18569952Y8381996D01*
X18557256D01*
X18544560Y8369300D01*
Y8343908D01*
X18557256Y8331212D01*
X18582648D01*
X18595345Y8343908D01*
X18671519Y9692652D02*
Y9768828D01*
X18633432D01*
X18620737Y9756132D01*
Y9730740D01*
X18633432Y9718044D01*
X18671519D01*
X18557256Y9692652D02*
Y9768828D01*
X18595345Y9730740D01*
X18544560D01*
X18656279Y11869432D02*
Y11945608D01*
X18618192D01*
X18605496Y11932912D01*
Y11907520D01*
X18618192Y11894824D01*
X18656279D01*
X18580104Y11932912D02*
X18567409Y11945608D01*
X18542017D01*
X18529321Y11932912D01*
Y11920216D01*
X18542017Y11907520D01*
X18554712D01*
X18542017D01*
X18529321Y11894824D01*
Y11882128D01*
X18542017Y11869432D01*
X18567409D01*
X18580104Y11882128D01*
X18653738Y12865112D02*
Y12941289D01*
X18615652D01*
X18602956Y12928592D01*
Y12903200D01*
X18615652Y12890504D01*
X18653738D01*
X18526781Y12865112D02*
X18577563D01*
X18526781Y12915897D01*
Y12928592D01*
X18539476Y12941289D01*
X18564868D01*
X18577563Y12928592D01*
X18473421Y15895320D02*
Y15971495D01*
X18435332D01*
X18422636Y15958800D01*
Y15933408D01*
X18435332Y15920712D01*
X18473421D01*
X18397244Y15895320D02*
X18371854D01*
X18384549D01*
Y15971495D01*
X18397244Y15958800D01*
X21384242Y13068292D02*
X21396939Y13080988D01*
X21422331D01*
X21435027Y13068292D01*
Y13017508D01*
X21422331Y13004813D01*
X21396939D01*
X21384242Y13017508D01*
X21358852Y13068292D02*
X21346156Y13080988D01*
X21320764D01*
X21308067Y13068292D01*
Y13055595D01*
X21320764Y13042900D01*
X21333459D01*
X21320764D01*
X21308067Y13030203D01*
Y13017508D01*
X21320764Y13004813D01*
X21346156D01*
X21358852Y13017508D01*
X21282677Y13068292D02*
X21269980Y13080988D01*
X21244588D01*
X21231892Y13068292D01*
Y13017508D01*
X21244588Y13004813D01*
X21269980D01*
X21282677Y13017508D01*
Y13068292D01*
X21412183Y12725392D02*
X21424879Y12738088D01*
X21450272D01*
X21462967Y12725392D01*
Y12674608D01*
X21450272Y12661912D01*
X21424879D01*
X21412183Y12674608D01*
X21336008Y12661912D02*
X21386792D01*
X21336008Y12712696D01*
Y12725392D01*
X21348705Y12738088D01*
X21374097D01*
X21386792Y12725392D01*
X21310616Y12674608D02*
X21297920Y12661912D01*
X21272528D01*
X21259833Y12674608D01*
Y12725392D01*
X21272528Y12738088D01*
X21297920D01*
X21310616Y12725392D01*
Y12712696D01*
X21297920Y12700000D01*
X21259833D01*
X21437582Y12285972D02*
X21450279Y12298668D01*
X21475671D01*
X21488367Y12285972D01*
Y12235188D01*
X21475671Y12222492D01*
X21450279D01*
X21437582Y12235188D01*
X21361407Y12222492D02*
X21412192D01*
X21361407Y12273276D01*
Y12285972D01*
X21374104Y12298668D01*
X21399496D01*
X21412192Y12285972D01*
X21336015D02*
X21323320Y12298668D01*
X21297928D01*
X21285233Y12285972D01*
Y12273276D01*
X21297928Y12260580D01*
X21285233Y12247884D01*
Y12235188D01*
X21297928Y12222492D01*
X21323320D01*
X21336015Y12235188D01*
Y12247884D01*
X21323320Y12260580D01*
X21336015Y12273276D01*
Y12285972D01*
X21323320Y12260580D02*
X21297928D01*
X20761943Y14432272D02*
X20774638Y14444968D01*
X20800031D01*
X20812727Y14432272D01*
Y14381488D01*
X20800031Y14368793D01*
X20774638D01*
X20761943Y14381488D01*
X20685768Y14368793D02*
X20736552D01*
X20685768Y14419576D01*
Y14432272D01*
X20698463Y14444968D01*
X20723856D01*
X20736552Y14432272D01*
X20660376Y14444968D02*
X20609593D01*
Y14432272D01*
X20660376Y14381488D01*
Y14368793D01*
X20764484Y14800572D02*
X20777179Y14813268D01*
X20802571D01*
X20815266Y14800572D01*
Y14749788D01*
X20802571Y14737093D01*
X20777179D01*
X20764484Y14749788D01*
X20688309Y14737093D02*
X20739091D01*
X20688309Y14787875D01*
Y14800572D01*
X20701004Y14813268D01*
X20726396D01*
X20739091Y14800572D01*
X20612132Y14813268D02*
X20637524Y14800572D01*
X20662917Y14775180D01*
Y14749788D01*
X20650220Y14737093D01*
X20624828D01*
X20612132Y14749788D01*
Y14762485D01*
X20624828Y14775180D01*
X20662917D01*
X20728923Y15217133D02*
X20741618Y15229828D01*
X20767010D01*
X20779707Y15217133D01*
Y15166348D01*
X20767010Y15153651D01*
X20741618D01*
X20728923Y15166348D01*
X20652748Y15153651D02*
X20703532D01*
X20652748Y15204436D01*
Y15217133D01*
X20665443Y15229828D01*
X20690836D01*
X20703532Y15217133D01*
X20576573Y15229828D02*
X20627356D01*
Y15191740D01*
X20601964Y15204436D01*
X20589268D01*
X20576573Y15191740D01*
Y15166348D01*
X20589268Y15153651D01*
X20614661D01*
X20627356Y15166348D01*
X15986777Y7922239D02*
X15999472Y7934935D01*
X16024864D01*
X16037560Y7922239D01*
Y7871456D01*
X16024864Y7858760D01*
X15999472D01*
X15986777Y7871456D01*
X15910600Y7858760D02*
X15961385D01*
X15910600Y7909543D01*
Y7922239D01*
X15923297Y7934935D01*
X15948689D01*
X15961385Y7922239D01*
X15847121Y7858760D02*
Y7934935D01*
X15885210Y7896848D01*
X15834425D01*
X16543069Y7605906D02*
X16555765Y7618602D01*
X16581157D01*
X16593854Y7605906D01*
Y7555122D01*
X16581157Y7542426D01*
X16555765D01*
X16543069Y7555122D01*
X16466895Y7542426D02*
X16517677D01*
X16466895Y7593210D01*
Y7605906D01*
X16479590Y7618602D01*
X16504980D01*
X16517677Y7605906D01*
X16441502D02*
X16428806Y7618602D01*
X16403413D01*
X16390720Y7605906D01*
Y7593210D01*
X16403413Y7580514D01*
X16416110D01*
X16403413D01*
X16390720Y7567818D01*
Y7555122D01*
X16403413Y7542426D01*
X16428806D01*
X16441502Y7555122D01*
X15613397Y11920199D02*
X15626093Y11932895D01*
X15651485D01*
X15664180Y11920199D01*
Y11869416D01*
X15651485Y11856720D01*
X15626093D01*
X15613397Y11869416D01*
X15537221Y11856720D02*
X15588005D01*
X15537221Y11907503D01*
Y11920199D01*
X15549918Y11932895D01*
X15575310D01*
X15588005Y11920199D01*
X15461046Y11856720D02*
X15511829D01*
X15461046Y11907503D01*
Y11920199D01*
X15473741Y11932895D01*
X15499133D01*
X15511829Y11920199D01*
X14927597Y9052539D02*
X14940292Y9065235D01*
X14965685D01*
X14978380Y9052539D01*
Y9001756D01*
X14965685Y8989060D01*
X14940292D01*
X14927597Y9001756D01*
X14902205Y8989060D02*
X14876813D01*
X14889510D01*
Y9065235D01*
X14902205Y9052539D01*
X14838725Y9001756D02*
X14826028Y8989060D01*
X14800636D01*
X14787943Y9001756D01*
Y9052539D01*
X14800636Y9065235D01*
X14826028D01*
X14838725Y9052539D01*
Y9039843D01*
X14826028Y9027148D01*
X14787943D01*
X15910577Y11386799D02*
X15923273Y11399495D01*
X15948663D01*
X15961360Y11386799D01*
Y11336016D01*
X15948663Y11323320D01*
X15923273D01*
X15910577Y11336016D01*
X15885185Y11323320D02*
X15859793D01*
X15872488D01*
Y11399495D01*
X15885185Y11386799D01*
X15821706D02*
X15809009Y11399495D01*
X15783617D01*
X15770921Y11386799D01*
Y11374103D01*
X15783617Y11361408D01*
X15770921Y11348712D01*
Y11336016D01*
X15783617Y11323320D01*
X15809009D01*
X15821706Y11336016D01*
Y11348712D01*
X15809009Y11361408D01*
X15821706Y11374103D01*
Y11386799D01*
X15809009Y11361408D02*
X15783617D01*
X16188643Y10285854D02*
X16175948Y10273159D01*
X16150555D01*
X16137859Y10285854D01*
Y10336638D01*
X16150555Y10349334D01*
X16175948D01*
X16188643Y10336638D01*
X16214035Y10349334D02*
X16239426D01*
X16226730D01*
Y10273159D01*
X16214035Y10285854D01*
X16277515Y10273159D02*
X16328297D01*
Y10285854D01*
X16277515Y10336638D01*
Y10349334D01*
X14866637Y12336759D02*
X14879332Y12349455D01*
X14904724D01*
X14917419Y12336759D01*
Y12285976D01*
X14904724Y12273280D01*
X14879332D01*
X14866637Y12285976D01*
X14841245Y12273280D02*
X14815852D01*
X14828549D01*
Y12349455D01*
X14841245Y12336759D01*
X14777765D02*
X14765070Y12349455D01*
X14739677D01*
X14726982Y12336759D01*
Y12324063D01*
X14739677Y12311368D01*
X14752373D01*
X14739677D01*
X14726982Y12298672D01*
Y12285976D01*
X14739677Y12273280D01*
X14765070D01*
X14777765Y12285976D01*
X15918198Y14805640D02*
X15930891Y14818335D01*
X15956284D01*
X15968980Y14805640D01*
Y14754855D01*
X15956284Y14742160D01*
X15930891D01*
X15918198Y14754855D01*
X15892805Y14742160D02*
X15867413D01*
X15880109D01*
Y14818335D01*
X15892805Y14805640D01*
X15829324D02*
X15816629Y14818335D01*
X15791237D01*
X15778542Y14805640D01*
Y14754855D01*
X15791237Y14742160D01*
X15816629D01*
X15829324Y14754855D01*
Y14805640D01*
X16352483Y13468474D02*
X16339787Y13455779D01*
X16314395D01*
X16301698Y13468474D01*
Y13519258D01*
X16314395Y13531953D01*
X16339787D01*
X16352483Y13519258D01*
X16377875D02*
X16390570Y13531953D01*
X16415962D01*
X16428658Y13519258D01*
Y13468474D01*
X16415962Y13455779D01*
X16390570D01*
X16377875Y13468474D01*
Y13481171D01*
X16390570Y13493866D01*
X16428658D01*
X15676897Y8450559D02*
X15689592Y8463255D01*
X15714984D01*
X15727679Y8450559D01*
Y8399776D01*
X15714984Y8387080D01*
X15689592D01*
X15676897Y8399776D01*
X15651505Y8450559D02*
X15638809Y8463255D01*
X15613417D01*
X15600722Y8450559D01*
Y8437863D01*
X15613417Y8425168D01*
X15600722Y8412472D01*
Y8399776D01*
X15613417Y8387080D01*
X15638809D01*
X15651505Y8399776D01*
Y8412472D01*
X15638809Y8425168D01*
X15651505Y8437863D01*
Y8450559D01*
X15638809Y8425168D02*
X15613417D01*
X15820358Y17335512D02*
Y17411688D01*
X15782271D01*
X15769576Y17398991D01*
Y17373599D01*
X15782271Y17360904D01*
X15820358D01*
X15744183Y17335512D02*
X15718793D01*
X15731488D01*
Y17411688D01*
X15744183Y17398991D01*
X15642616Y17335512D02*
Y17411688D01*
X15680704Y17373599D01*
X15629921D01*
X21931599Y17345673D02*
Y17421848D01*
X21893510D01*
X21880817Y17409152D01*
Y17383760D01*
X21893510Y17371065D01*
X21931599D01*
X21855424Y17345673D02*
X21830032D01*
X21842728D01*
Y17421848D01*
X21855424Y17409152D01*
X21791943D02*
X21779248Y17421848D01*
X21753856D01*
X21741161Y17409152D01*
Y17396455D01*
X21753856Y17383760D01*
X21766553D01*
X21753856D01*
X21741161Y17371065D01*
Y17358368D01*
X21753856Y17345673D01*
X21779248D01*
X21791943Y17358368D01*
X18868359Y17327892D02*
Y17404068D01*
X18830270D01*
X18817577Y17391373D01*
Y17365981D01*
X18830270Y17353284D01*
X18868359D01*
X18792184Y17327892D02*
X18766792D01*
X18779488D01*
Y17404068D01*
X18792184Y17391373D01*
X18677921Y17327892D02*
X18728703D01*
X18677921Y17378676D01*
Y17391373D01*
X18690616Y17404068D01*
X18716008D01*
X18728703Y17391373D01*
X12741883Y17294872D02*
Y17371048D01*
X12703796D01*
X12691100Y17358353D01*
Y17332961D01*
X12703796Y17320264D01*
X12741883D01*
X12665708Y17294872D02*
X12640316D01*
X12653012D01*
Y17371048D01*
X12665708Y17358353D01*
X12602229Y17294872D02*
X12576837D01*
X12589533D01*
Y17371048D01*
X12602229Y17358353D01*
X6582379Y17335512D02*
Y17411688D01*
X6544291D01*
X6531596Y17398991D01*
Y17373599D01*
X6544291Y17360904D01*
X6582379D01*
X6506204Y17335512D02*
X6480812D01*
X6493508D01*
Y17411688D01*
X6506204Y17398991D01*
X6442724D02*
X6430028Y17411688D01*
X6404636D01*
X6391941Y17398991D01*
Y17348209D01*
X6404636Y17335512D01*
X6430028D01*
X6442724Y17348209D01*
Y17398991D01*
X9672299Y17317732D02*
Y17393909D01*
X9634212D01*
X9621516Y17381212D01*
Y17355820D01*
X9634212Y17343124D01*
X9672299D01*
X9596124Y17330428D02*
X9583428Y17317732D01*
X9558036D01*
X9545341Y17330428D01*
Y17381212D01*
X9558036Y17393909D01*
X9583428D01*
X9596124Y17381212D01*
Y17368517D01*
X9583428Y17355820D01*
X9545341D01*
X17645392Y16939227D02*
X17721568D01*
X17683479D01*
Y16888443D01*
X17645392D01*
X17721568D01*
X17658089Y16812268D02*
X17645392Y16824963D01*
Y16850356D01*
X17658089Y16863052D01*
X17670784D01*
X17683479Y16850356D01*
Y16824963D01*
X17696176Y16812268D01*
X17708871D01*
X17721568Y16824963D01*
Y16850356D01*
X17708871Y16863052D01*
X17645392Y16736093D02*
X17658089Y16761484D01*
X17683479Y16786876D01*
X17708871D01*
X17721568Y16774181D01*
Y16748788D01*
X17708871Y16736093D01*
X17696176D01*
X17683479Y16748788D01*
Y16786876D01*
X23840453Y16949387D02*
X23916628D01*
X23878540D01*
Y16898602D01*
X23840453D01*
X23916628D01*
X23853148Y16822427D02*
X23840453Y16835124D01*
Y16860516D01*
X23853148Y16873212D01*
X23865845D01*
X23878540Y16860516D01*
Y16835124D01*
X23891235Y16822427D01*
X23903932D01*
X23916628Y16835124D01*
Y16860516D01*
X23903932Y16873212D01*
X23840453Y16746252D02*
Y16797037D01*
X23878540D01*
X23865845Y16771645D01*
Y16758948D01*
X23878540Y16746252D01*
X23903932D01*
X23916628Y16758948D01*
Y16784340D01*
X23903932Y16797037D01*
X20693391Y16885887D02*
X20769568D01*
X20731480D01*
Y16835103D01*
X20693391D01*
X20769568D01*
X20706088Y16758928D02*
X20693391Y16771625D01*
Y16797015D01*
X20706088Y16809712D01*
X20718784D01*
X20731480Y16797015D01*
Y16771625D01*
X20744176Y16758928D01*
X20756873D01*
X20769568Y16771625D01*
Y16797015D01*
X20756873Y16809712D01*
X20769568Y16695448D02*
X20693391D01*
X20731480Y16733536D01*
Y16682753D01*
X14592313Y16941766D02*
X14668488D01*
X14630400D01*
Y16890984D01*
X14592313D01*
X14668488D01*
X14605008Y16814809D02*
X14592313Y16827504D01*
Y16852896D01*
X14605008Y16865591D01*
X14617703D01*
X14630400Y16852896D01*
Y16827504D01*
X14643095Y16814809D01*
X14655792D01*
X14668488Y16827504D01*
Y16852896D01*
X14655792Y16865591D01*
X14605008Y16789417D02*
X14592313Y16776720D01*
Y16751328D01*
X14605008Y16738634D01*
X14617703D01*
X14630400Y16751328D01*
Y16764024D01*
Y16751328D01*
X14643095Y16738634D01*
X14655792D01*
X14668488Y16751328D01*
Y16776720D01*
X14655792Y16789417D01*
X8530212Y17005267D02*
X8606387D01*
X8568300D01*
Y16954483D01*
X8530212D01*
X8606387D01*
X8542908Y16878308D02*
X8530212Y16891003D01*
Y16916396D01*
X8542908Y16929092D01*
X8555604D01*
X8568300Y16916396D01*
Y16891003D01*
X8580996Y16878308D01*
X8593691D01*
X8606387Y16891003D01*
Y16916396D01*
X8593691Y16929092D01*
X8606387Y16802133D02*
Y16852916D01*
X8555604Y16802133D01*
X8542908D01*
X8530212Y16814828D01*
Y16840221D01*
X8542908Y16852916D01*
X11569712Y16977332D02*
X11645888D01*
X11607800D01*
Y16926547D01*
X11569712D01*
X11645888D01*
X11582408Y16850372D02*
X11569712Y16863068D01*
Y16888460D01*
X11582408Y16901157D01*
X11595104D01*
X11607800Y16888460D01*
Y16863068D01*
X11620496Y16850372D01*
X11633192D01*
X11645888Y16863068D01*
Y16888460D01*
X11633192Y16901157D01*
X11645888Y16824982D02*
Y16799590D01*
Y16812285D01*
X11569712D01*
X11582408Y16824982D01*
X12047183Y7324043D02*
Y7298651D01*
Y7311347D01*
X11983704D01*
X11971008Y7298651D01*
Y7285955D01*
X11983704Y7273259D01*
X11971008Y7349435D02*
Y7374827D01*
Y7362131D01*
X12047183D01*
X12034487Y7349435D01*
Y7412914D02*
X12047183Y7425610D01*
Y7451002D01*
X12034487Y7463698D01*
X11983704D01*
X11971008Y7451002D01*
Y7425610D01*
X11983704Y7412914D01*
X12034487D01*
X11996383Y10800043D02*
Y10774651D01*
Y10787347D01*
X11932904D01*
X11920208Y10774651D01*
Y10761955D01*
X11932904Y10749259D01*
Y10825435D02*
X11920208Y10838131D01*
Y10863523D01*
X11932904Y10876218D01*
X11983687D01*
X11996383Y10863523D01*
Y10838131D01*
X11983687Y10825435D01*
X11970991D01*
X11958296Y10838131D01*
Y10876218D01*
X11977143Y14274763D02*
Y14249371D01*
Y14262067D01*
X11913664D01*
X11900968Y14249371D01*
Y14236674D01*
X11913664Y14223979D01*
X11964447Y14300156D02*
X11977143Y14312851D01*
Y14338243D01*
X11964447Y14350938D01*
X11951751D01*
X11939056Y14338243D01*
X11926360Y14350938D01*
X11913664D01*
X11900968Y14338243D01*
Y14312851D01*
X11913664Y14300156D01*
X11926360D01*
X11939056Y14312851D01*
X11951751Y14300156D01*
X11964447D01*
X11939056Y14312851D02*
Y14338243D01*
X8905252Y14820934D02*
X8829077D01*
Y14782845D01*
X8841773Y14770149D01*
X8867164D01*
X8879860Y14782845D01*
Y14820934D01*
Y14795541D02*
X8905252Y14770149D01*
X8841773Y14744757D02*
X8829077Y14732060D01*
Y14706670D01*
X8841773Y14693974D01*
X8854469D01*
X8867164Y14706670D01*
X8879860Y14693974D01*
X8892556D01*
X8905252Y14706670D01*
Y14732060D01*
X8892556Y14744757D01*
X8879860D01*
X8867164Y14732060D01*
X8854469Y14744757D01*
X8841773D01*
X8867164Y14732060D02*
Y14706670D01*
X8829077Y14668582D02*
Y14617799D01*
X8841773D01*
X8892556Y14668582D01*
X8905252D01*
X8884932Y7934993D02*
X8808757D01*
Y7896905D01*
X8821453Y7884209D01*
X8846844D01*
X8859540Y7896905D01*
Y7934993D01*
Y7909601D02*
X8884932Y7884209D01*
X8872236Y7858817D02*
X8884932Y7846121D01*
Y7820730D01*
X8872236Y7808034D01*
X8821453D01*
X8808757Y7820730D01*
Y7846121D01*
X8821453Y7858817D01*
X8834149D01*
X8846844Y7846121D01*
Y7808034D01*
X8872236Y7782642D02*
X8884932Y7769946D01*
Y7744554D01*
X8872236Y7731859D01*
X8821453D01*
X8808757Y7744554D01*
Y7769946D01*
X8821453Y7782642D01*
X8834149D01*
X8846844Y7769946D01*
Y7731859D01*
X23413737Y8795999D02*
X23426431Y8808695D01*
X23451823D01*
X23464520Y8795999D01*
Y8745216D01*
X23451823Y8732520D01*
X23426431D01*
X23413737Y8745216D01*
X23388345Y8732520D02*
X23362953D01*
X23375648D01*
Y8808695D01*
X23388345Y8795999D01*
X23274081Y8732520D02*
X23324866D01*
X23274081Y8783303D01*
Y8795999D01*
X23286777Y8808695D01*
X23312169D01*
X23324866Y8795999D01*
X22047200Y11554435D02*
Y11478260D01*
X21996417D01*
X21971025Y11541739D02*
X21958328Y11554435D01*
X21932938D01*
X21920241Y11541739D01*
Y11529043D01*
X21932938Y11516348D01*
X21945633D01*
X21932938D01*
X21920241Y11503652D01*
Y11490956D01*
X21932938Y11478260D01*
X21958328D01*
X21971025Y11490956D01*
X22138640Y15468575D02*
Y15392400D01*
X22087857D01*
X22011681D02*
X22062465D01*
X22011681Y15443182D01*
Y15455879D01*
X22024377Y15468575D01*
X22049770D01*
X22062465Y15455879D01*
X23228284Y15961348D02*
Y15885172D01*
X23177499D01*
X23152107D02*
X23126717D01*
X23139412D01*
Y15961348D01*
X23152107Y15948653D01*
X24244255Y8028973D02*
X24231560Y8016277D01*
X24206168D01*
X24193471Y8028973D01*
Y8079756D01*
X24206168Y8092452D01*
X24231560D01*
X24244255Y8079756D01*
X24269646Y8092452D02*
Y8016277D01*
X24307735D01*
X24320430Y8028973D01*
Y8054364D01*
X24307735Y8067060D01*
X24269646D01*
X24295038D02*
X24320430Y8092452D01*
X24345822D02*
X24371214D01*
X24358517D01*
Y8016277D01*
X24345822Y8028973D01*
X23378177Y11993859D02*
X23390872Y12006555D01*
X23416264D01*
X23428960Y11993859D01*
Y11943076D01*
X23416264Y11930380D01*
X23390872D01*
X23378177Y11943076D01*
X23352785Y11930380D02*
X23327393D01*
X23340089D01*
Y12006555D01*
X23352785Y11993859D01*
X23289305Y11930380D02*
X23263913D01*
X23276608D01*
Y12006555D01*
X23289305Y11993859D01*
X23385797Y13538179D02*
X23398492Y13550874D01*
X23423885D01*
X23436580Y13538179D01*
Y13487396D01*
X23423885Y13474699D01*
X23398492D01*
X23385797Y13487396D01*
X23360405Y13550874D02*
X23309621D01*
Y13538179D01*
X23360405Y13487396D01*
Y13474699D01*
X23390877Y15102818D02*
X23403572Y15115515D01*
X23428964D01*
X23441660Y15102818D01*
Y15052036D01*
X23428964Y15039340D01*
X23403572D01*
X23390877Y15052036D01*
X23314700Y15115515D02*
X23340092Y15102818D01*
X23365485Y15077428D01*
Y15052036D01*
X23352789Y15039340D01*
X23327397D01*
X23314700Y15052036D01*
Y15064732D01*
X23327397Y15077428D01*
X23365485D01*
X24122380Y12565355D02*
Y12501876D01*
X24109685Y12489180D01*
X24084293D01*
X24071597Y12501876D01*
Y12565355D01*
X24046205Y12552659D02*
X24033508Y12565355D01*
X24008118D01*
X23995421Y12552659D01*
Y12539963D01*
X24008118Y12527268D01*
X24020813D01*
X24008118D01*
X23995421Y12514572D01*
Y12501876D01*
X24008118Y12489180D01*
X24033508D01*
X24046205Y12501876D01*
X12865100Y7658100D02*
Y7734275D01*
X12827013D01*
X12814317Y7721579D01*
Y7696188D01*
X12827013Y7683492D01*
X12865100D01*
X12839708D02*
X12814317Y7658100D01*
X12788925D02*
Y7734275D01*
X12750837D01*
X12738141Y7721579D01*
Y7696188D01*
X12750837Y7683492D01*
X12788925D01*
X12712749Y7658100D02*
X12687357D01*
X12700053D01*
Y7734275D01*
X12712749Y7721579D01*
X12598486Y7658100D02*
X12649270D01*
X12598486Y7708883D01*
Y7721579D01*
X12611182Y7734275D01*
X12636574D01*
X12649270Y7721579D01*
X12809219Y11038840D02*
Y11115015D01*
X12771132D01*
X12758437Y11102319D01*
Y11076928D01*
X12771132Y11064232D01*
X12809219D01*
X12783828D02*
X12758437Y11038840D01*
X12733045D02*
Y11115015D01*
X12694957D01*
X12682261Y11102319D01*
Y11076928D01*
X12694957Y11064232D01*
X12733045D01*
X12656869Y11102319D02*
X12644173Y11115015D01*
X12618781D01*
X12606086Y11102319D01*
Y11089623D01*
X12618781Y11076928D01*
X12606086Y11064232D01*
Y11051536D01*
X12618781Y11038840D01*
X12644173D01*
X12656869Y11051536D01*
Y11064232D01*
X12644173Y11076928D01*
X12656869Y11089623D01*
Y11102319D01*
X12644173Y11076928D02*
X12618781D01*
X21531580Y9796780D02*
Y9872955D01*
X21493492D01*
X21480797Y9860259D01*
Y9834868D01*
X21493492Y9822172D01*
X21531580D01*
X21506187D02*
X21480797Y9796780D01*
X21455405D02*
Y9872955D01*
X21417317D01*
X21404620Y9860259D01*
Y9834868D01*
X21417317Y9822172D01*
X21455405D01*
X21328445Y9872955D02*
X21379230D01*
Y9834868D01*
X21353838Y9847563D01*
X21341141D01*
X21328445Y9834868D01*
Y9809476D01*
X21341141Y9796780D01*
X21366533D01*
X21379230Y9809476D01*
X12506993Y13787108D02*
Y13710931D01*
X12545081D01*
X12557777Y13723628D01*
Y13749020D01*
X12545081Y13761716D01*
X12506993D01*
X12532385D02*
X12557777Y13787108D01*
X12583168D02*
Y13710931D01*
X12621256D01*
X12633952Y13723628D01*
Y13749020D01*
X12621256Y13761716D01*
X12583168D01*
X12659344Y13723628D02*
X12672040Y13710931D01*
X12697432D01*
X12710127Y13723628D01*
Y13736324D01*
X12697432Y13749020D01*
X12684736D01*
X12697432D01*
X12710127Y13761716D01*
Y13774413D01*
X12697432Y13787108D01*
X12672040D01*
X12659344Y13774413D01*
X24132539Y14914880D02*
Y14991055D01*
X24094452D01*
X24081757Y14978358D01*
Y14952968D01*
X24094452Y14940273D01*
X24132539D01*
X24107149D02*
X24081757Y14914880D01*
X24005582Y14978358D02*
X24018277Y14991055D01*
X24043669D01*
X24056364Y14978358D01*
Y14927576D01*
X24043669Y14914880D01*
X24018277D01*
X24005582Y14927576D01*
Y14952968D01*
X24030972D01*
X23980190Y14914880D02*
X23954797D01*
X23967493D01*
Y14991055D01*
X23980190Y14978358D01*
X6126492Y6720836D02*
Y6746228D01*
Y6733532D01*
X6189971D01*
X6202667Y6746228D01*
Y6758924D01*
X6189971Y6771620D01*
X6126492Y6644661D02*
Y6695444D01*
X6164579D01*
X6151884Y6670052D01*
Y6657357D01*
X6164579Y6644661D01*
X6189971D01*
X6202667Y6657357D01*
Y6682748D01*
X6189971Y6695444D01*
X6649716Y14790408D02*
X6675108D01*
X6662412D01*
Y14726929D01*
X6675108Y14714232D01*
X6687803D01*
X6700499Y14726929D01*
X6586236Y14714232D02*
Y14790408D01*
X6624324Y14752319D01*
X6573541D01*
X7099317Y11447755D02*
X7124708D01*
X7112012D01*
Y11384276D01*
X7124708Y11371580D01*
X7137404D01*
X7150100Y11384276D01*
X7023141Y11371580D02*
X7073925D01*
X7023141Y11422363D01*
Y11435059D01*
X7035837Y11447755D01*
X7061229D01*
X7073925Y11435059D01*
X12870168Y7339361D02*
X12793992D01*
Y7377449D01*
X12806688Y7390144D01*
X12857472D01*
X12870168Y7377449D01*
Y7339361D01*
X12793992Y7415536D02*
Y7440928D01*
Y7428232D01*
X12870168D01*
X12857472Y7415536D01*
X12870168Y7479016D02*
Y7529799D01*
X12857472D01*
X12806688Y7479016D01*
X12793992D01*
X12819368Y10735341D02*
X12743192D01*
Y10773429D01*
X12755888Y10786124D01*
X12806673D01*
X12819368Y10773429D01*
Y10735341D01*
X12743192Y10811516D02*
Y10836908D01*
Y10824212D01*
X12819368D01*
X12806673Y10811516D01*
Y10874996D02*
X12819368Y10887692D01*
Y10913084D01*
X12806673Y10925779D01*
X12755888D01*
X12743192Y10913084D01*
Y10887692D01*
X12755888Y10874996D01*
X12806673D01*
X12753328Y14175760D02*
X12677152D01*
Y14213847D01*
X12689848Y14226544D01*
X12740632D01*
X12753328Y14213847D01*
Y14175760D01*
X12677152Y14290022D02*
X12753328D01*
X12715240Y14251936D01*
Y14302719D01*
X14805693Y15841946D02*
X14818388Y15854643D01*
X14843781D01*
X14856477Y15841946D01*
Y15791164D01*
X14843781Y15778468D01*
X14818388D01*
X14805693Y15791164D01*
X14780301Y15778468D02*
X14754909D01*
X14767606D01*
Y15854643D01*
X14780301Y15841946D01*
%TF.MD5,ddc43711903167fd13978b6431f797af*%
M02*
