%TF.GenerationSoftware,Altium Limited,Altium Designer,21.6.4 (81)*%
G04 Layer_Color=32896*
%FSLAX43Y43*%
%MOMM*%
%TF.SameCoordinates,EC4FC630-8089-4DC4-91AF-8D111CED9019*%
%TF.FilePolarity,Positive*%
%TF.FileFunction,Legend,Bot*%
%TF.Part,Single*%
G01*
G75*
%TA.AperFunction,NonConductor*%
%ADD64C,0.200*%
%ADD65C,0.250*%
%ADD66C,0.254*%
%ADD67C,0.152*%
%ADD68C,0.127*%
D64*
X151206Y82775D02*
G03*
X151206Y82675I0J-50D01*
G01*
D02*
G03*
X151206Y82775I0J50D01*
G01*
D02*
G03*
X151206Y82675I0J-50D01*
G01*
X150673Y151450D02*
G03*
X150673Y151350I0J-50D01*
G01*
D02*
G03*
X150673Y151450I0J50D01*
G01*
D02*
G03*
X150673Y151350I0J-50D01*
G01*
X150571Y117471D02*
G03*
X150571Y117371I0J-50D01*
G01*
D02*
G03*
X150571Y117471I0J50D01*
G01*
D02*
G03*
X150571Y117371I0J-50D01*
G01*
X228575Y72229D02*
G03*
X228575Y72329I0J50D01*
G01*
D02*
G03*
X228575Y72229I0J-50D01*
G01*
D02*
G03*
X228575Y72329I0J50D01*
G01*
X228219Y104220D02*
G03*
X228219Y104320I0J50D01*
G01*
D02*
G03*
X228219Y104220I0J-50D01*
G01*
D02*
G03*
X228219Y104320I0J50D01*
G01*
X228295Y133670D02*
G03*
X228295Y133570I0J-50D01*
G01*
D02*
G03*
X228295Y133670I0J50D01*
G01*
D02*
G03*
X228295Y133570I0J-50D01*
G01*
X228346Y135316D02*
G03*
X228346Y135416I0J50D01*
G01*
D02*
G03*
X228346Y135316I0J-50D01*
G01*
D02*
G03*
X228346Y135416I0J50D01*
G01*
X91111Y171017D02*
G03*
X91111Y167057I-1500J-1980D01*
G01*
X121490Y170915D02*
G03*
X121490Y166955I-1500J-1980D01*
G01*
X151970Y170661D02*
G03*
X151970Y166701I-1500J-1980D01*
G01*
X182373Y170407D02*
G03*
X182373Y166447I-1500J-1980D01*
G01*
X244476Y170255D02*
G03*
X244476Y166295I-1500J-1980D01*
G01*
X212955Y169950D02*
G03*
X212955Y165990I-1500J-1980D01*
G01*
X64062Y102249D02*
X64312Y101649D01*
X63112D02*
X64312D01*
X63112D02*
X63362Y102249D01*
X68312Y112849D02*
X68561Y112249D01*
X69262D02*
X69512Y112849D01*
X68312D02*
X69512D01*
X62412Y112249D02*
X68561D01*
X69262D02*
X71412D01*
Y102249D02*
Y112249D01*
X62412Y102249D02*
Y112249D01*
Y102249D02*
X63362D01*
X64062D02*
X71412D01*
X147361Y85354D02*
Y88660D01*
X149717Y85354D02*
Y88660D01*
X151399Y97879D02*
Y98024D01*
X150149Y97879D02*
Y98024D01*
X153206Y80925D02*
X153781D01*
X156356Y79525D01*
Y70625D02*
Y79525D01*
X153206Y70625D02*
X156356D01*
X146056D02*
X149206D01*
X146056D02*
Y79525D01*
X148631Y80925D01*
X149206D01*
X168950Y71032D02*
X173910D01*
X168950Y61252D02*
Y71032D01*
Y61252D02*
X173910D01*
Y71032D01*
X168894Y71869D02*
Y81649D01*
X173854D01*
Y71869D02*
Y81649D01*
X168894Y71869D02*
X173854D01*
X173910Y82435D02*
Y92215D01*
X168950Y82435D02*
X173910D01*
X168950D02*
Y92215D01*
X173910D01*
X174011Y95542D02*
Y105322D01*
X169051Y95542D02*
X174011D01*
X169051D02*
Y105322D01*
X174011D01*
X169041Y106819D02*
Y116599D01*
X174001D01*
Y106819D02*
Y116599D01*
X169041Y106819D02*
X174001D01*
X174011Y117589D02*
Y127369D01*
X169051Y117589D02*
X174011D01*
X169051D02*
Y127369D01*
X174011D01*
X174133Y127774D02*
Y137554D01*
X169173Y127774D02*
X174133D01*
X169173D02*
Y137554D01*
X174133D01*
X169270Y138544D02*
Y148324D01*
X174230D01*
Y138544D02*
Y148324D01*
X169270Y138544D02*
X174230D01*
X174164Y149161D02*
Y158941D01*
X169204Y149161D02*
X174164D01*
X169204D02*
Y158941D01*
X174164D01*
X167757Y79506D02*
Y79651D01*
X166507Y79506D02*
Y79651D01*
X160309Y74039D02*
Y77345D01*
X157953Y74039D02*
Y77345D01*
X166405Y73841D02*
Y73987D01*
X167655Y73841D02*
Y73987D01*
X166405Y68812D02*
Y68957D01*
X167655Y68812D02*
Y68957D01*
Y63326D02*
Y63471D01*
X166405Y63326D02*
Y63471D01*
X128588Y70794D02*
Y75754D01*
X118808D02*
X128588D01*
X118808Y70794D02*
Y75754D01*
Y70794D02*
X128588D01*
X118249Y104581D02*
X128029D01*
X118249D02*
Y109541D01*
X128029D01*
Y104581D02*
Y109541D01*
X148098Y149600D02*
X148673D01*
X145523Y148200D02*
X148098Y149600D01*
X145523Y139300D02*
Y148200D01*
Y139300D02*
X148673D01*
X152673D02*
X155823D01*
Y148200D01*
X153248Y149600D02*
X155823Y148200D01*
X152673Y149600D02*
X153248D01*
X146751Y118196D02*
Y121502D01*
X149108Y118196D02*
Y121502D01*
X147996Y115621D02*
X148571D01*
X145421Y114221D02*
X147996Y115621D01*
X145421Y105321D02*
Y114221D01*
Y105321D02*
X148571D01*
X152571D02*
X155721D01*
Y114221D01*
X153146Y115621D02*
X155721Y114221D01*
X152571Y115621D02*
X153146D01*
X159547Y108696D02*
Y112002D01*
X157191Y108696D02*
Y112002D01*
X167579Y97540D02*
Y97685D01*
X166329Y97540D02*
Y97685D01*
X166355Y103229D02*
Y103374D01*
X167605Y103229D02*
Y103374D01*
X167427Y119425D02*
Y119570D01*
X166177Y119425D02*
Y119570D01*
X167427Y124743D02*
Y124888D01*
X166177Y124743D02*
Y124888D01*
X159623Y142873D02*
Y146179D01*
X157267Y142873D02*
Y146179D01*
X178686Y150122D02*
X184636D01*
Y158082D01*
X178686D02*
X184636D01*
X178686Y150122D02*
Y158082D01*
X242223Y79768D02*
X242473Y79168D01*
X242223Y79768D02*
X243423D01*
X243174Y79168D02*
X243423Y79768D01*
X237974Y69168D02*
X238224Y68568D01*
X237024D02*
X237273Y69168D01*
X237024Y68568D02*
X238224D01*
X237974Y69168D02*
X244124D01*
X235124D02*
X237274D01*
X235124D02*
Y79168D01*
X244124Y69168D02*
Y79168D01*
X243174D02*
X244124D01*
X235124D02*
X242474D01*
X230575Y74079D02*
X231150D01*
X233725Y75479D01*
Y84379D01*
X230575D02*
X233725D01*
X223425D02*
X226575D01*
X223425Y75479D02*
Y84379D01*
Y75479D02*
X226000Y74079D01*
X226575D01*
X220238Y108497D02*
Y110247D01*
X213238Y108497D02*
Y110247D01*
X230219Y106070D02*
X230794D01*
X233369Y107470D01*
Y116370D01*
X230219D02*
X233369D01*
X223069D02*
X226219D01*
X223069Y107470D02*
Y116370D01*
Y107470D02*
X225644Y106070D01*
X226219D01*
X230295Y131820D02*
X230870D01*
X233445Y130420D01*
Y121520D02*
Y130420D01*
X230295Y121520D02*
X233445D01*
X223145D02*
X226295D01*
X223145D02*
Y130420D01*
X225720Y131820D01*
X226295D01*
X236617Y114656D02*
Y122783D01*
X240967Y123799D01*
Y113690D02*
Y123749D01*
X236617Y114656D02*
X240967Y113640D01*
X236719Y138913D02*
X241069Y137897D01*
Y137947D02*
Y148006D01*
X236719Y147040D02*
X241069Y148056D01*
X236719Y138913D02*
Y147040D01*
X230346Y137166D02*
X230921D01*
X233496Y138566D01*
Y147466D01*
X230346D02*
X233496D01*
X223196D02*
X226346D01*
X223196Y138566D02*
Y147466D01*
Y138566D02*
X225771Y137166D01*
X226346D01*
X223789Y151550D02*
Y153250D01*
X222539Y151550D02*
Y154100D01*
X214153Y147628D02*
Y149378D01*
X221153Y147628D02*
Y149378D01*
X176356Y133162D02*
X176501D01*
X176356Y131912D02*
X176501D01*
X128306Y142699D02*
Y142949D01*
X129656Y142699D02*
Y142949D01*
X144998Y66067D02*
Y66317D01*
X143648Y66067D02*
Y66317D01*
X129475Y74322D02*
Y74572D01*
X130825Y74322D02*
Y74572D01*
X140354Y101128D02*
X140604D01*
X140354Y102478D02*
X140604D01*
X128890Y107977D02*
Y108227D01*
X130240Y107977D02*
Y108227D01*
X140134Y136231D02*
X140384D01*
X140134Y137581D02*
X140384D01*
X63901Y136249D02*
X71251D01*
X62251D02*
X63201D01*
X62251D02*
Y146249D01*
X71251Y136249D02*
Y146249D01*
X69101D02*
X71251D01*
X62251D02*
X68401D01*
X68151Y146849D02*
X69351D01*
X69101Y146249D02*
X69351Y146849D01*
X68151D02*
X68401Y146249D01*
X62951Y135649D02*
X63201Y136249D01*
X62951Y135649D02*
X64151D01*
X63902Y136249D02*
X64151Y135649D01*
X199666Y108136D02*
X205616D01*
Y128796D01*
X199666D02*
X205616D01*
X199666Y108136D02*
Y128796D01*
X210785Y143082D02*
Y143227D01*
X209535Y143082D02*
Y143227D01*
X205281Y143316D02*
X208587D01*
X205281Y140960D02*
X208587D01*
X197134Y134150D02*
Y134227D01*
X194434Y134150D02*
X197134D01*
X194434D02*
Y134227D01*
X197134Y135622D02*
Y135700D01*
X194434D02*
X197134D01*
X194434Y135622D02*
Y135700D01*
X197083Y137604D02*
Y137682D01*
X194383Y137604D02*
X197083D01*
X194383D02*
Y137682D01*
X197083Y139077D02*
Y139154D01*
X194383D02*
X197083D01*
X194383Y139077D02*
Y139154D01*
X197083Y140906D02*
Y140984D01*
X194383Y140906D02*
X197083D01*
X194383D02*
Y140984D01*
X197083Y142379D02*
Y142456D01*
X194383D02*
X197083D01*
X194383Y142379D02*
Y142456D01*
X178868Y128532D02*
X184818D01*
Y136492D01*
X178868D02*
X184818D01*
X178868Y128532D02*
Y136492D01*
X178843Y118423D02*
X184793D01*
Y126383D01*
X178843D02*
X184793D01*
X178843Y118423D02*
Y126383D01*
X177988Y115615D02*
Y115760D01*
X179238Y115615D02*
Y115760D01*
X182819Y115615D02*
Y115760D01*
X181569Y115615D02*
Y115760D01*
X179162Y107166D02*
Y107311D01*
X177912Y107166D02*
Y107311D01*
X179021Y62492D02*
X184971D01*
Y70452D01*
X179021D02*
X184971D01*
X179021Y62492D02*
Y70452D01*
X179492Y73003D02*
Y73148D01*
X178242Y73003D02*
Y73148D01*
X178191Y80598D02*
Y80743D01*
X179441Y80598D02*
Y80743D01*
X178919Y83345D02*
X184869D01*
Y91305D01*
X178919D02*
X184869D01*
X178919Y83345D02*
Y91305D01*
X179021Y96477D02*
X184971D01*
Y104437D01*
X179021D02*
X184971D01*
X179021Y96477D02*
Y104437D01*
X181620Y107176D02*
Y107321D01*
X182870Y107176D02*
Y107321D01*
X225049Y153887D02*
Y155637D01*
X232049Y153887D02*
Y155637D01*
X207395Y125466D02*
X207540D01*
X207395Y124216D02*
X207540D01*
X205332Y151038D02*
X208638D01*
X205332Y148682D02*
X208638D01*
X205193Y146999D02*
X208499D01*
X205193Y144643D02*
X208499D01*
X209433Y150930D02*
Y151076D01*
X210683Y150930D02*
Y151076D01*
X210734Y146841D02*
Y146986D01*
X209484Y146841D02*
Y146986D01*
X199569Y129192D02*
Y149852D01*
X205519D01*
Y129192D02*
Y149852D01*
X199569Y129192D02*
X205519D01*
X167376Y146181D02*
Y146326D01*
X166126Y146181D02*
Y146326D01*
X165186Y70381D02*
Y73687D01*
X162830Y70381D02*
Y73687D01*
X182895Y73054D02*
Y73199D01*
X181645Y73054D02*
Y73199D01*
X181620Y80623D02*
Y80768D01*
X182870Y80623D02*
Y80768D01*
X150632Y65739D02*
Y65884D01*
X151882Y65739D02*
Y65884D01*
X166507Y84443D02*
Y84588D01*
X167757Y84443D02*
Y84588D01*
X166558Y90132D02*
Y90277D01*
X167808Y90132D02*
Y90277D01*
X164297Y105230D02*
Y108536D01*
X161941Y105230D02*
Y108536D01*
X164983Y137070D02*
Y140376D01*
X162626Y137070D02*
Y140376D01*
X166202Y114396D02*
Y114541D01*
X167452Y114396D02*
Y114541D01*
X167427Y108808D02*
Y108953D01*
X166177Y108808D02*
Y108953D01*
X167376Y156788D02*
Y156934D01*
X166126Y156788D02*
Y156934D01*
X209617Y124001D02*
Y127307D01*
X211973Y124001D02*
Y127307D01*
X209617Y127735D02*
Y131041D01*
X211973Y127735D02*
Y131041D01*
X207344Y127874D02*
X207489D01*
X207344Y129124D02*
X207489D01*
X207369Y120101D02*
X207514D01*
X207369Y121351D02*
X207514D01*
X209718Y119937D02*
Y123243D01*
X212074Y119937D02*
Y123243D01*
X146980Y152728D02*
Y156034D01*
X149336Y152728D02*
Y156034D01*
X167351Y151108D02*
Y151253D01*
X166101Y151108D02*
Y151253D01*
X167427Y135436D02*
Y135582D01*
X166177Y135436D02*
Y135582D01*
X167427Y129890D02*
Y130035D01*
X166177Y129890D02*
Y130035D01*
X178984Y139018D02*
Y139163D01*
X177734Y139018D02*
Y139163D01*
X182794Y139170D02*
Y139315D01*
X181544Y139170D02*
Y139315D01*
X178984Y147365D02*
Y147510D01*
X177734Y147365D02*
Y147510D01*
X181468Y147324D02*
Y147469D01*
X182718Y147324D02*
Y147469D01*
X167401Y140516D02*
Y140662D01*
X166151Y140516D02*
Y140662D01*
X149972Y130890D02*
Y131035D01*
X151222Y130890D02*
Y131035D01*
X91111Y167057D02*
Y171017D01*
X61647Y164651D02*
Y172611D01*
X67597D01*
Y164651D02*
Y172611D01*
X61647Y164651D02*
X67597D01*
X93240Y164600D02*
Y172560D01*
X99190D01*
Y164600D02*
Y172560D01*
X93240Y164600D02*
X99190D01*
X121490Y166955D02*
Y170915D01*
X123669Y164371D02*
Y172331D01*
X129619D01*
Y164371D02*
Y172331D01*
X123669Y164371D02*
X129619D01*
X151970Y166701D02*
Y170661D01*
X154200Y164930D02*
Y172890D01*
X160150D01*
Y164930D02*
Y172890D01*
X154200Y164930D02*
X160150D01*
X182373Y166447D02*
Y170407D01*
X215546Y164473D02*
Y172433D01*
X221496D01*
Y164473D02*
Y172433D01*
X215546Y164473D02*
X221496D01*
X244476Y166295D02*
Y170255D01*
X185010Y164270D02*
Y172230D01*
X190960D01*
Y164270D02*
Y172230D01*
X185010Y164270D02*
X190960D01*
X212955Y165990D02*
Y169950D01*
X210291Y87363D02*
Y97143D01*
X215251D01*
Y87363D02*
Y97143D01*
X210291Y87363D02*
X215251D01*
X64231Y68381D02*
X71581D01*
X62581D02*
X63531D01*
X62581D02*
Y78381D01*
X71581Y68381D02*
Y78381D01*
X69431D02*
X71581D01*
X62581D02*
X68731D01*
X68481Y78981D02*
X69681D01*
X69432Y78381D02*
X69681Y78981D01*
X68481D02*
X68731Y78381D01*
X63282Y67781D02*
X63531Y68381D01*
X63282Y67781D02*
X64482D01*
X64232Y68381D02*
X64482Y67781D01*
X118148Y139272D02*
X127928D01*
X118148D02*
Y144232D01*
X127928D01*
Y139272D02*
Y144232D01*
D65*
X178386Y156642D02*
G03*
X178386Y156642I-125J0D01*
G01*
X238917Y113140D02*
G03*
X238917Y113140I-125J0D01*
G01*
X239019Y137397D02*
G03*
X239019Y137397I-125J0D01*
G01*
X129081Y144974D02*
G03*
X129081Y144974I-125J0D01*
G01*
X144423Y68342D02*
G03*
X144423Y68342I-125J0D01*
G01*
X130250Y76597D02*
G03*
X130250Y76597I-125J0D01*
G01*
X142754Y101828D02*
G03*
X142754Y101828I-125J0D01*
G01*
X129665Y110252D02*
G03*
X129665Y110252I-125J0D01*
G01*
X142534Y136931D02*
G03*
X142534Y136931I-125J0D01*
G01*
X199366Y127356D02*
G03*
X199366Y127356I-125J0D01*
G01*
X193673Y133719D02*
G03*
X193673Y133719I-125J0D01*
G01*
X193622Y137173D02*
G03*
X193622Y137173I-125J0D01*
G01*
Y140475D02*
G03*
X193622Y140475I-125J0D01*
G01*
X178568Y135052D02*
G03*
X178568Y135052I-125J0D01*
G01*
X178543Y124943D02*
G03*
X178543Y124943I-125J0D01*
G01*
X178721Y69012D02*
G03*
X178721Y69012I-125J0D01*
G01*
X178619Y89865D02*
G03*
X178619Y89865I-125J0D01*
G01*
X178721Y102997D02*
G03*
X178721Y102997I-125J0D01*
G01*
X199269Y148412D02*
G03*
X199269Y148412I-125J0D01*
G01*
X91086Y171867D02*
G03*
X91086Y171867I-125J0D01*
G01*
X61347Y171171D02*
G03*
X61347Y171171I-125J0D01*
G01*
X92940Y171120D02*
G03*
X92940Y171120I-125J0D01*
G01*
X121465Y171765D02*
G03*
X121465Y171765I-125J0D01*
G01*
X123369Y170891D02*
G03*
X123369Y170891I-125J0D01*
G01*
X151945Y171511D02*
G03*
X151945Y171511I-125J0D01*
G01*
X153900Y171450D02*
G03*
X153900Y171450I-125J0D01*
G01*
X182348Y171257D02*
G03*
X182348Y171257I-125J0D01*
G01*
X215246Y170993D02*
G03*
X215246Y170993I-125J0D01*
G01*
X244451Y171105D02*
G03*
X244451Y171105I-125J0D01*
G01*
X184710Y170790D02*
G03*
X184710Y170790I-125J0D01*
G01*
X212930Y170800D02*
G03*
X212930Y170800I-125J0D01*
G01*
D66*
X154661Y62814D02*
Y67894D01*
X152121Y62814D02*
X154661D01*
X152121D02*
Y67894D01*
X154661D01*
X154737Y95388D02*
Y100468D01*
X152197Y95388D02*
X154737D01*
X152197D02*
Y100468D01*
X154737D01*
X152197Y133564D02*
X154737D01*
X152197Y128484D02*
Y133564D01*
Y128484D02*
X154737D01*
Y133564D01*
X116916Y75717D02*
X118440D01*
X113360D02*
X114884D01*
X113360Y73177D02*
X118440D01*
Y75717D01*
X114884D02*
X116916D01*
X113360Y73177D02*
Y75717D01*
X116397Y109525D02*
X117921D01*
X112841D02*
X114365D01*
X112841Y106985D02*
X117921D01*
Y109525D01*
X114365D02*
X116397D01*
X112841Y106985D02*
Y109525D01*
X116205Y144272D02*
X117729D01*
X112649D02*
X114173D01*
X112649Y141732D02*
X117729D01*
Y144272D01*
X114173D02*
X116205D01*
X112649Y141732D02*
Y144272D01*
D67*
X119685Y147955D02*
Y158115D01*
X97333D02*
X119685D01*
X97333Y147955D02*
Y158115D01*
Y147955D02*
X119685D01*
X96749Y112903D02*
X119101D01*
X96749D02*
Y123063D01*
X119101D01*
Y112903D02*
Y123063D01*
X241808Y107925D02*
Y109195D01*
X241173Y108941D02*
X242443D01*
X241173Y108179D02*
X241808Y108941D01*
X241300Y108179D02*
X241808Y108941D01*
X241427Y108179D02*
X241808Y108941D01*
X241554Y108179D02*
X241808Y108941D01*
X241681Y108179D02*
X241808Y108941D01*
X242443Y108179D01*
X241808Y108941D02*
X242316Y108179D01*
X241808Y108941D02*
X242189Y108179D01*
X241808Y108941D02*
X242062Y108179D01*
X241808Y108941D02*
X241935Y108179D01*
X241173D02*
X242443D01*
X244589Y89535D02*
Y99289D01*
X239027Y89535D02*
X244589D01*
X239027D02*
Y99289D01*
X244589D01*
X207112Y68986D02*
X208382D01*
X207366Y68351D02*
Y69621D01*
Y68986D02*
X208128Y68351D01*
X207366Y68986D02*
X208128Y68478D01*
X207366Y68986D02*
X208128Y68605D01*
X207366Y68986D02*
X208128Y68732D01*
X207366Y68986D02*
X208128Y68859D01*
X207366Y68986D02*
X208128Y69621D01*
X207366Y68986D02*
X208128Y69494D01*
X207366Y68986D02*
X208128Y69367D01*
X207366Y68986D02*
X208128Y69240D01*
X207366Y68986D02*
X208128Y69113D01*
Y68351D02*
Y69621D01*
X217018Y71768D02*
X226771D01*
Y66205D02*
Y71768D01*
X217018Y66205D02*
X226771D01*
X217018D02*
Y71768D01*
X97130Y79096D02*
X119482D01*
X97130D02*
Y89256D01*
X119482D01*
Y79096D02*
Y89256D01*
D68*
X164338Y115849D02*
X163830D01*
X164084D01*
Y115088D01*
X163576D02*
Y115849D01*
X163195D01*
X163068Y115722D01*
Y115468D01*
X163195Y115341D01*
X163576D01*
X162306Y115088D02*
X162814D01*
X162306Y115595D01*
Y115722D01*
X162433Y115849D01*
X162687D01*
X162814Y115722D01*
X162052D02*
X161925Y115849D01*
X161671D01*
X161544Y115722D01*
Y115595D01*
X161671Y115468D01*
X161544Y115341D01*
Y115214D01*
X161671Y115088D01*
X161925D01*
X162052Y115214D01*
Y115341D01*
X161925Y115468D01*
X162052Y115595D01*
Y115722D01*
X161925Y115468D02*
X161671D01*
X211379Y141910D02*
X212141D01*
Y142291D01*
X212014Y142418D01*
X211760D01*
X211633Y142291D01*
Y141910D01*
Y142164D02*
X211379Y142418D01*
X212014Y142672D02*
X212141Y142799D01*
Y143053D01*
X212014Y143180D01*
X211887D01*
X211760Y143053D01*
X211633Y143180D01*
X211506D01*
X211379Y143053D01*
Y142799D01*
X211506Y142672D01*
X211633D01*
X211760Y142799D01*
X211887Y142672D01*
X212014D01*
X211760Y142799D02*
Y143053D01*
X212141Y143941D02*
Y143434D01*
X211760D01*
X211887Y143688D01*
Y143815D01*
X211760Y143941D01*
X211506D01*
X211379Y143815D01*
Y143561D01*
X211506Y143434D01*
X96164Y113132D02*
Y113893D01*
X95783D01*
X95656Y113767D01*
Y113513D01*
X95783Y113386D01*
X96164D01*
X95910D02*
X95656Y113132D01*
X95402Y113259D02*
X95275Y113132D01*
X95021D01*
X94894Y113259D01*
Y113767D01*
X95021Y113893D01*
X95275D01*
X95402Y113767D01*
Y113640D01*
X95275Y113513D01*
X94894D01*
X94133Y113893D02*
X94387Y113767D01*
X94641Y113513D01*
Y113259D01*
X94514Y113132D01*
X94260D01*
X94133Y113259D01*
Y113386D01*
X94260Y113513D01*
X94641D01*
X221387Y154381D02*
Y153873D01*
X221513D01*
X222021Y154381D01*
X222148D01*
Y153873D01*
Y153619D02*
Y153365D01*
Y153492D01*
X221387D01*
X221513Y153619D01*
X159283Y67640D02*
X158775D01*
X159029D01*
Y66878D01*
X158521D02*
Y67640D01*
X158140D01*
X158013Y67513D01*
Y67259D01*
X158140Y67132D01*
X158521D01*
X157379Y66878D02*
Y67640D01*
X157759Y67259D01*
X157252D01*
X156490Y67640D02*
X156744Y67513D01*
X156998Y67259D01*
Y67005D01*
X156871Y66878D01*
X156617D01*
X156490Y67005D01*
Y67132D01*
X156617Y67259D01*
X156998D01*
X167284Y158725D02*
Y159486D01*
X166903D01*
X166776Y159360D01*
Y159106D01*
X166903Y158979D01*
X167284D01*
X167030D02*
X166776Y158725D01*
X166522Y159486D02*
X166015D01*
Y159360D01*
X166522Y158852D01*
Y158725D01*
X139471Y85268D02*
X138963D01*
X139217D01*
Y84506D01*
X138709D02*
Y85268D01*
X138328D01*
X138201Y85141D01*
Y84887D01*
X138328Y84760D01*
X138709D01*
X137440Y85268D02*
X137947D01*
Y84887D01*
X137694Y85014D01*
X137567D01*
X137440Y84887D01*
Y84633D01*
X137567Y84506D01*
X137821D01*
X137947Y84633D01*
X137186Y84506D02*
X136932D01*
X137059D01*
Y85268D01*
X137186Y85141D01*
X138430Y119177D02*
X137922D01*
X138176D01*
Y118415D01*
X137668D02*
Y119177D01*
X137287D01*
X137160Y119050D01*
Y118796D01*
X137287Y118669D01*
X137668D01*
X136398Y119177D02*
X136906D01*
Y118796D01*
X136652Y118923D01*
X136525D01*
X136398Y118796D01*
Y118542D01*
X136525Y118415D01*
X136779D01*
X136906Y118542D01*
X136144Y119050D02*
X136017Y119177D01*
X135763D01*
X135636Y119050D01*
Y118542D01*
X135763Y118415D01*
X136017D01*
X136144Y118542D01*
Y119050D01*
X137693Y155981D02*
X137185D01*
X137439D01*
Y155220D01*
X136931D02*
Y155981D01*
X136550D01*
X136423Y155854D01*
Y155600D01*
X136550Y155473D01*
X136931D01*
X135789Y155220D02*
Y155981D01*
X136169Y155600D01*
X135662D01*
X135408Y155346D02*
X135281Y155220D01*
X135027D01*
X134900Y155346D01*
Y155854D01*
X135027Y155981D01*
X135281D01*
X135408Y155854D01*
Y155727D01*
X135281Y155600D01*
X134900D01*
X239700Y80645D02*
X239954D01*
X239827D01*
Y80010D01*
X239954Y79883D01*
X240081D01*
X240208Y80010D01*
X239446Y79883D02*
X239192D01*
X239319D01*
Y80645D01*
X239446Y80518D01*
X155334Y150774D02*
X155461Y150901D01*
X155714D01*
X155841Y150774D01*
Y150266D01*
X155714Y150140D01*
X155461D01*
X155334Y150266D01*
X155080Y150140D02*
X154826D01*
X154953D01*
Y150901D01*
X155080Y150774D01*
X153937Y150901D02*
X154191Y150774D01*
X154445Y150520D01*
Y150266D01*
X154318Y150140D01*
X154064D01*
X153937Y150266D01*
Y150393D01*
X154064Y150520D01*
X154445D01*
X214782Y71374D02*
X214909Y71501D01*
X215163D01*
X215290Y71374D01*
Y70866D01*
X215163Y70739D01*
X214909D01*
X214782Y70866D01*
X214528Y70739D02*
Y71501D01*
X214147D01*
X214020Y71374D01*
Y71120D01*
X214147Y70993D01*
X214528D01*
X214274D02*
X214020Y70739D01*
X213259D02*
X213767D01*
X213259Y71247D01*
Y71374D01*
X213386Y71501D01*
X213640D01*
X213767Y71374D01*
X196799Y140259D02*
Y139497D01*
X196418D01*
X196291Y139624D01*
Y140132D01*
X196418Y140259D01*
X196799D01*
X195529Y139497D02*
X196037D01*
X195529Y140005D01*
Y140132D01*
X195656Y140259D01*
X195910D01*
X196037Y140132D01*
X195275D02*
X195148Y140259D01*
X194894D01*
X194768Y140132D01*
Y139624D01*
X194894Y139497D01*
X195148D01*
X195275Y139624D01*
Y140132D01*
X196634Y143738D02*
Y142977D01*
X196253D01*
X196126Y143104D01*
Y143612D01*
X196253Y143738D01*
X196634D01*
X195872Y142977D02*
X195618D01*
X195745D01*
Y143738D01*
X195872Y143612D01*
X195237Y143104D02*
X195110Y142977D01*
X194856D01*
X194729Y143104D01*
Y143612D01*
X194856Y143738D01*
X195110D01*
X195237Y143612D01*
Y143485D01*
X195110Y143358D01*
X194729D01*
X146380Y65012D02*
X145618D01*
Y65392D01*
X145745Y65519D01*
X146253D01*
X146380Y65392D01*
Y65012D01*
X145618Y65773D02*
Y66027D01*
Y65900D01*
X146380D01*
X146253Y65773D01*
Y66408D02*
X146380Y66535D01*
Y66789D01*
X146253Y66916D01*
X146126D01*
X145999Y66789D01*
X145872Y66916D01*
X145745D01*
X145618Y66789D01*
Y66535D01*
X145745Y66408D01*
X145872D01*
X145999Y66535D01*
X146126Y66408D01*
X146253D01*
X145999Y66535D02*
Y66789D01*
X141338Y103937D02*
Y103175D01*
X140957D01*
X140830Y103302D01*
Y103810D01*
X140957Y103937D01*
X141338D01*
X140576Y103175D02*
X140322D01*
X140449D01*
Y103937D01*
X140576Y103810D01*
X139941Y103175D02*
X139688D01*
X139815D01*
Y103937D01*
X139941Y103810D01*
X140716Y138836D02*
Y138075D01*
X140335D01*
X140208Y138201D01*
Y138709D01*
X140335Y138836D01*
X140716D01*
X139446D02*
X139954D01*
Y138455D01*
X139700Y138582D01*
X139573D01*
X139446Y138455D01*
Y138201D01*
X139573Y138075D01*
X139827D01*
X139954Y138201D01*
X180594Y79451D02*
X180086D01*
X180340D01*
Y78689D01*
X179832D02*
Y79451D01*
X179451D01*
X179324Y79324D01*
Y79070D01*
X179451Y78943D01*
X179832D01*
X178690Y78689D02*
Y79451D01*
X179070Y79070D01*
X178563D01*
X178309Y79324D02*
X178182Y79451D01*
X177928D01*
X177801Y79324D01*
Y79197D01*
X177928Y79070D01*
X177801Y78943D01*
Y78816D01*
X177928Y78689D01*
X178182D01*
X178309Y78816D01*
Y78943D01*
X178182Y79070D01*
X178309Y79197D01*
Y79324D01*
X178182Y79070D02*
X177928D01*
X162001Y73279D02*
X161493D01*
X161747D01*
Y72517D01*
X161239D02*
Y73279D01*
X160858D01*
X160731Y73152D01*
Y72898D01*
X160858Y72771D01*
X161239D01*
X160096Y72517D02*
Y73279D01*
X160477Y72898D01*
X159969D01*
X159715Y73279D02*
X159208D01*
Y73152D01*
X159715Y72644D01*
Y72517D01*
X141376Y71196D02*
X140868D01*
X141122D01*
Y70434D01*
X140614D02*
Y71196D01*
X140233D01*
X140106Y71069D01*
Y70815D01*
X140233Y70688D01*
X140614D01*
X139472Y70434D02*
Y71196D01*
X139852Y70815D01*
X139345D01*
X138583Y71196D02*
X139091D01*
Y70815D01*
X138837Y70942D01*
X138710D01*
X138583Y70815D01*
Y70561D01*
X138710Y70434D01*
X138964D01*
X139091Y70561D01*
X141528Y78841D02*
X141021D01*
X141274D01*
Y78080D01*
X140767D02*
Y78841D01*
X140386D01*
X140259Y78715D01*
Y78461D01*
X140386Y78334D01*
X140767D01*
X139624Y78080D02*
Y78841D01*
X140005Y78461D01*
X139497D01*
X138862Y78080D02*
Y78841D01*
X139243Y78461D01*
X138735D01*
X164922Y80975D02*
X164414D01*
X164668D01*
Y80213D01*
X164160D02*
Y80975D01*
X163779D01*
X163652Y80848D01*
Y80594D01*
X163779Y80467D01*
X164160D01*
X163017Y80213D02*
Y80975D01*
X163398Y80594D01*
X162890D01*
X162636Y80848D02*
X162510Y80975D01*
X162256D01*
X162129Y80848D01*
Y80721D01*
X162256Y80594D01*
X162383D01*
X162256D01*
X162129Y80467D01*
Y80340D01*
X162256Y80213D01*
X162510D01*
X162636Y80340D01*
X164744Y66268D02*
X164236D01*
X164490D01*
Y65507D01*
X163982D02*
Y66268D01*
X163601D01*
X163474Y66142D01*
Y65888D01*
X163601Y65761D01*
X163982D01*
X162840Y65507D02*
Y66268D01*
X163220Y65888D01*
X162713D01*
X161951Y65507D02*
X162459D01*
X161951Y66015D01*
Y66142D01*
X162078Y66268D01*
X162332D01*
X162459Y66142D01*
X220751Y157277D02*
X220244D01*
X220497D01*
Y156515D01*
X219990D02*
Y157277D01*
X219609D01*
X219482Y157150D01*
Y156896D01*
X219609Y156769D01*
X219990D01*
X219228Y157150D02*
X219101Y157277D01*
X218847D01*
X218720Y157150D01*
Y157023D01*
X218847Y156896D01*
X218974D01*
X218847D01*
X218720Y156769D01*
Y156642D01*
X218847Y156515D01*
X219101D01*
X219228Y156642D01*
X218085Y156515D02*
Y157277D01*
X218466Y156896D01*
X217958D01*
X175336Y92163D02*
X174574D01*
Y91783D01*
X174701Y91656D01*
X174955D01*
X175082Y91783D01*
Y92163D01*
Y91910D02*
X175336Y91656D01*
Y91402D02*
X174574D01*
Y91021D01*
X174701Y90894D01*
X174955D01*
X175082Y91021D01*
Y91402D01*
X175336Y90640D02*
Y90386D01*
Y90513D01*
X174574D01*
X174701Y90640D01*
Y90005D02*
X174574Y89878D01*
Y89624D01*
X174701Y89497D01*
X175209D01*
X175336Y89624D01*
Y89878D01*
X175209Y90005D01*
X174701D01*
X175361Y116535D02*
X174600D01*
Y116154D01*
X174727Y116027D01*
X174981D01*
X175108Y116154D01*
Y116535D01*
Y116281D02*
X175361Y116027D01*
Y115773D02*
X174600D01*
Y115392D01*
X174727Y115265D01*
X174981D01*
X175108Y115392D01*
Y115773D01*
X175235Y115011D02*
X175361Y114884D01*
Y114630D01*
X175235Y114504D01*
X174727D01*
X174600Y114630D01*
Y114884D01*
X174727Y115011D01*
X174854D01*
X174981Y114884D01*
Y114504D01*
X175361Y105384D02*
X174600D01*
Y105003D01*
X174727Y104876D01*
X174981D01*
X175108Y105003D01*
Y105384D01*
Y105130D02*
X175361Y104876D01*
Y104623D02*
X174600D01*
Y104242D01*
X174727Y104115D01*
X174981D01*
X175108Y104242D01*
Y104623D01*
X174600Y103861D02*
Y103353D01*
X174727D01*
X175235Y103861D01*
X175361D01*
Y127152D02*
X174600D01*
Y126771D01*
X174727Y126644D01*
X174981D01*
X175108Y126771D01*
Y127152D01*
Y126898D02*
X175361Y126644D01*
Y126390D02*
X174600D01*
Y126009D01*
X174727Y125882D01*
X174981D01*
X175108Y126009D01*
Y126390D01*
X174600Y125121D02*
X174727Y125375D01*
X174981Y125629D01*
X175235D01*
X175361Y125502D01*
Y125248D01*
X175235Y125121D01*
X175108D01*
X174981Y125248D01*
Y125629D01*
X175514Y148209D02*
X174752D01*
Y147828D01*
X174879Y147701D01*
X175133D01*
X175260Y147828D01*
Y148209D01*
Y147955D02*
X175514Y147701D01*
Y147447D02*
X174752D01*
Y147066D01*
X174879Y146939D01*
X175133D01*
X175260Y147066D01*
Y147447D01*
X175514Y146304D02*
X174752D01*
X175133Y146685D01*
Y146177D01*
X175412Y137287D02*
X174651D01*
Y136906D01*
X174777Y136779D01*
X175031D01*
X175158Y136906D01*
Y137287D01*
Y137033D02*
X175412Y136779D01*
Y136525D02*
X174651D01*
Y136144D01*
X174777Y136017D01*
X175031D01*
X175158Y136144D01*
Y136525D01*
X175412Y135255D02*
Y135763D01*
X174904Y135255D01*
X174777D01*
X174651Y135382D01*
Y135636D01*
X174777Y135763D01*
X175463Y158801D02*
X174701D01*
Y158420D01*
X174828Y158293D01*
X175082D01*
X175209Y158420D01*
Y158801D01*
Y158547D02*
X175463Y158293D01*
Y158039D02*
X174701D01*
Y157658D01*
X174828Y157531D01*
X175082D01*
X175209Y157658D01*
Y158039D01*
X175463Y157277D02*
Y157023D01*
Y157150D01*
X174701D01*
X174828Y157277D01*
X180289Y71705D02*
X181051D01*
Y72085D01*
X180924Y72212D01*
X180670D01*
X180543Y72085D01*
Y71705D01*
Y71958D02*
X180289Y72212D01*
X181051Y72466D02*
Y72974D01*
X180924D01*
X180416Y72466D01*
X180289D01*
X180416Y73228D02*
X180289Y73355D01*
Y73609D01*
X180416Y73736D01*
X180924D01*
X181051Y73609D01*
Y73355D01*
X180924Y73228D01*
X180797D01*
X180670Y73355D01*
Y73736D01*
X168148Y76175D02*
Y76936D01*
X167767D01*
X167640Y76810D01*
Y76556D01*
X167767Y76429D01*
X168148D01*
X167894D02*
X167640Y76175D01*
X167386Y76936D02*
X166878D01*
Y76810D01*
X167386Y76302D01*
Y76175D01*
X166116Y76936D02*
X166370Y76810D01*
X166624Y76556D01*
Y76302D01*
X166497Y76175D01*
X166243D01*
X166116Y76302D01*
Y76429D01*
X166243Y76556D01*
X166624D01*
X183541Y71959D02*
X184302D01*
Y72339D01*
X184175Y72466D01*
X183921D01*
X183794Y72339D01*
Y71959D01*
Y72212D02*
X183541Y72466D01*
X184302Y72720D02*
Y73228D01*
X184175D01*
X183667Y72720D01*
X183541D01*
X184302Y73990D02*
Y73482D01*
X183921D01*
X184048Y73736D01*
Y73863D01*
X183921Y73990D01*
X183667D01*
X183541Y73863D01*
Y73609D01*
X183667Y73482D01*
X168198Y70892D02*
Y71653D01*
X167818D01*
X167691Y71526D01*
Y71272D01*
X167818Y71145D01*
X168198D01*
X167945D02*
X167691Y70892D01*
X167437Y71653D02*
X166929D01*
Y71526D01*
X167437Y71018D01*
Y70892D01*
X166675Y71526D02*
X166548Y71653D01*
X166294D01*
X166167Y71526D01*
Y71399D01*
X166294Y71272D01*
X166421D01*
X166294D01*
X166167Y71145D01*
Y71018D01*
X166294Y70892D01*
X166548D01*
X166675Y71018D01*
X183261Y79426D02*
X184023D01*
Y79807D01*
X183896Y79934D01*
X183642D01*
X183515Y79807D01*
Y79426D01*
Y79680D02*
X183261Y79934D01*
X184023Y80188D02*
Y80696D01*
X183896D01*
X183388Y80188D01*
X183261D01*
Y81457D02*
Y80950D01*
X183769Y81457D01*
X183896D01*
X184023Y81331D01*
Y81077D01*
X183896Y80950D01*
X168173Y65456D02*
Y66218D01*
X167792D01*
X167665Y66091D01*
Y65837D01*
X167792Y65710D01*
X168173D01*
X167919D02*
X167665Y65456D01*
X166903Y66218D02*
X167157Y66091D01*
X167411Y65837D01*
Y65583D01*
X167284Y65456D01*
X167030D01*
X166903Y65583D01*
Y65710D01*
X167030Y65837D01*
X167411D01*
X166650Y65583D02*
X166523Y65456D01*
X166269D01*
X166142Y65583D01*
Y66091D01*
X166269Y66218D01*
X166523D01*
X166650Y66091D01*
Y65964D01*
X166523Y65837D01*
X166142D01*
X168046Y81687D02*
Y82448D01*
X167665D01*
X167538Y82321D01*
Y82067D01*
X167665Y81940D01*
X168046D01*
X167792D02*
X167538Y81687D01*
X166776Y82448D02*
X167030Y82321D01*
X167284Y82067D01*
Y81813D01*
X167157Y81687D01*
X166903D01*
X166776Y81813D01*
Y81940D01*
X166903Y82067D01*
X167284D01*
X166523Y82448D02*
X166015D01*
Y82321D01*
X166523Y81813D01*
Y81687D01*
X167436Y137541D02*
Y138303D01*
X167056D01*
X166929Y138176D01*
Y137922D01*
X167056Y137795D01*
X167436D01*
X167183D02*
X166929Y137541D01*
X166167D02*
X166675D01*
X166167Y138049D01*
Y138176D01*
X166294Y138303D01*
X166548D01*
X166675Y138176D01*
X165913D02*
X165786Y138303D01*
X165532D01*
X165405Y138176D01*
Y137668D01*
X165532Y137541D01*
X165786D01*
X165913Y137668D01*
Y138176D01*
X177279Y133757D02*
Y134518D01*
X176898D01*
X176771Y134391D01*
Y134137D01*
X176898Y134010D01*
X177279D01*
X177025D02*
X176771Y133757D01*
X176517D02*
X176263D01*
X176390D01*
Y134518D01*
X176517Y134391D01*
X175375Y134518D02*
X175882D01*
Y134137D01*
X175629Y134264D01*
X175502D01*
X175375Y134137D01*
Y133883D01*
X175502Y133757D01*
X175755D01*
X175882Y133883D01*
X186664Y62738D02*
Y63500D01*
X186284D01*
X186157Y63373D01*
Y63119D01*
X186284Y62992D01*
X186664D01*
X185395Y63500D02*
X185649Y63373D01*
X185903Y63119D01*
Y62865D01*
X185776Y62738D01*
X185522D01*
X185395Y62865D01*
Y62992D01*
X185522Y63119D01*
X185903D01*
X196799Y136982D02*
Y136220D01*
X196418D01*
X196291Y136347D01*
Y136855D01*
X196418Y136982D01*
X196799D01*
X195529Y136220D02*
X196037D01*
X195529Y136728D01*
Y136855D01*
X195656Y136982D01*
X195910D01*
X196037Y136855D01*
X195275Y136220D02*
X195021D01*
X195148D01*
Y136982D01*
X195275Y136855D01*
X175184Y81572D02*
X174422D01*
Y81191D01*
X174549Y81064D01*
X174803D01*
X174930Y81191D01*
Y81572D01*
Y81318D02*
X175184Y81064D01*
Y80810D02*
X174422D01*
Y80429D01*
X174549Y80302D01*
X174803D01*
X174930Y80429D01*
Y80810D01*
X175184Y80048D02*
Y79794D01*
Y79921D01*
X174422D01*
X174549Y80048D01*
Y79413D02*
X174422Y79286D01*
Y79032D01*
X174549Y78906D01*
X174676D01*
X174803Y79032D01*
Y79159D01*
Y79032D01*
X174930Y78906D01*
X175057D01*
X175184Y79032D01*
Y79286D01*
X175057Y79413D01*
X175285Y70878D02*
X174524D01*
Y70497D01*
X174650Y70370D01*
X174904D01*
X175031Y70497D01*
Y70878D01*
Y70624D02*
X175285Y70370D01*
Y70117D02*
X174524D01*
Y69736D01*
X174650Y69609D01*
X174904D01*
X175031Y69736D01*
Y70117D01*
X175285Y69355D02*
Y69101D01*
Y69228D01*
X174524D01*
X174650Y69355D01*
X175285Y68720D02*
Y68466D01*
Y68593D01*
X174524D01*
X174650Y68720D01*
X153390Y89459D02*
X152882D01*
X153136D01*
Y88697D01*
X152628D02*
Y89459D01*
X152248D01*
X152121Y89332D01*
Y89078D01*
X152248Y88951D01*
X152628D01*
X151867Y89332D02*
X151740Y89459D01*
X151486D01*
X151359Y89332D01*
Y89205D01*
X151486Y89078D01*
X151613D01*
X151486D01*
X151359Y88951D01*
Y88824D01*
X151486Y88697D01*
X151740D01*
X151867Y88824D01*
X151105Y89332D02*
X150978Y89459D01*
X150724D01*
X150597Y89332D01*
Y89205D01*
X150724Y89078D01*
X150597Y88951D01*
Y88824D01*
X150724Y88697D01*
X150978D01*
X151105Y88824D01*
Y88951D01*
X150978Y89078D01*
X151105Y89205D01*
Y89332D01*
X150978Y89078D02*
X150724D01*
X146431Y86538D02*
X145923D01*
X146177D01*
Y85776D01*
X145669D02*
Y86538D01*
X145288D01*
X145161Y86411D01*
Y86157D01*
X145288Y86030D01*
X145669D01*
X144907Y86411D02*
X144780Y86538D01*
X144526D01*
X144399Y86411D01*
Y86284D01*
X144526Y86157D01*
X144653D01*
X144526D01*
X144399Y86030D01*
Y85903D01*
X144526Y85776D01*
X144780D01*
X144907Y85903D01*
X144145Y86538D02*
X143637D01*
Y86411D01*
X144145Y85903D01*
Y85776D01*
X156768Y91999D02*
X156261D01*
X156514D01*
Y91237D01*
X156007D02*
Y91999D01*
X155626D01*
X155499Y91872D01*
Y91618D01*
X155626Y91491D01*
X156007D01*
X155245Y91872D02*
X155118Y91999D01*
X154864D01*
X154737Y91872D01*
Y91745D01*
X154864Y91618D01*
X154991D01*
X154864D01*
X154737Y91491D01*
Y91364D01*
X154864Y91237D01*
X155118D01*
X155245Y91364D01*
X153975Y91999D02*
X154229Y91872D01*
X154483Y91618D01*
Y91364D01*
X154356Y91237D01*
X154102D01*
X153975Y91364D01*
Y91491D01*
X154102Y91618D01*
X154483D01*
X189407Y79146D02*
X188900D01*
X189153D01*
Y78385D01*
X188646D02*
Y79146D01*
X188265D01*
X188138Y79019D01*
Y78765D01*
X188265Y78638D01*
X188646D01*
X187884Y79019D02*
X187757Y79146D01*
X187503D01*
X187376Y79019D01*
Y78892D01*
X187503Y78765D01*
X187630D01*
X187503D01*
X187376Y78638D01*
Y78511D01*
X187503Y78385D01*
X187757D01*
X187884Y78511D01*
X186614Y79146D02*
X187122D01*
Y78765D01*
X186868Y78892D01*
X186741D01*
X186614Y78765D01*
Y78511D01*
X186741Y78385D01*
X186995D01*
X187122Y78511D01*
X180289Y114097D02*
X179781D01*
X180035D01*
Y113335D01*
X179527D02*
Y114097D01*
X179147D01*
X179020Y113970D01*
Y113716D01*
X179147Y113589D01*
X179527D01*
X178766Y113970D02*
X178639Y114097D01*
X178385D01*
X178258Y113970D01*
Y113843D01*
X178385Y113716D01*
X178512D01*
X178385D01*
X178258Y113589D01*
Y113462D01*
X178385Y113335D01*
X178639D01*
X178766Y113462D01*
X178004Y113970D02*
X177877Y114097D01*
X177623D01*
X177496Y113970D01*
Y113843D01*
X177623Y113716D01*
X177750D01*
X177623D01*
X177496Y113589D01*
Y113462D01*
X177623Y113335D01*
X177877D01*
X178004Y113462D01*
X161086Y107899D02*
X160579D01*
X160832D01*
Y107137D01*
X160325D02*
Y107899D01*
X159944D01*
X159817Y107772D01*
Y107518D01*
X159944Y107391D01*
X160325D01*
X159563Y107772D02*
X159436Y107899D01*
X159182D01*
X159055Y107772D01*
Y107645D01*
X159182Y107518D01*
X159309D01*
X159182D01*
X159055Y107391D01*
Y107264D01*
X159182Y107137D01*
X159436D01*
X159563Y107264D01*
X158293Y107137D02*
X158801D01*
X158293Y107645D01*
Y107772D01*
X158420Y107899D01*
X158674D01*
X158801Y107772D01*
X158267Y99949D02*
X157760D01*
X158013D01*
Y99187D01*
X157506D02*
Y99949D01*
X157125D01*
X156998Y99822D01*
Y99568D01*
X157125Y99441D01*
X157506D01*
X156744Y99822D02*
X156617Y99949D01*
X156363D01*
X156236Y99822D01*
Y99695D01*
X156363Y99568D01*
X156490D01*
X156363D01*
X156236Y99441D01*
Y99314D01*
X156363Y99187D01*
X156617D01*
X156744Y99314D01*
X155982Y99187D02*
X155728D01*
X155855D01*
Y99949D01*
X155982Y99822D01*
X141782Y99288D02*
X141275D01*
X141528D01*
Y98527D01*
X141021D02*
Y99288D01*
X140640D01*
X140513Y99162D01*
Y98908D01*
X140640Y98781D01*
X141021D01*
X140259Y99162D02*
X140132Y99288D01*
X139878D01*
X139751Y99162D01*
Y99035D01*
X139878Y98908D01*
X140005D01*
X139878D01*
X139751Y98781D01*
Y98654D01*
X139878Y98527D01*
X140132D01*
X140259Y98654D01*
X139497Y99162D02*
X139370Y99288D01*
X139116D01*
X138989Y99162D01*
Y98654D01*
X139116Y98527D01*
X139370D01*
X139497Y98654D01*
Y99162D01*
X141300Y113258D02*
X140792D01*
X141046D01*
Y112497D01*
X140538D02*
Y113258D01*
X140157D01*
X140030Y113132D01*
Y112878D01*
X140157Y112751D01*
X140538D01*
X139268Y112497D02*
X139776D01*
X139268Y113005D01*
Y113132D01*
X139395Y113258D01*
X139649D01*
X139776Y113132D01*
X139014Y112624D02*
X138888Y112497D01*
X138634D01*
X138507Y112624D01*
Y113132D01*
X138634Y113258D01*
X138888D01*
X139014Y113132D01*
Y113005D01*
X138888Y112878D01*
X138507D01*
X165150Y103022D02*
X164643D01*
X164896D01*
Y102261D01*
X164389D02*
Y103022D01*
X164008D01*
X163881Y102895D01*
Y102641D01*
X164008Y102514D01*
X164389D01*
X163119Y102261D02*
X163627D01*
X163119Y102768D01*
Y102895D01*
X163246Y103022D01*
X163500D01*
X163627Y102895D01*
X162865Y103022D02*
X162357D01*
Y102895D01*
X162865Y102387D01*
Y102261D01*
X152395Y123545D02*
X151887D01*
X152141D01*
Y122784D01*
X151633D02*
Y123545D01*
X151252D01*
X151125Y123419D01*
Y123165D01*
X151252Y123038D01*
X151633D01*
X150364Y122784D02*
X150872D01*
X150364Y123292D01*
Y123419D01*
X150491Y123545D01*
X150745D01*
X150872Y123419D01*
X150110D02*
X149983Y123545D01*
X149729D01*
X149602Y123419D01*
Y123292D01*
X149729Y123165D01*
X149856D01*
X149729D01*
X149602Y123038D01*
Y122911D01*
X149729Y122784D01*
X149983D01*
X150110Y122911D01*
X145846Y119558D02*
X145339D01*
X145592D01*
Y118796D01*
X145085D02*
Y119558D01*
X144704D01*
X144577Y119431D01*
Y119177D01*
X144704Y119050D01*
X145085D01*
X143815Y118796D02*
X144323D01*
X143815Y119304D01*
Y119431D01*
X143942Y119558D01*
X144196D01*
X144323Y119431D01*
X143053Y118796D02*
X143561D01*
X143053Y119304D01*
Y119431D01*
X143180Y119558D01*
X143434D01*
X143561Y119431D01*
X155905Y125730D02*
X155397D01*
X155651D01*
Y124968D01*
X155143D02*
Y125730D01*
X154763D01*
X154636Y125603D01*
Y125349D01*
X154763Y125222D01*
X155143D01*
X153874Y124968D02*
X154382D01*
X153874Y125476D01*
Y125603D01*
X154001Y125730D01*
X154255D01*
X154382Y125603D01*
X153620Y124968D02*
X153366D01*
X153493D01*
Y125730D01*
X153620Y125603D01*
X187706Y114097D02*
X187198D01*
X187452D01*
Y113335D01*
X186944D02*
Y114097D01*
X186563D01*
X186436Y113970D01*
Y113716D01*
X186563Y113589D01*
X186944D01*
X185675Y113335D02*
X186182D01*
X185675Y113843D01*
Y113970D01*
X185802Y114097D01*
X186056D01*
X186182Y113970D01*
X185421D02*
X185294Y114097D01*
X185040D01*
X184913Y113970D01*
Y113462D01*
X185040Y113335D01*
X185294D01*
X185421Y113462D01*
Y113970D01*
X159804Y140589D02*
X159296D01*
X159550D01*
Y139827D01*
X159042D02*
Y140589D01*
X158661D01*
X158534Y140462D01*
Y140208D01*
X158661Y140081D01*
X159042D01*
X158280Y139827D02*
X158026D01*
X158153D01*
Y140589D01*
X158280Y140462D01*
X157645Y140589D02*
X157138D01*
Y140462D01*
X157645Y139954D01*
Y139827D01*
X158381Y132334D02*
X157873D01*
X158127D01*
Y131572D01*
X157620D02*
Y132334D01*
X157239D01*
X157112Y132207D01*
Y131953D01*
X157239Y131826D01*
X157620D01*
X156858Y131572D02*
X156604D01*
X156731D01*
Y132334D01*
X156858Y132207D01*
X155715Y132334D02*
X155969Y132207D01*
X156223Y131953D01*
Y131699D01*
X156096Y131572D01*
X155842D01*
X155715Y131699D01*
Y131826D01*
X155842Y131953D01*
X156223D01*
X142176Y146913D02*
X141668D01*
X141922D01*
Y146152D01*
X141414D02*
Y146913D01*
X141033D01*
X140906Y146787D01*
Y146533D01*
X141033Y146406D01*
X141414D01*
X140653Y146152D02*
X140399D01*
X140526D01*
Y146913D01*
X140653Y146787D01*
X139510Y146913D02*
X140018D01*
Y146533D01*
X139764Y146660D01*
X139637D01*
X139510Y146533D01*
Y146279D01*
X139637Y146152D01*
X139891D01*
X140018Y146279D01*
X164960Y147320D02*
X164452D01*
X164706D01*
Y146558D01*
X164198D02*
Y147320D01*
X163817D01*
X163690Y147193D01*
Y146939D01*
X163817Y146812D01*
X164198D01*
X163436Y146558D02*
X163182D01*
X163309D01*
Y147320D01*
X163436Y147193D01*
X162421Y146558D02*
Y147320D01*
X162802Y146939D01*
X162294D01*
X164350Y135382D02*
X163842D01*
X164096D01*
Y134620D01*
X163589D02*
Y135382D01*
X163208D01*
X163081Y135255D01*
Y135001D01*
X163208Y134874D01*
X163589D01*
X162827Y134620D02*
X162573D01*
X162700D01*
Y135382D01*
X162827Y135255D01*
X162192D02*
X162065Y135382D01*
X161811D01*
X161684Y135255D01*
Y135128D01*
X161811Y135001D01*
X161938D01*
X161811D01*
X161684Y134874D01*
Y134747D01*
X161811Y134620D01*
X162065D01*
X162192Y134747D01*
X153822Y157200D02*
X153315D01*
X153568D01*
Y156439D01*
X153061D02*
Y157200D01*
X152680D01*
X152553Y157073D01*
Y156819D01*
X152680Y156693D01*
X153061D01*
X152299Y156439D02*
X152045D01*
X152172D01*
Y157200D01*
X152299Y157073D01*
X151664D02*
X151537Y157200D01*
X151283D01*
X151156Y157073D01*
Y156566D01*
X151283Y156439D01*
X151537D01*
X151664Y156566D01*
Y157073D01*
X157581Y158623D02*
X157073D01*
X157327D01*
Y157861D01*
X156820D02*
Y158623D01*
X156439D01*
X156312Y158496D01*
Y158242D01*
X156439Y158115D01*
X156820D01*
X156058Y157988D02*
X155931Y157861D01*
X155677D01*
X155550Y157988D01*
Y158496D01*
X155677Y158623D01*
X155931D01*
X156058Y158496D01*
Y158369D01*
X155931Y158242D01*
X155550D01*
X187096Y145847D02*
X186589D01*
X186842D01*
Y145085D01*
X186335D02*
Y145847D01*
X185954D01*
X185827Y145720D01*
Y145466D01*
X185954Y145339D01*
X186335D01*
X185573Y145847D02*
X185065D01*
Y145720D01*
X185573Y145212D01*
Y145085D01*
X177342Y145161D02*
X176835D01*
X177089D01*
Y144399D01*
X176581D02*
Y145161D01*
X176200D01*
X176073Y145034D01*
Y144780D01*
X176200Y144653D01*
X176581D01*
X175311Y145161D02*
X175565Y145034D01*
X175819Y144780D01*
Y144526D01*
X175692Y144399D01*
X175438D01*
X175311Y144526D01*
Y144653D01*
X175438Y144780D01*
X175819D01*
X144500Y131927D02*
X143992D01*
X144246D01*
Y131166D01*
X143739D02*
Y131927D01*
X143358D01*
X143231Y131801D01*
Y131547D01*
X143358Y131420D01*
X143739D01*
X142977Y131801D02*
X142850Y131927D01*
X142596D01*
X142469Y131801D01*
Y131674D01*
X142596Y131547D01*
X142723D01*
X142596D01*
X142469Y131420D01*
Y131293D01*
X142596Y131166D01*
X142850D01*
X142977Y131293D01*
X208661Y129947D02*
Y130708D01*
X208280D01*
X208153Y130581D01*
Y130327D01*
X208280Y130200D01*
X208661D01*
X208407D02*
X208153Y129947D01*
X207899Y130073D02*
X207772Y129947D01*
X207518D01*
X207391Y130073D01*
Y130581D01*
X207518Y130708D01*
X207772D01*
X207899Y130581D01*
Y130454D01*
X207772Y130327D01*
X207391D01*
X206756Y129947D02*
Y130708D01*
X207137Y130327D01*
X206629D01*
X208483Y126111D02*
Y126873D01*
X208102D01*
X207975Y126746D01*
Y126492D01*
X208102Y126365D01*
X208483D01*
X208229D02*
X207975Y126111D01*
X207721Y126238D02*
X207594Y126111D01*
X207340D01*
X207213Y126238D01*
Y126746D01*
X207340Y126873D01*
X207594D01*
X207721Y126746D01*
Y126619D01*
X207594Y126492D01*
X207213D01*
X206959Y126746D02*
X206832Y126873D01*
X206578D01*
X206452Y126746D01*
Y126619D01*
X206578Y126492D01*
X206705D01*
X206578D01*
X206452Y126365D01*
Y126238D01*
X206578Y126111D01*
X206832D01*
X206959Y126238D01*
X208534Y122225D02*
Y122987D01*
X208153D01*
X208026Y122860D01*
Y122606D01*
X208153Y122479D01*
X208534D01*
X208280D02*
X208026Y122225D01*
X207772Y122352D02*
X207645Y122225D01*
X207391D01*
X207264Y122352D01*
Y122860D01*
X207391Y122987D01*
X207645D01*
X207772Y122860D01*
Y122733D01*
X207645Y122606D01*
X207264D01*
X206502Y122225D02*
X207010D01*
X206502Y122733D01*
Y122860D01*
X206629Y122987D01*
X206883D01*
X207010Y122860D01*
X211303Y145898D02*
X212064D01*
Y146279D01*
X211938Y146406D01*
X211684D01*
X211557Y146279D01*
Y145898D01*
Y146152D02*
X211303Y146406D01*
X211938Y146660D02*
X212064Y146787D01*
Y147041D01*
X211938Y147168D01*
X211811D01*
X211684Y147041D01*
X211557Y147168D01*
X211430D01*
X211303Y147041D01*
Y146787D01*
X211430Y146660D01*
X211557D01*
X211684Y146787D01*
X211811Y146660D01*
X211938D01*
X211684Y146787D02*
Y147041D01*
X211303Y147802D02*
X212064D01*
X211684Y147421D01*
Y147929D01*
X211328Y150216D02*
X212090D01*
Y150597D01*
X211963Y150724D01*
X211709D01*
X211582Y150597D01*
Y150216D01*
Y150470D02*
X211328Y150724D01*
X211963Y150978D02*
X212090Y151105D01*
Y151359D01*
X211963Y151486D01*
X211836D01*
X211709Y151359D01*
X211582Y151486D01*
X211455D01*
X211328Y151359D01*
Y151105D01*
X211455Y150978D01*
X211582D01*
X211709Y151105D01*
X211836Y150978D01*
X211963D01*
X211709Y151105D02*
Y151359D01*
X211963Y151739D02*
X212090Y151866D01*
Y152120D01*
X211963Y152247D01*
X211836D01*
X211709Y152120D01*
Y151993D01*
Y152120D01*
X211582Y152247D01*
X211455D01*
X211328Y152120D01*
Y151866D01*
X211455Y151739D01*
X149860Y67056D02*
X149098D01*
Y66675D01*
X149225Y66548D01*
X149479D01*
X149606Y66675D01*
Y67056D01*
Y66802D02*
X149860Y66548D01*
X149098Y66294D02*
Y65786D01*
X149225D01*
X149733Y66294D01*
X149860D01*
X149225Y65532D02*
X149098Y65405D01*
Y65151D01*
X149225Y65024D01*
X149352D01*
X149479Y65151D01*
X149606Y65024D01*
X149733D01*
X149860Y65151D01*
Y65405D01*
X149733Y65532D01*
X149606D01*
X149479Y65405D01*
X149352Y65532D01*
X149225D01*
X149479Y65405D02*
Y65151D01*
X179858Y79604D02*
X180619D01*
Y79985D01*
X180492Y80112D01*
X180238D01*
X180111Y79985D01*
Y79604D01*
Y79858D02*
X179858Y80112D01*
X180619Y80366D02*
Y80874D01*
X180492D01*
X179984Y80366D01*
X179858D01*
X180619Y81127D02*
Y81635D01*
X180492D01*
X179984Y81127D01*
X179858D01*
X167817Y86335D02*
Y87096D01*
X167437D01*
X167310Y86970D01*
Y86716D01*
X167437Y86589D01*
X167817D01*
X167564D02*
X167310Y86335D01*
X166548Y87096D02*
X166802Y86970D01*
X167056Y86716D01*
Y86462D01*
X166929Y86335D01*
X166675D01*
X166548Y86462D01*
Y86589D01*
X166675Y86716D01*
X167056D01*
X166294Y86970D02*
X166167Y87096D01*
X165913D01*
X165786Y86970D01*
Y86462D01*
X165913Y86335D01*
X166167D01*
X166294Y86462D01*
Y86970D01*
X167944Y92380D02*
Y93142D01*
X167564D01*
X167437Y93015D01*
Y92761D01*
X167564Y92634D01*
X167944D01*
X167691D02*
X167437Y92380D01*
X166675Y93142D02*
X167183D01*
Y92761D01*
X166929Y92888D01*
X166802D01*
X166675Y92761D01*
Y92507D01*
X166802Y92380D01*
X167056D01*
X167183Y92507D01*
X165913Y93142D02*
X166167Y93015D01*
X166421Y92761D01*
Y92507D01*
X166294Y92380D01*
X166040D01*
X165913Y92507D01*
Y92634D01*
X166040Y92761D01*
X166421D01*
X179578Y106045D02*
X180340D01*
Y106426D01*
X180213Y106553D01*
X179959D01*
X179832Y106426D01*
Y106045D01*
Y106299D02*
X179578Y106553D01*
X180340Y107315D02*
Y106807D01*
X179959D01*
X180086Y107061D01*
Y107188D01*
X179959Y107315D01*
X179705D01*
X179578Y107188D01*
Y106934D01*
X179705Y106807D01*
X180213Y107569D02*
X180340Y107696D01*
Y107950D01*
X180213Y108077D01*
X180086D01*
X179959Y107950D01*
Y107823D01*
Y107950D01*
X179832Y108077D01*
X179705D01*
X179578Y107950D01*
Y107696D01*
X179705Y107569D01*
X150926Y99898D02*
Y100660D01*
X150546D01*
X150419Y100533D01*
Y100279D01*
X150546Y100152D01*
X150926D01*
X150673D02*
X150419Y99898D01*
X149657Y100660D02*
X150165D01*
Y100279D01*
X149911Y100406D01*
X149784D01*
X149657Y100279D01*
Y100025D01*
X149784Y99898D01*
X150038D01*
X150165Y100025D01*
X148895Y99898D02*
X149403D01*
X148895Y100406D01*
Y100533D01*
X149022Y100660D01*
X149276D01*
X149403Y100533D01*
X179731Y114275D02*
X180492D01*
Y114656D01*
X180365Y114783D01*
X180111D01*
X179984Y114656D01*
Y114275D01*
Y114529D02*
X179731Y114783D01*
X180492Y115544D02*
Y115037D01*
X180111D01*
X180238Y115291D01*
Y115418D01*
X180111Y115544D01*
X179857D01*
X179731Y115418D01*
Y115164D01*
X179857Y115037D01*
X179731Y115798D02*
Y116052D01*
Y115925D01*
X180492D01*
X180365Y115798D01*
X167589Y110871D02*
Y111633D01*
X167208D01*
X167081Y111506D01*
Y111252D01*
X167208Y111125D01*
X167589D01*
X167335D02*
X167081Y110871D01*
X166319Y111633D02*
X166827D01*
Y111252D01*
X166573Y111379D01*
X166446D01*
X166319Y111252D01*
Y110998D01*
X166446Y110871D01*
X166700D01*
X166827Y110998D01*
X166065Y111506D02*
X165938Y111633D01*
X165684D01*
X165558Y111506D01*
Y110998D01*
X165684Y110871D01*
X165938D01*
X166065Y110998D01*
Y111506D01*
X183541Y106071D02*
X184302D01*
Y106452D01*
X184175Y106579D01*
X183921D01*
X183794Y106452D01*
Y106071D01*
Y106325D02*
X183541Y106579D01*
Y107213D02*
X184302D01*
X183921Y106832D01*
Y107340D01*
X183667Y107594D02*
X183541Y107721D01*
Y107975D01*
X183667Y108102D01*
X184175D01*
X184302Y107975D01*
Y107721D01*
X184175Y107594D01*
X184048D01*
X183921Y107721D01*
Y108102D01*
X167563Y105563D02*
Y106324D01*
X167183D01*
X167056Y106197D01*
Y105943D01*
X167183Y105816D01*
X167563D01*
X167310D02*
X167056Y105563D01*
X166421D02*
Y106324D01*
X166802Y105943D01*
X166294D01*
X166040Y106324D02*
X165532D01*
Y106197D01*
X166040Y105689D01*
Y105563D01*
X183414Y114173D02*
X184175D01*
Y114554D01*
X184048Y114681D01*
X183794D01*
X183667Y114554D01*
Y114173D01*
Y114427D02*
X183414Y114681D01*
Y115316D02*
X184175D01*
X183794Y114935D01*
Y115443D01*
X184175Y116205D02*
X184048Y115951D01*
X183794Y115697D01*
X183540D01*
X183414Y115824D01*
Y116078D01*
X183540Y116205D01*
X183667D01*
X183794Y116078D01*
Y115697D01*
X167894Y99848D02*
Y100609D01*
X167513D01*
X167386Y100482D01*
Y100228D01*
X167513Y100101D01*
X167894D01*
X167640D02*
X167386Y99848D01*
X166751D02*
Y100609D01*
X167132Y100228D01*
X166624D01*
X166370Y100482D02*
X166243Y100609D01*
X165989D01*
X165862Y100482D01*
Y100355D01*
X165989Y100228D01*
X166116D01*
X165989D01*
X165862Y100101D01*
Y99974D01*
X165989Y99848D01*
X166243D01*
X166370Y99974D01*
X167513Y116383D02*
Y117145D01*
X167132D01*
X167005Y117018D01*
Y116764D01*
X167132Y116637D01*
X167513D01*
X167259D02*
X167005Y116383D01*
X166370D02*
Y117145D01*
X166751Y116764D01*
X166243D01*
X165989Y116383D02*
X165735D01*
X165862D01*
Y117145D01*
X165989Y117018D01*
X167462Y126949D02*
Y127711D01*
X167081D01*
X166954Y127584D01*
Y127330D01*
X167081Y127203D01*
X167462D01*
X167208D02*
X166954Y126949D01*
X166700Y127584D02*
X166573Y127711D01*
X166319D01*
X166192Y127584D01*
Y127457D01*
X166319Y127330D01*
X166446D01*
X166319D01*
X166192Y127203D01*
Y127076D01*
X166319Y126949D01*
X166573D01*
X166700Y127076D01*
X165557Y126949D02*
Y127711D01*
X165938Y127330D01*
X165431D01*
X167513Y121742D02*
Y122504D01*
X167132D01*
X167005Y122377D01*
Y122123D01*
X167132Y121996D01*
X167513D01*
X167259D02*
X167005Y121742D01*
X166243D02*
X166751D01*
X166243Y122250D01*
Y122377D01*
X166370Y122504D01*
X166624D01*
X166751Y122377D01*
X165989Y121869D02*
X165862Y121742D01*
X165608D01*
X165481Y121869D01*
Y122377D01*
X165608Y122504D01*
X165862D01*
X165989Y122377D01*
Y122250D01*
X165862Y122123D01*
X165481D01*
X179527Y137745D02*
X180289D01*
Y138125D01*
X180162Y138252D01*
X179908D01*
X179781Y138125D01*
Y137745D01*
Y137998D02*
X179527Y138252D01*
Y139014D02*
Y138506D01*
X180035Y139014D01*
X180162D01*
X180289Y138887D01*
Y138633D01*
X180162Y138506D01*
X180289Y139776D02*
X180162Y139522D01*
X179908Y139268D01*
X179654D01*
X179527Y139395D01*
Y139649D01*
X179654Y139776D01*
X179781D01*
X179908Y139649D01*
Y139268D01*
X151282Y132868D02*
Y133629D01*
X150901D01*
X150774Y133502D01*
Y133248D01*
X150901Y133121D01*
X151282D01*
X151028D02*
X150774Y132868D01*
X150012D02*
X150520D01*
X150012Y133375D01*
Y133502D01*
X150139Y133629D01*
X150393D01*
X150520Y133502D01*
X149251Y133629D02*
X149759D01*
Y133248D01*
X149505Y133375D01*
X149378D01*
X149251Y133248D01*
Y132994D01*
X149378Y132868D01*
X149632D01*
X149759Y132994D01*
X179553Y145873D02*
X180314D01*
Y146253D01*
X180188Y146380D01*
X179934D01*
X179807Y146253D01*
Y145873D01*
Y146126D02*
X179553Y146380D01*
Y147142D02*
Y146634D01*
X180061Y147142D01*
X180188D01*
X180314Y147015D01*
Y146761D01*
X180188Y146634D01*
X179553Y147777D02*
X180314D01*
X179934Y147396D01*
Y147904D01*
X167411Y142875D02*
Y143637D01*
X167030D01*
X166903Y143510D01*
Y143256D01*
X167030Y143129D01*
X167411D01*
X167157D02*
X166903Y142875D01*
X166141D02*
X166649D01*
X166141Y143383D01*
Y143510D01*
X166268Y143637D01*
X166522D01*
X166649Y143510D01*
X165888D02*
X165761Y143637D01*
X165507D01*
X165380Y143510D01*
Y143383D01*
X165507Y143256D01*
X165634D01*
X165507D01*
X165380Y143129D01*
Y143002D01*
X165507Y142875D01*
X165761D01*
X165888Y143002D01*
X183388Y137922D02*
X184150D01*
Y138303D01*
X184023Y138430D01*
X183769D01*
X183642Y138303D01*
Y137922D01*
Y138176D02*
X183388Y138430D01*
Y139192D02*
Y138684D01*
X183896Y139192D01*
X184023D01*
X184150Y139065D01*
Y138811D01*
X184023Y138684D01*
X183388Y139954D02*
Y139446D01*
X183896Y139954D01*
X184023D01*
X184150Y139827D01*
Y139573D01*
X184023Y139446D01*
X183439Y145936D02*
X184201D01*
Y146317D01*
X184074Y146444D01*
X183820D01*
X183693Y146317D01*
Y145936D01*
Y146190D02*
X183439Y146444D01*
Y146698D02*
Y146952D01*
Y146825D01*
X184201D01*
X184074Y146698D01*
X183566Y147333D02*
X183439Y147460D01*
Y147713D01*
X183566Y147840D01*
X184074D01*
X184201Y147713D01*
Y147460D01*
X184074Y147333D01*
X183947D01*
X183820Y147460D01*
Y147840D01*
X167500Y131852D02*
Y132613D01*
X167119D01*
X166992Y132486D01*
Y132232D01*
X167119Y132105D01*
X167500D01*
X167246D02*
X166992Y131852D01*
X166738D02*
X166484D01*
X166611D01*
Y132613D01*
X166738Y132486D01*
X165596Y132613D02*
X165850Y132486D01*
X166103Y132232D01*
Y131978D01*
X165976Y131852D01*
X165723D01*
X165596Y131978D01*
Y132105D01*
X165723Y132232D01*
X166103D01*
X167398Y148260D02*
Y149022D01*
X167018D01*
X166891Y148895D01*
Y148641D01*
X167018Y148514D01*
X167398D01*
X167144D02*
X166891Y148260D01*
X166637D02*
X166383D01*
X166510D01*
Y149022D01*
X166637Y148895D01*
X165621Y148260D02*
Y149022D01*
X166002Y148641D01*
X165494D01*
X166929Y153315D02*
Y154076D01*
X166548D01*
X166421Y153949D01*
Y153695D01*
X166548Y153568D01*
X166929D01*
X166675D02*
X166421Y153315D01*
X165659D02*
X166167D01*
X165659Y153822D01*
Y153949D01*
X165786Y154076D01*
X166040D01*
X166167Y153949D01*
X198374Y125476D02*
X199136D01*
Y125857D01*
X199009Y125984D01*
X198755D01*
X198628Y125857D01*
Y125476D01*
X199009Y126238D02*
X199136Y126365D01*
Y126619D01*
X199009Y126746D01*
X198882D01*
X198755Y126619D01*
X198628Y126746D01*
X198501D01*
X198374Y126619D01*
Y126365D01*
X198501Y126238D01*
X198628D01*
X198755Y126365D01*
X198882Y126238D01*
X199009D01*
X198755Y126365D02*
Y126619D01*
X198095Y146330D02*
X198856D01*
Y146710D01*
X198730Y146837D01*
X198476D01*
X198349Y146710D01*
Y146330D01*
X198856Y147091D02*
Y147599D01*
X198730D01*
X198222Y147091D01*
X198095D01*
X186715Y83312D02*
Y84074D01*
X186334D01*
X186207Y83947D01*
Y83693D01*
X186334Y83566D01*
X186715D01*
X185446Y84074D02*
X185953D01*
Y83693D01*
X185700Y83820D01*
X185573D01*
X185446Y83693D01*
Y83439D01*
X185573Y83312D01*
X185826D01*
X185953Y83439D01*
X186715Y96927D02*
Y97688D01*
X186334D01*
X186207Y97561D01*
Y97307D01*
X186334Y97180D01*
X186715D01*
X185573Y96927D02*
Y97688D01*
X185953Y97307D01*
X185446D01*
X186563Y118694D02*
Y119456D01*
X186182D01*
X186055Y119329D01*
Y119075D01*
X186182Y118948D01*
X186563D01*
X185801Y119329D02*
X185674Y119456D01*
X185420D01*
X185293Y119329D01*
Y119202D01*
X185420Y119075D01*
X185547D01*
X185420D01*
X185293Y118948D01*
Y118821D01*
X185420Y118694D01*
X185674D01*
X185801Y118821D01*
X186537Y128651D02*
Y129413D01*
X186157D01*
X186030Y129286D01*
Y129032D01*
X186157Y128905D01*
X186537D01*
X185268Y128651D02*
X185776D01*
X185268Y129159D01*
Y129286D01*
X185395Y129413D01*
X185649D01*
X185776Y129286D01*
X186055Y150038D02*
Y150800D01*
X185674D01*
X185547Y150673D01*
Y150419D01*
X185674Y150292D01*
X186055D01*
X185293Y150038D02*
X185039D01*
X185166D01*
Y150800D01*
X185293Y150673D01*
X213842Y130683D02*
X213969Y130810D01*
X214223D01*
X214350Y130683D01*
Y130175D01*
X214223Y130048D01*
X213969D01*
X213842Y130175D01*
X213589Y130683D02*
X213462Y130810D01*
X213208D01*
X213081Y130683D01*
Y130556D01*
X213208Y130429D01*
X213335D01*
X213208D01*
X213081Y130302D01*
Y130175D01*
X213208Y130048D01*
X213462D01*
X213589Y130175D01*
X212827Y130683D02*
X212700Y130810D01*
X212446D01*
X212319Y130683D01*
Y130175D01*
X212446Y130048D01*
X212700D01*
X212827Y130175D01*
Y130683D01*
X214122Y127254D02*
X214249Y127381D01*
X214503D01*
X214630Y127254D01*
Y126746D01*
X214503Y126619D01*
X214249D01*
X214122Y126746D01*
X213360Y126619D02*
X213868D01*
X213360Y127127D01*
Y127254D01*
X213487Y127381D01*
X213741D01*
X213868Y127254D01*
X213106Y126746D02*
X212979Y126619D01*
X212725D01*
X212598Y126746D01*
Y127254D01*
X212725Y127381D01*
X212979D01*
X213106Y127254D01*
Y127127D01*
X212979Y127000D01*
X212598D01*
X214376Y122860D02*
X214503Y122987D01*
X214757D01*
X214884Y122860D01*
Y122352D01*
X214757Y122225D01*
X214503D01*
X214376Y122352D01*
X213614Y122225D02*
X214122D01*
X213614Y122733D01*
Y122860D01*
X213741Y122987D01*
X213995D01*
X214122Y122860D01*
X213360D02*
X213233Y122987D01*
X212979D01*
X212852Y122860D01*
Y122733D01*
X212979Y122606D01*
X212852Y122479D01*
Y122352D01*
X212979Y122225D01*
X213233D01*
X213360Y122352D01*
Y122479D01*
X213233Y122606D01*
X213360Y122733D01*
Y122860D01*
X213233Y122606D02*
X212979D01*
X207619Y144323D02*
X207746Y144450D01*
X208000D01*
X208127Y144323D01*
Y143815D01*
X208000Y143688D01*
X207746D01*
X207619Y143815D01*
X206858Y143688D02*
X207366D01*
X206858Y144196D01*
Y144323D01*
X206985Y144450D01*
X207239D01*
X207366Y144323D01*
X206604Y144450D02*
X206096D01*
Y144323D01*
X206604Y143815D01*
Y143688D01*
X207645Y148006D02*
X207772Y148133D01*
X208026D01*
X208153Y148006D01*
Y147498D01*
X208026Y147371D01*
X207772D01*
X207645Y147498D01*
X206883Y147371D02*
X207391D01*
X206883Y147879D01*
Y148006D01*
X207010Y148133D01*
X207264D01*
X207391Y148006D01*
X206121Y148133D02*
X206375Y148006D01*
X206629Y147752D01*
Y147498D01*
X206502Y147371D01*
X206248D01*
X206121Y147498D01*
Y147625D01*
X206248Y147752D01*
X206629D01*
X207289Y152171D02*
X207416Y152298D01*
X207670D01*
X207797Y152171D01*
Y151663D01*
X207670Y151537D01*
X207416D01*
X207289Y151663D01*
X206527Y151537D02*
X207035D01*
X206527Y152044D01*
Y152171D01*
X206654Y152298D01*
X206908D01*
X207035Y152171D01*
X205766Y152298D02*
X206274D01*
Y151917D01*
X206020Y152044D01*
X205893D01*
X205766Y151917D01*
Y151663D01*
X205893Y151537D01*
X206147D01*
X206274Y151663D01*
X159918Y78511D02*
X160045Y78638D01*
X160299D01*
X160426Y78511D01*
Y78003D01*
X160299Y77877D01*
X160045D01*
X159918Y78003D01*
X159156Y77877D02*
X159664D01*
X159156Y78384D01*
Y78511D01*
X159283Y78638D01*
X159537D01*
X159664Y78511D01*
X158522Y77877D02*
Y78638D01*
X158903Y78257D01*
X158395D01*
X164897Y74955D02*
X165024Y75082D01*
X165278D01*
X165404Y74955D01*
Y74447D01*
X165278Y74321D01*
X165024D01*
X164897Y74447D01*
X164135Y74321D02*
X164643D01*
X164135Y74828D01*
Y74955D01*
X164262Y75082D01*
X164516D01*
X164643Y74955D01*
X163881D02*
X163754Y75082D01*
X163500D01*
X163373Y74955D01*
Y74828D01*
X163500Y74701D01*
X163627D01*
X163500D01*
X163373Y74574D01*
Y74447D01*
X163500Y74321D01*
X163754D01*
X163881Y74447D01*
X154940Y117170D02*
X155067Y117297D01*
X155321D01*
X155448Y117170D01*
Y116662D01*
X155321Y116535D01*
X155067D01*
X154940Y116662D01*
X154178Y116535D02*
X154686D01*
X154178Y117043D01*
Y117170D01*
X154305Y117297D01*
X154559D01*
X154686Y117170D01*
X153416Y116535D02*
X153924D01*
X153416Y117043D01*
Y117170D01*
X153543Y117297D01*
X153797D01*
X153924Y117170D01*
X148907Y90068D02*
X149034Y90195D01*
X149288D01*
X149415Y90068D01*
Y89560D01*
X149288Y89434D01*
X149034D01*
X148907Y89560D01*
X148653Y89434D02*
X148400D01*
X148526D01*
Y90195D01*
X148653Y90068D01*
X148019Y89560D02*
X147892Y89434D01*
X147638D01*
X147511Y89560D01*
Y90068D01*
X147638Y90195D01*
X147892D01*
X148019Y90068D01*
Y89941D01*
X147892Y89814D01*
X147511D01*
X158966Y113005D02*
X159093Y113131D01*
X159347D01*
X159474Y113005D01*
Y112497D01*
X159347Y112370D01*
X159093D01*
X158966Y112497D01*
X158712Y112370D02*
X158458D01*
X158585D01*
Y113131D01*
X158712Y113005D01*
X158077D02*
X157950Y113131D01*
X157696D01*
X157569Y113005D01*
Y112878D01*
X157696Y112751D01*
X157569Y112624D01*
Y112497D01*
X157696Y112370D01*
X157950D01*
X158077Y112497D01*
Y112624D01*
X157950Y112751D01*
X158077Y112878D01*
Y113005D01*
X157950Y112751D02*
X157696D01*
X163131Y109626D02*
X163258Y109753D01*
X163512D01*
X163639Y109626D01*
Y109118D01*
X163512Y108992D01*
X163258D01*
X163131Y109118D01*
X162877Y108992D02*
X162624D01*
X162750D01*
Y109753D01*
X162877Y109626D01*
X162243Y109753D02*
X161735D01*
Y109626D01*
X162243Y109118D01*
Y108992D01*
X147841Y122809D02*
X147968Y122936D01*
X148221D01*
X148348Y122809D01*
Y122301D01*
X148221Y122174D01*
X147968D01*
X147841Y122301D01*
X147587Y122174D02*
X147333D01*
X147460D01*
Y122936D01*
X147587Y122809D01*
X146952D02*
X146825Y122936D01*
X146571D01*
X146444Y122809D01*
Y122682D01*
X146571Y122555D01*
X146698D01*
X146571D01*
X146444Y122428D01*
Y122301D01*
X146571Y122174D01*
X146825D01*
X146952Y122301D01*
X160223Y144920D02*
X160096Y145047D01*
Y145300D01*
X160223Y145427D01*
X160731D01*
X160858Y145300D01*
Y145047D01*
X160731Y144920D01*
X160858Y144666D02*
Y144412D01*
Y144539D01*
X160096D01*
X160223Y144666D01*
Y144031D02*
X160096Y143904D01*
Y143650D01*
X160223Y143523D01*
X160731D01*
X160858Y143650D01*
Y143904D01*
X160731Y144031D01*
X160223D01*
X161823Y141224D02*
X161950Y141351D01*
X162204D01*
X162331Y141224D01*
Y140716D01*
X162204Y140589D01*
X161950D01*
X161823Y140716D01*
X161569D02*
X161442Y140589D01*
X161189D01*
X161062Y140716D01*
Y141224D01*
X161189Y141351D01*
X161442D01*
X161569Y141224D01*
Y141097D01*
X161442Y140970D01*
X161062D01*
X155626Y82347D02*
X155753Y82474D01*
X156007D01*
X156134Y82347D01*
Y81839D01*
X156007Y81712D01*
X155753D01*
X155626Y81839D01*
X155372Y82347D02*
X155245Y82474D01*
X154991D01*
X154864Y82347D01*
Y82220D01*
X154991Y82093D01*
X154864Y81966D01*
Y81839D01*
X154991Y81712D01*
X155245D01*
X155372Y81839D01*
Y81966D01*
X155245Y82093D01*
X155372Y82220D01*
Y82347D01*
X155245Y82093D02*
X154991D01*
X158153Y173635D02*
Y174396D01*
X157772D01*
X157645Y174269D01*
Y174015D01*
X157772Y173888D01*
X158153D01*
X157391Y173635D02*
X157137D01*
X157264D01*
Y174396D01*
X157391Y174269D01*
X156375Y173635D02*
Y174396D01*
X156756Y174015D01*
X156248D01*
X219316Y173457D02*
Y174218D01*
X218935D01*
X218808Y174092D01*
Y173838D01*
X218935Y173711D01*
X219316D01*
X218554Y173457D02*
X218300D01*
X218427D01*
Y174218D01*
X218554Y174092D01*
X217919D02*
X217792Y174218D01*
X217539D01*
X217412Y174092D01*
Y173965D01*
X217539Y173838D01*
X217666D01*
X217539D01*
X217412Y173711D01*
Y173584D01*
X217539Y173457D01*
X217792D01*
X217919Y173584D01*
X188684Y173279D02*
Y174041D01*
X188303D01*
X188176Y173914D01*
Y173660D01*
X188303Y173533D01*
X188684D01*
X187922Y173279D02*
X187668D01*
X187795D01*
Y174041D01*
X187922Y173914D01*
X186779Y173279D02*
X187287D01*
X186779Y173787D01*
Y173914D01*
X186906Y174041D01*
X187160D01*
X187287Y173914D01*
X127317Y173127D02*
Y173888D01*
X126936D01*
X126809Y173761D01*
Y173507D01*
X126936Y173380D01*
X127317D01*
X126555Y173127D02*
X126302D01*
X126429D01*
Y173888D01*
X126555Y173761D01*
X125921Y173127D02*
X125667D01*
X125794D01*
Y173888D01*
X125921Y173761D01*
X65824Y173355D02*
Y174117D01*
X65443D01*
X65316Y173990D01*
Y173736D01*
X65443Y173609D01*
X65824D01*
X65062Y173355D02*
X64808D01*
X64935D01*
Y174117D01*
X65062Y173990D01*
X64427D02*
X64300Y174117D01*
X64046D01*
X63919Y173990D01*
Y173482D01*
X64046Y173355D01*
X64300D01*
X64427Y173482D01*
Y173990D01*
X96723Y173177D02*
Y173939D01*
X96342D01*
X96215Y173812D01*
Y173558D01*
X96342Y173431D01*
X96723D01*
X95961Y173304D02*
X95834Y173177D01*
X95580D01*
X95453Y173304D01*
Y173812D01*
X95580Y173939D01*
X95834D01*
X95961Y173812D01*
Y173685D01*
X95834Y173558D01*
X95453D01*
X176454Y169392D02*
X177216D01*
X176835D01*
Y168884D01*
X176454D01*
X177216D01*
X176581Y168123D02*
X176454Y168250D01*
Y168504D01*
X176581Y168631D01*
X176708D01*
X176835Y168504D01*
Y168250D01*
X176962Y168123D01*
X177089D01*
X177216Y168250D01*
Y168504D01*
X177089Y168631D01*
X176454Y167361D02*
X176581Y167615D01*
X176835Y167869D01*
X177089D01*
X177216Y167742D01*
Y167488D01*
X177089Y167361D01*
X176962D01*
X176835Y167488D01*
Y167869D01*
X238405Y169494D02*
X239166D01*
X238785D01*
Y168986D01*
X238405D01*
X239166D01*
X238531Y168224D02*
X238405Y168351D01*
Y168605D01*
X238531Y168732D01*
X238658D01*
X238785Y168605D01*
Y168351D01*
X238912Y168224D01*
X239039D01*
X239166Y168351D01*
Y168605D01*
X239039Y168732D01*
X238405Y167463D02*
Y167970D01*
X238785D01*
X238658Y167716D01*
Y167589D01*
X238785Y167463D01*
X239039D01*
X239166Y167589D01*
Y167843D01*
X239039Y167970D01*
X206934Y168859D02*
X207696D01*
X207315D01*
Y168351D01*
X206934D01*
X207696D01*
X207061Y167589D02*
X206934Y167716D01*
Y167970D01*
X207061Y168097D01*
X207188D01*
X207315Y167970D01*
Y167716D01*
X207442Y167589D01*
X207569D01*
X207696Y167716D01*
Y167970D01*
X207569Y168097D01*
X207696Y166954D02*
X206934D01*
X207315Y167335D01*
Y166828D01*
X145923Y169418D02*
X146685D01*
X146304D01*
Y168910D01*
X145923D01*
X146685D01*
X146050Y168148D02*
X145923Y168275D01*
Y168529D01*
X146050Y168656D01*
X146177D01*
X146304Y168529D01*
Y168275D01*
X146431Y168148D01*
X146558D01*
X146685Y168275D01*
Y168529D01*
X146558Y168656D01*
X146050Y167894D02*
X145923Y167767D01*
Y167513D01*
X146050Y167386D01*
X146177D01*
X146304Y167513D01*
Y167640D01*
Y167513D01*
X146431Y167386D01*
X146558D01*
X146685Y167513D01*
Y167767D01*
X146558Y167894D01*
X85302Y170053D02*
X86064D01*
X85683D01*
Y169545D01*
X85302D01*
X86064D01*
X85429Y168783D02*
X85302Y168910D01*
Y169164D01*
X85429Y169291D01*
X85556D01*
X85683Y169164D01*
Y168910D01*
X85810Y168783D01*
X85937D01*
X86064Y168910D01*
Y169164D01*
X85937Y169291D01*
X86064Y168021D02*
Y168529D01*
X85556Y168021D01*
X85429D01*
X85302Y168148D01*
Y168402D01*
X85429Y168529D01*
X115697Y169773D02*
X116459D01*
X116078D01*
Y169265D01*
X115697D01*
X116459D01*
X115824Y168504D02*
X115697Y168631D01*
Y168885D01*
X115824Y169012D01*
X115951D01*
X116078Y168885D01*
Y168631D01*
X116205Y168504D01*
X116332D01*
X116459Y168631D01*
Y168885D01*
X116332Y169012D01*
X116459Y168250D02*
Y167996D01*
Y168123D01*
X115697D01*
X115824Y168250D01*
X120472Y73240D02*
Y72987D01*
Y73113D01*
X119837D01*
X119710Y72987D01*
Y72860D01*
X119837Y72733D01*
X119710Y73494D02*
Y73748D01*
Y73621D01*
X120472D01*
X120345Y73494D01*
Y74129D02*
X120472Y74256D01*
Y74510D01*
X120345Y74637D01*
X119837D01*
X119710Y74510D01*
Y74256D01*
X119837Y74129D01*
X120345D01*
X119964Y108000D02*
Y107747D01*
Y107873D01*
X119329D01*
X119202Y107747D01*
Y107620D01*
X119329Y107493D01*
Y108254D02*
X119202Y108381D01*
Y108635D01*
X119329Y108762D01*
X119837D01*
X119964Y108635D01*
Y108381D01*
X119837Y108254D01*
X119710D01*
X119583Y108381D01*
Y108762D01*
X119771Y142748D02*
Y142494D01*
Y142621D01*
X119137D01*
X119010Y142494D01*
Y142367D01*
X119137Y142240D01*
X119644Y143002D02*
X119771Y143129D01*
Y143382D01*
X119644Y143509D01*
X119518D01*
X119391Y143382D01*
X119264Y143509D01*
X119137D01*
X119010Y143382D01*
Y143129D01*
X119137Y143002D01*
X119264D01*
X119391Y143129D01*
X119518Y143002D01*
X119644D01*
X119391Y143129D02*
Y143382D01*
X96951Y147854D02*
Y148615D01*
X96571D01*
X96444Y148488D01*
Y148234D01*
X96571Y148107D01*
X96951D01*
X96698D02*
X96444Y147854D01*
X96190Y148488D02*
X96063Y148615D01*
X95809D01*
X95682Y148488D01*
Y148361D01*
X95809Y148234D01*
X95682Y148107D01*
Y147980D01*
X95809Y147854D01*
X96063D01*
X96190Y147980D01*
Y148107D01*
X96063Y148234D01*
X96190Y148361D01*
Y148488D01*
X96063Y148234D02*
X95809D01*
X95428Y148615D02*
X94920D01*
Y148488D01*
X95428Y147980D01*
Y147854D01*
X96494Y79147D02*
Y79908D01*
X96113D01*
X95986Y79781D01*
Y79527D01*
X96113Y79400D01*
X96494D01*
X96240D02*
X95986Y79147D01*
X95733Y79273D02*
X95606Y79147D01*
X95352D01*
X95225Y79273D01*
Y79781D01*
X95352Y79908D01*
X95606D01*
X95733Y79781D01*
Y79654D01*
X95606Y79527D01*
X95225D01*
X94971Y79273D02*
X94844Y79147D01*
X94590D01*
X94463Y79273D01*
Y79781D01*
X94590Y79908D01*
X94844D01*
X94971Y79781D01*
Y79654D01*
X94844Y79527D01*
X94463D01*
X109169Y76124D02*
X108661D01*
X108915D01*
Y75362D01*
X108407D02*
Y76124D01*
X108027D01*
X107900Y75997D01*
Y75743D01*
X108027Y75616D01*
X108407D01*
X107265Y75362D02*
Y76124D01*
X107646Y75743D01*
X107138D01*
X106884Y75362D02*
X106630D01*
X106757D01*
Y76124D01*
X106884Y75997D01*
X98272Y69240D02*
X97764D01*
X98018D01*
Y68479D01*
X97510D02*
Y69240D01*
X97130D01*
X97003Y69113D01*
Y68859D01*
X97130Y68732D01*
X97510D01*
X96368Y68479D02*
Y69240D01*
X96749Y68859D01*
X96241D01*
X95987Y69113D02*
X95860Y69240D01*
X95606D01*
X95479Y69113D01*
Y68605D01*
X95606Y68479D01*
X95860D01*
X95987Y68605D01*
Y69113D01*
X125526Y67005D02*
X125019D01*
X125272D01*
Y66243D01*
X124765D02*
Y67005D01*
X124384D01*
X124257Y66878D01*
Y66624D01*
X124384Y66497D01*
X124765D01*
X124003Y66878D02*
X123876Y67005D01*
X123622D01*
X123495Y66878D01*
Y66751D01*
X123622Y66624D01*
X123749D01*
X123622D01*
X123495Y66497D01*
Y66370D01*
X123622Y66243D01*
X123876D01*
X124003Y66370D01*
X123241D02*
X123114Y66243D01*
X122860D01*
X122733Y66370D01*
Y66878D01*
X122860Y67005D01*
X123114D01*
X123241Y66878D01*
Y66751D01*
X123114Y66624D01*
X122733D01*
X233693Y85827D02*
X233820Y85953D01*
X234073D01*
X234200Y85827D01*
Y85319D01*
X234073Y85192D01*
X233820D01*
X233693Y85319D01*
X233439Y85192D02*
X233185D01*
X233312D01*
Y85953D01*
X233439Y85827D01*
X232296Y85192D02*
X232804D01*
X232296Y85700D01*
Y85827D01*
X232423Y85953D01*
X232677D01*
X232804Y85827D01*
X220192Y114960D02*
Y114199D01*
X219685D01*
X219431Y114833D02*
X219304Y114960D01*
X219050D01*
X218923Y114833D01*
Y114706D01*
X219050Y114579D01*
X219177D01*
X219050D01*
X218923Y114452D01*
Y114325D01*
X219050Y114199D01*
X219304D01*
X219431Y114325D01*
X216078Y154076D02*
Y153315D01*
X215570D01*
X214808D02*
X215316D01*
X214808Y153822D01*
Y153949D01*
X214935Y154076D01*
X215189D01*
X215316Y153949D01*
X233807Y158369D02*
Y157607D01*
X233299D01*
X233045D02*
X232791D01*
X232918D01*
Y158369D01*
X233045Y158242D01*
X240385Y88621D02*
X240512Y88747D01*
X240766D01*
X240893Y88621D01*
Y88113D01*
X240766Y87986D01*
X240512D01*
X240385Y88113D01*
X240132Y87986D02*
Y88747D01*
X239751D01*
X239624Y88621D01*
Y88367D01*
X239751Y88240D01*
X240132D01*
X239878D02*
X239624Y87986D01*
X239370D02*
X239116D01*
X239243D01*
Y88747D01*
X239370Y88621D01*
X232981Y117881D02*
X233108Y118008D01*
X233362D01*
X233489Y117881D01*
Y117373D01*
X233362Y117247D01*
X233108D01*
X232981Y117373D01*
X232727Y117247D02*
X232474D01*
X232601D01*
Y118008D01*
X232727Y117881D01*
X232093Y117247D02*
X231839D01*
X231966D01*
Y118008D01*
X232093Y117881D01*
X232181Y132944D02*
X232308Y133070D01*
X232562D01*
X232689Y132944D01*
Y132436D01*
X232562Y132309D01*
X232308D01*
X232181Y132436D01*
X231927Y133070D02*
X231420D01*
Y132944D01*
X231927Y132436D01*
Y132309D01*
X232232Y148717D02*
X232359Y148844D01*
X232613D01*
X232740Y148717D01*
Y148209D01*
X232613Y148082D01*
X232359D01*
X232232Y148209D01*
X231470Y148844D02*
X231724Y148717D01*
X231978Y148463D01*
Y148209D01*
X231851Y148082D01*
X231597D01*
X231470Y148209D01*
Y148336D01*
X231597Y148463D01*
X231978D01*
X145516Y155651D02*
X145008D01*
X145262D01*
Y154889D01*
X144755D02*
Y155651D01*
X144374D01*
X144247Y155524D01*
Y155270D01*
X144374Y155143D01*
X144755D01*
X143993Y155524D02*
X143866Y155651D01*
X143612D01*
X143485Y155524D01*
Y155397D01*
X143612Y155270D01*
X143485Y155143D01*
Y155016D01*
X143612Y154889D01*
X143866D01*
X143993Y155016D01*
Y155143D01*
X143866Y155270D01*
X143993Y155397D01*
Y155524D01*
X143866Y155270D02*
X143612D01*
X242367Y121641D02*
X241732D01*
X241605Y121768D01*
Y122022D01*
X241732Y122149D01*
X242367D01*
X242240Y122403D02*
X242367Y122530D01*
Y122783D01*
X242240Y122910D01*
X242113D01*
X241986Y122783D01*
Y122656D01*
Y122783D01*
X241859Y122910D01*
X241732D01*
X241605Y122783D01*
Y122530D01*
X241732Y122403D01*
X109347Y110185D02*
X108839D01*
X109093D01*
Y109423D01*
X108585D02*
Y110185D01*
X108204D01*
X108077Y110058D01*
Y109804D01*
X108204Y109677D01*
X108585D01*
X107316Y109423D02*
X107823D01*
X107316Y109931D01*
Y110058D01*
X107443Y110185D01*
X107697D01*
X107823Y110058D01*
X106554Y110185D02*
X106808Y110058D01*
X107062Y109804D01*
Y109550D01*
X106935Y109423D01*
X106681D01*
X106554Y109550D01*
Y109677D01*
X106681Y109804D01*
X107062D01*
X98348Y102870D02*
X97841D01*
X98094D01*
Y102108D01*
X97587D02*
Y102870D01*
X97206D01*
X97079Y102743D01*
Y102489D01*
X97206Y102362D01*
X97587D01*
X96317Y102108D02*
X96825D01*
X96317Y102616D01*
Y102743D01*
X96444Y102870D01*
X96698D01*
X96825Y102743D01*
X95555Y102870D02*
X96063D01*
Y102489D01*
X95809Y102616D01*
X95682D01*
X95555Y102489D01*
Y102235D01*
X95682Y102108D01*
X95936D01*
X96063Y102235D01*
X124841Y100965D02*
X124333D01*
X124587D01*
Y100203D01*
X124079D02*
Y100965D01*
X123698D01*
X123571Y100838D01*
Y100584D01*
X123698Y100457D01*
X124079D01*
X122809Y100203D02*
X123317D01*
X122809Y100711D01*
Y100838D01*
X122936Y100965D01*
X123190D01*
X123317Y100838D01*
X122174Y100203D02*
Y100965D01*
X122555Y100584D01*
X122047D01*
X222719Y93192D02*
X222212D01*
X222466D01*
Y92431D01*
X221958D02*
Y93192D01*
X221577D01*
X221450Y93066D01*
Y92812D01*
X221577Y92685D01*
X221958D01*
X221196Y92431D02*
X220942D01*
X221069D01*
Y93192D01*
X221196Y93066D01*
X220561Y92558D02*
X220434Y92431D01*
X220180D01*
X220053Y92558D01*
Y93066D01*
X220180Y93192D01*
X220434D01*
X220561Y93066D01*
Y92939D01*
X220434Y92812D01*
X220053D01*
X222719Y97155D02*
X222212D01*
X222466D01*
Y96393D01*
X221958D02*
Y97155D01*
X221577D01*
X221450Y97028D01*
Y96774D01*
X221577Y96647D01*
X221958D01*
X221196Y96393D02*
X220942D01*
X221069D01*
Y97155D01*
X221196Y97028D01*
X220561D02*
X220434Y97155D01*
X220180D01*
X220053Y97028D01*
Y96901D01*
X220180Y96774D01*
X220053Y96647D01*
Y96520D01*
X220180Y96393D01*
X220434D01*
X220561Y96520D01*
Y96647D01*
X220434Y96774D01*
X220561Y96901D01*
Y97028D01*
X220434Y96774D02*
X220180D01*
X124371Y134848D02*
X123863D01*
X124117D01*
Y134087D01*
X123609D02*
Y134848D01*
X123228D01*
X123101Y134722D01*
Y134468D01*
X123228Y134341D01*
X123609D01*
X122847Y134087D02*
X122593D01*
X122720D01*
Y134848D01*
X122847Y134722D01*
X121705Y134087D02*
X122212D01*
X121705Y134595D01*
Y134722D01*
X121831Y134848D01*
X122085D01*
X122212Y134722D01*
X98031Y137261D02*
X97523D01*
X97777D01*
Y136500D01*
X97269D02*
Y137261D01*
X96888D01*
X96761Y137135D01*
Y136881D01*
X96888Y136754D01*
X97269D01*
X96507Y136500D02*
X96253D01*
X96380D01*
Y137261D01*
X96507Y137135D01*
X95873Y136500D02*
X95619D01*
X95746D01*
Y137261D01*
X95873Y137135D01*
X242722Y133451D02*
X242215D01*
X242468D01*
Y132690D01*
X241961D02*
Y133451D01*
X241580D01*
X241453Y133324D01*
Y133070D01*
X241580Y132944D01*
X241961D01*
X240691Y133451D02*
X241199D01*
Y133070D01*
X240945Y133197D01*
X240818D01*
X240691Y133070D01*
Y132817D01*
X240818Y132690D01*
X241072D01*
X241199Y132817D01*
X242112Y111760D02*
X241605D01*
X241859D01*
Y110998D01*
X241351D02*
Y111760D01*
X240970D01*
X240843Y111633D01*
Y111379D01*
X240970Y111252D01*
X241351D01*
X240208Y110998D02*
Y111760D01*
X240589Y111379D01*
X240081D01*
X108661Y144729D02*
X108153D01*
X108407D01*
Y143967D01*
X107899D02*
Y144729D01*
X107519D01*
X107392Y144602D01*
Y144348D01*
X107519Y144221D01*
X107899D01*
X106630Y143967D02*
X107138D01*
X106630Y144475D01*
Y144602D01*
X106757Y144729D01*
X107011D01*
X107138Y144602D01*
X236982Y151638D02*
X236474D01*
X236728D01*
Y150876D01*
X236220D02*
Y151638D01*
X235839D01*
X235712Y151511D01*
Y151257D01*
X235839Y151130D01*
X236220D01*
X235458Y150876D02*
X235205D01*
X235332D01*
Y151638D01*
X235458Y151511D01*
X125819Y70231D02*
Y69469D01*
X126200D01*
X126327Y69596D01*
Y69850D01*
X126200Y69977D01*
X125819D01*
X126073D02*
X126327Y70231D01*
X126581D02*
Y69469D01*
X126962D01*
X127089Y69596D01*
Y69850D01*
X126962Y69977D01*
X126581D01*
X127343Y70231D02*
X127597D01*
X127470D01*
Y69469D01*
X127343Y69596D01*
X128485Y70231D02*
X127978D01*
X128485Y69723D01*
Y69596D01*
X128359Y69469D01*
X128105D01*
X127978Y69596D01*
X125756Y104089D02*
Y103327D01*
X126137D01*
X126264Y103454D01*
Y103708D01*
X126137Y103835D01*
X125756D01*
X126010D02*
X126264Y104089D01*
X126517D02*
Y103327D01*
X126898D01*
X127025Y103454D01*
Y103708D01*
X126898Y103835D01*
X126517D01*
X127279Y103454D02*
X127406Y103327D01*
X127660D01*
X127787Y103454D01*
Y103581D01*
X127660Y103708D01*
X127787Y103835D01*
Y103962D01*
X127660Y104089D01*
X127406D01*
X127279Y103962D01*
Y103835D01*
X127406Y103708D01*
X127279Y103581D01*
Y103454D01*
X127406Y103708D02*
X127660D01*
X215316Y97968D02*
Y98730D01*
X214935D01*
X214808Y98603D01*
Y98349D01*
X214935Y98222D01*
X215316D01*
X215062D02*
X214808Y97968D01*
X214554D02*
Y98730D01*
X214173D01*
X214046Y98603D01*
Y98349D01*
X214173Y98222D01*
X214554D01*
X213284Y98730D02*
X213792D01*
Y98349D01*
X213538Y98476D01*
X213411D01*
X213284Y98349D01*
Y98095D01*
X213411Y97968D01*
X213665D01*
X213792Y98095D01*
X125070Y138455D02*
Y137694D01*
X125451D01*
X125578Y137820D01*
Y138074D01*
X125451Y138201D01*
X125070D01*
X125324D02*
X125578Y138455D01*
X125832D02*
Y137694D01*
X126213D01*
X126340Y137820D01*
Y138074D01*
X126213Y138201D01*
X125832D01*
X126593Y137820D02*
X126720Y137694D01*
X126974D01*
X127101Y137820D01*
Y137947D01*
X126974Y138074D01*
X126847D01*
X126974D01*
X127101Y138201D01*
Y138328D01*
X126974Y138455D01*
X126720D01*
X126593Y138328D01*
X242697Y147244D02*
X241935D01*
Y146863D01*
X242062Y146736D01*
X242316D01*
X242443Y146863D01*
Y147244D01*
Y146990D02*
X242697Y146736D01*
X242062Y145974D02*
X241935Y146101D01*
Y146355D01*
X242062Y146482D01*
X242570D01*
X242697Y146355D01*
Y146101D01*
X242570Y145974D01*
X242316D01*
Y146228D01*
X242697Y145720D02*
Y145466D01*
Y145593D01*
X241935D01*
X242062Y145720D01*
X66116Y80213D02*
X66370D01*
X66243D01*
Y79578D01*
X66370Y79451D01*
X66497D01*
X66624Y79578D01*
X65354Y80213D02*
X65862D01*
Y79832D01*
X65608Y79959D01*
X65481D01*
X65354Y79832D01*
Y79578D01*
X65481Y79451D01*
X65735D01*
X65862Y79578D01*
X65507Y147980D02*
X65760D01*
X65634D01*
Y147345D01*
X65760Y147219D01*
X65887D01*
X66014Y147345D01*
X64872Y147219D02*
Y147980D01*
X65253Y147599D01*
X64745D01*
X65811Y113919D02*
X66065D01*
X65938D01*
Y113284D01*
X66065Y113157D01*
X66192D01*
X66319Y113284D01*
X65050Y113157D02*
X65557D01*
X65050Y113665D01*
Y113792D01*
X65177Y113919D01*
X65430D01*
X65557Y113792D01*
X131293Y75273D02*
X132054D01*
Y74892D01*
X131928Y74765D01*
X131420D01*
X131293Y74892D01*
Y75273D01*
X132054Y74511D02*
Y74257D01*
Y74384D01*
X131293D01*
X131420Y74511D01*
X131293Y73876D02*
Y73368D01*
X131420D01*
X131928Y73876D01*
X132054D01*
X130785Y108877D02*
X131546D01*
Y108496D01*
X131420Y108369D01*
X130912D01*
X130785Y108496D01*
Y108877D01*
X131546Y108115D02*
Y107861D01*
Y107988D01*
X130785D01*
X130912Y108115D01*
Y107480D02*
X130785Y107353D01*
Y107099D01*
X130912Y106972D01*
X131420D01*
X131546Y107099D01*
Y107353D01*
X131420Y107480D01*
X130912D01*
X130251Y143637D02*
X131013D01*
Y143256D01*
X130886Y143129D01*
X130378D01*
X130251Y143256D01*
Y143637D01*
X131013Y142494D02*
X130251D01*
X130632Y142875D01*
Y142367D01*
X147422Y156820D02*
X147549Y156946D01*
X147802D01*
X147929Y156820D01*
Y156312D01*
X147802Y156185D01*
X147549D01*
X147422Y156312D01*
X147168Y156185D02*
X146914D01*
X147041D01*
Y156946D01*
X147168Y156820D01*
%TF.MD5,c3f80784f5a09a0d7c67a8af52c92597*%
M02*
