%TF.GenerationSoftware,Altium Limited,Altium Designer,21.6.4 (81)*%
G04 Layer_Color=0*
%FSLAX43Y43*%
%MOMM*%
%TF.SameCoordinates,EC4FC630-8089-4DC4-91AF-8D111CED9019*%
%TF.FilePolarity,Positive*%
%TF.FileFunction,Profile,NP*%
%TF.Part,Single*%
G01*
G75*
%TA.AperFunction,Profile*%
%ADD100C,0.025*%
G36*
X79673Y136435D02*
Y136327D01*
X79715Y136116D01*
X79797Y135918D01*
X79917Y135739D01*
X80069Y135586D01*
X80248Y135467D01*
X80447Y135385D01*
X80658Y135343D01*
X80765D01*
X80873D01*
X81084Y135385D01*
X81283Y135467D01*
X81462Y135586D01*
X81614Y135739D01*
X81733Y135918D01*
X81816Y136116D01*
X81858Y136327D01*
Y136435D01*
Y136543D01*
X81816Y136754D01*
X81733Y136953D01*
X81614Y137132D01*
X81462Y137284D01*
X81283Y137403D01*
X81084Y137486D01*
X80873Y137528D01*
X80765D01*
X80658D01*
X80447Y137486D01*
X80248Y137403D01*
X80069Y137284D01*
X79917Y137132D01*
X79797Y136953D01*
X79715Y136754D01*
X79673Y136543D01*
Y136435D01*
D01*
D02*
G37*
G36*
X79601Y154477D02*
Y154369D01*
X79643Y154158D01*
X79725Y153959D01*
X79845Y153780D01*
X79997Y153628D01*
X80176Y153509D01*
X80374Y153426D01*
X80586Y153384D01*
X80693D01*
X80801D01*
X81012Y153426D01*
X81211Y153509D01*
X81390Y153628D01*
X81542Y153780D01*
X81661Y153959D01*
X81744Y154158D01*
X81786Y154369D01*
Y154477D01*
Y154584D01*
X81744Y154795D01*
X81661Y154994D01*
X81542Y155173D01*
X81390Y155325D01*
X81211Y155445D01*
X81012Y155527D01*
X80801Y155569D01*
X80693D01*
X80586D01*
X80374Y155527D01*
X80176Y155445D01*
X79997Y155325D01*
X79845Y155173D01*
X79725Y154994D01*
X79643Y154795D01*
X79601Y154584D01*
Y154477D01*
D01*
D02*
G37*
G36*
X78606Y101027D02*
Y100920D01*
X78648Y100709D01*
X78730Y100510D01*
X78850Y100331D01*
X79002Y100179D01*
X79181Y100059D01*
X79380Y99977D01*
X79591Y99935D01*
X79699D01*
X79806D01*
X80017Y99977D01*
X80216Y100059D01*
X80395Y100179D01*
X80547Y100331D01*
X80667Y100510D01*
X80749Y100709D01*
X80791Y100920D01*
Y101027D01*
Y101135D01*
X80749Y101346D01*
X80667Y101545D01*
X80547Y101724D01*
X80395Y101876D01*
X80216Y101996D01*
X80017Y102078D01*
X79806Y102120D01*
X79699D01*
X79591D01*
X79380Y102078D01*
X79181Y101996D01*
X79002Y101876D01*
X78850Y101724D01*
X78730Y101545D01*
X78648Y101346D01*
X78606Y101135D01*
Y101027D01*
D01*
D02*
G37*
G36*
X78534Y119069D02*
Y118962D01*
X78576Y118751D01*
X78658Y118552D01*
X78778Y118373D01*
X78930Y118221D01*
X79109Y118101D01*
X79308Y118019D01*
X79519Y117977D01*
X79626D01*
X79734D01*
X79945Y118019D01*
X80144Y118101D01*
X80323Y118221D01*
X80475Y118373D01*
X80595Y118552D01*
X80677Y118751D01*
X80719Y118962D01*
Y119069D01*
Y119177D01*
X80677Y119388D01*
X80595Y119587D01*
X80475Y119766D01*
X80323Y119918D01*
X80144Y120037D01*
X79945Y120120D01*
X79734Y120162D01*
X79626D01*
X79519D01*
X79308Y120120D01*
X79109Y120037D01*
X78930Y119918D01*
X78778Y119766D01*
X78658Y119587D01*
X78576Y119388D01*
X78534Y119177D01*
Y119069D01*
D01*
D02*
G37*
G36*
X78483Y85008D02*
Y84900D01*
X78525Y84689D01*
X78607Y84490D01*
X78727Y84311D01*
X78879Y84159D01*
X79058Y84040D01*
X79257Y83957D01*
X79468Y83915D01*
X79576D01*
X79683D01*
X79894Y83957D01*
X80093Y84040D01*
X80272Y84159D01*
X80424Y84311D01*
X80544Y84490D01*
X80626Y84689D01*
X80668Y84900D01*
Y85008D01*
Y85115D01*
X80626Y85326D01*
X80544Y85525D01*
X80424Y85704D01*
X80272Y85856D01*
X80093Y85976D01*
X79894Y86058D01*
X79683Y86100D01*
X79576D01*
X79468D01*
X79257Y86058D01*
X79058Y85976D01*
X78879Y85856D01*
X78727Y85704D01*
X78607Y85525D01*
X78525Y85326D01*
X78483Y85115D01*
Y85008D01*
D01*
D02*
G37*
G36*
X88829Y173357D02*
X88731D01*
X88538Y173396D01*
X88356Y173471D01*
X88192Y173580D01*
X88053Y173720D01*
X87943Y173884D01*
X87868Y174066D01*
X87829Y174259D01*
Y174357D01*
Y174456D01*
X87868Y174649D01*
X87943Y174831D01*
X88053Y174995D01*
X88192Y175134D01*
X88356Y175243D01*
X88538Y175319D01*
X88731Y175357D01*
X88829D01*
X88928D01*
X89121Y175319D01*
X89303Y175243D01*
X89467Y175134D01*
X89606Y174995D01*
X89716Y174831D01*
X89791Y174649D01*
X89829Y174456D01*
Y174357D01*
Y174259D01*
X89791Y174066D01*
X89716Y173884D01*
X89606Y173720D01*
X89467Y173580D01*
X89303Y173471D01*
X89121Y173396D01*
X88928Y173357D01*
X88829D01*
D01*
D02*
G37*
G36*
X242138Y162957D02*
X242040D01*
X241847Y162995D01*
X241665Y163071D01*
X241501Y163180D01*
X241361Y163320D01*
X241252Y163483D01*
X241177Y163665D01*
X241138Y163859D01*
Y163957D01*
Y164055D01*
X241177Y164249D01*
X241252Y164431D01*
X241361Y164594D01*
X241501Y164734D01*
X241665Y164843D01*
X241847Y164919D01*
X242040Y164957D01*
X242138D01*
X242237D01*
X242430Y164919D01*
X242612Y164843D01*
X242776Y164734D01*
X242915Y164594D01*
X243024Y164431D01*
X243100Y164249D01*
X243138Y164055D01*
Y163957D01*
Y163859D01*
X243100Y163665D01*
X243024Y163483D01*
X242915Y163320D01*
X242776Y163180D01*
X242612Y163071D01*
X242430Y162995D01*
X242237Y162957D01*
X242138D01*
D01*
D02*
G37*
G36*
X242169Y173205D02*
X242071D01*
X241878Y173243D01*
X241696Y173319D01*
X241532Y173428D01*
X241393Y173567D01*
X241283Y173731D01*
X241208Y173913D01*
X241169Y174106D01*
Y174205D01*
Y174303D01*
X241208Y174496D01*
X241283Y174678D01*
X241393Y174842D01*
X241532Y174982D01*
X241696Y175091D01*
X241878Y175166D01*
X242071Y175205D01*
X242169D01*
X242268D01*
X242461Y175166D01*
X242643Y175091D01*
X242807Y174982D01*
X242946Y174842D01*
X243055Y174678D01*
X243131Y174496D01*
X243169Y174303D01*
Y174205D01*
Y174106D01*
X243131Y173913D01*
X243055Y173731D01*
X242946Y173567D01*
X242807Y173428D01*
X242643Y173319D01*
X242461Y173243D01*
X242268Y173205D01*
X242169D01*
D01*
D02*
G37*
G36*
X210998Y162855D02*
X210899D01*
X210706Y162894D01*
X210524Y162969D01*
X210360Y163079D01*
X210221Y163218D01*
X210112Y163382D01*
X210036Y163564D01*
X209998Y163757D01*
Y163855D01*
Y163954D01*
X210036Y164147D01*
X210112Y164329D01*
X210221Y164493D01*
X210360Y164632D01*
X210524Y164742D01*
X210706Y164817D01*
X210899Y164855D01*
X210998D01*
X211096D01*
X211289Y164817D01*
X211471Y164742D01*
X211635Y164632D01*
X211775Y164493D01*
X211884Y164329D01*
X211959Y164147D01*
X211998Y163954D01*
Y163855D01*
Y163757D01*
X211959Y163564D01*
X211884Y163382D01*
X211775Y163218D01*
X211635Y163079D01*
X211471Y162969D01*
X211289Y162894D01*
X211096Y162855D01*
X210998D01*
D01*
D02*
G37*
G36*
X211029Y173103D02*
X210930D01*
X210737Y173142D01*
X210555Y173217D01*
X210391Y173326D01*
X210252Y173466D01*
X210143Y173630D01*
X210067Y173811D01*
X210029Y174005D01*
Y174103D01*
Y174202D01*
X210067Y174395D01*
X210143Y174577D01*
X210252Y174741D01*
X210391Y174880D01*
X210555Y174989D01*
X210737Y175065D01*
X210930Y175103D01*
X211029D01*
X211127D01*
X211321Y175065D01*
X211503Y174989D01*
X211666Y174880D01*
X211806Y174741D01*
X211915Y174577D01*
X211990Y174395D01*
X212029Y174202D01*
Y174103D01*
Y174005D01*
X211990Y173811D01*
X211915Y173630D01*
X211806Y173466D01*
X211666Y173326D01*
X211503Y173217D01*
X211321Y173142D01*
X211127Y173103D01*
X211029D01*
D01*
D02*
G37*
G36*
X180340Y163033D02*
X180242D01*
X180048Y163072D01*
X179866Y163147D01*
X179703Y163256D01*
X179563Y163396D01*
X179454Y163560D01*
X179378Y163742D01*
X179340Y163935D01*
Y164033D01*
Y164132D01*
X179378Y164325D01*
X179454Y164507D01*
X179563Y164671D01*
X179703Y164810D01*
X179866Y164919D01*
X180048Y164995D01*
X180242Y165033D01*
X180340D01*
X180438D01*
X180632Y164995D01*
X180814Y164919D01*
X180977Y164810D01*
X181117Y164671D01*
X181226Y164507D01*
X181302Y164325D01*
X181340Y164132D01*
Y164033D01*
Y163935D01*
X181302Y163742D01*
X181226Y163560D01*
X181117Y163396D01*
X180977Y163256D01*
X180814Y163147D01*
X180632Y163072D01*
X180438Y163033D01*
X180340D01*
D01*
D02*
G37*
G36*
X180371Y173281D02*
X180273D01*
X180079Y173319D01*
X179897Y173395D01*
X179734Y173504D01*
X179594Y173644D01*
X179485Y173807D01*
X179410Y173989D01*
X179371Y174182D01*
Y174281D01*
Y174379D01*
X179410Y174573D01*
X179485Y174755D01*
X179594Y174918D01*
X179734Y175058D01*
X179897Y175167D01*
X180079Y175243D01*
X180273Y175281D01*
X180371D01*
X180470D01*
X180663Y175243D01*
X180845Y175167D01*
X181009Y175058D01*
X181148Y174918D01*
X181257Y174755D01*
X181333Y174573D01*
X181371Y174379D01*
Y174281D01*
Y174182D01*
X181333Y173989D01*
X181257Y173807D01*
X181148Y173644D01*
X181009Y173504D01*
X180845Y173395D01*
X180663Y173319D01*
X180470Y173281D01*
X180371D01*
D01*
D02*
G37*
G36*
X149809Y163186D02*
X149711D01*
X149518Y163224D01*
X149336Y163299D01*
X149172Y163409D01*
X149032Y163548D01*
X148923Y163712D01*
X148848Y163894D01*
X148809Y164087D01*
Y164186D01*
Y164284D01*
X148848Y164477D01*
X148923Y164659D01*
X149032Y164823D01*
X149172Y164962D01*
X149336Y165072D01*
X149518Y165147D01*
X149711Y165186D01*
X149809D01*
X149908D01*
X150101Y165147D01*
X150283Y165072D01*
X150447Y164962D01*
X150586Y164823D01*
X150695Y164659D01*
X150771Y164477D01*
X150809Y164284D01*
Y164186D01*
Y164087D01*
X150771Y163894D01*
X150695Y163712D01*
X150586Y163548D01*
X150447Y163409D01*
X150283Y163299D01*
X150101Y163224D01*
X149908Y163186D01*
X149809D01*
D01*
D02*
G37*
G36*
X149840Y173433D02*
X149742D01*
X149549Y173472D01*
X149367Y173547D01*
X149203Y173657D01*
X149064Y173796D01*
X148954Y173960D01*
X148879Y174142D01*
X148840Y174335D01*
Y174433D01*
Y174532D01*
X148879Y174725D01*
X148954Y174907D01*
X149064Y175071D01*
X149203Y175210D01*
X149367Y175320D01*
X149549Y175395D01*
X149742Y175433D01*
X149840D01*
X149939D01*
X150132Y175395D01*
X150314Y175320D01*
X150478Y175210D01*
X150617Y175071D01*
X150726Y174907D01*
X150802Y174725D01*
X150840Y174532D01*
Y174433D01*
Y174335D01*
X150802Y174142D01*
X150726Y173960D01*
X150617Y173796D01*
X150478Y173657D01*
X150314Y173547D01*
X150132Y173472D01*
X149939Y173433D01*
X149840D01*
D01*
D02*
G37*
G36*
X119329Y162982D02*
X119231D01*
X119038Y163021D01*
X118856Y163096D01*
X118692Y163206D01*
X118552Y163345D01*
X118443Y163509D01*
X118368Y163691D01*
X118329Y163884D01*
Y163982D01*
Y164081D01*
X118368Y164274D01*
X118443Y164456D01*
X118552Y164620D01*
X118692Y164759D01*
X118856Y164869D01*
X119038Y164944D01*
X119231Y164982D01*
X119329D01*
X119428D01*
X119621Y164944D01*
X119803Y164869D01*
X119967Y164759D01*
X120106Y164620D01*
X120215Y164456D01*
X120291Y164274D01*
X120329Y164081D01*
Y163982D01*
Y163884D01*
X120291Y163691D01*
X120215Y163509D01*
X120106Y163345D01*
X119967Y163206D01*
X119803Y163096D01*
X119621Y163021D01*
X119428Y162982D01*
X119329D01*
D01*
D02*
G37*
G36*
X119360Y173230D02*
X119262D01*
X119069Y173269D01*
X118887Y173344D01*
X118723Y173453D01*
X118584Y173593D01*
X118474Y173757D01*
X118399Y173939D01*
X118360Y174132D01*
Y174230D01*
Y174329D01*
X118399Y174522D01*
X118474Y174704D01*
X118584Y174868D01*
X118723Y175007D01*
X118887Y175116D01*
X119069Y175192D01*
X119262Y175230D01*
X119360D01*
X119459D01*
X119652Y175192D01*
X119834Y175116D01*
X119998Y175007D01*
X120137Y174868D01*
X120246Y174704D01*
X120322Y174522D01*
X120360Y174329D01*
Y174230D01*
Y174132D01*
X120322Y173939D01*
X120246Y173757D01*
X120137Y173593D01*
X119998Y173453D01*
X119834Y173344D01*
X119652Y173269D01*
X119459Y173230D01*
X119360D01*
D01*
D02*
G37*
G36*
X124378Y160414D02*
X151511Y160414D01*
X151606D01*
X151790Y160464D01*
X151955Y160559D01*
X152090Y160693D01*
X152185Y160858D01*
X152234Y161042D01*
Y161233D01*
X152185Y161417D01*
X152090Y161582D01*
X151955Y161716D01*
X151790Y161811D01*
X151606Y161861D01*
X151511D01*
Y161861D01*
X124381Y161861D01*
X124285Y161861D01*
X124101Y161812D01*
X123936Y161717D01*
X123801Y161583D01*
X123705Y161418D01*
X123655Y161234D01*
X123655Y161043D01*
X123704Y160859D01*
X123799Y160694D01*
X123934Y160559D01*
X124099Y160464D01*
X124283Y160414D01*
X124378Y160414D01*
D01*
D02*
G37*
G36*
X216428Y160541D02*
X243561Y160541D01*
X243656D01*
X243840Y160591D01*
X244005Y160686D01*
X244139Y160820D01*
X244235Y160985D01*
X244284Y161169D01*
Y161360D01*
X244235Y161544D01*
X244139Y161709D01*
X244005Y161843D01*
X243840Y161939D01*
X243656Y161988D01*
X243561D01*
Y161988D01*
X216430Y161988D01*
X216335Y161988D01*
X216151Y161939D01*
X215985Y161844D01*
X215850Y161710D01*
X215754Y161545D01*
X215705Y161361D01*
X215705Y161170D01*
X215754Y160986D01*
X215849Y160821D01*
X215983Y160686D01*
X216148Y160591D01*
X216333Y160541D01*
X216428Y160541D01*
D01*
D02*
G37*
G36*
X185541Y160440D02*
X212674Y160440D01*
X212769D01*
X212953Y160489D01*
X213118Y160584D01*
X213253Y160719D01*
X213348Y160884D01*
X213397Y161068D01*
Y161258D01*
X213348Y161442D01*
X213253Y161607D01*
X213118Y161742D01*
X212953Y161837D01*
X212769Y161886D01*
X212674D01*
Y161886D01*
X185544Y161886D01*
X185448Y161886D01*
X185264Y161838D01*
X185099Y161743D01*
X184964Y161608D01*
X184868Y161443D01*
X184818Y161259D01*
X184818Y161069D01*
X184867Y160885D01*
X184962Y160719D01*
X185097Y160585D01*
X185262Y160489D01*
X185446Y160440D01*
X185541Y160440D01*
D01*
D02*
G37*
G36*
X154680Y160414D02*
X181813Y160414D01*
X181908D01*
X182092Y160464D01*
X182257Y160559D01*
X182392Y160693D01*
X182487Y160858D01*
X182536Y161042D01*
Y161233D01*
X182487Y161417D01*
X182392Y161582D01*
X182257Y161716D01*
X182092Y161811D01*
X181908Y161861D01*
X181813D01*
Y161861D01*
X154683Y161861D01*
X154587Y161861D01*
X154403Y161812D01*
X154238Y161717D01*
X154103Y161583D01*
X154007Y161418D01*
X153957Y161234D01*
X153957Y161043D01*
X154006Y160859D01*
X154101Y160694D01*
X154236Y160559D01*
X154401Y160464D01*
X154585Y160414D01*
X154680Y160414D01*
D01*
D02*
G37*
G36*
X93746Y160491D02*
X120879Y160491D01*
X120974D01*
X121158Y160540D01*
X121323Y160635D01*
X121457Y160770D01*
X121553Y160935D01*
X121602Y161119D01*
Y161309D01*
X121553Y161493D01*
X121457Y161658D01*
X121323Y161792D01*
X121158Y161888D01*
X120974Y161937D01*
X120879D01*
Y161937D01*
X93748Y161937D01*
X93653Y161937D01*
X93469Y161888D01*
X93303Y161794D01*
X93168Y161659D01*
X93072Y161494D01*
X93023Y161310D01*
X93023Y161120D01*
X93072Y160935D01*
X93167Y160770D01*
X93301Y160635D01*
X93466Y160540D01*
X93651Y160491D01*
X93746Y160491D01*
D01*
D02*
G37*
G36*
X62433Y160453D02*
X89566Y160453D01*
X89661D01*
X89845Y160502D01*
X90010Y160597D01*
X90145Y160732D01*
X90240Y160897D01*
X90289Y161081D01*
Y161271D01*
X90240Y161455D01*
X90145Y161620D01*
X90010Y161755D01*
X89845Y161850D01*
X89661Y161899D01*
X89566D01*
Y161899D01*
X62435Y161899D01*
X62340Y161900D01*
X62156Y161851D01*
X61991Y161756D01*
X61855Y161621D01*
X61760Y161457D01*
X61710Y161273D01*
X61710Y161082D01*
X61759Y160898D01*
X61854Y160733D01*
X61989Y160598D01*
X62154Y160502D01*
X62338Y160453D01*
X62433Y160453D01*
D01*
D02*
G37*
G36*
X88798Y163109D02*
X88700D01*
X88507Y163148D01*
X88325Y163223D01*
X88161Y163333D01*
X88022Y163472D01*
X87912Y163636D01*
X87837Y163818D01*
X87798Y164011D01*
Y164109D01*
Y164208D01*
X87837Y164401D01*
X87912Y164583D01*
X88022Y164747D01*
X88161Y164886D01*
X88325Y164996D01*
X88507Y165071D01*
X88700Y165109D01*
X88798D01*
X88897D01*
X89090Y165071D01*
X89272Y164996D01*
X89436Y164886D01*
X89575Y164747D01*
X89685Y164583D01*
X89760Y164401D01*
X89798Y164208D01*
Y164109D01*
Y164011D01*
X89760Y163818D01*
X89685Y163636D01*
X89575Y163472D01*
X89436Y163333D01*
X89272Y163223D01*
X89090Y163148D01*
X88897Y163109D01*
X88798D01*
D01*
D02*
G37*
G36*
X213594Y162453D02*
X213593Y175159D01*
Y175254D01*
X213642Y175438D01*
X213738Y175603D01*
X213873Y175738D01*
X214038Y175833D01*
X214222Y175882D01*
X214413Y175882D01*
X214597Y175832D01*
X214762Y175737D01*
X214896Y175602D01*
X214991Y175436D01*
X215040Y175252D01*
X215039Y175157D01*
X215039Y175157D01*
X215041Y162453D01*
Y162358D01*
X214991Y162174D01*
X214896Y162009D01*
X214761Y161874D01*
X214597Y161779D01*
X214413Y161730D01*
X214222D01*
X214038Y161779D01*
X213873Y161874D01*
X213739Y162009D01*
X213644Y162174D01*
X213594Y162358D01*
Y162453D01*
D01*
D02*
G37*
G36*
X182936Y162479D02*
X182935Y175184D01*
Y175280D01*
X182985Y175464D01*
X183080Y175629D01*
X183215Y175763D01*
X183380Y175859D01*
X183564Y175908D01*
X183755Y175907D01*
X183939Y175858D01*
X184104Y175762D01*
X184238Y175627D01*
X184333Y175462D01*
X184382Y175277D01*
X184382Y175182D01*
X184382Y175182D01*
X184383Y162479D01*
Y162383D01*
X184334Y162199D01*
X184238Y162035D01*
X184104Y161900D01*
X183939Y161805D01*
X183755Y161755D01*
X183564D01*
X183380Y161805D01*
X183216Y161900D01*
X183081Y162035D01*
X182986Y162199D01*
X182936Y162383D01*
Y162479D01*
D01*
D02*
G37*
G36*
X152355Y162453D02*
X152354Y175159D01*
Y175254D01*
X152403Y175438D01*
X152498Y175603D01*
X152633Y175738D01*
X152799Y175833D01*
X152983Y175882D01*
X153173Y175882D01*
X153357Y175832D01*
X153522Y175737D01*
X153657Y175602D01*
X153752Y175436D01*
X153800Y175252D01*
X153800Y175157D01*
X153800Y175157D01*
X153801Y162453D01*
Y162358D01*
X153752Y162174D01*
X153657Y162009D01*
X153522Y161874D01*
X153357Y161779D01*
X153173Y161730D01*
X152983D01*
X152799Y161779D01*
X152634Y161874D01*
X152499Y162009D01*
X152404Y162174D01*
X152355Y162358D01*
Y162453D01*
D01*
D02*
G37*
G36*
X121829Y162479D02*
X121828Y175184D01*
Y175280D01*
X121877Y175464D01*
X121973Y175629D01*
X122108Y175763D01*
X122273Y175859D01*
X122457Y175908D01*
X122648Y175907D01*
X122832Y175858D01*
X122997Y175762D01*
X123131Y175627D01*
X123226Y175462D01*
X123275Y175277D01*
X123274Y175182D01*
X123274Y175182D01*
X123275Y162479D01*
Y162383D01*
X123226Y162199D01*
X123131Y162034D01*
X122996Y161900D01*
X122831Y161805D01*
X122648Y161755D01*
X122457D01*
X122273Y161805D01*
X122108Y161900D01*
X121974Y162034D01*
X121878Y162199D01*
X121829Y162383D01*
Y162479D01*
D01*
D02*
G37*
G36*
X91306Y162453D02*
X91305Y175159D01*
Y175254D01*
X91354Y175438D01*
X91450Y175603D01*
X91584Y175738D01*
X91750Y175833D01*
X91934Y175882D01*
X92124Y175882D01*
X92308Y175832D01*
X92473Y175737D01*
X92608Y175602D01*
X92703Y175436D01*
X92751Y175252D01*
X92751Y175157D01*
X92751Y175157D01*
X92752Y162453D01*
Y162358D01*
X92703Y162174D01*
X92608Y162009D01*
X92473Y161874D01*
X92308Y161779D01*
X92124Y161730D01*
X91934D01*
X91750Y161779D01*
X91585Y161874D01*
X91450Y162009D01*
X91355Y162174D01*
X91306Y162358D01*
Y162453D01*
D01*
D02*
G37*
G36*
X236880Y59207D02*
Y58957D01*
X236978Y58467D01*
X237169Y58004D01*
X237447Y57588D01*
X237801Y57234D01*
X238217Y56956D01*
X238680Y56765D01*
X239170Y56667D01*
X239420D01*
X239671D01*
X240161Y56765D01*
X240624Y56956D01*
X241040Y57234D01*
X241393Y57588D01*
X241671Y58004D01*
X241863Y58467D01*
X241960Y58957D01*
Y59207D01*
Y59458D01*
X241863Y59948D01*
X241671Y60411D01*
X241393Y60827D01*
X241040Y61180D01*
X240624Y61458D01*
X240161Y61650D01*
X239671Y61747D01*
X239420D01*
X239170D01*
X238680Y61650D01*
X238217Y61458D01*
X237801Y61180D01*
X237447Y60827D01*
X237169Y60411D01*
X236978Y59948D01*
X236880Y59458D01*
Y59207D01*
D01*
D02*
G37*
G36*
X237820Y155931D02*
Y155680D01*
X237918Y155190D01*
X238109Y154727D01*
X238387Y154311D01*
X238741Y153958D01*
X239157Y153680D01*
X239619Y153488D01*
X240110Y153391D01*
X240360D01*
X240610D01*
X241101Y153488D01*
X241563Y153680D01*
X241979Y153958D01*
X242333Y154311D01*
X242611Y154727D01*
X242803Y155190D01*
X242900Y155680D01*
Y155931D01*
Y156181D01*
X242803Y156671D01*
X242611Y157134D01*
X242333Y157550D01*
X241979Y157904D01*
X241563Y158182D01*
X241101Y158373D01*
X240610Y158471D01*
X240360D01*
X240110D01*
X239619Y158373D01*
X239157Y158182D01*
X238741Y157904D01*
X238387Y157550D01*
X238109Y157134D01*
X237918Y156671D01*
X237820Y156181D01*
Y155931D01*
D01*
D02*
G37*
G36*
X78555Y66966D02*
Y66858D01*
X78597Y66647D01*
X78680Y66449D01*
X78799Y66270D01*
X78951Y66117D01*
X79130Y65998D01*
X79329Y65916D01*
X79540Y65874D01*
X79648D01*
X79755D01*
X79966Y65916D01*
X80165Y65998D01*
X80344Y66117D01*
X80496Y66270D01*
X80616Y66449D01*
X80698Y66647D01*
X80740Y66858D01*
Y66966D01*
Y67074D01*
X80698Y67285D01*
X80616Y67484D01*
X80496Y67662D01*
X80344Y67815D01*
X80165Y67934D01*
X79966Y68017D01*
X79755Y68059D01*
X79648D01*
X79540D01*
X79329Y68017D01*
X79130Y67934D01*
X78951Y67815D01*
X78799Y67662D01*
X78680Y67484D01*
X78597Y67285D01*
X78555Y67074D01*
Y66966D01*
D01*
D02*
G37*
G36*
X66599Y153467D02*
X66349D01*
X65858Y153564D01*
X65396Y153756D01*
X64980Y154034D01*
X64626Y154388D01*
X64348Y154804D01*
X64156Y155266D01*
X64059Y155757D01*
Y156007D01*
Y156257D01*
X64156Y156748D01*
X64348Y157210D01*
X64626Y157626D01*
X64980Y157980D01*
X65396Y158258D01*
X65858Y158449D01*
X66349Y158547D01*
X66599D01*
X66849D01*
X67340Y158449D01*
X67802Y158258D01*
X68218Y157980D01*
X68572Y157626D01*
X68850Y157210D01*
X69041Y156748D01*
X69139Y156257D01*
Y156007D01*
Y155757D01*
X69041Y155266D01*
X68850Y154804D01*
X68572Y154388D01*
X68218Y154034D01*
X67802Y153756D01*
X67340Y153564D01*
X66849Y153467D01*
X66599D01*
D01*
D02*
G37*
G36*
X65808Y60503D02*
Y60328D01*
X65854Y59981D01*
X65945Y59643D01*
X66079Y59319D01*
X66254Y59016D01*
X66467Y58739D01*
X66714Y58491D01*
X66992Y58278D01*
X67295Y58103D01*
X67618Y57969D01*
X67956Y57878D01*
X68303Y57833D01*
X68478D01*
X68653D01*
X69000Y57878D01*
X69338Y57969D01*
X69662Y58103D01*
X69965Y58278D01*
X70243Y58491D01*
X70490Y58739D01*
X70703Y59016D01*
X70878Y59319D01*
X71012Y59643D01*
X71103Y59981D01*
X71148Y60328D01*
Y60503D01*
Y60678D01*
X71103Y61025D01*
X71012Y61363D01*
X70878Y61686D01*
X70703Y61989D01*
X70490Y62267D01*
X70243Y62515D01*
X69965Y62728D01*
X69662Y62903D01*
X69338Y63037D01*
X69000Y63127D01*
X68653Y63173D01*
X68478D01*
X68303D01*
X67956Y63127D01*
X67618Y63037D01*
X67295Y62903D01*
X66992Y62728D01*
X66714Y62515D01*
X66467Y62267D01*
X66254Y61989D01*
X66079Y61686D01*
X65945Y61363D01*
X65854Y61025D01*
X65808Y60678D01*
Y60503D01*
D01*
D02*
G37*
D100*
X61341Y53162D02*
Y177317D01*
X245237D01*
Y53162D01*
X61341D01*
%TF.MD5,6bcf60c529e09efdbdcb05d5b09f5817*%
M02*
